%TF.GenerationSoftware,KiCad,Pcbnew,(6.0.10)*%
%TF.CreationDate,2022-12-28T18:34:10-06:00*%
%TF.ProjectId,ScienceMotorController_Hardware_2023,53636965-6e63-4654-9d6f-746f72436f6e,rev?*%
%TF.SameCoordinates,Original*%
%TF.FileFunction,Paste,Top*%
%TF.FilePolarity,Positive*%
%FSLAX46Y46*%
G04 Gerber Fmt 4.6, Leading zero omitted, Abs format (unit mm)*
G04 Created by KiCad (PCBNEW (6.0.10)) date 2022-12-28 18:34:10*
%MOMM*%
%LPD*%
G01*
G04 APERTURE LIST*
G04 Aperture macros list*
%AMRoundRect*
0 Rectangle with rounded corners*
0 $1 Rounding radius*
0 $2 $3 $4 $5 $6 $7 $8 $9 X,Y pos of 4 corners*
0 Add a 4 corners polygon primitive as box body*
4,1,4,$2,$3,$4,$5,$6,$7,$8,$9,$2,$3,0*
0 Add four circle primitives for the rounded corners*
1,1,$1+$1,$2,$3*
1,1,$1+$1,$4,$5*
1,1,$1+$1,$6,$7*
1,1,$1+$1,$8,$9*
0 Add four rect primitives between the rounded corners*
20,1,$1+$1,$2,$3,$4,$5,0*
20,1,$1+$1,$4,$5,$6,$7,0*
20,1,$1+$1,$6,$7,$8,$9,0*
20,1,$1+$1,$8,$9,$2,$3,0*%
G04 Aperture macros list end*
%ADD10RoundRect,0.237500X0.237500X-0.250000X0.237500X0.250000X-0.237500X0.250000X-0.237500X-0.250000X0*%
%ADD11RoundRect,0.237500X-0.237500X0.250000X-0.237500X-0.250000X0.237500X-0.250000X0.237500X0.250000X0*%
%ADD12RoundRect,0.150000X-0.150000X0.825000X-0.150000X-0.825000X0.150000X-0.825000X0.150000X0.825000X0*%
%ADD13RoundRect,0.237500X-0.237500X0.287500X-0.237500X-0.287500X0.237500X-0.287500X0.237500X0.287500X0*%
%ADD14R,2.750000X1.000000*%
%ADD15RoundRect,0.237500X0.250000X0.237500X-0.250000X0.237500X-0.250000X-0.237500X0.250000X-0.237500X0*%
%ADD16RoundRect,0.225000X0.250000X-0.225000X0.250000X0.225000X-0.250000X0.225000X-0.250000X-0.225000X0*%
%ADD17RoundRect,0.237500X0.237500X-0.287500X0.237500X0.287500X-0.237500X0.287500X-0.237500X-0.287500X0*%
%ADD18RoundRect,0.237500X-0.300000X-0.237500X0.300000X-0.237500X0.300000X0.237500X-0.300000X0.237500X0*%
%ADD19RoundRect,0.237500X-0.287500X-0.237500X0.287500X-0.237500X0.287500X0.237500X-0.287500X0.237500X0*%
%ADD20RoundRect,0.225000X0.225000X0.250000X-0.225000X0.250000X-0.225000X-0.250000X0.225000X-0.250000X0*%
%ADD21RoundRect,0.237500X-0.250000X-0.237500X0.250000X-0.237500X0.250000X0.237500X-0.250000X0.237500X0*%
%ADD22RoundRect,0.237500X0.287500X0.237500X-0.287500X0.237500X-0.287500X-0.237500X0.287500X-0.237500X0*%
%ADD23R,0.650000X1.560000*%
G04 APERTURE END LIST*
D10*
X81733000Y-66047500D03*
X81733000Y-64222500D03*
D11*
X143002000Y-139676500D03*
X143002000Y-141501500D03*
D12*
X148929000Y-141543000D03*
X147659000Y-141543000D03*
X146389000Y-141543000D03*
X145119000Y-141543000D03*
X145119000Y-146493000D03*
X146389000Y-146493000D03*
X147659000Y-146493000D03*
X148929000Y-146493000D03*
D11*
X161404000Y-139676500D03*
X161404000Y-141501500D03*
D12*
X148971000Y-115570000D03*
X147701000Y-115570000D03*
X146431000Y-115570000D03*
X145161000Y-115570000D03*
X145161000Y-120520000D03*
X146431000Y-120520000D03*
X147701000Y-120520000D03*
X148971000Y-120520000D03*
X159118000Y-141543000D03*
X157848000Y-141543000D03*
X156578000Y-141543000D03*
X155308000Y-141543000D03*
X155308000Y-146493000D03*
X156578000Y-146493000D03*
X157848000Y-146493000D03*
X159118000Y-146493000D03*
D13*
X83765000Y-64274000D03*
X83765000Y-66024000D03*
D14*
X136675000Y-102217000D03*
X142435000Y-102217000D03*
X136675000Y-98217000D03*
X142435000Y-98217000D03*
D11*
X138049000Y-109958500D03*
X138049000Y-111783500D03*
D14*
X97100000Y-57688000D03*
X91340000Y-57688000D03*
X91340000Y-61688000D03*
X97100000Y-61688000D03*
D15*
X112861700Y-64260000D03*
X111036700Y-64260000D03*
D16*
X124968000Y-134252000D03*
X124968000Y-132702000D03*
D17*
X114554000Y-118985000D03*
X114554000Y-117235000D03*
D11*
X137033000Y-122974500D03*
X137033000Y-124799500D03*
D10*
X100869000Y-66061500D03*
X100869000Y-64236500D03*
D11*
X106553000Y-139676500D03*
X106553000Y-141501500D03*
X101473000Y-110085500D03*
X101473000Y-111910500D03*
D12*
X140843000Y-115570000D03*
X139573000Y-115570000D03*
X138303000Y-115570000D03*
X137033000Y-115570000D03*
X137033000Y-120520000D03*
X138303000Y-120520000D03*
X139573000Y-120520000D03*
X140843000Y-120520000D03*
D17*
X151130000Y-118985000D03*
X151130000Y-117235000D03*
D13*
X74281000Y-64288000D03*
X74281000Y-66038000D03*
D10*
X111633000Y-111910500D03*
X111633000Y-110085500D03*
D11*
X163436000Y-123039500D03*
X163436000Y-124864500D03*
X152042000Y-93875500D03*
X152042000Y-95700500D03*
D18*
X161951500Y-76960000D03*
X163676500Y-76960000D03*
D19*
X58561000Y-109093000D03*
X60311000Y-109093000D03*
D11*
X161567000Y-93875500D03*
X161567000Y-95700500D03*
D15*
X173872500Y-64260000D03*
X172047500Y-64260000D03*
X135749000Y-64260000D03*
X133924000Y-64260000D03*
D11*
X153276000Y-139676500D03*
X153276000Y-141501500D03*
D17*
X124714000Y-118985000D03*
X124714000Y-117235000D03*
D20*
X148984000Y-122998000D03*
X147434000Y-122998000D03*
D11*
X116840000Y-139676500D03*
X116840000Y-141501500D03*
D17*
X132969000Y-118985000D03*
X132969000Y-117235000D03*
D21*
X43180000Y-69848000D03*
X45005000Y-69848000D03*
D10*
X91299000Y-66061500D03*
X91299000Y-64236500D03*
D12*
X122682000Y-141543000D03*
X121412000Y-141543000D03*
X120142000Y-141543000D03*
X118872000Y-141543000D03*
X118872000Y-146493000D03*
X120142000Y-146493000D03*
X121412000Y-146493000D03*
X122682000Y-146493000D03*
D15*
X51712500Y-110998000D03*
X49887500Y-110998000D03*
D12*
X159118000Y-127319000D03*
X157848000Y-127319000D03*
X156578000Y-127319000D03*
X155308000Y-127319000D03*
X155308000Y-132269000D03*
X156578000Y-132269000D03*
X157848000Y-132269000D03*
X159118000Y-132269000D03*
D20*
X159131000Y-123063000D03*
X157581000Y-123063000D03*
D11*
X108585000Y-123039500D03*
X108585000Y-124864500D03*
D21*
X77827500Y-81024950D03*
X79652500Y-81024950D03*
D14*
X87575000Y-57656000D03*
X81815000Y-57656000D03*
X81815000Y-61656000D03*
X87575000Y-61656000D03*
D22*
X124254200Y-64260000D03*
X122504200Y-64260000D03*
D17*
X158356000Y-111873000D03*
X158356000Y-110123000D03*
D20*
X112408000Y-123063000D03*
X110858000Y-123063000D03*
D21*
X88495500Y-81074800D03*
X90320500Y-81074800D03*
D20*
X122695000Y-123063000D03*
X121145000Y-123063000D03*
D10*
X62724000Y-66061500D03*
X62724000Y-64236500D03*
D21*
X56451500Y-81087500D03*
X58276500Y-81087500D03*
D12*
X130810000Y-115635000D03*
X129540000Y-115635000D03*
X128270000Y-115635000D03*
X127000000Y-115635000D03*
X127000000Y-120585000D03*
X128270000Y-120585000D03*
X129540000Y-120585000D03*
X130810000Y-120585000D03*
D10*
X72249000Y-66061500D03*
X72249000Y-64236500D03*
X130048000Y-111934000D03*
X130048000Y-110109000D03*
D21*
X43156500Y-83056000D03*
X44981500Y-83056000D03*
D22*
X51675000Y-109093000D03*
X49925000Y-109093000D03*
D20*
X130823000Y-123063000D03*
X129273000Y-123063000D03*
D15*
X158632500Y-64260000D03*
X156807500Y-64260000D03*
D17*
X146177000Y-111746000D03*
X146177000Y-109996000D03*
D11*
X119888000Y-110062000D03*
X119888000Y-111887000D03*
X155308000Y-123039500D03*
X155308000Y-124864500D03*
D22*
X154799000Y-64260000D03*
X153049000Y-64260000D03*
D12*
X104267000Y-115635000D03*
X102997000Y-115635000D03*
X101727000Y-115635000D03*
X100457000Y-115635000D03*
X100457000Y-120585000D03*
X101727000Y-120585000D03*
X102997000Y-120585000D03*
X104267000Y-120585000D03*
D13*
X93331000Y-64274000D03*
X93331000Y-66024000D03*
D11*
X124968000Y-139676500D03*
X124968000Y-141501500D03*
D19*
X67234150Y-82987400D03*
X68984150Y-82987400D03*
D17*
X164452000Y-111873000D03*
X164452000Y-110123000D03*
D12*
X130810000Y-141543000D03*
X129540000Y-141543000D03*
X128270000Y-141543000D03*
X127000000Y-141543000D03*
X127000000Y-146493000D03*
X128270000Y-146493000D03*
X129540000Y-146493000D03*
X130810000Y-146493000D03*
D10*
X166484000Y-111934000D03*
X166484000Y-110109000D03*
D11*
X100457000Y-123039500D03*
X100457000Y-124864500D03*
D17*
X121920000Y-111873000D03*
X121920000Y-110123000D03*
X142875000Y-118985000D03*
X142875000Y-117235000D03*
D12*
X167246000Y-141543000D03*
X165976000Y-141543000D03*
X164706000Y-141543000D03*
X163436000Y-141543000D03*
X163436000Y-146493000D03*
X164706000Y-146493000D03*
X165976000Y-146493000D03*
X167246000Y-146493000D03*
X159118000Y-115635000D03*
X157848000Y-115635000D03*
X156578000Y-115635000D03*
X155308000Y-115635000D03*
X155308000Y-120585000D03*
X156578000Y-120585000D03*
X157848000Y-120585000D03*
X159118000Y-120585000D03*
D14*
X152001000Y-102249000D03*
X146241000Y-102249000D03*
X146241000Y-98249000D03*
X152001000Y-98249000D03*
D17*
X140358000Y-95649000D03*
X140358000Y-93899000D03*
D22*
X139531000Y-64260000D03*
X137781000Y-64260000D03*
D14*
X165291000Y-98235000D03*
X171051000Y-98235000D03*
X171051000Y-102235000D03*
X165291000Y-102235000D03*
D22*
X147165000Y-64260000D03*
X145415000Y-64260000D03*
D12*
X112395000Y-141543000D03*
X111125000Y-141543000D03*
X109855000Y-141543000D03*
X108585000Y-141543000D03*
X108585000Y-146493000D03*
X109855000Y-146493000D03*
X111125000Y-146493000D03*
X112395000Y-146493000D03*
D11*
X171092000Y-93861500D03*
X171092000Y-95686500D03*
D12*
X148971000Y-127254000D03*
X147701000Y-127254000D03*
X146431000Y-127254000D03*
X145161000Y-127254000D03*
X145161000Y-132204000D03*
X146431000Y-132204000D03*
X147701000Y-132204000D03*
X148971000Y-132204000D03*
D19*
X39398000Y-69848000D03*
X41148000Y-69848000D03*
D12*
X167246000Y-127319000D03*
X165976000Y-127319000D03*
X164706000Y-127319000D03*
X163436000Y-127319000D03*
X163436000Y-132269000D03*
X164706000Y-132269000D03*
X165976000Y-132269000D03*
X167246000Y-132269000D03*
D14*
X106584000Y-57688000D03*
X100824000Y-57688000D03*
X106584000Y-61688000D03*
X100824000Y-61688000D03*
D16*
X106553000Y-134252000D03*
X106553000Y-132702000D03*
D17*
X103505000Y-111873000D03*
X103505000Y-110123000D03*
D15*
X151012500Y-64260000D03*
X149187500Y-64260000D03*
D21*
X40861500Y-111015750D03*
X42686500Y-111015750D03*
D17*
X128016000Y-111887000D03*
X128016000Y-110137000D03*
D11*
X156324000Y-110085500D03*
X156324000Y-111910500D03*
D21*
X67171250Y-81018300D03*
X68996250Y-81018300D03*
D22*
X116634200Y-64260000D03*
X114884200Y-64260000D03*
X131874200Y-64260000D03*
X130124200Y-64260000D03*
D17*
X106299000Y-118985000D03*
X106299000Y-117235000D03*
X159535000Y-95663000D03*
X159535000Y-93913000D03*
D20*
X104280000Y-123063000D03*
X102730000Y-123063000D03*
D17*
X169060000Y-95663000D03*
X169060000Y-93913000D03*
D11*
X142390000Y-93875500D03*
X142390000Y-95700500D03*
D16*
X143002000Y-134125000D03*
X143002000Y-132575000D03*
D12*
X122682000Y-127319000D03*
X121412000Y-127319000D03*
X120142000Y-127319000D03*
X118872000Y-127319000D03*
X118872000Y-132269000D03*
X120142000Y-132269000D03*
X121412000Y-132269000D03*
X122682000Y-132269000D03*
X140843000Y-127254000D03*
X139573000Y-127254000D03*
X138303000Y-127254000D03*
X137033000Y-127254000D03*
X137033000Y-132204000D03*
X138303000Y-132204000D03*
X139573000Y-132204000D03*
X140843000Y-132204000D03*
D15*
X166252500Y-64260000D03*
X164427500Y-64260000D03*
D17*
X161150000Y-118985000D03*
X161150000Y-117235000D03*
D10*
X148209000Y-111783500D03*
X148209000Y-109958500D03*
D23*
X162354000Y-110156000D03*
X161404000Y-110156000D03*
X160454000Y-110156000D03*
X160454000Y-112856000D03*
X161404000Y-112856000D03*
X162354000Y-112856000D03*
D11*
X134874000Y-139676500D03*
X134874000Y-141501500D03*
X118872000Y-123039500D03*
X118872000Y-124864500D03*
D22*
X42649000Y-109093000D03*
X40899000Y-109093000D03*
D12*
X122682000Y-115635000D03*
X121412000Y-115635000D03*
X120142000Y-115635000D03*
X118872000Y-115635000D03*
X118872000Y-120585000D03*
X120142000Y-120585000D03*
X121412000Y-120585000D03*
X122682000Y-120585000D03*
D13*
X102901000Y-64274000D03*
X102901000Y-66024000D03*
D14*
X161526000Y-102249000D03*
X155766000Y-102249000D03*
X161526000Y-98249000D03*
X155766000Y-98249000D03*
D15*
X120481700Y-64260000D03*
X118656700Y-64260000D03*
D23*
X107503000Y-110156000D03*
X106553000Y-110156000D03*
X105603000Y-110156000D03*
X105603000Y-112856000D03*
X106553000Y-112856000D03*
X107503000Y-112856000D03*
D22*
X177645000Y-64260000D03*
X175895000Y-64260000D03*
D11*
X127000000Y-123039500D03*
X127000000Y-124864500D03*
D12*
X112395000Y-115635000D03*
X111125000Y-115635000D03*
X109855000Y-115635000D03*
X108585000Y-115635000D03*
X108585000Y-120585000D03*
X109855000Y-120585000D03*
X111125000Y-120585000D03*
X112395000Y-120585000D03*
D19*
X39384000Y-83056000D03*
X41134000Y-83056000D03*
X88533000Y-83056000D03*
X90283000Y-83056000D03*
D12*
X167246000Y-115635000D03*
X165976000Y-115635000D03*
X164706000Y-115635000D03*
X163436000Y-115635000D03*
X163436000Y-120585000D03*
X164706000Y-120585000D03*
X165976000Y-120585000D03*
X167246000Y-120585000D03*
D10*
X53199000Y-66061500D03*
X53199000Y-64236500D03*
D12*
X104267000Y-141543000D03*
X102997000Y-141543000D03*
X101727000Y-141543000D03*
X100457000Y-141543000D03*
X100457000Y-146493000D03*
X101727000Y-146493000D03*
X102997000Y-146493000D03*
X104267000Y-146493000D03*
D16*
X161277000Y-134252000D03*
X161277000Y-132702000D03*
D23*
X125918000Y-110156000D03*
X124968000Y-110156000D03*
X124018000Y-110156000D03*
X124018000Y-112856000D03*
X124968000Y-112856000D03*
X125918000Y-112856000D03*
D17*
X169024000Y-118985000D03*
X169024000Y-117235000D03*
D12*
X112395000Y-127319000D03*
X111125000Y-127319000D03*
X109855000Y-127319000D03*
X108585000Y-127319000D03*
X108585000Y-132269000D03*
X109855000Y-132269000D03*
X111125000Y-132269000D03*
X112395000Y-132269000D03*
D13*
X64756000Y-64274000D03*
X64756000Y-66024000D03*
D12*
X140801000Y-141598800D03*
X139531000Y-141598800D03*
X138261000Y-141598800D03*
X136991000Y-141598800D03*
X136991000Y-146548800D03*
X138261000Y-146548800D03*
X139531000Y-146548800D03*
X140801000Y-146548800D03*
D23*
X144079000Y-110091000D03*
X143129000Y-110091000D03*
X142179000Y-110091000D03*
X142179000Y-112791000D03*
X143129000Y-112791000D03*
X144079000Y-112791000D03*
D19*
X77865000Y-83006150D03*
X79615000Y-83006150D03*
D20*
X167259000Y-123063000D03*
X165709000Y-123063000D03*
D22*
X162405000Y-64260000D03*
X160655000Y-64260000D03*
D19*
X56516300Y-83068700D03*
X58266300Y-83068700D03*
D17*
X140081000Y-111760000D03*
X140081000Y-110010000D03*
X150010000Y-95649000D03*
X150010000Y-93899000D03*
D11*
X145161000Y-122974500D03*
X145161000Y-124799500D03*
X98425000Y-139676500D03*
X98425000Y-141501500D03*
D20*
X140856000Y-122998000D03*
X139306000Y-122998000D03*
D17*
X109601000Y-111873000D03*
X109601000Y-110123000D03*
D15*
X143392500Y-64260000D03*
X141567500Y-64260000D03*
D14*
X78050000Y-57688000D03*
X72290000Y-57688000D03*
X72290000Y-61688000D03*
X78050000Y-61688000D03*
D22*
X170025000Y-64260000D03*
X168275000Y-64260000D03*
D14*
X68525000Y-57688000D03*
X62765000Y-57688000D03*
X68525000Y-61688000D03*
X62765000Y-61688000D03*
D12*
X130810000Y-127319000D03*
X129540000Y-127319000D03*
X128270000Y-127319000D03*
X127000000Y-127319000D03*
X127000000Y-132269000D03*
X128270000Y-132269000D03*
X129540000Y-132269000D03*
X130810000Y-132269000D03*
D13*
X55231000Y-64274000D03*
X55231000Y-66024000D03*
D21*
X58523500Y-110998000D03*
X60348500Y-110998000D03*
D15*
X128101700Y-64260000D03*
X126276700Y-64260000D03*
D12*
X104267000Y-127319000D03*
X102997000Y-127319000D03*
X101727000Y-127319000D03*
X100457000Y-127319000D03*
X100457000Y-132269000D03*
X101727000Y-132269000D03*
X102997000Y-132269000D03*
X104267000Y-132269000D03*
D14*
X59000000Y-61688000D03*
X53240000Y-61688000D03*
X53240000Y-57688000D03*
X59000000Y-57688000D03*
M02*
