%TF.GenerationSoftware,KiCad,Pcbnew,(5.1.10)-1*%
%TF.CreationDate,2022-03-11T21:03:14-06:00*%
%TF.ProjectId,ScienceMotorController,53636965-6e63-4654-9d6f-746f72436f6e,rev?*%
%TF.SameCoordinates,Original*%
%TF.FileFunction,Paste,Top*%
%TF.FilePolarity,Positive*%
%FSLAX46Y46*%
G04 Gerber Fmt 4.6, Leading zero omitted, Abs format (unit mm)*
G04 Created by KiCad (PCBNEW (5.1.10)-1) date 2022-03-11 21:03:14*
%MOMM*%
%LPD*%
G01*
G04 APERTURE LIST*
%ADD10O,3.000000X5.100000*%
%ADD11O,5.100000X3.000000*%
%ADD12C,1.520000*%
%ADD13R,0.900000X0.800000*%
%ADD14R,0.635000X1.854200*%
%ADD15R,6.223000X5.257800*%
%ADD16R,10.312400X5.257800*%
G04 APERTURE END LIST*
D10*
%TO.C,Conn7*%
X142005000Y-20405000D03*
X142005000Y-12531000D03*
%TD*%
D11*
%TO.C,Conn4*%
X128609000Y21355000D03*
X120735000Y21355000D03*
%TD*%
%TO.C,Conn3*%
X110829000Y21355000D03*
X102955000Y21355000D03*
%TD*%
%TO.C,Conn2*%
X93049000Y21355000D03*
X85175000Y21355000D03*
%TD*%
%TO.C,Conn1*%
X75269000Y21329600D03*
X67395000Y21329600D03*
%TD*%
D12*
%TO.C,U6*%
X58984000Y-53896000D03*
X56444000Y-53896000D03*
X53904000Y-53896000D03*
X51364000Y-53896000D03*
X48824000Y-53896000D03*
X46284000Y-53896000D03*
X43744000Y-53896000D03*
X41204000Y-53896000D03*
X38664000Y-53896000D03*
X36124000Y-53896000D03*
X58984000Y-56436000D03*
X56444000Y-56436000D03*
X53904000Y-56436000D03*
X51364000Y-56436000D03*
X48824000Y-56436000D03*
X46284000Y-56436000D03*
X43744000Y-56436000D03*
X41204000Y-56436000D03*
X38664000Y-56436000D03*
X36124000Y-56436000D03*
X58984000Y-99616000D03*
X56444000Y-99616000D03*
X53904000Y-99616000D03*
X51364000Y-99616000D03*
X48824000Y-99616000D03*
X46284000Y-99616000D03*
X43744000Y-99616000D03*
X41204000Y-99616000D03*
X38664000Y-99616000D03*
X36124000Y-99616000D03*
X58984000Y-97076000D03*
X56444000Y-97076000D03*
X53904000Y-97076000D03*
X51364000Y-97076000D03*
X48824000Y-97076000D03*
X46284000Y-97076000D03*
X43744000Y-97076000D03*
X41204000Y-97076000D03*
X38664000Y-97076000D03*
X36124000Y-97076000D03*
X104704000Y-53896000D03*
X102164000Y-53896000D03*
X99624000Y-53896000D03*
X122484000Y-56436000D03*
X119944000Y-56436000D03*
X117404000Y-56436000D03*
X114864000Y-56436000D03*
X112324000Y-56436000D03*
X109784000Y-56436000D03*
X107244000Y-56436000D03*
X104704000Y-56436000D03*
X102164000Y-56436000D03*
X99624000Y-56436000D03*
X122484000Y-99616000D03*
X117404000Y-99616000D03*
X112324000Y-99616000D03*
X109784000Y-99616000D03*
X107244000Y-99616000D03*
X104704000Y-99616000D03*
X102164000Y-99616000D03*
X122484000Y-97076000D03*
X117404000Y-97076000D03*
X107244000Y-97076000D03*
X104704000Y-97076000D03*
X102164000Y-97076000D03*
X99624000Y-97076000D03*
X112324000Y-97076000D03*
X114864000Y-97076000D03*
X119944000Y-99616000D03*
X107244000Y-53896000D03*
X109784000Y-53896000D03*
X119944000Y-97076000D03*
X114864000Y-99616000D03*
X117404000Y-53896000D03*
X114864000Y-53896000D03*
X109784000Y-97076000D03*
X112324000Y-53896000D03*
X119944000Y-53896000D03*
X122484000Y-53896000D03*
X99624000Y-99616000D03*
%TD*%
%TO.C,D12*%
G36*
G01*
X52660000Y-91042500D02*
X52660000Y-90567500D01*
G75*
G02*
X52897500Y-90330000I237500J0D01*
G01*
X53472500Y-90330000D01*
G75*
G02*
X53710000Y-90567500I0J-237500D01*
G01*
X53710000Y-91042500D01*
G75*
G02*
X53472500Y-91280000I-237500J0D01*
G01*
X52897500Y-91280000D01*
G75*
G02*
X52660000Y-91042500I0J237500D01*
G01*
G37*
G36*
G01*
X50910000Y-91042500D02*
X50910000Y-90567500D01*
G75*
G02*
X51147500Y-90330000I237500J0D01*
G01*
X51722500Y-90330000D01*
G75*
G02*
X51960000Y-90567500I0J-237500D01*
G01*
X51960000Y-91042500D01*
G75*
G02*
X51722500Y-91280000I-237500J0D01*
G01*
X51147500Y-91280000D01*
G75*
G02*
X50910000Y-91042500I0J237500D01*
G01*
G37*
%TD*%
%TO.C,D11*%
G36*
G01*
X48850000Y-91042500D02*
X48850000Y-90567500D01*
G75*
G02*
X49087500Y-90330000I237500J0D01*
G01*
X49662500Y-90330000D01*
G75*
G02*
X49900000Y-90567500I0J-237500D01*
G01*
X49900000Y-91042500D01*
G75*
G02*
X49662500Y-91280000I-237500J0D01*
G01*
X49087500Y-91280000D01*
G75*
G02*
X48850000Y-91042500I0J237500D01*
G01*
G37*
G36*
G01*
X47100000Y-91042500D02*
X47100000Y-90567500D01*
G75*
G02*
X47337500Y-90330000I237500J0D01*
G01*
X47912500Y-90330000D01*
G75*
G02*
X48150000Y-90567500I0J-237500D01*
G01*
X48150000Y-91042500D01*
G75*
G02*
X47912500Y-91280000I-237500J0D01*
G01*
X47337500Y-91280000D01*
G75*
G02*
X47100000Y-91042500I0J237500D01*
G01*
G37*
%TD*%
%TO.C,D10*%
G36*
G01*
X45040000Y-91042500D02*
X45040000Y-90567500D01*
G75*
G02*
X45277500Y-90330000I237500J0D01*
G01*
X45852500Y-90330000D01*
G75*
G02*
X46090000Y-90567500I0J-237500D01*
G01*
X46090000Y-91042500D01*
G75*
G02*
X45852500Y-91280000I-237500J0D01*
G01*
X45277500Y-91280000D01*
G75*
G02*
X45040000Y-91042500I0J237500D01*
G01*
G37*
G36*
G01*
X43290000Y-91042500D02*
X43290000Y-90567500D01*
G75*
G02*
X43527500Y-90330000I237500J0D01*
G01*
X44102500Y-90330000D01*
G75*
G02*
X44340000Y-90567500I0J-237500D01*
G01*
X44340000Y-91042500D01*
G75*
G02*
X44102500Y-91280000I-237500J0D01*
G01*
X43527500Y-91280000D01*
G75*
G02*
X43290000Y-91042500I0J237500D01*
G01*
G37*
%TD*%
%TO.C,D9*%
G36*
G01*
X41230000Y-91042500D02*
X41230000Y-90567500D01*
G75*
G02*
X41467500Y-90330000I237500J0D01*
G01*
X42042500Y-90330000D01*
G75*
G02*
X42280000Y-90567500I0J-237500D01*
G01*
X42280000Y-91042500D01*
G75*
G02*
X42042500Y-91280000I-237500J0D01*
G01*
X41467500Y-91280000D01*
G75*
G02*
X41230000Y-91042500I0J237500D01*
G01*
G37*
G36*
G01*
X39480000Y-91042500D02*
X39480000Y-90567500D01*
G75*
G02*
X39717500Y-90330000I237500J0D01*
G01*
X40292500Y-90330000D01*
G75*
G02*
X40530000Y-90567500I0J-237500D01*
G01*
X40530000Y-91042500D01*
G75*
G02*
X40292500Y-91280000I-237500J0D01*
G01*
X39717500Y-91280000D01*
G75*
G02*
X39480000Y-91042500I0J237500D01*
G01*
G37*
%TD*%
%TO.C,R58*%
G36*
G01*
X154792500Y-41037500D02*
X154792500Y-41512500D01*
G75*
G02*
X154555000Y-41750000I-237500J0D01*
G01*
X154055000Y-41750000D01*
G75*
G02*
X153817500Y-41512500I0J237500D01*
G01*
X153817500Y-41037500D01*
G75*
G02*
X154055000Y-40800000I237500J0D01*
G01*
X154555000Y-40800000D01*
G75*
G02*
X154792500Y-41037500I0J-237500D01*
G01*
G37*
G36*
G01*
X156617500Y-41037500D02*
X156617500Y-41512500D01*
G75*
G02*
X156380000Y-41750000I-237500J0D01*
G01*
X155880000Y-41750000D01*
G75*
G02*
X155642500Y-41512500I0J237500D01*
G01*
X155642500Y-41037500D01*
G75*
G02*
X155880000Y-40800000I237500J0D01*
G01*
X156380000Y-40800000D01*
G75*
G02*
X156617500Y-41037500I0J-237500D01*
G01*
G37*
%TD*%
%TO.C,R57*%
G36*
G01*
X146537500Y-41037500D02*
X146537500Y-41512500D01*
G75*
G02*
X146300000Y-41750000I-237500J0D01*
G01*
X145800000Y-41750000D01*
G75*
G02*
X145562500Y-41512500I0J237500D01*
G01*
X145562500Y-41037500D01*
G75*
G02*
X145800000Y-40800000I237500J0D01*
G01*
X146300000Y-40800000D01*
G75*
G02*
X146537500Y-41037500I0J-237500D01*
G01*
G37*
G36*
G01*
X148362500Y-41037500D02*
X148362500Y-41512500D01*
G75*
G02*
X148125000Y-41750000I-237500J0D01*
G01*
X147625000Y-41750000D01*
G75*
G02*
X147387500Y-41512500I0J237500D01*
G01*
X147387500Y-41037500D01*
G75*
G02*
X147625000Y-40800000I237500J0D01*
G01*
X148125000Y-40800000D01*
G75*
G02*
X148362500Y-41037500I0J-237500D01*
G01*
G37*
%TD*%
%TO.C,R56*%
G36*
G01*
X138282500Y-41037500D02*
X138282500Y-41512500D01*
G75*
G02*
X138045000Y-41750000I-237500J0D01*
G01*
X137545000Y-41750000D01*
G75*
G02*
X137307500Y-41512500I0J237500D01*
G01*
X137307500Y-41037500D01*
G75*
G02*
X137545000Y-40800000I237500J0D01*
G01*
X138045000Y-40800000D01*
G75*
G02*
X138282500Y-41037500I0J-237500D01*
G01*
G37*
G36*
G01*
X140107500Y-41037500D02*
X140107500Y-41512500D01*
G75*
G02*
X139870000Y-41750000I-237500J0D01*
G01*
X139370000Y-41750000D01*
G75*
G02*
X139132500Y-41512500I0J237500D01*
G01*
X139132500Y-41037500D01*
G75*
G02*
X139370000Y-40800000I237500J0D01*
G01*
X139870000Y-40800000D01*
G75*
G02*
X140107500Y-41037500I0J-237500D01*
G01*
G37*
%TD*%
%TO.C,R55*%
G36*
G01*
X130027500Y-41037500D02*
X130027500Y-41512500D01*
G75*
G02*
X129790000Y-41750000I-237500J0D01*
G01*
X129290000Y-41750000D01*
G75*
G02*
X129052500Y-41512500I0J237500D01*
G01*
X129052500Y-41037500D01*
G75*
G02*
X129290000Y-40800000I237500J0D01*
G01*
X129790000Y-40800000D01*
G75*
G02*
X130027500Y-41037500I0J-237500D01*
G01*
G37*
G36*
G01*
X131852500Y-41037500D02*
X131852500Y-41512500D01*
G75*
G02*
X131615000Y-41750000I-237500J0D01*
G01*
X131115000Y-41750000D01*
G75*
G02*
X130877500Y-41512500I0J237500D01*
G01*
X130877500Y-41037500D01*
G75*
G02*
X131115000Y-40800000I237500J0D01*
G01*
X131615000Y-40800000D01*
G75*
G02*
X131852500Y-41037500I0J-237500D01*
G01*
G37*
%TD*%
%TO.C,R54*%
G36*
G01*
X121772500Y-41037500D02*
X121772500Y-41512500D01*
G75*
G02*
X121535000Y-41750000I-237500J0D01*
G01*
X121035000Y-41750000D01*
G75*
G02*
X120797500Y-41512500I0J237500D01*
G01*
X120797500Y-41037500D01*
G75*
G02*
X121035000Y-40800000I237500J0D01*
G01*
X121535000Y-40800000D01*
G75*
G02*
X121772500Y-41037500I0J-237500D01*
G01*
G37*
G36*
G01*
X123597500Y-41037500D02*
X123597500Y-41512500D01*
G75*
G02*
X123360000Y-41750000I-237500J0D01*
G01*
X122860000Y-41750000D01*
G75*
G02*
X122622500Y-41512500I0J237500D01*
G01*
X122622500Y-41037500D01*
G75*
G02*
X122860000Y-40800000I237500J0D01*
G01*
X123360000Y-40800000D01*
G75*
G02*
X123597500Y-41037500I0J-237500D01*
G01*
G37*
%TD*%
%TO.C,R53*%
G36*
G01*
X113517500Y-41037500D02*
X113517500Y-41512500D01*
G75*
G02*
X113280000Y-41750000I-237500J0D01*
G01*
X112780000Y-41750000D01*
G75*
G02*
X112542500Y-41512500I0J237500D01*
G01*
X112542500Y-41037500D01*
G75*
G02*
X112780000Y-40800000I237500J0D01*
G01*
X113280000Y-40800000D01*
G75*
G02*
X113517500Y-41037500I0J-237500D01*
G01*
G37*
G36*
G01*
X115342500Y-41037500D02*
X115342500Y-41512500D01*
G75*
G02*
X115105000Y-41750000I-237500J0D01*
G01*
X114605000Y-41750000D01*
G75*
G02*
X114367500Y-41512500I0J237500D01*
G01*
X114367500Y-41037500D01*
G75*
G02*
X114605000Y-40800000I237500J0D01*
G01*
X115105000Y-40800000D01*
G75*
G02*
X115342500Y-41037500I0J-237500D01*
G01*
G37*
%TD*%
%TO.C,R52*%
G36*
G01*
X105262500Y-41037500D02*
X105262500Y-41512500D01*
G75*
G02*
X105025000Y-41750000I-237500J0D01*
G01*
X104525000Y-41750000D01*
G75*
G02*
X104287500Y-41512500I0J237500D01*
G01*
X104287500Y-41037500D01*
G75*
G02*
X104525000Y-40800000I237500J0D01*
G01*
X105025000Y-40800000D01*
G75*
G02*
X105262500Y-41037500I0J-237500D01*
G01*
G37*
G36*
G01*
X107087500Y-41037500D02*
X107087500Y-41512500D01*
G75*
G02*
X106850000Y-41750000I-237500J0D01*
G01*
X106350000Y-41750000D01*
G75*
G02*
X106112500Y-41512500I0J237500D01*
G01*
X106112500Y-41037500D01*
G75*
G02*
X106350000Y-40800000I237500J0D01*
G01*
X106850000Y-40800000D01*
G75*
G02*
X107087500Y-41037500I0J-237500D01*
G01*
G37*
%TD*%
%TO.C,R51*%
G36*
G01*
X97007500Y-41037500D02*
X97007500Y-41512500D01*
G75*
G02*
X96770000Y-41750000I-237500J0D01*
G01*
X96270000Y-41750000D01*
G75*
G02*
X96032500Y-41512500I0J237500D01*
G01*
X96032500Y-41037500D01*
G75*
G02*
X96270000Y-40800000I237500J0D01*
G01*
X96770000Y-40800000D01*
G75*
G02*
X97007500Y-41037500I0J-237500D01*
G01*
G37*
G36*
G01*
X98832500Y-41037500D02*
X98832500Y-41512500D01*
G75*
G02*
X98595000Y-41750000I-237500J0D01*
G01*
X98095000Y-41750000D01*
G75*
G02*
X97857500Y-41512500I0J237500D01*
G01*
X97857500Y-41037500D01*
G75*
G02*
X98095000Y-40800000I237500J0D01*
G01*
X98595000Y-40800000D01*
G75*
G02*
X98832500Y-41037500I0J-237500D01*
G01*
G37*
%TD*%
%TO.C,R50*%
G36*
G01*
X88752500Y-41037500D02*
X88752500Y-41512500D01*
G75*
G02*
X88515000Y-41750000I-237500J0D01*
G01*
X88015000Y-41750000D01*
G75*
G02*
X87777500Y-41512500I0J237500D01*
G01*
X87777500Y-41037500D01*
G75*
G02*
X88015000Y-40800000I237500J0D01*
G01*
X88515000Y-40800000D01*
G75*
G02*
X88752500Y-41037500I0J-237500D01*
G01*
G37*
G36*
G01*
X90577500Y-41037500D02*
X90577500Y-41512500D01*
G75*
G02*
X90340000Y-41750000I-237500J0D01*
G01*
X89840000Y-41750000D01*
G75*
G02*
X89602500Y-41512500I0J237500D01*
G01*
X89602500Y-41037500D01*
G75*
G02*
X89840000Y-40800000I237500J0D01*
G01*
X90340000Y-40800000D01*
G75*
G02*
X90577500Y-41037500I0J-237500D01*
G01*
G37*
%TD*%
D13*
%TO.C,Q9*%
X152495000Y-42225000D03*
X150495000Y-43175000D03*
X150495000Y-41275000D03*
%TD*%
%TO.C,Q8*%
X144240000Y-42225000D03*
X142240000Y-43175000D03*
X142240000Y-41275000D03*
%TD*%
%TO.C,Q7*%
X135985000Y-42225000D03*
X133985000Y-43175000D03*
X133985000Y-41275000D03*
%TD*%
%TO.C,Q6*%
X127730000Y-42225000D03*
X125730000Y-43175000D03*
X125730000Y-41275000D03*
%TD*%
%TO.C,Q5*%
X119475000Y-42225000D03*
X117475000Y-43175000D03*
X117475000Y-41275000D03*
%TD*%
%TO.C,Q4*%
X111220000Y-42225000D03*
X109220000Y-43175000D03*
X109220000Y-41275000D03*
%TD*%
%TO.C,Q3*%
X102965000Y-42225000D03*
X100965000Y-43175000D03*
X100965000Y-41275000D03*
%TD*%
%TO.C,Q2*%
X94710000Y-42225000D03*
X92710000Y-43175000D03*
X92710000Y-41275000D03*
%TD*%
%TO.C,Q1*%
X86455000Y-42225000D03*
X84455000Y-43175000D03*
X84455000Y-41275000D03*
%TD*%
%TO.C,D32*%
G36*
G01*
X154830000Y-42942500D02*
X154830000Y-43417500D01*
G75*
G02*
X154592500Y-43655000I-237500J0D01*
G01*
X154017500Y-43655000D01*
G75*
G02*
X153780000Y-43417500I0J237500D01*
G01*
X153780000Y-42942500D01*
G75*
G02*
X154017500Y-42705000I237500J0D01*
G01*
X154592500Y-42705000D01*
G75*
G02*
X154830000Y-42942500I0J-237500D01*
G01*
G37*
G36*
G01*
X156580000Y-42942500D02*
X156580000Y-43417500D01*
G75*
G02*
X156342500Y-43655000I-237500J0D01*
G01*
X155767500Y-43655000D01*
G75*
G02*
X155530000Y-43417500I0J237500D01*
G01*
X155530000Y-42942500D01*
G75*
G02*
X155767500Y-42705000I237500J0D01*
G01*
X156342500Y-42705000D01*
G75*
G02*
X156580000Y-42942500I0J-237500D01*
G01*
G37*
%TD*%
%TO.C,D31*%
G36*
G01*
X146575000Y-42942500D02*
X146575000Y-43417500D01*
G75*
G02*
X146337500Y-43655000I-237500J0D01*
G01*
X145762500Y-43655000D01*
G75*
G02*
X145525000Y-43417500I0J237500D01*
G01*
X145525000Y-42942500D01*
G75*
G02*
X145762500Y-42705000I237500J0D01*
G01*
X146337500Y-42705000D01*
G75*
G02*
X146575000Y-42942500I0J-237500D01*
G01*
G37*
G36*
G01*
X148325000Y-42942500D02*
X148325000Y-43417500D01*
G75*
G02*
X148087500Y-43655000I-237500J0D01*
G01*
X147512500Y-43655000D01*
G75*
G02*
X147275000Y-43417500I0J237500D01*
G01*
X147275000Y-42942500D01*
G75*
G02*
X147512500Y-42705000I237500J0D01*
G01*
X148087500Y-42705000D01*
G75*
G02*
X148325000Y-42942500I0J-237500D01*
G01*
G37*
%TD*%
%TO.C,D30*%
G36*
G01*
X138320000Y-42942500D02*
X138320000Y-43417500D01*
G75*
G02*
X138082500Y-43655000I-237500J0D01*
G01*
X137507500Y-43655000D01*
G75*
G02*
X137270000Y-43417500I0J237500D01*
G01*
X137270000Y-42942500D01*
G75*
G02*
X137507500Y-42705000I237500J0D01*
G01*
X138082500Y-42705000D01*
G75*
G02*
X138320000Y-42942500I0J-237500D01*
G01*
G37*
G36*
G01*
X140070000Y-42942500D02*
X140070000Y-43417500D01*
G75*
G02*
X139832500Y-43655000I-237500J0D01*
G01*
X139257500Y-43655000D01*
G75*
G02*
X139020000Y-43417500I0J237500D01*
G01*
X139020000Y-42942500D01*
G75*
G02*
X139257500Y-42705000I237500J0D01*
G01*
X139832500Y-42705000D01*
G75*
G02*
X140070000Y-42942500I0J-237500D01*
G01*
G37*
%TD*%
%TO.C,D29*%
G36*
G01*
X130065000Y-42942500D02*
X130065000Y-43417500D01*
G75*
G02*
X129827500Y-43655000I-237500J0D01*
G01*
X129252500Y-43655000D01*
G75*
G02*
X129015000Y-43417500I0J237500D01*
G01*
X129015000Y-42942500D01*
G75*
G02*
X129252500Y-42705000I237500J0D01*
G01*
X129827500Y-42705000D01*
G75*
G02*
X130065000Y-42942500I0J-237500D01*
G01*
G37*
G36*
G01*
X131815000Y-42942500D02*
X131815000Y-43417500D01*
G75*
G02*
X131577500Y-43655000I-237500J0D01*
G01*
X131002500Y-43655000D01*
G75*
G02*
X130765000Y-43417500I0J237500D01*
G01*
X130765000Y-42942500D01*
G75*
G02*
X131002500Y-42705000I237500J0D01*
G01*
X131577500Y-42705000D01*
G75*
G02*
X131815000Y-42942500I0J-237500D01*
G01*
G37*
%TD*%
%TO.C,D28*%
G36*
G01*
X121810000Y-42942500D02*
X121810000Y-43417500D01*
G75*
G02*
X121572500Y-43655000I-237500J0D01*
G01*
X120997500Y-43655000D01*
G75*
G02*
X120760000Y-43417500I0J237500D01*
G01*
X120760000Y-42942500D01*
G75*
G02*
X120997500Y-42705000I237500J0D01*
G01*
X121572500Y-42705000D01*
G75*
G02*
X121810000Y-42942500I0J-237500D01*
G01*
G37*
G36*
G01*
X123560000Y-42942500D02*
X123560000Y-43417500D01*
G75*
G02*
X123322500Y-43655000I-237500J0D01*
G01*
X122747500Y-43655000D01*
G75*
G02*
X122510000Y-43417500I0J237500D01*
G01*
X122510000Y-42942500D01*
G75*
G02*
X122747500Y-42705000I237500J0D01*
G01*
X123322500Y-42705000D01*
G75*
G02*
X123560000Y-42942500I0J-237500D01*
G01*
G37*
%TD*%
%TO.C,D27*%
G36*
G01*
X113555000Y-42942500D02*
X113555000Y-43417500D01*
G75*
G02*
X113317500Y-43655000I-237500J0D01*
G01*
X112742500Y-43655000D01*
G75*
G02*
X112505000Y-43417500I0J237500D01*
G01*
X112505000Y-42942500D01*
G75*
G02*
X112742500Y-42705000I237500J0D01*
G01*
X113317500Y-42705000D01*
G75*
G02*
X113555000Y-42942500I0J-237500D01*
G01*
G37*
G36*
G01*
X115305000Y-42942500D02*
X115305000Y-43417500D01*
G75*
G02*
X115067500Y-43655000I-237500J0D01*
G01*
X114492500Y-43655000D01*
G75*
G02*
X114255000Y-43417500I0J237500D01*
G01*
X114255000Y-42942500D01*
G75*
G02*
X114492500Y-42705000I237500J0D01*
G01*
X115067500Y-42705000D01*
G75*
G02*
X115305000Y-42942500I0J-237500D01*
G01*
G37*
%TD*%
%TO.C,D26*%
G36*
G01*
X105300000Y-42942500D02*
X105300000Y-43417500D01*
G75*
G02*
X105062500Y-43655000I-237500J0D01*
G01*
X104487500Y-43655000D01*
G75*
G02*
X104250000Y-43417500I0J237500D01*
G01*
X104250000Y-42942500D01*
G75*
G02*
X104487500Y-42705000I237500J0D01*
G01*
X105062500Y-42705000D01*
G75*
G02*
X105300000Y-42942500I0J-237500D01*
G01*
G37*
G36*
G01*
X107050000Y-42942500D02*
X107050000Y-43417500D01*
G75*
G02*
X106812500Y-43655000I-237500J0D01*
G01*
X106237500Y-43655000D01*
G75*
G02*
X106000000Y-43417500I0J237500D01*
G01*
X106000000Y-42942500D01*
G75*
G02*
X106237500Y-42705000I237500J0D01*
G01*
X106812500Y-42705000D01*
G75*
G02*
X107050000Y-42942500I0J-237500D01*
G01*
G37*
%TD*%
%TO.C,D25*%
G36*
G01*
X97045000Y-42942500D02*
X97045000Y-43417500D01*
G75*
G02*
X96807500Y-43655000I-237500J0D01*
G01*
X96232500Y-43655000D01*
G75*
G02*
X95995000Y-43417500I0J237500D01*
G01*
X95995000Y-42942500D01*
G75*
G02*
X96232500Y-42705000I237500J0D01*
G01*
X96807500Y-42705000D01*
G75*
G02*
X97045000Y-42942500I0J-237500D01*
G01*
G37*
G36*
G01*
X98795000Y-42942500D02*
X98795000Y-43417500D01*
G75*
G02*
X98557500Y-43655000I-237500J0D01*
G01*
X97982500Y-43655000D01*
G75*
G02*
X97745000Y-43417500I0J237500D01*
G01*
X97745000Y-42942500D01*
G75*
G02*
X97982500Y-42705000I237500J0D01*
G01*
X98557500Y-42705000D01*
G75*
G02*
X98795000Y-42942500I0J-237500D01*
G01*
G37*
%TD*%
%TO.C,D24*%
G36*
G01*
X88790000Y-42942500D02*
X88790000Y-43417500D01*
G75*
G02*
X88552500Y-43655000I-237500J0D01*
G01*
X87977500Y-43655000D01*
G75*
G02*
X87740000Y-43417500I0J237500D01*
G01*
X87740000Y-42942500D01*
G75*
G02*
X87977500Y-42705000I237500J0D01*
G01*
X88552500Y-42705000D01*
G75*
G02*
X88790000Y-42942500I0J-237500D01*
G01*
G37*
G36*
G01*
X90540000Y-42942500D02*
X90540000Y-43417500D01*
G75*
G02*
X90302500Y-43655000I-237500J0D01*
G01*
X89727500Y-43655000D01*
G75*
G02*
X89490000Y-43417500I0J237500D01*
G01*
X89490000Y-42942500D01*
G75*
G02*
X89727500Y-42705000I237500J0D01*
G01*
X90302500Y-42705000D01*
G75*
G02*
X90540000Y-42942500I0J-237500D01*
G01*
G37*
%TD*%
%TO.C,R21*%
G36*
G01*
X39767500Y-85157500D02*
X40242500Y-85157500D01*
G75*
G02*
X40480000Y-85395000I0J-237500D01*
G01*
X40480000Y-85895000D01*
G75*
G02*
X40242500Y-86132500I-237500J0D01*
G01*
X39767500Y-86132500D01*
G75*
G02*
X39530000Y-85895000I0J237500D01*
G01*
X39530000Y-85395000D01*
G75*
G02*
X39767500Y-85157500I237500J0D01*
G01*
G37*
G36*
G01*
X39767500Y-83332500D02*
X40242500Y-83332500D01*
G75*
G02*
X40480000Y-83570000I0J-237500D01*
G01*
X40480000Y-84070000D01*
G75*
G02*
X40242500Y-84307500I-237500J0D01*
G01*
X39767500Y-84307500D01*
G75*
G02*
X39530000Y-84070000I0J237500D01*
G01*
X39530000Y-83570000D01*
G75*
G02*
X39767500Y-83332500I237500J0D01*
G01*
G37*
%TD*%
%TO.C,R41*%
G36*
G01*
X55097500Y-30877500D02*
X55097500Y-31352500D01*
G75*
G02*
X54860000Y-31590000I-237500J0D01*
G01*
X54360000Y-31590000D01*
G75*
G02*
X54122500Y-31352500I0J237500D01*
G01*
X54122500Y-30877500D01*
G75*
G02*
X54360000Y-30640000I237500J0D01*
G01*
X54860000Y-30640000D01*
G75*
G02*
X55097500Y-30877500I0J-237500D01*
G01*
G37*
G36*
G01*
X56922500Y-30877500D02*
X56922500Y-31352500D01*
G75*
G02*
X56685000Y-31590000I-237500J0D01*
G01*
X56185000Y-31590000D01*
G75*
G02*
X55947500Y-31352500I0J237500D01*
G01*
X55947500Y-30877500D01*
G75*
G02*
X56185000Y-30640000I237500J0D01*
G01*
X56685000Y-30640000D01*
G75*
G02*
X56922500Y-30877500I0J-237500D01*
G01*
G37*
%TD*%
%TO.C,D17*%
G36*
G01*
X55990000Y-29447500D02*
X55990000Y-28972500D01*
G75*
G02*
X56227500Y-28735000I237500J0D01*
G01*
X56802500Y-28735000D01*
G75*
G02*
X57040000Y-28972500I0J-237500D01*
G01*
X57040000Y-29447500D01*
G75*
G02*
X56802500Y-29685000I-237500J0D01*
G01*
X56227500Y-29685000D01*
G75*
G02*
X55990000Y-29447500I0J237500D01*
G01*
G37*
G36*
G01*
X54240000Y-29447500D02*
X54240000Y-28972500D01*
G75*
G02*
X54477500Y-28735000I237500J0D01*
G01*
X55052500Y-28735000D01*
G75*
G02*
X55290000Y-28972500I0J-237500D01*
G01*
X55290000Y-29447500D01*
G75*
G02*
X55052500Y-29685000I-237500J0D01*
G01*
X54477500Y-29685000D01*
G75*
G02*
X54240000Y-29447500I0J237500D01*
G01*
G37*
%TD*%
%TO.C,C14*%
G36*
G01*
X52942500Y-29927500D02*
X52467500Y-29927500D01*
G75*
G02*
X52230000Y-29690000I0J237500D01*
G01*
X52230000Y-29090000D01*
G75*
G02*
X52467500Y-28852500I237500J0D01*
G01*
X52942500Y-28852500D01*
G75*
G02*
X53180000Y-29090000I0J-237500D01*
G01*
X53180000Y-29690000D01*
G75*
G02*
X52942500Y-29927500I-237500J0D01*
G01*
G37*
G36*
G01*
X52942500Y-31652500D02*
X52467500Y-31652500D01*
G75*
G02*
X52230000Y-31415000I0J237500D01*
G01*
X52230000Y-30815000D01*
G75*
G02*
X52467500Y-30577500I237500J0D01*
G01*
X52942500Y-30577500D01*
G75*
G02*
X53180000Y-30815000I0J-237500D01*
G01*
X53180000Y-31415000D01*
G75*
G02*
X52942500Y-31652500I-237500J0D01*
G01*
G37*
%TD*%
%TO.C,C13*%
G36*
G01*
X52467500Y-27222500D02*
X52942500Y-27222500D01*
G75*
G02*
X53180000Y-27460000I0J-237500D01*
G01*
X53180000Y-28060000D01*
G75*
G02*
X52942500Y-28297500I-237500J0D01*
G01*
X52467500Y-28297500D01*
G75*
G02*
X52230000Y-28060000I0J237500D01*
G01*
X52230000Y-27460000D01*
G75*
G02*
X52467500Y-27222500I237500J0D01*
G01*
G37*
G36*
G01*
X52467500Y-25497500D02*
X52942500Y-25497500D01*
G75*
G02*
X53180000Y-25735000I0J-237500D01*
G01*
X53180000Y-26335000D01*
G75*
G02*
X52942500Y-26572500I-237500J0D01*
G01*
X52467500Y-26572500D01*
G75*
G02*
X52230000Y-26335000I0J237500D01*
G01*
X52230000Y-25735000D01*
G75*
G02*
X52467500Y-25497500I237500J0D01*
G01*
G37*
%TD*%
D14*
%TO.C,U4*%
X118450601Y-3797300D03*
X119450599Y-3797300D03*
X120450600Y-3797300D03*
X121450600Y-3797300D03*
X122450601Y-3797300D03*
X123450599Y-3797300D03*
X124450599Y-3797300D03*
X125450600Y-3797300D03*
X126450601Y-3797300D03*
X127450601Y-3797300D03*
X128450599Y-3797300D03*
X129450600Y-3797300D03*
X130450600Y-3797300D03*
X131450601Y-3797300D03*
X132450601Y-3797300D03*
X132450599Y14211300D03*
X131450601Y14211300D03*
X130450600Y14211300D03*
X129450600Y14211300D03*
X128450599Y14211300D03*
X127450601Y14211300D03*
X126450601Y14211300D03*
X125450600Y14211300D03*
X124450599Y14211300D03*
X123450599Y14211300D03*
X122450601Y14211300D03*
X121450600Y14211300D03*
X120450600Y14211300D03*
X119450599Y14211300D03*
X118450599Y14211300D03*
D15*
X121285000Y8255000D03*
D16*
X125450600Y2159000D03*
D15*
X129616200Y8255000D03*
%TD*%
D14*
%TO.C,U3*%
X100670601Y-3797300D03*
X101670599Y-3797300D03*
X102670600Y-3797300D03*
X103670600Y-3797300D03*
X104670601Y-3797300D03*
X105670599Y-3797300D03*
X106670599Y-3797300D03*
X107670600Y-3797300D03*
X108670601Y-3797300D03*
X109670601Y-3797300D03*
X110670599Y-3797300D03*
X111670600Y-3797300D03*
X112670600Y-3797300D03*
X113670601Y-3797300D03*
X114670601Y-3797300D03*
X114670599Y14211300D03*
X113670601Y14211300D03*
X112670600Y14211300D03*
X111670600Y14211300D03*
X110670599Y14211300D03*
X109670601Y14211300D03*
X108670601Y14211300D03*
X107670600Y14211300D03*
X106670599Y14211300D03*
X105670599Y14211300D03*
X104670601Y14211300D03*
X103670600Y14211300D03*
X102670600Y14211300D03*
X101670599Y14211300D03*
X100670599Y14211300D03*
D15*
X103505000Y8255000D03*
D16*
X107670600Y2159000D03*
D15*
X111836200Y8255000D03*
%TD*%
D14*
%TO.C,U2*%
X82890601Y-3797300D03*
X83890599Y-3797300D03*
X84890600Y-3797300D03*
X85890600Y-3797300D03*
X86890601Y-3797300D03*
X87890599Y-3797300D03*
X88890599Y-3797300D03*
X89890600Y-3797300D03*
X90890601Y-3797300D03*
X91890601Y-3797300D03*
X92890599Y-3797300D03*
X93890600Y-3797300D03*
X94890600Y-3797300D03*
X95890601Y-3797300D03*
X96890601Y-3797300D03*
X96890599Y14211300D03*
X95890601Y14211300D03*
X94890600Y14211300D03*
X93890600Y14211300D03*
X92890599Y14211300D03*
X91890601Y14211300D03*
X90890601Y14211300D03*
X89890600Y14211300D03*
X88890599Y14211300D03*
X87890599Y14211300D03*
X86890601Y14211300D03*
X85890600Y14211300D03*
X84890600Y14211300D03*
X83890599Y14211300D03*
X82890599Y14211300D03*
D15*
X85725000Y8255000D03*
D16*
X89890600Y2159000D03*
D15*
X94056200Y8255000D03*
%TD*%
D14*
%TO.C,U1*%
X65110601Y-3797300D03*
X66110599Y-3797300D03*
X67110600Y-3797300D03*
X68110600Y-3797300D03*
X69110601Y-3797300D03*
X70110599Y-3797300D03*
X71110599Y-3797300D03*
X72110600Y-3797300D03*
X73110601Y-3797300D03*
X74110601Y-3797300D03*
X75110599Y-3797300D03*
X76110600Y-3797300D03*
X77110600Y-3797300D03*
X78110601Y-3797300D03*
X79110601Y-3797300D03*
X79110599Y14211300D03*
X78110601Y14211300D03*
X77110600Y14211300D03*
X76110600Y14211300D03*
X75110599Y14211300D03*
X74110601Y14211300D03*
X73110601Y14211300D03*
X72110600Y14211300D03*
X71110599Y14211300D03*
X70110599Y14211300D03*
X69110601Y14211300D03*
X68110600Y14211300D03*
X67110600Y14211300D03*
X66110599Y14211300D03*
X65110599Y14211300D03*
D15*
X67945000Y8255000D03*
D16*
X72110600Y2159000D03*
D15*
X76276200Y8255000D03*
%TD*%
%TO.C,R49*%
G36*
G01*
X81677500Y-108097500D02*
X82152500Y-108097500D01*
G75*
G02*
X82390000Y-108335000I0J-237500D01*
G01*
X82390000Y-108835000D01*
G75*
G02*
X82152500Y-109072500I-237500J0D01*
G01*
X81677500Y-109072500D01*
G75*
G02*
X81440000Y-108835000I0J237500D01*
G01*
X81440000Y-108335000D01*
G75*
G02*
X81677500Y-108097500I237500J0D01*
G01*
G37*
G36*
G01*
X81677500Y-106272500D02*
X82152500Y-106272500D01*
G75*
G02*
X82390000Y-106510000I0J-237500D01*
G01*
X82390000Y-107010000D01*
G75*
G02*
X82152500Y-107247500I-237500J0D01*
G01*
X81677500Y-107247500D01*
G75*
G02*
X81440000Y-107010000I0J237500D01*
G01*
X81440000Y-106510000D01*
G75*
G02*
X81677500Y-106272500I237500J0D01*
G01*
G37*
%TD*%
%TO.C,R48*%
G36*
G01*
X56912500Y-108097500D02*
X57387500Y-108097500D01*
G75*
G02*
X57625000Y-108335000I0J-237500D01*
G01*
X57625000Y-108835000D01*
G75*
G02*
X57387500Y-109072500I-237500J0D01*
G01*
X56912500Y-109072500D01*
G75*
G02*
X56675000Y-108835000I0J237500D01*
G01*
X56675000Y-108335000D01*
G75*
G02*
X56912500Y-108097500I237500J0D01*
G01*
G37*
G36*
G01*
X56912500Y-106272500D02*
X57387500Y-106272500D01*
G75*
G02*
X57625000Y-106510000I0J-237500D01*
G01*
X57625000Y-107010000D01*
G75*
G02*
X57387500Y-107247500I-237500J0D01*
G01*
X56912500Y-107247500D01*
G75*
G02*
X56675000Y-107010000I0J237500D01*
G01*
X56675000Y-106510000D01*
G75*
G02*
X56912500Y-106272500I237500J0D01*
G01*
G37*
%TD*%
%TO.C,R47*%
G36*
G01*
X73422500Y-108097500D02*
X73897500Y-108097500D01*
G75*
G02*
X74135000Y-108335000I0J-237500D01*
G01*
X74135000Y-108835000D01*
G75*
G02*
X73897500Y-109072500I-237500J0D01*
G01*
X73422500Y-109072500D01*
G75*
G02*
X73185000Y-108835000I0J237500D01*
G01*
X73185000Y-108335000D01*
G75*
G02*
X73422500Y-108097500I237500J0D01*
G01*
G37*
G36*
G01*
X73422500Y-106272500D02*
X73897500Y-106272500D01*
G75*
G02*
X74135000Y-106510000I0J-237500D01*
G01*
X74135000Y-107010000D01*
G75*
G02*
X73897500Y-107247500I-237500J0D01*
G01*
X73422500Y-107247500D01*
G75*
G02*
X73185000Y-107010000I0J237500D01*
G01*
X73185000Y-106510000D01*
G75*
G02*
X73422500Y-106272500I237500J0D01*
G01*
G37*
%TD*%
%TO.C,R46*%
G36*
G01*
X48657500Y-108097500D02*
X49132500Y-108097500D01*
G75*
G02*
X49370000Y-108335000I0J-237500D01*
G01*
X49370000Y-108835000D01*
G75*
G02*
X49132500Y-109072500I-237500J0D01*
G01*
X48657500Y-109072500D01*
G75*
G02*
X48420000Y-108835000I0J237500D01*
G01*
X48420000Y-108335000D01*
G75*
G02*
X48657500Y-108097500I237500J0D01*
G01*
G37*
G36*
G01*
X48657500Y-106272500D02*
X49132500Y-106272500D01*
G75*
G02*
X49370000Y-106510000I0J-237500D01*
G01*
X49370000Y-107010000D01*
G75*
G02*
X49132500Y-107247500I-237500J0D01*
G01*
X48657500Y-107247500D01*
G75*
G02*
X48420000Y-107010000I0J237500D01*
G01*
X48420000Y-106510000D01*
G75*
G02*
X48657500Y-106272500I237500J0D01*
G01*
G37*
%TD*%
%TO.C,R45*%
G36*
G01*
X65167500Y-108097500D02*
X65642500Y-108097500D01*
G75*
G02*
X65880000Y-108335000I0J-237500D01*
G01*
X65880000Y-108835000D01*
G75*
G02*
X65642500Y-109072500I-237500J0D01*
G01*
X65167500Y-109072500D01*
G75*
G02*
X64930000Y-108835000I0J237500D01*
G01*
X64930000Y-108335000D01*
G75*
G02*
X65167500Y-108097500I237500J0D01*
G01*
G37*
G36*
G01*
X65167500Y-106272500D02*
X65642500Y-106272500D01*
G75*
G02*
X65880000Y-106510000I0J-237500D01*
G01*
X65880000Y-107010000D01*
G75*
G02*
X65642500Y-107247500I-237500J0D01*
G01*
X65167500Y-107247500D01*
G75*
G02*
X64930000Y-107010000I0J237500D01*
G01*
X64930000Y-106510000D01*
G75*
G02*
X65167500Y-106272500I237500J0D01*
G01*
G37*
%TD*%
%TO.C,R44*%
G36*
G01*
X40402500Y-108097500D02*
X40877500Y-108097500D01*
G75*
G02*
X41115000Y-108335000I0J-237500D01*
G01*
X41115000Y-108835000D01*
G75*
G02*
X40877500Y-109072500I-237500J0D01*
G01*
X40402500Y-109072500D01*
G75*
G02*
X40165000Y-108835000I0J237500D01*
G01*
X40165000Y-108335000D01*
G75*
G02*
X40402500Y-108097500I237500J0D01*
G01*
G37*
G36*
G01*
X40402500Y-106272500D02*
X40877500Y-106272500D01*
G75*
G02*
X41115000Y-106510000I0J-237500D01*
G01*
X41115000Y-107010000D01*
G75*
G02*
X40877500Y-107247500I-237500J0D01*
G01*
X40402500Y-107247500D01*
G75*
G02*
X40165000Y-107010000I0J237500D01*
G01*
X40165000Y-106510000D01*
G75*
G02*
X40402500Y-106272500I237500J0D01*
G01*
G37*
%TD*%
%TO.C,R43*%
G36*
G01*
X130572500Y-95952500D02*
X131047500Y-95952500D01*
G75*
G02*
X131285000Y-96190000I0J-237500D01*
G01*
X131285000Y-96690000D01*
G75*
G02*
X131047500Y-96927500I-237500J0D01*
G01*
X130572500Y-96927500D01*
G75*
G02*
X130335000Y-96690000I0J237500D01*
G01*
X130335000Y-96190000D01*
G75*
G02*
X130572500Y-95952500I237500J0D01*
G01*
G37*
G36*
G01*
X130572500Y-94127500D02*
X131047500Y-94127500D01*
G75*
G02*
X131285000Y-94365000I0J-237500D01*
G01*
X131285000Y-94865000D01*
G75*
G02*
X131047500Y-95102500I-237500J0D01*
G01*
X130572500Y-95102500D01*
G75*
G02*
X130335000Y-94865000I0J237500D01*
G01*
X130335000Y-94365000D01*
G75*
G02*
X130572500Y-94127500I237500J0D01*
G01*
G37*
%TD*%
%TO.C,R42*%
G36*
G01*
X132952500Y-95102500D02*
X132477500Y-95102500D01*
G75*
G02*
X132240000Y-94865000I0J237500D01*
G01*
X132240000Y-94365000D01*
G75*
G02*
X132477500Y-94127500I237500J0D01*
G01*
X132952500Y-94127500D01*
G75*
G02*
X133190000Y-94365000I0J-237500D01*
G01*
X133190000Y-94865000D01*
G75*
G02*
X132952500Y-95102500I-237500J0D01*
G01*
G37*
G36*
G01*
X132952500Y-96927500D02*
X132477500Y-96927500D01*
G75*
G02*
X132240000Y-96690000I0J237500D01*
G01*
X132240000Y-96190000D01*
G75*
G02*
X132477500Y-95952500I237500J0D01*
G01*
X132952500Y-95952500D01*
G75*
G02*
X133190000Y-96190000I0J-237500D01*
G01*
X133190000Y-96690000D01*
G75*
G02*
X132952500Y-96927500I-237500J0D01*
G01*
G37*
%TD*%
%TO.C,R40*%
G36*
G01*
X55097500Y-20082500D02*
X55097500Y-20557500D01*
G75*
G02*
X54860000Y-20795000I-237500J0D01*
G01*
X54360000Y-20795000D01*
G75*
G02*
X54122500Y-20557500I0J237500D01*
G01*
X54122500Y-20082500D01*
G75*
G02*
X54360000Y-19845000I237500J0D01*
G01*
X54860000Y-19845000D01*
G75*
G02*
X55097500Y-20082500I0J-237500D01*
G01*
G37*
G36*
G01*
X56922500Y-20082500D02*
X56922500Y-20557500D01*
G75*
G02*
X56685000Y-20795000I-237500J0D01*
G01*
X56185000Y-20795000D01*
G75*
G02*
X55947500Y-20557500I0J237500D01*
G01*
X55947500Y-20082500D01*
G75*
G02*
X56185000Y-19845000I237500J0D01*
G01*
X56685000Y-19845000D01*
G75*
G02*
X56922500Y-20082500I0J-237500D01*
G01*
G37*
%TD*%
%TO.C,R37*%
G36*
G01*
X55097500Y-9287500D02*
X55097500Y-9762500D01*
G75*
G02*
X54860000Y-10000000I-237500J0D01*
G01*
X54360000Y-10000000D01*
G75*
G02*
X54122500Y-9762500I0J237500D01*
G01*
X54122500Y-9287500D01*
G75*
G02*
X54360000Y-9050000I237500J0D01*
G01*
X54860000Y-9050000D01*
G75*
G02*
X55097500Y-9287500I0J-237500D01*
G01*
G37*
G36*
G01*
X56922500Y-9287500D02*
X56922500Y-9762500D01*
G75*
G02*
X56685000Y-10000000I-237500J0D01*
G01*
X56185000Y-10000000D01*
G75*
G02*
X55947500Y-9762500I0J237500D01*
G01*
X55947500Y-9287500D01*
G75*
G02*
X56185000Y-9050000I237500J0D01*
G01*
X56685000Y-9050000D01*
G75*
G02*
X56922500Y-9287500I0J-237500D01*
G01*
G37*
%TD*%
%TO.C,R39*%
G36*
G01*
X56752500Y17927500D02*
X56277500Y17927500D01*
G75*
G02*
X56040000Y18165000I0J237500D01*
G01*
X56040000Y18665000D01*
G75*
G02*
X56277500Y18902500I237500J0D01*
G01*
X56752500Y18902500D01*
G75*
G02*
X56990000Y18665000I0J-237500D01*
G01*
X56990000Y18165000D01*
G75*
G02*
X56752500Y17927500I-237500J0D01*
G01*
G37*
G36*
G01*
X56752500Y16102500D02*
X56277500Y16102500D01*
G75*
G02*
X56040000Y16340000I0J237500D01*
G01*
X56040000Y16840000D01*
G75*
G02*
X56277500Y17077500I237500J0D01*
G01*
X56752500Y17077500D01*
G75*
G02*
X56990000Y16840000I0J-237500D01*
G01*
X56990000Y16340000D01*
G75*
G02*
X56752500Y16102500I-237500J0D01*
G01*
G37*
%TD*%
%TO.C,R38*%
G36*
G01*
X56752500Y10227500D02*
X56277500Y10227500D01*
G75*
G02*
X56040000Y10465000I0J237500D01*
G01*
X56040000Y10965000D01*
G75*
G02*
X56277500Y11202500I237500J0D01*
G01*
X56752500Y11202500D01*
G75*
G02*
X56990000Y10965000I0J-237500D01*
G01*
X56990000Y10465000D01*
G75*
G02*
X56752500Y10227500I-237500J0D01*
G01*
G37*
G36*
G01*
X56752500Y8402500D02*
X56277500Y8402500D01*
G75*
G02*
X56040000Y8640000I0J237500D01*
G01*
X56040000Y9140000D01*
G75*
G02*
X56277500Y9377500I237500J0D01*
G01*
X56752500Y9377500D01*
G75*
G02*
X56990000Y9140000I0J-237500D01*
G01*
X56990000Y8640000D01*
G75*
G02*
X56752500Y8402500I-237500J0D01*
G01*
G37*
%TD*%
%TO.C,R36*%
G36*
G01*
X129937500Y-6497500D02*
X130412500Y-6497500D01*
G75*
G02*
X130650000Y-6735000I0J-237500D01*
G01*
X130650000Y-7235000D01*
G75*
G02*
X130412500Y-7472500I-237500J0D01*
G01*
X129937500Y-7472500D01*
G75*
G02*
X129700000Y-7235000I0J237500D01*
G01*
X129700000Y-6735000D01*
G75*
G02*
X129937500Y-6497500I237500J0D01*
G01*
G37*
G36*
G01*
X129937500Y-8322500D02*
X130412500Y-8322500D01*
G75*
G02*
X130650000Y-8560000I0J-237500D01*
G01*
X130650000Y-9060000D01*
G75*
G02*
X130412500Y-9297500I-237500J0D01*
G01*
X129937500Y-9297500D01*
G75*
G02*
X129700000Y-9060000I0J237500D01*
G01*
X129700000Y-8560000D01*
G75*
G02*
X129937500Y-8322500I237500J0D01*
G01*
G37*
%TD*%
%TO.C,R35*%
G36*
G01*
X112157500Y-8322500D02*
X112632500Y-8322500D01*
G75*
G02*
X112870000Y-8560000I0J-237500D01*
G01*
X112870000Y-9060000D01*
G75*
G02*
X112632500Y-9297500I-237500J0D01*
G01*
X112157500Y-9297500D01*
G75*
G02*
X111920000Y-9060000I0J237500D01*
G01*
X111920000Y-8560000D01*
G75*
G02*
X112157500Y-8322500I237500J0D01*
G01*
G37*
G36*
G01*
X112157500Y-6497500D02*
X112632500Y-6497500D01*
G75*
G02*
X112870000Y-6735000I0J-237500D01*
G01*
X112870000Y-7235000D01*
G75*
G02*
X112632500Y-7472500I-237500J0D01*
G01*
X112157500Y-7472500D01*
G75*
G02*
X111920000Y-7235000I0J237500D01*
G01*
X111920000Y-6735000D01*
G75*
G02*
X112157500Y-6497500I237500J0D01*
G01*
G37*
%TD*%
%TO.C,R34*%
G36*
G01*
X94377500Y-8322500D02*
X94852500Y-8322500D01*
G75*
G02*
X95090000Y-8560000I0J-237500D01*
G01*
X95090000Y-9060000D01*
G75*
G02*
X94852500Y-9297500I-237500J0D01*
G01*
X94377500Y-9297500D01*
G75*
G02*
X94140000Y-9060000I0J237500D01*
G01*
X94140000Y-8560000D01*
G75*
G02*
X94377500Y-8322500I237500J0D01*
G01*
G37*
G36*
G01*
X94377500Y-6497500D02*
X94852500Y-6497500D01*
G75*
G02*
X95090000Y-6735000I0J-237500D01*
G01*
X95090000Y-7235000D01*
G75*
G02*
X94852500Y-7472500I-237500J0D01*
G01*
X94377500Y-7472500D01*
G75*
G02*
X94140000Y-7235000I0J237500D01*
G01*
X94140000Y-6735000D01*
G75*
G02*
X94377500Y-6497500I237500J0D01*
G01*
G37*
%TD*%
%TO.C,R33*%
G36*
G01*
X76597500Y-8322500D02*
X77072500Y-8322500D01*
G75*
G02*
X77310000Y-8560000I0J-237500D01*
G01*
X77310000Y-9060000D01*
G75*
G02*
X77072500Y-9297500I-237500J0D01*
G01*
X76597500Y-9297500D01*
G75*
G02*
X76360000Y-9060000I0J237500D01*
G01*
X76360000Y-8560000D01*
G75*
G02*
X76597500Y-8322500I237500J0D01*
G01*
G37*
G36*
G01*
X76597500Y-6497500D02*
X77072500Y-6497500D01*
G75*
G02*
X77310000Y-6735000I0J-237500D01*
G01*
X77310000Y-7235000D01*
G75*
G02*
X77072500Y-7472500I-237500J0D01*
G01*
X76597500Y-7472500D01*
G75*
G02*
X76360000Y-7235000I0J237500D01*
G01*
X76360000Y-6735000D01*
G75*
G02*
X76597500Y-6497500I237500J0D01*
G01*
G37*
%TD*%
%TO.C,R32*%
G36*
G01*
X53102500Y-83332500D02*
X53577500Y-83332500D01*
G75*
G02*
X53815000Y-83570000I0J-237500D01*
G01*
X53815000Y-84070000D01*
G75*
G02*
X53577500Y-84307500I-237500J0D01*
G01*
X53102500Y-84307500D01*
G75*
G02*
X52865000Y-84070000I0J237500D01*
G01*
X52865000Y-83570000D01*
G75*
G02*
X53102500Y-83332500I237500J0D01*
G01*
G37*
G36*
G01*
X53102500Y-85157500D02*
X53577500Y-85157500D01*
G75*
G02*
X53815000Y-85395000I0J-237500D01*
G01*
X53815000Y-85895000D01*
G75*
G02*
X53577500Y-86132500I-237500J0D01*
G01*
X53102500Y-86132500D01*
G75*
G02*
X52865000Y-85895000I0J237500D01*
G01*
X52865000Y-85395000D01*
G75*
G02*
X53102500Y-85157500I237500J0D01*
G01*
G37*
%TD*%
%TO.C,R31*%
G36*
G01*
X49292500Y-85157500D02*
X49767500Y-85157500D01*
G75*
G02*
X50005000Y-85395000I0J-237500D01*
G01*
X50005000Y-85895000D01*
G75*
G02*
X49767500Y-86132500I-237500J0D01*
G01*
X49292500Y-86132500D01*
G75*
G02*
X49055000Y-85895000I0J237500D01*
G01*
X49055000Y-85395000D01*
G75*
G02*
X49292500Y-85157500I237500J0D01*
G01*
G37*
G36*
G01*
X49292500Y-83332500D02*
X49767500Y-83332500D01*
G75*
G02*
X50005000Y-83570000I0J-237500D01*
G01*
X50005000Y-84070000D01*
G75*
G02*
X49767500Y-84307500I-237500J0D01*
G01*
X49292500Y-84307500D01*
G75*
G02*
X49055000Y-84070000I0J237500D01*
G01*
X49055000Y-83570000D01*
G75*
G02*
X49292500Y-83332500I237500J0D01*
G01*
G37*
%TD*%
%TO.C,R30*%
G36*
G01*
X45482500Y-85157500D02*
X45957500Y-85157500D01*
G75*
G02*
X46195000Y-85395000I0J-237500D01*
G01*
X46195000Y-85895000D01*
G75*
G02*
X45957500Y-86132500I-237500J0D01*
G01*
X45482500Y-86132500D01*
G75*
G02*
X45245000Y-85895000I0J237500D01*
G01*
X45245000Y-85395000D01*
G75*
G02*
X45482500Y-85157500I237500J0D01*
G01*
G37*
G36*
G01*
X45482500Y-83332500D02*
X45957500Y-83332500D01*
G75*
G02*
X46195000Y-83570000I0J-237500D01*
G01*
X46195000Y-84070000D01*
G75*
G02*
X45957500Y-84307500I-237500J0D01*
G01*
X45482500Y-84307500D01*
G75*
G02*
X45245000Y-84070000I0J237500D01*
G01*
X45245000Y-83570000D01*
G75*
G02*
X45482500Y-83332500I237500J0D01*
G01*
G37*
%TD*%
%TO.C,R29*%
G36*
G01*
X41672500Y-85157500D02*
X42147500Y-85157500D01*
G75*
G02*
X42385000Y-85395000I0J-237500D01*
G01*
X42385000Y-85895000D01*
G75*
G02*
X42147500Y-86132500I-237500J0D01*
G01*
X41672500Y-86132500D01*
G75*
G02*
X41435000Y-85895000I0J237500D01*
G01*
X41435000Y-85395000D01*
G75*
G02*
X41672500Y-85157500I237500J0D01*
G01*
G37*
G36*
G01*
X41672500Y-83332500D02*
X42147500Y-83332500D01*
G75*
G02*
X42385000Y-83570000I0J-237500D01*
G01*
X42385000Y-84070000D01*
G75*
G02*
X42147500Y-84307500I-237500J0D01*
G01*
X41672500Y-84307500D01*
G75*
G02*
X41435000Y-84070000I0J237500D01*
G01*
X41435000Y-83570000D01*
G75*
G02*
X41672500Y-83332500I237500J0D01*
G01*
G37*
%TD*%
%TO.C,R28*%
G36*
G01*
X128032500Y-6497500D02*
X128507500Y-6497500D01*
G75*
G02*
X128745000Y-6735000I0J-237500D01*
G01*
X128745000Y-7235000D01*
G75*
G02*
X128507500Y-7472500I-237500J0D01*
G01*
X128032500Y-7472500D01*
G75*
G02*
X127795000Y-7235000I0J237500D01*
G01*
X127795000Y-6735000D01*
G75*
G02*
X128032500Y-6497500I237500J0D01*
G01*
G37*
G36*
G01*
X128032500Y-8322500D02*
X128507500Y-8322500D01*
G75*
G02*
X128745000Y-8560000I0J-237500D01*
G01*
X128745000Y-9060000D01*
G75*
G02*
X128507500Y-9297500I-237500J0D01*
G01*
X128032500Y-9297500D01*
G75*
G02*
X127795000Y-9060000I0J237500D01*
G01*
X127795000Y-8560000D01*
G75*
G02*
X128032500Y-8322500I237500J0D01*
G01*
G37*
%TD*%
%TO.C,R27*%
G36*
G01*
X110252500Y-8322500D02*
X110727500Y-8322500D01*
G75*
G02*
X110965000Y-8560000I0J-237500D01*
G01*
X110965000Y-9060000D01*
G75*
G02*
X110727500Y-9297500I-237500J0D01*
G01*
X110252500Y-9297500D01*
G75*
G02*
X110015000Y-9060000I0J237500D01*
G01*
X110015000Y-8560000D01*
G75*
G02*
X110252500Y-8322500I237500J0D01*
G01*
G37*
G36*
G01*
X110252500Y-6497500D02*
X110727500Y-6497500D01*
G75*
G02*
X110965000Y-6735000I0J-237500D01*
G01*
X110965000Y-7235000D01*
G75*
G02*
X110727500Y-7472500I-237500J0D01*
G01*
X110252500Y-7472500D01*
G75*
G02*
X110015000Y-7235000I0J237500D01*
G01*
X110015000Y-6735000D01*
G75*
G02*
X110252500Y-6497500I237500J0D01*
G01*
G37*
%TD*%
%TO.C,R26*%
G36*
G01*
X92472500Y-8322500D02*
X92947500Y-8322500D01*
G75*
G02*
X93185000Y-8560000I0J-237500D01*
G01*
X93185000Y-9060000D01*
G75*
G02*
X92947500Y-9297500I-237500J0D01*
G01*
X92472500Y-9297500D01*
G75*
G02*
X92235000Y-9060000I0J237500D01*
G01*
X92235000Y-8560000D01*
G75*
G02*
X92472500Y-8322500I237500J0D01*
G01*
G37*
G36*
G01*
X92472500Y-6497500D02*
X92947500Y-6497500D01*
G75*
G02*
X93185000Y-6735000I0J-237500D01*
G01*
X93185000Y-7235000D01*
G75*
G02*
X92947500Y-7472500I-237500J0D01*
G01*
X92472500Y-7472500D01*
G75*
G02*
X92235000Y-7235000I0J237500D01*
G01*
X92235000Y-6735000D01*
G75*
G02*
X92472500Y-6497500I237500J0D01*
G01*
G37*
%TD*%
%TO.C,R25*%
G36*
G01*
X74692500Y-8322500D02*
X75167500Y-8322500D01*
G75*
G02*
X75405000Y-8560000I0J-237500D01*
G01*
X75405000Y-9060000D01*
G75*
G02*
X75167500Y-9297500I-237500J0D01*
G01*
X74692500Y-9297500D01*
G75*
G02*
X74455000Y-9060000I0J237500D01*
G01*
X74455000Y-8560000D01*
G75*
G02*
X74692500Y-8322500I237500J0D01*
G01*
G37*
G36*
G01*
X74692500Y-6497500D02*
X75167500Y-6497500D01*
G75*
G02*
X75405000Y-6735000I0J-237500D01*
G01*
X75405000Y-7235000D01*
G75*
G02*
X75167500Y-7472500I-237500J0D01*
G01*
X74692500Y-7472500D01*
G75*
G02*
X74455000Y-7235000I0J237500D01*
G01*
X74455000Y-6735000D01*
G75*
G02*
X74692500Y-6497500I237500J0D01*
G01*
G37*
%TD*%
%TO.C,R24*%
G36*
G01*
X51197500Y-85157500D02*
X51672500Y-85157500D01*
G75*
G02*
X51910000Y-85395000I0J-237500D01*
G01*
X51910000Y-85895000D01*
G75*
G02*
X51672500Y-86132500I-237500J0D01*
G01*
X51197500Y-86132500D01*
G75*
G02*
X50960000Y-85895000I0J237500D01*
G01*
X50960000Y-85395000D01*
G75*
G02*
X51197500Y-85157500I237500J0D01*
G01*
G37*
G36*
G01*
X51197500Y-83332500D02*
X51672500Y-83332500D01*
G75*
G02*
X51910000Y-83570000I0J-237500D01*
G01*
X51910000Y-84070000D01*
G75*
G02*
X51672500Y-84307500I-237500J0D01*
G01*
X51197500Y-84307500D01*
G75*
G02*
X50960000Y-84070000I0J237500D01*
G01*
X50960000Y-83570000D01*
G75*
G02*
X51197500Y-83332500I237500J0D01*
G01*
G37*
%TD*%
%TO.C,R23*%
G36*
G01*
X47387500Y-85157500D02*
X47862500Y-85157500D01*
G75*
G02*
X48100000Y-85395000I0J-237500D01*
G01*
X48100000Y-85895000D01*
G75*
G02*
X47862500Y-86132500I-237500J0D01*
G01*
X47387500Y-86132500D01*
G75*
G02*
X47150000Y-85895000I0J237500D01*
G01*
X47150000Y-85395000D01*
G75*
G02*
X47387500Y-85157500I237500J0D01*
G01*
G37*
G36*
G01*
X47387500Y-83332500D02*
X47862500Y-83332500D01*
G75*
G02*
X48100000Y-83570000I0J-237500D01*
G01*
X48100000Y-84070000D01*
G75*
G02*
X47862500Y-84307500I-237500J0D01*
G01*
X47387500Y-84307500D01*
G75*
G02*
X47150000Y-84070000I0J237500D01*
G01*
X47150000Y-83570000D01*
G75*
G02*
X47387500Y-83332500I237500J0D01*
G01*
G37*
%TD*%
%TO.C,R22*%
G36*
G01*
X43577500Y-85157500D02*
X44052500Y-85157500D01*
G75*
G02*
X44290000Y-85395000I0J-237500D01*
G01*
X44290000Y-85895000D01*
G75*
G02*
X44052500Y-86132500I-237500J0D01*
G01*
X43577500Y-86132500D01*
G75*
G02*
X43340000Y-85895000I0J237500D01*
G01*
X43340000Y-85395000D01*
G75*
G02*
X43577500Y-85157500I237500J0D01*
G01*
G37*
G36*
G01*
X43577500Y-83332500D02*
X44052500Y-83332500D01*
G75*
G02*
X44290000Y-83570000I0J-237500D01*
G01*
X44290000Y-84070000D01*
G75*
G02*
X44052500Y-84307500I-237500J0D01*
G01*
X43577500Y-84307500D01*
G75*
G02*
X43340000Y-84070000I0J237500D01*
G01*
X43340000Y-83570000D01*
G75*
G02*
X43577500Y-83332500I237500J0D01*
G01*
G37*
%TD*%
%TO.C,R20*%
G36*
G01*
X126127500Y-6497500D02*
X126602500Y-6497500D01*
G75*
G02*
X126840000Y-6735000I0J-237500D01*
G01*
X126840000Y-7235000D01*
G75*
G02*
X126602500Y-7472500I-237500J0D01*
G01*
X126127500Y-7472500D01*
G75*
G02*
X125890000Y-7235000I0J237500D01*
G01*
X125890000Y-6735000D01*
G75*
G02*
X126127500Y-6497500I237500J0D01*
G01*
G37*
G36*
G01*
X126127500Y-8322500D02*
X126602500Y-8322500D01*
G75*
G02*
X126840000Y-8560000I0J-237500D01*
G01*
X126840000Y-9060000D01*
G75*
G02*
X126602500Y-9297500I-237500J0D01*
G01*
X126127500Y-9297500D01*
G75*
G02*
X125890000Y-9060000I0J237500D01*
G01*
X125890000Y-8560000D01*
G75*
G02*
X126127500Y-8322500I237500J0D01*
G01*
G37*
%TD*%
%TO.C,R19*%
G36*
G01*
X108347500Y-8322500D02*
X108822500Y-8322500D01*
G75*
G02*
X109060000Y-8560000I0J-237500D01*
G01*
X109060000Y-9060000D01*
G75*
G02*
X108822500Y-9297500I-237500J0D01*
G01*
X108347500Y-9297500D01*
G75*
G02*
X108110000Y-9060000I0J237500D01*
G01*
X108110000Y-8560000D01*
G75*
G02*
X108347500Y-8322500I237500J0D01*
G01*
G37*
G36*
G01*
X108347500Y-6497500D02*
X108822500Y-6497500D01*
G75*
G02*
X109060000Y-6735000I0J-237500D01*
G01*
X109060000Y-7235000D01*
G75*
G02*
X108822500Y-7472500I-237500J0D01*
G01*
X108347500Y-7472500D01*
G75*
G02*
X108110000Y-7235000I0J237500D01*
G01*
X108110000Y-6735000D01*
G75*
G02*
X108347500Y-6497500I237500J0D01*
G01*
G37*
%TD*%
%TO.C,R18*%
G36*
G01*
X90567500Y-8322500D02*
X91042500Y-8322500D01*
G75*
G02*
X91280000Y-8560000I0J-237500D01*
G01*
X91280000Y-9060000D01*
G75*
G02*
X91042500Y-9297500I-237500J0D01*
G01*
X90567500Y-9297500D01*
G75*
G02*
X90330000Y-9060000I0J237500D01*
G01*
X90330000Y-8560000D01*
G75*
G02*
X90567500Y-8322500I237500J0D01*
G01*
G37*
G36*
G01*
X90567500Y-6497500D02*
X91042500Y-6497500D01*
G75*
G02*
X91280000Y-6735000I0J-237500D01*
G01*
X91280000Y-7235000D01*
G75*
G02*
X91042500Y-7472500I-237500J0D01*
G01*
X90567500Y-7472500D01*
G75*
G02*
X90330000Y-7235000I0J237500D01*
G01*
X90330000Y-6735000D01*
G75*
G02*
X90567500Y-6497500I237500J0D01*
G01*
G37*
%TD*%
%TO.C,R17*%
G36*
G01*
X72787500Y-8322500D02*
X73262500Y-8322500D01*
G75*
G02*
X73500000Y-8560000I0J-237500D01*
G01*
X73500000Y-9060000D01*
G75*
G02*
X73262500Y-9297500I-237500J0D01*
G01*
X72787500Y-9297500D01*
G75*
G02*
X72550000Y-9060000I0J237500D01*
G01*
X72550000Y-8560000D01*
G75*
G02*
X72787500Y-8322500I237500J0D01*
G01*
G37*
G36*
G01*
X72787500Y-6497500D02*
X73262500Y-6497500D01*
G75*
G02*
X73500000Y-6735000I0J-237500D01*
G01*
X73500000Y-7235000D01*
G75*
G02*
X73262500Y-7472500I-237500J0D01*
G01*
X72787500Y-7472500D01*
G75*
G02*
X72550000Y-7235000I0J237500D01*
G01*
X72550000Y-6735000D01*
G75*
G02*
X72787500Y-6497500I237500J0D01*
G01*
G37*
%TD*%
%TO.C,R16*%
G36*
G01*
X124222500Y-6497500D02*
X124697500Y-6497500D01*
G75*
G02*
X124935000Y-6735000I0J-237500D01*
G01*
X124935000Y-7235000D01*
G75*
G02*
X124697500Y-7472500I-237500J0D01*
G01*
X124222500Y-7472500D01*
G75*
G02*
X123985000Y-7235000I0J237500D01*
G01*
X123985000Y-6735000D01*
G75*
G02*
X124222500Y-6497500I237500J0D01*
G01*
G37*
G36*
G01*
X124222500Y-8322500D02*
X124697500Y-8322500D01*
G75*
G02*
X124935000Y-8560000I0J-237500D01*
G01*
X124935000Y-9060000D01*
G75*
G02*
X124697500Y-9297500I-237500J0D01*
G01*
X124222500Y-9297500D01*
G75*
G02*
X123985000Y-9060000I0J237500D01*
G01*
X123985000Y-8560000D01*
G75*
G02*
X124222500Y-8322500I237500J0D01*
G01*
G37*
%TD*%
%TO.C,R15*%
G36*
G01*
X106442500Y-8322500D02*
X106917500Y-8322500D01*
G75*
G02*
X107155000Y-8560000I0J-237500D01*
G01*
X107155000Y-9060000D01*
G75*
G02*
X106917500Y-9297500I-237500J0D01*
G01*
X106442500Y-9297500D01*
G75*
G02*
X106205000Y-9060000I0J237500D01*
G01*
X106205000Y-8560000D01*
G75*
G02*
X106442500Y-8322500I237500J0D01*
G01*
G37*
G36*
G01*
X106442500Y-6497500D02*
X106917500Y-6497500D01*
G75*
G02*
X107155000Y-6735000I0J-237500D01*
G01*
X107155000Y-7235000D01*
G75*
G02*
X106917500Y-7472500I-237500J0D01*
G01*
X106442500Y-7472500D01*
G75*
G02*
X106205000Y-7235000I0J237500D01*
G01*
X106205000Y-6735000D01*
G75*
G02*
X106442500Y-6497500I237500J0D01*
G01*
G37*
%TD*%
%TO.C,R14*%
G36*
G01*
X88662500Y-8322500D02*
X89137500Y-8322500D01*
G75*
G02*
X89375000Y-8560000I0J-237500D01*
G01*
X89375000Y-9060000D01*
G75*
G02*
X89137500Y-9297500I-237500J0D01*
G01*
X88662500Y-9297500D01*
G75*
G02*
X88425000Y-9060000I0J237500D01*
G01*
X88425000Y-8560000D01*
G75*
G02*
X88662500Y-8322500I237500J0D01*
G01*
G37*
G36*
G01*
X88662500Y-6497500D02*
X89137500Y-6497500D01*
G75*
G02*
X89375000Y-6735000I0J-237500D01*
G01*
X89375000Y-7235000D01*
G75*
G02*
X89137500Y-7472500I-237500J0D01*
G01*
X88662500Y-7472500D01*
G75*
G02*
X88425000Y-7235000I0J237500D01*
G01*
X88425000Y-6735000D01*
G75*
G02*
X88662500Y-6497500I237500J0D01*
G01*
G37*
%TD*%
%TO.C,R13*%
G36*
G01*
X70882500Y-8322500D02*
X71357500Y-8322500D01*
G75*
G02*
X71595000Y-8560000I0J-237500D01*
G01*
X71595000Y-9060000D01*
G75*
G02*
X71357500Y-9297500I-237500J0D01*
G01*
X70882500Y-9297500D01*
G75*
G02*
X70645000Y-9060000I0J237500D01*
G01*
X70645000Y-8560000D01*
G75*
G02*
X70882500Y-8322500I237500J0D01*
G01*
G37*
G36*
G01*
X70882500Y-6497500D02*
X71357500Y-6497500D01*
G75*
G02*
X71595000Y-6735000I0J-237500D01*
G01*
X71595000Y-7235000D01*
G75*
G02*
X71357500Y-7472500I-237500J0D01*
G01*
X70882500Y-7472500D01*
G75*
G02*
X70645000Y-7235000I0J237500D01*
G01*
X70645000Y-6735000D01*
G75*
G02*
X70882500Y-6497500I237500J0D01*
G01*
G37*
%TD*%
%TO.C,R12*%
G36*
G01*
X122317500Y-6497500D02*
X122792500Y-6497500D01*
G75*
G02*
X123030000Y-6735000I0J-237500D01*
G01*
X123030000Y-7235000D01*
G75*
G02*
X122792500Y-7472500I-237500J0D01*
G01*
X122317500Y-7472500D01*
G75*
G02*
X122080000Y-7235000I0J237500D01*
G01*
X122080000Y-6735000D01*
G75*
G02*
X122317500Y-6497500I237500J0D01*
G01*
G37*
G36*
G01*
X122317500Y-8322500D02*
X122792500Y-8322500D01*
G75*
G02*
X123030000Y-8560000I0J-237500D01*
G01*
X123030000Y-9060000D01*
G75*
G02*
X122792500Y-9297500I-237500J0D01*
G01*
X122317500Y-9297500D01*
G75*
G02*
X122080000Y-9060000I0J237500D01*
G01*
X122080000Y-8560000D01*
G75*
G02*
X122317500Y-8322500I237500J0D01*
G01*
G37*
%TD*%
%TO.C,R11*%
G36*
G01*
X104537500Y-8322500D02*
X105012500Y-8322500D01*
G75*
G02*
X105250000Y-8560000I0J-237500D01*
G01*
X105250000Y-9060000D01*
G75*
G02*
X105012500Y-9297500I-237500J0D01*
G01*
X104537500Y-9297500D01*
G75*
G02*
X104300000Y-9060000I0J237500D01*
G01*
X104300000Y-8560000D01*
G75*
G02*
X104537500Y-8322500I237500J0D01*
G01*
G37*
G36*
G01*
X104537500Y-6497500D02*
X105012500Y-6497500D01*
G75*
G02*
X105250000Y-6735000I0J-237500D01*
G01*
X105250000Y-7235000D01*
G75*
G02*
X105012500Y-7472500I-237500J0D01*
G01*
X104537500Y-7472500D01*
G75*
G02*
X104300000Y-7235000I0J237500D01*
G01*
X104300000Y-6735000D01*
G75*
G02*
X104537500Y-6497500I237500J0D01*
G01*
G37*
%TD*%
%TO.C,R10*%
G36*
G01*
X86757500Y-8322500D02*
X87232500Y-8322500D01*
G75*
G02*
X87470000Y-8560000I0J-237500D01*
G01*
X87470000Y-9060000D01*
G75*
G02*
X87232500Y-9297500I-237500J0D01*
G01*
X86757500Y-9297500D01*
G75*
G02*
X86520000Y-9060000I0J237500D01*
G01*
X86520000Y-8560000D01*
G75*
G02*
X86757500Y-8322500I237500J0D01*
G01*
G37*
G36*
G01*
X86757500Y-6497500D02*
X87232500Y-6497500D01*
G75*
G02*
X87470000Y-6735000I0J-237500D01*
G01*
X87470000Y-7235000D01*
G75*
G02*
X87232500Y-7472500I-237500J0D01*
G01*
X86757500Y-7472500D01*
G75*
G02*
X86520000Y-7235000I0J237500D01*
G01*
X86520000Y-6735000D01*
G75*
G02*
X86757500Y-6497500I237500J0D01*
G01*
G37*
%TD*%
%TO.C,R9*%
G36*
G01*
X68977500Y-8322500D02*
X69452500Y-8322500D01*
G75*
G02*
X69690000Y-8560000I0J-237500D01*
G01*
X69690000Y-9060000D01*
G75*
G02*
X69452500Y-9297500I-237500J0D01*
G01*
X68977500Y-9297500D01*
G75*
G02*
X68740000Y-9060000I0J237500D01*
G01*
X68740000Y-8560000D01*
G75*
G02*
X68977500Y-8322500I237500J0D01*
G01*
G37*
G36*
G01*
X68977500Y-6497500D02*
X69452500Y-6497500D01*
G75*
G02*
X69690000Y-6735000I0J-237500D01*
G01*
X69690000Y-7235000D01*
G75*
G02*
X69452500Y-7472500I-237500J0D01*
G01*
X68977500Y-7472500D01*
G75*
G02*
X68740000Y-7235000I0J237500D01*
G01*
X68740000Y-6735000D01*
G75*
G02*
X68977500Y-6497500I237500J0D01*
G01*
G37*
%TD*%
%TO.C,R8*%
G36*
G01*
X132317500Y-9297500D02*
X131842500Y-9297500D01*
G75*
G02*
X131605000Y-9060000I0J237500D01*
G01*
X131605000Y-8560000D01*
G75*
G02*
X131842500Y-8322500I237500J0D01*
G01*
X132317500Y-8322500D01*
G75*
G02*
X132555000Y-8560000I0J-237500D01*
G01*
X132555000Y-9060000D01*
G75*
G02*
X132317500Y-9297500I-237500J0D01*
G01*
G37*
G36*
G01*
X132317500Y-7472500D02*
X131842500Y-7472500D01*
G75*
G02*
X131605000Y-7235000I0J237500D01*
G01*
X131605000Y-6735000D01*
G75*
G02*
X131842500Y-6497500I237500J0D01*
G01*
X132317500Y-6497500D01*
G75*
G02*
X132555000Y-6735000I0J-237500D01*
G01*
X132555000Y-7235000D01*
G75*
G02*
X132317500Y-7472500I-237500J0D01*
G01*
G37*
%TD*%
%TO.C,R7*%
G36*
G01*
X114537500Y-7472500D02*
X114062500Y-7472500D01*
G75*
G02*
X113825000Y-7235000I0J237500D01*
G01*
X113825000Y-6735000D01*
G75*
G02*
X114062500Y-6497500I237500J0D01*
G01*
X114537500Y-6497500D01*
G75*
G02*
X114775000Y-6735000I0J-237500D01*
G01*
X114775000Y-7235000D01*
G75*
G02*
X114537500Y-7472500I-237500J0D01*
G01*
G37*
G36*
G01*
X114537500Y-9297500D02*
X114062500Y-9297500D01*
G75*
G02*
X113825000Y-9060000I0J237500D01*
G01*
X113825000Y-8560000D01*
G75*
G02*
X114062500Y-8322500I237500J0D01*
G01*
X114537500Y-8322500D01*
G75*
G02*
X114775000Y-8560000I0J-237500D01*
G01*
X114775000Y-9060000D01*
G75*
G02*
X114537500Y-9297500I-237500J0D01*
G01*
G37*
%TD*%
%TO.C,R6*%
G36*
G01*
X96757500Y-7472500D02*
X96282500Y-7472500D01*
G75*
G02*
X96045000Y-7235000I0J237500D01*
G01*
X96045000Y-6735000D01*
G75*
G02*
X96282500Y-6497500I237500J0D01*
G01*
X96757500Y-6497500D01*
G75*
G02*
X96995000Y-6735000I0J-237500D01*
G01*
X96995000Y-7235000D01*
G75*
G02*
X96757500Y-7472500I-237500J0D01*
G01*
G37*
G36*
G01*
X96757500Y-9297500D02*
X96282500Y-9297500D01*
G75*
G02*
X96045000Y-9060000I0J237500D01*
G01*
X96045000Y-8560000D01*
G75*
G02*
X96282500Y-8322500I237500J0D01*
G01*
X96757500Y-8322500D01*
G75*
G02*
X96995000Y-8560000I0J-237500D01*
G01*
X96995000Y-9060000D01*
G75*
G02*
X96757500Y-9297500I-237500J0D01*
G01*
G37*
%TD*%
%TO.C,R5*%
G36*
G01*
X78977500Y-7472500D02*
X78502500Y-7472500D01*
G75*
G02*
X78265000Y-7235000I0J237500D01*
G01*
X78265000Y-6735000D01*
G75*
G02*
X78502500Y-6497500I237500J0D01*
G01*
X78977500Y-6497500D01*
G75*
G02*
X79215000Y-6735000I0J-237500D01*
G01*
X79215000Y-7235000D01*
G75*
G02*
X78977500Y-7472500I-237500J0D01*
G01*
G37*
G36*
G01*
X78977500Y-9297500D02*
X78502500Y-9297500D01*
G75*
G02*
X78265000Y-9060000I0J237500D01*
G01*
X78265000Y-8560000D01*
G75*
G02*
X78502500Y-8322500I237500J0D01*
G01*
X78977500Y-8322500D01*
G75*
G02*
X79215000Y-8560000I0J-237500D01*
G01*
X79215000Y-9060000D01*
G75*
G02*
X78977500Y-9297500I-237500J0D01*
G01*
G37*
%TD*%
%TO.C,R4*%
G36*
G01*
X118982500Y-9297500D02*
X118507500Y-9297500D01*
G75*
G02*
X118270000Y-9060000I0J237500D01*
G01*
X118270000Y-8560000D01*
G75*
G02*
X118507500Y-8322500I237500J0D01*
G01*
X118982500Y-8322500D01*
G75*
G02*
X119220000Y-8560000I0J-237500D01*
G01*
X119220000Y-9060000D01*
G75*
G02*
X118982500Y-9297500I-237500J0D01*
G01*
G37*
G36*
G01*
X118982500Y-7472500D02*
X118507500Y-7472500D01*
G75*
G02*
X118270000Y-7235000I0J237500D01*
G01*
X118270000Y-6735000D01*
G75*
G02*
X118507500Y-6497500I237500J0D01*
G01*
X118982500Y-6497500D01*
G75*
G02*
X119220000Y-6735000I0J-237500D01*
G01*
X119220000Y-7235000D01*
G75*
G02*
X118982500Y-7472500I-237500J0D01*
G01*
G37*
%TD*%
%TO.C,R3*%
G36*
G01*
X101202500Y-7472500D02*
X100727500Y-7472500D01*
G75*
G02*
X100490000Y-7235000I0J237500D01*
G01*
X100490000Y-6735000D01*
G75*
G02*
X100727500Y-6497500I237500J0D01*
G01*
X101202500Y-6497500D01*
G75*
G02*
X101440000Y-6735000I0J-237500D01*
G01*
X101440000Y-7235000D01*
G75*
G02*
X101202500Y-7472500I-237500J0D01*
G01*
G37*
G36*
G01*
X101202500Y-9297500D02*
X100727500Y-9297500D01*
G75*
G02*
X100490000Y-9060000I0J237500D01*
G01*
X100490000Y-8560000D01*
G75*
G02*
X100727500Y-8322500I237500J0D01*
G01*
X101202500Y-8322500D01*
G75*
G02*
X101440000Y-8560000I0J-237500D01*
G01*
X101440000Y-9060000D01*
G75*
G02*
X101202500Y-9297500I-237500J0D01*
G01*
G37*
%TD*%
%TO.C,R2*%
G36*
G01*
X83422500Y-7472500D02*
X82947500Y-7472500D01*
G75*
G02*
X82710000Y-7235000I0J237500D01*
G01*
X82710000Y-6735000D01*
G75*
G02*
X82947500Y-6497500I237500J0D01*
G01*
X83422500Y-6497500D01*
G75*
G02*
X83660000Y-6735000I0J-237500D01*
G01*
X83660000Y-7235000D01*
G75*
G02*
X83422500Y-7472500I-237500J0D01*
G01*
G37*
G36*
G01*
X83422500Y-9297500D02*
X82947500Y-9297500D01*
G75*
G02*
X82710000Y-9060000I0J237500D01*
G01*
X82710000Y-8560000D01*
G75*
G02*
X82947500Y-8322500I237500J0D01*
G01*
X83422500Y-8322500D01*
G75*
G02*
X83660000Y-8560000I0J-237500D01*
G01*
X83660000Y-9060000D01*
G75*
G02*
X83422500Y-9297500I-237500J0D01*
G01*
G37*
%TD*%
%TO.C,R1*%
G36*
G01*
X65642500Y-7472500D02*
X65167500Y-7472500D01*
G75*
G02*
X64930000Y-7235000I0J237500D01*
G01*
X64930000Y-6735000D01*
G75*
G02*
X65167500Y-6497500I237500J0D01*
G01*
X65642500Y-6497500D01*
G75*
G02*
X65880000Y-6735000I0J-237500D01*
G01*
X65880000Y-7235000D01*
G75*
G02*
X65642500Y-7472500I-237500J0D01*
G01*
G37*
G36*
G01*
X65642500Y-9297500D02*
X65167500Y-9297500D01*
G75*
G02*
X64930000Y-9060000I0J237500D01*
G01*
X64930000Y-8560000D01*
G75*
G02*
X65167500Y-8322500I237500J0D01*
G01*
X65642500Y-8322500D01*
G75*
G02*
X65880000Y-8560000I0J-237500D01*
G01*
X65880000Y-9060000D01*
G75*
G02*
X65642500Y-9297500I-237500J0D01*
G01*
G37*
%TD*%
%TO.C,D34*%
G36*
G01*
X80247500Y-107205000D02*
X79772500Y-107205000D01*
G75*
G02*
X79535000Y-106967500I0J237500D01*
G01*
X79535000Y-106392500D01*
G75*
G02*
X79772500Y-106155000I237500J0D01*
G01*
X80247500Y-106155000D01*
G75*
G02*
X80485000Y-106392500I0J-237500D01*
G01*
X80485000Y-106967500D01*
G75*
G02*
X80247500Y-107205000I-237500J0D01*
G01*
G37*
G36*
G01*
X80247500Y-108955000D02*
X79772500Y-108955000D01*
G75*
G02*
X79535000Y-108717500I0J237500D01*
G01*
X79535000Y-108142500D01*
G75*
G02*
X79772500Y-107905000I237500J0D01*
G01*
X80247500Y-107905000D01*
G75*
G02*
X80485000Y-108142500I0J-237500D01*
G01*
X80485000Y-108717500D01*
G75*
G02*
X80247500Y-108955000I-237500J0D01*
G01*
G37*
%TD*%
%TO.C,D33*%
G36*
G01*
X55482500Y-107205000D02*
X55007500Y-107205000D01*
G75*
G02*
X54770000Y-106967500I0J237500D01*
G01*
X54770000Y-106392500D01*
G75*
G02*
X55007500Y-106155000I237500J0D01*
G01*
X55482500Y-106155000D01*
G75*
G02*
X55720000Y-106392500I0J-237500D01*
G01*
X55720000Y-106967500D01*
G75*
G02*
X55482500Y-107205000I-237500J0D01*
G01*
G37*
G36*
G01*
X55482500Y-108955000D02*
X55007500Y-108955000D01*
G75*
G02*
X54770000Y-108717500I0J237500D01*
G01*
X54770000Y-108142500D01*
G75*
G02*
X55007500Y-107905000I237500J0D01*
G01*
X55482500Y-107905000D01*
G75*
G02*
X55720000Y-108142500I0J-237500D01*
G01*
X55720000Y-108717500D01*
G75*
G02*
X55482500Y-108955000I-237500J0D01*
G01*
G37*
%TD*%
%TO.C,D23*%
G36*
G01*
X71992500Y-107205000D02*
X71517500Y-107205000D01*
G75*
G02*
X71280000Y-106967500I0J237500D01*
G01*
X71280000Y-106392500D01*
G75*
G02*
X71517500Y-106155000I237500J0D01*
G01*
X71992500Y-106155000D01*
G75*
G02*
X72230000Y-106392500I0J-237500D01*
G01*
X72230000Y-106967500D01*
G75*
G02*
X71992500Y-107205000I-237500J0D01*
G01*
G37*
G36*
G01*
X71992500Y-108955000D02*
X71517500Y-108955000D01*
G75*
G02*
X71280000Y-108717500I0J237500D01*
G01*
X71280000Y-108142500D01*
G75*
G02*
X71517500Y-107905000I237500J0D01*
G01*
X71992500Y-107905000D01*
G75*
G02*
X72230000Y-108142500I0J-237500D01*
G01*
X72230000Y-108717500D01*
G75*
G02*
X71992500Y-108955000I-237500J0D01*
G01*
G37*
%TD*%
%TO.C,D22*%
G36*
G01*
X47227500Y-107205000D02*
X46752500Y-107205000D01*
G75*
G02*
X46515000Y-106967500I0J237500D01*
G01*
X46515000Y-106392500D01*
G75*
G02*
X46752500Y-106155000I237500J0D01*
G01*
X47227500Y-106155000D01*
G75*
G02*
X47465000Y-106392500I0J-237500D01*
G01*
X47465000Y-106967500D01*
G75*
G02*
X47227500Y-107205000I-237500J0D01*
G01*
G37*
G36*
G01*
X47227500Y-108955000D02*
X46752500Y-108955000D01*
G75*
G02*
X46515000Y-108717500I0J237500D01*
G01*
X46515000Y-108142500D01*
G75*
G02*
X46752500Y-107905000I237500J0D01*
G01*
X47227500Y-107905000D01*
G75*
G02*
X47465000Y-108142500I0J-237500D01*
G01*
X47465000Y-108717500D01*
G75*
G02*
X47227500Y-108955000I-237500J0D01*
G01*
G37*
%TD*%
%TO.C,D21*%
G36*
G01*
X63737500Y-107205000D02*
X63262500Y-107205000D01*
G75*
G02*
X63025000Y-106967500I0J237500D01*
G01*
X63025000Y-106392500D01*
G75*
G02*
X63262500Y-106155000I237500J0D01*
G01*
X63737500Y-106155000D01*
G75*
G02*
X63975000Y-106392500I0J-237500D01*
G01*
X63975000Y-106967500D01*
G75*
G02*
X63737500Y-107205000I-237500J0D01*
G01*
G37*
G36*
G01*
X63737500Y-108955000D02*
X63262500Y-108955000D01*
G75*
G02*
X63025000Y-108717500I0J237500D01*
G01*
X63025000Y-108142500D01*
G75*
G02*
X63262500Y-107905000I237500J0D01*
G01*
X63737500Y-107905000D01*
G75*
G02*
X63975000Y-108142500I0J-237500D01*
G01*
X63975000Y-108717500D01*
G75*
G02*
X63737500Y-108955000I-237500J0D01*
G01*
G37*
%TD*%
%TO.C,D20*%
G36*
G01*
X38972500Y-107205000D02*
X38497500Y-107205000D01*
G75*
G02*
X38260000Y-106967500I0J237500D01*
G01*
X38260000Y-106392500D01*
G75*
G02*
X38497500Y-106155000I237500J0D01*
G01*
X38972500Y-106155000D01*
G75*
G02*
X39210000Y-106392500I0J-237500D01*
G01*
X39210000Y-106967500D01*
G75*
G02*
X38972500Y-107205000I-237500J0D01*
G01*
G37*
G36*
G01*
X38972500Y-108955000D02*
X38497500Y-108955000D01*
G75*
G02*
X38260000Y-108717500I0J237500D01*
G01*
X38260000Y-108142500D01*
G75*
G02*
X38497500Y-107905000I237500J0D01*
G01*
X38972500Y-107905000D01*
G75*
G02*
X39210000Y-108142500I0J-237500D01*
G01*
X39210000Y-108717500D01*
G75*
G02*
X38972500Y-108955000I-237500J0D01*
G01*
G37*
%TD*%
%TO.C,D19*%
G36*
G01*
X130572500Y-92185000D02*
X131047500Y-92185000D01*
G75*
G02*
X131285000Y-92422500I0J-237500D01*
G01*
X131285000Y-92997500D01*
G75*
G02*
X131047500Y-93235000I-237500J0D01*
G01*
X130572500Y-93235000D01*
G75*
G02*
X130335000Y-92997500I0J237500D01*
G01*
X130335000Y-92422500D01*
G75*
G02*
X130572500Y-92185000I237500J0D01*
G01*
G37*
G36*
G01*
X130572500Y-90435000D02*
X131047500Y-90435000D01*
G75*
G02*
X131285000Y-90672500I0J-237500D01*
G01*
X131285000Y-91247500D01*
G75*
G02*
X131047500Y-91485000I-237500J0D01*
G01*
X130572500Y-91485000D01*
G75*
G02*
X130335000Y-91247500I0J237500D01*
G01*
X130335000Y-90672500D01*
G75*
G02*
X130572500Y-90435000I237500J0D01*
G01*
G37*
%TD*%
%TO.C,D18*%
G36*
G01*
X132477500Y-92185000D02*
X132952500Y-92185000D01*
G75*
G02*
X133190000Y-92422500I0J-237500D01*
G01*
X133190000Y-92997500D01*
G75*
G02*
X132952500Y-93235000I-237500J0D01*
G01*
X132477500Y-93235000D01*
G75*
G02*
X132240000Y-92997500I0J237500D01*
G01*
X132240000Y-92422500D01*
G75*
G02*
X132477500Y-92185000I237500J0D01*
G01*
G37*
G36*
G01*
X132477500Y-90435000D02*
X132952500Y-90435000D01*
G75*
G02*
X133190000Y-90672500I0J-237500D01*
G01*
X133190000Y-91247500D01*
G75*
G02*
X132952500Y-91485000I-237500J0D01*
G01*
X132477500Y-91485000D01*
G75*
G02*
X132240000Y-91247500I0J237500D01*
G01*
X132240000Y-90672500D01*
G75*
G02*
X132477500Y-90435000I237500J0D01*
G01*
G37*
%TD*%
%TO.C,D16*%
G36*
G01*
X55990000Y-18652500D02*
X55990000Y-18177500D01*
G75*
G02*
X56227500Y-17940000I237500J0D01*
G01*
X56802500Y-17940000D01*
G75*
G02*
X57040000Y-18177500I0J-237500D01*
G01*
X57040000Y-18652500D01*
G75*
G02*
X56802500Y-18890000I-237500J0D01*
G01*
X56227500Y-18890000D01*
G75*
G02*
X55990000Y-18652500I0J237500D01*
G01*
G37*
G36*
G01*
X54240000Y-18652500D02*
X54240000Y-18177500D01*
G75*
G02*
X54477500Y-17940000I237500J0D01*
G01*
X55052500Y-17940000D01*
G75*
G02*
X55290000Y-18177500I0J-237500D01*
G01*
X55290000Y-18652500D01*
G75*
G02*
X55052500Y-18890000I-237500J0D01*
G01*
X54477500Y-18890000D01*
G75*
G02*
X54240000Y-18652500I0J237500D01*
G01*
G37*
%TD*%
%TO.C,D13*%
G36*
G01*
X55990000Y-7857500D02*
X55990000Y-7382500D01*
G75*
G02*
X56227500Y-7145000I237500J0D01*
G01*
X56802500Y-7145000D01*
G75*
G02*
X57040000Y-7382500I0J-237500D01*
G01*
X57040000Y-7857500D01*
G75*
G02*
X56802500Y-8095000I-237500J0D01*
G01*
X56227500Y-8095000D01*
G75*
G02*
X55990000Y-7857500I0J237500D01*
G01*
G37*
G36*
G01*
X54240000Y-7857500D02*
X54240000Y-7382500D01*
G75*
G02*
X54477500Y-7145000I237500J0D01*
G01*
X55052500Y-7145000D01*
G75*
G02*
X55290000Y-7382500I0J-237500D01*
G01*
X55290000Y-7857500D01*
G75*
G02*
X55052500Y-8095000I-237500J0D01*
G01*
X54477500Y-8095000D01*
G75*
G02*
X54240000Y-7857500I0J237500D01*
G01*
G37*
%TD*%
%TO.C,D15*%
G36*
G01*
X58182500Y17035000D02*
X58657500Y17035000D01*
G75*
G02*
X58895000Y16797500I0J-237500D01*
G01*
X58895000Y16222500D01*
G75*
G02*
X58657500Y15985000I-237500J0D01*
G01*
X58182500Y15985000D01*
G75*
G02*
X57945000Y16222500I0J237500D01*
G01*
X57945000Y16797500D01*
G75*
G02*
X58182500Y17035000I237500J0D01*
G01*
G37*
G36*
G01*
X58182500Y18785000D02*
X58657500Y18785000D01*
G75*
G02*
X58895000Y18547500I0J-237500D01*
G01*
X58895000Y17972500D01*
G75*
G02*
X58657500Y17735000I-237500J0D01*
G01*
X58182500Y17735000D01*
G75*
G02*
X57945000Y17972500I0J237500D01*
G01*
X57945000Y18547500D01*
G75*
G02*
X58182500Y18785000I237500J0D01*
G01*
G37*
%TD*%
%TO.C,D14*%
G36*
G01*
X58182500Y9415000D02*
X58657500Y9415000D01*
G75*
G02*
X58895000Y9177500I0J-237500D01*
G01*
X58895000Y8602500D01*
G75*
G02*
X58657500Y8365000I-237500J0D01*
G01*
X58182500Y8365000D01*
G75*
G02*
X57945000Y8602500I0J237500D01*
G01*
X57945000Y9177500D01*
G75*
G02*
X58182500Y9415000I237500J0D01*
G01*
G37*
G36*
G01*
X58182500Y11165000D02*
X58657500Y11165000D01*
G75*
G02*
X58895000Y10927500I0J-237500D01*
G01*
X58895000Y10352500D01*
G75*
G02*
X58657500Y10115000I-237500J0D01*
G01*
X58182500Y10115000D01*
G75*
G02*
X57945000Y10352500I0J237500D01*
G01*
X57945000Y10927500D01*
G75*
G02*
X58182500Y11165000I237500J0D01*
G01*
G37*
%TD*%
%TO.C,D8*%
G36*
G01*
X132317500Y-13225000D02*
X131842500Y-13225000D01*
G75*
G02*
X131605000Y-12987500I0J237500D01*
G01*
X131605000Y-12412500D01*
G75*
G02*
X131842500Y-12175000I237500J0D01*
G01*
X132317500Y-12175000D01*
G75*
G02*
X132555000Y-12412500I0J-237500D01*
G01*
X132555000Y-12987500D01*
G75*
G02*
X132317500Y-13225000I-237500J0D01*
G01*
G37*
G36*
G01*
X132317500Y-14975000D02*
X131842500Y-14975000D01*
G75*
G02*
X131605000Y-14737500I0J237500D01*
G01*
X131605000Y-14162500D01*
G75*
G02*
X131842500Y-13925000I237500J0D01*
G01*
X132317500Y-13925000D01*
G75*
G02*
X132555000Y-14162500I0J-237500D01*
G01*
X132555000Y-14737500D01*
G75*
G02*
X132317500Y-14975000I-237500J0D01*
G01*
G37*
%TD*%
%TO.C,D7*%
G36*
G01*
X114537500Y-13225000D02*
X114062500Y-13225000D01*
G75*
G02*
X113825000Y-12987500I0J237500D01*
G01*
X113825000Y-12412500D01*
G75*
G02*
X114062500Y-12175000I237500J0D01*
G01*
X114537500Y-12175000D01*
G75*
G02*
X114775000Y-12412500I0J-237500D01*
G01*
X114775000Y-12987500D01*
G75*
G02*
X114537500Y-13225000I-237500J0D01*
G01*
G37*
G36*
G01*
X114537500Y-14975000D02*
X114062500Y-14975000D01*
G75*
G02*
X113825000Y-14737500I0J237500D01*
G01*
X113825000Y-14162500D01*
G75*
G02*
X114062500Y-13925000I237500J0D01*
G01*
X114537500Y-13925000D01*
G75*
G02*
X114775000Y-14162500I0J-237500D01*
G01*
X114775000Y-14737500D01*
G75*
G02*
X114537500Y-14975000I-237500J0D01*
G01*
G37*
%TD*%
%TO.C,D6*%
G36*
G01*
X96757500Y-13225000D02*
X96282500Y-13225000D01*
G75*
G02*
X96045000Y-12987500I0J237500D01*
G01*
X96045000Y-12412500D01*
G75*
G02*
X96282500Y-12175000I237500J0D01*
G01*
X96757500Y-12175000D01*
G75*
G02*
X96995000Y-12412500I0J-237500D01*
G01*
X96995000Y-12987500D01*
G75*
G02*
X96757500Y-13225000I-237500J0D01*
G01*
G37*
G36*
G01*
X96757500Y-14975000D02*
X96282500Y-14975000D01*
G75*
G02*
X96045000Y-14737500I0J237500D01*
G01*
X96045000Y-14162500D01*
G75*
G02*
X96282500Y-13925000I237500J0D01*
G01*
X96757500Y-13925000D01*
G75*
G02*
X96995000Y-14162500I0J-237500D01*
G01*
X96995000Y-14737500D01*
G75*
G02*
X96757500Y-14975000I-237500J0D01*
G01*
G37*
%TD*%
%TO.C,D5*%
G36*
G01*
X78977500Y-13225000D02*
X78502500Y-13225000D01*
G75*
G02*
X78265000Y-12987500I0J237500D01*
G01*
X78265000Y-12412500D01*
G75*
G02*
X78502500Y-12175000I237500J0D01*
G01*
X78977500Y-12175000D01*
G75*
G02*
X79215000Y-12412500I0J-237500D01*
G01*
X79215000Y-12987500D01*
G75*
G02*
X78977500Y-13225000I-237500J0D01*
G01*
G37*
G36*
G01*
X78977500Y-14975000D02*
X78502500Y-14975000D01*
G75*
G02*
X78265000Y-14737500I0J237500D01*
G01*
X78265000Y-14162500D01*
G75*
G02*
X78502500Y-13925000I237500J0D01*
G01*
X78977500Y-13925000D01*
G75*
G02*
X79215000Y-14162500I0J-237500D01*
G01*
X79215000Y-14737500D01*
G75*
G02*
X78977500Y-14975000I-237500J0D01*
G01*
G37*
%TD*%
%TO.C,D4*%
G36*
G01*
X118982500Y-13225000D02*
X118507500Y-13225000D01*
G75*
G02*
X118270000Y-12987500I0J237500D01*
G01*
X118270000Y-12412500D01*
G75*
G02*
X118507500Y-12175000I237500J0D01*
G01*
X118982500Y-12175000D01*
G75*
G02*
X119220000Y-12412500I0J-237500D01*
G01*
X119220000Y-12987500D01*
G75*
G02*
X118982500Y-13225000I-237500J0D01*
G01*
G37*
G36*
G01*
X118982500Y-14975000D02*
X118507500Y-14975000D01*
G75*
G02*
X118270000Y-14737500I0J237500D01*
G01*
X118270000Y-14162500D01*
G75*
G02*
X118507500Y-13925000I237500J0D01*
G01*
X118982500Y-13925000D01*
G75*
G02*
X119220000Y-14162500I0J-237500D01*
G01*
X119220000Y-14737500D01*
G75*
G02*
X118982500Y-14975000I-237500J0D01*
G01*
G37*
%TD*%
%TO.C,D3*%
G36*
G01*
X101202500Y-13225000D02*
X100727500Y-13225000D01*
G75*
G02*
X100490000Y-12987500I0J237500D01*
G01*
X100490000Y-12412500D01*
G75*
G02*
X100727500Y-12175000I237500J0D01*
G01*
X101202500Y-12175000D01*
G75*
G02*
X101440000Y-12412500I0J-237500D01*
G01*
X101440000Y-12987500D01*
G75*
G02*
X101202500Y-13225000I-237500J0D01*
G01*
G37*
G36*
G01*
X101202500Y-14975000D02*
X100727500Y-14975000D01*
G75*
G02*
X100490000Y-14737500I0J237500D01*
G01*
X100490000Y-14162500D01*
G75*
G02*
X100727500Y-13925000I237500J0D01*
G01*
X101202500Y-13925000D01*
G75*
G02*
X101440000Y-14162500I0J-237500D01*
G01*
X101440000Y-14737500D01*
G75*
G02*
X101202500Y-14975000I-237500J0D01*
G01*
G37*
%TD*%
%TO.C,D2*%
G36*
G01*
X83422500Y-13225000D02*
X82947500Y-13225000D01*
G75*
G02*
X82710000Y-12987500I0J237500D01*
G01*
X82710000Y-12412500D01*
G75*
G02*
X82947500Y-12175000I237500J0D01*
G01*
X83422500Y-12175000D01*
G75*
G02*
X83660000Y-12412500I0J-237500D01*
G01*
X83660000Y-12987500D01*
G75*
G02*
X83422500Y-13225000I-237500J0D01*
G01*
G37*
G36*
G01*
X83422500Y-14975000D02*
X82947500Y-14975000D01*
G75*
G02*
X82710000Y-14737500I0J237500D01*
G01*
X82710000Y-14162500D01*
G75*
G02*
X82947500Y-13925000I237500J0D01*
G01*
X83422500Y-13925000D01*
G75*
G02*
X83660000Y-14162500I0J-237500D01*
G01*
X83660000Y-14737500D01*
G75*
G02*
X83422500Y-14975000I-237500J0D01*
G01*
G37*
%TD*%
%TO.C,D1*%
G36*
G01*
X65642500Y-13225000D02*
X65167500Y-13225000D01*
G75*
G02*
X64930000Y-12987500I0J237500D01*
G01*
X64930000Y-12412500D01*
G75*
G02*
X65167500Y-12175000I237500J0D01*
G01*
X65642500Y-12175000D01*
G75*
G02*
X65880000Y-12412500I0J-237500D01*
G01*
X65880000Y-12987500D01*
G75*
G02*
X65642500Y-13225000I-237500J0D01*
G01*
G37*
G36*
G01*
X65642500Y-14975000D02*
X65167500Y-14975000D01*
G75*
G02*
X64930000Y-14737500I0J237500D01*
G01*
X64930000Y-14162500D01*
G75*
G02*
X65167500Y-13925000I237500J0D01*
G01*
X65642500Y-13925000D01*
G75*
G02*
X65880000Y-14162500I0J-237500D01*
G01*
X65880000Y-14737500D01*
G75*
G02*
X65642500Y-14975000I-237500J0D01*
G01*
G37*
%TD*%
%TO.C,C12*%
G36*
G01*
X52942500Y-19132500D02*
X52467500Y-19132500D01*
G75*
G02*
X52230000Y-18895000I0J237500D01*
G01*
X52230000Y-18295000D01*
G75*
G02*
X52467500Y-18057500I237500J0D01*
G01*
X52942500Y-18057500D01*
G75*
G02*
X53180000Y-18295000I0J-237500D01*
G01*
X53180000Y-18895000D01*
G75*
G02*
X52942500Y-19132500I-237500J0D01*
G01*
G37*
G36*
G01*
X52942500Y-20857500D02*
X52467500Y-20857500D01*
G75*
G02*
X52230000Y-20620000I0J237500D01*
G01*
X52230000Y-20020000D01*
G75*
G02*
X52467500Y-19782500I237500J0D01*
G01*
X52942500Y-19782500D01*
G75*
G02*
X53180000Y-20020000I0J-237500D01*
G01*
X53180000Y-20620000D01*
G75*
G02*
X52942500Y-20857500I-237500J0D01*
G01*
G37*
%TD*%
%TO.C,C11*%
G36*
G01*
X52467500Y-16427500D02*
X52942500Y-16427500D01*
G75*
G02*
X53180000Y-16665000I0J-237500D01*
G01*
X53180000Y-17265000D01*
G75*
G02*
X52942500Y-17502500I-237500J0D01*
G01*
X52467500Y-17502500D01*
G75*
G02*
X52230000Y-17265000I0J237500D01*
G01*
X52230000Y-16665000D01*
G75*
G02*
X52467500Y-16427500I237500J0D01*
G01*
G37*
G36*
G01*
X52467500Y-14702500D02*
X52942500Y-14702500D01*
G75*
G02*
X53180000Y-14940000I0J-237500D01*
G01*
X53180000Y-15540000D01*
G75*
G02*
X52942500Y-15777500I-237500J0D01*
G01*
X52467500Y-15777500D01*
G75*
G02*
X52230000Y-15540000I0J237500D01*
G01*
X52230000Y-14940000D01*
G75*
G02*
X52467500Y-14702500I237500J0D01*
G01*
G37*
%TD*%
%TO.C,C10*%
G36*
G01*
X52942500Y-8337500D02*
X52467500Y-8337500D01*
G75*
G02*
X52230000Y-8100000I0J237500D01*
G01*
X52230000Y-7500000D01*
G75*
G02*
X52467500Y-7262500I237500J0D01*
G01*
X52942500Y-7262500D01*
G75*
G02*
X53180000Y-7500000I0J-237500D01*
G01*
X53180000Y-8100000D01*
G75*
G02*
X52942500Y-8337500I-237500J0D01*
G01*
G37*
G36*
G01*
X52942500Y-10062500D02*
X52467500Y-10062500D01*
G75*
G02*
X52230000Y-9825000I0J237500D01*
G01*
X52230000Y-9225000D01*
G75*
G02*
X52467500Y-8987500I237500J0D01*
G01*
X52942500Y-8987500D01*
G75*
G02*
X53180000Y-9225000I0J-237500D01*
G01*
X53180000Y-9825000D01*
G75*
G02*
X52942500Y-10062500I-237500J0D01*
G01*
G37*
%TD*%
%TO.C,C9*%
G36*
G01*
X52467500Y-5632500D02*
X52942500Y-5632500D01*
G75*
G02*
X53180000Y-5870000I0J-237500D01*
G01*
X53180000Y-6470000D01*
G75*
G02*
X52942500Y-6707500I-237500J0D01*
G01*
X52467500Y-6707500D01*
G75*
G02*
X52230000Y-6470000I0J237500D01*
G01*
X52230000Y-5870000D01*
G75*
G02*
X52467500Y-5632500I237500J0D01*
G01*
G37*
G36*
G01*
X52467500Y-3907500D02*
X52942500Y-3907500D01*
G75*
G02*
X53180000Y-4145000I0J-237500D01*
G01*
X53180000Y-4745000D01*
G75*
G02*
X52942500Y-4982500I-237500J0D01*
G01*
X52467500Y-4982500D01*
G75*
G02*
X52230000Y-4745000I0J237500D01*
G01*
X52230000Y-4145000D01*
G75*
G02*
X52467500Y-3907500I237500J0D01*
G01*
G37*
%TD*%
%TO.C,C8*%
G36*
G01*
X120412500Y-8172500D02*
X120887500Y-8172500D01*
G75*
G02*
X121125000Y-8410000I0J-237500D01*
G01*
X121125000Y-9010000D01*
G75*
G02*
X120887500Y-9247500I-237500J0D01*
G01*
X120412500Y-9247500D01*
G75*
G02*
X120175000Y-9010000I0J237500D01*
G01*
X120175000Y-8410000D01*
G75*
G02*
X120412500Y-8172500I237500J0D01*
G01*
G37*
G36*
G01*
X120412500Y-6447500D02*
X120887500Y-6447500D01*
G75*
G02*
X121125000Y-6685000I0J-237500D01*
G01*
X121125000Y-7285000D01*
G75*
G02*
X120887500Y-7522500I-237500J0D01*
G01*
X120412500Y-7522500D01*
G75*
G02*
X120175000Y-7285000I0J237500D01*
G01*
X120175000Y-6685000D01*
G75*
G02*
X120412500Y-6447500I237500J0D01*
G01*
G37*
%TD*%
%TO.C,C7*%
G36*
G01*
X102632500Y-8172500D02*
X103107500Y-8172500D01*
G75*
G02*
X103345000Y-8410000I0J-237500D01*
G01*
X103345000Y-9010000D01*
G75*
G02*
X103107500Y-9247500I-237500J0D01*
G01*
X102632500Y-9247500D01*
G75*
G02*
X102395000Y-9010000I0J237500D01*
G01*
X102395000Y-8410000D01*
G75*
G02*
X102632500Y-8172500I237500J0D01*
G01*
G37*
G36*
G01*
X102632500Y-6447500D02*
X103107500Y-6447500D01*
G75*
G02*
X103345000Y-6685000I0J-237500D01*
G01*
X103345000Y-7285000D01*
G75*
G02*
X103107500Y-7522500I-237500J0D01*
G01*
X102632500Y-7522500D01*
G75*
G02*
X102395000Y-7285000I0J237500D01*
G01*
X102395000Y-6685000D01*
G75*
G02*
X102632500Y-6447500I237500J0D01*
G01*
G37*
%TD*%
%TO.C,C6*%
G36*
G01*
X84852500Y-8172500D02*
X85327500Y-8172500D01*
G75*
G02*
X85565000Y-8410000I0J-237500D01*
G01*
X85565000Y-9010000D01*
G75*
G02*
X85327500Y-9247500I-237500J0D01*
G01*
X84852500Y-9247500D01*
G75*
G02*
X84615000Y-9010000I0J237500D01*
G01*
X84615000Y-8410000D01*
G75*
G02*
X84852500Y-8172500I237500J0D01*
G01*
G37*
G36*
G01*
X84852500Y-6447500D02*
X85327500Y-6447500D01*
G75*
G02*
X85565000Y-6685000I0J-237500D01*
G01*
X85565000Y-7285000D01*
G75*
G02*
X85327500Y-7522500I-237500J0D01*
G01*
X84852500Y-7522500D01*
G75*
G02*
X84615000Y-7285000I0J237500D01*
G01*
X84615000Y-6685000D01*
G75*
G02*
X84852500Y-6447500I237500J0D01*
G01*
G37*
%TD*%
%TO.C,C5*%
G36*
G01*
X67072500Y-8172500D02*
X67547500Y-8172500D01*
G75*
G02*
X67785000Y-8410000I0J-237500D01*
G01*
X67785000Y-9010000D01*
G75*
G02*
X67547500Y-9247500I-237500J0D01*
G01*
X67072500Y-9247500D01*
G75*
G02*
X66835000Y-9010000I0J237500D01*
G01*
X66835000Y-8410000D01*
G75*
G02*
X67072500Y-8172500I237500J0D01*
G01*
G37*
G36*
G01*
X67072500Y-6447500D02*
X67547500Y-6447500D01*
G75*
G02*
X67785000Y-6685000I0J-237500D01*
G01*
X67785000Y-7285000D01*
G75*
G02*
X67547500Y-7522500I-237500J0D01*
G01*
X67072500Y-7522500D01*
G75*
G02*
X66835000Y-7285000I0J237500D01*
G01*
X66835000Y-6685000D01*
G75*
G02*
X67072500Y-6447500I237500J0D01*
G01*
G37*
%TD*%
%TO.C,C4*%
G36*
G01*
X52622500Y-87867500D02*
X52622500Y-87392500D01*
G75*
G02*
X52860000Y-87155000I237500J0D01*
G01*
X53460000Y-87155000D01*
G75*
G02*
X53697500Y-87392500I0J-237500D01*
G01*
X53697500Y-87867500D01*
G75*
G02*
X53460000Y-88105000I-237500J0D01*
G01*
X52860000Y-88105000D01*
G75*
G02*
X52622500Y-87867500I0J237500D01*
G01*
G37*
G36*
G01*
X50897500Y-87867500D02*
X50897500Y-87392500D01*
G75*
G02*
X51135000Y-87155000I237500J0D01*
G01*
X51735000Y-87155000D01*
G75*
G02*
X51972500Y-87392500I0J-237500D01*
G01*
X51972500Y-87867500D01*
G75*
G02*
X51735000Y-88105000I-237500J0D01*
G01*
X51135000Y-88105000D01*
G75*
G02*
X50897500Y-87867500I0J237500D01*
G01*
G37*
%TD*%
%TO.C,C3*%
G36*
G01*
X48812500Y-87867500D02*
X48812500Y-87392500D01*
G75*
G02*
X49050000Y-87155000I237500J0D01*
G01*
X49650000Y-87155000D01*
G75*
G02*
X49887500Y-87392500I0J-237500D01*
G01*
X49887500Y-87867500D01*
G75*
G02*
X49650000Y-88105000I-237500J0D01*
G01*
X49050000Y-88105000D01*
G75*
G02*
X48812500Y-87867500I0J237500D01*
G01*
G37*
G36*
G01*
X47087500Y-87867500D02*
X47087500Y-87392500D01*
G75*
G02*
X47325000Y-87155000I237500J0D01*
G01*
X47925000Y-87155000D01*
G75*
G02*
X48162500Y-87392500I0J-237500D01*
G01*
X48162500Y-87867500D01*
G75*
G02*
X47925000Y-88105000I-237500J0D01*
G01*
X47325000Y-88105000D01*
G75*
G02*
X47087500Y-87867500I0J237500D01*
G01*
G37*
%TD*%
%TO.C,C2*%
G36*
G01*
X45002500Y-87867500D02*
X45002500Y-87392500D01*
G75*
G02*
X45240000Y-87155000I237500J0D01*
G01*
X45840000Y-87155000D01*
G75*
G02*
X46077500Y-87392500I0J-237500D01*
G01*
X46077500Y-87867500D01*
G75*
G02*
X45840000Y-88105000I-237500J0D01*
G01*
X45240000Y-88105000D01*
G75*
G02*
X45002500Y-87867500I0J237500D01*
G01*
G37*
G36*
G01*
X43277500Y-87867500D02*
X43277500Y-87392500D01*
G75*
G02*
X43515000Y-87155000I237500J0D01*
G01*
X44115000Y-87155000D01*
G75*
G02*
X44352500Y-87392500I0J-237500D01*
G01*
X44352500Y-87867500D01*
G75*
G02*
X44115000Y-88105000I-237500J0D01*
G01*
X43515000Y-88105000D01*
G75*
G02*
X43277500Y-87867500I0J237500D01*
G01*
G37*
%TD*%
%TO.C,C1*%
G36*
G01*
X41192500Y-87867500D02*
X41192500Y-87392500D01*
G75*
G02*
X41430000Y-87155000I237500J0D01*
G01*
X42030000Y-87155000D01*
G75*
G02*
X42267500Y-87392500I0J-237500D01*
G01*
X42267500Y-87867500D01*
G75*
G02*
X42030000Y-88105000I-237500J0D01*
G01*
X41430000Y-88105000D01*
G75*
G02*
X41192500Y-87867500I0J237500D01*
G01*
G37*
G36*
G01*
X39467500Y-87867500D02*
X39467500Y-87392500D01*
G75*
G02*
X39705000Y-87155000I237500J0D01*
G01*
X40305000Y-87155000D01*
G75*
G02*
X40542500Y-87392500I0J-237500D01*
G01*
X40542500Y-87867500D01*
G75*
G02*
X40305000Y-88105000I-237500J0D01*
G01*
X39705000Y-88105000D01*
G75*
G02*
X39467500Y-87867500I0J237500D01*
G01*
G37*
%TD*%
M02*
