%TF.GenerationSoftware,KiCad,Pcbnew,(5.1.10)-1*%
%TF.CreationDate,2021-12-26T20:54:27-06:00*%
%TF.ProjectId,ScienceMotorController,53636965-6e63-4654-9d6f-746f72436f6e,rev?*%
%TF.SameCoordinates,Original*%
%TF.FileFunction,Soldermask,Bot*%
%TF.FilePolarity,Negative*%
%FSLAX46Y46*%
G04 Gerber Fmt 4.6, Leading zero omitted, Abs format (unit mm)*
G04 Created by KiCad (PCBNEW (5.1.10)-1) date 2021-12-26 20:54:27*
%MOMM*%
%LPD*%
G01*
G04 APERTURE LIST*
%ADD10C,3.046400*%
%ADD11C,1.620000*%
%ADD12C,1.624000*%
%ADD13C,5.180000*%
G04 APERTURE END LIST*
D10*
%TO.C,REF\u002A\u002A*%
X34726880Y-180538120D03*
%TD*%
%TO.C,REF\u002A\u002A*%
X151201120Y-180665120D03*
%TD*%
%TO.C,REF\u002A\u002A*%
X151201120Y-80192880D03*
%TD*%
%TO.C,REF\u002A\u002A*%
X34726880Y-80192880D03*
%TD*%
D11*
%TO.C,U9*%
X95504000Y-157988000D03*
X118364000Y-112268000D03*
X115824000Y-112268000D03*
X108204000Y-112268000D03*
X105664000Y-155448000D03*
X110744000Y-112268000D03*
X113284000Y-112268000D03*
X110744000Y-157988000D03*
X115824000Y-155448000D03*
X105664000Y-112268000D03*
X103124000Y-112268000D03*
X115824000Y-157988000D03*
X110744000Y-155448000D03*
X108204000Y-155448000D03*
X95504000Y-155448000D03*
X98044000Y-155448000D03*
X100584000Y-155448000D03*
X103124000Y-155448000D03*
X113284000Y-155448000D03*
X118364000Y-155448000D03*
X98044000Y-157988000D03*
X100584000Y-157988000D03*
X103124000Y-157988000D03*
X105664000Y-157988000D03*
X108204000Y-157988000D03*
X113284000Y-157988000D03*
X118364000Y-157988000D03*
X95504000Y-114808000D03*
X98044000Y-114808000D03*
X100584000Y-114808000D03*
X103124000Y-114808000D03*
X105664000Y-114808000D03*
X108204000Y-114808000D03*
X110744000Y-114808000D03*
X113284000Y-114808000D03*
X115824000Y-114808000D03*
X118364000Y-114808000D03*
X95504000Y-112268000D03*
X98044000Y-112268000D03*
X100584000Y-112268000D03*
X32004000Y-155448000D03*
X34544000Y-155448000D03*
X37084000Y-155448000D03*
X39624000Y-155448000D03*
X42164000Y-155448000D03*
X44704000Y-155448000D03*
X47244000Y-155448000D03*
X49784000Y-155448000D03*
X52324000Y-155448000D03*
X54864000Y-155448000D03*
X32004000Y-157988000D03*
X34544000Y-157988000D03*
X37084000Y-157988000D03*
X39624000Y-157988000D03*
X42164000Y-157988000D03*
X44704000Y-157988000D03*
X47244000Y-157988000D03*
X49784000Y-157988000D03*
X52324000Y-157988000D03*
X54864000Y-157988000D03*
X32004000Y-114808000D03*
X34544000Y-114808000D03*
X37084000Y-114808000D03*
X39624000Y-114808000D03*
X42164000Y-114808000D03*
X44704000Y-114808000D03*
X47244000Y-114808000D03*
X49784000Y-114808000D03*
X52324000Y-114808000D03*
X54864000Y-114808000D03*
X32004000Y-112268000D03*
X34544000Y-112268000D03*
X37084000Y-112268000D03*
X39624000Y-112268000D03*
X42164000Y-112268000D03*
X44704000Y-112268000D03*
X47244000Y-112268000D03*
X49784000Y-112268000D03*
X52324000Y-112268000D03*
X54864000Y-112268000D03*
%TD*%
D12*
%TO.C,Encoder1*%
X78486000Y-165354000D03*
X81026000Y-165354000D03*
X83566000Y-165354000D03*
%TD*%
%TO.C,Encoder2*%
X89408000Y-165354000D03*
X91948000Y-165354000D03*
X94488000Y-165354000D03*
%TD*%
%TO.C,Encoder3*%
X105410000Y-165354000D03*
X102870000Y-165354000D03*
X100330000Y-165354000D03*
%TD*%
%TO.C,Encoder4*%
X78486000Y-171450000D03*
X81026000Y-171450000D03*
X83566000Y-171450000D03*
%TD*%
%TO.C,Encoder5*%
X89408000Y-171450000D03*
X91948000Y-171450000D03*
X94488000Y-171450000D03*
%TD*%
D13*
%TO.C,Conn1*%
X43434000Y-88036400D03*
X51308000Y-88036400D03*
%TD*%
%TO.C,Conn2*%
X142494000Y-88036400D03*
X134620000Y-88036400D03*
%TD*%
%TO.C,Conn3*%
X79908400Y-88036400D03*
X87782400Y-88036400D03*
%TD*%
%TO.C,Conn4*%
X106019600Y-88036400D03*
X98145600Y-88036400D03*
%TD*%
%TO.C,Conn5*%
X116382800Y-88036400D03*
X124256800Y-88036400D03*
%TD*%
%TO.C,Conn6*%
X69545200Y-88036400D03*
X61671200Y-88036400D03*
%TD*%
%TO.C,Conn7*%
X48768000Y-136398000D03*
X48768000Y-128524000D03*
X48768000Y-120650000D03*
%TD*%
D12*
%TO.C,SW1*%
X56896000Y-165354000D03*
X54356000Y-165354000D03*
%TD*%
%TO.C,SW2*%
X65024000Y-165354000D03*
X62484000Y-165354000D03*
%TD*%
%TO.C,SW3*%
X70612000Y-165354000D03*
X73152000Y-165354000D03*
%TD*%
%TO.C,SW4*%
X56642000Y-171450000D03*
X54102000Y-171450000D03*
%TD*%
%TO.C,SW5*%
X64770000Y-171450000D03*
X62230000Y-171450000D03*
%TD*%
%TO.C,SW6*%
X70358000Y-171450000D03*
X72898000Y-171450000D03*
%TD*%
%TO.C,Servo1*%
X125222000Y-151384000D03*
X125222000Y-153924000D03*
X125222000Y-156464000D03*
%TD*%
%TO.C,Servo2*%
X131318000Y-151384000D03*
X131318000Y-153924000D03*
X131318000Y-156464000D03*
%TD*%
%TO.C,SolValve1*%
X78486000Y-147066000D03*
X75946000Y-147066000D03*
%TD*%
%TO.C,SolValve2*%
X93218000Y-147066000D03*
X90678000Y-147066000D03*
%TD*%
%TO.C,SolValve3*%
X107950000Y-147066000D03*
X105410000Y-147066000D03*
%TD*%
%TO.C,U2*%
X46990000Y-149860000D03*
X46990000Y-147320000D03*
X46990000Y-144780000D03*
%TD*%
%TO.C,U3*%
X46990000Y-168402000D03*
X46990000Y-165862000D03*
X46990000Y-163322000D03*
%TD*%
%TO.C,U4*%
X127000000Y-139446000D03*
X127000000Y-141986000D03*
X127000000Y-144526000D03*
%TD*%
D13*
%TO.C,Conn8*%
X137160000Y-117856000D03*
X137160000Y-125730000D03*
X137160000Y-133604000D03*
%TD*%
M02*
