M48
; DRILL file {KiCad (5.1.10)-1} date 03/11/22 21:03:20
; FORMAT={-:-/ absolute / inch / decimal}
; #@! TF.CreationDate,2022-03-11T21:03:20-06:00
; #@! TF.GenerationSoftware,Kicad,Pcbnew,(5.1.10)-1
; #@! TF.FileFunction,Plated,1,2,PTH
FMAT,2
INCH
T1C0.0157
T2C0.0350
T3C0.0354
T4C0.0394
T5C0.0787
%
G90
G05
T1
X1.4Y0.5
X1.4Y0.3
X1.4Y0.1
X1.4Y-0.1
X1.4Y-0.3
X1.4Y-0.5
X1.4Y-0.7
X1.5Y-4.1
X1.525Y-4.325
X1.6Y0.5
X1.6Y0.3
X1.6Y0.1
X1.6Y-0.1
X1.6Y-0.3
X1.6Y-0.5
X1.6Y-0.7
X1.6Y-0.9
X1.6Y-1.1
X1.6Y-1.3
X1.6Y-1.5
X1.6Y-1.7
X1.6Y-1.9
X1.6Y-2.5
X1.6Y-2.7
X1.6Y-2.9
X1.6Y-3.1
X1.645Y-3.51
X1.7Y-4.1
X1.795Y-3.51
X1.8Y0.5
X1.8Y0.3
X1.8Y0.1
X1.8Y-0.1
X1.8Y-0.3
X1.8Y-0.5
X1.8Y-0.7
X1.8Y-0.9
X1.8Y-1.1
X1.8Y-1.3
X1.8Y-1.5
X1.8Y-1.7
X1.8Y-1.9
X1.8Y-2.5
X1.8Y-2.7
X1.8Y-2.9
X1.8Y-3.1
X1.8Y-4.7
X1.8Y-4.9
X1.8439Y-0.375
X1.85Y-4.325
X1.945Y-3.51
X2.0Y-0.1
X2.0Y-0.5
X2.0Y-0.9
X2.0Y-1.3
X2.0Y-1.5
X2.0Y-1.7
X2.0Y-1.9
X2.0Y-2.5
X2.0Y-2.7
X2.0Y-2.9
X2.0Y-3.1
X2.0Y-4.7
X2.0Y-4.9
X2.175Y-4.325
X2.2Y-0.1
X2.2Y-0.5
X2.2Y-0.9
X2.2Y-1.1
X2.2Y-1.3
X2.2Y-1.5
X2.2Y-1.7
X2.2Y-1.9
X2.2Y-2.5
X2.2Y-2.7
X2.2Y-2.9
X2.2Y-3.1
X2.2Y-3.3
X2.2Y-3.5
X2.2Y-3.7
X2.2Y-4.7
X2.2Y-4.9
X2.4Y0.1
X2.4Y-0.1
X2.4Y-0.3
X2.4Y-0.5
X2.4Y-0.7
X2.4Y-0.9
X2.4Y-1.1
X2.4Y-1.3
X2.4Y-1.5
X2.4Y-1.7
X2.4Y-1.9
X2.4Y-2.5
X2.4Y-2.7
X2.4Y-2.9
X2.4Y-3.1
X2.4Y-3.3
X2.4Y-3.5
X2.4Y-3.7
X2.4Y-4.7
X2.4Y-4.9
X2.5Y-4.325
X2.5439Y-0.4
X2.6Y-0.7
X2.6Y-1.1
X2.6Y-1.3
X2.6Y-1.5
X2.6Y-1.7
X2.6Y-1.9
X2.6Y-2.175
X2.6Y-2.5
X2.6Y-2.7
X2.6Y-2.9
X2.6Y-3.1
X2.6Y-3.3
X2.6Y-3.5
X2.6Y-3.9
X2.6Y-4.7
X2.6Y-4.9
X2.65Y-0.45
X2.675Y0.15
X2.675Y0.1
X2.675Y0.05
X2.675Y0.0
X2.725Y0.15
X2.725Y0.1
X2.725Y0.05
X2.725Y0.0
X2.725Y-3.1439
X2.725Y-3.2811
X2.775Y0.15
X2.775Y0.1
X2.775Y0.05
X2.775Y0.0
X2.775Y-0.5
X2.775Y-0.7
X2.775Y-0.9
X2.775Y-3.1439
X2.775Y-3.2811
X2.8Y-0.4
X2.8Y-2.275
X2.8Y-3.7
X2.8Y-3.9
X2.8Y-4.7
X2.8Y-4.9
X2.81Y-2.5
X2.81Y-2.7
X2.81Y-2.9
X2.81Y-3.1
X2.8189Y-2.05
X2.825Y0.15
X2.825Y0.1
X2.825Y0.05
X2.825Y0.0
X2.825Y-4.325
X2.85Y-3.375
X2.8689Y-2.225
X2.875Y0.15
X2.875Y0.1
X2.875Y0.05
X2.875Y0.0
X2.8939Y-2.4061
X2.9189Y-2.5
X2.925Y0.15
X2.925Y0.1
X2.925Y0.05
X2.925Y0.0
X2.95Y-0.4
X2.975Y0.15
X2.975Y0.1
X2.975Y0.05
X2.975Y0.0
X2.9811Y-2.4061
X2.9939Y-2.325
X3.0Y-0.5
X3.0Y-0.7
X3.0Y-0.9
X3.0Y-2.9
X3.0Y-3.1
X3.0Y-3.3
X3.0Y-3.5
X3.0Y-3.7
X3.0Y-3.9
X3.0Y-4.1
X3.0Y-4.7
X3.0Y-4.9
X3.025Y0.15
X3.025Y0.1
X3.025Y0.05
X3.025Y0.0
X3.025Y-2.475
X3.025Y-2.6
X3.0811Y-2.35
X3.1Y-2.525
X3.1311Y-2.25
X3.15Y-4.325
X3.1811Y-2.6
X3.2Y-0.5
X3.2Y-0.7
X3.2Y-2.725
X3.2Y-2.9
X3.2Y-3.1
X3.2Y-3.3
X3.2Y-3.5
X3.2Y-3.7
X3.2Y-3.9
X3.2Y-4.7
X3.2Y-4.9
X3.225Y-1.3
X3.225Y-1.5
X3.225Y-1.7
X3.225Y-1.9
X3.225Y-2.1
X3.225Y-2.3
X3.325Y-1.775
X3.35Y-0.45
X3.375Y0.15
X3.375Y0.1
X3.375Y0.05
X3.375Y0.0
X3.4Y-1.1
X3.4Y-2.1
X3.4Y-2.3
X3.4Y-2.5
X3.4Y-2.725
X3.4Y-2.9
X3.4Y-3.1
X3.4Y-3.3
X3.4Y-3.5
X3.4Y-3.7
X3.4Y-3.9
X3.4Y-4.1
X3.4Y-4.3
X3.4Y-4.7
X3.4Y-4.9
X3.425Y0.15
X3.425Y0.1
X3.425Y0.05
X3.425Y0.0
X3.475Y0.15
X3.475Y0.1
X3.475Y0.05
X3.475Y0.0
X3.5Y-0.4
X3.525Y0.15
X3.525Y0.1
X3.525Y0.05
X3.525Y0.0
X3.575Y0.15
X3.575Y0.1
X3.575Y0.05
X3.575Y0.0
X3.6Y-0.9
X3.6Y-1.1
X3.6Y-2.1
X3.6Y-2.3
X3.6Y-2.5
X3.6Y-2.725
X3.6Y-2.9
X3.6Y-3.1
X3.6Y-3.3
X3.6Y-3.5
X3.6Y-3.7
X3.6Y-3.9
X3.6Y-4.1
X3.6Y-4.3
X3.6Y-4.7
X3.6Y-4.9
X3.625Y0.15
X3.625Y0.1
X3.625Y0.05
X3.625Y0.0
X3.65Y-0.4
X3.65Y-1.775
X3.675Y0.15
X3.675Y0.1
X3.675Y0.05
X3.675Y0.0
X3.7Y-0.6
X3.725Y0.15
X3.725Y0.1
X3.725Y0.05
X3.725Y0.0
X3.8Y-0.9
X3.8Y-1.1
X3.8Y-2.1
X3.8Y-2.3
X3.8Y-2.5
X3.8Y-2.725
X3.8Y-2.9
X3.8Y-3.1
X3.8Y-3.3
X3.8Y-3.5
X3.8Y-3.7
X3.8Y-3.9
X3.8Y-4.1
X3.8Y-4.3
X3.8Y-4.7
X3.8Y-4.9
X3.9Y-0.6
X3.975Y-1.775
X4.0Y-0.9
X4.0Y-1.1
X4.0Y-2.3
X4.0Y-2.725
X4.0Y-2.9
X4.0Y-3.1
X4.0Y-3.3
X4.0Y-3.5
X4.0Y-4.1
X4.0Y-4.3
X4.0Y-4.7
X4.0Y-4.9
X4.025Y-2.475
X4.05Y-0.45
X4.075Y0.15
X4.075Y0.1
X4.075Y0.05
X4.075Y0.0
X4.125Y0.15
X4.125Y0.1
X4.125Y0.05
X4.125Y0.0
X4.175Y0.15
X4.175Y0.1
X4.175Y0.05
X4.175Y0.0
X4.2Y-0.4
X4.2Y-0.9
X4.2Y-1.1
X4.2Y-2.3
X4.2Y-2.5
X4.2Y-2.7
X4.2Y-2.9
X4.2Y-3.1
X4.2Y-3.3
X4.2Y-3.5
X4.2Y-4.1
X4.2Y-4.3
X4.2Y-4.7
X4.2Y-4.9
X4.225Y0.15
X4.225Y0.1
X4.225Y0.05
X4.225Y0.0
X4.275Y0.15
X4.275Y0.1
X4.275Y0.05
X4.275Y0.0
X4.3Y-1.775
X4.325Y0.15
X4.325Y0.1
X4.325Y0.05
X4.325Y0.0
X4.35Y-0.4
X4.375Y0.15
X4.375Y0.1
X4.375Y0.05
X4.375Y0.0
X4.4Y-0.6
X4.4Y-0.9
X4.4Y-1.1
X4.4Y-2.3
X4.4Y-2.5
X4.4Y-2.7
X4.4Y-2.9
X4.4Y-3.1
X4.4Y-3.3
X4.4Y-3.5
X4.4Y-4.1
X4.4Y-4.3
X4.4Y-4.7
X4.4Y-4.9
X4.425Y0.15
X4.425Y0.1
X4.425Y0.05
X4.425Y0.0
X4.6Y-0.6
X4.6Y-0.9
X4.6Y-1.1
X4.6Y-2.3
X4.6Y-2.5
X4.6Y-2.7
X4.6Y-2.9
X4.6Y-3.1
X4.6Y-3.3
X4.6Y-4.1
X4.6Y-4.3
X4.6Y-4.7
X4.6Y-4.9
X4.625Y-1.775
X4.75Y-0.45
X4.775Y0.15
X4.775Y0.1
X4.775Y0.05
X4.775Y0.0
X4.8Y-0.9
X4.8Y-1.1
X4.8Y-2.3
X4.8Y-2.5
X4.8Y-2.7
X4.8Y-2.9
X4.8Y-3.1
X4.8Y-4.1
X4.8Y-4.3
X4.8Y-4.7
X4.8Y-4.9
X4.825Y0.15
X4.825Y0.1
X4.825Y0.05
X4.825Y0.0
X4.875Y0.15
X4.875Y0.1
X4.875Y0.05
X4.875Y0.0
X4.9Y-0.4
X4.925Y0.15
X4.925Y0.1
X4.925Y0.05
X4.925Y0.0
X4.95Y-1.775
X4.975Y0.15
X4.975Y0.1
X4.975Y0.05
X4.975Y0.0
X5.0Y-0.7
X5.0Y-0.9
X5.0Y-1.1
X5.0Y-2.1
X5.0Y-2.3
X5.0Y-2.5
X5.0Y-2.7
X5.0Y-2.9
X5.0Y-3.5
X5.0Y-3.7
X5.0Y-3.9
X5.0Y-4.1
X5.0Y-4.3
X5.0Y-4.7
X5.0Y-4.9
X5.025Y0.15
X5.025Y0.1
X5.025Y0.05
X5.025Y0.0
X5.05Y-0.4
X5.075Y0.15
X5.075Y0.1
X5.075Y0.05
X5.075Y0.0
X5.125Y0.15
X5.125Y0.1
X5.125Y0.05
X5.125Y0.0
X5.2Y-0.7
X5.2Y-0.9
X5.2Y-1.1
X5.2Y-3.5
X5.2Y-3.9
X5.2Y-4.1
X5.2Y-4.3
X5.2Y-4.7
X5.2Y-4.9
X5.275Y-1.775
X5.375Y-0.1
X5.375Y-0.3
X5.4Y-0.5
X5.4Y-0.7
X5.4Y-0.9
X5.4Y-1.1
X5.4Y-1.9
X5.4Y-2.1
X5.4Y-2.3
X5.4Y-2.5
X5.4Y-2.7
X5.4Y-2.9
X5.4Y-3.1
X5.4Y-3.3
X5.4Y-3.5
X5.4Y-3.7
X5.4Y-3.9
X5.4Y-4.1
X5.4Y-4.3
X5.4Y-4.7
X5.4Y-4.9
X5.6Y-1.1
X5.6Y-1.775
X5.6Y-1.9
X5.6Y-2.1
X5.6Y-2.3
X5.6Y-2.5
X5.6Y-2.7
X5.6Y-2.9
X5.6Y-3.1
X5.6Y-4.1
X5.6Y-4.3
X5.6Y-4.7
X5.6Y-4.9
X5.8Y0.1
X5.8Y-0.1
X5.8Y-0.3
X5.8Y-0.5
X5.8Y-0.7
X5.8Y-0.9
X5.8Y-1.1
X5.8Y-1.9
X5.8Y-2.1
X5.8Y-2.3
X5.8Y-2.5
X5.8Y-2.7
X5.8Y-2.9
X5.8Y-3.1
X5.8Y-4.1
X5.8Y-4.3
X5.8Y-4.7
X5.8Y-4.9
X5.925Y-1.775
X6.0Y0.1
X6.0Y-0.1
X6.0Y-0.3
X6.0Y-0.5
X6.0Y-0.7
X6.0Y-0.9
X6.0Y-1.1
X6.0Y-1.9
X6.0Y-2.1
X6.0Y-2.3
X6.0Y-2.5
X6.0Y-2.7
X6.0Y-2.9
X6.0Y-3.1
X6.0Y-4.1
X6.0Y-4.3
X6.0Y-4.5
X6.2Y0.2
X6.2Y-1.9
X6.2Y-2.1
X6.2Y-2.3
X6.2Y-2.5
X6.2Y-2.7
X6.2Y-2.9
X6.2Y-3.1
X6.2Y-4.1
X6.2Y-4.3
T2
X1.975Y-0.175
X1.975Y-0.275
X1.975Y-0.375
X1.975Y-0.6
X1.975Y-0.7
X1.975Y-0.8
X1.975Y-1.025
X1.975Y-1.125
X1.975Y-1.225
T3
X1.5Y-4.475
X1.6Y-4.475
X1.825Y-4.475
X1.925Y-4.475
X2.15Y-4.475
X2.25Y-4.475
X2.475Y-4.475
X2.525Y-0.85
X2.525Y-0.95
X2.525Y-1.05
X2.525Y-1.275
X2.525Y-1.375
X2.525Y-1.475
X2.575Y-4.475
X2.8Y-4.475
X2.9Y-4.475
X3.125Y-4.475
X3.225Y-4.475
X3.4Y-1.425
X3.45Y-4.475
X3.5Y-1.425
X3.55Y-4.475
X3.65Y-4.475
X3.725Y-1.425
X3.825Y-1.425
X3.875Y-4.475
X3.975Y-4.475
X4.05Y-1.425
X4.075Y-4.475
X4.15Y-1.425
X4.3Y-4.475
X4.375Y-1.425
X4.4Y-4.475
X4.475Y-1.425
X4.5Y-4.475
X4.7Y-1.425
X4.725Y-4.475
X4.8Y-1.425
X4.825Y-4.475
X4.925Y-4.475
X5.025Y-1.425
X5.125Y-1.425
X5.15Y-4.475
X5.25Y-4.475
X5.35Y-1.425
X5.35Y-4.475
X5.45Y-1.425
X5.575Y-4.475
X5.675Y-1.425
X5.675Y-4.475
X5.775Y-1.425
X5.775Y-4.475
X6.0Y-1.425
X6.1Y-1.425
T4
X1.4222Y-2.1219
X1.4222Y-2.2219
X1.4222Y-3.8219
X1.4222Y-3.9219
X1.5222Y-2.1219
X1.5222Y-2.2219
X1.5222Y-3.8219
X1.5222Y-3.9219
X1.6222Y-2.1219
X1.6222Y-2.2219
X1.6222Y-3.8219
X1.6222Y-3.9219
X1.7222Y-2.1219
X1.7222Y-2.2219
X1.7222Y-3.8219
X1.7222Y-3.9219
X1.8222Y-2.1219
X1.8222Y-2.2219
X1.8222Y-3.8219
X1.8222Y-3.9219
X1.9222Y-2.1219
X1.9222Y-2.2219
X1.9222Y-3.8219
X1.9222Y-3.9219
X2.0222Y-2.1219
X2.0222Y-2.2219
X2.0222Y-3.8219
X2.0222Y-3.9219
X2.1222Y-2.1219
X2.1222Y-2.2219
X2.1222Y-3.8219
X2.1222Y-3.9219
X2.2222Y-2.1219
X2.2222Y-2.2219
X2.2222Y-3.8219
X2.2222Y-3.9219
X2.3222Y-2.1219
X2.3222Y-2.2219
X2.3222Y-3.8219
X2.3222Y-3.9219
X3.9222Y-2.1219
X3.9222Y-2.2219
X3.9222Y-3.8219
X3.9222Y-3.9219
X4.0222Y-2.1219
X4.0222Y-2.2219
X4.0222Y-3.8219
X4.0222Y-3.9219
X4.1222Y-2.1219
X4.1222Y-2.2219
X4.1222Y-3.8219
X4.1222Y-3.9219
X4.2222Y-2.1219
X4.2222Y-2.2219
X4.2222Y-3.8219
X4.2222Y-3.9219
X4.3222Y-2.1219
X4.3222Y-2.2219
X4.3222Y-3.8219
X4.3222Y-3.9219
X4.4222Y-2.1219
X4.4222Y-2.2219
X4.4222Y-3.8219
X4.4222Y-3.9219
X4.5222Y-2.1219
X4.5222Y-2.2219
X4.5222Y-3.8219
X4.5222Y-3.9219
X4.6222Y-2.1219
X4.6222Y-2.2219
X4.6222Y-3.8219
X4.6222Y-3.9219
X4.7222Y-2.1219
X4.7222Y-2.2219
X4.7222Y-3.8219
X4.7222Y-3.9219
X4.8222Y-2.1219
X4.8222Y-2.2219
X4.8222Y-3.8219
X4.8222Y-3.9219
T5
G00X2.075Y0.7513
M15
G01X2.075Y0.6687
M16
G05
G00X2.075Y0.4413
M15
G01X2.075Y0.3587
M16
G05
G00X2.075Y0.1313
M15
G01X2.075Y0.0487
M16
G05
G00X2.6947Y0.8397
M15
G01X2.612Y0.8397
M16
G05
G00X3.0047Y0.8397
M15
G01X2.922Y0.8397
M16
G05
G00X3.3947Y0.8407
M15
G01X3.312Y0.8407
M16
G05
G00X3.7047Y0.8407
M15
G01X3.622Y0.8407
M16
G05
G00X4.0947Y0.8407
M15
G01X4.012Y0.8407
M16
G05
G00X4.4047Y0.8407
M15
G01X4.322Y0.8407
M16
G05
G00X4.7947Y0.8407
M15
G01X4.712Y0.8407
M16
G05
G00X5.1047Y0.8407
M15
G01X5.022Y0.8407
M16
G05
G00X5.5907Y-0.5347
M15
G01X5.5907Y-0.452
M16
G05
G00X5.5907Y-0.8447
M15
G01X5.5907Y-0.762
M16
G05
G00X5.5941Y0.4241
M15
G01X5.5941Y0.5068
M16
G05
G00X5.5941Y0.1141
M15
G01X5.5941Y0.1968
M16
G05
G00X5.5941Y-0.1959
M15
G01X5.5941Y-0.1132
M16
G05
T0
M30
