%TF.GenerationSoftware,KiCad,Pcbnew,(5.1.10)-1*%
%TF.CreationDate,2021-12-26T20:54:27-06:00*%
%TF.ProjectId,ScienceMotorController,53636965-6e63-4654-9d6f-746f72436f6e,rev?*%
%TF.SameCoordinates,Original*%
%TF.FileFunction,Paste,Top*%
%TF.FilePolarity,Positive*%
%FSLAX46Y46*%
G04 Gerber Fmt 4.6, Leading zero omitted, Abs format (unit mm)*
G04 Created by KiCad (PCBNEW (5.1.10)-1) date 2021-12-26 20:54:27*
%MOMM*%
%LPD*%
G01*
G04 APERTURE LIST*
%ADD10C,1.520000*%
%ADD11R,3.900000X6.400000*%
%ADD12R,0.650000X0.400000*%
%ADD13R,0.650000X1.560000*%
G04 APERTURE END LIST*
D10*
%TO.C,U9*%
X95504000Y-157988000D03*
X118364000Y-112268000D03*
X115824000Y-112268000D03*
X108204000Y-112268000D03*
X105664000Y-155448000D03*
X110744000Y-112268000D03*
X113284000Y-112268000D03*
X110744000Y-157988000D03*
X115824000Y-155448000D03*
X105664000Y-112268000D03*
X103124000Y-112268000D03*
X115824000Y-157988000D03*
X110744000Y-155448000D03*
X108204000Y-155448000D03*
X95504000Y-155448000D03*
X98044000Y-155448000D03*
X100584000Y-155448000D03*
X103124000Y-155448000D03*
X113284000Y-155448000D03*
X118364000Y-155448000D03*
X98044000Y-157988000D03*
X100584000Y-157988000D03*
X103124000Y-157988000D03*
X105664000Y-157988000D03*
X108204000Y-157988000D03*
X113284000Y-157988000D03*
X118364000Y-157988000D03*
X95504000Y-114808000D03*
X98044000Y-114808000D03*
X100584000Y-114808000D03*
X103124000Y-114808000D03*
X105664000Y-114808000D03*
X108204000Y-114808000D03*
X110744000Y-114808000D03*
X113284000Y-114808000D03*
X115824000Y-114808000D03*
X118364000Y-114808000D03*
X95504000Y-112268000D03*
X98044000Y-112268000D03*
X100584000Y-112268000D03*
X32004000Y-155448000D03*
X34544000Y-155448000D03*
X37084000Y-155448000D03*
X39624000Y-155448000D03*
X42164000Y-155448000D03*
X44704000Y-155448000D03*
X47244000Y-155448000D03*
X49784000Y-155448000D03*
X52324000Y-155448000D03*
X54864000Y-155448000D03*
X32004000Y-157988000D03*
X34544000Y-157988000D03*
X37084000Y-157988000D03*
X39624000Y-157988000D03*
X42164000Y-157988000D03*
X44704000Y-157988000D03*
X47244000Y-157988000D03*
X49784000Y-157988000D03*
X52324000Y-157988000D03*
X54864000Y-157988000D03*
X32004000Y-114808000D03*
X34544000Y-114808000D03*
X37084000Y-114808000D03*
X39624000Y-114808000D03*
X42164000Y-114808000D03*
X44704000Y-114808000D03*
X47244000Y-114808000D03*
X49784000Y-114808000D03*
X52324000Y-114808000D03*
X54864000Y-114808000D03*
X32004000Y-112268000D03*
X34544000Y-112268000D03*
X37084000Y-112268000D03*
X39624000Y-112268000D03*
X42164000Y-112268000D03*
X44704000Y-112268000D03*
X47244000Y-112268000D03*
X49784000Y-112268000D03*
X52324000Y-112268000D03*
X54864000Y-112268000D03*
%TD*%
%TO.C,U6*%
G36*
G01*
X99162500Y-104135000D02*
X99162500Y-104285000D01*
G75*
G02*
X99087500Y-104360000I-75000J0D01*
G01*
X97762500Y-104360000D01*
G75*
G02*
X97687500Y-104285000I0J75000D01*
G01*
X97687500Y-104135000D01*
G75*
G02*
X97762500Y-104060000I75000J0D01*
G01*
X99087500Y-104060000D01*
G75*
G02*
X99162500Y-104135000I0J-75000D01*
G01*
G37*
G36*
G01*
X99162500Y-103635000D02*
X99162500Y-103785000D01*
G75*
G02*
X99087500Y-103860000I-75000J0D01*
G01*
X97762500Y-103860000D01*
G75*
G02*
X97687500Y-103785000I0J75000D01*
G01*
X97687500Y-103635000D01*
G75*
G02*
X97762500Y-103560000I75000J0D01*
G01*
X99087500Y-103560000D01*
G75*
G02*
X99162500Y-103635000I0J-75000D01*
G01*
G37*
G36*
G01*
X99162500Y-103135000D02*
X99162500Y-103285000D01*
G75*
G02*
X99087500Y-103360000I-75000J0D01*
G01*
X97762500Y-103360000D01*
G75*
G02*
X97687500Y-103285000I0J75000D01*
G01*
X97687500Y-103135000D01*
G75*
G02*
X97762500Y-103060000I75000J0D01*
G01*
X99087500Y-103060000D01*
G75*
G02*
X99162500Y-103135000I0J-75000D01*
G01*
G37*
G36*
G01*
X99162500Y-102635000D02*
X99162500Y-102785000D01*
G75*
G02*
X99087500Y-102860000I-75000J0D01*
G01*
X97762500Y-102860000D01*
G75*
G02*
X97687500Y-102785000I0J75000D01*
G01*
X97687500Y-102635000D01*
G75*
G02*
X97762500Y-102560000I75000J0D01*
G01*
X99087500Y-102560000D01*
G75*
G02*
X99162500Y-102635000I0J-75000D01*
G01*
G37*
G36*
G01*
X99162500Y-102135000D02*
X99162500Y-102285000D01*
G75*
G02*
X99087500Y-102360000I-75000J0D01*
G01*
X97762500Y-102360000D01*
G75*
G02*
X97687500Y-102285000I0J75000D01*
G01*
X97687500Y-102135000D01*
G75*
G02*
X97762500Y-102060000I75000J0D01*
G01*
X99087500Y-102060000D01*
G75*
G02*
X99162500Y-102135000I0J-75000D01*
G01*
G37*
G36*
G01*
X99162500Y-101635000D02*
X99162500Y-101785000D01*
G75*
G02*
X99087500Y-101860000I-75000J0D01*
G01*
X97762500Y-101860000D01*
G75*
G02*
X97687500Y-101785000I0J75000D01*
G01*
X97687500Y-101635000D01*
G75*
G02*
X97762500Y-101560000I75000J0D01*
G01*
X99087500Y-101560000D01*
G75*
G02*
X99162500Y-101635000I0J-75000D01*
G01*
G37*
G36*
G01*
X99162500Y-101135000D02*
X99162500Y-101285000D01*
G75*
G02*
X99087500Y-101360000I-75000J0D01*
G01*
X97762500Y-101360000D01*
G75*
G02*
X97687500Y-101285000I0J75000D01*
G01*
X97687500Y-101135000D01*
G75*
G02*
X97762500Y-101060000I75000J0D01*
G01*
X99087500Y-101060000D01*
G75*
G02*
X99162500Y-101135000I0J-75000D01*
G01*
G37*
G36*
G01*
X99162500Y-100635000D02*
X99162500Y-100785000D01*
G75*
G02*
X99087500Y-100860000I-75000J0D01*
G01*
X97762500Y-100860000D01*
G75*
G02*
X97687500Y-100785000I0J75000D01*
G01*
X97687500Y-100635000D01*
G75*
G02*
X97762500Y-100560000I75000J0D01*
G01*
X99087500Y-100560000D01*
G75*
G02*
X99162500Y-100635000I0J-75000D01*
G01*
G37*
G36*
G01*
X99162500Y-100135000D02*
X99162500Y-100285000D01*
G75*
G02*
X99087500Y-100360000I-75000J0D01*
G01*
X97762500Y-100360000D01*
G75*
G02*
X97687500Y-100285000I0J75000D01*
G01*
X97687500Y-100135000D01*
G75*
G02*
X97762500Y-100060000I75000J0D01*
G01*
X99087500Y-100060000D01*
G75*
G02*
X99162500Y-100135000I0J-75000D01*
G01*
G37*
G36*
G01*
X99162500Y-99635000D02*
X99162500Y-99785000D01*
G75*
G02*
X99087500Y-99860000I-75000J0D01*
G01*
X97762500Y-99860000D01*
G75*
G02*
X97687500Y-99785000I0J75000D01*
G01*
X97687500Y-99635000D01*
G75*
G02*
X97762500Y-99560000I75000J0D01*
G01*
X99087500Y-99560000D01*
G75*
G02*
X99162500Y-99635000I0J-75000D01*
G01*
G37*
G36*
G01*
X99162500Y-99135000D02*
X99162500Y-99285000D01*
G75*
G02*
X99087500Y-99360000I-75000J0D01*
G01*
X97762500Y-99360000D01*
G75*
G02*
X97687500Y-99285000I0J75000D01*
G01*
X97687500Y-99135000D01*
G75*
G02*
X97762500Y-99060000I75000J0D01*
G01*
X99087500Y-99060000D01*
G75*
G02*
X99162500Y-99135000I0J-75000D01*
G01*
G37*
G36*
G01*
X99162500Y-98635000D02*
X99162500Y-98785000D01*
G75*
G02*
X99087500Y-98860000I-75000J0D01*
G01*
X97762500Y-98860000D01*
G75*
G02*
X97687500Y-98785000I0J75000D01*
G01*
X97687500Y-98635000D01*
G75*
G02*
X97762500Y-98560000I75000J0D01*
G01*
X99087500Y-98560000D01*
G75*
G02*
X99162500Y-98635000I0J-75000D01*
G01*
G37*
G36*
G01*
X99162500Y-98135000D02*
X99162500Y-98285000D01*
G75*
G02*
X99087500Y-98360000I-75000J0D01*
G01*
X97762500Y-98360000D01*
G75*
G02*
X97687500Y-98285000I0J75000D01*
G01*
X97687500Y-98135000D01*
G75*
G02*
X97762500Y-98060000I75000J0D01*
G01*
X99087500Y-98060000D01*
G75*
G02*
X99162500Y-98135000I0J-75000D01*
G01*
G37*
G36*
G01*
X99162500Y-97635000D02*
X99162500Y-97785000D01*
G75*
G02*
X99087500Y-97860000I-75000J0D01*
G01*
X97762500Y-97860000D01*
G75*
G02*
X97687500Y-97785000I0J75000D01*
G01*
X97687500Y-97635000D01*
G75*
G02*
X97762500Y-97560000I75000J0D01*
G01*
X99087500Y-97560000D01*
G75*
G02*
X99162500Y-97635000I0J-75000D01*
G01*
G37*
G36*
G01*
X99162500Y-97135000D02*
X99162500Y-97285000D01*
G75*
G02*
X99087500Y-97360000I-75000J0D01*
G01*
X97762500Y-97360000D01*
G75*
G02*
X97687500Y-97285000I0J75000D01*
G01*
X97687500Y-97135000D01*
G75*
G02*
X97762500Y-97060000I75000J0D01*
G01*
X99087500Y-97060000D01*
G75*
G02*
X99162500Y-97135000I0J-75000D01*
G01*
G37*
G36*
G01*
X99162500Y-96635000D02*
X99162500Y-96785000D01*
G75*
G02*
X99087500Y-96860000I-75000J0D01*
G01*
X97762500Y-96860000D01*
G75*
G02*
X97687500Y-96785000I0J75000D01*
G01*
X97687500Y-96635000D01*
G75*
G02*
X97762500Y-96560000I75000J0D01*
G01*
X99087500Y-96560000D01*
G75*
G02*
X99162500Y-96635000I0J-75000D01*
G01*
G37*
G36*
G01*
X99162500Y-96135000D02*
X99162500Y-96285000D01*
G75*
G02*
X99087500Y-96360000I-75000J0D01*
G01*
X97762500Y-96360000D01*
G75*
G02*
X97687500Y-96285000I0J75000D01*
G01*
X97687500Y-96135000D01*
G75*
G02*
X97762500Y-96060000I75000J0D01*
G01*
X99087500Y-96060000D01*
G75*
G02*
X99162500Y-96135000I0J-75000D01*
G01*
G37*
G36*
G01*
X99162500Y-95635000D02*
X99162500Y-95785000D01*
G75*
G02*
X99087500Y-95860000I-75000J0D01*
G01*
X97762500Y-95860000D01*
G75*
G02*
X97687500Y-95785000I0J75000D01*
G01*
X97687500Y-95635000D01*
G75*
G02*
X97762500Y-95560000I75000J0D01*
G01*
X99087500Y-95560000D01*
G75*
G02*
X99162500Y-95635000I0J-75000D01*
G01*
G37*
G36*
G01*
X99162500Y-95135000D02*
X99162500Y-95285000D01*
G75*
G02*
X99087500Y-95360000I-75000J0D01*
G01*
X97762500Y-95360000D01*
G75*
G02*
X97687500Y-95285000I0J75000D01*
G01*
X97687500Y-95135000D01*
G75*
G02*
X97762500Y-95060000I75000J0D01*
G01*
X99087500Y-95060000D01*
G75*
G02*
X99162500Y-95135000I0J-75000D01*
G01*
G37*
G36*
G01*
X99162500Y-94635000D02*
X99162500Y-94785000D01*
G75*
G02*
X99087500Y-94860000I-75000J0D01*
G01*
X97762500Y-94860000D01*
G75*
G02*
X97687500Y-94785000I0J75000D01*
G01*
X97687500Y-94635000D01*
G75*
G02*
X97762500Y-94560000I75000J0D01*
G01*
X99087500Y-94560000D01*
G75*
G02*
X99162500Y-94635000I0J-75000D01*
G01*
G37*
G36*
G01*
X99162500Y-94135000D02*
X99162500Y-94285000D01*
G75*
G02*
X99087500Y-94360000I-75000J0D01*
G01*
X97762500Y-94360000D01*
G75*
G02*
X97687500Y-94285000I0J75000D01*
G01*
X97687500Y-94135000D01*
G75*
G02*
X97762500Y-94060000I75000J0D01*
G01*
X99087500Y-94060000D01*
G75*
G02*
X99162500Y-94135000I0J-75000D01*
G01*
G37*
G36*
G01*
X99162500Y-93635000D02*
X99162500Y-93785000D01*
G75*
G02*
X99087500Y-93860000I-75000J0D01*
G01*
X97762500Y-93860000D01*
G75*
G02*
X97687500Y-93785000I0J75000D01*
G01*
X97687500Y-93635000D01*
G75*
G02*
X97762500Y-93560000I75000J0D01*
G01*
X99087500Y-93560000D01*
G75*
G02*
X99162500Y-93635000I0J-75000D01*
G01*
G37*
G36*
G01*
X99162500Y-93135000D02*
X99162500Y-93285000D01*
G75*
G02*
X99087500Y-93360000I-75000J0D01*
G01*
X97762500Y-93360000D01*
G75*
G02*
X97687500Y-93285000I0J75000D01*
G01*
X97687500Y-93135000D01*
G75*
G02*
X97762500Y-93060000I75000J0D01*
G01*
X99087500Y-93060000D01*
G75*
G02*
X99162500Y-93135000I0J-75000D01*
G01*
G37*
G36*
G01*
X99162500Y-92635000D02*
X99162500Y-92785000D01*
G75*
G02*
X99087500Y-92860000I-75000J0D01*
G01*
X97762500Y-92860000D01*
G75*
G02*
X97687500Y-92785000I0J75000D01*
G01*
X97687500Y-92635000D01*
G75*
G02*
X97762500Y-92560000I75000J0D01*
G01*
X99087500Y-92560000D01*
G75*
G02*
X99162500Y-92635000I0J-75000D01*
G01*
G37*
G36*
G01*
X106587500Y-92635000D02*
X106587500Y-92785000D01*
G75*
G02*
X106512500Y-92860000I-75000J0D01*
G01*
X105187500Y-92860000D01*
G75*
G02*
X105112500Y-92785000I0J75000D01*
G01*
X105112500Y-92635000D01*
G75*
G02*
X105187500Y-92560000I75000J0D01*
G01*
X106512500Y-92560000D01*
G75*
G02*
X106587500Y-92635000I0J-75000D01*
G01*
G37*
G36*
G01*
X106587500Y-93135000D02*
X106587500Y-93285000D01*
G75*
G02*
X106512500Y-93360000I-75000J0D01*
G01*
X105187500Y-93360000D01*
G75*
G02*
X105112500Y-93285000I0J75000D01*
G01*
X105112500Y-93135000D01*
G75*
G02*
X105187500Y-93060000I75000J0D01*
G01*
X106512500Y-93060000D01*
G75*
G02*
X106587500Y-93135000I0J-75000D01*
G01*
G37*
G36*
G01*
X106587500Y-93635000D02*
X106587500Y-93785000D01*
G75*
G02*
X106512500Y-93860000I-75000J0D01*
G01*
X105187500Y-93860000D01*
G75*
G02*
X105112500Y-93785000I0J75000D01*
G01*
X105112500Y-93635000D01*
G75*
G02*
X105187500Y-93560000I75000J0D01*
G01*
X106512500Y-93560000D01*
G75*
G02*
X106587500Y-93635000I0J-75000D01*
G01*
G37*
G36*
G01*
X106587500Y-94135000D02*
X106587500Y-94285000D01*
G75*
G02*
X106512500Y-94360000I-75000J0D01*
G01*
X105187500Y-94360000D01*
G75*
G02*
X105112500Y-94285000I0J75000D01*
G01*
X105112500Y-94135000D01*
G75*
G02*
X105187500Y-94060000I75000J0D01*
G01*
X106512500Y-94060000D01*
G75*
G02*
X106587500Y-94135000I0J-75000D01*
G01*
G37*
G36*
G01*
X106587500Y-94635000D02*
X106587500Y-94785000D01*
G75*
G02*
X106512500Y-94860000I-75000J0D01*
G01*
X105187500Y-94860000D01*
G75*
G02*
X105112500Y-94785000I0J75000D01*
G01*
X105112500Y-94635000D01*
G75*
G02*
X105187500Y-94560000I75000J0D01*
G01*
X106512500Y-94560000D01*
G75*
G02*
X106587500Y-94635000I0J-75000D01*
G01*
G37*
G36*
G01*
X106587500Y-95135000D02*
X106587500Y-95285000D01*
G75*
G02*
X106512500Y-95360000I-75000J0D01*
G01*
X105187500Y-95360000D01*
G75*
G02*
X105112500Y-95285000I0J75000D01*
G01*
X105112500Y-95135000D01*
G75*
G02*
X105187500Y-95060000I75000J0D01*
G01*
X106512500Y-95060000D01*
G75*
G02*
X106587500Y-95135000I0J-75000D01*
G01*
G37*
G36*
G01*
X106587500Y-95635000D02*
X106587500Y-95785000D01*
G75*
G02*
X106512500Y-95860000I-75000J0D01*
G01*
X105187500Y-95860000D01*
G75*
G02*
X105112500Y-95785000I0J75000D01*
G01*
X105112500Y-95635000D01*
G75*
G02*
X105187500Y-95560000I75000J0D01*
G01*
X106512500Y-95560000D01*
G75*
G02*
X106587500Y-95635000I0J-75000D01*
G01*
G37*
G36*
G01*
X106587500Y-96135000D02*
X106587500Y-96285000D01*
G75*
G02*
X106512500Y-96360000I-75000J0D01*
G01*
X105187500Y-96360000D01*
G75*
G02*
X105112500Y-96285000I0J75000D01*
G01*
X105112500Y-96135000D01*
G75*
G02*
X105187500Y-96060000I75000J0D01*
G01*
X106512500Y-96060000D01*
G75*
G02*
X106587500Y-96135000I0J-75000D01*
G01*
G37*
G36*
G01*
X106587500Y-96635000D02*
X106587500Y-96785000D01*
G75*
G02*
X106512500Y-96860000I-75000J0D01*
G01*
X105187500Y-96860000D01*
G75*
G02*
X105112500Y-96785000I0J75000D01*
G01*
X105112500Y-96635000D01*
G75*
G02*
X105187500Y-96560000I75000J0D01*
G01*
X106512500Y-96560000D01*
G75*
G02*
X106587500Y-96635000I0J-75000D01*
G01*
G37*
G36*
G01*
X106587500Y-97135000D02*
X106587500Y-97285000D01*
G75*
G02*
X106512500Y-97360000I-75000J0D01*
G01*
X105187500Y-97360000D01*
G75*
G02*
X105112500Y-97285000I0J75000D01*
G01*
X105112500Y-97135000D01*
G75*
G02*
X105187500Y-97060000I75000J0D01*
G01*
X106512500Y-97060000D01*
G75*
G02*
X106587500Y-97135000I0J-75000D01*
G01*
G37*
G36*
G01*
X106587500Y-97635000D02*
X106587500Y-97785000D01*
G75*
G02*
X106512500Y-97860000I-75000J0D01*
G01*
X105187500Y-97860000D01*
G75*
G02*
X105112500Y-97785000I0J75000D01*
G01*
X105112500Y-97635000D01*
G75*
G02*
X105187500Y-97560000I75000J0D01*
G01*
X106512500Y-97560000D01*
G75*
G02*
X106587500Y-97635000I0J-75000D01*
G01*
G37*
G36*
G01*
X106587500Y-98135000D02*
X106587500Y-98285000D01*
G75*
G02*
X106512500Y-98360000I-75000J0D01*
G01*
X105187500Y-98360000D01*
G75*
G02*
X105112500Y-98285000I0J75000D01*
G01*
X105112500Y-98135000D01*
G75*
G02*
X105187500Y-98060000I75000J0D01*
G01*
X106512500Y-98060000D01*
G75*
G02*
X106587500Y-98135000I0J-75000D01*
G01*
G37*
G36*
G01*
X106587500Y-98635000D02*
X106587500Y-98785000D01*
G75*
G02*
X106512500Y-98860000I-75000J0D01*
G01*
X105187500Y-98860000D01*
G75*
G02*
X105112500Y-98785000I0J75000D01*
G01*
X105112500Y-98635000D01*
G75*
G02*
X105187500Y-98560000I75000J0D01*
G01*
X106512500Y-98560000D01*
G75*
G02*
X106587500Y-98635000I0J-75000D01*
G01*
G37*
G36*
G01*
X106587500Y-99135000D02*
X106587500Y-99285000D01*
G75*
G02*
X106512500Y-99360000I-75000J0D01*
G01*
X105187500Y-99360000D01*
G75*
G02*
X105112500Y-99285000I0J75000D01*
G01*
X105112500Y-99135000D01*
G75*
G02*
X105187500Y-99060000I75000J0D01*
G01*
X106512500Y-99060000D01*
G75*
G02*
X106587500Y-99135000I0J-75000D01*
G01*
G37*
G36*
G01*
X106587500Y-99635000D02*
X106587500Y-99785000D01*
G75*
G02*
X106512500Y-99860000I-75000J0D01*
G01*
X105187500Y-99860000D01*
G75*
G02*
X105112500Y-99785000I0J75000D01*
G01*
X105112500Y-99635000D01*
G75*
G02*
X105187500Y-99560000I75000J0D01*
G01*
X106512500Y-99560000D01*
G75*
G02*
X106587500Y-99635000I0J-75000D01*
G01*
G37*
G36*
G01*
X106587500Y-100135000D02*
X106587500Y-100285000D01*
G75*
G02*
X106512500Y-100360000I-75000J0D01*
G01*
X105187500Y-100360000D01*
G75*
G02*
X105112500Y-100285000I0J75000D01*
G01*
X105112500Y-100135000D01*
G75*
G02*
X105187500Y-100060000I75000J0D01*
G01*
X106512500Y-100060000D01*
G75*
G02*
X106587500Y-100135000I0J-75000D01*
G01*
G37*
G36*
G01*
X106587500Y-100635000D02*
X106587500Y-100785000D01*
G75*
G02*
X106512500Y-100860000I-75000J0D01*
G01*
X105187500Y-100860000D01*
G75*
G02*
X105112500Y-100785000I0J75000D01*
G01*
X105112500Y-100635000D01*
G75*
G02*
X105187500Y-100560000I75000J0D01*
G01*
X106512500Y-100560000D01*
G75*
G02*
X106587500Y-100635000I0J-75000D01*
G01*
G37*
G36*
G01*
X106587500Y-101135000D02*
X106587500Y-101285000D01*
G75*
G02*
X106512500Y-101360000I-75000J0D01*
G01*
X105187500Y-101360000D01*
G75*
G02*
X105112500Y-101285000I0J75000D01*
G01*
X105112500Y-101135000D01*
G75*
G02*
X105187500Y-101060000I75000J0D01*
G01*
X106512500Y-101060000D01*
G75*
G02*
X106587500Y-101135000I0J-75000D01*
G01*
G37*
G36*
G01*
X106587500Y-101635000D02*
X106587500Y-101785000D01*
G75*
G02*
X106512500Y-101860000I-75000J0D01*
G01*
X105187500Y-101860000D01*
G75*
G02*
X105112500Y-101785000I0J75000D01*
G01*
X105112500Y-101635000D01*
G75*
G02*
X105187500Y-101560000I75000J0D01*
G01*
X106512500Y-101560000D01*
G75*
G02*
X106587500Y-101635000I0J-75000D01*
G01*
G37*
G36*
G01*
X106587500Y-102135000D02*
X106587500Y-102285000D01*
G75*
G02*
X106512500Y-102360000I-75000J0D01*
G01*
X105187500Y-102360000D01*
G75*
G02*
X105112500Y-102285000I0J75000D01*
G01*
X105112500Y-102135000D01*
G75*
G02*
X105187500Y-102060000I75000J0D01*
G01*
X106512500Y-102060000D01*
G75*
G02*
X106587500Y-102135000I0J-75000D01*
G01*
G37*
G36*
G01*
X106587500Y-102635000D02*
X106587500Y-102785000D01*
G75*
G02*
X106512500Y-102860000I-75000J0D01*
G01*
X105187500Y-102860000D01*
G75*
G02*
X105112500Y-102785000I0J75000D01*
G01*
X105112500Y-102635000D01*
G75*
G02*
X105187500Y-102560000I75000J0D01*
G01*
X106512500Y-102560000D01*
G75*
G02*
X106587500Y-102635000I0J-75000D01*
G01*
G37*
G36*
G01*
X106587500Y-103135000D02*
X106587500Y-103285000D01*
G75*
G02*
X106512500Y-103360000I-75000J0D01*
G01*
X105187500Y-103360000D01*
G75*
G02*
X105112500Y-103285000I0J75000D01*
G01*
X105112500Y-103135000D01*
G75*
G02*
X105187500Y-103060000I75000J0D01*
G01*
X106512500Y-103060000D01*
G75*
G02*
X106587500Y-103135000I0J-75000D01*
G01*
G37*
G36*
G01*
X106587500Y-103635000D02*
X106587500Y-103785000D01*
G75*
G02*
X106512500Y-103860000I-75000J0D01*
G01*
X105187500Y-103860000D01*
G75*
G02*
X105112500Y-103785000I0J75000D01*
G01*
X105112500Y-103635000D01*
G75*
G02*
X105187500Y-103560000I75000J0D01*
G01*
X106512500Y-103560000D01*
G75*
G02*
X106587500Y-103635000I0J-75000D01*
G01*
G37*
G36*
G01*
X106587500Y-104135000D02*
X106587500Y-104285000D01*
G75*
G02*
X106512500Y-104360000I-75000J0D01*
G01*
X105187500Y-104360000D01*
G75*
G02*
X105112500Y-104285000I0J75000D01*
G01*
X105112500Y-104135000D01*
G75*
G02*
X105187500Y-104060000I75000J0D01*
G01*
X106512500Y-104060000D01*
G75*
G02*
X106587500Y-104135000I0J-75000D01*
G01*
G37*
D11*
X102137500Y-98460000D03*
%TD*%
%TO.C,D10*%
G36*
G01*
X68315000Y-154067500D02*
X68315000Y-154542500D01*
G75*
G02*
X68077500Y-154780000I-237500J0D01*
G01*
X67502500Y-154780000D01*
G75*
G02*
X67265000Y-154542500I0J237500D01*
G01*
X67265000Y-154067500D01*
G75*
G02*
X67502500Y-153830000I237500J0D01*
G01*
X68077500Y-153830000D01*
G75*
G02*
X68315000Y-154067500I0J-237500D01*
G01*
G37*
G36*
G01*
X66565000Y-154067500D02*
X66565000Y-154542500D01*
G75*
G02*
X66327500Y-154780000I-237500J0D01*
G01*
X65752500Y-154780000D01*
G75*
G02*
X65515000Y-154542500I0J237500D01*
G01*
X65515000Y-154067500D01*
G75*
G02*
X65752500Y-153830000I237500J0D01*
G01*
X66327500Y-153830000D01*
G75*
G02*
X66565000Y-154067500I0J-237500D01*
G01*
G37*
%TD*%
%TO.C,R15*%
G36*
G01*
X64759000Y-155718500D02*
X64759000Y-156193500D01*
G75*
G02*
X64521500Y-156431000I-237500J0D01*
G01*
X63946500Y-156431000D01*
G75*
G02*
X63709000Y-156193500I0J237500D01*
G01*
X63709000Y-155718500D01*
G75*
G02*
X63946500Y-155481000I237500J0D01*
G01*
X64521500Y-155481000D01*
G75*
G02*
X64759000Y-155718500I0J-237500D01*
G01*
G37*
G36*
G01*
X63009000Y-155718500D02*
X63009000Y-156193500D01*
G75*
G02*
X62771500Y-156431000I-237500J0D01*
G01*
X62196500Y-156431000D01*
G75*
G02*
X61959000Y-156193500I0J237500D01*
G01*
X61959000Y-155718500D01*
G75*
G02*
X62196500Y-155481000I237500J0D01*
G01*
X62771500Y-155481000D01*
G75*
G02*
X63009000Y-155718500I0J-237500D01*
G01*
G37*
%TD*%
%TO.C,R5*%
G36*
G01*
X64759000Y-152416500D02*
X64759000Y-152891500D01*
G75*
G02*
X64521500Y-153129000I-237500J0D01*
G01*
X63946500Y-153129000D01*
G75*
G02*
X63709000Y-152891500I0J237500D01*
G01*
X63709000Y-152416500D01*
G75*
G02*
X63946500Y-152179000I237500J0D01*
G01*
X64521500Y-152179000D01*
G75*
G02*
X64759000Y-152416500I0J-237500D01*
G01*
G37*
G36*
G01*
X63009000Y-152416500D02*
X63009000Y-152891500D01*
G75*
G02*
X62771500Y-153129000I-237500J0D01*
G01*
X62196500Y-153129000D01*
G75*
G02*
X61959000Y-152891500I0J237500D01*
G01*
X61959000Y-152416500D01*
G75*
G02*
X62196500Y-152179000I237500J0D01*
G01*
X62771500Y-152179000D01*
G75*
G02*
X63009000Y-152416500I0J-237500D01*
G01*
G37*
%TD*%
%TO.C,R16*%
G36*
G01*
X64787000Y-157369500D02*
X64787000Y-157844500D01*
G75*
G02*
X64549500Y-158082000I-237500J0D01*
G01*
X63974500Y-158082000D01*
G75*
G02*
X63737000Y-157844500I0J237500D01*
G01*
X63737000Y-157369500D01*
G75*
G02*
X63974500Y-157132000I237500J0D01*
G01*
X64549500Y-157132000D01*
G75*
G02*
X64787000Y-157369500I0J-237500D01*
G01*
G37*
G36*
G01*
X63037000Y-157369500D02*
X63037000Y-157844500D01*
G75*
G02*
X62799500Y-158082000I-237500J0D01*
G01*
X62224500Y-158082000D01*
G75*
G02*
X61987000Y-157844500I0J237500D01*
G01*
X61987000Y-157369500D01*
G75*
G02*
X62224500Y-157132000I237500J0D01*
G01*
X62799500Y-157132000D01*
G75*
G02*
X63037000Y-157369500I0J-237500D01*
G01*
G37*
%TD*%
%TO.C,R17*%
G36*
G01*
X64759000Y-154067500D02*
X64759000Y-154542500D01*
G75*
G02*
X64521500Y-154780000I-237500J0D01*
G01*
X63946500Y-154780000D01*
G75*
G02*
X63709000Y-154542500I0J237500D01*
G01*
X63709000Y-154067500D01*
G75*
G02*
X63946500Y-153830000I237500J0D01*
G01*
X64521500Y-153830000D01*
G75*
G02*
X64759000Y-154067500I0J-237500D01*
G01*
G37*
G36*
G01*
X63009000Y-154067500D02*
X63009000Y-154542500D01*
G75*
G02*
X62771500Y-154780000I-237500J0D01*
G01*
X62196500Y-154780000D01*
G75*
G02*
X61959000Y-154542500I0J237500D01*
G01*
X61959000Y-154067500D01*
G75*
G02*
X62196500Y-153830000I237500J0D01*
G01*
X62771500Y-153830000D01*
G75*
G02*
X63009000Y-154067500I0J-237500D01*
G01*
G37*
%TD*%
%TO.C,D4*%
G36*
G01*
X68315000Y-152416500D02*
X68315000Y-152891500D01*
G75*
G02*
X68077500Y-153129000I-237500J0D01*
G01*
X67502500Y-153129000D01*
G75*
G02*
X67265000Y-152891500I0J237500D01*
G01*
X67265000Y-152416500D01*
G75*
G02*
X67502500Y-152179000I237500J0D01*
G01*
X68077500Y-152179000D01*
G75*
G02*
X68315000Y-152416500I0J-237500D01*
G01*
G37*
G36*
G01*
X66565000Y-152416500D02*
X66565000Y-152891500D01*
G75*
G02*
X66327500Y-153129000I-237500J0D01*
G01*
X65752500Y-153129000D01*
G75*
G02*
X65515000Y-152891500I0J237500D01*
G01*
X65515000Y-152416500D01*
G75*
G02*
X65752500Y-152179000I237500J0D01*
G01*
X66327500Y-152179000D01*
G75*
G02*
X66565000Y-152416500I0J-237500D01*
G01*
G37*
%TD*%
%TO.C,D8*%
G36*
G01*
X66565000Y-155718500D02*
X66565000Y-156193500D01*
G75*
G02*
X66327500Y-156431000I-237500J0D01*
G01*
X65752500Y-156431000D01*
G75*
G02*
X65515000Y-156193500I0J237500D01*
G01*
X65515000Y-155718500D01*
G75*
G02*
X65752500Y-155481000I237500J0D01*
G01*
X66327500Y-155481000D01*
G75*
G02*
X66565000Y-155718500I0J-237500D01*
G01*
G37*
G36*
G01*
X68315000Y-155718500D02*
X68315000Y-156193500D01*
G75*
G02*
X68077500Y-156431000I-237500J0D01*
G01*
X67502500Y-156431000D01*
G75*
G02*
X67265000Y-156193500I0J237500D01*
G01*
X67265000Y-155718500D01*
G75*
G02*
X67502500Y-155481000I237500J0D01*
G01*
X68077500Y-155481000D01*
G75*
G02*
X68315000Y-155718500I0J-237500D01*
G01*
G37*
%TD*%
%TO.C,D9*%
G36*
G01*
X68315000Y-157369500D02*
X68315000Y-157844500D01*
G75*
G02*
X68077500Y-158082000I-237500J0D01*
G01*
X67502500Y-158082000D01*
G75*
G02*
X67265000Y-157844500I0J237500D01*
G01*
X67265000Y-157369500D01*
G75*
G02*
X67502500Y-157132000I237500J0D01*
G01*
X68077500Y-157132000D01*
G75*
G02*
X68315000Y-157369500I0J-237500D01*
G01*
G37*
G36*
G01*
X66565000Y-157369500D02*
X66565000Y-157844500D01*
G75*
G02*
X66327500Y-158082000I-237500J0D01*
G01*
X65752500Y-158082000D01*
G75*
G02*
X65515000Y-157844500I0J237500D01*
G01*
X65515000Y-157369500D01*
G75*
G02*
X65752500Y-157132000I237500J0D01*
G01*
X66327500Y-157132000D01*
G75*
G02*
X66565000Y-157369500I0J-237500D01*
G01*
G37*
%TD*%
%TO.C,U11*%
X138586500Y-98460000D03*
G36*
G01*
X143036500Y-104135000D02*
X143036500Y-104285000D01*
G75*
G02*
X142961500Y-104360000I-75000J0D01*
G01*
X141636500Y-104360000D01*
G75*
G02*
X141561500Y-104285000I0J75000D01*
G01*
X141561500Y-104135000D01*
G75*
G02*
X141636500Y-104060000I75000J0D01*
G01*
X142961500Y-104060000D01*
G75*
G02*
X143036500Y-104135000I0J-75000D01*
G01*
G37*
G36*
G01*
X143036500Y-103635000D02*
X143036500Y-103785000D01*
G75*
G02*
X142961500Y-103860000I-75000J0D01*
G01*
X141636500Y-103860000D01*
G75*
G02*
X141561500Y-103785000I0J75000D01*
G01*
X141561500Y-103635000D01*
G75*
G02*
X141636500Y-103560000I75000J0D01*
G01*
X142961500Y-103560000D01*
G75*
G02*
X143036500Y-103635000I0J-75000D01*
G01*
G37*
G36*
G01*
X143036500Y-103135000D02*
X143036500Y-103285000D01*
G75*
G02*
X142961500Y-103360000I-75000J0D01*
G01*
X141636500Y-103360000D01*
G75*
G02*
X141561500Y-103285000I0J75000D01*
G01*
X141561500Y-103135000D01*
G75*
G02*
X141636500Y-103060000I75000J0D01*
G01*
X142961500Y-103060000D01*
G75*
G02*
X143036500Y-103135000I0J-75000D01*
G01*
G37*
G36*
G01*
X143036500Y-102635000D02*
X143036500Y-102785000D01*
G75*
G02*
X142961500Y-102860000I-75000J0D01*
G01*
X141636500Y-102860000D01*
G75*
G02*
X141561500Y-102785000I0J75000D01*
G01*
X141561500Y-102635000D01*
G75*
G02*
X141636500Y-102560000I75000J0D01*
G01*
X142961500Y-102560000D01*
G75*
G02*
X143036500Y-102635000I0J-75000D01*
G01*
G37*
G36*
G01*
X143036500Y-102135000D02*
X143036500Y-102285000D01*
G75*
G02*
X142961500Y-102360000I-75000J0D01*
G01*
X141636500Y-102360000D01*
G75*
G02*
X141561500Y-102285000I0J75000D01*
G01*
X141561500Y-102135000D01*
G75*
G02*
X141636500Y-102060000I75000J0D01*
G01*
X142961500Y-102060000D01*
G75*
G02*
X143036500Y-102135000I0J-75000D01*
G01*
G37*
G36*
G01*
X143036500Y-101635000D02*
X143036500Y-101785000D01*
G75*
G02*
X142961500Y-101860000I-75000J0D01*
G01*
X141636500Y-101860000D01*
G75*
G02*
X141561500Y-101785000I0J75000D01*
G01*
X141561500Y-101635000D01*
G75*
G02*
X141636500Y-101560000I75000J0D01*
G01*
X142961500Y-101560000D01*
G75*
G02*
X143036500Y-101635000I0J-75000D01*
G01*
G37*
G36*
G01*
X143036500Y-101135000D02*
X143036500Y-101285000D01*
G75*
G02*
X142961500Y-101360000I-75000J0D01*
G01*
X141636500Y-101360000D01*
G75*
G02*
X141561500Y-101285000I0J75000D01*
G01*
X141561500Y-101135000D01*
G75*
G02*
X141636500Y-101060000I75000J0D01*
G01*
X142961500Y-101060000D01*
G75*
G02*
X143036500Y-101135000I0J-75000D01*
G01*
G37*
G36*
G01*
X143036500Y-100635000D02*
X143036500Y-100785000D01*
G75*
G02*
X142961500Y-100860000I-75000J0D01*
G01*
X141636500Y-100860000D01*
G75*
G02*
X141561500Y-100785000I0J75000D01*
G01*
X141561500Y-100635000D01*
G75*
G02*
X141636500Y-100560000I75000J0D01*
G01*
X142961500Y-100560000D01*
G75*
G02*
X143036500Y-100635000I0J-75000D01*
G01*
G37*
G36*
G01*
X143036500Y-100135000D02*
X143036500Y-100285000D01*
G75*
G02*
X142961500Y-100360000I-75000J0D01*
G01*
X141636500Y-100360000D01*
G75*
G02*
X141561500Y-100285000I0J75000D01*
G01*
X141561500Y-100135000D01*
G75*
G02*
X141636500Y-100060000I75000J0D01*
G01*
X142961500Y-100060000D01*
G75*
G02*
X143036500Y-100135000I0J-75000D01*
G01*
G37*
G36*
G01*
X143036500Y-99635000D02*
X143036500Y-99785000D01*
G75*
G02*
X142961500Y-99860000I-75000J0D01*
G01*
X141636500Y-99860000D01*
G75*
G02*
X141561500Y-99785000I0J75000D01*
G01*
X141561500Y-99635000D01*
G75*
G02*
X141636500Y-99560000I75000J0D01*
G01*
X142961500Y-99560000D01*
G75*
G02*
X143036500Y-99635000I0J-75000D01*
G01*
G37*
G36*
G01*
X143036500Y-99135000D02*
X143036500Y-99285000D01*
G75*
G02*
X142961500Y-99360000I-75000J0D01*
G01*
X141636500Y-99360000D01*
G75*
G02*
X141561500Y-99285000I0J75000D01*
G01*
X141561500Y-99135000D01*
G75*
G02*
X141636500Y-99060000I75000J0D01*
G01*
X142961500Y-99060000D01*
G75*
G02*
X143036500Y-99135000I0J-75000D01*
G01*
G37*
G36*
G01*
X143036500Y-98635000D02*
X143036500Y-98785000D01*
G75*
G02*
X142961500Y-98860000I-75000J0D01*
G01*
X141636500Y-98860000D01*
G75*
G02*
X141561500Y-98785000I0J75000D01*
G01*
X141561500Y-98635000D01*
G75*
G02*
X141636500Y-98560000I75000J0D01*
G01*
X142961500Y-98560000D01*
G75*
G02*
X143036500Y-98635000I0J-75000D01*
G01*
G37*
G36*
G01*
X143036500Y-98135000D02*
X143036500Y-98285000D01*
G75*
G02*
X142961500Y-98360000I-75000J0D01*
G01*
X141636500Y-98360000D01*
G75*
G02*
X141561500Y-98285000I0J75000D01*
G01*
X141561500Y-98135000D01*
G75*
G02*
X141636500Y-98060000I75000J0D01*
G01*
X142961500Y-98060000D01*
G75*
G02*
X143036500Y-98135000I0J-75000D01*
G01*
G37*
G36*
G01*
X143036500Y-97635000D02*
X143036500Y-97785000D01*
G75*
G02*
X142961500Y-97860000I-75000J0D01*
G01*
X141636500Y-97860000D01*
G75*
G02*
X141561500Y-97785000I0J75000D01*
G01*
X141561500Y-97635000D01*
G75*
G02*
X141636500Y-97560000I75000J0D01*
G01*
X142961500Y-97560000D01*
G75*
G02*
X143036500Y-97635000I0J-75000D01*
G01*
G37*
G36*
G01*
X143036500Y-97135000D02*
X143036500Y-97285000D01*
G75*
G02*
X142961500Y-97360000I-75000J0D01*
G01*
X141636500Y-97360000D01*
G75*
G02*
X141561500Y-97285000I0J75000D01*
G01*
X141561500Y-97135000D01*
G75*
G02*
X141636500Y-97060000I75000J0D01*
G01*
X142961500Y-97060000D01*
G75*
G02*
X143036500Y-97135000I0J-75000D01*
G01*
G37*
G36*
G01*
X143036500Y-96635000D02*
X143036500Y-96785000D01*
G75*
G02*
X142961500Y-96860000I-75000J0D01*
G01*
X141636500Y-96860000D01*
G75*
G02*
X141561500Y-96785000I0J75000D01*
G01*
X141561500Y-96635000D01*
G75*
G02*
X141636500Y-96560000I75000J0D01*
G01*
X142961500Y-96560000D01*
G75*
G02*
X143036500Y-96635000I0J-75000D01*
G01*
G37*
G36*
G01*
X143036500Y-96135000D02*
X143036500Y-96285000D01*
G75*
G02*
X142961500Y-96360000I-75000J0D01*
G01*
X141636500Y-96360000D01*
G75*
G02*
X141561500Y-96285000I0J75000D01*
G01*
X141561500Y-96135000D01*
G75*
G02*
X141636500Y-96060000I75000J0D01*
G01*
X142961500Y-96060000D01*
G75*
G02*
X143036500Y-96135000I0J-75000D01*
G01*
G37*
G36*
G01*
X143036500Y-95635000D02*
X143036500Y-95785000D01*
G75*
G02*
X142961500Y-95860000I-75000J0D01*
G01*
X141636500Y-95860000D01*
G75*
G02*
X141561500Y-95785000I0J75000D01*
G01*
X141561500Y-95635000D01*
G75*
G02*
X141636500Y-95560000I75000J0D01*
G01*
X142961500Y-95560000D01*
G75*
G02*
X143036500Y-95635000I0J-75000D01*
G01*
G37*
G36*
G01*
X143036500Y-95135000D02*
X143036500Y-95285000D01*
G75*
G02*
X142961500Y-95360000I-75000J0D01*
G01*
X141636500Y-95360000D01*
G75*
G02*
X141561500Y-95285000I0J75000D01*
G01*
X141561500Y-95135000D01*
G75*
G02*
X141636500Y-95060000I75000J0D01*
G01*
X142961500Y-95060000D01*
G75*
G02*
X143036500Y-95135000I0J-75000D01*
G01*
G37*
G36*
G01*
X143036500Y-94635000D02*
X143036500Y-94785000D01*
G75*
G02*
X142961500Y-94860000I-75000J0D01*
G01*
X141636500Y-94860000D01*
G75*
G02*
X141561500Y-94785000I0J75000D01*
G01*
X141561500Y-94635000D01*
G75*
G02*
X141636500Y-94560000I75000J0D01*
G01*
X142961500Y-94560000D01*
G75*
G02*
X143036500Y-94635000I0J-75000D01*
G01*
G37*
G36*
G01*
X143036500Y-94135000D02*
X143036500Y-94285000D01*
G75*
G02*
X142961500Y-94360000I-75000J0D01*
G01*
X141636500Y-94360000D01*
G75*
G02*
X141561500Y-94285000I0J75000D01*
G01*
X141561500Y-94135000D01*
G75*
G02*
X141636500Y-94060000I75000J0D01*
G01*
X142961500Y-94060000D01*
G75*
G02*
X143036500Y-94135000I0J-75000D01*
G01*
G37*
G36*
G01*
X143036500Y-93635000D02*
X143036500Y-93785000D01*
G75*
G02*
X142961500Y-93860000I-75000J0D01*
G01*
X141636500Y-93860000D01*
G75*
G02*
X141561500Y-93785000I0J75000D01*
G01*
X141561500Y-93635000D01*
G75*
G02*
X141636500Y-93560000I75000J0D01*
G01*
X142961500Y-93560000D01*
G75*
G02*
X143036500Y-93635000I0J-75000D01*
G01*
G37*
G36*
G01*
X143036500Y-93135000D02*
X143036500Y-93285000D01*
G75*
G02*
X142961500Y-93360000I-75000J0D01*
G01*
X141636500Y-93360000D01*
G75*
G02*
X141561500Y-93285000I0J75000D01*
G01*
X141561500Y-93135000D01*
G75*
G02*
X141636500Y-93060000I75000J0D01*
G01*
X142961500Y-93060000D01*
G75*
G02*
X143036500Y-93135000I0J-75000D01*
G01*
G37*
G36*
G01*
X143036500Y-92635000D02*
X143036500Y-92785000D01*
G75*
G02*
X142961500Y-92860000I-75000J0D01*
G01*
X141636500Y-92860000D01*
G75*
G02*
X141561500Y-92785000I0J75000D01*
G01*
X141561500Y-92635000D01*
G75*
G02*
X141636500Y-92560000I75000J0D01*
G01*
X142961500Y-92560000D01*
G75*
G02*
X143036500Y-92635000I0J-75000D01*
G01*
G37*
G36*
G01*
X135611500Y-92635000D02*
X135611500Y-92785000D01*
G75*
G02*
X135536500Y-92860000I-75000J0D01*
G01*
X134211500Y-92860000D01*
G75*
G02*
X134136500Y-92785000I0J75000D01*
G01*
X134136500Y-92635000D01*
G75*
G02*
X134211500Y-92560000I75000J0D01*
G01*
X135536500Y-92560000D01*
G75*
G02*
X135611500Y-92635000I0J-75000D01*
G01*
G37*
G36*
G01*
X135611500Y-93135000D02*
X135611500Y-93285000D01*
G75*
G02*
X135536500Y-93360000I-75000J0D01*
G01*
X134211500Y-93360000D01*
G75*
G02*
X134136500Y-93285000I0J75000D01*
G01*
X134136500Y-93135000D01*
G75*
G02*
X134211500Y-93060000I75000J0D01*
G01*
X135536500Y-93060000D01*
G75*
G02*
X135611500Y-93135000I0J-75000D01*
G01*
G37*
G36*
G01*
X135611500Y-93635000D02*
X135611500Y-93785000D01*
G75*
G02*
X135536500Y-93860000I-75000J0D01*
G01*
X134211500Y-93860000D01*
G75*
G02*
X134136500Y-93785000I0J75000D01*
G01*
X134136500Y-93635000D01*
G75*
G02*
X134211500Y-93560000I75000J0D01*
G01*
X135536500Y-93560000D01*
G75*
G02*
X135611500Y-93635000I0J-75000D01*
G01*
G37*
G36*
G01*
X135611500Y-94135000D02*
X135611500Y-94285000D01*
G75*
G02*
X135536500Y-94360000I-75000J0D01*
G01*
X134211500Y-94360000D01*
G75*
G02*
X134136500Y-94285000I0J75000D01*
G01*
X134136500Y-94135000D01*
G75*
G02*
X134211500Y-94060000I75000J0D01*
G01*
X135536500Y-94060000D01*
G75*
G02*
X135611500Y-94135000I0J-75000D01*
G01*
G37*
G36*
G01*
X135611500Y-94635000D02*
X135611500Y-94785000D01*
G75*
G02*
X135536500Y-94860000I-75000J0D01*
G01*
X134211500Y-94860000D01*
G75*
G02*
X134136500Y-94785000I0J75000D01*
G01*
X134136500Y-94635000D01*
G75*
G02*
X134211500Y-94560000I75000J0D01*
G01*
X135536500Y-94560000D01*
G75*
G02*
X135611500Y-94635000I0J-75000D01*
G01*
G37*
G36*
G01*
X135611500Y-95135000D02*
X135611500Y-95285000D01*
G75*
G02*
X135536500Y-95360000I-75000J0D01*
G01*
X134211500Y-95360000D01*
G75*
G02*
X134136500Y-95285000I0J75000D01*
G01*
X134136500Y-95135000D01*
G75*
G02*
X134211500Y-95060000I75000J0D01*
G01*
X135536500Y-95060000D01*
G75*
G02*
X135611500Y-95135000I0J-75000D01*
G01*
G37*
G36*
G01*
X135611500Y-95635000D02*
X135611500Y-95785000D01*
G75*
G02*
X135536500Y-95860000I-75000J0D01*
G01*
X134211500Y-95860000D01*
G75*
G02*
X134136500Y-95785000I0J75000D01*
G01*
X134136500Y-95635000D01*
G75*
G02*
X134211500Y-95560000I75000J0D01*
G01*
X135536500Y-95560000D01*
G75*
G02*
X135611500Y-95635000I0J-75000D01*
G01*
G37*
G36*
G01*
X135611500Y-96135000D02*
X135611500Y-96285000D01*
G75*
G02*
X135536500Y-96360000I-75000J0D01*
G01*
X134211500Y-96360000D01*
G75*
G02*
X134136500Y-96285000I0J75000D01*
G01*
X134136500Y-96135000D01*
G75*
G02*
X134211500Y-96060000I75000J0D01*
G01*
X135536500Y-96060000D01*
G75*
G02*
X135611500Y-96135000I0J-75000D01*
G01*
G37*
G36*
G01*
X135611500Y-96635000D02*
X135611500Y-96785000D01*
G75*
G02*
X135536500Y-96860000I-75000J0D01*
G01*
X134211500Y-96860000D01*
G75*
G02*
X134136500Y-96785000I0J75000D01*
G01*
X134136500Y-96635000D01*
G75*
G02*
X134211500Y-96560000I75000J0D01*
G01*
X135536500Y-96560000D01*
G75*
G02*
X135611500Y-96635000I0J-75000D01*
G01*
G37*
G36*
G01*
X135611500Y-97135000D02*
X135611500Y-97285000D01*
G75*
G02*
X135536500Y-97360000I-75000J0D01*
G01*
X134211500Y-97360000D01*
G75*
G02*
X134136500Y-97285000I0J75000D01*
G01*
X134136500Y-97135000D01*
G75*
G02*
X134211500Y-97060000I75000J0D01*
G01*
X135536500Y-97060000D01*
G75*
G02*
X135611500Y-97135000I0J-75000D01*
G01*
G37*
G36*
G01*
X135611500Y-97635000D02*
X135611500Y-97785000D01*
G75*
G02*
X135536500Y-97860000I-75000J0D01*
G01*
X134211500Y-97860000D01*
G75*
G02*
X134136500Y-97785000I0J75000D01*
G01*
X134136500Y-97635000D01*
G75*
G02*
X134211500Y-97560000I75000J0D01*
G01*
X135536500Y-97560000D01*
G75*
G02*
X135611500Y-97635000I0J-75000D01*
G01*
G37*
G36*
G01*
X135611500Y-98135000D02*
X135611500Y-98285000D01*
G75*
G02*
X135536500Y-98360000I-75000J0D01*
G01*
X134211500Y-98360000D01*
G75*
G02*
X134136500Y-98285000I0J75000D01*
G01*
X134136500Y-98135000D01*
G75*
G02*
X134211500Y-98060000I75000J0D01*
G01*
X135536500Y-98060000D01*
G75*
G02*
X135611500Y-98135000I0J-75000D01*
G01*
G37*
G36*
G01*
X135611500Y-98635000D02*
X135611500Y-98785000D01*
G75*
G02*
X135536500Y-98860000I-75000J0D01*
G01*
X134211500Y-98860000D01*
G75*
G02*
X134136500Y-98785000I0J75000D01*
G01*
X134136500Y-98635000D01*
G75*
G02*
X134211500Y-98560000I75000J0D01*
G01*
X135536500Y-98560000D01*
G75*
G02*
X135611500Y-98635000I0J-75000D01*
G01*
G37*
G36*
G01*
X135611500Y-99135000D02*
X135611500Y-99285000D01*
G75*
G02*
X135536500Y-99360000I-75000J0D01*
G01*
X134211500Y-99360000D01*
G75*
G02*
X134136500Y-99285000I0J75000D01*
G01*
X134136500Y-99135000D01*
G75*
G02*
X134211500Y-99060000I75000J0D01*
G01*
X135536500Y-99060000D01*
G75*
G02*
X135611500Y-99135000I0J-75000D01*
G01*
G37*
G36*
G01*
X135611500Y-99635000D02*
X135611500Y-99785000D01*
G75*
G02*
X135536500Y-99860000I-75000J0D01*
G01*
X134211500Y-99860000D01*
G75*
G02*
X134136500Y-99785000I0J75000D01*
G01*
X134136500Y-99635000D01*
G75*
G02*
X134211500Y-99560000I75000J0D01*
G01*
X135536500Y-99560000D01*
G75*
G02*
X135611500Y-99635000I0J-75000D01*
G01*
G37*
G36*
G01*
X135611500Y-100135000D02*
X135611500Y-100285000D01*
G75*
G02*
X135536500Y-100360000I-75000J0D01*
G01*
X134211500Y-100360000D01*
G75*
G02*
X134136500Y-100285000I0J75000D01*
G01*
X134136500Y-100135000D01*
G75*
G02*
X134211500Y-100060000I75000J0D01*
G01*
X135536500Y-100060000D01*
G75*
G02*
X135611500Y-100135000I0J-75000D01*
G01*
G37*
G36*
G01*
X135611500Y-100635000D02*
X135611500Y-100785000D01*
G75*
G02*
X135536500Y-100860000I-75000J0D01*
G01*
X134211500Y-100860000D01*
G75*
G02*
X134136500Y-100785000I0J75000D01*
G01*
X134136500Y-100635000D01*
G75*
G02*
X134211500Y-100560000I75000J0D01*
G01*
X135536500Y-100560000D01*
G75*
G02*
X135611500Y-100635000I0J-75000D01*
G01*
G37*
G36*
G01*
X135611500Y-101135000D02*
X135611500Y-101285000D01*
G75*
G02*
X135536500Y-101360000I-75000J0D01*
G01*
X134211500Y-101360000D01*
G75*
G02*
X134136500Y-101285000I0J75000D01*
G01*
X134136500Y-101135000D01*
G75*
G02*
X134211500Y-101060000I75000J0D01*
G01*
X135536500Y-101060000D01*
G75*
G02*
X135611500Y-101135000I0J-75000D01*
G01*
G37*
G36*
G01*
X135611500Y-101635000D02*
X135611500Y-101785000D01*
G75*
G02*
X135536500Y-101860000I-75000J0D01*
G01*
X134211500Y-101860000D01*
G75*
G02*
X134136500Y-101785000I0J75000D01*
G01*
X134136500Y-101635000D01*
G75*
G02*
X134211500Y-101560000I75000J0D01*
G01*
X135536500Y-101560000D01*
G75*
G02*
X135611500Y-101635000I0J-75000D01*
G01*
G37*
G36*
G01*
X135611500Y-102135000D02*
X135611500Y-102285000D01*
G75*
G02*
X135536500Y-102360000I-75000J0D01*
G01*
X134211500Y-102360000D01*
G75*
G02*
X134136500Y-102285000I0J75000D01*
G01*
X134136500Y-102135000D01*
G75*
G02*
X134211500Y-102060000I75000J0D01*
G01*
X135536500Y-102060000D01*
G75*
G02*
X135611500Y-102135000I0J-75000D01*
G01*
G37*
G36*
G01*
X135611500Y-102635000D02*
X135611500Y-102785000D01*
G75*
G02*
X135536500Y-102860000I-75000J0D01*
G01*
X134211500Y-102860000D01*
G75*
G02*
X134136500Y-102785000I0J75000D01*
G01*
X134136500Y-102635000D01*
G75*
G02*
X134211500Y-102560000I75000J0D01*
G01*
X135536500Y-102560000D01*
G75*
G02*
X135611500Y-102635000I0J-75000D01*
G01*
G37*
G36*
G01*
X135611500Y-103135000D02*
X135611500Y-103285000D01*
G75*
G02*
X135536500Y-103360000I-75000J0D01*
G01*
X134211500Y-103360000D01*
G75*
G02*
X134136500Y-103285000I0J75000D01*
G01*
X134136500Y-103135000D01*
G75*
G02*
X134211500Y-103060000I75000J0D01*
G01*
X135536500Y-103060000D01*
G75*
G02*
X135611500Y-103135000I0J-75000D01*
G01*
G37*
G36*
G01*
X135611500Y-103635000D02*
X135611500Y-103785000D01*
G75*
G02*
X135536500Y-103860000I-75000J0D01*
G01*
X134211500Y-103860000D01*
G75*
G02*
X134136500Y-103785000I0J75000D01*
G01*
X134136500Y-103635000D01*
G75*
G02*
X134211500Y-103560000I75000J0D01*
G01*
X135536500Y-103560000D01*
G75*
G02*
X135611500Y-103635000I0J-75000D01*
G01*
G37*
G36*
G01*
X135611500Y-104135000D02*
X135611500Y-104285000D01*
G75*
G02*
X135536500Y-104360000I-75000J0D01*
G01*
X134211500Y-104360000D01*
G75*
G02*
X134136500Y-104285000I0J75000D01*
G01*
X134136500Y-104135000D01*
G75*
G02*
X134211500Y-104060000I75000J0D01*
G01*
X135536500Y-104060000D01*
G75*
G02*
X135611500Y-104135000I0J-75000D01*
G01*
G37*
%TD*%
%TO.C,C1*%
G36*
G01*
X68596500Y-144763000D02*
X69071500Y-144763000D01*
G75*
G02*
X69309000Y-145000500I0J-237500D01*
G01*
X69309000Y-145575500D01*
G75*
G02*
X69071500Y-145813000I-237500J0D01*
G01*
X68596500Y-145813000D01*
G75*
G02*
X68359000Y-145575500I0J237500D01*
G01*
X68359000Y-145000500D01*
G75*
G02*
X68596500Y-144763000I237500J0D01*
G01*
G37*
G36*
G01*
X68596500Y-146513000D02*
X69071500Y-146513000D01*
G75*
G02*
X69309000Y-146750500I0J-237500D01*
G01*
X69309000Y-147325500D01*
G75*
G02*
X69071500Y-147563000I-237500J0D01*
G01*
X68596500Y-147563000D01*
G75*
G02*
X68359000Y-147325500I0J237500D01*
G01*
X68359000Y-146750500D01*
G75*
G02*
X68596500Y-146513000I237500J0D01*
G01*
G37*
%TD*%
%TO.C,C3*%
G36*
G01*
X49513500Y-142031000D02*
X49038500Y-142031000D01*
G75*
G02*
X48801000Y-141793500I0J237500D01*
G01*
X48801000Y-141218500D01*
G75*
G02*
X49038500Y-140981000I237500J0D01*
G01*
X49513500Y-140981000D01*
G75*
G02*
X49751000Y-141218500I0J-237500D01*
G01*
X49751000Y-141793500D01*
G75*
G02*
X49513500Y-142031000I-237500J0D01*
G01*
G37*
G36*
G01*
X49513500Y-143781000D02*
X49038500Y-143781000D01*
G75*
G02*
X48801000Y-143543500I0J237500D01*
G01*
X48801000Y-142968500D01*
G75*
G02*
X49038500Y-142731000I237500J0D01*
G01*
X49513500Y-142731000D01*
G75*
G02*
X49751000Y-142968500I0J-237500D01*
G01*
X49751000Y-143543500D01*
G75*
G02*
X49513500Y-143781000I-237500J0D01*
G01*
G37*
%TD*%
%TO.C,C4*%
G36*
G01*
X49038500Y-164547000D02*
X49513500Y-164547000D01*
G75*
G02*
X49751000Y-164784500I0J-237500D01*
G01*
X49751000Y-165359500D01*
G75*
G02*
X49513500Y-165597000I-237500J0D01*
G01*
X49038500Y-165597000D01*
G75*
G02*
X48801000Y-165359500I0J237500D01*
G01*
X48801000Y-164784500D01*
G75*
G02*
X49038500Y-164547000I237500J0D01*
G01*
G37*
G36*
G01*
X49038500Y-162797000D02*
X49513500Y-162797000D01*
G75*
G02*
X49751000Y-163034500I0J-237500D01*
G01*
X49751000Y-163609500D01*
G75*
G02*
X49513500Y-163847000I-237500J0D01*
G01*
X49038500Y-163847000D01*
G75*
G02*
X48801000Y-163609500I0J237500D01*
G01*
X48801000Y-163034500D01*
G75*
G02*
X49038500Y-162797000I237500J0D01*
G01*
G37*
%TD*%
%TO.C,C5*%
G36*
G01*
X130826500Y-141179000D02*
X131301500Y-141179000D01*
G75*
G02*
X131539000Y-141416500I0J-237500D01*
G01*
X131539000Y-141991500D01*
G75*
G02*
X131301500Y-142229000I-237500J0D01*
G01*
X130826500Y-142229000D01*
G75*
G02*
X130589000Y-141991500I0J237500D01*
G01*
X130589000Y-141416500D01*
G75*
G02*
X130826500Y-141179000I237500J0D01*
G01*
G37*
G36*
G01*
X130826500Y-139429000D02*
X131301500Y-139429000D01*
G75*
G02*
X131539000Y-139666500I0J-237500D01*
G01*
X131539000Y-140241500D01*
G75*
G02*
X131301500Y-140479000I-237500J0D01*
G01*
X130826500Y-140479000D01*
G75*
G02*
X130589000Y-140241500I0J237500D01*
G01*
X130589000Y-139666500D01*
G75*
G02*
X130826500Y-139429000I237500J0D01*
G01*
G37*
%TD*%
%TO.C,C6*%
G36*
G01*
X32241500Y-105963000D02*
X31766500Y-105963000D01*
G75*
G02*
X31529000Y-105725500I0J237500D01*
G01*
X31529000Y-105150500D01*
G75*
G02*
X31766500Y-104913000I237500J0D01*
G01*
X32241500Y-104913000D01*
G75*
G02*
X32479000Y-105150500I0J-237500D01*
G01*
X32479000Y-105725500D01*
G75*
G02*
X32241500Y-105963000I-237500J0D01*
G01*
G37*
G36*
G01*
X32241500Y-107713000D02*
X31766500Y-107713000D01*
G75*
G02*
X31529000Y-107475500I0J237500D01*
G01*
X31529000Y-106900500D01*
G75*
G02*
X31766500Y-106663000I237500J0D01*
G01*
X32241500Y-106663000D01*
G75*
G02*
X32479000Y-106900500I0J-237500D01*
G01*
X32479000Y-107475500D01*
G75*
G02*
X32241500Y-107713000I-237500J0D01*
G01*
G37*
%TD*%
%TO.C,C7*%
G36*
G01*
X48215000Y-172322500D02*
X48215000Y-171847500D01*
G75*
G02*
X48452500Y-171610000I237500J0D01*
G01*
X49027500Y-171610000D01*
G75*
G02*
X49265000Y-171847500I0J-237500D01*
G01*
X49265000Y-172322500D01*
G75*
G02*
X49027500Y-172560000I-237500J0D01*
G01*
X48452500Y-172560000D01*
G75*
G02*
X48215000Y-172322500I0J237500D01*
G01*
G37*
G36*
G01*
X46465000Y-172322500D02*
X46465000Y-171847500D01*
G75*
G02*
X46702500Y-171610000I237500J0D01*
G01*
X47277500Y-171610000D01*
G75*
G02*
X47515000Y-171847500I0J-237500D01*
G01*
X47515000Y-172322500D01*
G75*
G02*
X47277500Y-172560000I-237500J0D01*
G01*
X46702500Y-172560000D01*
G75*
G02*
X46465000Y-172322500I0J237500D01*
G01*
G37*
%TD*%
%TO.C,C8*%
G36*
G01*
X129015000Y-144509500D02*
X129015000Y-144034500D01*
G75*
G02*
X129252500Y-143797000I237500J0D01*
G01*
X129827500Y-143797000D01*
G75*
G02*
X130065000Y-144034500I0J-237500D01*
G01*
X130065000Y-144509500D01*
G75*
G02*
X129827500Y-144747000I-237500J0D01*
G01*
X129252500Y-144747000D01*
G75*
G02*
X129015000Y-144509500I0J237500D01*
G01*
G37*
G36*
G01*
X130765000Y-144509500D02*
X130765000Y-144034500D01*
G75*
G02*
X131002500Y-143797000I237500J0D01*
G01*
X131577500Y-143797000D01*
G75*
G02*
X131815000Y-144034500I0J-237500D01*
G01*
X131815000Y-144509500D01*
G75*
G02*
X131577500Y-144747000I-237500J0D01*
G01*
X131002500Y-144747000D01*
G75*
G02*
X130765000Y-144509500I0J237500D01*
G01*
G37*
%TD*%
%TO.C,C9*%
G36*
G01*
X83201500Y-146513000D02*
X83676500Y-146513000D01*
G75*
G02*
X83914000Y-146750500I0J-237500D01*
G01*
X83914000Y-147325500D01*
G75*
G02*
X83676500Y-147563000I-237500J0D01*
G01*
X83201500Y-147563000D01*
G75*
G02*
X82964000Y-147325500I0J237500D01*
G01*
X82964000Y-146750500D01*
G75*
G02*
X83201500Y-146513000I237500J0D01*
G01*
G37*
G36*
G01*
X83201500Y-144763000D02*
X83676500Y-144763000D01*
G75*
G02*
X83914000Y-145000500I0J-237500D01*
G01*
X83914000Y-145575500D01*
G75*
G02*
X83676500Y-145813000I-237500J0D01*
G01*
X83201500Y-145813000D01*
G75*
G02*
X82964000Y-145575500I0J237500D01*
G01*
X82964000Y-145000500D01*
G75*
G02*
X83201500Y-144763000I237500J0D01*
G01*
G37*
%TD*%
%TO.C,C11*%
G36*
G01*
X97933500Y-144763000D02*
X98408500Y-144763000D01*
G75*
G02*
X98646000Y-145000500I0J-237500D01*
G01*
X98646000Y-145575500D01*
G75*
G02*
X98408500Y-145813000I-237500J0D01*
G01*
X97933500Y-145813000D01*
G75*
G02*
X97696000Y-145575500I0J237500D01*
G01*
X97696000Y-145000500D01*
G75*
G02*
X97933500Y-144763000I237500J0D01*
G01*
G37*
G36*
G01*
X97933500Y-146513000D02*
X98408500Y-146513000D01*
G75*
G02*
X98646000Y-146750500I0J-237500D01*
G01*
X98646000Y-147325500D01*
G75*
G02*
X98408500Y-147563000I-237500J0D01*
G01*
X97933500Y-147563000D01*
G75*
G02*
X97696000Y-147325500I0J237500D01*
G01*
X97696000Y-146750500D01*
G75*
G02*
X97933500Y-146513000I237500J0D01*
G01*
G37*
%TD*%
%TO.C,C13*%
G36*
G01*
X49292500Y-150605000D02*
X49767500Y-150605000D01*
G75*
G02*
X50005000Y-150842500I0J-237500D01*
G01*
X50005000Y-151417500D01*
G75*
G02*
X49767500Y-151655000I-237500J0D01*
G01*
X49292500Y-151655000D01*
G75*
G02*
X49055000Y-151417500I0J237500D01*
G01*
X49055000Y-150842500D01*
G75*
G02*
X49292500Y-150605000I237500J0D01*
G01*
G37*
G36*
G01*
X49292500Y-152355000D02*
X49767500Y-152355000D01*
G75*
G02*
X50005000Y-152592500I0J-237500D01*
G01*
X50005000Y-153167500D01*
G75*
G02*
X49767500Y-153405000I-237500J0D01*
G01*
X49292500Y-153405000D01*
G75*
G02*
X49055000Y-153167500I0J237500D01*
G01*
X49055000Y-152592500D01*
G75*
G02*
X49292500Y-152355000I237500J0D01*
G01*
G37*
%TD*%
%TO.C,D1*%
G36*
G01*
X55488000Y-97552500D02*
X55488000Y-98027500D01*
G75*
G02*
X55250500Y-98265000I-237500J0D01*
G01*
X54675500Y-98265000D01*
G75*
G02*
X54438000Y-98027500I0J237500D01*
G01*
X54438000Y-97552500D01*
G75*
G02*
X54675500Y-97315000I237500J0D01*
G01*
X55250500Y-97315000D01*
G75*
G02*
X55488000Y-97552500I0J-237500D01*
G01*
G37*
G36*
G01*
X53738000Y-97552500D02*
X53738000Y-98027500D01*
G75*
G02*
X53500500Y-98265000I-237500J0D01*
G01*
X52925500Y-98265000D01*
G75*
G02*
X52688000Y-98027500I0J237500D01*
G01*
X52688000Y-97552500D01*
G75*
G02*
X52925500Y-97315000I237500J0D01*
G01*
X53500500Y-97315000D01*
G75*
G02*
X53738000Y-97552500I0J-237500D01*
G01*
G37*
%TD*%
%TO.C,D2*%
G36*
G01*
X108475000Y-97552500D02*
X108475000Y-98027500D01*
G75*
G02*
X108237500Y-98265000I-237500J0D01*
G01*
X107662500Y-98265000D01*
G75*
G02*
X107425000Y-98027500I0J237500D01*
G01*
X107425000Y-97552500D01*
G75*
G02*
X107662500Y-97315000I237500J0D01*
G01*
X108237500Y-97315000D01*
G75*
G02*
X108475000Y-97552500I0J-237500D01*
G01*
G37*
G36*
G01*
X110225000Y-97552500D02*
X110225000Y-98027500D01*
G75*
G02*
X109987500Y-98265000I-237500J0D01*
G01*
X109412500Y-98265000D01*
G75*
G02*
X109175000Y-98027500I0J237500D01*
G01*
X109175000Y-97552500D01*
G75*
G02*
X109412500Y-97315000I237500J0D01*
G01*
X109987500Y-97315000D01*
G75*
G02*
X110225000Y-97552500I0J-237500D01*
G01*
G37*
%TD*%
%TO.C,D5*%
G36*
G01*
X66565000Y-150765500D02*
X66565000Y-151240500D01*
G75*
G02*
X66327500Y-151478000I-237500J0D01*
G01*
X65752500Y-151478000D01*
G75*
G02*
X65515000Y-151240500I0J237500D01*
G01*
X65515000Y-150765500D01*
G75*
G02*
X65752500Y-150528000I237500J0D01*
G01*
X66327500Y-150528000D01*
G75*
G02*
X66565000Y-150765500I0J-237500D01*
G01*
G37*
G36*
G01*
X68315000Y-150765500D02*
X68315000Y-151240500D01*
G75*
G02*
X68077500Y-151478000I-237500J0D01*
G01*
X67502500Y-151478000D01*
G75*
G02*
X67265000Y-151240500I0J237500D01*
G01*
X67265000Y-150765500D01*
G75*
G02*
X67502500Y-150528000I237500J0D01*
G01*
X68077500Y-150528000D01*
G75*
G02*
X68315000Y-150765500I0J-237500D01*
G01*
G37*
%TD*%
%TO.C,D7*%
G36*
G01*
X77961000Y-153145500D02*
X77961000Y-152670500D01*
G75*
G02*
X78198500Y-152433000I237500J0D01*
G01*
X78773500Y-152433000D01*
G75*
G02*
X79011000Y-152670500I0J-237500D01*
G01*
X79011000Y-153145500D01*
G75*
G02*
X78773500Y-153383000I-237500J0D01*
G01*
X78198500Y-153383000D01*
G75*
G02*
X77961000Y-153145500I0J237500D01*
G01*
G37*
G36*
G01*
X79711000Y-153145500D02*
X79711000Y-152670500D01*
G75*
G02*
X79948500Y-152433000I237500J0D01*
G01*
X80523500Y-152433000D01*
G75*
G02*
X80761000Y-152670500I0J-237500D01*
G01*
X80761000Y-153145500D01*
G75*
G02*
X80523500Y-153383000I-237500J0D01*
G01*
X79948500Y-153383000D01*
G75*
G02*
X79711000Y-153145500I0J237500D01*
G01*
G37*
%TD*%
%TO.C,D14*%
G36*
G01*
X94471000Y-153145500D02*
X94471000Y-152670500D01*
G75*
G02*
X94708500Y-152433000I237500J0D01*
G01*
X95283500Y-152433000D01*
G75*
G02*
X95521000Y-152670500I0J-237500D01*
G01*
X95521000Y-153145500D01*
G75*
G02*
X95283500Y-153383000I-237500J0D01*
G01*
X94708500Y-153383000D01*
G75*
G02*
X94471000Y-153145500I0J237500D01*
G01*
G37*
G36*
G01*
X92721000Y-153145500D02*
X92721000Y-152670500D01*
G75*
G02*
X92958500Y-152433000I237500J0D01*
G01*
X93533500Y-152433000D01*
G75*
G02*
X93771000Y-152670500I0J-237500D01*
G01*
X93771000Y-153145500D01*
G75*
G02*
X93533500Y-153383000I-237500J0D01*
G01*
X92958500Y-153383000D01*
G75*
G02*
X92721000Y-153145500I0J237500D01*
G01*
G37*
%TD*%
%TO.C,D15*%
G36*
G01*
X146801000Y-97552500D02*
X146801000Y-98027500D01*
G75*
G02*
X146563500Y-98265000I-237500J0D01*
G01*
X145988500Y-98265000D01*
G75*
G02*
X145751000Y-98027500I0J237500D01*
G01*
X145751000Y-97552500D01*
G75*
G02*
X145988500Y-97315000I237500J0D01*
G01*
X146563500Y-97315000D01*
G75*
G02*
X146801000Y-97552500I0J-237500D01*
G01*
G37*
G36*
G01*
X145051000Y-97552500D02*
X145051000Y-98027500D01*
G75*
G02*
X144813500Y-98265000I-237500J0D01*
G01*
X144238500Y-98265000D01*
G75*
G02*
X144001000Y-98027500I0J237500D01*
G01*
X144001000Y-97552500D01*
G75*
G02*
X144238500Y-97315000I237500J0D01*
G01*
X144813500Y-97315000D01*
G75*
G02*
X145051000Y-97552500I0J-237500D01*
G01*
G37*
%TD*%
%TO.C,D16*%
G36*
G01*
X128513000Y-97552500D02*
X128513000Y-98027500D01*
G75*
G02*
X128275500Y-98265000I-237500J0D01*
G01*
X127700500Y-98265000D01*
G75*
G02*
X127463000Y-98027500I0J237500D01*
G01*
X127463000Y-97552500D01*
G75*
G02*
X127700500Y-97315000I237500J0D01*
G01*
X128275500Y-97315000D01*
G75*
G02*
X128513000Y-97552500I0J-237500D01*
G01*
G37*
G36*
G01*
X126763000Y-97552500D02*
X126763000Y-98027500D01*
G75*
G02*
X126525500Y-98265000I-237500J0D01*
G01*
X125950500Y-98265000D01*
G75*
G02*
X125713000Y-98027500I0J237500D01*
G01*
X125713000Y-97552500D01*
G75*
G02*
X125950500Y-97315000I237500J0D01*
G01*
X126525500Y-97315000D01*
G75*
G02*
X126763000Y-97552500I0J-237500D01*
G01*
G37*
%TD*%
%TO.C,D17*%
G36*
G01*
X117365000Y-164608500D02*
X117365000Y-165083500D01*
G75*
G02*
X117127500Y-165321000I-237500J0D01*
G01*
X116552500Y-165321000D01*
G75*
G02*
X116315000Y-165083500I0J237500D01*
G01*
X116315000Y-164608500D01*
G75*
G02*
X116552500Y-164371000I237500J0D01*
G01*
X117127500Y-164371000D01*
G75*
G02*
X117365000Y-164608500I0J-237500D01*
G01*
G37*
G36*
G01*
X119115000Y-164608500D02*
X119115000Y-165083500D01*
G75*
G02*
X118877500Y-165321000I-237500J0D01*
G01*
X118302500Y-165321000D01*
G75*
G02*
X118065000Y-165083500I0J237500D01*
G01*
X118065000Y-164608500D01*
G75*
G02*
X118302500Y-164371000I237500J0D01*
G01*
X118877500Y-164371000D01*
G75*
G02*
X119115000Y-164608500I0J-237500D01*
G01*
G37*
%TD*%
%TO.C,D18*%
G36*
G01*
X119115000Y-162830500D02*
X119115000Y-163305500D01*
G75*
G02*
X118877500Y-163543000I-237500J0D01*
G01*
X118302500Y-163543000D01*
G75*
G02*
X118065000Y-163305500I0J237500D01*
G01*
X118065000Y-162830500D01*
G75*
G02*
X118302500Y-162593000I237500J0D01*
G01*
X118877500Y-162593000D01*
G75*
G02*
X119115000Y-162830500I0J-237500D01*
G01*
G37*
G36*
G01*
X117365000Y-162830500D02*
X117365000Y-163305500D01*
G75*
G02*
X117127500Y-163543000I-237500J0D01*
G01*
X116552500Y-163543000D01*
G75*
G02*
X116315000Y-163305500I0J237500D01*
G01*
X116315000Y-162830500D01*
G75*
G02*
X116552500Y-162593000I237500J0D01*
G01*
X117127500Y-162593000D01*
G75*
G02*
X117365000Y-162830500I0J-237500D01*
G01*
G37*
%TD*%
%TO.C,D22*%
G36*
G01*
X109175000Y-152891500D02*
X109175000Y-152416500D01*
G75*
G02*
X109412500Y-152179000I237500J0D01*
G01*
X109987500Y-152179000D01*
G75*
G02*
X110225000Y-152416500I0J-237500D01*
G01*
X110225000Y-152891500D01*
G75*
G02*
X109987500Y-153129000I-237500J0D01*
G01*
X109412500Y-153129000D01*
G75*
G02*
X109175000Y-152891500I0J237500D01*
G01*
G37*
G36*
G01*
X107425000Y-152891500D02*
X107425000Y-152416500D01*
G75*
G02*
X107662500Y-152179000I237500J0D01*
G01*
X108237500Y-152179000D01*
G75*
G02*
X108475000Y-152416500I0J-237500D01*
G01*
X108475000Y-152891500D01*
G75*
G02*
X108237500Y-153129000I-237500J0D01*
G01*
X107662500Y-153129000D01*
G75*
G02*
X107425000Y-152891500I0J237500D01*
G01*
G37*
%TD*%
%TO.C,D23*%
G36*
G01*
X113555000Y-181626500D02*
X113555000Y-182101500D01*
G75*
G02*
X113317500Y-182339000I-237500J0D01*
G01*
X112742500Y-182339000D01*
G75*
G02*
X112505000Y-182101500I0J237500D01*
G01*
X112505000Y-181626500D01*
G75*
G02*
X112742500Y-181389000I237500J0D01*
G01*
X113317500Y-181389000D01*
G75*
G02*
X113555000Y-181626500I0J-237500D01*
G01*
G37*
G36*
G01*
X115305000Y-181626500D02*
X115305000Y-182101500D01*
G75*
G02*
X115067500Y-182339000I-237500J0D01*
G01*
X114492500Y-182339000D01*
G75*
G02*
X114255000Y-182101500I0J237500D01*
G01*
X114255000Y-181626500D01*
G75*
G02*
X114492500Y-181389000I237500J0D01*
G01*
X115067500Y-181389000D01*
G75*
G02*
X115305000Y-181626500I0J-237500D01*
G01*
G37*
%TD*%
%TO.C,D24*%
G36*
G01*
X115305000Y-179848500D02*
X115305000Y-180323500D01*
G75*
G02*
X115067500Y-180561000I-237500J0D01*
G01*
X114492500Y-180561000D01*
G75*
G02*
X114255000Y-180323500I0J237500D01*
G01*
X114255000Y-179848500D01*
G75*
G02*
X114492500Y-179611000I237500J0D01*
G01*
X115067500Y-179611000D01*
G75*
G02*
X115305000Y-179848500I0J-237500D01*
G01*
G37*
G36*
G01*
X113555000Y-179848500D02*
X113555000Y-180323500D01*
G75*
G02*
X113317500Y-180561000I-237500J0D01*
G01*
X112742500Y-180561000D01*
G75*
G02*
X112505000Y-180323500I0J237500D01*
G01*
X112505000Y-179848500D01*
G75*
G02*
X112742500Y-179611000I237500J0D01*
G01*
X113317500Y-179611000D01*
G75*
G02*
X113555000Y-179848500I0J-237500D01*
G01*
G37*
%TD*%
%TO.C,D25*%
G36*
G01*
X91810000Y-97552500D02*
X91810000Y-98027500D01*
G75*
G02*
X91572500Y-98265000I-237500J0D01*
G01*
X90997500Y-98265000D01*
G75*
G02*
X90760000Y-98027500I0J237500D01*
G01*
X90760000Y-97552500D01*
G75*
G02*
X90997500Y-97315000I237500J0D01*
G01*
X91572500Y-97315000D01*
G75*
G02*
X91810000Y-97552500I0J-237500D01*
G01*
G37*
G36*
G01*
X90060000Y-97552500D02*
X90060000Y-98027500D01*
G75*
G02*
X89822500Y-98265000I-237500J0D01*
G01*
X89247500Y-98265000D01*
G75*
G02*
X89010000Y-98027500I0J237500D01*
G01*
X89010000Y-97552500D01*
G75*
G02*
X89247500Y-97315000I237500J0D01*
G01*
X89822500Y-97315000D01*
G75*
G02*
X90060000Y-97552500I0J-237500D01*
G01*
G37*
%TD*%
%TO.C,D26*%
G36*
G01*
X73649000Y-97552500D02*
X73649000Y-98027500D01*
G75*
G02*
X73411500Y-98265000I-237500J0D01*
G01*
X72836500Y-98265000D01*
G75*
G02*
X72599000Y-98027500I0J237500D01*
G01*
X72599000Y-97552500D01*
G75*
G02*
X72836500Y-97315000I237500J0D01*
G01*
X73411500Y-97315000D01*
G75*
G02*
X73649000Y-97552500I0J-237500D01*
G01*
G37*
G36*
G01*
X71899000Y-97552500D02*
X71899000Y-98027500D01*
G75*
G02*
X71661500Y-98265000I-237500J0D01*
G01*
X71086500Y-98265000D01*
G75*
G02*
X70849000Y-98027500I0J237500D01*
G01*
X70849000Y-97552500D01*
G75*
G02*
X71086500Y-97315000I237500J0D01*
G01*
X71661500Y-97315000D01*
G75*
G02*
X71899000Y-97552500I0J-237500D01*
G01*
G37*
%TD*%
%TO.C,D29*%
G36*
G01*
X115305000Y-178070500D02*
X115305000Y-178545500D01*
G75*
G02*
X115067500Y-178783000I-237500J0D01*
G01*
X114492500Y-178783000D01*
G75*
G02*
X114255000Y-178545500I0J237500D01*
G01*
X114255000Y-178070500D01*
G75*
G02*
X114492500Y-177833000I237500J0D01*
G01*
X115067500Y-177833000D01*
G75*
G02*
X115305000Y-178070500I0J-237500D01*
G01*
G37*
G36*
G01*
X113555000Y-178070500D02*
X113555000Y-178545500D01*
G75*
G02*
X113317500Y-178783000I-237500J0D01*
G01*
X112742500Y-178783000D01*
G75*
G02*
X112505000Y-178545500I0J237500D01*
G01*
X112505000Y-178070500D01*
G75*
G02*
X112742500Y-177833000I237500J0D01*
G01*
X113317500Y-177833000D01*
G75*
G02*
X113555000Y-178070500I0J-237500D01*
G01*
G37*
%TD*%
%TO.C,D30*%
G36*
G01*
X113555000Y-176292500D02*
X113555000Y-176767500D01*
G75*
G02*
X113317500Y-177005000I-237500J0D01*
G01*
X112742500Y-177005000D01*
G75*
G02*
X112505000Y-176767500I0J237500D01*
G01*
X112505000Y-176292500D01*
G75*
G02*
X112742500Y-176055000I237500J0D01*
G01*
X113317500Y-176055000D01*
G75*
G02*
X113555000Y-176292500I0J-237500D01*
G01*
G37*
G36*
G01*
X115305000Y-176292500D02*
X115305000Y-176767500D01*
G75*
G02*
X115067500Y-177005000I-237500J0D01*
G01*
X114492500Y-177005000D01*
G75*
G02*
X114255000Y-176767500I0J237500D01*
G01*
X114255000Y-176292500D01*
G75*
G02*
X114492500Y-176055000I237500J0D01*
G01*
X115067500Y-176055000D01*
G75*
G02*
X115305000Y-176292500I0J-237500D01*
G01*
G37*
%TD*%
%TO.C,D31*%
G36*
G01*
X113555000Y-174514500D02*
X113555000Y-174989500D01*
G75*
G02*
X113317500Y-175227000I-237500J0D01*
G01*
X112742500Y-175227000D01*
G75*
G02*
X112505000Y-174989500I0J237500D01*
G01*
X112505000Y-174514500D01*
G75*
G02*
X112742500Y-174277000I237500J0D01*
G01*
X113317500Y-174277000D01*
G75*
G02*
X113555000Y-174514500I0J-237500D01*
G01*
G37*
G36*
G01*
X115305000Y-174514500D02*
X115305000Y-174989500D01*
G75*
G02*
X115067500Y-175227000I-237500J0D01*
G01*
X114492500Y-175227000D01*
G75*
G02*
X114255000Y-174989500I0J237500D01*
G01*
X114255000Y-174514500D01*
G75*
G02*
X114492500Y-174277000I237500J0D01*
G01*
X115067500Y-174277000D01*
G75*
G02*
X115305000Y-174514500I0J-237500D01*
G01*
G37*
%TD*%
%TO.C,D32*%
G36*
G01*
X113555000Y-172736500D02*
X113555000Y-173211500D01*
G75*
G02*
X113317500Y-173449000I-237500J0D01*
G01*
X112742500Y-173449000D01*
G75*
G02*
X112505000Y-173211500I0J237500D01*
G01*
X112505000Y-172736500D01*
G75*
G02*
X112742500Y-172499000I237500J0D01*
G01*
X113317500Y-172499000D01*
G75*
G02*
X113555000Y-172736500I0J-237500D01*
G01*
G37*
G36*
G01*
X115305000Y-172736500D02*
X115305000Y-173211500D01*
G75*
G02*
X115067500Y-173449000I-237500J0D01*
G01*
X114492500Y-173449000D01*
G75*
G02*
X114255000Y-173211500I0J237500D01*
G01*
X114255000Y-172736500D01*
G75*
G02*
X114492500Y-172499000I237500J0D01*
G01*
X115067500Y-172499000D01*
G75*
G02*
X115305000Y-172736500I0J-237500D01*
G01*
G37*
%TD*%
%TO.C,R1*%
G36*
G01*
X52688000Y-99805500D02*
X52688000Y-99330500D01*
G75*
G02*
X52925500Y-99093000I237500J0D01*
G01*
X53500500Y-99093000D01*
G75*
G02*
X53738000Y-99330500I0J-237500D01*
G01*
X53738000Y-99805500D01*
G75*
G02*
X53500500Y-100043000I-237500J0D01*
G01*
X52925500Y-100043000D01*
G75*
G02*
X52688000Y-99805500I0J237500D01*
G01*
G37*
G36*
G01*
X54438000Y-99805500D02*
X54438000Y-99330500D01*
G75*
G02*
X54675500Y-99093000I237500J0D01*
G01*
X55250500Y-99093000D01*
G75*
G02*
X55488000Y-99330500I0J-237500D01*
G01*
X55488000Y-99805500D01*
G75*
G02*
X55250500Y-100043000I-237500J0D01*
G01*
X54675500Y-100043000D01*
G75*
G02*
X54438000Y-99805500I0J237500D01*
G01*
G37*
%TD*%
%TO.C,R2*%
G36*
G01*
X107453000Y-99805500D02*
X107453000Y-99330500D01*
G75*
G02*
X107690500Y-99093000I237500J0D01*
G01*
X108265500Y-99093000D01*
G75*
G02*
X108503000Y-99330500I0J-237500D01*
G01*
X108503000Y-99805500D01*
G75*
G02*
X108265500Y-100043000I-237500J0D01*
G01*
X107690500Y-100043000D01*
G75*
G02*
X107453000Y-99805500I0J237500D01*
G01*
G37*
G36*
G01*
X109203000Y-99805500D02*
X109203000Y-99330500D01*
G75*
G02*
X109440500Y-99093000I237500J0D01*
G01*
X110015500Y-99093000D01*
G75*
G02*
X110253000Y-99330500I0J-237500D01*
G01*
X110253000Y-99805500D01*
G75*
G02*
X110015500Y-100043000I-237500J0D01*
G01*
X109440500Y-100043000D01*
G75*
G02*
X109203000Y-99805500I0J237500D01*
G01*
G37*
%TD*%
%TO.C,R3*%
G36*
G01*
X70374500Y-146513000D02*
X70849500Y-146513000D01*
G75*
G02*
X71087000Y-146750500I0J-237500D01*
G01*
X71087000Y-147325500D01*
G75*
G02*
X70849500Y-147563000I-237500J0D01*
G01*
X70374500Y-147563000D01*
G75*
G02*
X70137000Y-147325500I0J237500D01*
G01*
X70137000Y-146750500D01*
G75*
G02*
X70374500Y-146513000I237500J0D01*
G01*
G37*
G36*
G01*
X70374500Y-144763000D02*
X70849500Y-144763000D01*
G75*
G02*
X71087000Y-145000500I0J-237500D01*
G01*
X71087000Y-145575500D01*
G75*
G02*
X70849500Y-145813000I-237500J0D01*
G01*
X70374500Y-145813000D01*
G75*
G02*
X70137000Y-145575500I0J237500D01*
G01*
X70137000Y-145000500D01*
G75*
G02*
X70374500Y-144763000I237500J0D01*
G01*
G37*
%TD*%
%TO.C,R6*%
G36*
G01*
X63009000Y-150765500D02*
X63009000Y-151240500D01*
G75*
G02*
X62771500Y-151478000I-237500J0D01*
G01*
X62196500Y-151478000D01*
G75*
G02*
X61959000Y-151240500I0J237500D01*
G01*
X61959000Y-150765500D01*
G75*
G02*
X62196500Y-150528000I237500J0D01*
G01*
X62771500Y-150528000D01*
G75*
G02*
X63009000Y-150765500I0J-237500D01*
G01*
G37*
G36*
G01*
X64759000Y-150765500D02*
X64759000Y-151240500D01*
G75*
G02*
X64521500Y-151478000I-237500J0D01*
G01*
X63946500Y-151478000D01*
G75*
G02*
X63709000Y-151240500I0J237500D01*
G01*
X63709000Y-150765500D01*
G75*
G02*
X63946500Y-150528000I237500J0D01*
G01*
X64521500Y-150528000D01*
G75*
G02*
X64759000Y-150765500I0J-237500D01*
G01*
G37*
%TD*%
%TO.C,R7*%
G36*
G01*
X52688000Y-105139500D02*
X52688000Y-104664500D01*
G75*
G02*
X52925500Y-104427000I237500J0D01*
G01*
X53500500Y-104427000D01*
G75*
G02*
X53738000Y-104664500I0J-237500D01*
G01*
X53738000Y-105139500D01*
G75*
G02*
X53500500Y-105377000I-237500J0D01*
G01*
X52925500Y-105377000D01*
G75*
G02*
X52688000Y-105139500I0J237500D01*
G01*
G37*
G36*
G01*
X54438000Y-105139500D02*
X54438000Y-104664500D01*
G75*
G02*
X54675500Y-104427000I237500J0D01*
G01*
X55250500Y-104427000D01*
G75*
G02*
X55488000Y-104664500I0J-237500D01*
G01*
X55488000Y-105139500D01*
G75*
G02*
X55250500Y-105377000I-237500J0D01*
G01*
X54675500Y-105377000D01*
G75*
G02*
X54438000Y-105139500I0J237500D01*
G01*
G37*
%TD*%
%TO.C,R8*%
G36*
G01*
X54438000Y-103361500D02*
X54438000Y-102886500D01*
G75*
G02*
X54675500Y-102649000I237500J0D01*
G01*
X55250500Y-102649000D01*
G75*
G02*
X55488000Y-102886500I0J-237500D01*
G01*
X55488000Y-103361500D01*
G75*
G02*
X55250500Y-103599000I-237500J0D01*
G01*
X54675500Y-103599000D01*
G75*
G02*
X54438000Y-103361500I0J237500D01*
G01*
G37*
G36*
G01*
X52688000Y-103361500D02*
X52688000Y-102886500D01*
G75*
G02*
X52925500Y-102649000I237500J0D01*
G01*
X53500500Y-102649000D01*
G75*
G02*
X53738000Y-102886500I0J-237500D01*
G01*
X53738000Y-103361500D01*
G75*
G02*
X53500500Y-103599000I-237500J0D01*
G01*
X52925500Y-103599000D01*
G75*
G02*
X52688000Y-103361500I0J237500D01*
G01*
G37*
%TD*%
%TO.C,R9*%
G36*
G01*
X52688000Y-101583500D02*
X52688000Y-101108500D01*
G75*
G02*
X52925500Y-100871000I237500J0D01*
G01*
X53500500Y-100871000D01*
G75*
G02*
X53738000Y-101108500I0J-237500D01*
G01*
X53738000Y-101583500D01*
G75*
G02*
X53500500Y-101821000I-237500J0D01*
G01*
X52925500Y-101821000D01*
G75*
G02*
X52688000Y-101583500I0J237500D01*
G01*
G37*
G36*
G01*
X54438000Y-101583500D02*
X54438000Y-101108500D01*
G75*
G02*
X54675500Y-100871000I237500J0D01*
G01*
X55250500Y-100871000D01*
G75*
G02*
X55488000Y-101108500I0J-237500D01*
G01*
X55488000Y-101583500D01*
G75*
G02*
X55250500Y-101821000I-237500J0D01*
G01*
X54675500Y-101821000D01*
G75*
G02*
X54438000Y-101583500I0J237500D01*
G01*
G37*
%TD*%
%TO.C,R10*%
G36*
G01*
X109175000Y-105139500D02*
X109175000Y-104664500D01*
G75*
G02*
X109412500Y-104427000I237500J0D01*
G01*
X109987500Y-104427000D01*
G75*
G02*
X110225000Y-104664500I0J-237500D01*
G01*
X110225000Y-105139500D01*
G75*
G02*
X109987500Y-105377000I-237500J0D01*
G01*
X109412500Y-105377000D01*
G75*
G02*
X109175000Y-105139500I0J237500D01*
G01*
G37*
G36*
G01*
X107425000Y-105139500D02*
X107425000Y-104664500D01*
G75*
G02*
X107662500Y-104427000I237500J0D01*
G01*
X108237500Y-104427000D01*
G75*
G02*
X108475000Y-104664500I0J-237500D01*
G01*
X108475000Y-105139500D01*
G75*
G02*
X108237500Y-105377000I-237500J0D01*
G01*
X107662500Y-105377000D01*
G75*
G02*
X107425000Y-105139500I0J237500D01*
G01*
G37*
%TD*%
%TO.C,R11*%
G36*
G01*
X107425000Y-103361500D02*
X107425000Y-102886500D01*
G75*
G02*
X107662500Y-102649000I237500J0D01*
G01*
X108237500Y-102649000D01*
G75*
G02*
X108475000Y-102886500I0J-237500D01*
G01*
X108475000Y-103361500D01*
G75*
G02*
X108237500Y-103599000I-237500J0D01*
G01*
X107662500Y-103599000D01*
G75*
G02*
X107425000Y-103361500I0J237500D01*
G01*
G37*
G36*
G01*
X109175000Y-103361500D02*
X109175000Y-102886500D01*
G75*
G02*
X109412500Y-102649000I237500J0D01*
G01*
X109987500Y-102649000D01*
G75*
G02*
X110225000Y-102886500I0J-237500D01*
G01*
X110225000Y-103361500D01*
G75*
G02*
X109987500Y-103599000I-237500J0D01*
G01*
X109412500Y-103599000D01*
G75*
G02*
X109175000Y-103361500I0J237500D01*
G01*
G37*
%TD*%
%TO.C,R12*%
G36*
G01*
X109175000Y-101583500D02*
X109175000Y-101108500D01*
G75*
G02*
X109412500Y-100871000I237500J0D01*
G01*
X109987500Y-100871000D01*
G75*
G02*
X110225000Y-101108500I0J-237500D01*
G01*
X110225000Y-101583500D01*
G75*
G02*
X109987500Y-101821000I-237500J0D01*
G01*
X109412500Y-101821000D01*
G75*
G02*
X109175000Y-101583500I0J237500D01*
G01*
G37*
G36*
G01*
X107425000Y-101583500D02*
X107425000Y-101108500D01*
G75*
G02*
X107662500Y-100871000I237500J0D01*
G01*
X108237500Y-100871000D01*
G75*
G02*
X108475000Y-101108500I0J-237500D01*
G01*
X108475000Y-101583500D01*
G75*
G02*
X108237500Y-101821000I-237500J0D01*
G01*
X107662500Y-101821000D01*
G75*
G02*
X107425000Y-101583500I0J237500D01*
G01*
G37*
%TD*%
%TO.C,R14*%
G36*
G01*
X80761000Y-150892500D02*
X80761000Y-151367500D01*
G75*
G02*
X80523500Y-151605000I-237500J0D01*
G01*
X79948500Y-151605000D01*
G75*
G02*
X79711000Y-151367500I0J237500D01*
G01*
X79711000Y-150892500D01*
G75*
G02*
X79948500Y-150655000I237500J0D01*
G01*
X80523500Y-150655000D01*
G75*
G02*
X80761000Y-150892500I0J-237500D01*
G01*
G37*
G36*
G01*
X79011000Y-150892500D02*
X79011000Y-151367500D01*
G75*
G02*
X78773500Y-151605000I-237500J0D01*
G01*
X78198500Y-151605000D01*
G75*
G02*
X77961000Y-151367500I0J237500D01*
G01*
X77961000Y-150892500D01*
G75*
G02*
X78198500Y-150655000I237500J0D01*
G01*
X78773500Y-150655000D01*
G75*
G02*
X79011000Y-150892500I0J-237500D01*
G01*
G37*
%TD*%
%TO.C,R20*%
G36*
G01*
X84979500Y-144763000D02*
X85454500Y-144763000D01*
G75*
G02*
X85692000Y-145000500I0J-237500D01*
G01*
X85692000Y-145575500D01*
G75*
G02*
X85454500Y-145813000I-237500J0D01*
G01*
X84979500Y-145813000D01*
G75*
G02*
X84742000Y-145575500I0J237500D01*
G01*
X84742000Y-145000500D01*
G75*
G02*
X84979500Y-144763000I237500J0D01*
G01*
G37*
G36*
G01*
X84979500Y-146513000D02*
X85454500Y-146513000D01*
G75*
G02*
X85692000Y-146750500I0J-237500D01*
G01*
X85692000Y-147325500D01*
G75*
G02*
X85454500Y-147563000I-237500J0D01*
G01*
X84979500Y-147563000D01*
G75*
G02*
X84742000Y-147325500I0J237500D01*
G01*
X84742000Y-146750500D01*
G75*
G02*
X84979500Y-146513000I237500J0D01*
G01*
G37*
%TD*%
%TO.C,R21*%
G36*
G01*
X144001000Y-99805500D02*
X144001000Y-99330500D01*
G75*
G02*
X144238500Y-99093000I237500J0D01*
G01*
X144813500Y-99093000D01*
G75*
G02*
X145051000Y-99330500I0J-237500D01*
G01*
X145051000Y-99805500D01*
G75*
G02*
X144813500Y-100043000I-237500J0D01*
G01*
X144238500Y-100043000D01*
G75*
G02*
X144001000Y-99805500I0J237500D01*
G01*
G37*
G36*
G01*
X145751000Y-99805500D02*
X145751000Y-99330500D01*
G75*
G02*
X145988500Y-99093000I237500J0D01*
G01*
X146563500Y-99093000D01*
G75*
G02*
X146801000Y-99330500I0J-237500D01*
G01*
X146801000Y-99805500D01*
G75*
G02*
X146563500Y-100043000I-237500J0D01*
G01*
X145988500Y-100043000D01*
G75*
G02*
X145751000Y-99805500I0J237500D01*
G01*
G37*
%TD*%
%TO.C,R22*%
G36*
G01*
X125741000Y-99805500D02*
X125741000Y-99330500D01*
G75*
G02*
X125978500Y-99093000I237500J0D01*
G01*
X126553500Y-99093000D01*
G75*
G02*
X126791000Y-99330500I0J-237500D01*
G01*
X126791000Y-99805500D01*
G75*
G02*
X126553500Y-100043000I-237500J0D01*
G01*
X125978500Y-100043000D01*
G75*
G02*
X125741000Y-99805500I0J237500D01*
G01*
G37*
G36*
G01*
X127491000Y-99805500D02*
X127491000Y-99330500D01*
G75*
G02*
X127728500Y-99093000I237500J0D01*
G01*
X128303500Y-99093000D01*
G75*
G02*
X128541000Y-99330500I0J-237500D01*
G01*
X128541000Y-99805500D01*
G75*
G02*
X128303500Y-100043000I-237500J0D01*
G01*
X127728500Y-100043000D01*
G75*
G02*
X127491000Y-99805500I0J237500D01*
G01*
G37*
%TD*%
%TO.C,R24*%
G36*
G01*
X93743000Y-150892500D02*
X93743000Y-151367500D01*
G75*
G02*
X93505500Y-151605000I-237500J0D01*
G01*
X92930500Y-151605000D01*
G75*
G02*
X92693000Y-151367500I0J237500D01*
G01*
X92693000Y-150892500D01*
G75*
G02*
X92930500Y-150655000I237500J0D01*
G01*
X93505500Y-150655000D01*
G75*
G02*
X93743000Y-150892500I0J-237500D01*
G01*
G37*
G36*
G01*
X95493000Y-150892500D02*
X95493000Y-151367500D01*
G75*
G02*
X95255500Y-151605000I-237500J0D01*
G01*
X94680500Y-151605000D01*
G75*
G02*
X94443000Y-151367500I0J237500D01*
G01*
X94443000Y-150892500D01*
G75*
G02*
X94680500Y-150655000I237500J0D01*
G01*
X95255500Y-150655000D01*
G75*
G02*
X95493000Y-150892500I0J-237500D01*
G01*
G37*
%TD*%
%TO.C,R25*%
G36*
G01*
X145751000Y-105139500D02*
X145751000Y-104664500D01*
G75*
G02*
X145988500Y-104427000I237500J0D01*
G01*
X146563500Y-104427000D01*
G75*
G02*
X146801000Y-104664500I0J-237500D01*
G01*
X146801000Y-105139500D01*
G75*
G02*
X146563500Y-105377000I-237500J0D01*
G01*
X145988500Y-105377000D01*
G75*
G02*
X145751000Y-105139500I0J237500D01*
G01*
G37*
G36*
G01*
X144001000Y-105139500D02*
X144001000Y-104664500D01*
G75*
G02*
X144238500Y-104427000I237500J0D01*
G01*
X144813500Y-104427000D01*
G75*
G02*
X145051000Y-104664500I0J-237500D01*
G01*
X145051000Y-105139500D01*
G75*
G02*
X144813500Y-105377000I-237500J0D01*
G01*
X144238500Y-105377000D01*
G75*
G02*
X144001000Y-105139500I0J237500D01*
G01*
G37*
%TD*%
%TO.C,R26*%
G36*
G01*
X144001000Y-103361500D02*
X144001000Y-102886500D01*
G75*
G02*
X144238500Y-102649000I237500J0D01*
G01*
X144813500Y-102649000D01*
G75*
G02*
X145051000Y-102886500I0J-237500D01*
G01*
X145051000Y-103361500D01*
G75*
G02*
X144813500Y-103599000I-237500J0D01*
G01*
X144238500Y-103599000D01*
G75*
G02*
X144001000Y-103361500I0J237500D01*
G01*
G37*
G36*
G01*
X145751000Y-103361500D02*
X145751000Y-102886500D01*
G75*
G02*
X145988500Y-102649000I237500J0D01*
G01*
X146563500Y-102649000D01*
G75*
G02*
X146801000Y-102886500I0J-237500D01*
G01*
X146801000Y-103361500D01*
G75*
G02*
X146563500Y-103599000I-237500J0D01*
G01*
X145988500Y-103599000D01*
G75*
G02*
X145751000Y-103361500I0J237500D01*
G01*
G37*
%TD*%
%TO.C,R27*%
G36*
G01*
X145751000Y-101583500D02*
X145751000Y-101108500D01*
G75*
G02*
X145988500Y-100871000I237500J0D01*
G01*
X146563500Y-100871000D01*
G75*
G02*
X146801000Y-101108500I0J-237500D01*
G01*
X146801000Y-101583500D01*
G75*
G02*
X146563500Y-101821000I-237500J0D01*
G01*
X145988500Y-101821000D01*
G75*
G02*
X145751000Y-101583500I0J237500D01*
G01*
G37*
G36*
G01*
X144001000Y-101583500D02*
X144001000Y-101108500D01*
G75*
G02*
X144238500Y-100871000I237500J0D01*
G01*
X144813500Y-100871000D01*
G75*
G02*
X145051000Y-101108500I0J-237500D01*
G01*
X145051000Y-101583500D01*
G75*
G02*
X144813500Y-101821000I-237500J0D01*
G01*
X144238500Y-101821000D01*
G75*
G02*
X144001000Y-101583500I0J237500D01*
G01*
G37*
%TD*%
%TO.C,R28*%
G36*
G01*
X127463000Y-105139500D02*
X127463000Y-104664500D01*
G75*
G02*
X127700500Y-104427000I237500J0D01*
G01*
X128275500Y-104427000D01*
G75*
G02*
X128513000Y-104664500I0J-237500D01*
G01*
X128513000Y-105139500D01*
G75*
G02*
X128275500Y-105377000I-237500J0D01*
G01*
X127700500Y-105377000D01*
G75*
G02*
X127463000Y-105139500I0J237500D01*
G01*
G37*
G36*
G01*
X125713000Y-105139500D02*
X125713000Y-104664500D01*
G75*
G02*
X125950500Y-104427000I237500J0D01*
G01*
X126525500Y-104427000D01*
G75*
G02*
X126763000Y-104664500I0J-237500D01*
G01*
X126763000Y-105139500D01*
G75*
G02*
X126525500Y-105377000I-237500J0D01*
G01*
X125950500Y-105377000D01*
G75*
G02*
X125713000Y-105139500I0J237500D01*
G01*
G37*
%TD*%
%TO.C,R29*%
G36*
G01*
X125713000Y-103361500D02*
X125713000Y-102886500D01*
G75*
G02*
X125950500Y-102649000I237500J0D01*
G01*
X126525500Y-102649000D01*
G75*
G02*
X126763000Y-102886500I0J-237500D01*
G01*
X126763000Y-103361500D01*
G75*
G02*
X126525500Y-103599000I-237500J0D01*
G01*
X125950500Y-103599000D01*
G75*
G02*
X125713000Y-103361500I0J237500D01*
G01*
G37*
G36*
G01*
X127463000Y-103361500D02*
X127463000Y-102886500D01*
G75*
G02*
X127700500Y-102649000I237500J0D01*
G01*
X128275500Y-102649000D01*
G75*
G02*
X128513000Y-102886500I0J-237500D01*
G01*
X128513000Y-103361500D01*
G75*
G02*
X128275500Y-103599000I-237500J0D01*
G01*
X127700500Y-103599000D01*
G75*
G02*
X127463000Y-103361500I0J237500D01*
G01*
G37*
%TD*%
%TO.C,R30*%
G36*
G01*
X127463000Y-101583500D02*
X127463000Y-101108500D01*
G75*
G02*
X127700500Y-100871000I237500J0D01*
G01*
X128275500Y-100871000D01*
G75*
G02*
X128513000Y-101108500I0J-237500D01*
G01*
X128513000Y-101583500D01*
G75*
G02*
X128275500Y-101821000I-237500J0D01*
G01*
X127700500Y-101821000D01*
G75*
G02*
X127463000Y-101583500I0J237500D01*
G01*
G37*
G36*
G01*
X125713000Y-101583500D02*
X125713000Y-101108500D01*
G75*
G02*
X125950500Y-100871000I237500J0D01*
G01*
X126525500Y-100871000D01*
G75*
G02*
X126763000Y-101108500I0J-237500D01*
G01*
X126763000Y-101583500D01*
G75*
G02*
X126525500Y-101821000I-237500J0D01*
G01*
X125950500Y-101821000D01*
G75*
G02*
X125713000Y-101583500I0J237500D01*
G01*
G37*
%TD*%
%TO.C,R31*%
G36*
G01*
X99711500Y-144763000D02*
X100186500Y-144763000D01*
G75*
G02*
X100424000Y-145000500I0J-237500D01*
G01*
X100424000Y-145575500D01*
G75*
G02*
X100186500Y-145813000I-237500J0D01*
G01*
X99711500Y-145813000D01*
G75*
G02*
X99474000Y-145575500I0J237500D01*
G01*
X99474000Y-145000500D01*
G75*
G02*
X99711500Y-144763000I237500J0D01*
G01*
G37*
G36*
G01*
X99711500Y-146513000D02*
X100186500Y-146513000D01*
G75*
G02*
X100424000Y-146750500I0J-237500D01*
G01*
X100424000Y-147325500D01*
G75*
G02*
X100186500Y-147563000I-237500J0D01*
G01*
X99711500Y-147563000D01*
G75*
G02*
X99474000Y-147325500I0J237500D01*
G01*
X99474000Y-146750500D01*
G75*
G02*
X99711500Y-146513000I237500J0D01*
G01*
G37*
%TD*%
%TO.C,R32*%
G36*
G01*
X114509000Y-165083500D02*
X114509000Y-164608500D01*
G75*
G02*
X114746500Y-164371000I237500J0D01*
G01*
X115321500Y-164371000D01*
G75*
G02*
X115559000Y-164608500I0J-237500D01*
G01*
X115559000Y-165083500D01*
G75*
G02*
X115321500Y-165321000I-237500J0D01*
G01*
X114746500Y-165321000D01*
G75*
G02*
X114509000Y-165083500I0J237500D01*
G01*
G37*
G36*
G01*
X112759000Y-165083500D02*
X112759000Y-164608500D01*
G75*
G02*
X112996500Y-164371000I237500J0D01*
G01*
X113571500Y-164371000D01*
G75*
G02*
X113809000Y-164608500I0J-237500D01*
G01*
X113809000Y-165083500D01*
G75*
G02*
X113571500Y-165321000I-237500J0D01*
G01*
X112996500Y-165321000D01*
G75*
G02*
X112759000Y-165083500I0J237500D01*
G01*
G37*
%TD*%
%TO.C,R33*%
G36*
G01*
X113809000Y-162830500D02*
X113809000Y-163305500D01*
G75*
G02*
X113571500Y-163543000I-237500J0D01*
G01*
X112996500Y-163543000D01*
G75*
G02*
X112759000Y-163305500I0J237500D01*
G01*
X112759000Y-162830500D01*
G75*
G02*
X112996500Y-162593000I237500J0D01*
G01*
X113571500Y-162593000D01*
G75*
G02*
X113809000Y-162830500I0J-237500D01*
G01*
G37*
G36*
G01*
X115559000Y-162830500D02*
X115559000Y-163305500D01*
G75*
G02*
X115321500Y-163543000I-237500J0D01*
G01*
X114746500Y-163543000D01*
G75*
G02*
X114509000Y-163305500I0J237500D01*
G01*
X114509000Y-162830500D01*
G75*
G02*
X114746500Y-162593000I237500J0D01*
G01*
X115321500Y-162593000D01*
G75*
G02*
X115559000Y-162830500I0J-237500D01*
G01*
G37*
%TD*%
%TO.C,R37*%
G36*
G01*
X110225000Y-150638500D02*
X110225000Y-151113500D01*
G75*
G02*
X109987500Y-151351000I-237500J0D01*
G01*
X109412500Y-151351000D01*
G75*
G02*
X109175000Y-151113500I0J237500D01*
G01*
X109175000Y-150638500D01*
G75*
G02*
X109412500Y-150401000I237500J0D01*
G01*
X109987500Y-150401000D01*
G75*
G02*
X110225000Y-150638500I0J-237500D01*
G01*
G37*
G36*
G01*
X108475000Y-150638500D02*
X108475000Y-151113500D01*
G75*
G02*
X108237500Y-151351000I-237500J0D01*
G01*
X107662500Y-151351000D01*
G75*
G02*
X107425000Y-151113500I0J237500D01*
G01*
X107425000Y-150638500D01*
G75*
G02*
X107662500Y-150401000I237500J0D01*
G01*
X108237500Y-150401000D01*
G75*
G02*
X108475000Y-150638500I0J-237500D01*
G01*
G37*
%TD*%
%TO.C,R38*%
G36*
G01*
X111749000Y-181626500D02*
X111749000Y-182101500D01*
G75*
G02*
X111511500Y-182339000I-237500J0D01*
G01*
X110936500Y-182339000D01*
G75*
G02*
X110699000Y-182101500I0J237500D01*
G01*
X110699000Y-181626500D01*
G75*
G02*
X110936500Y-181389000I237500J0D01*
G01*
X111511500Y-181389000D01*
G75*
G02*
X111749000Y-181626500I0J-237500D01*
G01*
G37*
G36*
G01*
X109999000Y-181626500D02*
X109999000Y-182101500D01*
G75*
G02*
X109761500Y-182339000I-237500J0D01*
G01*
X109186500Y-182339000D01*
G75*
G02*
X108949000Y-182101500I0J237500D01*
G01*
X108949000Y-181626500D01*
G75*
G02*
X109186500Y-181389000I237500J0D01*
G01*
X109761500Y-181389000D01*
G75*
G02*
X109999000Y-181626500I0J-237500D01*
G01*
G37*
%TD*%
%TO.C,R39*%
G36*
G01*
X109999000Y-179848500D02*
X109999000Y-180323500D01*
G75*
G02*
X109761500Y-180561000I-237500J0D01*
G01*
X109186500Y-180561000D01*
G75*
G02*
X108949000Y-180323500I0J237500D01*
G01*
X108949000Y-179848500D01*
G75*
G02*
X109186500Y-179611000I237500J0D01*
G01*
X109761500Y-179611000D01*
G75*
G02*
X109999000Y-179848500I0J-237500D01*
G01*
G37*
G36*
G01*
X111749000Y-179848500D02*
X111749000Y-180323500D01*
G75*
G02*
X111511500Y-180561000I-237500J0D01*
G01*
X110936500Y-180561000D01*
G75*
G02*
X110699000Y-180323500I0J237500D01*
G01*
X110699000Y-179848500D01*
G75*
G02*
X110936500Y-179611000I237500J0D01*
G01*
X111511500Y-179611000D01*
G75*
G02*
X111749000Y-179848500I0J-237500D01*
G01*
G37*
%TD*%
%TO.C,R40*%
G36*
G01*
X89010000Y-99805500D02*
X89010000Y-99330500D01*
G75*
G02*
X89247500Y-99093000I237500J0D01*
G01*
X89822500Y-99093000D01*
G75*
G02*
X90060000Y-99330500I0J-237500D01*
G01*
X90060000Y-99805500D01*
G75*
G02*
X89822500Y-100043000I-237500J0D01*
G01*
X89247500Y-100043000D01*
G75*
G02*
X89010000Y-99805500I0J237500D01*
G01*
G37*
G36*
G01*
X90760000Y-99805500D02*
X90760000Y-99330500D01*
G75*
G02*
X90997500Y-99093000I237500J0D01*
G01*
X91572500Y-99093000D01*
G75*
G02*
X91810000Y-99330500I0J-237500D01*
G01*
X91810000Y-99805500D01*
G75*
G02*
X91572500Y-100043000I-237500J0D01*
G01*
X90997500Y-100043000D01*
G75*
G02*
X90760000Y-99805500I0J237500D01*
G01*
G37*
%TD*%
%TO.C,R41*%
G36*
G01*
X72599000Y-99805500D02*
X72599000Y-99330500D01*
G75*
G02*
X72836500Y-99093000I237500J0D01*
G01*
X73411500Y-99093000D01*
G75*
G02*
X73649000Y-99330500I0J-237500D01*
G01*
X73649000Y-99805500D01*
G75*
G02*
X73411500Y-100043000I-237500J0D01*
G01*
X72836500Y-100043000D01*
G75*
G02*
X72599000Y-99805500I0J237500D01*
G01*
G37*
G36*
G01*
X70849000Y-99805500D02*
X70849000Y-99330500D01*
G75*
G02*
X71086500Y-99093000I237500J0D01*
G01*
X71661500Y-99093000D01*
G75*
G02*
X71899000Y-99330500I0J-237500D01*
G01*
X71899000Y-99805500D01*
G75*
G02*
X71661500Y-100043000I-237500J0D01*
G01*
X71086500Y-100043000D01*
G75*
G02*
X70849000Y-99805500I0J237500D01*
G01*
G37*
%TD*%
%TO.C,R42*%
G36*
G01*
X90760000Y-105139500D02*
X90760000Y-104664500D01*
G75*
G02*
X90997500Y-104427000I237500J0D01*
G01*
X91572500Y-104427000D01*
G75*
G02*
X91810000Y-104664500I0J-237500D01*
G01*
X91810000Y-105139500D01*
G75*
G02*
X91572500Y-105377000I-237500J0D01*
G01*
X90997500Y-105377000D01*
G75*
G02*
X90760000Y-105139500I0J237500D01*
G01*
G37*
G36*
G01*
X89010000Y-105139500D02*
X89010000Y-104664500D01*
G75*
G02*
X89247500Y-104427000I237500J0D01*
G01*
X89822500Y-104427000D01*
G75*
G02*
X90060000Y-104664500I0J-237500D01*
G01*
X90060000Y-105139500D01*
G75*
G02*
X89822500Y-105377000I-237500J0D01*
G01*
X89247500Y-105377000D01*
G75*
G02*
X89010000Y-105139500I0J237500D01*
G01*
G37*
%TD*%
%TO.C,R43*%
G36*
G01*
X89010000Y-103367501D02*
X89010000Y-102892501D01*
G75*
G02*
X89247500Y-102655001I237500J0D01*
G01*
X89822500Y-102655001D01*
G75*
G02*
X90060000Y-102892501I0J-237500D01*
G01*
X90060000Y-103367501D01*
G75*
G02*
X89822500Y-103605001I-237500J0D01*
G01*
X89247500Y-103605001D01*
G75*
G02*
X89010000Y-103367501I0J237500D01*
G01*
G37*
G36*
G01*
X90760000Y-103367501D02*
X90760000Y-102892501D01*
G75*
G02*
X90997500Y-102655001I237500J0D01*
G01*
X91572500Y-102655001D01*
G75*
G02*
X91810000Y-102892501I0J-237500D01*
G01*
X91810000Y-103367501D01*
G75*
G02*
X91572500Y-103605001I-237500J0D01*
G01*
X90997500Y-103605001D01*
G75*
G02*
X90760000Y-103367501I0J237500D01*
G01*
G37*
%TD*%
%TO.C,R44*%
G36*
G01*
X90760000Y-101583500D02*
X90760000Y-101108500D01*
G75*
G02*
X90997500Y-100871000I237500J0D01*
G01*
X91572500Y-100871000D01*
G75*
G02*
X91810000Y-101108500I0J-237500D01*
G01*
X91810000Y-101583500D01*
G75*
G02*
X91572500Y-101821000I-237500J0D01*
G01*
X90997500Y-101821000D01*
G75*
G02*
X90760000Y-101583500I0J237500D01*
G01*
G37*
G36*
G01*
X89010000Y-101583500D02*
X89010000Y-101108500D01*
G75*
G02*
X89247500Y-100871000I237500J0D01*
G01*
X89822500Y-100871000D01*
G75*
G02*
X90060000Y-101108500I0J-237500D01*
G01*
X90060000Y-101583500D01*
G75*
G02*
X89822500Y-101821000I-237500J0D01*
G01*
X89247500Y-101821000D01*
G75*
G02*
X89010000Y-101583500I0J237500D01*
G01*
G37*
%TD*%
%TO.C,R45*%
G36*
G01*
X72599000Y-105139500D02*
X72599000Y-104664500D01*
G75*
G02*
X72836500Y-104427000I237500J0D01*
G01*
X73411500Y-104427000D01*
G75*
G02*
X73649000Y-104664500I0J-237500D01*
G01*
X73649000Y-105139500D01*
G75*
G02*
X73411500Y-105377000I-237500J0D01*
G01*
X72836500Y-105377000D01*
G75*
G02*
X72599000Y-105139500I0J237500D01*
G01*
G37*
G36*
G01*
X70849000Y-105139500D02*
X70849000Y-104664500D01*
G75*
G02*
X71086500Y-104427000I237500J0D01*
G01*
X71661500Y-104427000D01*
G75*
G02*
X71899000Y-104664500I0J-237500D01*
G01*
X71899000Y-105139500D01*
G75*
G02*
X71661500Y-105377000I-237500J0D01*
G01*
X71086500Y-105377000D01*
G75*
G02*
X70849000Y-105139500I0J237500D01*
G01*
G37*
%TD*%
%TO.C,R46*%
G36*
G01*
X70849000Y-103361500D02*
X70849000Y-102886500D01*
G75*
G02*
X71086500Y-102649000I237500J0D01*
G01*
X71661500Y-102649000D01*
G75*
G02*
X71899000Y-102886500I0J-237500D01*
G01*
X71899000Y-103361500D01*
G75*
G02*
X71661500Y-103599000I-237500J0D01*
G01*
X71086500Y-103599000D01*
G75*
G02*
X70849000Y-103361500I0J237500D01*
G01*
G37*
G36*
G01*
X72599000Y-103361500D02*
X72599000Y-102886500D01*
G75*
G02*
X72836500Y-102649000I237500J0D01*
G01*
X73411500Y-102649000D01*
G75*
G02*
X73649000Y-102886500I0J-237500D01*
G01*
X73649000Y-103361500D01*
G75*
G02*
X73411500Y-103599000I-237500J0D01*
G01*
X72836500Y-103599000D01*
G75*
G02*
X72599000Y-103361500I0J237500D01*
G01*
G37*
%TD*%
%TO.C,R47*%
G36*
G01*
X72599000Y-101583500D02*
X72599000Y-101108500D01*
G75*
G02*
X72836500Y-100871000I237500J0D01*
G01*
X73411500Y-100871000D01*
G75*
G02*
X73649000Y-101108500I0J-237500D01*
G01*
X73649000Y-101583500D01*
G75*
G02*
X73411500Y-101821000I-237500J0D01*
G01*
X72836500Y-101821000D01*
G75*
G02*
X72599000Y-101583500I0J237500D01*
G01*
G37*
G36*
G01*
X70849000Y-101583500D02*
X70849000Y-101108500D01*
G75*
G02*
X71086500Y-100871000I237500J0D01*
G01*
X71661500Y-100871000D01*
G75*
G02*
X71899000Y-101108500I0J-237500D01*
G01*
X71899000Y-101583500D01*
G75*
G02*
X71661500Y-101821000I-237500J0D01*
G01*
X71086500Y-101821000D01*
G75*
G02*
X70849000Y-101583500I0J237500D01*
G01*
G37*
%TD*%
%TO.C,R48*%
G36*
G01*
X33544500Y-106663000D02*
X34019500Y-106663000D01*
G75*
G02*
X34257000Y-106900500I0J-237500D01*
G01*
X34257000Y-107475500D01*
G75*
G02*
X34019500Y-107713000I-237500J0D01*
G01*
X33544500Y-107713000D01*
G75*
G02*
X33307000Y-107475500I0J237500D01*
G01*
X33307000Y-106900500D01*
G75*
G02*
X33544500Y-106663000I237500J0D01*
G01*
G37*
G36*
G01*
X33544500Y-104913000D02*
X34019500Y-104913000D01*
G75*
G02*
X34257000Y-105150500I0J-237500D01*
G01*
X34257000Y-105725500D01*
G75*
G02*
X34019500Y-105963000I-237500J0D01*
G01*
X33544500Y-105963000D01*
G75*
G02*
X33307000Y-105725500I0J237500D01*
G01*
X33307000Y-105150500D01*
G75*
G02*
X33544500Y-104913000I237500J0D01*
G01*
G37*
%TD*%
%TO.C,R51*%
G36*
G01*
X111749000Y-178070500D02*
X111749000Y-178545500D01*
G75*
G02*
X111511500Y-178783000I-237500J0D01*
G01*
X110936500Y-178783000D01*
G75*
G02*
X110699000Y-178545500I0J237500D01*
G01*
X110699000Y-178070500D01*
G75*
G02*
X110936500Y-177833000I237500J0D01*
G01*
X111511500Y-177833000D01*
G75*
G02*
X111749000Y-178070500I0J-237500D01*
G01*
G37*
G36*
G01*
X109999000Y-178070500D02*
X109999000Y-178545500D01*
G75*
G02*
X109761500Y-178783000I-237500J0D01*
G01*
X109186500Y-178783000D01*
G75*
G02*
X108949000Y-178545500I0J237500D01*
G01*
X108949000Y-178070500D01*
G75*
G02*
X109186500Y-177833000I237500J0D01*
G01*
X109761500Y-177833000D01*
G75*
G02*
X109999000Y-178070500I0J-237500D01*
G01*
G37*
%TD*%
%TO.C,R52*%
G36*
G01*
X109999000Y-176292500D02*
X109999000Y-176767500D01*
G75*
G02*
X109761500Y-177005000I-237500J0D01*
G01*
X109186500Y-177005000D01*
G75*
G02*
X108949000Y-176767500I0J237500D01*
G01*
X108949000Y-176292500D01*
G75*
G02*
X109186500Y-176055000I237500J0D01*
G01*
X109761500Y-176055000D01*
G75*
G02*
X109999000Y-176292500I0J-237500D01*
G01*
G37*
G36*
G01*
X111749000Y-176292500D02*
X111749000Y-176767500D01*
G75*
G02*
X111511500Y-177005000I-237500J0D01*
G01*
X110936500Y-177005000D01*
G75*
G02*
X110699000Y-176767500I0J237500D01*
G01*
X110699000Y-176292500D01*
G75*
G02*
X110936500Y-176055000I237500J0D01*
G01*
X111511500Y-176055000D01*
G75*
G02*
X111749000Y-176292500I0J-237500D01*
G01*
G37*
%TD*%
%TO.C,R53*%
G36*
G01*
X111749000Y-174514500D02*
X111749000Y-174989500D01*
G75*
G02*
X111511500Y-175227000I-237500J0D01*
G01*
X110936500Y-175227000D01*
G75*
G02*
X110699000Y-174989500I0J237500D01*
G01*
X110699000Y-174514500D01*
G75*
G02*
X110936500Y-174277000I237500J0D01*
G01*
X111511500Y-174277000D01*
G75*
G02*
X111749000Y-174514500I0J-237500D01*
G01*
G37*
G36*
G01*
X109999000Y-174514500D02*
X109999000Y-174989500D01*
G75*
G02*
X109761500Y-175227000I-237500J0D01*
G01*
X109186500Y-175227000D01*
G75*
G02*
X108949000Y-174989500I0J237500D01*
G01*
X108949000Y-174514500D01*
G75*
G02*
X109186500Y-174277000I237500J0D01*
G01*
X109761500Y-174277000D01*
G75*
G02*
X109999000Y-174514500I0J-237500D01*
G01*
G37*
%TD*%
%TO.C,R54*%
G36*
G01*
X109999000Y-172736500D02*
X109999000Y-173211500D01*
G75*
G02*
X109761500Y-173449000I-237500J0D01*
G01*
X109186500Y-173449000D01*
G75*
G02*
X108949000Y-173211500I0J237500D01*
G01*
X108949000Y-172736500D01*
G75*
G02*
X109186500Y-172499000I237500J0D01*
G01*
X109761500Y-172499000D01*
G75*
G02*
X109999000Y-172736500I0J-237500D01*
G01*
G37*
G36*
G01*
X111749000Y-172736500D02*
X111749000Y-173211500D01*
G75*
G02*
X111511500Y-173449000I-237500J0D01*
G01*
X110936500Y-173449000D01*
G75*
G02*
X110699000Y-173211500I0J237500D01*
G01*
X110699000Y-172736500D01*
G75*
G02*
X110936500Y-172499000I237500J0D01*
G01*
X111511500Y-172499000D01*
G75*
G02*
X111749000Y-172736500I0J-237500D01*
G01*
G37*
%TD*%
%TO.C,U1*%
G36*
G01*
X68222000Y-138897000D02*
X67922000Y-138897000D01*
G75*
G02*
X67772000Y-138747000I0J150000D01*
G01*
X67772000Y-137097000D01*
G75*
G02*
X67922000Y-136947000I150000J0D01*
G01*
X68222000Y-136947000D01*
G75*
G02*
X68372000Y-137097000I0J-150000D01*
G01*
X68372000Y-138747000D01*
G75*
G02*
X68222000Y-138897000I-150000J0D01*
G01*
G37*
G36*
G01*
X69492000Y-138897000D02*
X69192000Y-138897000D01*
G75*
G02*
X69042000Y-138747000I0J150000D01*
G01*
X69042000Y-137097000D01*
G75*
G02*
X69192000Y-136947000I150000J0D01*
G01*
X69492000Y-136947000D01*
G75*
G02*
X69642000Y-137097000I0J-150000D01*
G01*
X69642000Y-138747000D01*
G75*
G02*
X69492000Y-138897000I-150000J0D01*
G01*
G37*
G36*
G01*
X70762000Y-138897000D02*
X70462000Y-138897000D01*
G75*
G02*
X70312000Y-138747000I0J150000D01*
G01*
X70312000Y-137097000D01*
G75*
G02*
X70462000Y-136947000I150000J0D01*
G01*
X70762000Y-136947000D01*
G75*
G02*
X70912000Y-137097000I0J-150000D01*
G01*
X70912000Y-138747000D01*
G75*
G02*
X70762000Y-138897000I-150000J0D01*
G01*
G37*
G36*
G01*
X72032000Y-138897000D02*
X71732000Y-138897000D01*
G75*
G02*
X71582000Y-138747000I0J150000D01*
G01*
X71582000Y-137097000D01*
G75*
G02*
X71732000Y-136947000I150000J0D01*
G01*
X72032000Y-136947000D01*
G75*
G02*
X72182000Y-137097000I0J-150000D01*
G01*
X72182000Y-138747000D01*
G75*
G02*
X72032000Y-138897000I-150000J0D01*
G01*
G37*
G36*
G01*
X72032000Y-143847000D02*
X71732000Y-143847000D01*
G75*
G02*
X71582000Y-143697000I0J150000D01*
G01*
X71582000Y-142047000D01*
G75*
G02*
X71732000Y-141897000I150000J0D01*
G01*
X72032000Y-141897000D01*
G75*
G02*
X72182000Y-142047000I0J-150000D01*
G01*
X72182000Y-143697000D01*
G75*
G02*
X72032000Y-143847000I-150000J0D01*
G01*
G37*
G36*
G01*
X70762000Y-143847000D02*
X70462000Y-143847000D01*
G75*
G02*
X70312000Y-143697000I0J150000D01*
G01*
X70312000Y-142047000D01*
G75*
G02*
X70462000Y-141897000I150000J0D01*
G01*
X70762000Y-141897000D01*
G75*
G02*
X70912000Y-142047000I0J-150000D01*
G01*
X70912000Y-143697000D01*
G75*
G02*
X70762000Y-143847000I-150000J0D01*
G01*
G37*
G36*
G01*
X69492000Y-143847000D02*
X69192000Y-143847000D01*
G75*
G02*
X69042000Y-143697000I0J150000D01*
G01*
X69042000Y-142047000D01*
G75*
G02*
X69192000Y-141897000I150000J0D01*
G01*
X69492000Y-141897000D01*
G75*
G02*
X69642000Y-142047000I0J-150000D01*
G01*
X69642000Y-143697000D01*
G75*
G02*
X69492000Y-143847000I-150000J0D01*
G01*
G37*
G36*
G01*
X68222000Y-143847000D02*
X67922000Y-143847000D01*
G75*
G02*
X67772000Y-143697000I0J150000D01*
G01*
X67772000Y-142047000D01*
G75*
G02*
X67922000Y-141897000I150000J0D01*
G01*
X68222000Y-141897000D01*
G75*
G02*
X68372000Y-142047000I0J-150000D01*
G01*
X68372000Y-143697000D01*
G75*
G02*
X68222000Y-143847000I-150000J0D01*
G01*
G37*
%TD*%
%TO.C,U5*%
G36*
G01*
X44425500Y-104135000D02*
X44425500Y-104285000D01*
G75*
G02*
X44350500Y-104360000I-75000J0D01*
G01*
X43025500Y-104360000D01*
G75*
G02*
X42950500Y-104285000I0J75000D01*
G01*
X42950500Y-104135000D01*
G75*
G02*
X43025500Y-104060000I75000J0D01*
G01*
X44350500Y-104060000D01*
G75*
G02*
X44425500Y-104135000I0J-75000D01*
G01*
G37*
G36*
G01*
X44425500Y-103635000D02*
X44425500Y-103785000D01*
G75*
G02*
X44350500Y-103860000I-75000J0D01*
G01*
X43025500Y-103860000D01*
G75*
G02*
X42950500Y-103785000I0J75000D01*
G01*
X42950500Y-103635000D01*
G75*
G02*
X43025500Y-103560000I75000J0D01*
G01*
X44350500Y-103560000D01*
G75*
G02*
X44425500Y-103635000I0J-75000D01*
G01*
G37*
G36*
G01*
X44425500Y-103135000D02*
X44425500Y-103285000D01*
G75*
G02*
X44350500Y-103360000I-75000J0D01*
G01*
X43025500Y-103360000D01*
G75*
G02*
X42950500Y-103285000I0J75000D01*
G01*
X42950500Y-103135000D01*
G75*
G02*
X43025500Y-103060000I75000J0D01*
G01*
X44350500Y-103060000D01*
G75*
G02*
X44425500Y-103135000I0J-75000D01*
G01*
G37*
G36*
G01*
X44425500Y-102635000D02*
X44425500Y-102785000D01*
G75*
G02*
X44350500Y-102860000I-75000J0D01*
G01*
X43025500Y-102860000D01*
G75*
G02*
X42950500Y-102785000I0J75000D01*
G01*
X42950500Y-102635000D01*
G75*
G02*
X43025500Y-102560000I75000J0D01*
G01*
X44350500Y-102560000D01*
G75*
G02*
X44425500Y-102635000I0J-75000D01*
G01*
G37*
G36*
G01*
X44425500Y-102135000D02*
X44425500Y-102285000D01*
G75*
G02*
X44350500Y-102360000I-75000J0D01*
G01*
X43025500Y-102360000D01*
G75*
G02*
X42950500Y-102285000I0J75000D01*
G01*
X42950500Y-102135000D01*
G75*
G02*
X43025500Y-102060000I75000J0D01*
G01*
X44350500Y-102060000D01*
G75*
G02*
X44425500Y-102135000I0J-75000D01*
G01*
G37*
G36*
G01*
X44425500Y-101635000D02*
X44425500Y-101785000D01*
G75*
G02*
X44350500Y-101860000I-75000J0D01*
G01*
X43025500Y-101860000D01*
G75*
G02*
X42950500Y-101785000I0J75000D01*
G01*
X42950500Y-101635000D01*
G75*
G02*
X43025500Y-101560000I75000J0D01*
G01*
X44350500Y-101560000D01*
G75*
G02*
X44425500Y-101635000I0J-75000D01*
G01*
G37*
G36*
G01*
X44425500Y-101135000D02*
X44425500Y-101285000D01*
G75*
G02*
X44350500Y-101360000I-75000J0D01*
G01*
X43025500Y-101360000D01*
G75*
G02*
X42950500Y-101285000I0J75000D01*
G01*
X42950500Y-101135000D01*
G75*
G02*
X43025500Y-101060000I75000J0D01*
G01*
X44350500Y-101060000D01*
G75*
G02*
X44425500Y-101135000I0J-75000D01*
G01*
G37*
G36*
G01*
X44425500Y-100635000D02*
X44425500Y-100785000D01*
G75*
G02*
X44350500Y-100860000I-75000J0D01*
G01*
X43025500Y-100860000D01*
G75*
G02*
X42950500Y-100785000I0J75000D01*
G01*
X42950500Y-100635000D01*
G75*
G02*
X43025500Y-100560000I75000J0D01*
G01*
X44350500Y-100560000D01*
G75*
G02*
X44425500Y-100635000I0J-75000D01*
G01*
G37*
G36*
G01*
X44425500Y-100135000D02*
X44425500Y-100285000D01*
G75*
G02*
X44350500Y-100360000I-75000J0D01*
G01*
X43025500Y-100360000D01*
G75*
G02*
X42950500Y-100285000I0J75000D01*
G01*
X42950500Y-100135000D01*
G75*
G02*
X43025500Y-100060000I75000J0D01*
G01*
X44350500Y-100060000D01*
G75*
G02*
X44425500Y-100135000I0J-75000D01*
G01*
G37*
G36*
G01*
X44425500Y-99635000D02*
X44425500Y-99785000D01*
G75*
G02*
X44350500Y-99860000I-75000J0D01*
G01*
X43025500Y-99860000D01*
G75*
G02*
X42950500Y-99785000I0J75000D01*
G01*
X42950500Y-99635000D01*
G75*
G02*
X43025500Y-99560000I75000J0D01*
G01*
X44350500Y-99560000D01*
G75*
G02*
X44425500Y-99635000I0J-75000D01*
G01*
G37*
G36*
G01*
X44425500Y-99135000D02*
X44425500Y-99285000D01*
G75*
G02*
X44350500Y-99360000I-75000J0D01*
G01*
X43025500Y-99360000D01*
G75*
G02*
X42950500Y-99285000I0J75000D01*
G01*
X42950500Y-99135000D01*
G75*
G02*
X43025500Y-99060000I75000J0D01*
G01*
X44350500Y-99060000D01*
G75*
G02*
X44425500Y-99135000I0J-75000D01*
G01*
G37*
G36*
G01*
X44425500Y-98635000D02*
X44425500Y-98785000D01*
G75*
G02*
X44350500Y-98860000I-75000J0D01*
G01*
X43025500Y-98860000D01*
G75*
G02*
X42950500Y-98785000I0J75000D01*
G01*
X42950500Y-98635000D01*
G75*
G02*
X43025500Y-98560000I75000J0D01*
G01*
X44350500Y-98560000D01*
G75*
G02*
X44425500Y-98635000I0J-75000D01*
G01*
G37*
G36*
G01*
X44425500Y-98135000D02*
X44425500Y-98285000D01*
G75*
G02*
X44350500Y-98360000I-75000J0D01*
G01*
X43025500Y-98360000D01*
G75*
G02*
X42950500Y-98285000I0J75000D01*
G01*
X42950500Y-98135000D01*
G75*
G02*
X43025500Y-98060000I75000J0D01*
G01*
X44350500Y-98060000D01*
G75*
G02*
X44425500Y-98135000I0J-75000D01*
G01*
G37*
G36*
G01*
X44425500Y-97635000D02*
X44425500Y-97785000D01*
G75*
G02*
X44350500Y-97860000I-75000J0D01*
G01*
X43025500Y-97860000D01*
G75*
G02*
X42950500Y-97785000I0J75000D01*
G01*
X42950500Y-97635000D01*
G75*
G02*
X43025500Y-97560000I75000J0D01*
G01*
X44350500Y-97560000D01*
G75*
G02*
X44425500Y-97635000I0J-75000D01*
G01*
G37*
G36*
G01*
X44425500Y-97135000D02*
X44425500Y-97285000D01*
G75*
G02*
X44350500Y-97360000I-75000J0D01*
G01*
X43025500Y-97360000D01*
G75*
G02*
X42950500Y-97285000I0J75000D01*
G01*
X42950500Y-97135000D01*
G75*
G02*
X43025500Y-97060000I75000J0D01*
G01*
X44350500Y-97060000D01*
G75*
G02*
X44425500Y-97135000I0J-75000D01*
G01*
G37*
G36*
G01*
X44425500Y-96635000D02*
X44425500Y-96785000D01*
G75*
G02*
X44350500Y-96860000I-75000J0D01*
G01*
X43025500Y-96860000D01*
G75*
G02*
X42950500Y-96785000I0J75000D01*
G01*
X42950500Y-96635000D01*
G75*
G02*
X43025500Y-96560000I75000J0D01*
G01*
X44350500Y-96560000D01*
G75*
G02*
X44425500Y-96635000I0J-75000D01*
G01*
G37*
G36*
G01*
X44425500Y-96135000D02*
X44425500Y-96285000D01*
G75*
G02*
X44350500Y-96360000I-75000J0D01*
G01*
X43025500Y-96360000D01*
G75*
G02*
X42950500Y-96285000I0J75000D01*
G01*
X42950500Y-96135000D01*
G75*
G02*
X43025500Y-96060000I75000J0D01*
G01*
X44350500Y-96060000D01*
G75*
G02*
X44425500Y-96135000I0J-75000D01*
G01*
G37*
G36*
G01*
X44425500Y-95635000D02*
X44425500Y-95785000D01*
G75*
G02*
X44350500Y-95860000I-75000J0D01*
G01*
X43025500Y-95860000D01*
G75*
G02*
X42950500Y-95785000I0J75000D01*
G01*
X42950500Y-95635000D01*
G75*
G02*
X43025500Y-95560000I75000J0D01*
G01*
X44350500Y-95560000D01*
G75*
G02*
X44425500Y-95635000I0J-75000D01*
G01*
G37*
G36*
G01*
X44425500Y-95135000D02*
X44425500Y-95285000D01*
G75*
G02*
X44350500Y-95360000I-75000J0D01*
G01*
X43025500Y-95360000D01*
G75*
G02*
X42950500Y-95285000I0J75000D01*
G01*
X42950500Y-95135000D01*
G75*
G02*
X43025500Y-95060000I75000J0D01*
G01*
X44350500Y-95060000D01*
G75*
G02*
X44425500Y-95135000I0J-75000D01*
G01*
G37*
G36*
G01*
X44425500Y-94635000D02*
X44425500Y-94785000D01*
G75*
G02*
X44350500Y-94860000I-75000J0D01*
G01*
X43025500Y-94860000D01*
G75*
G02*
X42950500Y-94785000I0J75000D01*
G01*
X42950500Y-94635000D01*
G75*
G02*
X43025500Y-94560000I75000J0D01*
G01*
X44350500Y-94560000D01*
G75*
G02*
X44425500Y-94635000I0J-75000D01*
G01*
G37*
G36*
G01*
X44425500Y-94135000D02*
X44425500Y-94285000D01*
G75*
G02*
X44350500Y-94360000I-75000J0D01*
G01*
X43025500Y-94360000D01*
G75*
G02*
X42950500Y-94285000I0J75000D01*
G01*
X42950500Y-94135000D01*
G75*
G02*
X43025500Y-94060000I75000J0D01*
G01*
X44350500Y-94060000D01*
G75*
G02*
X44425500Y-94135000I0J-75000D01*
G01*
G37*
G36*
G01*
X44425500Y-93635000D02*
X44425500Y-93785000D01*
G75*
G02*
X44350500Y-93860000I-75000J0D01*
G01*
X43025500Y-93860000D01*
G75*
G02*
X42950500Y-93785000I0J75000D01*
G01*
X42950500Y-93635000D01*
G75*
G02*
X43025500Y-93560000I75000J0D01*
G01*
X44350500Y-93560000D01*
G75*
G02*
X44425500Y-93635000I0J-75000D01*
G01*
G37*
G36*
G01*
X44425500Y-93135000D02*
X44425500Y-93285000D01*
G75*
G02*
X44350500Y-93360000I-75000J0D01*
G01*
X43025500Y-93360000D01*
G75*
G02*
X42950500Y-93285000I0J75000D01*
G01*
X42950500Y-93135000D01*
G75*
G02*
X43025500Y-93060000I75000J0D01*
G01*
X44350500Y-93060000D01*
G75*
G02*
X44425500Y-93135000I0J-75000D01*
G01*
G37*
G36*
G01*
X44425500Y-92635000D02*
X44425500Y-92785000D01*
G75*
G02*
X44350500Y-92860000I-75000J0D01*
G01*
X43025500Y-92860000D01*
G75*
G02*
X42950500Y-92785000I0J75000D01*
G01*
X42950500Y-92635000D01*
G75*
G02*
X43025500Y-92560000I75000J0D01*
G01*
X44350500Y-92560000D01*
G75*
G02*
X44425500Y-92635000I0J-75000D01*
G01*
G37*
G36*
G01*
X51850500Y-92635000D02*
X51850500Y-92785000D01*
G75*
G02*
X51775500Y-92860000I-75000J0D01*
G01*
X50450500Y-92860000D01*
G75*
G02*
X50375500Y-92785000I0J75000D01*
G01*
X50375500Y-92635000D01*
G75*
G02*
X50450500Y-92560000I75000J0D01*
G01*
X51775500Y-92560000D01*
G75*
G02*
X51850500Y-92635000I0J-75000D01*
G01*
G37*
G36*
G01*
X51850500Y-93135000D02*
X51850500Y-93285000D01*
G75*
G02*
X51775500Y-93360000I-75000J0D01*
G01*
X50450500Y-93360000D01*
G75*
G02*
X50375500Y-93285000I0J75000D01*
G01*
X50375500Y-93135000D01*
G75*
G02*
X50450500Y-93060000I75000J0D01*
G01*
X51775500Y-93060000D01*
G75*
G02*
X51850500Y-93135000I0J-75000D01*
G01*
G37*
G36*
G01*
X51850500Y-93635000D02*
X51850500Y-93785000D01*
G75*
G02*
X51775500Y-93860000I-75000J0D01*
G01*
X50450500Y-93860000D01*
G75*
G02*
X50375500Y-93785000I0J75000D01*
G01*
X50375500Y-93635000D01*
G75*
G02*
X50450500Y-93560000I75000J0D01*
G01*
X51775500Y-93560000D01*
G75*
G02*
X51850500Y-93635000I0J-75000D01*
G01*
G37*
G36*
G01*
X51850500Y-94135000D02*
X51850500Y-94285000D01*
G75*
G02*
X51775500Y-94360000I-75000J0D01*
G01*
X50450500Y-94360000D01*
G75*
G02*
X50375500Y-94285000I0J75000D01*
G01*
X50375500Y-94135000D01*
G75*
G02*
X50450500Y-94060000I75000J0D01*
G01*
X51775500Y-94060000D01*
G75*
G02*
X51850500Y-94135000I0J-75000D01*
G01*
G37*
G36*
G01*
X51850500Y-94635000D02*
X51850500Y-94785000D01*
G75*
G02*
X51775500Y-94860000I-75000J0D01*
G01*
X50450500Y-94860000D01*
G75*
G02*
X50375500Y-94785000I0J75000D01*
G01*
X50375500Y-94635000D01*
G75*
G02*
X50450500Y-94560000I75000J0D01*
G01*
X51775500Y-94560000D01*
G75*
G02*
X51850500Y-94635000I0J-75000D01*
G01*
G37*
G36*
G01*
X51850500Y-95135000D02*
X51850500Y-95285000D01*
G75*
G02*
X51775500Y-95360000I-75000J0D01*
G01*
X50450500Y-95360000D01*
G75*
G02*
X50375500Y-95285000I0J75000D01*
G01*
X50375500Y-95135000D01*
G75*
G02*
X50450500Y-95060000I75000J0D01*
G01*
X51775500Y-95060000D01*
G75*
G02*
X51850500Y-95135000I0J-75000D01*
G01*
G37*
G36*
G01*
X51850500Y-95635000D02*
X51850500Y-95785000D01*
G75*
G02*
X51775500Y-95860000I-75000J0D01*
G01*
X50450500Y-95860000D01*
G75*
G02*
X50375500Y-95785000I0J75000D01*
G01*
X50375500Y-95635000D01*
G75*
G02*
X50450500Y-95560000I75000J0D01*
G01*
X51775500Y-95560000D01*
G75*
G02*
X51850500Y-95635000I0J-75000D01*
G01*
G37*
G36*
G01*
X51850500Y-96135000D02*
X51850500Y-96285000D01*
G75*
G02*
X51775500Y-96360000I-75000J0D01*
G01*
X50450500Y-96360000D01*
G75*
G02*
X50375500Y-96285000I0J75000D01*
G01*
X50375500Y-96135000D01*
G75*
G02*
X50450500Y-96060000I75000J0D01*
G01*
X51775500Y-96060000D01*
G75*
G02*
X51850500Y-96135000I0J-75000D01*
G01*
G37*
G36*
G01*
X51850500Y-96635000D02*
X51850500Y-96785000D01*
G75*
G02*
X51775500Y-96860000I-75000J0D01*
G01*
X50450500Y-96860000D01*
G75*
G02*
X50375500Y-96785000I0J75000D01*
G01*
X50375500Y-96635000D01*
G75*
G02*
X50450500Y-96560000I75000J0D01*
G01*
X51775500Y-96560000D01*
G75*
G02*
X51850500Y-96635000I0J-75000D01*
G01*
G37*
G36*
G01*
X51850500Y-97135000D02*
X51850500Y-97285000D01*
G75*
G02*
X51775500Y-97360000I-75000J0D01*
G01*
X50450500Y-97360000D01*
G75*
G02*
X50375500Y-97285000I0J75000D01*
G01*
X50375500Y-97135000D01*
G75*
G02*
X50450500Y-97060000I75000J0D01*
G01*
X51775500Y-97060000D01*
G75*
G02*
X51850500Y-97135000I0J-75000D01*
G01*
G37*
G36*
G01*
X51850500Y-97635000D02*
X51850500Y-97785000D01*
G75*
G02*
X51775500Y-97860000I-75000J0D01*
G01*
X50450500Y-97860000D01*
G75*
G02*
X50375500Y-97785000I0J75000D01*
G01*
X50375500Y-97635000D01*
G75*
G02*
X50450500Y-97560000I75000J0D01*
G01*
X51775500Y-97560000D01*
G75*
G02*
X51850500Y-97635000I0J-75000D01*
G01*
G37*
G36*
G01*
X51850500Y-98135000D02*
X51850500Y-98285000D01*
G75*
G02*
X51775500Y-98360000I-75000J0D01*
G01*
X50450500Y-98360000D01*
G75*
G02*
X50375500Y-98285000I0J75000D01*
G01*
X50375500Y-98135000D01*
G75*
G02*
X50450500Y-98060000I75000J0D01*
G01*
X51775500Y-98060000D01*
G75*
G02*
X51850500Y-98135000I0J-75000D01*
G01*
G37*
G36*
G01*
X51850500Y-98635000D02*
X51850500Y-98785000D01*
G75*
G02*
X51775500Y-98860000I-75000J0D01*
G01*
X50450500Y-98860000D01*
G75*
G02*
X50375500Y-98785000I0J75000D01*
G01*
X50375500Y-98635000D01*
G75*
G02*
X50450500Y-98560000I75000J0D01*
G01*
X51775500Y-98560000D01*
G75*
G02*
X51850500Y-98635000I0J-75000D01*
G01*
G37*
G36*
G01*
X51850500Y-99135000D02*
X51850500Y-99285000D01*
G75*
G02*
X51775500Y-99360000I-75000J0D01*
G01*
X50450500Y-99360000D01*
G75*
G02*
X50375500Y-99285000I0J75000D01*
G01*
X50375500Y-99135000D01*
G75*
G02*
X50450500Y-99060000I75000J0D01*
G01*
X51775500Y-99060000D01*
G75*
G02*
X51850500Y-99135000I0J-75000D01*
G01*
G37*
G36*
G01*
X51850500Y-99635000D02*
X51850500Y-99785000D01*
G75*
G02*
X51775500Y-99860000I-75000J0D01*
G01*
X50450500Y-99860000D01*
G75*
G02*
X50375500Y-99785000I0J75000D01*
G01*
X50375500Y-99635000D01*
G75*
G02*
X50450500Y-99560000I75000J0D01*
G01*
X51775500Y-99560000D01*
G75*
G02*
X51850500Y-99635000I0J-75000D01*
G01*
G37*
G36*
G01*
X51850500Y-100135000D02*
X51850500Y-100285000D01*
G75*
G02*
X51775500Y-100360000I-75000J0D01*
G01*
X50450500Y-100360000D01*
G75*
G02*
X50375500Y-100285000I0J75000D01*
G01*
X50375500Y-100135000D01*
G75*
G02*
X50450500Y-100060000I75000J0D01*
G01*
X51775500Y-100060000D01*
G75*
G02*
X51850500Y-100135000I0J-75000D01*
G01*
G37*
G36*
G01*
X51850500Y-100635000D02*
X51850500Y-100785000D01*
G75*
G02*
X51775500Y-100860000I-75000J0D01*
G01*
X50450500Y-100860000D01*
G75*
G02*
X50375500Y-100785000I0J75000D01*
G01*
X50375500Y-100635000D01*
G75*
G02*
X50450500Y-100560000I75000J0D01*
G01*
X51775500Y-100560000D01*
G75*
G02*
X51850500Y-100635000I0J-75000D01*
G01*
G37*
G36*
G01*
X51850500Y-101135000D02*
X51850500Y-101285000D01*
G75*
G02*
X51775500Y-101360000I-75000J0D01*
G01*
X50450500Y-101360000D01*
G75*
G02*
X50375500Y-101285000I0J75000D01*
G01*
X50375500Y-101135000D01*
G75*
G02*
X50450500Y-101060000I75000J0D01*
G01*
X51775500Y-101060000D01*
G75*
G02*
X51850500Y-101135000I0J-75000D01*
G01*
G37*
G36*
G01*
X51850500Y-101635000D02*
X51850500Y-101785000D01*
G75*
G02*
X51775500Y-101860000I-75000J0D01*
G01*
X50450500Y-101860000D01*
G75*
G02*
X50375500Y-101785000I0J75000D01*
G01*
X50375500Y-101635000D01*
G75*
G02*
X50450500Y-101560000I75000J0D01*
G01*
X51775500Y-101560000D01*
G75*
G02*
X51850500Y-101635000I0J-75000D01*
G01*
G37*
G36*
G01*
X51850500Y-102135000D02*
X51850500Y-102285000D01*
G75*
G02*
X51775500Y-102360000I-75000J0D01*
G01*
X50450500Y-102360000D01*
G75*
G02*
X50375500Y-102285000I0J75000D01*
G01*
X50375500Y-102135000D01*
G75*
G02*
X50450500Y-102060000I75000J0D01*
G01*
X51775500Y-102060000D01*
G75*
G02*
X51850500Y-102135000I0J-75000D01*
G01*
G37*
G36*
G01*
X51850500Y-102635000D02*
X51850500Y-102785000D01*
G75*
G02*
X51775500Y-102860000I-75000J0D01*
G01*
X50450500Y-102860000D01*
G75*
G02*
X50375500Y-102785000I0J75000D01*
G01*
X50375500Y-102635000D01*
G75*
G02*
X50450500Y-102560000I75000J0D01*
G01*
X51775500Y-102560000D01*
G75*
G02*
X51850500Y-102635000I0J-75000D01*
G01*
G37*
G36*
G01*
X51850500Y-103135000D02*
X51850500Y-103285000D01*
G75*
G02*
X51775500Y-103360000I-75000J0D01*
G01*
X50450500Y-103360000D01*
G75*
G02*
X50375500Y-103285000I0J75000D01*
G01*
X50375500Y-103135000D01*
G75*
G02*
X50450500Y-103060000I75000J0D01*
G01*
X51775500Y-103060000D01*
G75*
G02*
X51850500Y-103135000I0J-75000D01*
G01*
G37*
G36*
G01*
X51850500Y-103635000D02*
X51850500Y-103785000D01*
G75*
G02*
X51775500Y-103860000I-75000J0D01*
G01*
X50450500Y-103860000D01*
G75*
G02*
X50375500Y-103785000I0J75000D01*
G01*
X50375500Y-103635000D01*
G75*
G02*
X50450500Y-103560000I75000J0D01*
G01*
X51775500Y-103560000D01*
G75*
G02*
X51850500Y-103635000I0J-75000D01*
G01*
G37*
G36*
G01*
X51850500Y-104135000D02*
X51850500Y-104285000D01*
G75*
G02*
X51775500Y-104360000I-75000J0D01*
G01*
X50450500Y-104360000D01*
G75*
G02*
X50375500Y-104285000I0J75000D01*
G01*
X50375500Y-104135000D01*
G75*
G02*
X50450500Y-104060000I75000J0D01*
G01*
X51775500Y-104060000D01*
G75*
G02*
X51850500Y-104135000I0J-75000D01*
G01*
G37*
X47400500Y-98460000D03*
%TD*%
D12*
%TO.C,U7*%
X75946000Y-139192000D03*
X75946000Y-140142000D03*
X75946000Y-141092000D03*
X73596000Y-141092000D03*
X73596000Y-140142000D03*
X73596000Y-139192000D03*
%TD*%
%TO.C,U8*%
G36*
G01*
X82827000Y-138962000D02*
X82527000Y-138962000D01*
G75*
G02*
X82377000Y-138812000I0J150000D01*
G01*
X82377000Y-137162000D01*
G75*
G02*
X82527000Y-137012000I150000J0D01*
G01*
X82827000Y-137012000D01*
G75*
G02*
X82977000Y-137162000I0J-150000D01*
G01*
X82977000Y-138812000D01*
G75*
G02*
X82827000Y-138962000I-150000J0D01*
G01*
G37*
G36*
G01*
X84097000Y-138962000D02*
X83797000Y-138962000D01*
G75*
G02*
X83647000Y-138812000I0J150000D01*
G01*
X83647000Y-137162000D01*
G75*
G02*
X83797000Y-137012000I150000J0D01*
G01*
X84097000Y-137012000D01*
G75*
G02*
X84247000Y-137162000I0J-150000D01*
G01*
X84247000Y-138812000D01*
G75*
G02*
X84097000Y-138962000I-150000J0D01*
G01*
G37*
G36*
G01*
X85367000Y-138962000D02*
X85067000Y-138962000D01*
G75*
G02*
X84917000Y-138812000I0J150000D01*
G01*
X84917000Y-137162000D01*
G75*
G02*
X85067000Y-137012000I150000J0D01*
G01*
X85367000Y-137012000D01*
G75*
G02*
X85517000Y-137162000I0J-150000D01*
G01*
X85517000Y-138812000D01*
G75*
G02*
X85367000Y-138962000I-150000J0D01*
G01*
G37*
G36*
G01*
X86637000Y-138962000D02*
X86337000Y-138962000D01*
G75*
G02*
X86187000Y-138812000I0J150000D01*
G01*
X86187000Y-137162000D01*
G75*
G02*
X86337000Y-137012000I150000J0D01*
G01*
X86637000Y-137012000D01*
G75*
G02*
X86787000Y-137162000I0J-150000D01*
G01*
X86787000Y-138812000D01*
G75*
G02*
X86637000Y-138962000I-150000J0D01*
G01*
G37*
G36*
G01*
X86637000Y-143912000D02*
X86337000Y-143912000D01*
G75*
G02*
X86187000Y-143762000I0J150000D01*
G01*
X86187000Y-142112000D01*
G75*
G02*
X86337000Y-141962000I150000J0D01*
G01*
X86637000Y-141962000D01*
G75*
G02*
X86787000Y-142112000I0J-150000D01*
G01*
X86787000Y-143762000D01*
G75*
G02*
X86637000Y-143912000I-150000J0D01*
G01*
G37*
G36*
G01*
X85367000Y-143912000D02*
X85067000Y-143912000D01*
G75*
G02*
X84917000Y-143762000I0J150000D01*
G01*
X84917000Y-142112000D01*
G75*
G02*
X85067000Y-141962000I150000J0D01*
G01*
X85367000Y-141962000D01*
G75*
G02*
X85517000Y-142112000I0J-150000D01*
G01*
X85517000Y-143762000D01*
G75*
G02*
X85367000Y-143912000I-150000J0D01*
G01*
G37*
G36*
G01*
X84097000Y-143912000D02*
X83797000Y-143912000D01*
G75*
G02*
X83647000Y-143762000I0J150000D01*
G01*
X83647000Y-142112000D01*
G75*
G02*
X83797000Y-141962000I150000J0D01*
G01*
X84097000Y-141962000D01*
G75*
G02*
X84247000Y-142112000I0J-150000D01*
G01*
X84247000Y-143762000D01*
G75*
G02*
X84097000Y-143912000I-150000J0D01*
G01*
G37*
G36*
G01*
X82827000Y-143912000D02*
X82527000Y-143912000D01*
G75*
G02*
X82377000Y-143762000I0J150000D01*
G01*
X82377000Y-142112000D01*
G75*
G02*
X82527000Y-141962000I150000J0D01*
G01*
X82827000Y-141962000D01*
G75*
G02*
X82977000Y-142112000I0J-150000D01*
G01*
X82977000Y-143762000D01*
G75*
G02*
X82827000Y-143912000I-150000J0D01*
G01*
G37*
%TD*%
%TO.C,U10*%
X88233000Y-139258000D03*
X88233000Y-140208000D03*
X88233000Y-141158000D03*
X90583000Y-141158000D03*
X90583000Y-140208000D03*
X90583000Y-139258000D03*
%TD*%
D11*
%TO.C,U12*%
X120298500Y-98460500D03*
G36*
G01*
X124748500Y-104135500D02*
X124748500Y-104285500D01*
G75*
G02*
X124673500Y-104360500I-75000J0D01*
G01*
X123348500Y-104360500D01*
G75*
G02*
X123273500Y-104285500I0J75000D01*
G01*
X123273500Y-104135500D01*
G75*
G02*
X123348500Y-104060500I75000J0D01*
G01*
X124673500Y-104060500D01*
G75*
G02*
X124748500Y-104135500I0J-75000D01*
G01*
G37*
G36*
G01*
X124748500Y-103635500D02*
X124748500Y-103785500D01*
G75*
G02*
X124673500Y-103860500I-75000J0D01*
G01*
X123348500Y-103860500D01*
G75*
G02*
X123273500Y-103785500I0J75000D01*
G01*
X123273500Y-103635500D01*
G75*
G02*
X123348500Y-103560500I75000J0D01*
G01*
X124673500Y-103560500D01*
G75*
G02*
X124748500Y-103635500I0J-75000D01*
G01*
G37*
G36*
G01*
X124748500Y-103135500D02*
X124748500Y-103285500D01*
G75*
G02*
X124673500Y-103360500I-75000J0D01*
G01*
X123348500Y-103360500D01*
G75*
G02*
X123273500Y-103285500I0J75000D01*
G01*
X123273500Y-103135500D01*
G75*
G02*
X123348500Y-103060500I75000J0D01*
G01*
X124673500Y-103060500D01*
G75*
G02*
X124748500Y-103135500I0J-75000D01*
G01*
G37*
G36*
G01*
X124748500Y-102635500D02*
X124748500Y-102785500D01*
G75*
G02*
X124673500Y-102860500I-75000J0D01*
G01*
X123348500Y-102860500D01*
G75*
G02*
X123273500Y-102785500I0J75000D01*
G01*
X123273500Y-102635500D01*
G75*
G02*
X123348500Y-102560500I75000J0D01*
G01*
X124673500Y-102560500D01*
G75*
G02*
X124748500Y-102635500I0J-75000D01*
G01*
G37*
G36*
G01*
X124748500Y-102135500D02*
X124748500Y-102285500D01*
G75*
G02*
X124673500Y-102360500I-75000J0D01*
G01*
X123348500Y-102360500D01*
G75*
G02*
X123273500Y-102285500I0J75000D01*
G01*
X123273500Y-102135500D01*
G75*
G02*
X123348500Y-102060500I75000J0D01*
G01*
X124673500Y-102060500D01*
G75*
G02*
X124748500Y-102135500I0J-75000D01*
G01*
G37*
G36*
G01*
X124748500Y-101635500D02*
X124748500Y-101785500D01*
G75*
G02*
X124673500Y-101860500I-75000J0D01*
G01*
X123348500Y-101860500D01*
G75*
G02*
X123273500Y-101785500I0J75000D01*
G01*
X123273500Y-101635500D01*
G75*
G02*
X123348500Y-101560500I75000J0D01*
G01*
X124673500Y-101560500D01*
G75*
G02*
X124748500Y-101635500I0J-75000D01*
G01*
G37*
G36*
G01*
X124748500Y-101135500D02*
X124748500Y-101285500D01*
G75*
G02*
X124673500Y-101360500I-75000J0D01*
G01*
X123348500Y-101360500D01*
G75*
G02*
X123273500Y-101285500I0J75000D01*
G01*
X123273500Y-101135500D01*
G75*
G02*
X123348500Y-101060500I75000J0D01*
G01*
X124673500Y-101060500D01*
G75*
G02*
X124748500Y-101135500I0J-75000D01*
G01*
G37*
G36*
G01*
X124748500Y-100635500D02*
X124748500Y-100785500D01*
G75*
G02*
X124673500Y-100860500I-75000J0D01*
G01*
X123348500Y-100860500D01*
G75*
G02*
X123273500Y-100785500I0J75000D01*
G01*
X123273500Y-100635500D01*
G75*
G02*
X123348500Y-100560500I75000J0D01*
G01*
X124673500Y-100560500D01*
G75*
G02*
X124748500Y-100635500I0J-75000D01*
G01*
G37*
G36*
G01*
X124748500Y-100135500D02*
X124748500Y-100285500D01*
G75*
G02*
X124673500Y-100360500I-75000J0D01*
G01*
X123348500Y-100360500D01*
G75*
G02*
X123273500Y-100285500I0J75000D01*
G01*
X123273500Y-100135500D01*
G75*
G02*
X123348500Y-100060500I75000J0D01*
G01*
X124673500Y-100060500D01*
G75*
G02*
X124748500Y-100135500I0J-75000D01*
G01*
G37*
G36*
G01*
X124748500Y-99635500D02*
X124748500Y-99785500D01*
G75*
G02*
X124673500Y-99860500I-75000J0D01*
G01*
X123348500Y-99860500D01*
G75*
G02*
X123273500Y-99785500I0J75000D01*
G01*
X123273500Y-99635500D01*
G75*
G02*
X123348500Y-99560500I75000J0D01*
G01*
X124673500Y-99560500D01*
G75*
G02*
X124748500Y-99635500I0J-75000D01*
G01*
G37*
G36*
G01*
X124748500Y-99135500D02*
X124748500Y-99285500D01*
G75*
G02*
X124673500Y-99360500I-75000J0D01*
G01*
X123348500Y-99360500D01*
G75*
G02*
X123273500Y-99285500I0J75000D01*
G01*
X123273500Y-99135500D01*
G75*
G02*
X123348500Y-99060500I75000J0D01*
G01*
X124673500Y-99060500D01*
G75*
G02*
X124748500Y-99135500I0J-75000D01*
G01*
G37*
G36*
G01*
X124748500Y-98635500D02*
X124748500Y-98785500D01*
G75*
G02*
X124673500Y-98860500I-75000J0D01*
G01*
X123348500Y-98860500D01*
G75*
G02*
X123273500Y-98785500I0J75000D01*
G01*
X123273500Y-98635500D01*
G75*
G02*
X123348500Y-98560500I75000J0D01*
G01*
X124673500Y-98560500D01*
G75*
G02*
X124748500Y-98635500I0J-75000D01*
G01*
G37*
G36*
G01*
X124748500Y-98135500D02*
X124748500Y-98285500D01*
G75*
G02*
X124673500Y-98360500I-75000J0D01*
G01*
X123348500Y-98360500D01*
G75*
G02*
X123273500Y-98285500I0J75000D01*
G01*
X123273500Y-98135500D01*
G75*
G02*
X123348500Y-98060500I75000J0D01*
G01*
X124673500Y-98060500D01*
G75*
G02*
X124748500Y-98135500I0J-75000D01*
G01*
G37*
G36*
G01*
X124748500Y-97635500D02*
X124748500Y-97785500D01*
G75*
G02*
X124673500Y-97860500I-75000J0D01*
G01*
X123348500Y-97860500D01*
G75*
G02*
X123273500Y-97785500I0J75000D01*
G01*
X123273500Y-97635500D01*
G75*
G02*
X123348500Y-97560500I75000J0D01*
G01*
X124673500Y-97560500D01*
G75*
G02*
X124748500Y-97635500I0J-75000D01*
G01*
G37*
G36*
G01*
X124748500Y-97135500D02*
X124748500Y-97285500D01*
G75*
G02*
X124673500Y-97360500I-75000J0D01*
G01*
X123348500Y-97360500D01*
G75*
G02*
X123273500Y-97285500I0J75000D01*
G01*
X123273500Y-97135500D01*
G75*
G02*
X123348500Y-97060500I75000J0D01*
G01*
X124673500Y-97060500D01*
G75*
G02*
X124748500Y-97135500I0J-75000D01*
G01*
G37*
G36*
G01*
X124748500Y-96635500D02*
X124748500Y-96785500D01*
G75*
G02*
X124673500Y-96860500I-75000J0D01*
G01*
X123348500Y-96860500D01*
G75*
G02*
X123273500Y-96785500I0J75000D01*
G01*
X123273500Y-96635500D01*
G75*
G02*
X123348500Y-96560500I75000J0D01*
G01*
X124673500Y-96560500D01*
G75*
G02*
X124748500Y-96635500I0J-75000D01*
G01*
G37*
G36*
G01*
X124748500Y-96135500D02*
X124748500Y-96285500D01*
G75*
G02*
X124673500Y-96360500I-75000J0D01*
G01*
X123348500Y-96360500D01*
G75*
G02*
X123273500Y-96285500I0J75000D01*
G01*
X123273500Y-96135500D01*
G75*
G02*
X123348500Y-96060500I75000J0D01*
G01*
X124673500Y-96060500D01*
G75*
G02*
X124748500Y-96135500I0J-75000D01*
G01*
G37*
G36*
G01*
X124748500Y-95635500D02*
X124748500Y-95785500D01*
G75*
G02*
X124673500Y-95860500I-75000J0D01*
G01*
X123348500Y-95860500D01*
G75*
G02*
X123273500Y-95785500I0J75000D01*
G01*
X123273500Y-95635500D01*
G75*
G02*
X123348500Y-95560500I75000J0D01*
G01*
X124673500Y-95560500D01*
G75*
G02*
X124748500Y-95635500I0J-75000D01*
G01*
G37*
G36*
G01*
X124748500Y-95135500D02*
X124748500Y-95285500D01*
G75*
G02*
X124673500Y-95360500I-75000J0D01*
G01*
X123348500Y-95360500D01*
G75*
G02*
X123273500Y-95285500I0J75000D01*
G01*
X123273500Y-95135500D01*
G75*
G02*
X123348500Y-95060500I75000J0D01*
G01*
X124673500Y-95060500D01*
G75*
G02*
X124748500Y-95135500I0J-75000D01*
G01*
G37*
G36*
G01*
X124748500Y-94635500D02*
X124748500Y-94785500D01*
G75*
G02*
X124673500Y-94860500I-75000J0D01*
G01*
X123348500Y-94860500D01*
G75*
G02*
X123273500Y-94785500I0J75000D01*
G01*
X123273500Y-94635500D01*
G75*
G02*
X123348500Y-94560500I75000J0D01*
G01*
X124673500Y-94560500D01*
G75*
G02*
X124748500Y-94635500I0J-75000D01*
G01*
G37*
G36*
G01*
X124748500Y-94135500D02*
X124748500Y-94285500D01*
G75*
G02*
X124673500Y-94360500I-75000J0D01*
G01*
X123348500Y-94360500D01*
G75*
G02*
X123273500Y-94285500I0J75000D01*
G01*
X123273500Y-94135500D01*
G75*
G02*
X123348500Y-94060500I75000J0D01*
G01*
X124673500Y-94060500D01*
G75*
G02*
X124748500Y-94135500I0J-75000D01*
G01*
G37*
G36*
G01*
X124748500Y-93635500D02*
X124748500Y-93785500D01*
G75*
G02*
X124673500Y-93860500I-75000J0D01*
G01*
X123348500Y-93860500D01*
G75*
G02*
X123273500Y-93785500I0J75000D01*
G01*
X123273500Y-93635500D01*
G75*
G02*
X123348500Y-93560500I75000J0D01*
G01*
X124673500Y-93560500D01*
G75*
G02*
X124748500Y-93635500I0J-75000D01*
G01*
G37*
G36*
G01*
X124748500Y-93135500D02*
X124748500Y-93285500D01*
G75*
G02*
X124673500Y-93360500I-75000J0D01*
G01*
X123348500Y-93360500D01*
G75*
G02*
X123273500Y-93285500I0J75000D01*
G01*
X123273500Y-93135500D01*
G75*
G02*
X123348500Y-93060500I75000J0D01*
G01*
X124673500Y-93060500D01*
G75*
G02*
X124748500Y-93135500I0J-75000D01*
G01*
G37*
G36*
G01*
X124748500Y-92635500D02*
X124748500Y-92785500D01*
G75*
G02*
X124673500Y-92860500I-75000J0D01*
G01*
X123348500Y-92860500D01*
G75*
G02*
X123273500Y-92785500I0J75000D01*
G01*
X123273500Y-92635500D01*
G75*
G02*
X123348500Y-92560500I75000J0D01*
G01*
X124673500Y-92560500D01*
G75*
G02*
X124748500Y-92635500I0J-75000D01*
G01*
G37*
G36*
G01*
X117323500Y-92635500D02*
X117323500Y-92785500D01*
G75*
G02*
X117248500Y-92860500I-75000J0D01*
G01*
X115923500Y-92860500D01*
G75*
G02*
X115848500Y-92785500I0J75000D01*
G01*
X115848500Y-92635500D01*
G75*
G02*
X115923500Y-92560500I75000J0D01*
G01*
X117248500Y-92560500D01*
G75*
G02*
X117323500Y-92635500I0J-75000D01*
G01*
G37*
G36*
G01*
X117323500Y-93135500D02*
X117323500Y-93285500D01*
G75*
G02*
X117248500Y-93360500I-75000J0D01*
G01*
X115923500Y-93360500D01*
G75*
G02*
X115848500Y-93285500I0J75000D01*
G01*
X115848500Y-93135500D01*
G75*
G02*
X115923500Y-93060500I75000J0D01*
G01*
X117248500Y-93060500D01*
G75*
G02*
X117323500Y-93135500I0J-75000D01*
G01*
G37*
G36*
G01*
X117323500Y-93635500D02*
X117323500Y-93785500D01*
G75*
G02*
X117248500Y-93860500I-75000J0D01*
G01*
X115923500Y-93860500D01*
G75*
G02*
X115848500Y-93785500I0J75000D01*
G01*
X115848500Y-93635500D01*
G75*
G02*
X115923500Y-93560500I75000J0D01*
G01*
X117248500Y-93560500D01*
G75*
G02*
X117323500Y-93635500I0J-75000D01*
G01*
G37*
G36*
G01*
X117323500Y-94135500D02*
X117323500Y-94285500D01*
G75*
G02*
X117248500Y-94360500I-75000J0D01*
G01*
X115923500Y-94360500D01*
G75*
G02*
X115848500Y-94285500I0J75000D01*
G01*
X115848500Y-94135500D01*
G75*
G02*
X115923500Y-94060500I75000J0D01*
G01*
X117248500Y-94060500D01*
G75*
G02*
X117323500Y-94135500I0J-75000D01*
G01*
G37*
G36*
G01*
X117323500Y-94635500D02*
X117323500Y-94785500D01*
G75*
G02*
X117248500Y-94860500I-75000J0D01*
G01*
X115923500Y-94860500D01*
G75*
G02*
X115848500Y-94785500I0J75000D01*
G01*
X115848500Y-94635500D01*
G75*
G02*
X115923500Y-94560500I75000J0D01*
G01*
X117248500Y-94560500D01*
G75*
G02*
X117323500Y-94635500I0J-75000D01*
G01*
G37*
G36*
G01*
X117323500Y-95135500D02*
X117323500Y-95285500D01*
G75*
G02*
X117248500Y-95360500I-75000J0D01*
G01*
X115923500Y-95360500D01*
G75*
G02*
X115848500Y-95285500I0J75000D01*
G01*
X115848500Y-95135500D01*
G75*
G02*
X115923500Y-95060500I75000J0D01*
G01*
X117248500Y-95060500D01*
G75*
G02*
X117323500Y-95135500I0J-75000D01*
G01*
G37*
G36*
G01*
X117323500Y-95635500D02*
X117323500Y-95785500D01*
G75*
G02*
X117248500Y-95860500I-75000J0D01*
G01*
X115923500Y-95860500D01*
G75*
G02*
X115848500Y-95785500I0J75000D01*
G01*
X115848500Y-95635500D01*
G75*
G02*
X115923500Y-95560500I75000J0D01*
G01*
X117248500Y-95560500D01*
G75*
G02*
X117323500Y-95635500I0J-75000D01*
G01*
G37*
G36*
G01*
X117323500Y-96135500D02*
X117323500Y-96285500D01*
G75*
G02*
X117248500Y-96360500I-75000J0D01*
G01*
X115923500Y-96360500D01*
G75*
G02*
X115848500Y-96285500I0J75000D01*
G01*
X115848500Y-96135500D01*
G75*
G02*
X115923500Y-96060500I75000J0D01*
G01*
X117248500Y-96060500D01*
G75*
G02*
X117323500Y-96135500I0J-75000D01*
G01*
G37*
G36*
G01*
X117323500Y-96635500D02*
X117323500Y-96785500D01*
G75*
G02*
X117248500Y-96860500I-75000J0D01*
G01*
X115923500Y-96860500D01*
G75*
G02*
X115848500Y-96785500I0J75000D01*
G01*
X115848500Y-96635500D01*
G75*
G02*
X115923500Y-96560500I75000J0D01*
G01*
X117248500Y-96560500D01*
G75*
G02*
X117323500Y-96635500I0J-75000D01*
G01*
G37*
G36*
G01*
X117323500Y-97135500D02*
X117323500Y-97285500D01*
G75*
G02*
X117248500Y-97360500I-75000J0D01*
G01*
X115923500Y-97360500D01*
G75*
G02*
X115848500Y-97285500I0J75000D01*
G01*
X115848500Y-97135500D01*
G75*
G02*
X115923500Y-97060500I75000J0D01*
G01*
X117248500Y-97060500D01*
G75*
G02*
X117323500Y-97135500I0J-75000D01*
G01*
G37*
G36*
G01*
X117323500Y-97635500D02*
X117323500Y-97785500D01*
G75*
G02*
X117248500Y-97860500I-75000J0D01*
G01*
X115923500Y-97860500D01*
G75*
G02*
X115848500Y-97785500I0J75000D01*
G01*
X115848500Y-97635500D01*
G75*
G02*
X115923500Y-97560500I75000J0D01*
G01*
X117248500Y-97560500D01*
G75*
G02*
X117323500Y-97635500I0J-75000D01*
G01*
G37*
G36*
G01*
X117323500Y-98135500D02*
X117323500Y-98285500D01*
G75*
G02*
X117248500Y-98360500I-75000J0D01*
G01*
X115923500Y-98360500D01*
G75*
G02*
X115848500Y-98285500I0J75000D01*
G01*
X115848500Y-98135500D01*
G75*
G02*
X115923500Y-98060500I75000J0D01*
G01*
X117248500Y-98060500D01*
G75*
G02*
X117323500Y-98135500I0J-75000D01*
G01*
G37*
G36*
G01*
X117323500Y-98635500D02*
X117323500Y-98785500D01*
G75*
G02*
X117248500Y-98860500I-75000J0D01*
G01*
X115923500Y-98860500D01*
G75*
G02*
X115848500Y-98785500I0J75000D01*
G01*
X115848500Y-98635500D01*
G75*
G02*
X115923500Y-98560500I75000J0D01*
G01*
X117248500Y-98560500D01*
G75*
G02*
X117323500Y-98635500I0J-75000D01*
G01*
G37*
G36*
G01*
X117323500Y-99135500D02*
X117323500Y-99285500D01*
G75*
G02*
X117248500Y-99360500I-75000J0D01*
G01*
X115923500Y-99360500D01*
G75*
G02*
X115848500Y-99285500I0J75000D01*
G01*
X115848500Y-99135500D01*
G75*
G02*
X115923500Y-99060500I75000J0D01*
G01*
X117248500Y-99060500D01*
G75*
G02*
X117323500Y-99135500I0J-75000D01*
G01*
G37*
G36*
G01*
X117323500Y-99635500D02*
X117323500Y-99785500D01*
G75*
G02*
X117248500Y-99860500I-75000J0D01*
G01*
X115923500Y-99860500D01*
G75*
G02*
X115848500Y-99785500I0J75000D01*
G01*
X115848500Y-99635500D01*
G75*
G02*
X115923500Y-99560500I75000J0D01*
G01*
X117248500Y-99560500D01*
G75*
G02*
X117323500Y-99635500I0J-75000D01*
G01*
G37*
G36*
G01*
X117323500Y-100135500D02*
X117323500Y-100285500D01*
G75*
G02*
X117248500Y-100360500I-75000J0D01*
G01*
X115923500Y-100360500D01*
G75*
G02*
X115848500Y-100285500I0J75000D01*
G01*
X115848500Y-100135500D01*
G75*
G02*
X115923500Y-100060500I75000J0D01*
G01*
X117248500Y-100060500D01*
G75*
G02*
X117323500Y-100135500I0J-75000D01*
G01*
G37*
G36*
G01*
X117323500Y-100635500D02*
X117323500Y-100785500D01*
G75*
G02*
X117248500Y-100860500I-75000J0D01*
G01*
X115923500Y-100860500D01*
G75*
G02*
X115848500Y-100785500I0J75000D01*
G01*
X115848500Y-100635500D01*
G75*
G02*
X115923500Y-100560500I75000J0D01*
G01*
X117248500Y-100560500D01*
G75*
G02*
X117323500Y-100635500I0J-75000D01*
G01*
G37*
G36*
G01*
X117323500Y-101135500D02*
X117323500Y-101285500D01*
G75*
G02*
X117248500Y-101360500I-75000J0D01*
G01*
X115923500Y-101360500D01*
G75*
G02*
X115848500Y-101285500I0J75000D01*
G01*
X115848500Y-101135500D01*
G75*
G02*
X115923500Y-101060500I75000J0D01*
G01*
X117248500Y-101060500D01*
G75*
G02*
X117323500Y-101135500I0J-75000D01*
G01*
G37*
G36*
G01*
X117323500Y-101635500D02*
X117323500Y-101785500D01*
G75*
G02*
X117248500Y-101860500I-75000J0D01*
G01*
X115923500Y-101860500D01*
G75*
G02*
X115848500Y-101785500I0J75000D01*
G01*
X115848500Y-101635500D01*
G75*
G02*
X115923500Y-101560500I75000J0D01*
G01*
X117248500Y-101560500D01*
G75*
G02*
X117323500Y-101635500I0J-75000D01*
G01*
G37*
G36*
G01*
X117323500Y-102135500D02*
X117323500Y-102285500D01*
G75*
G02*
X117248500Y-102360500I-75000J0D01*
G01*
X115923500Y-102360500D01*
G75*
G02*
X115848500Y-102285500I0J75000D01*
G01*
X115848500Y-102135500D01*
G75*
G02*
X115923500Y-102060500I75000J0D01*
G01*
X117248500Y-102060500D01*
G75*
G02*
X117323500Y-102135500I0J-75000D01*
G01*
G37*
G36*
G01*
X117323500Y-102635500D02*
X117323500Y-102785500D01*
G75*
G02*
X117248500Y-102860500I-75000J0D01*
G01*
X115923500Y-102860500D01*
G75*
G02*
X115848500Y-102785500I0J75000D01*
G01*
X115848500Y-102635500D01*
G75*
G02*
X115923500Y-102560500I75000J0D01*
G01*
X117248500Y-102560500D01*
G75*
G02*
X117323500Y-102635500I0J-75000D01*
G01*
G37*
G36*
G01*
X117323500Y-103135500D02*
X117323500Y-103285500D01*
G75*
G02*
X117248500Y-103360500I-75000J0D01*
G01*
X115923500Y-103360500D01*
G75*
G02*
X115848500Y-103285500I0J75000D01*
G01*
X115848500Y-103135500D01*
G75*
G02*
X115923500Y-103060500I75000J0D01*
G01*
X117248500Y-103060500D01*
G75*
G02*
X117323500Y-103135500I0J-75000D01*
G01*
G37*
G36*
G01*
X117323500Y-103635500D02*
X117323500Y-103785500D01*
G75*
G02*
X117248500Y-103860500I-75000J0D01*
G01*
X115923500Y-103860500D01*
G75*
G02*
X115848500Y-103785500I0J75000D01*
G01*
X115848500Y-103635500D01*
G75*
G02*
X115923500Y-103560500I75000J0D01*
G01*
X117248500Y-103560500D01*
G75*
G02*
X117323500Y-103635500I0J-75000D01*
G01*
G37*
G36*
G01*
X117323500Y-104135500D02*
X117323500Y-104285500D01*
G75*
G02*
X117248500Y-104360500I-75000J0D01*
G01*
X115923500Y-104360500D01*
G75*
G02*
X115848500Y-104285500I0J75000D01*
G01*
X115848500Y-104135500D01*
G75*
G02*
X115923500Y-104060500I75000J0D01*
G01*
X117248500Y-104060500D01*
G75*
G02*
X117323500Y-104135500I0J-75000D01*
G01*
G37*
%TD*%
%TO.C,U13*%
G36*
G01*
X97559000Y-143785000D02*
X97259000Y-143785000D01*
G75*
G02*
X97109000Y-143635000I0J150000D01*
G01*
X97109000Y-141985000D01*
G75*
G02*
X97259000Y-141835000I150000J0D01*
G01*
X97559000Y-141835000D01*
G75*
G02*
X97709000Y-141985000I0J-150000D01*
G01*
X97709000Y-143635000D01*
G75*
G02*
X97559000Y-143785000I-150000J0D01*
G01*
G37*
G36*
G01*
X98829000Y-143785000D02*
X98529000Y-143785000D01*
G75*
G02*
X98379000Y-143635000I0J150000D01*
G01*
X98379000Y-141985000D01*
G75*
G02*
X98529000Y-141835000I150000J0D01*
G01*
X98829000Y-141835000D01*
G75*
G02*
X98979000Y-141985000I0J-150000D01*
G01*
X98979000Y-143635000D01*
G75*
G02*
X98829000Y-143785000I-150000J0D01*
G01*
G37*
G36*
G01*
X100099000Y-143785000D02*
X99799000Y-143785000D01*
G75*
G02*
X99649000Y-143635000I0J150000D01*
G01*
X99649000Y-141985000D01*
G75*
G02*
X99799000Y-141835000I150000J0D01*
G01*
X100099000Y-141835000D01*
G75*
G02*
X100249000Y-141985000I0J-150000D01*
G01*
X100249000Y-143635000D01*
G75*
G02*
X100099000Y-143785000I-150000J0D01*
G01*
G37*
G36*
G01*
X101369000Y-143785000D02*
X101069000Y-143785000D01*
G75*
G02*
X100919000Y-143635000I0J150000D01*
G01*
X100919000Y-141985000D01*
G75*
G02*
X101069000Y-141835000I150000J0D01*
G01*
X101369000Y-141835000D01*
G75*
G02*
X101519000Y-141985000I0J-150000D01*
G01*
X101519000Y-143635000D01*
G75*
G02*
X101369000Y-143785000I-150000J0D01*
G01*
G37*
G36*
G01*
X101369000Y-138835000D02*
X101069000Y-138835000D01*
G75*
G02*
X100919000Y-138685000I0J150000D01*
G01*
X100919000Y-137035000D01*
G75*
G02*
X101069000Y-136885000I150000J0D01*
G01*
X101369000Y-136885000D01*
G75*
G02*
X101519000Y-137035000I0J-150000D01*
G01*
X101519000Y-138685000D01*
G75*
G02*
X101369000Y-138835000I-150000J0D01*
G01*
G37*
G36*
G01*
X100099000Y-138835000D02*
X99799000Y-138835000D01*
G75*
G02*
X99649000Y-138685000I0J150000D01*
G01*
X99649000Y-137035000D01*
G75*
G02*
X99799000Y-136885000I150000J0D01*
G01*
X100099000Y-136885000D01*
G75*
G02*
X100249000Y-137035000I0J-150000D01*
G01*
X100249000Y-138685000D01*
G75*
G02*
X100099000Y-138835000I-150000J0D01*
G01*
G37*
G36*
G01*
X98829000Y-138835000D02*
X98529000Y-138835000D01*
G75*
G02*
X98379000Y-138685000I0J150000D01*
G01*
X98379000Y-137035000D01*
G75*
G02*
X98529000Y-136885000I150000J0D01*
G01*
X98829000Y-136885000D01*
G75*
G02*
X98979000Y-137035000I0J-150000D01*
G01*
X98979000Y-138685000D01*
G75*
G02*
X98829000Y-138835000I-150000J0D01*
G01*
G37*
G36*
G01*
X97559000Y-138835000D02*
X97259000Y-138835000D01*
G75*
G02*
X97109000Y-138685000I0J150000D01*
G01*
X97109000Y-137035000D01*
G75*
G02*
X97259000Y-136885000I150000J0D01*
G01*
X97559000Y-136885000D01*
G75*
G02*
X97709000Y-137035000I0J-150000D01*
G01*
X97709000Y-138685000D01*
G75*
G02*
X97559000Y-138835000I-150000J0D01*
G01*
G37*
%TD*%
D12*
%TO.C,U14*%
X105442000Y-139258000D03*
X105442000Y-140208000D03*
X105442000Y-141158000D03*
X103092000Y-141158000D03*
X103092000Y-140208000D03*
X103092000Y-139258000D03*
%TD*%
D13*
%TO.C,U15*%
X35560000Y-104234000D03*
X37460000Y-104234000D03*
X37460000Y-106934000D03*
X36510000Y-106934000D03*
X35560000Y-106934000D03*
%TD*%
D11*
%TO.C,U16*%
X83722500Y-98460000D03*
G36*
G01*
X88172500Y-104135000D02*
X88172500Y-104285000D01*
G75*
G02*
X88097500Y-104360000I-75000J0D01*
G01*
X86772500Y-104360000D01*
G75*
G02*
X86697500Y-104285000I0J75000D01*
G01*
X86697500Y-104135000D01*
G75*
G02*
X86772500Y-104060000I75000J0D01*
G01*
X88097500Y-104060000D01*
G75*
G02*
X88172500Y-104135000I0J-75000D01*
G01*
G37*
G36*
G01*
X88172500Y-103635000D02*
X88172500Y-103785000D01*
G75*
G02*
X88097500Y-103860000I-75000J0D01*
G01*
X86772500Y-103860000D01*
G75*
G02*
X86697500Y-103785000I0J75000D01*
G01*
X86697500Y-103635000D01*
G75*
G02*
X86772500Y-103560000I75000J0D01*
G01*
X88097500Y-103560000D01*
G75*
G02*
X88172500Y-103635000I0J-75000D01*
G01*
G37*
G36*
G01*
X88172500Y-103135000D02*
X88172500Y-103285000D01*
G75*
G02*
X88097500Y-103360000I-75000J0D01*
G01*
X86772500Y-103360000D01*
G75*
G02*
X86697500Y-103285000I0J75000D01*
G01*
X86697500Y-103135000D01*
G75*
G02*
X86772500Y-103060000I75000J0D01*
G01*
X88097500Y-103060000D01*
G75*
G02*
X88172500Y-103135000I0J-75000D01*
G01*
G37*
G36*
G01*
X88172500Y-102635000D02*
X88172500Y-102785000D01*
G75*
G02*
X88097500Y-102860000I-75000J0D01*
G01*
X86772500Y-102860000D01*
G75*
G02*
X86697500Y-102785000I0J75000D01*
G01*
X86697500Y-102635000D01*
G75*
G02*
X86772500Y-102560000I75000J0D01*
G01*
X88097500Y-102560000D01*
G75*
G02*
X88172500Y-102635000I0J-75000D01*
G01*
G37*
G36*
G01*
X88172500Y-102135000D02*
X88172500Y-102285000D01*
G75*
G02*
X88097500Y-102360000I-75000J0D01*
G01*
X86772500Y-102360000D01*
G75*
G02*
X86697500Y-102285000I0J75000D01*
G01*
X86697500Y-102135000D01*
G75*
G02*
X86772500Y-102060000I75000J0D01*
G01*
X88097500Y-102060000D01*
G75*
G02*
X88172500Y-102135000I0J-75000D01*
G01*
G37*
G36*
G01*
X88172500Y-101635000D02*
X88172500Y-101785000D01*
G75*
G02*
X88097500Y-101860000I-75000J0D01*
G01*
X86772500Y-101860000D01*
G75*
G02*
X86697500Y-101785000I0J75000D01*
G01*
X86697500Y-101635000D01*
G75*
G02*
X86772500Y-101560000I75000J0D01*
G01*
X88097500Y-101560000D01*
G75*
G02*
X88172500Y-101635000I0J-75000D01*
G01*
G37*
G36*
G01*
X88172500Y-101135000D02*
X88172500Y-101285000D01*
G75*
G02*
X88097500Y-101360000I-75000J0D01*
G01*
X86772500Y-101360000D01*
G75*
G02*
X86697500Y-101285000I0J75000D01*
G01*
X86697500Y-101135000D01*
G75*
G02*
X86772500Y-101060000I75000J0D01*
G01*
X88097500Y-101060000D01*
G75*
G02*
X88172500Y-101135000I0J-75000D01*
G01*
G37*
G36*
G01*
X88172500Y-100635000D02*
X88172500Y-100785000D01*
G75*
G02*
X88097500Y-100860000I-75000J0D01*
G01*
X86772500Y-100860000D01*
G75*
G02*
X86697500Y-100785000I0J75000D01*
G01*
X86697500Y-100635000D01*
G75*
G02*
X86772500Y-100560000I75000J0D01*
G01*
X88097500Y-100560000D01*
G75*
G02*
X88172500Y-100635000I0J-75000D01*
G01*
G37*
G36*
G01*
X88172500Y-100135000D02*
X88172500Y-100285000D01*
G75*
G02*
X88097500Y-100360000I-75000J0D01*
G01*
X86772500Y-100360000D01*
G75*
G02*
X86697500Y-100285000I0J75000D01*
G01*
X86697500Y-100135000D01*
G75*
G02*
X86772500Y-100060000I75000J0D01*
G01*
X88097500Y-100060000D01*
G75*
G02*
X88172500Y-100135000I0J-75000D01*
G01*
G37*
G36*
G01*
X88172500Y-99635000D02*
X88172500Y-99785000D01*
G75*
G02*
X88097500Y-99860000I-75000J0D01*
G01*
X86772500Y-99860000D01*
G75*
G02*
X86697500Y-99785000I0J75000D01*
G01*
X86697500Y-99635000D01*
G75*
G02*
X86772500Y-99560000I75000J0D01*
G01*
X88097500Y-99560000D01*
G75*
G02*
X88172500Y-99635000I0J-75000D01*
G01*
G37*
G36*
G01*
X88172500Y-99135000D02*
X88172500Y-99285000D01*
G75*
G02*
X88097500Y-99360000I-75000J0D01*
G01*
X86772500Y-99360000D01*
G75*
G02*
X86697500Y-99285000I0J75000D01*
G01*
X86697500Y-99135000D01*
G75*
G02*
X86772500Y-99060000I75000J0D01*
G01*
X88097500Y-99060000D01*
G75*
G02*
X88172500Y-99135000I0J-75000D01*
G01*
G37*
G36*
G01*
X88172500Y-98635000D02*
X88172500Y-98785000D01*
G75*
G02*
X88097500Y-98860000I-75000J0D01*
G01*
X86772500Y-98860000D01*
G75*
G02*
X86697500Y-98785000I0J75000D01*
G01*
X86697500Y-98635000D01*
G75*
G02*
X86772500Y-98560000I75000J0D01*
G01*
X88097500Y-98560000D01*
G75*
G02*
X88172500Y-98635000I0J-75000D01*
G01*
G37*
G36*
G01*
X88172500Y-98135000D02*
X88172500Y-98285000D01*
G75*
G02*
X88097500Y-98360000I-75000J0D01*
G01*
X86772500Y-98360000D01*
G75*
G02*
X86697500Y-98285000I0J75000D01*
G01*
X86697500Y-98135000D01*
G75*
G02*
X86772500Y-98060000I75000J0D01*
G01*
X88097500Y-98060000D01*
G75*
G02*
X88172500Y-98135000I0J-75000D01*
G01*
G37*
G36*
G01*
X88172500Y-97635000D02*
X88172500Y-97785000D01*
G75*
G02*
X88097500Y-97860000I-75000J0D01*
G01*
X86772500Y-97860000D01*
G75*
G02*
X86697500Y-97785000I0J75000D01*
G01*
X86697500Y-97635000D01*
G75*
G02*
X86772500Y-97560000I75000J0D01*
G01*
X88097500Y-97560000D01*
G75*
G02*
X88172500Y-97635000I0J-75000D01*
G01*
G37*
G36*
G01*
X88172500Y-97135000D02*
X88172500Y-97285000D01*
G75*
G02*
X88097500Y-97360000I-75000J0D01*
G01*
X86772500Y-97360000D01*
G75*
G02*
X86697500Y-97285000I0J75000D01*
G01*
X86697500Y-97135000D01*
G75*
G02*
X86772500Y-97060000I75000J0D01*
G01*
X88097500Y-97060000D01*
G75*
G02*
X88172500Y-97135000I0J-75000D01*
G01*
G37*
G36*
G01*
X88172500Y-96635000D02*
X88172500Y-96785000D01*
G75*
G02*
X88097500Y-96860000I-75000J0D01*
G01*
X86772500Y-96860000D01*
G75*
G02*
X86697500Y-96785000I0J75000D01*
G01*
X86697500Y-96635000D01*
G75*
G02*
X86772500Y-96560000I75000J0D01*
G01*
X88097500Y-96560000D01*
G75*
G02*
X88172500Y-96635000I0J-75000D01*
G01*
G37*
G36*
G01*
X88172500Y-96135000D02*
X88172500Y-96285000D01*
G75*
G02*
X88097500Y-96360000I-75000J0D01*
G01*
X86772500Y-96360000D01*
G75*
G02*
X86697500Y-96285000I0J75000D01*
G01*
X86697500Y-96135000D01*
G75*
G02*
X86772500Y-96060000I75000J0D01*
G01*
X88097500Y-96060000D01*
G75*
G02*
X88172500Y-96135000I0J-75000D01*
G01*
G37*
G36*
G01*
X88172500Y-95635000D02*
X88172500Y-95785000D01*
G75*
G02*
X88097500Y-95860000I-75000J0D01*
G01*
X86772500Y-95860000D01*
G75*
G02*
X86697500Y-95785000I0J75000D01*
G01*
X86697500Y-95635000D01*
G75*
G02*
X86772500Y-95560000I75000J0D01*
G01*
X88097500Y-95560000D01*
G75*
G02*
X88172500Y-95635000I0J-75000D01*
G01*
G37*
G36*
G01*
X88172500Y-95135000D02*
X88172500Y-95285000D01*
G75*
G02*
X88097500Y-95360000I-75000J0D01*
G01*
X86772500Y-95360000D01*
G75*
G02*
X86697500Y-95285000I0J75000D01*
G01*
X86697500Y-95135000D01*
G75*
G02*
X86772500Y-95060000I75000J0D01*
G01*
X88097500Y-95060000D01*
G75*
G02*
X88172500Y-95135000I0J-75000D01*
G01*
G37*
G36*
G01*
X88172500Y-94635000D02*
X88172500Y-94785000D01*
G75*
G02*
X88097500Y-94860000I-75000J0D01*
G01*
X86772500Y-94860000D01*
G75*
G02*
X86697500Y-94785000I0J75000D01*
G01*
X86697500Y-94635000D01*
G75*
G02*
X86772500Y-94560000I75000J0D01*
G01*
X88097500Y-94560000D01*
G75*
G02*
X88172500Y-94635000I0J-75000D01*
G01*
G37*
G36*
G01*
X88172500Y-94135000D02*
X88172500Y-94285000D01*
G75*
G02*
X88097500Y-94360000I-75000J0D01*
G01*
X86772500Y-94360000D01*
G75*
G02*
X86697500Y-94285000I0J75000D01*
G01*
X86697500Y-94135000D01*
G75*
G02*
X86772500Y-94060000I75000J0D01*
G01*
X88097500Y-94060000D01*
G75*
G02*
X88172500Y-94135000I0J-75000D01*
G01*
G37*
G36*
G01*
X88172500Y-93635000D02*
X88172500Y-93785000D01*
G75*
G02*
X88097500Y-93860000I-75000J0D01*
G01*
X86772500Y-93860000D01*
G75*
G02*
X86697500Y-93785000I0J75000D01*
G01*
X86697500Y-93635000D01*
G75*
G02*
X86772500Y-93560000I75000J0D01*
G01*
X88097500Y-93560000D01*
G75*
G02*
X88172500Y-93635000I0J-75000D01*
G01*
G37*
G36*
G01*
X88172500Y-93135000D02*
X88172500Y-93285000D01*
G75*
G02*
X88097500Y-93360000I-75000J0D01*
G01*
X86772500Y-93360000D01*
G75*
G02*
X86697500Y-93285000I0J75000D01*
G01*
X86697500Y-93135000D01*
G75*
G02*
X86772500Y-93060000I75000J0D01*
G01*
X88097500Y-93060000D01*
G75*
G02*
X88172500Y-93135000I0J-75000D01*
G01*
G37*
G36*
G01*
X88172500Y-92635000D02*
X88172500Y-92785000D01*
G75*
G02*
X88097500Y-92860000I-75000J0D01*
G01*
X86772500Y-92860000D01*
G75*
G02*
X86697500Y-92785000I0J75000D01*
G01*
X86697500Y-92635000D01*
G75*
G02*
X86772500Y-92560000I75000J0D01*
G01*
X88097500Y-92560000D01*
G75*
G02*
X88172500Y-92635000I0J-75000D01*
G01*
G37*
G36*
G01*
X80747500Y-92635000D02*
X80747500Y-92785000D01*
G75*
G02*
X80672500Y-92860000I-75000J0D01*
G01*
X79347500Y-92860000D01*
G75*
G02*
X79272500Y-92785000I0J75000D01*
G01*
X79272500Y-92635000D01*
G75*
G02*
X79347500Y-92560000I75000J0D01*
G01*
X80672500Y-92560000D01*
G75*
G02*
X80747500Y-92635000I0J-75000D01*
G01*
G37*
G36*
G01*
X80747500Y-93135000D02*
X80747500Y-93285000D01*
G75*
G02*
X80672500Y-93360000I-75000J0D01*
G01*
X79347500Y-93360000D01*
G75*
G02*
X79272500Y-93285000I0J75000D01*
G01*
X79272500Y-93135000D01*
G75*
G02*
X79347500Y-93060000I75000J0D01*
G01*
X80672500Y-93060000D01*
G75*
G02*
X80747500Y-93135000I0J-75000D01*
G01*
G37*
G36*
G01*
X80747500Y-93635000D02*
X80747500Y-93785000D01*
G75*
G02*
X80672500Y-93860000I-75000J0D01*
G01*
X79347500Y-93860000D01*
G75*
G02*
X79272500Y-93785000I0J75000D01*
G01*
X79272500Y-93635000D01*
G75*
G02*
X79347500Y-93560000I75000J0D01*
G01*
X80672500Y-93560000D01*
G75*
G02*
X80747500Y-93635000I0J-75000D01*
G01*
G37*
G36*
G01*
X80747500Y-94135000D02*
X80747500Y-94285000D01*
G75*
G02*
X80672500Y-94360000I-75000J0D01*
G01*
X79347500Y-94360000D01*
G75*
G02*
X79272500Y-94285000I0J75000D01*
G01*
X79272500Y-94135000D01*
G75*
G02*
X79347500Y-94060000I75000J0D01*
G01*
X80672500Y-94060000D01*
G75*
G02*
X80747500Y-94135000I0J-75000D01*
G01*
G37*
G36*
G01*
X80747500Y-94635000D02*
X80747500Y-94785000D01*
G75*
G02*
X80672500Y-94860000I-75000J0D01*
G01*
X79347500Y-94860000D01*
G75*
G02*
X79272500Y-94785000I0J75000D01*
G01*
X79272500Y-94635000D01*
G75*
G02*
X79347500Y-94560000I75000J0D01*
G01*
X80672500Y-94560000D01*
G75*
G02*
X80747500Y-94635000I0J-75000D01*
G01*
G37*
G36*
G01*
X80747500Y-95135000D02*
X80747500Y-95285000D01*
G75*
G02*
X80672500Y-95360000I-75000J0D01*
G01*
X79347500Y-95360000D01*
G75*
G02*
X79272500Y-95285000I0J75000D01*
G01*
X79272500Y-95135000D01*
G75*
G02*
X79347500Y-95060000I75000J0D01*
G01*
X80672500Y-95060000D01*
G75*
G02*
X80747500Y-95135000I0J-75000D01*
G01*
G37*
G36*
G01*
X80747500Y-95635000D02*
X80747500Y-95785000D01*
G75*
G02*
X80672500Y-95860000I-75000J0D01*
G01*
X79347500Y-95860000D01*
G75*
G02*
X79272500Y-95785000I0J75000D01*
G01*
X79272500Y-95635000D01*
G75*
G02*
X79347500Y-95560000I75000J0D01*
G01*
X80672500Y-95560000D01*
G75*
G02*
X80747500Y-95635000I0J-75000D01*
G01*
G37*
G36*
G01*
X80747500Y-96135000D02*
X80747500Y-96285000D01*
G75*
G02*
X80672500Y-96360000I-75000J0D01*
G01*
X79347500Y-96360000D01*
G75*
G02*
X79272500Y-96285000I0J75000D01*
G01*
X79272500Y-96135000D01*
G75*
G02*
X79347500Y-96060000I75000J0D01*
G01*
X80672500Y-96060000D01*
G75*
G02*
X80747500Y-96135000I0J-75000D01*
G01*
G37*
G36*
G01*
X80747500Y-96635000D02*
X80747500Y-96785000D01*
G75*
G02*
X80672500Y-96860000I-75000J0D01*
G01*
X79347500Y-96860000D01*
G75*
G02*
X79272500Y-96785000I0J75000D01*
G01*
X79272500Y-96635000D01*
G75*
G02*
X79347500Y-96560000I75000J0D01*
G01*
X80672500Y-96560000D01*
G75*
G02*
X80747500Y-96635000I0J-75000D01*
G01*
G37*
G36*
G01*
X80747500Y-97135000D02*
X80747500Y-97285000D01*
G75*
G02*
X80672500Y-97360000I-75000J0D01*
G01*
X79347500Y-97360000D01*
G75*
G02*
X79272500Y-97285000I0J75000D01*
G01*
X79272500Y-97135000D01*
G75*
G02*
X79347500Y-97060000I75000J0D01*
G01*
X80672500Y-97060000D01*
G75*
G02*
X80747500Y-97135000I0J-75000D01*
G01*
G37*
G36*
G01*
X80747500Y-97635000D02*
X80747500Y-97785000D01*
G75*
G02*
X80672500Y-97860000I-75000J0D01*
G01*
X79347500Y-97860000D01*
G75*
G02*
X79272500Y-97785000I0J75000D01*
G01*
X79272500Y-97635000D01*
G75*
G02*
X79347500Y-97560000I75000J0D01*
G01*
X80672500Y-97560000D01*
G75*
G02*
X80747500Y-97635000I0J-75000D01*
G01*
G37*
G36*
G01*
X80747500Y-98135000D02*
X80747500Y-98285000D01*
G75*
G02*
X80672500Y-98360000I-75000J0D01*
G01*
X79347500Y-98360000D01*
G75*
G02*
X79272500Y-98285000I0J75000D01*
G01*
X79272500Y-98135000D01*
G75*
G02*
X79347500Y-98060000I75000J0D01*
G01*
X80672500Y-98060000D01*
G75*
G02*
X80747500Y-98135000I0J-75000D01*
G01*
G37*
G36*
G01*
X80747500Y-98635000D02*
X80747500Y-98785000D01*
G75*
G02*
X80672500Y-98860000I-75000J0D01*
G01*
X79347500Y-98860000D01*
G75*
G02*
X79272500Y-98785000I0J75000D01*
G01*
X79272500Y-98635000D01*
G75*
G02*
X79347500Y-98560000I75000J0D01*
G01*
X80672500Y-98560000D01*
G75*
G02*
X80747500Y-98635000I0J-75000D01*
G01*
G37*
G36*
G01*
X80747500Y-99135000D02*
X80747500Y-99285000D01*
G75*
G02*
X80672500Y-99360000I-75000J0D01*
G01*
X79347500Y-99360000D01*
G75*
G02*
X79272500Y-99285000I0J75000D01*
G01*
X79272500Y-99135000D01*
G75*
G02*
X79347500Y-99060000I75000J0D01*
G01*
X80672500Y-99060000D01*
G75*
G02*
X80747500Y-99135000I0J-75000D01*
G01*
G37*
G36*
G01*
X80747500Y-99635000D02*
X80747500Y-99785000D01*
G75*
G02*
X80672500Y-99860000I-75000J0D01*
G01*
X79347500Y-99860000D01*
G75*
G02*
X79272500Y-99785000I0J75000D01*
G01*
X79272500Y-99635000D01*
G75*
G02*
X79347500Y-99560000I75000J0D01*
G01*
X80672500Y-99560000D01*
G75*
G02*
X80747500Y-99635000I0J-75000D01*
G01*
G37*
G36*
G01*
X80747500Y-100135000D02*
X80747500Y-100285000D01*
G75*
G02*
X80672500Y-100360000I-75000J0D01*
G01*
X79347500Y-100360000D01*
G75*
G02*
X79272500Y-100285000I0J75000D01*
G01*
X79272500Y-100135000D01*
G75*
G02*
X79347500Y-100060000I75000J0D01*
G01*
X80672500Y-100060000D01*
G75*
G02*
X80747500Y-100135000I0J-75000D01*
G01*
G37*
G36*
G01*
X80747500Y-100635000D02*
X80747500Y-100785000D01*
G75*
G02*
X80672500Y-100860000I-75000J0D01*
G01*
X79347500Y-100860000D01*
G75*
G02*
X79272500Y-100785000I0J75000D01*
G01*
X79272500Y-100635000D01*
G75*
G02*
X79347500Y-100560000I75000J0D01*
G01*
X80672500Y-100560000D01*
G75*
G02*
X80747500Y-100635000I0J-75000D01*
G01*
G37*
G36*
G01*
X80747500Y-101135000D02*
X80747500Y-101285000D01*
G75*
G02*
X80672500Y-101360000I-75000J0D01*
G01*
X79347500Y-101360000D01*
G75*
G02*
X79272500Y-101285000I0J75000D01*
G01*
X79272500Y-101135000D01*
G75*
G02*
X79347500Y-101060000I75000J0D01*
G01*
X80672500Y-101060000D01*
G75*
G02*
X80747500Y-101135000I0J-75000D01*
G01*
G37*
G36*
G01*
X80747500Y-101635000D02*
X80747500Y-101785000D01*
G75*
G02*
X80672500Y-101860000I-75000J0D01*
G01*
X79347500Y-101860000D01*
G75*
G02*
X79272500Y-101785000I0J75000D01*
G01*
X79272500Y-101635000D01*
G75*
G02*
X79347500Y-101560000I75000J0D01*
G01*
X80672500Y-101560000D01*
G75*
G02*
X80747500Y-101635000I0J-75000D01*
G01*
G37*
G36*
G01*
X80747500Y-102135000D02*
X80747500Y-102285000D01*
G75*
G02*
X80672500Y-102360000I-75000J0D01*
G01*
X79347500Y-102360000D01*
G75*
G02*
X79272500Y-102285000I0J75000D01*
G01*
X79272500Y-102135000D01*
G75*
G02*
X79347500Y-102060000I75000J0D01*
G01*
X80672500Y-102060000D01*
G75*
G02*
X80747500Y-102135000I0J-75000D01*
G01*
G37*
G36*
G01*
X80747500Y-102635000D02*
X80747500Y-102785000D01*
G75*
G02*
X80672500Y-102860000I-75000J0D01*
G01*
X79347500Y-102860000D01*
G75*
G02*
X79272500Y-102785000I0J75000D01*
G01*
X79272500Y-102635000D01*
G75*
G02*
X79347500Y-102560000I75000J0D01*
G01*
X80672500Y-102560000D01*
G75*
G02*
X80747500Y-102635000I0J-75000D01*
G01*
G37*
G36*
G01*
X80747500Y-103135000D02*
X80747500Y-103285000D01*
G75*
G02*
X80672500Y-103360000I-75000J0D01*
G01*
X79347500Y-103360000D01*
G75*
G02*
X79272500Y-103285000I0J75000D01*
G01*
X79272500Y-103135000D01*
G75*
G02*
X79347500Y-103060000I75000J0D01*
G01*
X80672500Y-103060000D01*
G75*
G02*
X80747500Y-103135000I0J-75000D01*
G01*
G37*
G36*
G01*
X80747500Y-103635000D02*
X80747500Y-103785000D01*
G75*
G02*
X80672500Y-103860000I-75000J0D01*
G01*
X79347500Y-103860000D01*
G75*
G02*
X79272500Y-103785000I0J75000D01*
G01*
X79272500Y-103635000D01*
G75*
G02*
X79347500Y-103560000I75000J0D01*
G01*
X80672500Y-103560000D01*
G75*
G02*
X80747500Y-103635000I0J-75000D01*
G01*
G37*
G36*
G01*
X80747500Y-104135000D02*
X80747500Y-104285000D01*
G75*
G02*
X80672500Y-104360000I-75000J0D01*
G01*
X79347500Y-104360000D01*
G75*
G02*
X79272500Y-104285000I0J75000D01*
G01*
X79272500Y-104135000D01*
G75*
G02*
X79347500Y-104060000I75000J0D01*
G01*
X80672500Y-104060000D01*
G75*
G02*
X80747500Y-104135000I0J-75000D01*
G01*
G37*
%TD*%
%TO.C,U17*%
G36*
G01*
X62586500Y-104135000D02*
X62586500Y-104285000D01*
G75*
G02*
X62511500Y-104360000I-75000J0D01*
G01*
X61186500Y-104360000D01*
G75*
G02*
X61111500Y-104285000I0J75000D01*
G01*
X61111500Y-104135000D01*
G75*
G02*
X61186500Y-104060000I75000J0D01*
G01*
X62511500Y-104060000D01*
G75*
G02*
X62586500Y-104135000I0J-75000D01*
G01*
G37*
G36*
G01*
X62586500Y-103635000D02*
X62586500Y-103785000D01*
G75*
G02*
X62511500Y-103860000I-75000J0D01*
G01*
X61186500Y-103860000D01*
G75*
G02*
X61111500Y-103785000I0J75000D01*
G01*
X61111500Y-103635000D01*
G75*
G02*
X61186500Y-103560000I75000J0D01*
G01*
X62511500Y-103560000D01*
G75*
G02*
X62586500Y-103635000I0J-75000D01*
G01*
G37*
G36*
G01*
X62586500Y-103135000D02*
X62586500Y-103285000D01*
G75*
G02*
X62511500Y-103360000I-75000J0D01*
G01*
X61186500Y-103360000D01*
G75*
G02*
X61111500Y-103285000I0J75000D01*
G01*
X61111500Y-103135000D01*
G75*
G02*
X61186500Y-103060000I75000J0D01*
G01*
X62511500Y-103060000D01*
G75*
G02*
X62586500Y-103135000I0J-75000D01*
G01*
G37*
G36*
G01*
X62586500Y-102635000D02*
X62586500Y-102785000D01*
G75*
G02*
X62511500Y-102860000I-75000J0D01*
G01*
X61186500Y-102860000D01*
G75*
G02*
X61111500Y-102785000I0J75000D01*
G01*
X61111500Y-102635000D01*
G75*
G02*
X61186500Y-102560000I75000J0D01*
G01*
X62511500Y-102560000D01*
G75*
G02*
X62586500Y-102635000I0J-75000D01*
G01*
G37*
G36*
G01*
X62586500Y-102135000D02*
X62586500Y-102285000D01*
G75*
G02*
X62511500Y-102360000I-75000J0D01*
G01*
X61186500Y-102360000D01*
G75*
G02*
X61111500Y-102285000I0J75000D01*
G01*
X61111500Y-102135000D01*
G75*
G02*
X61186500Y-102060000I75000J0D01*
G01*
X62511500Y-102060000D01*
G75*
G02*
X62586500Y-102135000I0J-75000D01*
G01*
G37*
G36*
G01*
X62586500Y-101635000D02*
X62586500Y-101785000D01*
G75*
G02*
X62511500Y-101860000I-75000J0D01*
G01*
X61186500Y-101860000D01*
G75*
G02*
X61111500Y-101785000I0J75000D01*
G01*
X61111500Y-101635000D01*
G75*
G02*
X61186500Y-101560000I75000J0D01*
G01*
X62511500Y-101560000D01*
G75*
G02*
X62586500Y-101635000I0J-75000D01*
G01*
G37*
G36*
G01*
X62586500Y-101135000D02*
X62586500Y-101285000D01*
G75*
G02*
X62511500Y-101360000I-75000J0D01*
G01*
X61186500Y-101360000D01*
G75*
G02*
X61111500Y-101285000I0J75000D01*
G01*
X61111500Y-101135000D01*
G75*
G02*
X61186500Y-101060000I75000J0D01*
G01*
X62511500Y-101060000D01*
G75*
G02*
X62586500Y-101135000I0J-75000D01*
G01*
G37*
G36*
G01*
X62586500Y-100635000D02*
X62586500Y-100785000D01*
G75*
G02*
X62511500Y-100860000I-75000J0D01*
G01*
X61186500Y-100860000D01*
G75*
G02*
X61111500Y-100785000I0J75000D01*
G01*
X61111500Y-100635000D01*
G75*
G02*
X61186500Y-100560000I75000J0D01*
G01*
X62511500Y-100560000D01*
G75*
G02*
X62586500Y-100635000I0J-75000D01*
G01*
G37*
G36*
G01*
X62586500Y-100135000D02*
X62586500Y-100285000D01*
G75*
G02*
X62511500Y-100360000I-75000J0D01*
G01*
X61186500Y-100360000D01*
G75*
G02*
X61111500Y-100285000I0J75000D01*
G01*
X61111500Y-100135000D01*
G75*
G02*
X61186500Y-100060000I75000J0D01*
G01*
X62511500Y-100060000D01*
G75*
G02*
X62586500Y-100135000I0J-75000D01*
G01*
G37*
G36*
G01*
X62586500Y-99635000D02*
X62586500Y-99785000D01*
G75*
G02*
X62511500Y-99860000I-75000J0D01*
G01*
X61186500Y-99860000D01*
G75*
G02*
X61111500Y-99785000I0J75000D01*
G01*
X61111500Y-99635000D01*
G75*
G02*
X61186500Y-99560000I75000J0D01*
G01*
X62511500Y-99560000D01*
G75*
G02*
X62586500Y-99635000I0J-75000D01*
G01*
G37*
G36*
G01*
X62586500Y-99135000D02*
X62586500Y-99285000D01*
G75*
G02*
X62511500Y-99360000I-75000J0D01*
G01*
X61186500Y-99360000D01*
G75*
G02*
X61111500Y-99285000I0J75000D01*
G01*
X61111500Y-99135000D01*
G75*
G02*
X61186500Y-99060000I75000J0D01*
G01*
X62511500Y-99060000D01*
G75*
G02*
X62586500Y-99135000I0J-75000D01*
G01*
G37*
G36*
G01*
X62586500Y-98635000D02*
X62586500Y-98785000D01*
G75*
G02*
X62511500Y-98860000I-75000J0D01*
G01*
X61186500Y-98860000D01*
G75*
G02*
X61111500Y-98785000I0J75000D01*
G01*
X61111500Y-98635000D01*
G75*
G02*
X61186500Y-98560000I75000J0D01*
G01*
X62511500Y-98560000D01*
G75*
G02*
X62586500Y-98635000I0J-75000D01*
G01*
G37*
G36*
G01*
X62586500Y-98135000D02*
X62586500Y-98285000D01*
G75*
G02*
X62511500Y-98360000I-75000J0D01*
G01*
X61186500Y-98360000D01*
G75*
G02*
X61111500Y-98285000I0J75000D01*
G01*
X61111500Y-98135000D01*
G75*
G02*
X61186500Y-98060000I75000J0D01*
G01*
X62511500Y-98060000D01*
G75*
G02*
X62586500Y-98135000I0J-75000D01*
G01*
G37*
G36*
G01*
X62586500Y-97635000D02*
X62586500Y-97785000D01*
G75*
G02*
X62511500Y-97860000I-75000J0D01*
G01*
X61186500Y-97860000D01*
G75*
G02*
X61111500Y-97785000I0J75000D01*
G01*
X61111500Y-97635000D01*
G75*
G02*
X61186500Y-97560000I75000J0D01*
G01*
X62511500Y-97560000D01*
G75*
G02*
X62586500Y-97635000I0J-75000D01*
G01*
G37*
G36*
G01*
X62586500Y-97135000D02*
X62586500Y-97285000D01*
G75*
G02*
X62511500Y-97360000I-75000J0D01*
G01*
X61186500Y-97360000D01*
G75*
G02*
X61111500Y-97285000I0J75000D01*
G01*
X61111500Y-97135000D01*
G75*
G02*
X61186500Y-97060000I75000J0D01*
G01*
X62511500Y-97060000D01*
G75*
G02*
X62586500Y-97135000I0J-75000D01*
G01*
G37*
G36*
G01*
X62586500Y-96635000D02*
X62586500Y-96785000D01*
G75*
G02*
X62511500Y-96860000I-75000J0D01*
G01*
X61186500Y-96860000D01*
G75*
G02*
X61111500Y-96785000I0J75000D01*
G01*
X61111500Y-96635000D01*
G75*
G02*
X61186500Y-96560000I75000J0D01*
G01*
X62511500Y-96560000D01*
G75*
G02*
X62586500Y-96635000I0J-75000D01*
G01*
G37*
G36*
G01*
X62586500Y-96135000D02*
X62586500Y-96285000D01*
G75*
G02*
X62511500Y-96360000I-75000J0D01*
G01*
X61186500Y-96360000D01*
G75*
G02*
X61111500Y-96285000I0J75000D01*
G01*
X61111500Y-96135000D01*
G75*
G02*
X61186500Y-96060000I75000J0D01*
G01*
X62511500Y-96060000D01*
G75*
G02*
X62586500Y-96135000I0J-75000D01*
G01*
G37*
G36*
G01*
X62586500Y-95635000D02*
X62586500Y-95785000D01*
G75*
G02*
X62511500Y-95860000I-75000J0D01*
G01*
X61186500Y-95860000D01*
G75*
G02*
X61111500Y-95785000I0J75000D01*
G01*
X61111500Y-95635000D01*
G75*
G02*
X61186500Y-95560000I75000J0D01*
G01*
X62511500Y-95560000D01*
G75*
G02*
X62586500Y-95635000I0J-75000D01*
G01*
G37*
G36*
G01*
X62586500Y-95135000D02*
X62586500Y-95285000D01*
G75*
G02*
X62511500Y-95360000I-75000J0D01*
G01*
X61186500Y-95360000D01*
G75*
G02*
X61111500Y-95285000I0J75000D01*
G01*
X61111500Y-95135000D01*
G75*
G02*
X61186500Y-95060000I75000J0D01*
G01*
X62511500Y-95060000D01*
G75*
G02*
X62586500Y-95135000I0J-75000D01*
G01*
G37*
G36*
G01*
X62586500Y-94635000D02*
X62586500Y-94785000D01*
G75*
G02*
X62511500Y-94860000I-75000J0D01*
G01*
X61186500Y-94860000D01*
G75*
G02*
X61111500Y-94785000I0J75000D01*
G01*
X61111500Y-94635000D01*
G75*
G02*
X61186500Y-94560000I75000J0D01*
G01*
X62511500Y-94560000D01*
G75*
G02*
X62586500Y-94635000I0J-75000D01*
G01*
G37*
G36*
G01*
X62586500Y-94135000D02*
X62586500Y-94285000D01*
G75*
G02*
X62511500Y-94360000I-75000J0D01*
G01*
X61186500Y-94360000D01*
G75*
G02*
X61111500Y-94285000I0J75000D01*
G01*
X61111500Y-94135000D01*
G75*
G02*
X61186500Y-94060000I75000J0D01*
G01*
X62511500Y-94060000D01*
G75*
G02*
X62586500Y-94135000I0J-75000D01*
G01*
G37*
G36*
G01*
X62586500Y-93635000D02*
X62586500Y-93785000D01*
G75*
G02*
X62511500Y-93860000I-75000J0D01*
G01*
X61186500Y-93860000D01*
G75*
G02*
X61111500Y-93785000I0J75000D01*
G01*
X61111500Y-93635000D01*
G75*
G02*
X61186500Y-93560000I75000J0D01*
G01*
X62511500Y-93560000D01*
G75*
G02*
X62586500Y-93635000I0J-75000D01*
G01*
G37*
G36*
G01*
X62586500Y-93135000D02*
X62586500Y-93285000D01*
G75*
G02*
X62511500Y-93360000I-75000J0D01*
G01*
X61186500Y-93360000D01*
G75*
G02*
X61111500Y-93285000I0J75000D01*
G01*
X61111500Y-93135000D01*
G75*
G02*
X61186500Y-93060000I75000J0D01*
G01*
X62511500Y-93060000D01*
G75*
G02*
X62586500Y-93135000I0J-75000D01*
G01*
G37*
G36*
G01*
X62586500Y-92635000D02*
X62586500Y-92785000D01*
G75*
G02*
X62511500Y-92860000I-75000J0D01*
G01*
X61186500Y-92860000D01*
G75*
G02*
X61111500Y-92785000I0J75000D01*
G01*
X61111500Y-92635000D01*
G75*
G02*
X61186500Y-92560000I75000J0D01*
G01*
X62511500Y-92560000D01*
G75*
G02*
X62586500Y-92635000I0J-75000D01*
G01*
G37*
G36*
G01*
X70011500Y-92635000D02*
X70011500Y-92785000D01*
G75*
G02*
X69936500Y-92860000I-75000J0D01*
G01*
X68611500Y-92860000D01*
G75*
G02*
X68536500Y-92785000I0J75000D01*
G01*
X68536500Y-92635000D01*
G75*
G02*
X68611500Y-92560000I75000J0D01*
G01*
X69936500Y-92560000D01*
G75*
G02*
X70011500Y-92635000I0J-75000D01*
G01*
G37*
G36*
G01*
X70011500Y-93135000D02*
X70011500Y-93285000D01*
G75*
G02*
X69936500Y-93360000I-75000J0D01*
G01*
X68611500Y-93360000D01*
G75*
G02*
X68536500Y-93285000I0J75000D01*
G01*
X68536500Y-93135000D01*
G75*
G02*
X68611500Y-93060000I75000J0D01*
G01*
X69936500Y-93060000D01*
G75*
G02*
X70011500Y-93135000I0J-75000D01*
G01*
G37*
G36*
G01*
X70011500Y-93635000D02*
X70011500Y-93785000D01*
G75*
G02*
X69936500Y-93860000I-75000J0D01*
G01*
X68611500Y-93860000D01*
G75*
G02*
X68536500Y-93785000I0J75000D01*
G01*
X68536500Y-93635000D01*
G75*
G02*
X68611500Y-93560000I75000J0D01*
G01*
X69936500Y-93560000D01*
G75*
G02*
X70011500Y-93635000I0J-75000D01*
G01*
G37*
G36*
G01*
X70011500Y-94135000D02*
X70011500Y-94285000D01*
G75*
G02*
X69936500Y-94360000I-75000J0D01*
G01*
X68611500Y-94360000D01*
G75*
G02*
X68536500Y-94285000I0J75000D01*
G01*
X68536500Y-94135000D01*
G75*
G02*
X68611500Y-94060000I75000J0D01*
G01*
X69936500Y-94060000D01*
G75*
G02*
X70011500Y-94135000I0J-75000D01*
G01*
G37*
G36*
G01*
X70011500Y-94635000D02*
X70011500Y-94785000D01*
G75*
G02*
X69936500Y-94860000I-75000J0D01*
G01*
X68611500Y-94860000D01*
G75*
G02*
X68536500Y-94785000I0J75000D01*
G01*
X68536500Y-94635000D01*
G75*
G02*
X68611500Y-94560000I75000J0D01*
G01*
X69936500Y-94560000D01*
G75*
G02*
X70011500Y-94635000I0J-75000D01*
G01*
G37*
G36*
G01*
X70011500Y-95135000D02*
X70011500Y-95285000D01*
G75*
G02*
X69936500Y-95360000I-75000J0D01*
G01*
X68611500Y-95360000D01*
G75*
G02*
X68536500Y-95285000I0J75000D01*
G01*
X68536500Y-95135000D01*
G75*
G02*
X68611500Y-95060000I75000J0D01*
G01*
X69936500Y-95060000D01*
G75*
G02*
X70011500Y-95135000I0J-75000D01*
G01*
G37*
G36*
G01*
X70011500Y-95635000D02*
X70011500Y-95785000D01*
G75*
G02*
X69936500Y-95860000I-75000J0D01*
G01*
X68611500Y-95860000D01*
G75*
G02*
X68536500Y-95785000I0J75000D01*
G01*
X68536500Y-95635000D01*
G75*
G02*
X68611500Y-95560000I75000J0D01*
G01*
X69936500Y-95560000D01*
G75*
G02*
X70011500Y-95635000I0J-75000D01*
G01*
G37*
G36*
G01*
X70011500Y-96135000D02*
X70011500Y-96285000D01*
G75*
G02*
X69936500Y-96360000I-75000J0D01*
G01*
X68611500Y-96360000D01*
G75*
G02*
X68536500Y-96285000I0J75000D01*
G01*
X68536500Y-96135000D01*
G75*
G02*
X68611500Y-96060000I75000J0D01*
G01*
X69936500Y-96060000D01*
G75*
G02*
X70011500Y-96135000I0J-75000D01*
G01*
G37*
G36*
G01*
X70011500Y-96635000D02*
X70011500Y-96785000D01*
G75*
G02*
X69936500Y-96860000I-75000J0D01*
G01*
X68611500Y-96860000D01*
G75*
G02*
X68536500Y-96785000I0J75000D01*
G01*
X68536500Y-96635000D01*
G75*
G02*
X68611500Y-96560000I75000J0D01*
G01*
X69936500Y-96560000D01*
G75*
G02*
X70011500Y-96635000I0J-75000D01*
G01*
G37*
G36*
G01*
X70011500Y-97135000D02*
X70011500Y-97285000D01*
G75*
G02*
X69936500Y-97360000I-75000J0D01*
G01*
X68611500Y-97360000D01*
G75*
G02*
X68536500Y-97285000I0J75000D01*
G01*
X68536500Y-97135000D01*
G75*
G02*
X68611500Y-97060000I75000J0D01*
G01*
X69936500Y-97060000D01*
G75*
G02*
X70011500Y-97135000I0J-75000D01*
G01*
G37*
G36*
G01*
X70011500Y-97635000D02*
X70011500Y-97785000D01*
G75*
G02*
X69936500Y-97860000I-75000J0D01*
G01*
X68611500Y-97860000D01*
G75*
G02*
X68536500Y-97785000I0J75000D01*
G01*
X68536500Y-97635000D01*
G75*
G02*
X68611500Y-97560000I75000J0D01*
G01*
X69936500Y-97560000D01*
G75*
G02*
X70011500Y-97635000I0J-75000D01*
G01*
G37*
G36*
G01*
X70011500Y-98135000D02*
X70011500Y-98285000D01*
G75*
G02*
X69936500Y-98360000I-75000J0D01*
G01*
X68611500Y-98360000D01*
G75*
G02*
X68536500Y-98285000I0J75000D01*
G01*
X68536500Y-98135000D01*
G75*
G02*
X68611500Y-98060000I75000J0D01*
G01*
X69936500Y-98060000D01*
G75*
G02*
X70011500Y-98135000I0J-75000D01*
G01*
G37*
G36*
G01*
X70011500Y-98635000D02*
X70011500Y-98785000D01*
G75*
G02*
X69936500Y-98860000I-75000J0D01*
G01*
X68611500Y-98860000D01*
G75*
G02*
X68536500Y-98785000I0J75000D01*
G01*
X68536500Y-98635000D01*
G75*
G02*
X68611500Y-98560000I75000J0D01*
G01*
X69936500Y-98560000D01*
G75*
G02*
X70011500Y-98635000I0J-75000D01*
G01*
G37*
G36*
G01*
X70011500Y-99135000D02*
X70011500Y-99285000D01*
G75*
G02*
X69936500Y-99360000I-75000J0D01*
G01*
X68611500Y-99360000D01*
G75*
G02*
X68536500Y-99285000I0J75000D01*
G01*
X68536500Y-99135000D01*
G75*
G02*
X68611500Y-99060000I75000J0D01*
G01*
X69936500Y-99060000D01*
G75*
G02*
X70011500Y-99135000I0J-75000D01*
G01*
G37*
G36*
G01*
X70011500Y-99635000D02*
X70011500Y-99785000D01*
G75*
G02*
X69936500Y-99860000I-75000J0D01*
G01*
X68611500Y-99860000D01*
G75*
G02*
X68536500Y-99785000I0J75000D01*
G01*
X68536500Y-99635000D01*
G75*
G02*
X68611500Y-99560000I75000J0D01*
G01*
X69936500Y-99560000D01*
G75*
G02*
X70011500Y-99635000I0J-75000D01*
G01*
G37*
G36*
G01*
X70011500Y-100135000D02*
X70011500Y-100285000D01*
G75*
G02*
X69936500Y-100360000I-75000J0D01*
G01*
X68611500Y-100360000D01*
G75*
G02*
X68536500Y-100285000I0J75000D01*
G01*
X68536500Y-100135000D01*
G75*
G02*
X68611500Y-100060000I75000J0D01*
G01*
X69936500Y-100060000D01*
G75*
G02*
X70011500Y-100135000I0J-75000D01*
G01*
G37*
G36*
G01*
X70011500Y-100635000D02*
X70011500Y-100785000D01*
G75*
G02*
X69936500Y-100860000I-75000J0D01*
G01*
X68611500Y-100860000D01*
G75*
G02*
X68536500Y-100785000I0J75000D01*
G01*
X68536500Y-100635000D01*
G75*
G02*
X68611500Y-100560000I75000J0D01*
G01*
X69936500Y-100560000D01*
G75*
G02*
X70011500Y-100635000I0J-75000D01*
G01*
G37*
G36*
G01*
X70011500Y-101135000D02*
X70011500Y-101285000D01*
G75*
G02*
X69936500Y-101360000I-75000J0D01*
G01*
X68611500Y-101360000D01*
G75*
G02*
X68536500Y-101285000I0J75000D01*
G01*
X68536500Y-101135000D01*
G75*
G02*
X68611500Y-101060000I75000J0D01*
G01*
X69936500Y-101060000D01*
G75*
G02*
X70011500Y-101135000I0J-75000D01*
G01*
G37*
G36*
G01*
X70011500Y-101635000D02*
X70011500Y-101785000D01*
G75*
G02*
X69936500Y-101860000I-75000J0D01*
G01*
X68611500Y-101860000D01*
G75*
G02*
X68536500Y-101785000I0J75000D01*
G01*
X68536500Y-101635000D01*
G75*
G02*
X68611500Y-101560000I75000J0D01*
G01*
X69936500Y-101560000D01*
G75*
G02*
X70011500Y-101635000I0J-75000D01*
G01*
G37*
G36*
G01*
X70011500Y-102135000D02*
X70011500Y-102285000D01*
G75*
G02*
X69936500Y-102360000I-75000J0D01*
G01*
X68611500Y-102360000D01*
G75*
G02*
X68536500Y-102285000I0J75000D01*
G01*
X68536500Y-102135000D01*
G75*
G02*
X68611500Y-102060000I75000J0D01*
G01*
X69936500Y-102060000D01*
G75*
G02*
X70011500Y-102135000I0J-75000D01*
G01*
G37*
G36*
G01*
X70011500Y-102635000D02*
X70011500Y-102785000D01*
G75*
G02*
X69936500Y-102860000I-75000J0D01*
G01*
X68611500Y-102860000D01*
G75*
G02*
X68536500Y-102785000I0J75000D01*
G01*
X68536500Y-102635000D01*
G75*
G02*
X68611500Y-102560000I75000J0D01*
G01*
X69936500Y-102560000D01*
G75*
G02*
X70011500Y-102635000I0J-75000D01*
G01*
G37*
G36*
G01*
X70011500Y-103135000D02*
X70011500Y-103285000D01*
G75*
G02*
X69936500Y-103360000I-75000J0D01*
G01*
X68611500Y-103360000D01*
G75*
G02*
X68536500Y-103285000I0J75000D01*
G01*
X68536500Y-103135000D01*
G75*
G02*
X68611500Y-103060000I75000J0D01*
G01*
X69936500Y-103060000D01*
G75*
G02*
X70011500Y-103135000I0J-75000D01*
G01*
G37*
G36*
G01*
X70011500Y-103635000D02*
X70011500Y-103785000D01*
G75*
G02*
X69936500Y-103860000I-75000J0D01*
G01*
X68611500Y-103860000D01*
G75*
G02*
X68536500Y-103785000I0J75000D01*
G01*
X68536500Y-103635000D01*
G75*
G02*
X68611500Y-103560000I75000J0D01*
G01*
X69936500Y-103560000D01*
G75*
G02*
X70011500Y-103635000I0J-75000D01*
G01*
G37*
G36*
G01*
X70011500Y-104135000D02*
X70011500Y-104285000D01*
G75*
G02*
X69936500Y-104360000I-75000J0D01*
G01*
X68611500Y-104360000D01*
G75*
G02*
X68536500Y-104285000I0J75000D01*
G01*
X68536500Y-104135000D01*
G75*
G02*
X68611500Y-104060000I75000J0D01*
G01*
X69936500Y-104060000D01*
G75*
G02*
X70011500Y-104135000I0J-75000D01*
G01*
G37*
X65561500Y-98460000D03*
%TD*%
%TO.C,C2*%
G36*
G01*
X95139500Y-136876500D02*
X95614500Y-136876500D01*
G75*
G02*
X95852000Y-137114000I0J-237500D01*
G01*
X95852000Y-137714000D01*
G75*
G02*
X95614500Y-137951500I-237500J0D01*
G01*
X95139500Y-137951500D01*
G75*
G02*
X94902000Y-137714000I0J237500D01*
G01*
X94902000Y-137114000D01*
G75*
G02*
X95139500Y-136876500I237500J0D01*
G01*
G37*
G36*
G01*
X95139500Y-138601500D02*
X95614500Y-138601500D01*
G75*
G02*
X95852000Y-138839000I0J-237500D01*
G01*
X95852000Y-139439000D01*
G75*
G02*
X95614500Y-139676500I-237500J0D01*
G01*
X95139500Y-139676500D01*
G75*
G02*
X94902000Y-139439000I0J237500D01*
G01*
X94902000Y-138839000D01*
G75*
G02*
X95139500Y-138601500I237500J0D01*
G01*
G37*
%TD*%
%TO.C,C10*%
G36*
G01*
X80534500Y-137003500D02*
X81009500Y-137003500D01*
G75*
G02*
X81247000Y-137241000I0J-237500D01*
G01*
X81247000Y-137841000D01*
G75*
G02*
X81009500Y-138078500I-237500J0D01*
G01*
X80534500Y-138078500D01*
G75*
G02*
X80297000Y-137841000I0J237500D01*
G01*
X80297000Y-137241000D01*
G75*
G02*
X80534500Y-137003500I237500J0D01*
G01*
G37*
G36*
G01*
X80534500Y-138728500D02*
X81009500Y-138728500D01*
G75*
G02*
X81247000Y-138966000I0J-237500D01*
G01*
X81247000Y-139566000D01*
G75*
G02*
X81009500Y-139803500I-237500J0D01*
G01*
X80534500Y-139803500D01*
G75*
G02*
X80297000Y-139566000I0J237500D01*
G01*
X80297000Y-138966000D01*
G75*
G02*
X80534500Y-138728500I237500J0D01*
G01*
G37*
%TD*%
%TO.C,C12*%
G36*
G01*
X65929500Y-138601500D02*
X66404500Y-138601500D01*
G75*
G02*
X66642000Y-138839000I0J-237500D01*
G01*
X66642000Y-139439000D01*
G75*
G02*
X66404500Y-139676500I-237500J0D01*
G01*
X65929500Y-139676500D01*
G75*
G02*
X65692000Y-139439000I0J237500D01*
G01*
X65692000Y-138839000D01*
G75*
G02*
X65929500Y-138601500I237500J0D01*
G01*
G37*
G36*
G01*
X65929500Y-136876500D02*
X66404500Y-136876500D01*
G75*
G02*
X66642000Y-137114000I0J-237500D01*
G01*
X66642000Y-137714000D01*
G75*
G02*
X66404500Y-137951500I-237500J0D01*
G01*
X65929500Y-137951500D01*
G75*
G02*
X65692000Y-137714000I0J237500D01*
G01*
X65692000Y-137114000D01*
G75*
G02*
X65929500Y-136876500I237500J0D01*
G01*
G37*
%TD*%
M02*
