%TF.GenerationSoftware,KiCad,Pcbnew,(6.0.10)*%
%TF.CreationDate,2022-12-28T15:38:02-06:00*%
%TF.ProjectId,ScienceMotorController_Hardware_2023,53636965-6e63-4654-9d6f-746f72436f6e,rev?*%
%TF.SameCoordinates,Original*%
%TF.FileFunction,Legend,Bot*%
%TF.FilePolarity,Positive*%
%FSLAX46Y46*%
G04 Gerber Fmt 4.6, Leading zero omitted, Abs format (unit mm)*
G04 Created by KiCad (PCBNEW (6.0.10)) date 2022-12-28 15:38:02*
%MOMM*%
%LPD*%
G01*
G04 APERTURE LIST*
%ADD10C,0.150000*%
%ADD11C,0.300000*%
%ADD12R,1.350000X1.350000*%
%ADD13O,1.350000X1.350000*%
%ADD14C,1.524000*%
%ADD15O,3.500000X2.200000*%
%ADD16R,2.500000X1.500000*%
%ADD17O,2.500000X1.500000*%
%ADD18C,2.946400*%
%ADD19C,1.308000*%
%ADD20C,1.258000*%
%ADD21C,1.208000*%
%ADD22C,1.100000*%
%ADD23C,1.400000*%
%ADD24C,4.000000*%
%ADD25C,2.000000*%
%ADD26O,5.100000X3.000000*%
G04 APERTURE END LIST*
D10*
X98082142Y-140774190D02*
X98129761Y-140726571D01*
X98177380Y-140583714D01*
X98177380Y-140488476D01*
X98129761Y-140345619D01*
X98034523Y-140250380D01*
X97939285Y-140202761D01*
X97748809Y-140155142D01*
X97605952Y-140155142D01*
X97415476Y-140202761D01*
X97320238Y-140250380D01*
X97225000Y-140345619D01*
X97177380Y-140488476D01*
X97177380Y-140583714D01*
X97225000Y-140726571D01*
X97272619Y-140774190D01*
X98177380Y-141345619D02*
X98129761Y-141250380D01*
X98082142Y-141202761D01*
X97986904Y-141155142D01*
X97701190Y-141155142D01*
X97605952Y-141202761D01*
X97558333Y-141250380D01*
X97510714Y-141345619D01*
X97510714Y-141488476D01*
X97558333Y-141583714D01*
X97605952Y-141631333D01*
X97701190Y-141678952D01*
X97986904Y-141678952D01*
X98082142Y-141631333D01*
X98129761Y-141583714D01*
X98177380Y-141488476D01*
X98177380Y-141345619D01*
X97510714Y-142107523D02*
X98177380Y-142107523D01*
X97605952Y-142107523D02*
X97558333Y-142155142D01*
X97510714Y-142250380D01*
X97510714Y-142393238D01*
X97558333Y-142488476D01*
X97653571Y-142536095D01*
X98177380Y-142536095D01*
X97510714Y-143012285D02*
X98177380Y-143012285D01*
X97605952Y-143012285D02*
X97558333Y-143059904D01*
X97510714Y-143155142D01*
X97510714Y-143298000D01*
X97558333Y-143393238D01*
X97653571Y-143440857D01*
X98177380Y-143440857D01*
X97510714Y-144345619D02*
X98177380Y-144345619D01*
X97129761Y-144107523D02*
X97844047Y-143869428D01*
X97844047Y-144488476D01*
X134658142Y-140520190D02*
X134705761Y-140472571D01*
X134753380Y-140329714D01*
X134753380Y-140234476D01*
X134705761Y-140091619D01*
X134610523Y-139996380D01*
X134515285Y-139948761D01*
X134324809Y-139901142D01*
X134181952Y-139901142D01*
X133991476Y-139948761D01*
X133896238Y-139996380D01*
X133801000Y-140091619D01*
X133753380Y-140234476D01*
X133753380Y-140329714D01*
X133801000Y-140472571D01*
X133848619Y-140520190D01*
X134753380Y-141091619D02*
X134705761Y-140996380D01*
X134658142Y-140948761D01*
X134562904Y-140901142D01*
X134277190Y-140901142D01*
X134181952Y-140948761D01*
X134134333Y-140996380D01*
X134086714Y-141091619D01*
X134086714Y-141234476D01*
X134134333Y-141329714D01*
X134181952Y-141377333D01*
X134277190Y-141424952D01*
X134562904Y-141424952D01*
X134658142Y-141377333D01*
X134705761Y-141329714D01*
X134753380Y-141234476D01*
X134753380Y-141091619D01*
X134086714Y-141853523D02*
X134753380Y-141853523D01*
X134181952Y-141853523D02*
X134134333Y-141901142D01*
X134086714Y-141996380D01*
X134086714Y-142139238D01*
X134134333Y-142234476D01*
X134229571Y-142282095D01*
X134753380Y-142282095D01*
X134086714Y-142758285D02*
X134753380Y-142758285D01*
X134181952Y-142758285D02*
X134134333Y-142805904D01*
X134086714Y-142901142D01*
X134086714Y-143044000D01*
X134134333Y-143139238D01*
X134229571Y-143186857D01*
X134753380Y-143186857D01*
X133753380Y-143567809D02*
X133753380Y-144234476D01*
X134753380Y-143805904D01*
X116497142Y-140774190D02*
X116544761Y-140726571D01*
X116592380Y-140583714D01*
X116592380Y-140488476D01*
X116544761Y-140345619D01*
X116449523Y-140250380D01*
X116354285Y-140202761D01*
X116163809Y-140155142D01*
X116020952Y-140155142D01*
X115830476Y-140202761D01*
X115735238Y-140250380D01*
X115640000Y-140345619D01*
X115592380Y-140488476D01*
X115592380Y-140583714D01*
X115640000Y-140726571D01*
X115687619Y-140774190D01*
X116592380Y-141345619D02*
X116544761Y-141250380D01*
X116497142Y-141202761D01*
X116401904Y-141155142D01*
X116116190Y-141155142D01*
X116020952Y-141202761D01*
X115973333Y-141250380D01*
X115925714Y-141345619D01*
X115925714Y-141488476D01*
X115973333Y-141583714D01*
X116020952Y-141631333D01*
X116116190Y-141678952D01*
X116401904Y-141678952D01*
X116497142Y-141631333D01*
X116544761Y-141583714D01*
X116592380Y-141488476D01*
X116592380Y-141345619D01*
X115925714Y-142107523D02*
X116592380Y-142107523D01*
X116020952Y-142107523D02*
X115973333Y-142155142D01*
X115925714Y-142250380D01*
X115925714Y-142393238D01*
X115973333Y-142488476D01*
X116068571Y-142536095D01*
X116592380Y-142536095D01*
X115925714Y-143012285D02*
X116592380Y-143012285D01*
X116020952Y-143012285D02*
X115973333Y-143059904D01*
X115925714Y-143155142D01*
X115925714Y-143298000D01*
X115973333Y-143393238D01*
X116068571Y-143440857D01*
X116592380Y-143440857D01*
X115592380Y-144345619D02*
X115592380Y-144155142D01*
X115640000Y-144059904D01*
X115687619Y-144012285D01*
X115830476Y-143917047D01*
X116020952Y-143869428D01*
X116401904Y-143869428D01*
X116497142Y-143917047D01*
X116544761Y-143964666D01*
X116592380Y-144059904D01*
X116592380Y-144250380D01*
X116544761Y-144345619D01*
X116497142Y-144393238D01*
X116401904Y-144440857D01*
X116163809Y-144440857D01*
X116068571Y-144393238D01*
X116020952Y-144345619D01*
X115973333Y-144250380D01*
X115973333Y-144059904D01*
X116020952Y-143964666D01*
X116068571Y-143917047D01*
X116163809Y-143869428D01*
X79709142Y-140464390D02*
X79756761Y-140416771D01*
X79804380Y-140273914D01*
X79804380Y-140178676D01*
X79756761Y-140035819D01*
X79661523Y-139940580D01*
X79566285Y-139892961D01*
X79375809Y-139845342D01*
X79232952Y-139845342D01*
X79042476Y-139892961D01*
X78947238Y-139940580D01*
X78852000Y-140035819D01*
X78804380Y-140178676D01*
X78804380Y-140273914D01*
X78852000Y-140416771D01*
X78899619Y-140464390D01*
X79804380Y-141035819D02*
X79756761Y-140940580D01*
X79709142Y-140892961D01*
X79613904Y-140845342D01*
X79328190Y-140845342D01*
X79232952Y-140892961D01*
X79185333Y-140940580D01*
X79137714Y-141035819D01*
X79137714Y-141178676D01*
X79185333Y-141273914D01*
X79232952Y-141321533D01*
X79328190Y-141369152D01*
X79613904Y-141369152D01*
X79709142Y-141321533D01*
X79756761Y-141273914D01*
X79804380Y-141178676D01*
X79804380Y-141035819D01*
X79137714Y-141797723D02*
X79804380Y-141797723D01*
X79232952Y-141797723D02*
X79185333Y-141845342D01*
X79137714Y-141940580D01*
X79137714Y-142083438D01*
X79185333Y-142178676D01*
X79280571Y-142226295D01*
X79804380Y-142226295D01*
X79137714Y-142702485D02*
X79804380Y-142702485D01*
X79232952Y-142702485D02*
X79185333Y-142750104D01*
X79137714Y-142845342D01*
X79137714Y-142988200D01*
X79185333Y-143083438D01*
X79280571Y-143131057D01*
X79804380Y-143131057D01*
X78804380Y-143512009D02*
X78804380Y-144131057D01*
X79185333Y-143797723D01*
X79185333Y-143940580D01*
X79232952Y-144035819D01*
X79280571Y-144083438D01*
X79375809Y-144131057D01*
X79613904Y-144131057D01*
X79709142Y-144083438D01*
X79756761Y-144035819D01*
X79804380Y-143940580D01*
X79804380Y-143654866D01*
X79756761Y-143559628D01*
X79709142Y-143512009D01*
X43133142Y-140464390D02*
X43180761Y-140416771D01*
X43228380Y-140273914D01*
X43228380Y-140178676D01*
X43180761Y-140035819D01*
X43085523Y-139940580D01*
X42990285Y-139892961D01*
X42799809Y-139845342D01*
X42656952Y-139845342D01*
X42466476Y-139892961D01*
X42371238Y-139940580D01*
X42276000Y-140035819D01*
X42228380Y-140178676D01*
X42228380Y-140273914D01*
X42276000Y-140416771D01*
X42323619Y-140464390D01*
X43228380Y-141035819D02*
X43180761Y-140940580D01*
X43133142Y-140892961D01*
X43037904Y-140845342D01*
X42752190Y-140845342D01*
X42656952Y-140892961D01*
X42609333Y-140940580D01*
X42561714Y-141035819D01*
X42561714Y-141178676D01*
X42609333Y-141273914D01*
X42656952Y-141321533D01*
X42752190Y-141369152D01*
X43037904Y-141369152D01*
X43133142Y-141321533D01*
X43180761Y-141273914D01*
X43228380Y-141178676D01*
X43228380Y-141035819D01*
X42561714Y-141797723D02*
X43228380Y-141797723D01*
X42656952Y-141797723D02*
X42609333Y-141845342D01*
X42561714Y-141940580D01*
X42561714Y-142083438D01*
X42609333Y-142178676D01*
X42704571Y-142226295D01*
X43228380Y-142226295D01*
X42561714Y-142702485D02*
X43228380Y-142702485D01*
X42656952Y-142702485D02*
X42609333Y-142750104D01*
X42561714Y-142845342D01*
X42561714Y-142988200D01*
X42609333Y-143083438D01*
X42704571Y-143131057D01*
X43228380Y-143131057D01*
X43228380Y-144131057D02*
X43228380Y-143559628D01*
X43228380Y-143845342D02*
X42228380Y-143845342D01*
X42371238Y-143750104D01*
X42466476Y-143654866D01*
X42514095Y-143559628D01*
D11*
X141423571Y-128778000D02*
X141568714Y-128705428D01*
X141786428Y-128705428D01*
X142004142Y-128778000D01*
X142149285Y-128923142D01*
X142221857Y-129068285D01*
X142294428Y-129358571D01*
X142294428Y-129576285D01*
X142221857Y-129866571D01*
X142149285Y-130011714D01*
X142004142Y-130156857D01*
X141786428Y-130229428D01*
X141641285Y-130229428D01*
X141423571Y-130156857D01*
X141351000Y-130084285D01*
X141351000Y-129576285D01*
X141641285Y-129576285D01*
X140480142Y-128705428D02*
X140480142Y-129068285D01*
X140843000Y-128923142D02*
X140480142Y-129068285D01*
X140117285Y-128923142D01*
X140697857Y-129358571D02*
X140480142Y-129068285D01*
X140262428Y-129358571D01*
X139319000Y-128705428D02*
X139319000Y-129068285D01*
X139681857Y-128923142D02*
X139319000Y-129068285D01*
X138956142Y-128923142D01*
X139536714Y-129358571D02*
X139319000Y-129068285D01*
X139101285Y-129358571D01*
X138157857Y-128705428D02*
X138157857Y-129068285D01*
X138520714Y-128923142D02*
X138157857Y-129068285D01*
X137795000Y-128923142D01*
X138375571Y-129358571D02*
X138157857Y-129068285D01*
X137940142Y-129358571D01*
D10*
X61421142Y-140464390D02*
X61468761Y-140416771D01*
X61516380Y-140273914D01*
X61516380Y-140178676D01*
X61468761Y-140035819D01*
X61373523Y-139940580D01*
X61278285Y-139892961D01*
X61087809Y-139845342D01*
X60944952Y-139845342D01*
X60754476Y-139892961D01*
X60659238Y-139940580D01*
X60564000Y-140035819D01*
X60516380Y-140178676D01*
X60516380Y-140273914D01*
X60564000Y-140416771D01*
X60611619Y-140464390D01*
X61516380Y-141035819D02*
X61468761Y-140940580D01*
X61421142Y-140892961D01*
X61325904Y-140845342D01*
X61040190Y-140845342D01*
X60944952Y-140892961D01*
X60897333Y-140940580D01*
X60849714Y-141035819D01*
X60849714Y-141178676D01*
X60897333Y-141273914D01*
X60944952Y-141321533D01*
X61040190Y-141369152D01*
X61325904Y-141369152D01*
X61421142Y-141321533D01*
X61468761Y-141273914D01*
X61516380Y-141178676D01*
X61516380Y-141035819D01*
X60849714Y-141797723D02*
X61516380Y-141797723D01*
X60944952Y-141797723D02*
X60897333Y-141845342D01*
X60849714Y-141940580D01*
X60849714Y-142083438D01*
X60897333Y-142178676D01*
X60992571Y-142226295D01*
X61516380Y-142226295D01*
X60849714Y-142702485D02*
X61516380Y-142702485D01*
X60944952Y-142702485D02*
X60897333Y-142750104D01*
X60849714Y-142845342D01*
X60849714Y-142988200D01*
X60897333Y-143083438D01*
X60992571Y-143131057D01*
X61516380Y-143131057D01*
X60611619Y-143559628D02*
X60564000Y-143607247D01*
X60516380Y-143702485D01*
X60516380Y-143940580D01*
X60564000Y-144035819D01*
X60611619Y-144083438D01*
X60706857Y-144131057D01*
X60802095Y-144131057D01*
X60944952Y-144083438D01*
X61516380Y-143512009D01*
X61516380Y-144131057D01*
X152933142Y-140774190D02*
X152980761Y-140726571D01*
X153028380Y-140583714D01*
X153028380Y-140488476D01*
X152980761Y-140345619D01*
X152885523Y-140250380D01*
X152790285Y-140202761D01*
X152599809Y-140155142D01*
X152456952Y-140155142D01*
X152266476Y-140202761D01*
X152171238Y-140250380D01*
X152076000Y-140345619D01*
X152028380Y-140488476D01*
X152028380Y-140583714D01*
X152076000Y-140726571D01*
X152123619Y-140774190D01*
X153028380Y-141345619D02*
X152980761Y-141250380D01*
X152933142Y-141202761D01*
X152837904Y-141155142D01*
X152552190Y-141155142D01*
X152456952Y-141202761D01*
X152409333Y-141250380D01*
X152361714Y-141345619D01*
X152361714Y-141488476D01*
X152409333Y-141583714D01*
X152456952Y-141631333D01*
X152552190Y-141678952D01*
X152837904Y-141678952D01*
X152933142Y-141631333D01*
X152980761Y-141583714D01*
X153028380Y-141488476D01*
X153028380Y-141345619D01*
X152361714Y-142107523D02*
X153028380Y-142107523D01*
X152456952Y-142107523D02*
X152409333Y-142155142D01*
X152361714Y-142250380D01*
X152361714Y-142393238D01*
X152409333Y-142488476D01*
X152504571Y-142536095D01*
X153028380Y-142536095D01*
X152361714Y-143012285D02*
X153028380Y-143012285D01*
X152456952Y-143012285D02*
X152409333Y-143059904D01*
X152361714Y-143155142D01*
X152361714Y-143298000D01*
X152409333Y-143393238D01*
X152504571Y-143440857D01*
X153028380Y-143440857D01*
X152028380Y-144393238D02*
X152028380Y-143917047D01*
X152504571Y-143869428D01*
X152456952Y-143917047D01*
X152409333Y-144012285D01*
X152409333Y-144250380D01*
X152456952Y-144345619D01*
X152504571Y-144393238D01*
X152599809Y-144440857D01*
X152837904Y-144440857D01*
X152933142Y-144393238D01*
X152980761Y-144345619D01*
X153028380Y-144250380D01*
X153028380Y-144012285D01*
X152980761Y-143917047D01*
X152933142Y-143869428D01*
X114512000Y-164738000D02*
X98764000Y-164738000D01*
X106663400Y-164712600D02*
X106663400Y-155822600D01*
X104352000Y-154679600D02*
X101050000Y-154679600D01*
X114512000Y-152419000D02*
X114512000Y-153511200D01*
X98764000Y-152368200D02*
X98764000Y-153562000D01*
X106638000Y-152393600D02*
X106638000Y-140100000D01*
X98764000Y-156991000D02*
X98764000Y-155822600D01*
X98764000Y-156965600D02*
X98764000Y-164712600D01*
X106638000Y-152393600D02*
X106638000Y-153536600D01*
X108924000Y-154679600D02*
X107781000Y-154679600D01*
X114512000Y-152393600D02*
X114512000Y-140100000D01*
X108924000Y-154679600D02*
X112200600Y-154679600D01*
X101075400Y-154679600D02*
X99907000Y-154679600D01*
X98764000Y-152393600D02*
X98764000Y-140100000D01*
X114512000Y-164712600D02*
X114512000Y-156965600D01*
X113369000Y-154679600D02*
X112200600Y-154679600D01*
X114512000Y-140100000D02*
X98764000Y-140100000D01*
X104352000Y-154679600D02*
X105495000Y-154679600D01*
X114512000Y-155822600D02*
X114512000Y-157041800D01*
X113369000Y-154679600D02*
G75*
G03*
X114512000Y-155822600I1143000J0D01*
G01*
X114512000Y-153536600D02*
G75*
G03*
X113369000Y-154679600I0J-1143000D01*
G01*
X99881600Y-154679600D02*
G75*
G03*
X98764000Y-153562000I-1117598J2D01*
G01*
X98764000Y-155797200D02*
G75*
G03*
X99881600Y-154679600I2J1117598D01*
G01*
X107781000Y-154679600D02*
G75*
G03*
X107781000Y-154679600I-1143000J0D01*
G01*
X135340000Y-157219600D02*
X135340000Y-164966600D01*
X145500000Y-154933600D02*
X144357000Y-154933600D01*
X151088000Y-156076600D02*
X151088000Y-157295800D01*
X143239400Y-164966600D02*
X143239400Y-156076600D01*
X143214000Y-152647600D02*
X143214000Y-153790600D01*
X135340000Y-157245000D02*
X135340000Y-156076600D01*
X151088000Y-152673000D02*
X151088000Y-153765200D01*
X151088000Y-164966600D02*
X151088000Y-157219600D01*
X140928000Y-154933600D02*
X137626000Y-154933600D01*
X151088000Y-140354000D02*
X135340000Y-140354000D01*
X140928000Y-154933600D02*
X142071000Y-154933600D01*
X151088000Y-152647600D02*
X151088000Y-140354000D01*
X145500000Y-154933600D02*
X148776600Y-154933600D01*
X151088000Y-164992000D02*
X135340000Y-164992000D01*
X143214000Y-152647600D02*
X143214000Y-140354000D01*
X149945000Y-154933600D02*
X148776600Y-154933600D01*
X137651400Y-154933600D02*
X136483000Y-154933600D01*
X135340000Y-152647600D02*
X135340000Y-140354000D01*
X135340000Y-152622200D02*
X135340000Y-153816000D01*
X136457600Y-154933600D02*
G75*
G03*
X135340000Y-153816000I-1117598J2D01*
G01*
X151088000Y-153790600D02*
G75*
G03*
X149945000Y-154933600I0J-1143000D01*
G01*
X149945000Y-154933600D02*
G75*
G03*
X151088000Y-156076600I1143000J0D01*
G01*
X135340000Y-156051200D02*
G75*
G03*
X136457600Y-154933600I2J1117598D01*
G01*
X144357000Y-154933600D02*
G75*
G03*
X144357000Y-154933600I-1143000J0D01*
G01*
X127339000Y-154933600D02*
X130615600Y-154933600D01*
X132927000Y-152647600D02*
X132927000Y-140354000D01*
X132927000Y-140354000D02*
X117179000Y-140354000D01*
X131784000Y-154933600D02*
X130615600Y-154933600D01*
X117179000Y-152622200D02*
X117179000Y-153816000D01*
X132927000Y-156076600D02*
X132927000Y-157295800D01*
X132927000Y-152673000D02*
X132927000Y-153765200D01*
X119490400Y-154933600D02*
X118322000Y-154933600D01*
X122767000Y-154933600D02*
X123910000Y-154933600D01*
X117179000Y-157245000D02*
X117179000Y-156076600D01*
X117179000Y-157219600D02*
X117179000Y-164966600D01*
X127339000Y-154933600D02*
X126196000Y-154933600D01*
X125053000Y-152647600D02*
X125053000Y-153790600D01*
X125078400Y-164966600D02*
X125078400Y-156076600D01*
X132927000Y-164992000D02*
X117179000Y-164992000D01*
X122767000Y-154933600D02*
X119465000Y-154933600D01*
X125053000Y-152647600D02*
X125053000Y-140354000D01*
X132927000Y-164966600D02*
X132927000Y-157219600D01*
X117179000Y-152647600D02*
X117179000Y-140354000D01*
X131784000Y-154933600D02*
G75*
G03*
X132927000Y-156076600I1143000J0D01*
G01*
X117179000Y-156051200D02*
G75*
G03*
X118296600Y-154933600I2J1117598D01*
G01*
X132927000Y-153790600D02*
G75*
G03*
X131784000Y-154933600I0J-1143000D01*
G01*
X118296600Y-154933600D02*
G75*
G03*
X117179000Y-153816000I-1117598J2D01*
G01*
X126196000Y-154933600D02*
G75*
G03*
X126196000Y-154933600I-1143000J0D01*
G01*
G36*
X154734648Y-96136156D02*
G01*
X154807454Y-96181503D01*
X154754977Y-96242526D01*
X154663834Y-96273910D01*
X154572868Y-96245463D01*
X154573973Y-96158476D01*
X154610419Y-96130885D01*
X154734648Y-96136156D01*
G37*
G36*
X148873072Y-97728795D02*
G01*
X148834819Y-97767048D01*
X148796566Y-97728795D01*
X148834819Y-97690542D01*
X148873072Y-97728795D01*
G37*
G36*
X157518253Y-98952891D02*
G01*
X157480000Y-98991144D01*
X157441747Y-98952891D01*
X157480000Y-98914638D01*
X157518253Y-98952891D01*
G37*
G36*
X159660421Y-99794457D02*
G01*
X159622168Y-99832711D01*
X159583915Y-99794457D01*
X159622168Y-99756204D01*
X159660421Y-99794457D01*
G37*
G36*
X164444099Y-95127574D02*
G01*
X164471826Y-95258279D01*
X164486410Y-95512082D01*
X164491162Y-95614989D01*
X164517664Y-95858736D01*
X164581087Y-96032476D01*
X164704538Y-96152804D01*
X164911126Y-96236313D01*
X165223958Y-96299599D01*
X165666144Y-96359255D01*
X165902680Y-96392880D01*
X166080053Y-96436872D01*
X166138454Y-96490796D01*
X166096836Y-96563645D01*
X166034369Y-96600759D01*
X165906345Y-96551817D01*
X165831174Y-96505083D01*
X165768192Y-96542833D01*
X165740878Y-96564385D01*
X165602032Y-96574804D01*
X165389929Y-96550938D01*
X165152239Y-96501611D01*
X164936628Y-96435649D01*
X164790766Y-96361877D01*
X164716344Y-96313840D01*
X164737901Y-96370813D01*
X164755354Y-96421002D01*
X164695208Y-96466323D01*
X164659732Y-96487220D01*
X164632365Y-96578168D01*
X164619955Y-96760307D01*
X164621289Y-97054105D01*
X164635154Y-97480028D01*
X164638154Y-97551948D01*
X164659232Y-97930816D01*
X164685634Y-98253336D01*
X164714287Y-98487303D01*
X164742115Y-98600513D01*
X164784937Y-98726789D01*
X164802771Y-98925664D01*
X164817765Y-99078041D01*
X164864368Y-99144156D01*
X164896751Y-99164982D01*
X164983802Y-99289300D01*
X165084467Y-99488433D01*
X165140994Y-99605625D01*
X165241336Y-99768709D01*
X165314874Y-99832711D01*
X165338382Y-99829125D01*
X165441304Y-99734191D01*
X165520012Y-99547492D01*
X165551385Y-99319221D01*
X165589894Y-99102352D01*
X165743275Y-98846978D01*
X165979225Y-98682437D01*
X166164993Y-98643229D01*
X166355202Y-98712188D01*
X166512505Y-98923909D01*
X166539904Y-98975178D01*
X166643358Y-99116657D01*
X166728598Y-99114590D01*
X166814719Y-98972018D01*
X166857613Y-98890897D01*
X166976955Y-98795918D01*
X167125057Y-98839903D01*
X167306755Y-99025453D01*
X167526882Y-99355169D01*
X167588501Y-99455170D01*
X167741974Y-99678632D01*
X167865652Y-99823497D01*
X167937236Y-99862210D01*
X167955205Y-99847094D01*
X168046063Y-99715752D01*
X168157408Y-99504206D01*
X168265939Y-99263174D01*
X168348357Y-99043370D01*
X168381361Y-98895512D01*
X168398453Y-98824376D01*
X168490610Y-98761626D01*
X168540005Y-98758398D01*
X168712023Y-98718298D01*
X168783421Y-98718127D01*
X168897037Y-98773943D01*
X169067222Y-98899666D01*
X169311177Y-99108071D01*
X169646100Y-99411927D01*
X169724451Y-99479850D01*
X170018902Y-99674041D01*
X170308512Y-99783933D01*
X170549117Y-99790988D01*
X170654465Y-99750494D01*
X170745083Y-99626210D01*
X170698317Y-99437286D01*
X170514095Y-99182502D01*
X170438296Y-99089588D01*
X170342740Y-98938377D01*
X170329551Y-98854689D01*
X170361470Y-98842037D01*
X170520950Y-98820396D01*
X170777358Y-98805454D01*
X171093472Y-98799879D01*
X171802236Y-98799879D01*
X171808697Y-99019293D01*
X171810393Y-99047538D01*
X171901729Y-99303659D01*
X172100555Y-99513202D01*
X172365780Y-99631041D01*
X172370250Y-99631945D01*
X172550865Y-99696182D01*
X172593007Y-99766050D01*
X172506968Y-99812662D01*
X172303042Y-99807125D01*
X172207958Y-99783117D01*
X171948051Y-99646670D01*
X171719539Y-99442246D01*
X171581840Y-99218353D01*
X171536880Y-99183970D01*
X171388779Y-99130152D01*
X171186242Y-99078122D01*
X170979446Y-99038654D01*
X170818571Y-99022528D01*
X170753795Y-99040518D01*
X170756276Y-99050010D01*
X170800362Y-99155049D01*
X170882139Y-99331599D01*
X170951320Y-99496320D01*
X170966353Y-99643097D01*
X170906359Y-99795295D01*
X170838803Y-99894541D01*
X170635788Y-100022303D01*
X170368949Y-100019146D01*
X170046898Y-99886264D01*
X169678250Y-99624853D01*
X169475380Y-99455248D01*
X169509819Y-99635406D01*
X169521232Y-99736702D01*
X169473421Y-99961018D01*
X169338457Y-100099588D01*
X169152362Y-100140435D01*
X168951162Y-100071584D01*
X168770878Y-99881060D01*
X168711893Y-99780921D01*
X168626392Y-99595101D01*
X168627731Y-99514680D01*
X168710014Y-99550022D01*
X168867344Y-99711493D01*
X169026625Y-99874426D01*
X169176205Y-99951396D01*
X169268588Y-99889167D01*
X169300180Y-99687934D01*
X169232332Y-99461965D01*
X169019658Y-99195160D01*
X168816752Y-99005633D01*
X168691508Y-98929789D01*
X168628775Y-98965889D01*
X168611626Y-99110418D01*
X168592817Y-99231758D01*
X168541346Y-99262763D01*
X168540514Y-99262266D01*
X168477184Y-99296815D01*
X168423177Y-99437361D01*
X168408569Y-99487913D01*
X168305379Y-99701480D01*
X168155037Y-99916191D01*
X168006769Y-100073780D01*
X167899809Y-100126631D01*
X167795043Y-100092248D01*
X167790275Y-100089161D01*
X167685063Y-99980453D01*
X167536608Y-99784416D01*
X167374325Y-99544408D01*
X167227624Y-99303785D01*
X167125919Y-99105903D01*
X167091350Y-99082400D01*
X167007918Y-99144156D01*
X166979499Y-99208605D01*
X166953667Y-99434377D01*
X166967257Y-99775331D01*
X166976314Y-99888998D01*
X166984721Y-100130225D01*
X166963935Y-100255736D01*
X166911105Y-100291747D01*
X166858349Y-100251950D01*
X166783923Y-100076423D01*
X166712414Y-99775332D01*
X166672570Y-99590758D01*
X166562715Y-99269343D01*
X166412882Y-99048525D01*
X166245022Y-98901662D01*
X166063052Y-98836194D01*
X165919733Y-98914777D01*
X165812143Y-99139418D01*
X165737362Y-99512118D01*
X165711011Y-99672205D01*
X165628548Y-99915393D01*
X165498807Y-100034815D01*
X165306952Y-100048975D01*
X165291223Y-100046168D01*
X165170002Y-99978617D01*
X165042212Y-99813552D01*
X164888387Y-99526686D01*
X164885519Y-99520794D01*
X164757391Y-99251489D01*
X164652486Y-99020187D01*
X164593267Y-98876385D01*
X164591194Y-98870453D01*
X164551029Y-98798277D01*
X164505728Y-98840549D01*
X164436691Y-99013564D01*
X164346431Y-99229674D01*
X164187697Y-99501543D01*
X164020490Y-99687377D01*
X163868508Y-99756204D01*
X163792611Y-99744455D01*
X163642761Y-99664343D01*
X163539802Y-99546762D01*
X163531908Y-99437346D01*
X163565494Y-99405053D01*
X163662671Y-99443514D01*
X163665035Y-99445862D01*
X163807627Y-99521980D01*
X163945248Y-99454802D01*
X164087361Y-99239789D01*
X164261443Y-98792860D01*
X164363933Y-98179817D01*
X164332981Y-97540710D01*
X164295054Y-97259969D01*
X164262556Y-96933875D01*
X164249611Y-96681309D01*
X164239246Y-96451750D01*
X164183626Y-96277358D01*
X164050919Y-96181685D01*
X163809357Y-96124557D01*
X163734983Y-96109943D01*
X163515756Y-96042296D01*
X163375595Y-95962859D01*
X163307062Y-95912954D01*
X163243226Y-95925286D01*
X163242023Y-95928174D01*
X163155301Y-95964170D01*
X163004294Y-95951693D01*
X162860939Y-95904857D01*
X162797168Y-95837775D01*
X162802853Y-95824491D01*
X162905464Y-95796741D01*
X163105946Y-95798396D01*
X163363851Y-95827353D01*
X163638735Y-95881510D01*
X163727564Y-95903439D01*
X163991869Y-95966660D01*
X164142752Y-95981790D01*
X164209558Y-95933650D01*
X164221632Y-95807056D01*
X164208319Y-95586827D01*
X164202773Y-95338165D01*
X164229597Y-95181845D01*
X164296566Y-95114114D01*
X164388960Y-95090058D01*
X164444099Y-95127574D01*
G37*
G36*
X148567048Y-98876385D02*
G01*
X148528795Y-98914638D01*
X148490542Y-98876385D01*
X148528795Y-98838132D01*
X148567048Y-98876385D01*
G37*
G36*
X162491144Y-95739638D02*
G01*
X162452891Y-95777891D01*
X162414638Y-95739638D01*
X162452891Y-95701385D01*
X162491144Y-95739638D01*
G37*
G36*
X162676344Y-95707392D02*
G01*
X162682409Y-95777891D01*
X162666707Y-95800787D01*
X162601388Y-95854397D01*
X162593753Y-95852408D01*
X162567650Y-95777891D01*
X162570764Y-95756922D01*
X162648672Y-95701385D01*
X162676344Y-95707392D01*
G37*
G36*
X146367500Y-97660945D02*
G01*
X146590882Y-97692639D01*
X146913713Y-97717457D01*
X147246850Y-97726698D01*
X147314034Y-97726712D01*
X147572811Y-97731853D01*
X147713516Y-97751213D01*
X147765289Y-97792625D01*
X147757270Y-97863923D01*
X147752132Y-97883578D01*
X147756652Y-97996407D01*
X147817612Y-98158621D01*
X147946323Y-98394914D01*
X148154103Y-98729979D01*
X148177695Y-98766917D01*
X148252338Y-98890144D01*
X148242869Y-98907507D01*
X148148254Y-98838132D01*
X148060044Y-98767780D01*
X147797809Y-98512809D01*
X147616382Y-98237028D01*
X147552398Y-98129059D01*
X147457682Y-98047489D01*
X147303104Y-98006073D01*
X147042089Y-97984315D01*
X146585032Y-97958313D01*
X146630096Y-98187831D01*
X146637316Y-98226743D01*
X146671067Y-98535827D01*
X146671214Y-98843661D01*
X146640089Y-99100437D01*
X146580028Y-99256341D01*
X146558738Y-99277320D01*
X146422311Y-99342883D01*
X146250996Y-99372346D01*
X146104455Y-99360588D01*
X146042349Y-99302489D01*
X146079961Y-99252863D01*
X146214488Y-99206857D01*
X146269313Y-99195587D01*
X146347408Y-99140852D01*
X146388500Y-99011758D01*
X146410159Y-98768982D01*
X146413015Y-98589143D01*
X146374242Y-98261083D01*
X146283377Y-98017026D01*
X146150104Y-97889705D01*
X146098741Y-97854546D01*
X146042349Y-97721418D01*
X146042435Y-97713645D01*
X146067342Y-97642581D01*
X146162939Y-97627388D01*
X146367500Y-97660945D01*
G37*
G36*
X151714059Y-98196008D02*
G01*
X151991174Y-98421438D01*
X152251559Y-98622990D01*
X152450564Y-98744997D01*
X152596054Y-98783733D01*
X152716242Y-98752063D01*
X152818568Y-98626622D01*
X152851385Y-98382662D01*
X152851822Y-98340869D01*
X152867224Y-98118395D01*
X152897824Y-97964570D01*
X152943103Y-97890952D01*
X153070724Y-97845143D01*
X153221018Y-97914087D01*
X153356209Y-98087642D01*
X153445167Y-98241286D01*
X153507426Y-98273193D01*
X153577971Y-98201072D01*
X153627531Y-98148680D01*
X153772647Y-98115824D01*
X153963329Y-98215074D01*
X154208559Y-98449978D01*
X154324676Y-98575459D01*
X154427829Y-98661916D01*
X154497665Y-98656446D01*
X154573820Y-98572325D01*
X154635192Y-98457639D01*
X154660759Y-98269409D01*
X154641252Y-97979403D01*
X154625884Y-97812048D01*
X154629123Y-97605275D01*
X154674956Y-97537530D01*
X154713681Y-97545760D01*
X154816273Y-97649910D01*
X154879625Y-97826196D01*
X154877966Y-98014123D01*
X154885606Y-98134197D01*
X154975684Y-98335527D01*
X155123161Y-98539729D01*
X155291174Y-98698022D01*
X155442859Y-98761626D01*
X155552193Y-98739756D01*
X155690938Y-98610445D01*
X155756809Y-98394368D01*
X155742532Y-98125473D01*
X155640833Y-97837710D01*
X155523052Y-97609946D01*
X155927731Y-97621143D01*
X156059238Y-97621956D01*
X156366558Y-97607647D01*
X156619307Y-97576420D01*
X156763595Y-97553547D01*
X156876682Y-97565184D01*
X156906205Y-97637399D01*
X156897214Y-97692253D01*
X156820120Y-97782992D01*
X156787869Y-97804266D01*
X156763079Y-97929269D01*
X156816228Y-98126613D01*
X156935116Y-98361628D01*
X157107540Y-98599643D01*
X157212874Y-98731301D01*
X157296973Y-98863462D01*
X157297247Y-98914638D01*
X157292542Y-98914423D01*
X157173784Y-98851575D01*
X157007490Y-98703996D01*
X156830110Y-98511121D01*
X156678094Y-98312383D01*
X156587894Y-98147218D01*
X156542539Y-98053160D01*
X156353647Y-97898039D01*
X156051304Y-97844599D01*
X156036811Y-97844886D01*
X155968681Y-97876507D01*
X155946863Y-97985830D01*
X155962514Y-98209158D01*
X155974892Y-98386676D01*
X155950221Y-98586947D01*
X155861090Y-98736627D01*
X155831066Y-98769472D01*
X155593155Y-98928030D01*
X155337130Y-98935955D01*
X155075109Y-98792388D01*
X154838929Y-98593655D01*
X154701101Y-98763865D01*
X154639472Y-98827086D01*
X154459473Y-98890677D01*
X154255569Y-98803345D01*
X154028097Y-98565189D01*
X153974752Y-98498185D01*
X153844267Y-98358294D01*
X153760377Y-98302590D01*
X153736098Y-98328387D01*
X153705082Y-98466888D01*
X153692952Y-98685120D01*
X153692030Y-98752454D01*
X153666997Y-98974657D01*
X153614929Y-99056179D01*
X153545474Y-98992913D01*
X153468279Y-98780753D01*
X153461692Y-98757322D01*
X153369736Y-98511258D01*
X153260540Y-98308601D01*
X153176640Y-98197460D01*
X153121161Y-98177508D01*
X153074647Y-98270348D01*
X153050269Y-98378484D01*
X153056549Y-98582858D01*
X153058020Y-98668375D01*
X152977524Y-98852191D01*
X152825379Y-99004285D01*
X152649455Y-99067650D01*
X152567021Y-99048048D01*
X152377627Y-98964688D01*
X152151017Y-98838132D01*
X151989510Y-98741306D01*
X151817998Y-98645635D01*
X151733871Y-98608614D01*
X151720327Y-98629354D01*
X151706232Y-98760356D01*
X151709326Y-98972018D01*
X151713776Y-99068385D01*
X151719901Y-99337969D01*
X151716353Y-99545813D01*
X151683272Y-99687631D01*
X151589036Y-99756204D01*
X151544839Y-99745194D01*
X151490402Y-99646678D01*
X151474277Y-99424258D01*
X151474224Y-99417928D01*
X151448563Y-99211459D01*
X151382622Y-98903018D01*
X151286094Y-98533245D01*
X151168671Y-98142782D01*
X151149827Y-98084070D01*
X151037735Y-97727633D01*
X150946541Y-97425613D01*
X150885195Y-97208328D01*
X150862647Y-97106096D01*
X150856678Y-97067087D01*
X150765873Y-96910472D01*
X150606751Y-96757305D01*
X150432486Y-96662430D01*
X150385522Y-96650942D01*
X150306190Y-96664040D01*
X150261218Y-96762861D01*
X150229208Y-96980932D01*
X150222187Y-97099668D01*
X150240090Y-97357591D01*
X150291838Y-97597558D01*
X150365874Y-97774552D01*
X150450644Y-97843554D01*
X150519195Y-97813564D01*
X150647621Y-97715301D01*
X150753961Y-97635764D01*
X150846313Y-97624993D01*
X150866448Y-97719516D01*
X150812845Y-97901098D01*
X150683986Y-98151501D01*
X150606770Y-98272151D01*
X150355726Y-98550775D01*
X150056992Y-98705234D01*
X149674262Y-98757308D01*
X149491313Y-98795783D01*
X149313401Y-98912542D01*
X149124722Y-99058026D01*
X148884843Y-99123150D01*
X148668222Y-99076880D01*
X148620867Y-99048657D01*
X148574061Y-99004085D01*
X148659081Y-98993471D01*
X148783933Y-98972551D01*
X148963130Y-98910038D01*
X149115020Y-98831887D01*
X149179096Y-98764715D01*
X149175259Y-98755105D01*
X149084258Y-98693259D01*
X148910134Y-98618600D01*
X148682715Y-98485833D01*
X148489351Y-98223749D01*
X148426322Y-98091133D01*
X148360542Y-97916216D01*
X148343424Y-97814738D01*
X148376988Y-97809848D01*
X148463255Y-97924699D01*
X148592982Y-98084625D01*
X148802719Y-98265441D01*
X149023656Y-98401741D01*
X149202957Y-98455602D01*
X149301950Y-98411811D01*
X149325030Y-98271485D01*
X149249404Y-98061490D01*
X149209119Y-97954673D01*
X149217406Y-97856248D01*
X149218689Y-97855003D01*
X149296130Y-97861403D01*
X149383737Y-97970511D01*
X149455427Y-98137417D01*
X149485120Y-98317213D01*
X149485415Y-98346142D01*
X149505622Y-98468795D01*
X149579209Y-98519427D01*
X149736311Y-98504603D01*
X150007064Y-98430885D01*
X150110169Y-98396200D01*
X150335236Y-98282102D01*
X150456525Y-98158271D01*
X150460365Y-98044440D01*
X150333081Y-97960342D01*
X150259245Y-97919370D01*
X150131839Y-97733736D01*
X150049742Y-97432424D01*
X150020662Y-97038192D01*
X150024917Y-96901656D01*
X150080492Y-96636199D01*
X150209989Y-96499826D01*
X150425514Y-96484882D01*
X150739173Y-96583707D01*
X150829171Y-96608301D01*
X150859080Y-96553583D01*
X150836594Y-96383154D01*
X150813578Y-96249308D01*
X150748431Y-95639953D01*
X150753675Y-95423856D01*
X150974423Y-95423856D01*
X150978590Y-95832246D01*
X151003602Y-96201784D01*
X151051554Y-96504698D01*
X151096585Y-96706579D01*
X151161636Y-97020058D01*
X151208005Y-97269759D01*
X151218285Y-97325947D01*
X151274709Y-97537612D01*
X151337479Y-97671415D01*
X151425611Y-97752422D01*
X151499198Y-97734604D01*
X151543050Y-97583117D01*
X151562506Y-97288885D01*
X151564941Y-97047050D01*
X151556307Y-96551081D01*
X151533767Y-95991178D01*
X151499999Y-95410728D01*
X151457684Y-94853123D01*
X151409502Y-94361750D01*
X151358132Y-93980000D01*
X151343153Y-93886237D01*
X151326950Y-93769608D01*
X151326707Y-93767544D01*
X151262153Y-93712229D01*
X151192963Y-93771205D01*
X151124320Y-93957253D01*
X151066050Y-94243315D01*
X151020248Y-94601618D01*
X150989007Y-95004390D01*
X150974423Y-95423856D01*
X150753675Y-95423856D01*
X150762719Y-95051159D01*
X150857227Y-94407740D01*
X150903407Y-94176869D01*
X150967587Y-93879653D01*
X151020531Y-93661624D01*
X151053983Y-93558425D01*
X151163984Y-93487357D01*
X151319763Y-93512020D01*
X151452350Y-93629043D01*
X151467454Y-93660253D01*
X151517522Y-93851050D01*
X151568316Y-94159107D01*
X151617594Y-94557202D01*
X151663112Y-95018112D01*
X151702628Y-95514615D01*
X151733898Y-96019488D01*
X151754681Y-96505508D01*
X151762732Y-96945453D01*
X151760813Y-97047050D01*
X151755808Y-97312100D01*
X151714059Y-98196008D01*
G37*
G36*
X148414036Y-98799879D02*
G01*
X148375783Y-98838132D01*
X148337530Y-98799879D01*
X148375783Y-98761626D01*
X148414036Y-98799879D01*
G37*
G36*
X174898755Y-98930094D02*
G01*
X174894573Y-98941502D01*
X174882312Y-98957321D01*
X174824240Y-99135493D01*
X174871751Y-99306649D01*
X174920103Y-99342093D01*
X175009254Y-99407444D01*
X175063185Y-99428806D01*
X175216620Y-99540567D01*
X175377913Y-99706413D01*
X175516147Y-99887823D01*
X175600405Y-100046273D01*
X175599770Y-100143241D01*
X175517344Y-100136368D01*
X175348603Y-100027632D01*
X175114056Y-99825101D01*
X174699452Y-99435850D01*
X174619970Y-99653407D01*
X174586315Y-99740236D01*
X174445615Y-100044365D01*
X174283853Y-100332999D01*
X174136251Y-100541473D01*
X174104181Y-100574318D01*
X173944201Y-100644271D01*
X173753579Y-100583158D01*
X173524826Y-100386833D01*
X173250455Y-100051151D01*
X173238155Y-100034795D01*
X173088745Y-99904539D01*
X172906178Y-99893735D01*
X172781775Y-99901783D01*
X172761414Y-99869335D01*
X172778879Y-99836118D01*
X172750062Y-99724991D01*
X172721049Y-99669520D01*
X172650816Y-99482557D01*
X172559037Y-99203255D01*
X172455747Y-98865682D01*
X172350982Y-98503905D01*
X172254778Y-98151994D01*
X172177172Y-97844014D01*
X172128200Y-97614036D01*
X172078121Y-97298028D01*
X172027372Y-96919346D01*
X172018400Y-96840920D01*
X172210272Y-96840920D01*
X172242191Y-96919865D01*
X172263058Y-96985520D01*
X172295155Y-97172230D01*
X172322622Y-97421080D01*
X172342397Y-97597248D01*
X172385293Y-97837667D01*
X172432756Y-97988771D01*
X172435110Y-97993323D01*
X172489396Y-98141065D01*
X172559615Y-98385226D01*
X172631196Y-98675386D01*
X172677881Y-98868994D01*
X172750457Y-99092417D01*
X172850941Y-99278315D01*
X173007132Y-99474196D01*
X173246825Y-99727569D01*
X173358448Y-99843567D01*
X173552986Y-100054708D01*
X173687378Y-100213141D01*
X173737530Y-100291191D01*
X173794934Y-100373039D01*
X173918875Y-100396506D01*
X174028399Y-100344579D01*
X174121886Y-100201564D01*
X174228649Y-99999687D01*
X174314413Y-99805858D01*
X174349578Y-99681207D01*
X174345903Y-99668970D01*
X174270156Y-99676769D01*
X174127333Y-99762924D01*
X174096986Y-99784349D01*
X173932307Y-99868479D01*
X173821309Y-99875459D01*
X173763495Y-99827305D01*
X173755210Y-99730958D01*
X173887695Y-99658275D01*
X173946087Y-99626375D01*
X174078864Y-99483363D01*
X174191524Y-99297168D01*
X174370614Y-99297168D01*
X174387640Y-99385746D01*
X174437850Y-99450180D01*
X174480665Y-99438610D01*
X174551246Y-99342093D01*
X174540843Y-99220662D01*
X174480724Y-99156286D01*
X174398636Y-99167089D01*
X174370614Y-99297168D01*
X174191524Y-99297168D01*
X174205209Y-99274550D01*
X174372559Y-98930094D01*
X174200757Y-98672819D01*
X174587887Y-98672819D01*
X174640301Y-98776927D01*
X174658992Y-98794501D01*
X174716680Y-98806723D01*
X174732108Y-98685120D01*
X174731550Y-98648297D01*
X174708817Y-98555654D01*
X174640301Y-98593313D01*
X174587887Y-98672819D01*
X174200757Y-98672819D01*
X174049413Y-98446179D01*
X174018057Y-98399693D01*
X173801312Y-98115300D01*
X173588260Y-97920349D01*
X173330242Y-97769023D01*
X173165766Y-97678803D01*
X173007242Y-97561255D01*
X172955239Y-97474464D01*
X172956707Y-97432492D01*
X172904286Y-97417627D01*
X172856104Y-97410928D01*
X172729044Y-97319332D01*
X172569901Y-97155543D01*
X172521088Y-97099881D01*
X172372740Y-96947483D01*
X172261462Y-96855644D01*
X172210272Y-96840920D01*
X172018400Y-96840920D01*
X171983371Y-96534710D01*
X171949097Y-96175604D01*
X171927530Y-95873515D01*
X171921649Y-95659928D01*
X171934434Y-95566329D01*
X172006087Y-95564568D01*
X172097971Y-95661800D01*
X172175059Y-95817709D01*
X172207409Y-95986236D01*
X172208757Y-96025680D01*
X172280870Y-96329451D01*
X172445490Y-96668588D01*
X172678488Y-96991600D01*
X172823800Y-97145401D01*
X173029299Y-97333474D01*
X173227378Y-97489553D01*
X173384781Y-97587903D01*
X173468254Y-97602789D01*
X173469643Y-97552445D01*
X173430044Y-97392592D01*
X173353184Y-97168745D01*
X173310706Y-97048421D01*
X173226017Y-96704436D01*
X173205502Y-96410621D01*
X173206741Y-96403898D01*
X173437440Y-96403898D01*
X173445131Y-96594372D01*
X173512737Y-96859363D01*
X173636205Y-97170643D01*
X173741645Y-97382957D01*
X173840580Y-97550027D01*
X173901285Y-97614036D01*
X173931235Y-97606183D01*
X174021270Y-97500241D01*
X174091645Y-97311925D01*
X174120060Y-97094225D01*
X174080597Y-96942224D01*
X173965362Y-96734938D01*
X173808950Y-96530906D01*
X173646499Y-96375336D01*
X173513149Y-96313433D01*
X173493716Y-96316167D01*
X173437440Y-96403898D01*
X173206741Y-96403898D01*
X173246082Y-96190423D01*
X173344677Y-96067288D01*
X173498208Y-96064663D01*
X173711172Y-96171238D01*
X173977493Y-96409106D01*
X174164973Y-96708940D01*
X174260048Y-97036376D01*
X174258083Y-97094225D01*
X174249154Y-97357052D01*
X174118726Y-97636608D01*
X173964380Y-97832827D01*
X174137853Y-98096465D01*
X174166098Y-98139443D01*
X174301060Y-98345918D01*
X174402998Y-98503485D01*
X174416099Y-98523491D01*
X174494906Y-98598913D01*
X174565177Y-98543707D01*
X174625668Y-98492643D01*
X174779529Y-98467982D01*
X174824352Y-98484211D01*
X174924551Y-98605399D01*
X174937722Y-98685120D01*
X174953514Y-98780702D01*
X174898755Y-98930094D01*
G37*
G36*
X154458012Y-96428192D02*
G01*
X154419759Y-96466445D01*
X154381506Y-96428192D01*
X154419759Y-96389939D01*
X154458012Y-96428192D01*
G37*
G36*
X148583997Y-97693460D02*
G01*
X148681807Y-97767048D01*
X148689004Y-97806464D01*
X148609816Y-97843554D01*
X148552815Y-97834191D01*
X148490542Y-97767048D01*
X148492603Y-97748896D01*
X148562533Y-97690542D01*
X148583997Y-97693460D01*
G37*
G36*
X159679150Y-96734855D02*
G01*
X159687090Y-97444403D01*
X159692219Y-98019779D01*
X159694316Y-98475513D01*
X159693165Y-98826137D01*
X159688545Y-99086182D01*
X159680241Y-99270178D01*
X159668032Y-99392656D01*
X159651701Y-99468147D01*
X159631029Y-99511181D01*
X159588051Y-99552729D01*
X159514163Y-99546018D01*
X159500186Y-99530420D01*
X159382386Y-99440135D01*
X159201385Y-99326349D01*
X159091091Y-99257534D01*
X158779547Y-99022120D01*
X158473317Y-98741880D01*
X158214609Y-98457585D01*
X158045634Y-98210005D01*
X157961410Y-98023522D01*
X157907370Y-97757962D01*
X157975523Y-97534788D01*
X158171216Y-97315937D01*
X158301158Y-97211650D01*
X158516114Y-97106315D01*
X158778749Y-97078494D01*
X158884121Y-97080873D01*
X159085188Y-97108400D01*
X159147760Y-97156291D01*
X159067406Y-97211325D01*
X158839694Y-97260283D01*
X158571699Y-97326490D01*
X158271522Y-97510574D01*
X158061516Y-97711772D01*
X158217028Y-98016601D01*
X158229400Y-98040113D01*
X158388616Y-98280931D01*
X158606977Y-98542495D01*
X158854490Y-98796027D01*
X159101160Y-99012751D01*
X159316994Y-99163888D01*
X159471998Y-99220662D01*
X159477317Y-99216353D01*
X159491532Y-99115048D01*
X159492573Y-98906641D01*
X159479950Y-98627741D01*
X159479671Y-98623439D01*
X159459661Y-98276780D01*
X159444039Y-97936626D01*
X159436164Y-97676030D01*
X159429152Y-97522320D01*
X159397058Y-97377068D01*
X159318617Y-97237320D01*
X159172143Y-97066276D01*
X158935954Y-96827138D01*
X158595396Y-96449540D01*
X158340235Y-96073447D01*
X158194569Y-95732471D01*
X158176897Y-95573380D01*
X158382697Y-95573380D01*
X158448277Y-95835355D01*
X158604583Y-96140379D01*
X158841340Y-96460659D01*
X158885162Y-96511585D01*
X159093239Y-96743212D01*
X159236443Y-96864833D01*
X159327883Y-96867848D01*
X159380671Y-96743655D01*
X159407916Y-96483653D01*
X159422728Y-96079242D01*
X159429071Y-95777830D01*
X159422872Y-95572050D01*
X159395038Y-95452373D01*
X159337154Y-95384293D01*
X159240807Y-95333308D01*
X159102653Y-95284198D01*
X158834935Y-95246173D01*
X158592992Y-95271909D01*
X158434310Y-95359536D01*
X158418117Y-95382250D01*
X158382697Y-95573380D01*
X158176897Y-95573380D01*
X158162097Y-95440144D01*
X158246519Y-95209995D01*
X158451535Y-95055556D01*
X158577743Y-95009871D01*
X158775707Y-94980207D01*
X159011047Y-95007072D01*
X159335271Y-95092627D01*
X159660421Y-95190063D01*
X159667559Y-95777830D01*
X159676300Y-96497682D01*
X159679150Y-96734855D01*
G37*
G36*
X158367969Y-98900239D02*
G01*
X158403910Y-98968101D01*
X158304049Y-99060622D01*
X158220766Y-99105568D01*
X158094833Y-99135588D01*
X158015542Y-99067650D01*
X157958739Y-99023615D01*
X157807011Y-98991144D01*
X157776988Y-98990752D01*
X157679297Y-98974540D01*
X157705881Y-98942505D01*
X157834436Y-98905645D01*
X158042661Y-98874956D01*
X158212895Y-98868877D01*
X158367969Y-98900239D01*
G37*
X96139000Y-140044200D02*
X80391000Y-140044200D01*
X82702400Y-154623800D02*
X81534000Y-154623800D01*
X88265000Y-152337800D02*
X88265000Y-153480800D01*
X96139000Y-152337800D02*
X96139000Y-140044200D01*
X90551000Y-154623800D02*
X93827600Y-154623800D01*
X80391000Y-156909800D02*
X80391000Y-164656800D01*
X96139000Y-152363200D02*
X96139000Y-153455400D01*
X85979000Y-154623800D02*
X87122000Y-154623800D01*
X96139000Y-164656800D02*
X96139000Y-156909800D01*
X88290400Y-164656800D02*
X88290400Y-155766800D01*
X96139000Y-164682200D02*
X80391000Y-164682200D01*
X80391000Y-152337800D02*
X80391000Y-140044200D01*
X80391000Y-156935200D02*
X80391000Y-155766800D01*
X96139000Y-155766800D02*
X96139000Y-156986000D01*
X94996000Y-154623800D02*
X93827600Y-154623800D01*
X90551000Y-154623800D02*
X89408000Y-154623800D01*
X80391000Y-152312400D02*
X80391000Y-153506200D01*
X88265000Y-152337800D02*
X88265000Y-140044200D01*
X85979000Y-154623800D02*
X82677000Y-154623800D01*
X94996000Y-154623800D02*
G75*
G03*
X96139000Y-155766800I1143000J0D01*
G01*
X81508600Y-154623800D02*
G75*
G03*
X80391000Y-153506200I-1117598J2D01*
G01*
X80391000Y-155741400D02*
G75*
G03*
X81508600Y-154623800I2J1117598D01*
G01*
X96139000Y-153480800D02*
G75*
G03*
X94996000Y-154623800I0J-1143000D01*
G01*
X89408000Y-154623800D02*
G75*
G03*
X89408000Y-154623800I-1143000J0D01*
G01*
X59563000Y-152337800D02*
X59563000Y-140044200D01*
X51714400Y-164656800D02*
X51714400Y-155766800D01*
X53975000Y-154623800D02*
X52832000Y-154623800D01*
X43815000Y-156935200D02*
X43815000Y-155766800D01*
X43815000Y-152337800D02*
X43815000Y-140044200D01*
X43815000Y-156909800D02*
X43815000Y-164656800D01*
X58420000Y-154623800D02*
X57251600Y-154623800D01*
X59563000Y-155766800D02*
X59563000Y-156986000D01*
X59563000Y-152363200D02*
X59563000Y-153455400D01*
X43815000Y-152312400D02*
X43815000Y-153506200D01*
X53975000Y-154623800D02*
X57251600Y-154623800D01*
X59563000Y-164682200D02*
X43815000Y-164682200D01*
X49403000Y-154623800D02*
X50546000Y-154623800D01*
X46126400Y-154623800D02*
X44958000Y-154623800D01*
X59563000Y-164656800D02*
X59563000Y-156909800D01*
X51689000Y-152337800D02*
X51689000Y-140044200D01*
X59563000Y-140044200D02*
X43815000Y-140044200D01*
X51689000Y-152337800D02*
X51689000Y-153480800D01*
X49403000Y-154623800D02*
X46101000Y-154623800D01*
X44932600Y-154623800D02*
G75*
G03*
X43815000Y-153506200I-1117598J2D01*
G01*
X58420000Y-154623800D02*
G75*
G03*
X59563000Y-155766800I1143000J0D01*
G01*
X59563000Y-153480800D02*
G75*
G03*
X58420000Y-154623800I0J-1143000D01*
G01*
X43815000Y-155741400D02*
G75*
G03*
X44932600Y-154623800I2J1117598D01*
G01*
X52832000Y-154623800D02*
G75*
G03*
X52832000Y-154623800I-1143000J0D01*
G01*
G36*
X165456984Y-125408033D02*
G01*
X166129392Y-125467490D01*
X166186988Y-125472552D01*
X166595668Y-125505391D01*
X166920368Y-125522597D01*
X167176047Y-125521563D01*
X167377665Y-125499685D01*
X167540178Y-125454355D01*
X167678546Y-125382968D01*
X167807726Y-125282919D01*
X167942677Y-125151601D01*
X167998870Y-125094687D01*
X168125781Y-124984326D01*
X168233286Y-124931042D01*
X168352199Y-124917200D01*
X168535126Y-124954854D01*
X168694835Y-125070394D01*
X168786812Y-125244500D01*
X168794163Y-125313183D01*
X168750750Y-125492183D01*
X168635171Y-125691705D01*
X168460677Y-125895116D01*
X168240520Y-126085789D01*
X167987951Y-126247091D01*
X167915817Y-126283515D01*
X167832382Y-126315953D01*
X167734745Y-126338386D01*
X167605427Y-126352615D01*
X167426949Y-126360442D01*
X167181833Y-126363668D01*
X166852600Y-126364095D01*
X166596849Y-126362480D01*
X166308946Y-126357308D01*
X166062272Y-126349257D01*
X165876949Y-126339014D01*
X165773100Y-126327265D01*
X165770389Y-126326675D01*
X165659658Y-126309970D01*
X165615786Y-126341014D01*
X165608000Y-126441006D01*
X165621846Y-126513332D01*
X165699063Y-126686977D01*
X165842820Y-126932028D01*
X166051701Y-127246463D01*
X166324292Y-127628263D01*
X166659179Y-128075406D01*
X167054945Y-128585871D01*
X167510176Y-129157638D01*
X167945466Y-129682104D01*
X168487660Y-130290557D01*
X169019934Y-130839367D01*
X169538504Y-131326402D01*
X170039590Y-131749530D01*
X170519408Y-132106619D01*
X170974177Y-132395537D01*
X171400113Y-132614151D01*
X171793435Y-132760331D01*
X172150361Y-132831944D01*
X172467108Y-132826858D01*
X172739893Y-132742942D01*
X172964935Y-132578063D01*
X173138452Y-132330089D01*
X173210906Y-132155133D01*
X173284915Y-131912396D01*
X173335407Y-131673600D01*
X173345661Y-131596573D01*
X173367871Y-131252113D01*
X173365413Y-130840811D01*
X173340060Y-130387274D01*
X173293581Y-129916107D01*
X173227750Y-129451913D01*
X173144336Y-129019300D01*
X173120454Y-128914149D01*
X173083291Y-128777457D01*
X173043964Y-128706791D01*
X172986671Y-128680367D01*
X172895609Y-128676400D01*
X172727704Y-128660569D01*
X172416467Y-128564418D01*
X172082703Y-128389114D01*
X171736619Y-128143976D01*
X171388426Y-127838319D01*
X171048333Y-127481461D01*
X170726547Y-127082720D01*
X170433278Y-126651412D01*
X170178734Y-126196854D01*
X170085276Y-125998259D01*
X169952254Y-125630259D01*
X169888856Y-125284077D01*
X169888757Y-125098383D01*
X170752671Y-125098383D01*
X170775002Y-125268603D01*
X170824090Y-125465984D01*
X170895892Y-125664744D01*
X171015722Y-125905642D01*
X171212090Y-126228328D01*
X171447528Y-126563153D01*
X171701292Y-126880913D01*
X171952634Y-127152400D01*
X171955799Y-127155502D01*
X172144140Y-127329911D01*
X172330898Y-127485567D01*
X172501508Y-127612385D01*
X172641405Y-127700279D01*
X172736024Y-127739163D01*
X172770800Y-127718952D01*
X172755676Y-127658191D01*
X172704647Y-127521026D01*
X172627140Y-127334341D01*
X172533108Y-127120666D01*
X172432502Y-126902532D01*
X172335273Y-126702466D01*
X172251373Y-126543000D01*
X172226852Y-126499752D01*
X172030685Y-126179522D01*
X171820100Y-125874752D01*
X171604550Y-125595724D01*
X171393491Y-125352718D01*
X171196376Y-125156015D01*
X171022660Y-125015895D01*
X170881797Y-124942640D01*
X170783241Y-124946530D01*
X170761141Y-124981106D01*
X170752671Y-125098383D01*
X169888757Y-125098383D01*
X169888668Y-124931735D01*
X169931520Y-124675071D01*
X170048374Y-124405290D01*
X170232709Y-124210814D01*
X170482889Y-124093223D01*
X170797278Y-124054096D01*
X170878588Y-124056779D01*
X171168119Y-124111067D01*
X171453097Y-124239581D01*
X171741949Y-124448096D01*
X172043106Y-124742388D01*
X172364994Y-125128229D01*
X172643917Y-125513393D01*
X173091269Y-126253447D01*
X173460375Y-127037492D01*
X173676675Y-127568236D01*
X173769838Y-127425517D01*
X173805993Y-127347626D01*
X173848545Y-127148888D01*
X173867138Y-126886991D01*
X173862455Y-126584234D01*
X173835179Y-126262916D01*
X173785993Y-125945339D01*
X173715580Y-125653800D01*
X173705939Y-125622093D01*
X173580838Y-125272471D01*
X173403341Y-124855068D01*
X173180580Y-124382589D01*
X172919683Y-123867742D01*
X172627780Y-123323234D01*
X172312001Y-122761771D01*
X171979477Y-122196061D01*
X171637337Y-121638810D01*
X171292710Y-121102725D01*
X170952727Y-120600513D01*
X170624518Y-120144882D01*
X170478784Y-119956376D01*
X170250508Y-119679369D01*
X169997616Y-119389112D01*
X169729218Y-119094612D01*
X169454426Y-118804876D01*
X169182352Y-118528910D01*
X168922108Y-118275719D01*
X168682805Y-118054311D01*
X168473555Y-117873691D01*
X168303471Y-117742866D01*
X168181662Y-117670841D01*
X168117242Y-117666624D01*
X168110635Y-117706648D01*
X168120324Y-117822817D01*
X168147911Y-117982568D01*
X168162568Y-118045905D01*
X168211459Y-118191558D01*
X168289644Y-118345617D01*
X168409687Y-118530744D01*
X168584149Y-118769603D01*
X168695467Y-118919460D01*
X168826368Y-119107330D01*
X168907638Y-119246750D01*
X168949156Y-119355611D01*
X168960800Y-119451806D01*
X168951794Y-119542653D01*
X168874081Y-119714230D01*
X168735727Y-119829031D01*
X168559928Y-119872247D01*
X168369881Y-119829067D01*
X168366294Y-119827239D01*
X168278974Y-119757011D01*
X168150098Y-119623844D01*
X167996449Y-119446141D01*
X167834807Y-119242306D01*
X167832119Y-119238763D01*
X167583390Y-118885173D01*
X167408144Y-118569537D01*
X167298219Y-118269647D01*
X167245455Y-117963294D01*
X167241691Y-117628270D01*
X167263546Y-117401595D01*
X167321811Y-117192245D01*
X167428161Y-117027520D01*
X167596737Y-116877518D01*
X167762707Y-116791223D01*
X168016186Y-116751414D01*
X168300470Y-116788175D01*
X168598654Y-116898856D01*
X168893834Y-117080809D01*
X169245241Y-117362124D01*
X169777349Y-117846478D01*
X170321540Y-118407271D01*
X170866379Y-119032510D01*
X171400431Y-119710200D01*
X171504447Y-119849803D01*
X171716207Y-120141139D01*
X171915636Y-120427524D01*
X172112805Y-120724698D01*
X172317783Y-121048404D01*
X172540641Y-121414382D01*
X172791449Y-121838375D01*
X173080277Y-122336124D01*
X173260165Y-122650522D01*
X173594407Y-123251200D01*
X173876441Y-123785219D01*
X174110898Y-124263405D01*
X174302412Y-124696586D01*
X174455616Y-125095588D01*
X174575141Y-125471240D01*
X174665621Y-125834368D01*
X174731687Y-126195799D01*
X174751764Y-126339780D01*
X174785872Y-126826159D01*
X174754342Y-127247000D01*
X174654320Y-127614067D01*
X174599025Y-127718952D01*
X174482952Y-127939125D01*
X174237387Y-128233941D01*
X173942496Y-128528832D01*
X174038460Y-128996316D01*
X174089389Y-129267559D01*
X174162881Y-129774446D01*
X174213509Y-130293016D01*
X174240336Y-130801373D01*
X174242429Y-131277621D01*
X174218852Y-131699864D01*
X174168670Y-132046207D01*
X174045230Y-132476096D01*
X173848252Y-132883896D01*
X173590978Y-133214903D01*
X173276205Y-133465601D01*
X172906732Y-133632473D01*
X172895728Y-133635816D01*
X172668672Y-133678856D01*
X172382702Y-133698931D01*
X172075539Y-133696281D01*
X171784900Y-133671148D01*
X171548504Y-133623774D01*
X171412788Y-133578305D01*
X171106124Y-133450593D01*
X170764028Y-133282371D01*
X170415642Y-133088430D01*
X170090109Y-132883560D01*
X169659599Y-132576764D01*
X169133227Y-132155474D01*
X168603438Y-131678739D01*
X168062761Y-131139034D01*
X167503727Y-130528837D01*
X166918867Y-129840624D01*
X166300710Y-129066872D01*
X166282073Y-129042968D01*
X166137981Y-128861573D01*
X166020645Y-128719744D01*
X165941706Y-128631203D01*
X165912808Y-128609672D01*
X165913906Y-128622229D01*
X165925941Y-128717944D01*
X165949574Y-128893080D01*
X165982711Y-129132454D01*
X166023261Y-129420887D01*
X166069128Y-129743200D01*
X166134607Y-130224543D01*
X166189207Y-130697686D01*
X166221302Y-131089804D01*
X166231145Y-131410523D01*
X166218989Y-131669469D01*
X166185089Y-131876267D01*
X166129698Y-132040545D01*
X166055315Y-132172895D01*
X165867783Y-132363642D01*
X165625143Y-132481429D01*
X165337287Y-132526507D01*
X165014112Y-132499127D01*
X164665509Y-132399540D01*
X164301374Y-132227997D01*
X163931600Y-131984749D01*
X163862364Y-131930311D01*
X163653452Y-131750723D01*
X163399626Y-131516511D01*
X163116595Y-131243029D01*
X162820071Y-130945634D01*
X162525765Y-130639683D01*
X162249388Y-130340532D01*
X162246891Y-130337766D01*
X162092220Y-130170485D01*
X161965651Y-130041326D01*
X161880179Y-129963017D01*
X161848800Y-129948281D01*
X161866096Y-130007082D01*
X161918911Y-130132011D01*
X161994855Y-130290748D01*
X162109259Y-130535465D01*
X162227123Y-130827245D01*
X162321761Y-131105100D01*
X162384734Y-131343921D01*
X162407600Y-131518599D01*
X162407355Y-131537438D01*
X162361387Y-131745094D01*
X162238351Y-131887592D01*
X162041657Y-131960809D01*
X162021007Y-131963753D01*
X161894082Y-131960527D01*
X161780707Y-131910169D01*
X161672754Y-131802521D01*
X161562094Y-131627426D01*
X161440596Y-131374725D01*
X161300132Y-131034262D01*
X161297048Y-131026441D01*
X161177768Y-130737193D01*
X161046404Y-130439511D01*
X160918687Y-130167988D01*
X160810348Y-129957214D01*
X160737127Y-129824172D01*
X160465691Y-129315038D01*
X160241772Y-128862942D01*
X160056476Y-128446918D01*
X159900912Y-128045998D01*
X159766188Y-127639216D01*
X159643412Y-127205605D01*
X159544974Y-126864735D01*
X159420094Y-126528841D01*
X159277082Y-126253640D01*
X159103992Y-126016817D01*
X158888878Y-125796054D01*
X158856439Y-125767499D01*
X158635895Y-125616927D01*
X158389033Y-125505916D01*
X158147638Y-125446125D01*
X157943494Y-125449217D01*
X157920615Y-125455091D01*
X157745211Y-125551885D01*
X157580557Y-125726517D01*
X157446546Y-125958600D01*
X157420375Y-126039735D01*
X157384482Y-126244125D01*
X157357519Y-126522518D01*
X157339770Y-126857995D01*
X157331516Y-127233640D01*
X157333040Y-127632533D01*
X157344626Y-128037757D01*
X157366554Y-128432393D01*
X157399109Y-128799522D01*
X157430917Y-129107810D01*
X157466647Y-129551068D01*
X157478433Y-129908163D01*
X157464235Y-130187435D01*
X157422012Y-130397225D01*
X157349723Y-130545876D01*
X157245327Y-130641728D01*
X157106784Y-130693122D01*
X156932053Y-130708400D01*
X156899586Y-130707763D01*
X156743351Y-130683465D01*
X156594036Y-130618332D01*
X156445386Y-130504673D01*
X156291146Y-130334795D01*
X156125059Y-130101009D01*
X155940870Y-129795621D01*
X155732324Y-129410942D01*
X155493164Y-128939280D01*
X155412341Y-128777001D01*
X155272164Y-128499673D01*
X155150218Y-128263677D01*
X155053096Y-128081504D01*
X154987390Y-127965640D01*
X154959691Y-127928576D01*
X154958774Y-127929783D01*
X154934975Y-127992189D01*
X154890198Y-128131200D01*
X154830508Y-128327408D01*
X154761967Y-128561407D01*
X154754114Y-128588571D01*
X154552308Y-129214329D01*
X154338751Y-129742084D01*
X154113848Y-130171065D01*
X153878002Y-130500497D01*
X153631613Y-130729610D01*
X153483615Y-130828108D01*
X153298619Y-130925350D01*
X153102089Y-130992077D01*
X152871617Y-131033561D01*
X152584798Y-131055074D01*
X152219224Y-131061887D01*
X152203227Y-131061936D01*
X151917690Y-131064231D01*
X151706237Y-131071542D01*
X151542616Y-131087650D01*
X151400575Y-131116340D01*
X151253862Y-131161393D01*
X151076224Y-131226592D01*
X150912564Y-131286917D01*
X150761410Y-131334372D01*
X150618093Y-131364330D01*
X150455256Y-131380781D01*
X150245544Y-131387713D01*
X149961600Y-131389115D01*
X149626726Y-131381515D01*
X149136019Y-131334156D01*
X148694094Y-131239185D01*
X148273160Y-131091708D01*
X148177795Y-131054472D01*
X148097543Y-131045871D01*
X148022114Y-131088173D01*
X147913344Y-131192016D01*
X147798247Y-131294314D01*
X147676488Y-131353763D01*
X147523423Y-131368800D01*
X147359947Y-131349599D01*
X147162938Y-131263880D01*
X147062548Y-131172474D01*
X146918703Y-130985003D01*
X146792200Y-130761586D01*
X146706258Y-130539075D01*
X146701353Y-130521772D01*
X146671752Y-130445543D01*
X146622141Y-130385823D01*
X146533556Y-130330075D01*
X146387031Y-130265764D01*
X146163601Y-130180352D01*
X146055920Y-130141043D01*
X145836354Y-130064601D01*
X145600702Y-129986128D01*
X145371364Y-129912728D01*
X145170744Y-129851504D01*
X145021243Y-129809560D01*
X144945262Y-129794000D01*
X144943469Y-129797955D01*
X144937829Y-129869058D01*
X144933885Y-130010888D01*
X144932400Y-130199371D01*
X144932394Y-130206078D01*
X144906903Y-130572357D01*
X144832067Y-130849972D01*
X144707924Y-131038866D01*
X144534511Y-131138980D01*
X144311867Y-131150256D01*
X144284413Y-131145906D01*
X144128648Y-131100061D01*
X144013850Y-131034843D01*
X143971494Y-130989868D01*
X143856766Y-130814415D01*
X143735996Y-130563213D01*
X143616996Y-130253717D01*
X143507576Y-129903383D01*
X143371799Y-129417732D01*
X143148800Y-129347524D01*
X143047748Y-129314129D01*
X142855002Y-129247285D01*
X142620750Y-129163802D01*
X142375306Y-129074384D01*
X142169064Y-128999912D01*
X141987166Y-128937434D01*
X141861778Y-128898082D01*
X141812174Y-128888227D01*
X141808618Y-128898011D01*
X141788316Y-128983166D01*
X141756412Y-129135036D01*
X141718059Y-129329468D01*
X141642685Y-129634682D01*
X141466428Y-130102436D01*
X141227492Y-130555836D01*
X140938366Y-130977433D01*
X140611539Y-131349777D01*
X140259500Y-131655420D01*
X139894738Y-131876913D01*
X139631733Y-131973010D01*
X139298482Y-132029790D01*
X138975534Y-132021361D01*
X138695069Y-131945874D01*
X138466321Y-131886006D01*
X138150600Y-131872823D01*
X138143718Y-131873009D01*
X137701358Y-131835948D01*
X137267952Y-131708525D01*
X136873551Y-131499525D01*
X136612502Y-131322911D01*
X136517951Y-131427546D01*
X136347247Y-131570460D01*
X136070564Y-131712740D01*
X135732774Y-131821576D01*
X135353917Y-131893357D01*
X134954035Y-131924474D01*
X134553167Y-131911315D01*
X134171353Y-131850271D01*
X134112881Y-131835068D01*
X133878420Y-131757586D01*
X133599051Y-131647095D01*
X133307650Y-131517180D01*
X133037088Y-131381431D01*
X133032359Y-131382517D01*
X133011548Y-131443388D01*
X132989072Y-131576752D01*
X132969033Y-131759795D01*
X132913059Y-132226024D01*
X132830813Y-132609379D01*
X132717992Y-132918689D01*
X132569958Y-133166648D01*
X132382073Y-133365949D01*
X132356157Y-133387633D01*
X132073839Y-133562844D01*
X131779133Y-133638130D01*
X131473324Y-133614162D01*
X131157697Y-133491610D01*
X130833536Y-133271145D01*
X130502125Y-132953439D01*
X130164748Y-132539162D01*
X129822690Y-132028986D01*
X129603309Y-131673160D01*
X129539995Y-131826013D01*
X129477803Y-131943682D01*
X129293772Y-132142396D01*
X129045927Y-132284939D01*
X128753315Y-132362028D01*
X128434986Y-132364384D01*
X128174036Y-132316425D01*
X127879186Y-132215374D01*
X127578740Y-132058087D01*
X127260662Y-131837067D01*
X126912914Y-131544818D01*
X126523460Y-131173842D01*
X125947965Y-130600405D01*
X125779741Y-131073502D01*
X125765866Y-131112293D01*
X125554215Y-131647401D01*
X125338673Y-132085039D01*
X125116770Y-132429072D01*
X124886038Y-132683367D01*
X124644006Y-132851792D01*
X124441792Y-132921644D01*
X124151792Y-132938577D01*
X123809630Y-132880496D01*
X123412195Y-132746548D01*
X122956382Y-132535883D01*
X122439080Y-132247649D01*
X122382113Y-132214140D01*
X121881674Y-131961801D01*
X121371113Y-131785684D01*
X120810763Y-131671758D01*
X120679522Y-131654829D01*
X120501499Y-131639688D01*
X120302607Y-131632601D01*
X120069475Y-131633909D01*
X119788731Y-131643951D01*
X119447003Y-131663068D01*
X119030922Y-131691601D01*
X118527114Y-131729890D01*
X118023308Y-131759070D01*
X117557188Y-131759190D01*
X117125441Y-131725345D01*
X116695733Y-131654931D01*
X116235733Y-131545343D01*
X116098136Y-131507362D01*
X115750504Y-131401740D01*
X115417462Y-131287903D01*
X115115787Y-131172503D01*
X114862251Y-131062193D01*
X114673631Y-130963624D01*
X114566700Y-130883450D01*
X114535203Y-130843813D01*
X114459798Y-130664106D01*
X114474014Y-130482518D01*
X114571813Y-130321764D01*
X114747156Y-130204560D01*
X114781713Y-130191326D01*
X114881300Y-130172841D01*
X114997864Y-130191743D01*
X115168280Y-130252203D01*
X115363220Y-130328053D01*
X115874414Y-130514184D01*
X116336537Y-130658039D01*
X116770741Y-130762388D01*
X117198177Y-130830002D01*
X117639997Y-130863649D01*
X118117352Y-130866101D01*
X118651393Y-130840127D01*
X119263272Y-130788497D01*
X119531286Y-130765485D01*
X120084555Y-130741436D01*
X120587010Y-130757793D01*
X121068787Y-130816263D01*
X121560023Y-130918554D01*
X121775928Y-130974868D01*
X122048384Y-131060620D01*
X122298868Y-131163203D01*
X122561820Y-131297296D01*
X122871682Y-131477576D01*
X122938488Y-131517220D01*
X123176195Y-131649471D01*
X123428617Y-131779048D01*
X123675161Y-131896419D01*
X123895230Y-131992055D01*
X124068230Y-132056425D01*
X124173564Y-132080000D01*
X124242493Y-132063046D01*
X124361808Y-131965392D01*
X124494648Y-131778616D01*
X124642530Y-131500077D01*
X124806969Y-131127129D01*
X124989480Y-130657132D01*
X125061193Y-130466973D01*
X125182374Y-130170869D01*
X125289616Y-129951662D01*
X125391217Y-129795452D01*
X125495473Y-129688341D01*
X125610678Y-129616432D01*
X125727187Y-129568878D01*
X125852730Y-129544792D01*
X125980059Y-129559253D01*
X126120088Y-129618530D01*
X126283725Y-129728890D01*
X126481882Y-129896601D01*
X126725470Y-130127932D01*
X127025400Y-130429151D01*
X127113310Y-130518125D01*
X127448428Y-130842002D01*
X127736241Y-131091476D01*
X127985957Y-131273427D01*
X128206782Y-131394735D01*
X128407922Y-131462279D01*
X128523751Y-131485616D01*
X128623235Y-131492220D01*
X128694194Y-131466883D01*
X128740739Y-131398006D01*
X128766982Y-131273993D01*
X128777036Y-131083246D01*
X128775014Y-130814167D01*
X128765027Y-130455158D01*
X128760758Y-130316293D01*
X128752545Y-130023597D01*
X128749377Y-129810937D01*
X128752604Y-129662827D01*
X128763575Y-129563777D01*
X128783642Y-129498302D01*
X128814152Y-129450914D01*
X128856457Y-129406124D01*
X128879841Y-129384756D01*
X129049894Y-129300900D01*
X129244609Y-129292496D01*
X129423612Y-129362639D01*
X129475562Y-129415891D01*
X129560737Y-129549778D01*
X129636670Y-129716282D01*
X129737523Y-129968176D01*
X129916609Y-130361271D01*
X130123775Y-130767360D01*
X130349574Y-131171128D01*
X130584559Y-131557262D01*
X130819283Y-131910447D01*
X131044298Y-132215369D01*
X131250158Y-132456713D01*
X131427416Y-132619165D01*
X131590222Y-132717563D01*
X131728907Y-132738617D01*
X131841079Y-132666881D01*
X131940660Y-132499100D01*
X131981775Y-132396482D01*
X132012237Y-132285135D01*
X132034188Y-132146514D01*
X132049788Y-131962038D01*
X132061197Y-131713126D01*
X132070573Y-131381195D01*
X132091538Y-130504591D01*
X131885156Y-130187395D01*
X131763775Y-129988779D01*
X131478966Y-129396965D01*
X131260210Y-128730144D01*
X131108315Y-127990600D01*
X131100448Y-127934882D01*
X131071726Y-127634750D01*
X131053318Y-127270453D01*
X131045164Y-126869536D01*
X131047204Y-126459547D01*
X131059378Y-126068030D01*
X131081624Y-125722532D01*
X131113884Y-125450600D01*
X131131912Y-125316986D01*
X131155370Y-125047287D01*
X131169905Y-124747065D01*
X131172914Y-124460000D01*
X131171782Y-124318839D01*
X131178703Y-123999523D01*
X131203093Y-123757868D01*
X131248614Y-123576957D01*
X131318930Y-123439873D01*
X131417705Y-123329700D01*
X131602497Y-123215761D01*
X131797361Y-123200959D01*
X132007849Y-123285781D01*
X132119307Y-123365914D01*
X132203191Y-123467606D01*
X132249724Y-123600076D01*
X132261871Y-123780218D01*
X132242597Y-124024923D01*
X132194869Y-124351087D01*
X132175743Y-124467739D01*
X132151274Y-124624890D01*
X132133890Y-124765475D01*
X132124852Y-124901119D01*
X132125424Y-125043444D01*
X132136865Y-125204074D01*
X132160438Y-125394634D01*
X132197405Y-125626746D01*
X132249027Y-125912035D01*
X132316566Y-126262125D01*
X132401283Y-126688638D01*
X132504440Y-127203200D01*
X132569850Y-127534386D01*
X132692983Y-128195581D01*
X132790945Y-128783703D01*
X132866410Y-129315415D01*
X132922049Y-129807378D01*
X132927859Y-129865374D01*
X132951438Y-130032599D01*
X132991775Y-130146766D01*
X133067627Y-130246066D01*
X133197751Y-130368688D01*
X133347272Y-130493031D01*
X133750701Y-130749850D01*
X134189892Y-130932985D01*
X134643026Y-131034609D01*
X135088287Y-131046895D01*
X135257376Y-131025228D01*
X135487557Y-130972622D01*
X135691108Y-130901977D01*
X135843180Y-130822385D01*
X135918922Y-130742941D01*
X135920325Y-130728910D01*
X135887660Y-130638099D01*
X135806726Y-130498175D01*
X135690137Y-130331808D01*
X135575894Y-130169436D01*
X135391473Y-129866799D01*
X135216715Y-129536675D01*
X135069870Y-129214417D01*
X134969191Y-128935376D01*
X134964346Y-128919050D01*
X134918704Y-128801489D01*
X134849879Y-128705966D01*
X134735976Y-128608721D01*
X134555100Y-128485992D01*
X134316713Y-128340342D01*
X133941701Y-128143880D01*
X133589115Y-127997646D01*
X133283433Y-127912676D01*
X133065582Y-127840417D01*
X132901145Y-127715557D01*
X132810415Y-127559868D01*
X132794814Y-127391828D01*
X132855767Y-127229917D01*
X132994696Y-127092614D01*
X133213024Y-126998398D01*
X133310644Y-126969716D01*
X133498880Y-126907380D01*
X133729103Y-126826181D01*
X133971582Y-126736388D01*
X134053547Y-126705754D01*
X134350893Y-126607712D01*
X134584401Y-126559856D01*
X134773648Y-126561785D01*
X134938213Y-126613099D01*
X135097675Y-126713399D01*
X135228614Y-126841353D01*
X135359519Y-127051582D01*
X135470061Y-127337647D01*
X135566199Y-127712254D01*
X135603840Y-127881187D01*
X135644060Y-128021814D01*
X135696628Y-128138017D01*
X135775785Y-128254474D01*
X135895769Y-128395865D01*
X136070820Y-128586870D01*
X136214481Y-128749054D01*
X136386434Y-128960734D01*
X136529135Y-129155467D01*
X136621443Y-129305654D01*
X136726578Y-129543504D01*
X136818245Y-129809901D01*
X136881451Y-130060357D01*
X136905398Y-130258637D01*
X136913559Y-130305257D01*
X136989569Y-130437192D01*
X137127872Y-130584210D01*
X137306905Y-130728034D01*
X137505107Y-130850385D01*
X137700913Y-130932984D01*
X137810026Y-130965953D01*
X137688950Y-130666199D01*
X137564232Y-130298324D01*
X137459079Y-129841945D01*
X137395965Y-129373739D01*
X137379098Y-128926197D01*
X137412683Y-128531809D01*
X137413055Y-128529682D01*
X138264103Y-128529682D01*
X138289276Y-129149141D01*
X138290495Y-129178392D01*
X138309147Y-129488541D01*
X138338544Y-129734834D01*
X138384187Y-129952057D01*
X138451582Y-130175000D01*
X138492377Y-130293654D01*
X138572400Y-130502673D01*
X138638527Y-130625170D01*
X138699068Y-130669359D01*
X138762332Y-130643457D01*
X138836630Y-130555678D01*
X138940471Y-130375494D01*
X139051347Y-130064117D01*
X139117831Y-129711763D01*
X139138919Y-129344380D01*
X139113605Y-128987918D01*
X139040881Y-128668327D01*
X138919744Y-128411556D01*
X138847473Y-128320037D01*
X138717520Y-128237168D01*
X138578404Y-128254307D01*
X138422920Y-128370864D01*
X138264103Y-128529682D01*
X137413055Y-128529682D01*
X137416785Y-128508382D01*
X137526479Y-128139434D01*
X137705881Y-127832552D01*
X137946852Y-127595859D01*
X138241255Y-127437481D01*
X138580951Y-127365540D01*
X138689736Y-127360506D01*
X138974761Y-127386821D01*
X139215185Y-127483645D01*
X139440768Y-127661210D01*
X139536006Y-127761456D01*
X139746740Y-128066168D01*
X139894545Y-128430024D01*
X139982433Y-128862021D01*
X140011786Y-129344380D01*
X140013415Y-129371151D01*
X140003359Y-129753285D01*
X139959917Y-130101468D01*
X139876485Y-130413426D01*
X139746755Y-130721100D01*
X139683304Y-130865166D01*
X139650513Y-130972269D01*
X139658303Y-131013200D01*
X139678860Y-131004631D01*
X139763220Y-130939857D01*
X139888878Y-130825374D01*
X140037101Y-130677771D01*
X140046434Y-130668059D01*
X140338783Y-130306898D01*
X140584688Y-129893314D01*
X140768489Y-129458087D01*
X140874523Y-129032000D01*
X140894184Y-128867761D01*
X140908612Y-128402907D01*
X140875174Y-127881288D01*
X140796647Y-127324847D01*
X140675809Y-126755527D01*
X140515438Y-126195270D01*
X140513784Y-126190234D01*
X140442553Y-125995868D01*
X140336582Y-125734495D01*
X140205844Y-125429404D01*
X140060310Y-125103882D01*
X139909953Y-124781220D01*
X139884655Y-124728008D01*
X139744048Y-124426834D01*
X139616586Y-124145127D01*
X139510126Y-123900847D01*
X139432525Y-123711952D01*
X139391638Y-123596400D01*
X139380156Y-123545820D01*
X139362682Y-123418600D01*
X140233400Y-123418600D01*
X140709479Y-124408899D01*
X140886110Y-124785628D01*
X141160010Y-125422984D01*
X141377818Y-126014989D01*
X141546027Y-126582143D01*
X141671132Y-127144946D01*
X141759626Y-127723900D01*
X141775955Y-127828114D01*
X141813995Y-127933769D01*
X141871966Y-127965200D01*
X141924678Y-127975429D01*
X142059933Y-128016438D01*
X142248141Y-128081539D01*
X142465753Y-128162892D01*
X142628428Y-128225386D01*
X142833064Y-128302638D01*
X142993177Y-128361492D01*
X143083720Y-128392636D01*
X143190839Y-128424688D01*
X143096705Y-127877444D01*
X143080672Y-127783564D01*
X143038180Y-127531433D01*
X142985022Y-127212937D01*
X142924956Y-126850710D01*
X142868180Y-126506419D01*
X143771430Y-126506419D01*
X143781479Y-126607266D01*
X143783503Y-126611795D01*
X143799406Y-126604157D01*
X143804897Y-126517400D01*
X143804562Y-126501624D01*
X143795767Y-126434150D01*
X143779597Y-126454866D01*
X143771430Y-126506419D01*
X142868180Y-126506419D01*
X142861743Y-126467386D01*
X142799140Y-126085600D01*
X142666251Y-125308811D01*
X142534001Y-124612908D01*
X142402200Y-124000462D01*
X142268749Y-123462391D01*
X142131555Y-122989612D01*
X141988519Y-122573043D01*
X141903287Y-122374931D01*
X141730831Y-122086137D01*
X141530828Y-121857669D01*
X141314420Y-121696984D01*
X141092754Y-121611540D01*
X140876974Y-121608796D01*
X140678224Y-121696209D01*
X140597640Y-121775747D01*
X140487344Y-121925222D01*
X140385800Y-122100069D01*
X140325547Y-122225310D01*
X140276177Y-122356698D01*
X140248388Y-122493304D01*
X140236141Y-122667235D01*
X140233400Y-122910600D01*
X140233400Y-123418600D01*
X139362682Y-123418600D01*
X139354776Y-123361041D01*
X139337901Y-123128043D01*
X139332710Y-122885200D01*
X139361011Y-122486098D01*
X139455626Y-122052100D01*
X139609123Y-121666578D01*
X139813729Y-121336167D01*
X140061671Y-121067500D01*
X140345175Y-120867210D01*
X140656470Y-120741931D01*
X140987781Y-120698298D01*
X141331336Y-120742944D01*
X141679362Y-120882502D01*
X141852396Y-120987653D01*
X142191290Y-121272023D01*
X142484056Y-121637726D01*
X142733961Y-122089279D01*
X142944271Y-122631200D01*
X143057505Y-123007705D01*
X143181531Y-123474196D01*
X143305914Y-123990175D01*
X143424872Y-124529384D01*
X143532622Y-125065563D01*
X143623380Y-125572453D01*
X143691366Y-126023796D01*
X143707473Y-126130026D01*
X143730629Y-126237562D01*
X143748593Y-126270340D01*
X143750497Y-126235343D01*
X143742180Y-126113643D01*
X143723318Y-125921306D01*
X143695604Y-125675237D01*
X143660730Y-125392343D01*
X143624762Y-125071436D01*
X143587190Y-124586260D01*
X143566675Y-124093999D01*
X143564749Y-123845449D01*
X144435641Y-123845449D01*
X144466591Y-124474638D01*
X144530072Y-125196156D01*
X144626121Y-126009400D01*
X144632915Y-126061677D01*
X144683043Y-126466634D01*
X144688883Y-126517400D01*
X144732302Y-126894865D01*
X144777356Y-127315400D01*
X144814872Y-127697271D01*
X144841512Y-128009509D01*
X144850366Y-128126023D01*
X144873153Y-128405004D01*
X144875176Y-128424688D01*
X144893473Y-128602739D01*
X144914177Y-128734256D01*
X144938120Y-128814585D01*
X144968156Y-128858753D01*
X145007138Y-128881791D01*
X145008605Y-128882363D01*
X145098515Y-128913122D01*
X145262222Y-128965477D01*
X145476919Y-129032246D01*
X145719800Y-129106246D01*
X145730691Y-129109531D01*
X145971261Y-129182294D01*
X146181334Y-129246166D01*
X146338645Y-129294357D01*
X146420927Y-129320076D01*
X146449281Y-129327711D01*
X146487767Y-129316500D01*
X146497834Y-129248589D01*
X146486012Y-129102111D01*
X146472977Y-128976566D01*
X146450431Y-128750537D01*
X146429080Y-128528020D01*
X146425410Y-128472323D01*
X146419282Y-128300741D01*
X146413783Y-128046908D01*
X146409053Y-127723210D01*
X146405231Y-127342031D01*
X146402453Y-126915759D01*
X146400860Y-126456777D01*
X146400588Y-125977472D01*
X146402585Y-123753103D01*
X146174474Y-123297430D01*
X145996161Y-122965767D01*
X145758600Y-122598938D01*
X145524303Y-122321584D01*
X145296164Y-122136462D01*
X145077077Y-122046333D01*
X144869938Y-122053954D01*
X144767556Y-122105519D01*
X144636408Y-122264028D01*
X144537606Y-122517878D01*
X144471186Y-122866467D01*
X144437185Y-123309191D01*
X144435641Y-123845449D01*
X143564749Y-123845449D01*
X143562944Y-123612570D01*
X143575721Y-123159893D01*
X143604732Y-122753886D01*
X143649702Y-122412466D01*
X143710358Y-122153552D01*
X143721043Y-122121715D01*
X143869901Y-121809663D01*
X144076530Y-121541079D01*
X144322836Y-121335319D01*
X144590724Y-121211743D01*
X144837104Y-121164783D01*
X145207172Y-121176803D01*
X145568804Y-121288214D01*
X145918311Y-121497700D01*
X146251999Y-121803946D01*
X146544036Y-122122654D01*
X146577402Y-121754452D01*
X146588100Y-121651477D01*
X146641774Y-121293498D01*
X146719411Y-120913928D01*
X146813449Y-120543515D01*
X146916323Y-120213008D01*
X147020470Y-119953157D01*
X147143805Y-119729248D01*
X147393310Y-119404769D01*
X147686747Y-119148207D01*
X148007375Y-118976135D01*
X148131366Y-118932570D01*
X148300730Y-118891753D01*
X148482326Y-118878057D01*
X148720207Y-118885908D01*
X148918546Y-118905908D01*
X149274358Y-118996612D01*
X149554409Y-119154243D01*
X149759794Y-119379538D01*
X149891607Y-119673231D01*
X149899699Y-119701806D01*
X149934142Y-119862303D01*
X149943636Y-120023515D01*
X149926211Y-120209300D01*
X149879898Y-120443519D01*
X149802727Y-120750029D01*
X149777723Y-120841658D01*
X149684207Y-121134055D01*
X149588046Y-121340449D01*
X149480201Y-121472918D01*
X149351633Y-121543542D01*
X149193303Y-121564400D01*
X149173888Y-121562725D01*
X149055876Y-121508683D01*
X148931518Y-121402334D01*
X148833173Y-121276167D01*
X148793200Y-121162675D01*
X148795461Y-121135207D01*
X148819084Y-121010169D01*
X148862934Y-120828624D01*
X148920200Y-120619684D01*
X148941161Y-120545022D01*
X148995306Y-120327363D01*
X149033035Y-120138059D01*
X149047200Y-120011356D01*
X149047130Y-119996248D01*
X149033598Y-119889918D01*
X148976948Y-119829366D01*
X148848901Y-119781866D01*
X148579741Y-119744771D01*
X148327525Y-119802490D01*
X148101896Y-119954992D01*
X147905212Y-120200040D01*
X147739836Y-120535393D01*
X147608128Y-120958812D01*
X147562275Y-121178971D01*
X147510050Y-121496709D01*
X147458870Y-121870386D01*
X147411723Y-122276137D01*
X147371598Y-122690097D01*
X147341483Y-123088400D01*
X147332818Y-123229881D01*
X147325676Y-123405417D01*
X147329691Y-123550438D01*
X147348861Y-123690391D01*
X147387184Y-123850719D01*
X147448659Y-124056865D01*
X147537286Y-124334275D01*
X147548652Y-124369761D01*
X147643338Y-124678412D01*
X147735199Y-124998192D01*
X147814252Y-125293335D01*
X147870514Y-125528075D01*
X147909975Y-125720401D01*
X148019776Y-126372710D01*
X148109304Y-127093035D01*
X148176295Y-127857116D01*
X148218487Y-128640693D01*
X148230295Y-129248589D01*
X148233615Y-129419506D01*
X148234400Y-130137212D01*
X148526500Y-130244565D01*
X148877548Y-130361602D01*
X149424928Y-130488252D01*
X149933036Y-130529697D01*
X150411207Y-130486393D01*
X150868776Y-130358795D01*
X150945531Y-130330165D01*
X151098678Y-130277134D01*
X151236029Y-130240147D01*
X151381063Y-130215921D01*
X151557259Y-130201171D01*
X151788096Y-130192612D01*
X152097053Y-130186959D01*
X152125197Y-130186534D01*
X152426273Y-130180667D01*
X152644736Y-130172262D01*
X152798166Y-130159143D01*
X152904146Y-130139135D01*
X152980256Y-130110060D01*
X153044078Y-130069743D01*
X153142534Y-129987300D01*
X153287991Y-129821066D01*
X153426570Y-129601283D01*
X153562601Y-129318557D01*
X153700415Y-128963492D01*
X153844341Y-128526695D01*
X153998710Y-127998773D01*
X154059366Y-127784676D01*
X154162365Y-127444511D01*
X154254242Y-127185917D01*
X154342182Y-126997330D01*
X154433369Y-126867189D01*
X154534985Y-126783930D01*
X154654214Y-126735990D01*
X154798239Y-126711808D01*
X154925797Y-126709041D01*
X155076763Y-126740732D01*
X155221943Y-126819240D01*
X155368403Y-126952559D01*
X155523208Y-127148682D01*
X155693426Y-127415601D01*
X155886120Y-127761309D01*
X156108359Y-128193800D01*
X156514916Y-129006600D01*
X156476758Y-128473200D01*
X156465081Y-128285098D01*
X156450117Y-127900457D01*
X156444378Y-127498924D01*
X156447393Y-127100213D01*
X156458690Y-126724040D01*
X156477800Y-126390120D01*
X156504250Y-126118169D01*
X156537570Y-125927900D01*
X156624438Y-125653207D01*
X156811401Y-125276445D01*
X157053945Y-124972822D01*
X157345350Y-124748419D01*
X157678892Y-124609318D01*
X158047850Y-124561600D01*
X158130942Y-124559949D01*
X158247176Y-124549953D01*
X158292800Y-124533905D01*
X158269721Y-124487027D01*
X158191666Y-124362222D01*
X158062731Y-124167398D01*
X157887356Y-123909157D01*
X157669981Y-123594100D01*
X157415046Y-123228830D01*
X157188056Y-122894716D01*
X156905898Y-122452073D01*
X156629097Y-121989905D01*
X156363386Y-121519729D01*
X156114500Y-121053062D01*
X155888172Y-120601421D01*
X155690137Y-120176324D01*
X155526128Y-119789288D01*
X155401880Y-119451830D01*
X155363577Y-119317417D01*
X156317411Y-119317417D01*
X156334107Y-119415591D01*
X156371606Y-119524802D01*
X156451729Y-119713998D01*
X156564432Y-119959433D01*
X156701188Y-120243969D01*
X156853470Y-120550465D01*
X157012752Y-120861782D01*
X157170506Y-121160778D01*
X157318205Y-121430315D01*
X157447322Y-121653252D01*
X157537841Y-121800028D01*
X157710143Y-122069792D01*
X157911166Y-122376266D01*
X158122788Y-122691927D01*
X158326892Y-122989254D01*
X158500310Y-123238286D01*
X158665017Y-123474877D01*
X158804338Y-123675074D01*
X158907376Y-123823219D01*
X158963236Y-123903654D01*
X159049471Y-124028200D01*
X159052136Y-123898019D01*
X159050893Y-123851284D01*
X159041724Y-123705728D01*
X159025117Y-123492055D01*
X159002699Y-123230716D01*
X158976097Y-122942162D01*
X158950173Y-122691999D01*
X158866536Y-122094611D01*
X158757340Y-121582145D01*
X158617910Y-121143817D01*
X158443569Y-120768841D01*
X158229643Y-120446431D01*
X157971455Y-120165801D01*
X157664331Y-119916167D01*
X157661397Y-119914077D01*
X157433863Y-119766900D01*
X157168136Y-119617565D01*
X156894553Y-119481205D01*
X156643450Y-119372954D01*
X156445164Y-119307948D01*
X156352975Y-119290993D01*
X156317411Y-119317417D01*
X155363577Y-119317417D01*
X155323126Y-119175467D01*
X155295600Y-118971718D01*
X155312429Y-118873680D01*
X155404134Y-118706696D01*
X155553541Y-118560057D01*
X155735418Y-118462954D01*
X155859739Y-118437249D01*
X156076238Y-118421590D01*
X156330655Y-118425539D01*
X156600943Y-118458577D01*
X157048001Y-118581417D01*
X157502742Y-118780304D01*
X157948277Y-119043431D01*
X158367718Y-119358989D01*
X158744178Y-119715169D01*
X159060768Y-120100163D01*
X159300599Y-120502163D01*
X159379758Y-120674048D01*
X159497869Y-120970155D01*
X159597620Y-121283207D01*
X159681835Y-121627311D01*
X159753336Y-122016574D01*
X159814946Y-122465105D01*
X159869489Y-122987011D01*
X159919788Y-123596400D01*
X159946116Y-123898019D01*
X159971734Y-124191506D01*
X160048275Y-124835125D01*
X160139446Y-125397711D01*
X160244279Y-125874265D01*
X160361806Y-126259789D01*
X160491062Y-126549283D01*
X160527519Y-126613330D01*
X160777299Y-127020434D01*
X161075759Y-127462789D01*
X161413478Y-127929420D01*
X161781034Y-128409356D01*
X162169007Y-128891622D01*
X162567975Y-129365245D01*
X162968517Y-129819252D01*
X163361212Y-130242669D01*
X163736638Y-130624524D01*
X164085375Y-130953843D01*
X164398001Y-131219652D01*
X164665095Y-131410979D01*
X164794016Y-131482441D01*
X164985583Y-131564787D01*
X165145174Y-131608168D01*
X165354000Y-131636177D01*
X165354000Y-131323102D01*
X165352633Y-131278888D01*
X165339723Y-131111885D01*
X165314648Y-130866116D01*
X165279185Y-130556749D01*
X165235114Y-130198948D01*
X165184214Y-129807881D01*
X165128265Y-129398714D01*
X165105920Y-129239128D01*
X165048199Y-128826077D01*
X164993230Y-128431639D01*
X164943289Y-128072215D01*
X164900654Y-127764204D01*
X164867600Y-127524005D01*
X164846404Y-127368019D01*
X164835162Y-127287635D01*
X164798432Y-127088942D01*
X164745886Y-126925102D01*
X164662744Y-126757206D01*
X164534221Y-126546347D01*
X164278163Y-126144055D01*
X163939782Y-126087123D01*
X163932952Y-126085979D01*
X163705334Y-126051769D01*
X163435521Y-126016595D01*
X163180452Y-125987896D01*
X163013871Y-125967496D01*
X162788478Y-125919621D01*
X162662631Y-125857933D01*
X162571444Y-125736933D01*
X162528970Y-125558664D01*
X162561482Y-125378531D01*
X162662569Y-125225240D01*
X162825817Y-125127495D01*
X162898627Y-125111584D01*
X163096513Y-125099404D01*
X163335611Y-125113295D01*
X163344583Y-125114276D01*
X163511635Y-125128677D01*
X163626870Y-125131420D01*
X163665811Y-125121870D01*
X163663262Y-125116671D01*
X163626418Y-125043183D01*
X163550121Y-124891613D01*
X163439359Y-124671852D01*
X163299123Y-124393794D01*
X163134399Y-124067331D01*
X162950179Y-123702356D01*
X162751449Y-123308761D01*
X162733285Y-123272759D01*
X162526264Y-122858036D01*
X162328356Y-122453903D01*
X162145802Y-122073646D01*
X161984842Y-121730551D01*
X161851715Y-121437904D01*
X161752662Y-121208992D01*
X161693923Y-121057101D01*
X161663769Y-120963621D01*
X161558791Y-120533454D01*
X161534878Y-120263648D01*
X162407600Y-120263648D01*
X162417969Y-120374621D01*
X162456537Y-120537349D01*
X162526488Y-120746231D01*
X162630828Y-121008370D01*
X162772563Y-121330869D01*
X162954699Y-121720830D01*
X163180243Y-122185356D01*
X163452202Y-122731550D01*
X163481708Y-122790266D01*
X163707935Y-123239985D01*
X163893286Y-123607191D01*
X164041791Y-123899386D01*
X164157478Y-124124076D01*
X164244375Y-124288766D01*
X164306512Y-124400960D01*
X164347916Y-124468165D01*
X164372617Y-124497884D01*
X164384643Y-124497622D01*
X164388023Y-124474885D01*
X164384348Y-124437789D01*
X164357449Y-124303125D01*
X164308864Y-124100504D01*
X164243834Y-123849067D01*
X164167599Y-123567957D01*
X164085400Y-123276314D01*
X164002477Y-122993280D01*
X163924072Y-122737994D01*
X163855424Y-122529600D01*
X163822188Y-122435630D01*
X163659229Y-122014449D01*
X163479296Y-121604252D01*
X163290203Y-121219391D01*
X163099762Y-120874219D01*
X162915785Y-120583088D01*
X162746086Y-120360353D01*
X162598475Y-120220364D01*
X162582875Y-120209568D01*
X162475131Y-120150567D01*
X162421891Y-120167418D01*
X162407600Y-120263648D01*
X161534878Y-120263648D01*
X161525538Y-120158272D01*
X161562396Y-119842322D01*
X161667752Y-119589847D01*
X161839992Y-119405094D01*
X162077502Y-119292306D01*
X162378669Y-119255730D01*
X162379955Y-119255742D01*
X162645118Y-119282218D01*
X162879404Y-119364302D01*
X163107233Y-119514237D01*
X163353024Y-119744268D01*
X163442099Y-119839429D01*
X163630035Y-120061856D01*
X163798256Y-120299843D01*
X163964669Y-120580115D01*
X164147186Y-120929400D01*
X164215280Y-121068782D01*
X164511406Y-121757475D01*
X164784413Y-122530400D01*
X165030478Y-123374711D01*
X165245777Y-124277565D01*
X165283368Y-124474885D01*
X165426485Y-125226116D01*
X165456984Y-125408033D01*
G37*
X70002400Y-164656800D02*
X70002400Y-155766800D01*
X69977000Y-152337800D02*
X69977000Y-140044200D01*
X72263000Y-154623800D02*
X75539600Y-154623800D01*
X67691000Y-154623800D02*
X68834000Y-154623800D01*
X77851000Y-152337800D02*
X77851000Y-140044200D01*
X77851000Y-155766800D02*
X77851000Y-156986000D01*
X76708000Y-154623800D02*
X75539600Y-154623800D01*
X62103000Y-156935200D02*
X62103000Y-155766800D01*
X77851000Y-164682200D02*
X62103000Y-164682200D01*
X69977000Y-152337800D02*
X69977000Y-153480800D01*
X77851000Y-152363200D02*
X77851000Y-153455400D01*
X77851000Y-140044200D02*
X62103000Y-140044200D01*
X62103000Y-152312400D02*
X62103000Y-153506200D01*
X67691000Y-154623800D02*
X64389000Y-154623800D01*
X64414400Y-154623800D02*
X63246000Y-154623800D01*
X62103000Y-156909800D02*
X62103000Y-164656800D01*
X72263000Y-154623800D02*
X71120000Y-154623800D01*
X62103000Y-152337800D02*
X62103000Y-140044200D01*
X77851000Y-164656800D02*
X77851000Y-156909800D01*
X76708000Y-154623800D02*
G75*
G03*
X77851000Y-155766800I1143000J0D01*
G01*
X77851000Y-153480800D02*
G75*
G03*
X76708000Y-154623800I0J-1143000D01*
G01*
X63220600Y-154623800D02*
G75*
G03*
X62103000Y-153506200I-1117598J2D01*
G01*
X62103000Y-155741400D02*
G75*
G03*
X63220600Y-154623800I2J1117598D01*
G01*
X71120000Y-154623800D02*
G75*
G03*
X71120000Y-154623800I-1143000J0D01*
G01*
X169363000Y-164992000D02*
X153615000Y-164992000D01*
X153615000Y-157219600D02*
X153615000Y-164966600D01*
X161489000Y-152647600D02*
X161489000Y-140354000D01*
X153615000Y-152622200D02*
X153615000Y-153816000D01*
X169363000Y-156076600D02*
X169363000Y-157295800D01*
X169363000Y-152673000D02*
X169363000Y-153765200D01*
X169363000Y-164966600D02*
X169363000Y-157219600D01*
X161514400Y-164966600D02*
X161514400Y-156076600D01*
X169363000Y-152647600D02*
X169363000Y-140354000D01*
X153615000Y-157245000D02*
X153615000Y-156076600D01*
X168220000Y-154933600D02*
X167051600Y-154933600D01*
X161489000Y-152647600D02*
X161489000Y-153790600D01*
X153615000Y-152647600D02*
X153615000Y-140354000D01*
X159203000Y-154933600D02*
X160346000Y-154933600D01*
X159203000Y-154933600D02*
X155901000Y-154933600D01*
X163775000Y-154933600D02*
X167051600Y-154933600D01*
X163775000Y-154933600D02*
X162632000Y-154933600D01*
X155926400Y-154933600D02*
X154758000Y-154933600D01*
X169363000Y-140354000D02*
X153615000Y-140354000D01*
X168220000Y-154933600D02*
G75*
G03*
X169363000Y-156076600I1143000J0D01*
G01*
X154732600Y-154933600D02*
G75*
G03*
X153615000Y-153816000I-1117598J2D01*
G01*
X153615000Y-156051200D02*
G75*
G03*
X154732600Y-154933600I2J1117598D01*
G01*
X169363000Y-153790600D02*
G75*
G03*
X168220000Y-154933600I0J-1143000D01*
G01*
X162632000Y-154933600D02*
G75*
G03*
X162632000Y-154933600I-1143000J0D01*
G01*
%LPC*%
D12*
X163830000Y-88866000D03*
D13*
X161830000Y-88866000D03*
X163830000Y-86866000D03*
X161830000Y-86866000D03*
X163830000Y-84866000D03*
X161830000Y-84866000D03*
D14*
X78232000Y-75817950D03*
X75692000Y-75817950D03*
X73152000Y-75817950D03*
X67448750Y-75817950D03*
X64908750Y-75817950D03*
X62368750Y-75817950D03*
D15*
X43180000Y-72320000D03*
X43180000Y-80520000D03*
D16*
X43180000Y-74420000D03*
D17*
X43180000Y-76420000D03*
X43180000Y-78420000D03*
D14*
X128510000Y-57910000D03*
X128510000Y-60450000D03*
X120890000Y-57910000D03*
X120890000Y-60450000D03*
X60325000Y-99771600D03*
X57785000Y-99771600D03*
X55245000Y-99771600D03*
D18*
X38944420Y-55708420D03*
D14*
X113270000Y-57910000D03*
X113270000Y-60450000D03*
X88900000Y-75817000D03*
X86360000Y-75817000D03*
X83820000Y-75817000D03*
X81534000Y-91059000D03*
X78994000Y-91059000D03*
X76454000Y-91059000D03*
D19*
X101143500Y-90168000D03*
X103683500Y-90168000D03*
X106223500Y-90168000D03*
X108763500Y-90168000D03*
X134163500Y-90168000D03*
X103683500Y-74928000D03*
X144323500Y-85088000D03*
X111303500Y-90168000D03*
X113843500Y-90168000D03*
D20*
X104953500Y-87118000D03*
D19*
X116383500Y-90168000D03*
X118923500Y-90168000D03*
X121463500Y-90168000D03*
X124003500Y-90168000D03*
X126543500Y-90168000D03*
X129083500Y-90168000D03*
X131623500Y-90168000D03*
X131623500Y-74928000D03*
X129083500Y-74928000D03*
X126543500Y-74928000D03*
X124003500Y-74928000D03*
X121463500Y-74928000D03*
X118923500Y-74928000D03*
X116383500Y-74928000D03*
X113843500Y-74928000D03*
X111303500Y-74928000D03*
X108763500Y-74928000D03*
X106223500Y-74928000D03*
X136703500Y-90168000D03*
X139243500Y-90168000D03*
X141783500Y-90168000D03*
X144323500Y-90168000D03*
X146863500Y-90168000D03*
X149403500Y-90168000D03*
X151943500Y-90168000D03*
X154483500Y-90168000D03*
X157023500Y-90168000D03*
X157023500Y-74928000D03*
X154483500Y-74928000D03*
X151943500Y-74928000D03*
X149403500Y-74928000D03*
X146863500Y-74928000D03*
X144323500Y-74928000D03*
X141783500Y-74928000D03*
X139243500Y-74928000D03*
X136703500Y-74928000D03*
D20*
X110033500Y-87118000D03*
X107493500Y-87118000D03*
D19*
X98603500Y-90168000D03*
X134163500Y-74928000D03*
X101143500Y-74928000D03*
X144323500Y-82548000D03*
D21*
X113573500Y-79378000D03*
X111573500Y-79378000D03*
D19*
X144323500Y-77468000D03*
X144323500Y-80008000D03*
D21*
X111573500Y-77378000D03*
X113573500Y-77378000D03*
X113573500Y-81378000D03*
X111573500Y-81378000D03*
D20*
X112573500Y-87118000D03*
X115113500Y-87118000D03*
D19*
X144323500Y-87628000D03*
X98603500Y-74928000D03*
X101143500Y-77468000D03*
D14*
X158990000Y-57910000D03*
X158990000Y-60450000D03*
X136130000Y-57910000D03*
X136130000Y-60450000D03*
X60198000Y-91059000D03*
X57658000Y-91059000D03*
X55118000Y-91059000D03*
X70993000Y-99771600D03*
X68453000Y-99771600D03*
X65913000Y-99771600D03*
X151370000Y-57910000D03*
X151370000Y-60450000D03*
D16*
X45085000Y-128162500D03*
D17*
X45085000Y-125622500D03*
X45085000Y-123082500D03*
D14*
X56832500Y-75880500D03*
X54292500Y-75880500D03*
X51752500Y-75880500D03*
X81661000Y-99771600D03*
X79121000Y-99771600D03*
X76581000Y-99771600D03*
D22*
X169469500Y-87501000D03*
X166929500Y-86231000D03*
X169469500Y-84961000D03*
X166929500Y-83691000D03*
X169469500Y-82421000D03*
X166929500Y-81151000D03*
X169469500Y-79881000D03*
X166929500Y-78611000D03*
D23*
X180899500Y-89381000D03*
X179109500Y-86841000D03*
X180899500Y-79271000D03*
X179109500Y-76731000D03*
D24*
X175819500Y-88771000D03*
X175819500Y-77341000D03*
D25*
X172769500Y-90931000D03*
X172769500Y-75181000D03*
D14*
X143750000Y-57910000D03*
X143750000Y-60450000D03*
X70866000Y-91059000D03*
X68326000Y-91059000D03*
X65786000Y-91059000D03*
X166610000Y-57910000D03*
X166610000Y-60450000D03*
D18*
X38944420Y-154095580D03*
X183940580Y-154095580D03*
X183896000Y-55753000D03*
D14*
X174230000Y-57910000D03*
X174230000Y-60450000D03*
D26*
X110575000Y-136518600D03*
X102701000Y-136518600D03*
X147151000Y-136772600D03*
X139277000Y-136772600D03*
X128990000Y-136772600D03*
X121116000Y-136772600D03*
X92202000Y-136462800D03*
X84328000Y-136462800D03*
X55626000Y-136462800D03*
X47752000Y-136462800D03*
X73914000Y-136462800D03*
X66040000Y-136462800D03*
X165426000Y-136772600D03*
X157552000Y-136772600D03*
M02*
