M48
; DRILL file {KiCad (6.0.10)} date Wed Dec 28 15:30:46 2022
; FORMAT={-:-/ absolute / metric / decimal}
; #@! TF.CreationDate,2022-12-28T15:30:46-06:00
; #@! TF.GenerationSoftware,Kicad,Pcbnew,(6.0.10)
; #@! TF.FileFunction,Plated,1,2,PTH
FMAT,2
METRIC
; #@! TA.AperFunction,Plated,PTH,ViaDrill
T1C0.400
; #@! TA.AperFunction,Plated,PTH,ComponentDrill
T2C0.700
; #@! TA.AperFunction,Plated,PTH,ComponentDrill
T3C0.750
; #@! TA.AperFunction,Plated,PTH,ComponentDrill
T4C0.800
; #@! TA.AperFunction,Plated,PTH,ComponentDrill
T5C0.900
; #@! TA.AperFunction,Plated,PTH,ComponentDrill
T6C1.000
; #@! TA.AperFunction,Plated,PTH,ComponentDrill
T7C1.020
; #@! TA.AperFunction,Plated,PTH,ComponentDrill
T8C1.500
; #@! TA.AperFunction,Plated,PTH,ComponentDrill
T9C1.600
; #@! TA.AperFunction,Plated,PTH,ComponentDrill
T10C2.000
; #@! TA.AperFunction,Plated,PTH,ComponentDrill
T11C3.250
%
G90
G05
T1
X41.402Y-96.139
X48.387Y-116.713
X48.387Y-123.19
X49.022Y-113.665
X51.308Y-66.04
X51.689Y-148.082
X51.689Y-150.114
X51.689Y-152.146
X51.689Y-154.178
X51.689Y-156.21
X51.816Y-83.82
X51.816Y-86.36
X54.864Y-121.666
X54.864Y-124.46
X57.404Y-64.262
X60.96Y-66.04
X61.976Y-83.82
X61.976Y-86.36
X62.479Y-121.666
X62.479Y-124.46
X66.929Y-64.262
X69.596Y-66.04
X69.85Y-121.666
X69.85Y-124.46
X69.977Y-148.209
X69.977Y-150.241
X69.977Y-152.273
X69.977Y-154.305
X69.977Y-156.337
X73.66Y-83.82
X73.66Y-86.36
X76.454Y-64.262
X77.47Y-121.666
X77.47Y-124.46
X79.248Y-66.04
X82.804Y-124.968
X82.804Y-132.588
X83.82Y-83.82
X83.82Y-86.36
X84.328Y-117.348
X85.852Y-124.968
X85.852Y-132.588
X85.979Y-64.262
X88.265Y-148.336
X88.265Y-150.368
X88.265Y-152.4
X88.265Y-154.432
X88.265Y-156.464
X88.9Y-66.04
X90.17Y-91.059
X90.424Y-111.252
X91.948Y-113.792
X91.948Y-119.38
X92.71Y-91.059
X95.25Y-91.059
X95.504Y-64.262
X96.52Y-105.156
X98.298Y-146.558
X98.806Y-66.04
X98.806Y-115.57
X98.82Y-117.235
X99.568Y-96.012
X99.568Y-98.552
X100.076Y-105.664
X100.457Y-113.665
X100.457Y-129.794
X100.457Y-148.59
X101.473Y-108.712
X101.727Y-129.794
X101.727Y-148.59
X102.997Y-113.665
X102.997Y-129.794
X102.997Y-148.59
X103.505Y-107.442
X104.267Y-118.491
X104.267Y-129.794
X104.267Y-148.59
X105.156Y-64.262
X106.426Y-146.558
X106.426Y-148.59
X106.426Y-150.622
X106.426Y-152.654
X106.426Y-154.686
X106.426Y-156.718
X106.553Y-107.442
X106.553Y-114.427
X106.553Y-131.191
X106.553Y-136.779
X108.585Y-117.221
X108.585Y-129.794
X108.585Y-148.59
X109.093Y-113.665
X109.601Y-107.442
X109.855Y-129.794
X109.855Y-148.59
X111.125Y-113.665
X111.125Y-129.794
X111.125Y-148.59
X111.633Y-108.712
X112.395Y-118.491
X112.395Y-129.794
X112.395Y-148.59
X114.935Y-146.558
X116.713Y-146.558
X116.84Y-62.484
X118.872Y-113.665
X118.872Y-117.221
X118.872Y-129.794
X118.872Y-148.336
X120.142Y-129.794
X120.142Y-148.336
X120.396Y-96.012
X120.396Y-98.552
X121.412Y-113.665
X121.412Y-129.794
X121.412Y-148.336
X121.92Y-107.569
X122.682Y-118.491
X122.682Y-129.794
X122.682Y-148.336
X124.46Y-62.484
X124.714Y-146.431
X124.714Y-148.336
X124.714Y-150.368
X124.714Y-152.4
X124.714Y-154.432
X124.714Y-156.464
X124.968Y-107.442
X124.968Y-114.427
X124.968Y-131.064
X124.968Y-136.652
X127.0Y-117.221
X127.0Y-129.794
X127.0Y-148.336
X127.381Y-113.665
X128.016Y-107.569
X128.27Y-129.794
X128.27Y-148.336
X129.54Y-113.665
X129.54Y-129.794
X129.54Y-148.336
X129.921Y-94.615
X130.556Y-77.216
X130.556Y-80.264
X130.556Y-83.312
X130.81Y-118.491
X130.81Y-129.794
X130.81Y-148.336
X132.08Y-62.484
X132.588Y-77.216
X132.588Y-80.264
X132.588Y-83.312
X133.35Y-146.558
X134.874Y-146.558
X136.652Y-87.63
X137.033Y-113.665
X137.033Y-117.221
X137.033Y-129.794
X137.033Y-148.463
X138.303Y-129.794
X138.303Y-148.463
X139.573Y-113.665
X139.573Y-129.794
X139.573Y-148.463
X139.7Y-62.484
X140.081Y-107.315
X140.843Y-118.491
X140.843Y-129.794
X140.843Y-148.463
X141.732Y-87.63
X143.002Y-130.683
X143.002Y-136.525
X143.002Y-146.558
X143.002Y-148.336
X143.002Y-150.368
X143.002Y-152.4
X143.002Y-154.432
X143.002Y-156.464
X143.129Y-107.315
X143.129Y-114.3
X145.161Y-117.221
X145.161Y-129.729
X145.161Y-148.463
X145.542Y-113.665
X146.177Y-93.599
X146.177Y-107.315
X146.431Y-129.729
X146.431Y-148.463
X147.32Y-62.484
X147.701Y-113.665
X147.701Y-129.729
X147.701Y-148.463
X148.971Y-118.491
X148.971Y-129.729
X148.971Y-148.463
X151.511Y-146.431
X153.162Y-83.566
X153.162Y-87.63
X153.162Y-146.431
X154.94Y-62.484
X155.308Y-113.665
X155.308Y-129.794
X155.308Y-148.463
X155.321Y-117.221
X155.766Y-93.536
X156.578Y-129.794
X156.578Y-148.463
X157.848Y-113.665
X157.848Y-129.794
X157.848Y-148.463
X158.356Y-107.442
X159.118Y-118.491
X159.118Y-129.794
X159.118Y-148.463
X161.29Y-146.431
X161.29Y-148.336
X161.29Y-150.368
X161.29Y-152.4
X161.29Y-154.432
X161.29Y-156.464
X161.404Y-107.442
X161.404Y-114.427
X161.404Y-130.556
X161.404Y-136.652
X162.56Y-62.484
X163.436Y-129.794
X163.436Y-148.463
X163.449Y-117.221
X163.817Y-113.665
X164.452Y-107.442
X164.706Y-129.794
X164.706Y-148.463
X165.291Y-93.536
X165.976Y-113.665
X165.976Y-129.794
X165.976Y-148.463
X167.246Y-118.491
X167.246Y-129.794
X167.246Y-148.463
X170.18Y-62.484
X177.8Y-62.484
T2
X111.573Y-77.378
X111.573Y-79.378
X111.573Y-81.378
X113.573Y-77.378
X113.573Y-79.378
X113.573Y-81.378
T3
X104.953Y-87.118
X107.493Y-87.118
X110.033Y-87.118
X112.573Y-87.118
X115.113Y-87.118
T4
X43.18Y-74.42
X43.18Y-76.42
X43.18Y-78.42
X98.603Y-74.928
X98.603Y-90.168
X101.143Y-74.928
X101.143Y-77.468
X101.143Y-90.168
X103.683Y-74.928
X103.683Y-90.168
X106.224Y-74.928
X106.224Y-90.168
X108.763Y-74.928
X108.763Y-90.168
X111.303Y-74.928
X111.303Y-90.168
X113.843Y-74.928
X113.843Y-90.168
X116.383Y-74.928
X116.383Y-90.168
X118.923Y-74.928
X118.923Y-90.168
X121.463Y-74.928
X121.463Y-90.168
X124.003Y-74.928
X124.003Y-90.168
X126.543Y-74.928
X126.543Y-90.168
X129.083Y-74.928
X129.083Y-90.168
X131.624Y-74.928
X131.624Y-90.168
X134.163Y-74.928
X134.163Y-90.168
X136.703Y-74.928
X136.703Y-90.168
X139.243Y-74.928
X139.243Y-90.168
X141.784Y-74.928
X141.784Y-90.168
X144.323Y-74.928
X144.323Y-77.468
X144.323Y-80.008
X144.323Y-82.548
X144.323Y-85.088
X144.323Y-87.628
X144.323Y-90.168
X146.863Y-74.928
X146.863Y-90.168
X149.403Y-74.928
X149.403Y-90.168
X151.944Y-74.928
X151.944Y-90.168
X154.483Y-74.928
X154.483Y-90.168
X157.023Y-74.928
X157.023Y-90.168
X161.83Y-84.866
X161.83Y-86.866
X161.83Y-88.866
X163.83Y-84.866
X163.83Y-86.866
X163.83Y-88.866
T5
X51.752Y-75.88
X54.292Y-75.88
X55.118Y-91.059
X55.245Y-99.772
X56.832Y-75.88
X57.658Y-91.059
X57.785Y-99.772
X60.198Y-91.059
X60.325Y-99.772
X62.369Y-75.818
X64.909Y-75.818
X65.786Y-91.059
X65.913Y-99.772
X67.449Y-75.818
X68.326Y-91.059
X68.453Y-99.772
X70.866Y-91.059
X70.993Y-99.772
X73.152Y-75.818
X75.692Y-75.818
X76.454Y-91.059
X76.581Y-99.772
X78.232Y-75.818
X78.994Y-91.059
X79.121Y-99.772
X81.534Y-91.059
X81.661Y-99.772
X83.82Y-75.817
X86.36Y-75.817
X88.9Y-75.817
X113.27Y-57.91
X113.27Y-60.45
X120.89Y-57.91
X120.89Y-60.45
X128.51Y-57.91
X128.51Y-60.45
X136.13Y-57.91
X136.13Y-60.45
X143.75Y-57.91
X143.75Y-60.45
X151.37Y-57.91
X151.37Y-60.45
X158.99Y-57.91
X158.99Y-60.45
X166.61Y-57.91
X166.61Y-60.45
X166.929Y-78.611
X166.929Y-81.151
X166.929Y-83.691
X166.929Y-86.231
X169.469Y-79.881
X169.469Y-82.421
X169.469Y-84.961
X169.469Y-87.501
X174.23Y-57.91
X174.23Y-60.45
T6
X45.085Y-123.082
X45.085Y-125.622
X45.085Y-128.162
T7
X179.109Y-76.731
X179.109Y-86.841
X180.899Y-79.271
X180.899Y-89.381
T8
X43.18Y-72.32
X43.18Y-80.52
T9
X172.769Y-75.181
X172.769Y-90.931
T11
X175.82Y-77.341
X175.82Y-88.771
T10
G00X46.702Y-136.463
M15
G01X48.802Y-136.463
M16
G05
G00X54.576Y-136.463
M15
G01X56.676Y-136.463
M16
G05
G00X64.99Y-136.463
M15
G01X67.09Y-136.463
M16
G05
G00X72.864Y-136.463
M15
G01X74.964Y-136.463
M16
G05
G00X83.278Y-136.463
M15
G01X85.378Y-136.463
M16
G05
G00X91.152Y-136.463
M15
G01X93.252Y-136.463
M16
G05
G00X101.651Y-136.519
M15
G01X103.751Y-136.519
M16
G05
G00X109.525Y-136.519
M15
G01X111.625Y-136.519
M16
G05
G00X120.066Y-136.773
M15
G01X122.166Y-136.773
M16
G05
G00X127.94Y-136.773
M15
G01X130.04Y-136.773
M16
G05
G00X138.227Y-136.773
M15
G01X140.327Y-136.773
M16
G05
G00X146.101Y-136.773
M15
G01X148.201Y-136.773
M16
G05
G00X156.502Y-136.773
M15
G01X158.602Y-136.773
M16
G05
G00X164.376Y-136.773
M15
G01X166.476Y-136.773
M16
G05
T0
M30
