M48
; DRILL file {KiCad (5.1.10)-1} date 12/26/21 20:54:11
; FORMAT={-:-/ absolute / inch / decimal}
; #@! TF.CreationDate,2021-12-26T20:54:11-06:00
; #@! TF.GenerationSoftware,Kicad,Pcbnew,(5.1.10)-1
; #@! TF.FileFunction,Plated,1,2,PTH
FMAT,2
INCH
T1C0.0157
T2C0.0350
T3C0.0354
T4C0.0394
T5C0.1598
%
G90
G05
T1
X1.2346Y-5.86
X1.26Y-4.02
X1.26Y-6.6
X1.3Y-5.3
X1.3Y-5.85
X1.3Y-5.95
X1.31Y-6.53
X1.4Y-4.035
X1.41Y-4.275
X1.41Y-6.9
X1.48Y-4.27
X1.5Y-5.4
X1.61Y-6.53
X1.61Y-6.9
X1.68Y-4.15
X1.69Y-4.66
X1.7Y-5.3
X1.7Y-5.85
X1.7Y-5.95
X1.7Y-7.04
X1.7Y-7.08
X1.7Y-7.12
X1.7Y-7.16
X1.71Y-6.53
X1.73Y-4.66
X1.74Y-7.0
X1.8Y-7.0
X1.81Y-3.775
X1.81Y-3.835
X1.81Y-3.895
X1.865Y-3.775
X1.865Y-3.835
X1.865Y-3.895
X1.875Y-4.065
X1.875Y-4.115
X1.92Y-3.775
X1.92Y-3.835
X1.92Y-3.895
X1.92Y-5.7
X1.94Y-6.57
X1.94Y-6.69
X1.98Y-6.96
X2.03Y-6.96
X2.0429Y-5.6471
X2.05Y-5.85
X2.05Y-5.95
X2.06Y-5.16
X2.08Y-6.33
X2.11Y-7.04
X2.14Y-6.63
X2.2Y-4.18
X2.23Y-6.63
X2.24Y-4.2
X2.24Y-7.16
X2.27Y-5.74
X2.27Y-6.01
X2.27Y-6.385
X2.28Y-4.22
X2.35Y-5.9
X2.39Y-6.075
X2.41Y-6.01
X2.42Y-5.58
X2.42Y-5.85
X2.43Y-7.0
X2.46Y-6.63
X2.5Y-5.85
X2.51Y-5.58
X2.525Y-3.775
X2.525Y-3.835
X2.525Y-3.895
X2.55Y-6.63
X2.56Y-7.12
X2.58Y-3.775
X2.58Y-3.835
X2.58Y-3.895
X2.595Y-4.065
X2.595Y-4.115
X2.635Y-3.775
X2.635Y-3.835
X2.635Y-3.895
X2.65Y-5.85
X2.75Y-6.96
X2.78Y-5.85
X2.78Y-6.63
X2.83Y-6.0
X2.87Y-6.63
X2.88Y-7.08
X2.9Y-5.85
X2.91Y-4.18
X2.95Y-4.18
X2.99Y-4.18
X2.99Y-4.6
X2.99Y-4.6586
X3.0Y-5.16
X3.09Y-6.63
X3.11Y-6.88
X3.24Y-3.775
X3.24Y-3.835
X3.24Y-3.895
X3.29Y-6.63
X3.295Y-3.775
X3.295Y-3.835
X3.295Y-3.895
X3.295Y-4.065
X3.295Y-4.115
X3.32Y-6.27
X3.35Y-3.775
X3.35Y-3.835
X3.35Y-3.895
X3.355Y-5.85
X3.42Y-5.98
X3.52Y-6.63
X3.52Y-6.82
X3.62Y-4.18
X3.66Y-4.18
X3.66Y-4.86
X3.66Y-4.93
X3.7Y-4.18
X3.72Y-6.63
X3.74Y-6.38
X3.86Y-6.82
X3.93Y-6.02
X3.935Y-5.85
X3.965Y-3.77
X3.965Y-3.83
X3.965Y-3.89
X4.0Y-5.16
X4.02Y-3.77
X4.02Y-3.83
X4.02Y-3.89
X4.02Y-4.065
X4.02Y-4.115
X4.03Y-5.91
X4.03Y-5.98
X4.03Y-6.03
X4.075Y-3.77
X4.075Y-3.83
X4.075Y-3.89
X4.11Y-6.03
X4.14Y-6.74
X4.14Y-6.81
X4.14Y-6.88
X4.14Y-6.95
X4.14Y-7.02
X4.14Y-7.09
X4.14Y-7.16
X4.16Y-5.93
X4.19Y-6.03
X4.35Y-4.18
X4.3894Y-4.18
X4.43Y-4.18
X4.51Y-4.56
X4.51Y-4.68
X4.56Y-6.04
X4.68Y-3.7775
X4.68Y-3.8375
X4.68Y-3.8975
X4.735Y-3.7775
X4.735Y-3.8375
X4.735Y-3.8975
X4.74Y-4.065
X4.74Y-4.115
X4.78Y-6.36
X4.79Y-3.7775
X4.79Y-3.8375
X4.79Y-3.8975
X4.81Y-6.05
X4.84Y-6.33
X4.85Y-5.99
X5.0Y-5.16
X5.05Y-6.3
X5.07Y-4.18
X5.11Y-4.18
X5.1494Y-4.18
X5.17Y-5.73
X5.4Y-3.78
X5.4Y-3.84
X5.4Y-3.9
X5.45Y-4.065
X5.45Y-4.115
X5.455Y-3.78
X5.455Y-3.84
X5.455Y-3.9
X5.51Y-3.78
X5.51Y-3.84
X5.51Y-3.9
X5.57Y-4.22
X5.57Y-4.26
X5.57Y-4.3
X5.6Y-5.2
X5.6Y-5.4
X5.77Y-4.26
X5.79Y-4.18
X5.8Y-5.3
X5.81Y-4.3
X5.8294Y-4.18
X6.0Y-5.2
X6.0Y-5.4
T2
X1.85Y-5.7
X1.85Y-5.8
X1.85Y-5.9
X1.85Y-6.43
X1.85Y-6.53
X1.85Y-6.63
X5.0Y-5.49
X5.0Y-5.59
X5.0Y-5.69
T3
X2.13Y-6.75
X2.14Y-6.51
X2.23Y-6.75
X2.24Y-6.51
X2.45Y-6.75
X2.46Y-6.51
X2.55Y-6.75
X2.56Y-6.51
X2.77Y-6.75
X2.78Y-6.51
X2.87Y-6.75
X2.88Y-6.51
X2.99Y-5.79
X3.09Y-5.79
X3.09Y-6.51
X3.09Y-6.75
X3.19Y-6.51
X3.19Y-6.75
X3.29Y-6.51
X3.29Y-6.75
X3.52Y-6.51
X3.52Y-6.75
X3.57Y-5.79
X3.62Y-6.51
X3.62Y-6.75
X3.67Y-5.79
X3.72Y-6.51
X3.72Y-6.75
X3.95Y-6.51
X4.05Y-6.51
X4.15Y-5.79
X4.15Y-6.51
X4.25Y-5.79
X4.93Y-5.96
X4.93Y-6.06
X4.93Y-6.16
X5.17Y-5.96
X5.17Y-6.06
X5.17Y-6.16
T4
X1.26Y-4.42
X1.26Y-4.52
X1.26Y-6.12
X1.26Y-6.22
X1.36Y-4.42
X1.36Y-4.52
X1.36Y-6.12
X1.36Y-6.22
X1.46Y-4.42
X1.46Y-4.52
X1.46Y-6.12
X1.46Y-6.22
X1.56Y-4.42
X1.56Y-4.52
X1.56Y-6.12
X1.56Y-6.22
X1.66Y-4.42
X1.66Y-4.52
X1.66Y-6.12
X1.66Y-6.22
X1.76Y-4.42
X1.76Y-4.52
X1.76Y-6.12
X1.76Y-6.22
X1.86Y-4.42
X1.86Y-4.52
X1.86Y-6.12
X1.86Y-6.22
X1.96Y-4.42
X1.96Y-4.52
X1.96Y-6.12
X1.96Y-6.22
X2.06Y-4.42
X2.06Y-4.52
X2.06Y-6.12
X2.06Y-6.22
X2.16Y-4.42
X2.16Y-4.52
X2.16Y-6.12
X2.16Y-6.22
X3.76Y-4.42
X3.76Y-4.52
X3.76Y-6.12
X3.76Y-6.22
X3.86Y-4.42
X3.86Y-4.52
X3.86Y-6.12
X3.86Y-6.22
X3.96Y-4.42
X3.96Y-4.52
X3.96Y-6.12
X3.96Y-6.22
X4.06Y-4.42
X4.06Y-4.52
X4.06Y-6.12
X4.06Y-6.22
X4.16Y-4.42
X4.16Y-4.52
X4.16Y-6.12
X4.16Y-6.22
X4.26Y-4.42
X4.26Y-4.52
X4.26Y-6.12
X4.26Y-6.22
X4.36Y-4.42
X4.36Y-4.52
X4.36Y-6.12
X4.36Y-6.22
X4.46Y-4.42
X4.46Y-4.52
X4.46Y-6.12
X4.46Y-6.22
X4.56Y-4.42
X4.56Y-4.52
X4.56Y-6.12
X4.56Y-6.22
X4.66Y-4.42
X4.66Y-4.52
X4.66Y-6.12
X4.66Y-6.22
T5
X1.71Y-3.466
X1.92Y-4.75
X1.92Y-5.06
X1.92Y-5.37
X2.02Y-3.466
X2.428Y-3.466
X2.738Y-3.466
X3.146Y-3.466
X3.456Y-3.466
X3.864Y-3.466
X4.174Y-3.466
X4.582Y-3.466
X4.892Y-3.466
X5.3Y-3.466
X5.4Y-4.64
X5.4Y-4.95
X5.4Y-5.26
X5.61Y-3.466
T0
M30
