M48
; DRILL file {KiCad (5.1.4)-1} date 12/1/2020 10:34:20 PM
; FORMAT={-:-/ absolute / inch / decimal}
; #@! TF.CreationDate,2020-12-01T22:34:20-06:00
; #@! TF.GenerationSoftware,Kicad,Pcbnew,(5.1.4)-1
; #@! TF.FileFunction,Plated,1,2,PTH
FMAT,2
INCH
T1C0.0157
T2C0.0350
T3C0.0354
T4C0.0394
T5C0.1598
T6C0.1616
%
G90
G05
T1
X1.39Y-3.58
X1.39Y-4.78
X1.41Y-3.34
X1.5Y-3.77
X1.51Y-3.31
X1.53Y-2.42
X1.53Y-2.49
X1.53Y-2.56
X1.56Y-3.07
X1.59Y-4.47
X1.59Y-4.71
X1.59Y-4.92
X1.6Y-3.21
X1.61Y-2.66
X1.61Y-2.73
X1.61Y-2.8
X1.61Y-3.62
X1.62Y-2.42
X1.62Y-2.49
X1.62Y-2.56
X1.63Y-3.29
X1.63Y-4.58
X1.63Y-5.04
X1.65Y-3.58
X1.66Y-3.34
X1.67Y-4.71
X1.67Y-4.78
X1.7Y-2.66
X1.7Y-2.73
X1.7Y-2.8
X1.7Y-3.21
X1.71Y-2.42
X1.71Y-2.49
X1.71Y-2.56
X1.75Y-3.46
X1.76Y-3.21
X1.76Y-5.04
X1.79Y-2.66
X1.79Y-2.73
X1.79Y-2.8
X1.79Y-2.89
X1.79Y-4.92
X1.8Y-3.66
X1.8Y-4.58
X1.82Y-3.58
X1.85Y-4.78
X1.86Y-2.42
X1.86Y-2.49
X1.86Y-2.56
X1.86Y-3.26
X1.87Y-2.66
X1.87Y-2.73
X1.87Y-2.8
X1.89Y-3.21
X1.91Y-4.56
X1.95Y-2.42
X1.95Y-2.49
X1.95Y-2.56
X1.95Y-3.29
X1.95Y-3.66
X1.95Y-4.54
X1.96Y-2.66
X1.96Y-2.73
X1.96Y-2.8
X1.96Y-4.78
X1.96Y-5.05
X1.98Y-4.11
X2.03Y-3.14
X2.03Y-4.07
X2.03Y-4.54
X2.04Y-2.42
X2.04Y-2.49
X2.04Y-2.56
X2.06Y-3.07
X2.06Y-3.3
X2.1Y-4.54
X2.15Y-4.78
X2.16Y-4.1
X2.17Y-2.89
X2.17Y-4.54
X2.17Y-4.96
X2.21Y-4.07
X2.23Y-3.68
X2.24Y-4.54
X2.24Y-4.78
X2.24Y-5.02
X2.27Y-3.26
X2.27Y-3.34
X2.29Y-2.42
X2.29Y-2.49
X2.29Y-2.56
X2.29Y-4.92
X2.31Y-3.14
X2.31Y-3.25
X2.35Y-3.68
X2.37Y-2.66
X2.37Y-2.73
X2.37Y-2.8
X2.38Y-2.42
X2.38Y-2.49
X2.38Y-2.56
X2.38Y-3.25
X2.38Y-3.58
X2.4Y-5.08
X2.41Y-4.78
X2.42Y-4.09
X2.45Y-3.49
X2.45Y-4.62
X2.46Y-2.66
X2.46Y-2.73
X2.46Y-2.8
X2.46Y-3.21
X2.47Y-2.42
X2.47Y-2.49
X2.47Y-2.56
X2.48Y-4.74
X2.49Y-3.37
X2.51Y-3.21
X2.53Y-4.16
X2.53Y-4.64
X2.53Y-4.74
X2.53Y-4.78
X2.53Y-4.99
X2.54Y-2.89
X2.55Y-2.66
X2.55Y-2.73
X2.55Y-2.8
X2.56Y-3.77
X2.6Y-4.52
X2.62Y-2.42
X2.62Y-2.49
X2.62Y-2.56
X2.62Y-4.16
X2.63Y-2.66
X2.63Y-2.73
X2.63Y-2.8
X2.63Y-3.21
X2.66Y-4.09
X2.67Y-3.57
X2.71Y-2.42
X2.71Y-2.49
X2.71Y-2.56
X2.72Y-2.66
X2.72Y-2.73
X2.72Y-2.8
X2.72Y-4.78
X2.75Y-4.96
X2.76Y-3.4
X2.78Y-4.09
X2.8Y-2.42
X2.8Y-2.49
X2.8Y-2.56
X2.82Y-3.3
X2.83Y-4.17
X2.84Y-4.63
X2.84Y-4.78
X2.84Y-4.96
X2.89Y-3.56
X2.92Y-2.89
X2.94Y-3.43
X2.99Y-4.12
X3.02Y-4.78
X3.03Y-3.34
X3.05Y-2.42
X3.05Y-2.49
X3.05Y-2.56
X3.06Y-3.95
X3.11Y-4.92
X3.13Y-2.66
X3.13Y-2.73
X3.13Y-2.8
X3.14Y-2.42
X3.14Y-2.49
X3.14Y-2.56
X3.15Y-4.78
X3.15Y-4.93
X3.17Y-4.71
X3.18Y-3.29
X3.18Y-4.82
X3.22Y-2.66
X3.22Y-2.73
X3.22Y-2.8
X3.22Y-3.21
X3.23Y-2.42
X3.23Y-2.49
X3.23Y-2.56
X3.23Y-4.41
X3.26Y-3.56
X3.26Y-3.67
X3.26Y-3.79
X3.27Y-3.21
X3.3Y-2.89
X3.3Y-3.62
X3.31Y-2.66
X3.31Y-2.73
X3.31Y-2.8
X3.34Y-3.46
X3.3553Y-5.1647
X3.36Y-4.78
X3.38Y-2.42
X3.38Y-2.49
X3.38Y-2.56
X3.39Y-2.66
X3.39Y-2.73
X3.39Y-2.8
X3.39Y-3.21
X3.4Y-4.4
X3.41Y-3.56
X3.41Y-3.64
X3.41Y-3.79
X3.46Y-5.08
X3.47Y-2.42
X3.47Y-2.49
X3.47Y-2.56
X3.48Y-2.66
X3.48Y-2.73
X3.48Y-2.8
X3.53Y-4.01
X3.53Y-4.44
X3.53Y-4.71
X3.56Y-2.42
X3.56Y-2.49
X3.56Y-2.56
X3.57Y-4.22
X3.58Y-3.37
X3.58Y-3.61
X3.69Y-3.13
X3.69Y-5.16
X3.72Y-4.31
X3.73Y-2.88
X3.73Y-3.49
X3.74Y-3.64
X3.76Y-3.02
X3.76Y-3.08
X3.76Y-3.17
X3.76Y-3.25
X3.76Y-3.34
X3.79Y-3.4
X3.79Y-3.49
X3.79Y-3.58
X3.81Y-4.06
X3.82Y-2.42
X3.82Y-2.49
X3.82Y-2.56
X3.84Y-3.05
X3.84Y-3.33
X3.84Y-3.43
X3.84Y-3.49
X3.84Y-3.58
X3.85Y-3.13
X3.87Y-4.02
X3.9Y-2.66
X3.9Y-2.73
X3.9Y-2.8
X3.91Y-2.42
X3.91Y-2.49
X3.91Y-2.56
X3.91Y-3.58
X3.96Y-3.36
X3.98Y-4.78
X3.98Y-4.9
X3.99Y-2.66
X3.99Y-2.73
X3.99Y-2.8
X3.99Y-3.21
X4.0Y-2.42
X4.0Y-2.49
X4.0Y-2.56
X4.01Y-3.58
X4.04Y-3.21
X4.06Y-3.25
X4.07Y-2.88
X4.07Y-4.24
X4.08Y-2.66
X4.08Y-2.73
X4.08Y-2.8
X4.09Y-3.36
X4.1Y-5.0486
X4.15Y-2.42
X4.15Y-2.49
X4.15Y-2.56
X4.16Y-2.66
X4.16Y-2.73
X4.16Y-2.8
X4.16Y-4.16
X4.17Y-3.21
X4.17Y-3.36
X4.19Y-4.87
X4.21Y-5.02
X4.22Y-4.47
X4.24Y-2.42
X4.24Y-2.49
X4.24Y-2.56
X4.25Y-2.66
X4.25Y-2.73
X4.25Y-2.8
X4.28Y-4.56
X4.31Y-4.99
X4.33Y-2.42
X4.33Y-2.49
X4.33Y-2.56
X4.35Y-3.33
X4.36Y-4.87
X4.39Y-4.55
X4.41Y-4.96
X4.46Y-2.89
X4.46Y-4.63
X4.51Y-4.93
X4.56Y-4.52
X4.57Y-3.28
X4.59Y-2.42
X4.59Y-2.49
X4.59Y-2.56
X4.6Y-4.9
X4.61Y-3.32
X4.65Y-4.59
X4.66Y-2.66
X4.66Y-2.73
X4.66Y-2.8
X4.66Y-5.02
X4.68Y-2.42
X4.68Y-2.49
X4.68Y-2.56
X4.73Y-4.53
X4.74Y-3.58
X4.75Y-2.66
X4.75Y-2.73
X4.75Y-2.8
X4.75Y-3.21
X4.77Y-2.42
X4.77Y-2.49
X4.77Y-2.56
X4.81Y-3.21
X4.81Y-3.82
X4.81Y-3.92
X4.84Y-2.66
X4.84Y-2.73
X4.84Y-2.8
X4.84Y-2.89
X4.87Y-3.25
X4.87Y-4.06
X4.91Y-3.49
X4.91Y-3.61
X4.92Y-2.42
X4.92Y-2.49
X4.92Y-2.56
X4.92Y-2.66
X4.92Y-2.73
X4.92Y-2.8
X4.94Y-3.21
X4.94Y-4.43
X4.94Y-4.48
X4.94Y-5.06
X4.95Y-3.32
X5.0Y-5.02
X5.01Y-2.42
X5.01Y-2.49
X5.01Y-2.56
X5.01Y-2.66
X5.01Y-2.73
X5.01Y-2.8
X5.09Y-4.18
X5.09Y-4.48
X5.1Y-2.42
X5.1Y-2.49
X5.1Y-2.56
X5.1Y-3.9414
X5.1Y-4.12
X5.12Y-3.46
X5.12Y-5.21
X5.16Y-3.8
X5.18Y-3.26
X5.18Y-3.32
X5.19Y-3.57
X5.2Y-3.84
X5.2Y-4.18
X5.24Y-2.89
X5.25Y-4.84
X5.3Y-2.96
X5.3Y-3.02
X5.3Y-3.08
X5.3Y-3.15
X5.3Y-3.26
X5.3Y-3.97
X5.36Y-3.49
X5.37Y-3.79
X5.38Y-2.42
X5.38Y-2.49
X5.38Y-2.56
X5.39Y-3.8324
X5.41Y-3.05
X5.41Y-3.13
X5.42Y-3.31
X5.42Y-3.64
X5.46Y-2.66
X5.46Y-2.73
X5.46Y-2.8
X5.46Y-3.21
X5.46Y-3.72
X5.47Y-2.42
X5.47Y-2.49
X5.47Y-2.56
X5.51Y-3.63
X5.51Y-4.09
X5.55Y-2.66
X5.55Y-2.73
X5.55Y-2.8
X5.55Y-3.21
X5.56Y-2.42
X5.56Y-2.49
X5.56Y-2.56
X5.61Y-3.21
X5.63Y-2.89
X5.64Y-2.66
X5.64Y-2.73
X5.64Y-2.8
X5.66Y-3.36
X5.71Y-2.42
X5.71Y-2.49
X5.71Y-2.56
X5.72Y-2.66
X5.72Y-2.73
X5.72Y-2.8
X5.73Y-3.21
X5.8Y-2.42
X5.8Y-2.49
X5.8Y-2.56
X5.8Y-3.26
X5.81Y-2.66
X5.81Y-2.73
X5.81Y-2.8
X5.89Y-2.42
X5.89Y-2.49
X5.89Y-2.56
X5.91Y-3.31
T2
X5.1Y-3.72
X5.2Y-3.72
X5.3Y-3.72
T3
X4.3Y-4.68
X4.3Y-4.78
X4.74Y-3.77
X4.74Y-3.87
X4.74Y-3.97
X4.3Y-4.3
X4.3Y-4.4
X4.74Y-4.68
X4.74Y-4.78
X4.74Y-4.3
X4.74Y-4.4
X4.3Y-3.775
X4.3Y-3.875
X4.3Y-3.975
T4
X1.41Y-3.41
X1.41Y-3.51
X1.41Y-5.11
X1.41Y-5.21
X1.51Y-3.41
X1.51Y-3.51
X1.51Y-5.11
X1.51Y-5.21
X1.61Y-3.41
X1.61Y-3.51
X1.61Y-5.11
X1.61Y-5.21
X1.71Y-3.41
X1.71Y-3.51
X1.71Y-5.11
X1.71Y-5.21
X1.81Y-3.41
X1.81Y-3.51
X1.81Y-5.11
X1.81Y-5.21
X1.91Y-3.41
X1.91Y-3.51
X1.91Y-5.11
X1.91Y-5.21
X2.01Y-3.41
X2.01Y-3.51
X2.01Y-5.11
X2.01Y-5.21
X2.11Y-3.41
X2.11Y-3.51
X2.11Y-5.11
X2.11Y-5.21
X2.21Y-3.41
X2.21Y-3.51
X2.21Y-5.11
X2.21Y-5.21
X2.31Y-3.41
X2.31Y-3.51
X2.31Y-5.11
X2.31Y-5.21
X3.91Y-3.41
X3.91Y-3.51
X3.91Y-5.11
X3.91Y-5.21
X4.01Y-3.41
X4.01Y-3.51
X4.01Y-5.11
X4.01Y-5.21
X4.11Y-3.41
X4.11Y-3.51
X4.11Y-5.11
X4.11Y-5.21
X4.21Y-3.41
X4.21Y-3.51
X4.21Y-5.11
X4.21Y-5.21
X4.31Y-3.41
X4.31Y-3.51
X4.31Y-5.11
X4.31Y-5.21
X4.41Y-3.41
X4.41Y-3.51
X4.41Y-5.11
X4.41Y-5.21
X4.51Y-3.41
X4.51Y-3.51
X4.51Y-5.11
X4.51Y-5.21
X4.61Y-3.41
X4.61Y-3.51
X4.61Y-5.11
X4.61Y-5.21
X4.71Y-3.41
X4.71Y-3.51
X4.71Y-5.11
X4.71Y-5.21
X4.81Y-3.41
X4.81Y-3.51
X4.81Y-5.11
X4.81Y-5.21
T5
X3.16Y-1.99
X3.47Y-1.99
X3.915Y-2.0
X4.225Y-2.0
X4.675Y-2.006
X4.985Y-2.006
X5.475Y-2.011
X5.785Y-2.011
X2.385Y-1.99
X2.695Y-1.99
X1.63Y-1.991
X1.94Y-1.991
T6
X5.68Y-3.63
X5.68Y-3.941
X5.68Y-4.252
X6.03Y-3.63
X6.03Y-3.941
X6.03Y-4.252
T0
M30
