G04 #@! TF.GenerationSoftware,KiCad,Pcbnew,(5.1.4)-1*
G04 #@! TF.CreationDate,2020-12-01T22:34:17-06:00*
G04 #@! TF.ProjectId,ScienceMotorController,53636965-6e63-4654-9d6f-746f72436f6e,rev?*
G04 #@! TF.SameCoordinates,Original*
G04 #@! TF.FileFunction,Soldermask,Bot*
G04 #@! TF.FilePolarity,Negative*
%FSLAX46Y46*%
G04 Gerber Fmt 4.6, Leading zero omitted, Abs format (unit mm)*
G04 Created by KiCad (PCBNEW (5.1.4)-1) date 2020-12-01 22:34:17*
%MOMM*%
%LPD*%
G04 APERTURE LIST*
%ADD10C,0.100000*%
G04 APERTURE END LIST*
D10*
G36*
X58910560Y-131554166D02*
G01*
X59058153Y-131615301D01*
X59190982Y-131704055D01*
X59303945Y-131817018D01*
X59392699Y-131949847D01*
X59453834Y-132097440D01*
X59485000Y-132254123D01*
X59485000Y-132413877D01*
X59453834Y-132570560D01*
X59392699Y-132718153D01*
X59303945Y-132850982D01*
X59190982Y-132963945D01*
X59058153Y-133052699D01*
X59058152Y-133052700D01*
X59058151Y-133052700D01*
X58910560Y-133113834D01*
X58753878Y-133145000D01*
X58594122Y-133145000D01*
X58437440Y-133113834D01*
X58289849Y-133052700D01*
X58289848Y-133052700D01*
X58289847Y-133052699D01*
X58157018Y-132963945D01*
X58044055Y-132850982D01*
X57955301Y-132718153D01*
X57894166Y-132570560D01*
X57863000Y-132413877D01*
X57863000Y-132254123D01*
X57894166Y-132097440D01*
X57955301Y-131949847D01*
X58044055Y-131817018D01*
X58157018Y-131704055D01*
X58289847Y-131615301D01*
X58437440Y-131554166D01*
X58594122Y-131523000D01*
X58753878Y-131523000D01*
X58910560Y-131554166D01*
X58910560Y-131554166D01*
G37*
G36*
X117330560Y-131554166D02*
G01*
X117478153Y-131615301D01*
X117610982Y-131704055D01*
X117723945Y-131817018D01*
X117812699Y-131949847D01*
X117873834Y-132097440D01*
X117905000Y-132254123D01*
X117905000Y-132413877D01*
X117873834Y-132570560D01*
X117812699Y-132718153D01*
X117723945Y-132850982D01*
X117610982Y-132963945D01*
X117478153Y-133052699D01*
X117478152Y-133052700D01*
X117478151Y-133052700D01*
X117330560Y-133113834D01*
X117173878Y-133145000D01*
X117014122Y-133145000D01*
X116857440Y-133113834D01*
X116709849Y-133052700D01*
X116709848Y-133052700D01*
X116709847Y-133052699D01*
X116577018Y-132963945D01*
X116464055Y-132850982D01*
X116375301Y-132718153D01*
X116314166Y-132570560D01*
X116283000Y-132413877D01*
X116283000Y-132254123D01*
X116314166Y-132097440D01*
X116375301Y-131949847D01*
X116464055Y-131817018D01*
X116577018Y-131704055D01*
X116709847Y-131615301D01*
X116857440Y-131554166D01*
X117014122Y-131523000D01*
X117173878Y-131523000D01*
X117330560Y-131554166D01*
X117330560Y-131554166D01*
G37*
G36*
X99550560Y-131554166D02*
G01*
X99698153Y-131615301D01*
X99830982Y-131704055D01*
X99943945Y-131817018D01*
X100032699Y-131949847D01*
X100093834Y-132097440D01*
X100125000Y-132254123D01*
X100125000Y-132413877D01*
X100093834Y-132570560D01*
X100032699Y-132718153D01*
X99943945Y-132850982D01*
X99830982Y-132963945D01*
X99698153Y-133052699D01*
X99698152Y-133052700D01*
X99698151Y-133052700D01*
X99550560Y-133113834D01*
X99393878Y-133145000D01*
X99234122Y-133145000D01*
X99077440Y-133113834D01*
X98929849Y-133052700D01*
X98929848Y-133052700D01*
X98929847Y-133052699D01*
X98797018Y-132963945D01*
X98684055Y-132850982D01*
X98595301Y-132718153D01*
X98534166Y-132570560D01*
X98503000Y-132413877D01*
X98503000Y-132254123D01*
X98534166Y-132097440D01*
X98595301Y-131949847D01*
X98684055Y-131817018D01*
X98797018Y-131704055D01*
X98929847Y-131615301D01*
X99077440Y-131554166D01*
X99234122Y-131523000D01*
X99393878Y-131523000D01*
X99550560Y-131554166D01*
X99550560Y-131554166D01*
G37*
G36*
X114790560Y-131554166D02*
G01*
X114938153Y-131615301D01*
X115070982Y-131704055D01*
X115183945Y-131817018D01*
X115272699Y-131949847D01*
X115333834Y-132097440D01*
X115365000Y-132254123D01*
X115365000Y-132413877D01*
X115333834Y-132570560D01*
X115272699Y-132718153D01*
X115183945Y-132850982D01*
X115070982Y-132963945D01*
X114938153Y-133052699D01*
X114938152Y-133052700D01*
X114938151Y-133052700D01*
X114790560Y-133113834D01*
X114633878Y-133145000D01*
X114474122Y-133145000D01*
X114317440Y-133113834D01*
X114169849Y-133052700D01*
X114169848Y-133052700D01*
X114169847Y-133052699D01*
X114037018Y-132963945D01*
X113924055Y-132850982D01*
X113835301Y-132718153D01*
X113774166Y-132570560D01*
X113743000Y-132413877D01*
X113743000Y-132254123D01*
X113774166Y-132097440D01*
X113835301Y-131949847D01*
X113924055Y-131817018D01*
X114037018Y-131704055D01*
X114169847Y-131615301D01*
X114317440Y-131554166D01*
X114474122Y-131523000D01*
X114633878Y-131523000D01*
X114790560Y-131554166D01*
X114790560Y-131554166D01*
G37*
G36*
X119870560Y-131554166D02*
G01*
X120018153Y-131615301D01*
X120150982Y-131704055D01*
X120263945Y-131817018D01*
X120352699Y-131949847D01*
X120413834Y-132097440D01*
X120445000Y-132254123D01*
X120445000Y-132413877D01*
X120413834Y-132570560D01*
X120352699Y-132718153D01*
X120263945Y-132850982D01*
X120150982Y-132963945D01*
X120018153Y-133052699D01*
X120018152Y-133052700D01*
X120018151Y-133052700D01*
X119870560Y-133113834D01*
X119713878Y-133145000D01*
X119554122Y-133145000D01*
X119397440Y-133113834D01*
X119249849Y-133052700D01*
X119249848Y-133052700D01*
X119249847Y-133052699D01*
X119117018Y-132963945D01*
X119004055Y-132850982D01*
X118915301Y-132718153D01*
X118854166Y-132570560D01*
X118823000Y-132413877D01*
X118823000Y-132254123D01*
X118854166Y-132097440D01*
X118915301Y-131949847D01*
X119004055Y-131817018D01*
X119117018Y-131704055D01*
X119249847Y-131615301D01*
X119397440Y-131554166D01*
X119554122Y-131523000D01*
X119713878Y-131523000D01*
X119870560Y-131554166D01*
X119870560Y-131554166D01*
G37*
G36*
X102090560Y-131554166D02*
G01*
X102238153Y-131615301D01*
X102370982Y-131704055D01*
X102483945Y-131817018D01*
X102572699Y-131949847D01*
X102633834Y-132097440D01*
X102665000Y-132254123D01*
X102665000Y-132413877D01*
X102633834Y-132570560D01*
X102572699Y-132718153D01*
X102483945Y-132850982D01*
X102370982Y-132963945D01*
X102238153Y-133052699D01*
X102238152Y-133052700D01*
X102238151Y-133052700D01*
X102090560Y-133113834D01*
X101933878Y-133145000D01*
X101774122Y-133145000D01*
X101617440Y-133113834D01*
X101469849Y-133052700D01*
X101469848Y-133052700D01*
X101469847Y-133052699D01*
X101337018Y-132963945D01*
X101224055Y-132850982D01*
X101135301Y-132718153D01*
X101074166Y-132570560D01*
X101043000Y-132413877D01*
X101043000Y-132254123D01*
X101074166Y-132097440D01*
X101135301Y-131949847D01*
X101224055Y-131817018D01*
X101337018Y-131704055D01*
X101469847Y-131615301D01*
X101617440Y-131554166D01*
X101774122Y-131523000D01*
X101933878Y-131523000D01*
X102090560Y-131554166D01*
X102090560Y-131554166D01*
G37*
G36*
X104630560Y-131554166D02*
G01*
X104778153Y-131615301D01*
X104910982Y-131704055D01*
X105023945Y-131817018D01*
X105112699Y-131949847D01*
X105173834Y-132097440D01*
X105205000Y-132254123D01*
X105205000Y-132413877D01*
X105173834Y-132570560D01*
X105112699Y-132718153D01*
X105023945Y-132850982D01*
X104910982Y-132963945D01*
X104778153Y-133052699D01*
X104778152Y-133052700D01*
X104778151Y-133052700D01*
X104630560Y-133113834D01*
X104473878Y-133145000D01*
X104314122Y-133145000D01*
X104157440Y-133113834D01*
X104009849Y-133052700D01*
X104009848Y-133052700D01*
X104009847Y-133052699D01*
X103877018Y-132963945D01*
X103764055Y-132850982D01*
X103675301Y-132718153D01*
X103614166Y-132570560D01*
X103583000Y-132413877D01*
X103583000Y-132254123D01*
X103614166Y-132097440D01*
X103675301Y-131949847D01*
X103764055Y-131817018D01*
X103877018Y-131704055D01*
X104009847Y-131615301D01*
X104157440Y-131554166D01*
X104314122Y-131523000D01*
X104473878Y-131523000D01*
X104630560Y-131554166D01*
X104630560Y-131554166D01*
G37*
G36*
X107170560Y-131554166D02*
G01*
X107318153Y-131615301D01*
X107450982Y-131704055D01*
X107563945Y-131817018D01*
X107652699Y-131949847D01*
X107713834Y-132097440D01*
X107745000Y-132254123D01*
X107745000Y-132413877D01*
X107713834Y-132570560D01*
X107652699Y-132718153D01*
X107563945Y-132850982D01*
X107450982Y-132963945D01*
X107318153Y-133052699D01*
X107318152Y-133052700D01*
X107318151Y-133052700D01*
X107170560Y-133113834D01*
X107013878Y-133145000D01*
X106854122Y-133145000D01*
X106697440Y-133113834D01*
X106549849Y-133052700D01*
X106549848Y-133052700D01*
X106549847Y-133052699D01*
X106417018Y-132963945D01*
X106304055Y-132850982D01*
X106215301Y-132718153D01*
X106154166Y-132570560D01*
X106123000Y-132413877D01*
X106123000Y-132254123D01*
X106154166Y-132097440D01*
X106215301Y-131949847D01*
X106304055Y-131817018D01*
X106417018Y-131704055D01*
X106549847Y-131615301D01*
X106697440Y-131554166D01*
X106854122Y-131523000D01*
X107013878Y-131523000D01*
X107170560Y-131554166D01*
X107170560Y-131554166D01*
G37*
G36*
X109710560Y-131554166D02*
G01*
X109858153Y-131615301D01*
X109990982Y-131704055D01*
X110103945Y-131817018D01*
X110192699Y-131949847D01*
X110253834Y-132097440D01*
X110285000Y-132254123D01*
X110285000Y-132413877D01*
X110253834Y-132570560D01*
X110192699Y-132718153D01*
X110103945Y-132850982D01*
X109990982Y-132963945D01*
X109858153Y-133052699D01*
X109858152Y-133052700D01*
X109858151Y-133052700D01*
X109710560Y-133113834D01*
X109553878Y-133145000D01*
X109394122Y-133145000D01*
X109237440Y-133113834D01*
X109089849Y-133052700D01*
X109089848Y-133052700D01*
X109089847Y-133052699D01*
X108957018Y-132963945D01*
X108844055Y-132850982D01*
X108755301Y-132718153D01*
X108694166Y-132570560D01*
X108663000Y-132413877D01*
X108663000Y-132254123D01*
X108694166Y-132097440D01*
X108755301Y-131949847D01*
X108844055Y-131817018D01*
X108957018Y-131704055D01*
X109089847Y-131615301D01*
X109237440Y-131554166D01*
X109394122Y-131523000D01*
X109553878Y-131523000D01*
X109710560Y-131554166D01*
X109710560Y-131554166D01*
G37*
G36*
X112250560Y-131554166D02*
G01*
X112398153Y-131615301D01*
X112530982Y-131704055D01*
X112643945Y-131817018D01*
X112732699Y-131949847D01*
X112793834Y-132097440D01*
X112825000Y-132254123D01*
X112825000Y-132413877D01*
X112793834Y-132570560D01*
X112732699Y-132718153D01*
X112643945Y-132850982D01*
X112530982Y-132963945D01*
X112398153Y-133052699D01*
X112398152Y-133052700D01*
X112398151Y-133052700D01*
X112250560Y-133113834D01*
X112093878Y-133145000D01*
X111934122Y-133145000D01*
X111777440Y-133113834D01*
X111629849Y-133052700D01*
X111629848Y-133052700D01*
X111629847Y-133052699D01*
X111497018Y-132963945D01*
X111384055Y-132850982D01*
X111295301Y-132718153D01*
X111234166Y-132570560D01*
X111203000Y-132413877D01*
X111203000Y-132254123D01*
X111234166Y-132097440D01*
X111295301Y-131949847D01*
X111384055Y-131817018D01*
X111497018Y-131704055D01*
X111629847Y-131615301D01*
X111777440Y-131554166D01*
X111934122Y-131523000D01*
X112093878Y-131523000D01*
X112250560Y-131554166D01*
X112250560Y-131554166D01*
G37*
G36*
X56370560Y-131554166D02*
G01*
X56518153Y-131615301D01*
X56650982Y-131704055D01*
X56763945Y-131817018D01*
X56852699Y-131949847D01*
X56913834Y-132097440D01*
X56945000Y-132254123D01*
X56945000Y-132413877D01*
X56913834Y-132570560D01*
X56852699Y-132718153D01*
X56763945Y-132850982D01*
X56650982Y-132963945D01*
X56518153Y-133052699D01*
X56518152Y-133052700D01*
X56518151Y-133052700D01*
X56370560Y-133113834D01*
X56213878Y-133145000D01*
X56054122Y-133145000D01*
X55897440Y-133113834D01*
X55749849Y-133052700D01*
X55749848Y-133052700D01*
X55749847Y-133052699D01*
X55617018Y-132963945D01*
X55504055Y-132850982D01*
X55415301Y-132718153D01*
X55354166Y-132570560D01*
X55323000Y-132413877D01*
X55323000Y-132254123D01*
X55354166Y-132097440D01*
X55415301Y-131949847D01*
X55504055Y-131817018D01*
X55617018Y-131704055D01*
X55749847Y-131615301D01*
X55897440Y-131554166D01*
X56054122Y-131523000D01*
X56213878Y-131523000D01*
X56370560Y-131554166D01*
X56370560Y-131554166D01*
G37*
G36*
X36050560Y-131554166D02*
G01*
X36198153Y-131615301D01*
X36330982Y-131704055D01*
X36443945Y-131817018D01*
X36532699Y-131949847D01*
X36593834Y-132097440D01*
X36625000Y-132254123D01*
X36625000Y-132413877D01*
X36593834Y-132570560D01*
X36532699Y-132718153D01*
X36443945Y-132850982D01*
X36330982Y-132963945D01*
X36198153Y-133052699D01*
X36198152Y-133052700D01*
X36198151Y-133052700D01*
X36050560Y-133113834D01*
X35893878Y-133145000D01*
X35734122Y-133145000D01*
X35577440Y-133113834D01*
X35429849Y-133052700D01*
X35429848Y-133052700D01*
X35429847Y-133052699D01*
X35297018Y-132963945D01*
X35184055Y-132850982D01*
X35095301Y-132718153D01*
X35034166Y-132570560D01*
X35003000Y-132413877D01*
X35003000Y-132254123D01*
X35034166Y-132097440D01*
X35095301Y-131949847D01*
X35184055Y-131817018D01*
X35297018Y-131704055D01*
X35429847Y-131615301D01*
X35577440Y-131554166D01*
X35734122Y-131523000D01*
X35893878Y-131523000D01*
X36050560Y-131554166D01*
X36050560Y-131554166D01*
G37*
G36*
X38590560Y-131554166D02*
G01*
X38738153Y-131615301D01*
X38870982Y-131704055D01*
X38983945Y-131817018D01*
X39072699Y-131949847D01*
X39133834Y-132097440D01*
X39165000Y-132254123D01*
X39165000Y-132413877D01*
X39133834Y-132570560D01*
X39072699Y-132718153D01*
X38983945Y-132850982D01*
X38870982Y-132963945D01*
X38738153Y-133052699D01*
X38738152Y-133052700D01*
X38738151Y-133052700D01*
X38590560Y-133113834D01*
X38433878Y-133145000D01*
X38274122Y-133145000D01*
X38117440Y-133113834D01*
X37969849Y-133052700D01*
X37969848Y-133052700D01*
X37969847Y-133052699D01*
X37837018Y-132963945D01*
X37724055Y-132850982D01*
X37635301Y-132718153D01*
X37574166Y-132570560D01*
X37543000Y-132413877D01*
X37543000Y-132254123D01*
X37574166Y-132097440D01*
X37635301Y-131949847D01*
X37724055Y-131817018D01*
X37837018Y-131704055D01*
X37969847Y-131615301D01*
X38117440Y-131554166D01*
X38274122Y-131523000D01*
X38433878Y-131523000D01*
X38590560Y-131554166D01*
X38590560Y-131554166D01*
G37*
G36*
X41130560Y-131554166D02*
G01*
X41278153Y-131615301D01*
X41410982Y-131704055D01*
X41523945Y-131817018D01*
X41612699Y-131949847D01*
X41673834Y-132097440D01*
X41705000Y-132254123D01*
X41705000Y-132413877D01*
X41673834Y-132570560D01*
X41612699Y-132718153D01*
X41523945Y-132850982D01*
X41410982Y-132963945D01*
X41278153Y-133052699D01*
X41278152Y-133052700D01*
X41278151Y-133052700D01*
X41130560Y-133113834D01*
X40973878Y-133145000D01*
X40814122Y-133145000D01*
X40657440Y-133113834D01*
X40509849Y-133052700D01*
X40509848Y-133052700D01*
X40509847Y-133052699D01*
X40377018Y-132963945D01*
X40264055Y-132850982D01*
X40175301Y-132718153D01*
X40114166Y-132570560D01*
X40083000Y-132413877D01*
X40083000Y-132254123D01*
X40114166Y-132097440D01*
X40175301Y-131949847D01*
X40264055Y-131817018D01*
X40377018Y-131704055D01*
X40509847Y-131615301D01*
X40657440Y-131554166D01*
X40814122Y-131523000D01*
X40973878Y-131523000D01*
X41130560Y-131554166D01*
X41130560Y-131554166D01*
G37*
G36*
X43670560Y-131554166D02*
G01*
X43818153Y-131615301D01*
X43950982Y-131704055D01*
X44063945Y-131817018D01*
X44152699Y-131949847D01*
X44213834Y-132097440D01*
X44245000Y-132254123D01*
X44245000Y-132413877D01*
X44213834Y-132570560D01*
X44152699Y-132718153D01*
X44063945Y-132850982D01*
X43950982Y-132963945D01*
X43818153Y-133052699D01*
X43818152Y-133052700D01*
X43818151Y-133052700D01*
X43670560Y-133113834D01*
X43513878Y-133145000D01*
X43354122Y-133145000D01*
X43197440Y-133113834D01*
X43049849Y-133052700D01*
X43049848Y-133052700D01*
X43049847Y-133052699D01*
X42917018Y-132963945D01*
X42804055Y-132850982D01*
X42715301Y-132718153D01*
X42654166Y-132570560D01*
X42623000Y-132413877D01*
X42623000Y-132254123D01*
X42654166Y-132097440D01*
X42715301Y-131949847D01*
X42804055Y-131817018D01*
X42917018Y-131704055D01*
X43049847Y-131615301D01*
X43197440Y-131554166D01*
X43354122Y-131523000D01*
X43513878Y-131523000D01*
X43670560Y-131554166D01*
X43670560Y-131554166D01*
G37*
G36*
X46210560Y-131554166D02*
G01*
X46358153Y-131615301D01*
X46490982Y-131704055D01*
X46603945Y-131817018D01*
X46692699Y-131949847D01*
X46753834Y-132097440D01*
X46785000Y-132254123D01*
X46785000Y-132413877D01*
X46753834Y-132570560D01*
X46692699Y-132718153D01*
X46603945Y-132850982D01*
X46490982Y-132963945D01*
X46358153Y-133052699D01*
X46358152Y-133052700D01*
X46358151Y-133052700D01*
X46210560Y-133113834D01*
X46053878Y-133145000D01*
X45894122Y-133145000D01*
X45737440Y-133113834D01*
X45589849Y-133052700D01*
X45589848Y-133052700D01*
X45589847Y-133052699D01*
X45457018Y-132963945D01*
X45344055Y-132850982D01*
X45255301Y-132718153D01*
X45194166Y-132570560D01*
X45163000Y-132413877D01*
X45163000Y-132254123D01*
X45194166Y-132097440D01*
X45255301Y-131949847D01*
X45344055Y-131817018D01*
X45457018Y-131704055D01*
X45589847Y-131615301D01*
X45737440Y-131554166D01*
X45894122Y-131523000D01*
X46053878Y-131523000D01*
X46210560Y-131554166D01*
X46210560Y-131554166D01*
G37*
G36*
X48750560Y-131554166D02*
G01*
X48898153Y-131615301D01*
X49030982Y-131704055D01*
X49143945Y-131817018D01*
X49232699Y-131949847D01*
X49293834Y-132097440D01*
X49325000Y-132254123D01*
X49325000Y-132413877D01*
X49293834Y-132570560D01*
X49232699Y-132718153D01*
X49143945Y-132850982D01*
X49030982Y-132963945D01*
X48898153Y-133052699D01*
X48898152Y-133052700D01*
X48898151Y-133052700D01*
X48750560Y-133113834D01*
X48593878Y-133145000D01*
X48434122Y-133145000D01*
X48277440Y-133113834D01*
X48129849Y-133052700D01*
X48129848Y-133052700D01*
X48129847Y-133052699D01*
X47997018Y-132963945D01*
X47884055Y-132850982D01*
X47795301Y-132718153D01*
X47734166Y-132570560D01*
X47703000Y-132413877D01*
X47703000Y-132254123D01*
X47734166Y-132097440D01*
X47795301Y-131949847D01*
X47884055Y-131817018D01*
X47997018Y-131704055D01*
X48129847Y-131615301D01*
X48277440Y-131554166D01*
X48434122Y-131523000D01*
X48593878Y-131523000D01*
X48750560Y-131554166D01*
X48750560Y-131554166D01*
G37*
G36*
X51290560Y-131554166D02*
G01*
X51438153Y-131615301D01*
X51570982Y-131704055D01*
X51683945Y-131817018D01*
X51772699Y-131949847D01*
X51833834Y-132097440D01*
X51865000Y-132254123D01*
X51865000Y-132413877D01*
X51833834Y-132570560D01*
X51772699Y-132718153D01*
X51683945Y-132850982D01*
X51570982Y-132963945D01*
X51438153Y-133052699D01*
X51438152Y-133052700D01*
X51438151Y-133052700D01*
X51290560Y-133113834D01*
X51133878Y-133145000D01*
X50974122Y-133145000D01*
X50817440Y-133113834D01*
X50669849Y-133052700D01*
X50669848Y-133052700D01*
X50669847Y-133052699D01*
X50537018Y-132963945D01*
X50424055Y-132850982D01*
X50335301Y-132718153D01*
X50274166Y-132570560D01*
X50243000Y-132413877D01*
X50243000Y-132254123D01*
X50274166Y-132097440D01*
X50335301Y-131949847D01*
X50424055Y-131817018D01*
X50537018Y-131704055D01*
X50669847Y-131615301D01*
X50817440Y-131554166D01*
X50974122Y-131523000D01*
X51133878Y-131523000D01*
X51290560Y-131554166D01*
X51290560Y-131554166D01*
G37*
G36*
X53830560Y-131554166D02*
G01*
X53978153Y-131615301D01*
X54110982Y-131704055D01*
X54223945Y-131817018D01*
X54312699Y-131949847D01*
X54373834Y-132097440D01*
X54405000Y-132254123D01*
X54405000Y-132413877D01*
X54373834Y-132570560D01*
X54312699Y-132718153D01*
X54223945Y-132850982D01*
X54110982Y-132963945D01*
X53978153Y-133052699D01*
X53978152Y-133052700D01*
X53978151Y-133052700D01*
X53830560Y-133113834D01*
X53673878Y-133145000D01*
X53514122Y-133145000D01*
X53357440Y-133113834D01*
X53209849Y-133052700D01*
X53209848Y-133052700D01*
X53209847Y-133052699D01*
X53077018Y-132963945D01*
X52964055Y-132850982D01*
X52875301Y-132718153D01*
X52814166Y-132570560D01*
X52783000Y-132413877D01*
X52783000Y-132254123D01*
X52814166Y-132097440D01*
X52875301Y-131949847D01*
X52964055Y-131817018D01*
X53077018Y-131704055D01*
X53209847Y-131615301D01*
X53357440Y-131554166D01*
X53514122Y-131523000D01*
X53673878Y-131523000D01*
X53830560Y-131554166D01*
X53830560Y-131554166D01*
G37*
G36*
X122410560Y-131554166D02*
G01*
X122558153Y-131615301D01*
X122690982Y-131704055D01*
X122803945Y-131817018D01*
X122892699Y-131949847D01*
X122953834Y-132097440D01*
X122985000Y-132254123D01*
X122985000Y-132413877D01*
X122953834Y-132570560D01*
X122892699Y-132718153D01*
X122803945Y-132850982D01*
X122690982Y-132963945D01*
X122558153Y-133052699D01*
X122558152Y-133052700D01*
X122558151Y-133052700D01*
X122410560Y-133113834D01*
X122253878Y-133145000D01*
X122094122Y-133145000D01*
X121937440Y-133113834D01*
X121789849Y-133052700D01*
X121789848Y-133052700D01*
X121789847Y-133052699D01*
X121657018Y-132963945D01*
X121544055Y-132850982D01*
X121455301Y-132718153D01*
X121394166Y-132570560D01*
X121363000Y-132413877D01*
X121363000Y-132254123D01*
X121394166Y-132097440D01*
X121455301Y-131949847D01*
X121544055Y-131817018D01*
X121657018Y-131704055D01*
X121789847Y-131615301D01*
X121937440Y-131554166D01*
X122094122Y-131523000D01*
X122253878Y-131523000D01*
X122410560Y-131554166D01*
X122410560Y-131554166D01*
G37*
G36*
X38590560Y-129014166D02*
G01*
X38738153Y-129075301D01*
X38870982Y-129164055D01*
X38983945Y-129277018D01*
X39072699Y-129409847D01*
X39133834Y-129557440D01*
X39165000Y-129714123D01*
X39165000Y-129873877D01*
X39133834Y-130030560D01*
X39072699Y-130178153D01*
X38983945Y-130310982D01*
X38870982Y-130423945D01*
X38738153Y-130512699D01*
X38738152Y-130512700D01*
X38738151Y-130512700D01*
X38590560Y-130573834D01*
X38433878Y-130605000D01*
X38274122Y-130605000D01*
X38117440Y-130573834D01*
X37969849Y-130512700D01*
X37969848Y-130512700D01*
X37969847Y-130512699D01*
X37837018Y-130423945D01*
X37724055Y-130310982D01*
X37635301Y-130178153D01*
X37574166Y-130030560D01*
X37543000Y-129873877D01*
X37543000Y-129714123D01*
X37574166Y-129557440D01*
X37635301Y-129409847D01*
X37724055Y-129277018D01*
X37837018Y-129164055D01*
X37969847Y-129075301D01*
X38117440Y-129014166D01*
X38274122Y-128983000D01*
X38433878Y-128983000D01*
X38590560Y-129014166D01*
X38590560Y-129014166D01*
G37*
G36*
X104630560Y-129014166D02*
G01*
X104778153Y-129075301D01*
X104910982Y-129164055D01*
X105023945Y-129277018D01*
X105112699Y-129409847D01*
X105173834Y-129557440D01*
X105205000Y-129714123D01*
X105205000Y-129873877D01*
X105173834Y-130030560D01*
X105112699Y-130178153D01*
X105023945Y-130310982D01*
X104910982Y-130423945D01*
X104778153Y-130512699D01*
X104778152Y-130512700D01*
X104778151Y-130512700D01*
X104630560Y-130573834D01*
X104473878Y-130605000D01*
X104314122Y-130605000D01*
X104157440Y-130573834D01*
X104009849Y-130512700D01*
X104009848Y-130512700D01*
X104009847Y-130512699D01*
X103877018Y-130423945D01*
X103764055Y-130310982D01*
X103675301Y-130178153D01*
X103614166Y-130030560D01*
X103583000Y-129873877D01*
X103583000Y-129714123D01*
X103614166Y-129557440D01*
X103675301Y-129409847D01*
X103764055Y-129277018D01*
X103877018Y-129164055D01*
X104009847Y-129075301D01*
X104157440Y-129014166D01*
X104314122Y-128983000D01*
X104473878Y-128983000D01*
X104630560Y-129014166D01*
X104630560Y-129014166D01*
G37*
G36*
X36050560Y-129014166D02*
G01*
X36198153Y-129075301D01*
X36330982Y-129164055D01*
X36443945Y-129277018D01*
X36532699Y-129409847D01*
X36593834Y-129557440D01*
X36625000Y-129714123D01*
X36625000Y-129873877D01*
X36593834Y-130030560D01*
X36532699Y-130178153D01*
X36443945Y-130310982D01*
X36330982Y-130423945D01*
X36198153Y-130512699D01*
X36198152Y-130512700D01*
X36198151Y-130512700D01*
X36050560Y-130573834D01*
X35893878Y-130605000D01*
X35734122Y-130605000D01*
X35577440Y-130573834D01*
X35429849Y-130512700D01*
X35429848Y-130512700D01*
X35429847Y-130512699D01*
X35297018Y-130423945D01*
X35184055Y-130310982D01*
X35095301Y-130178153D01*
X35034166Y-130030560D01*
X35003000Y-129873877D01*
X35003000Y-129714123D01*
X35034166Y-129557440D01*
X35095301Y-129409847D01*
X35184055Y-129277018D01*
X35297018Y-129164055D01*
X35429847Y-129075301D01*
X35577440Y-129014166D01*
X35734122Y-128983000D01*
X35893878Y-128983000D01*
X36050560Y-129014166D01*
X36050560Y-129014166D01*
G37*
G36*
X99550560Y-129014166D02*
G01*
X99698153Y-129075301D01*
X99830982Y-129164055D01*
X99943945Y-129277018D01*
X100032699Y-129409847D01*
X100093834Y-129557440D01*
X100125000Y-129714123D01*
X100125000Y-129873877D01*
X100093834Y-130030560D01*
X100032699Y-130178153D01*
X99943945Y-130310982D01*
X99830982Y-130423945D01*
X99698153Y-130512699D01*
X99698152Y-130512700D01*
X99698151Y-130512700D01*
X99550560Y-130573834D01*
X99393878Y-130605000D01*
X99234122Y-130605000D01*
X99077440Y-130573834D01*
X98929849Y-130512700D01*
X98929848Y-130512700D01*
X98929847Y-130512699D01*
X98797018Y-130423945D01*
X98684055Y-130310982D01*
X98595301Y-130178153D01*
X98534166Y-130030560D01*
X98503000Y-129873877D01*
X98503000Y-129714123D01*
X98534166Y-129557440D01*
X98595301Y-129409847D01*
X98684055Y-129277018D01*
X98797018Y-129164055D01*
X98929847Y-129075301D01*
X99077440Y-129014166D01*
X99234122Y-128983000D01*
X99393878Y-128983000D01*
X99550560Y-129014166D01*
X99550560Y-129014166D01*
G37*
G36*
X102090560Y-129014166D02*
G01*
X102238153Y-129075301D01*
X102370982Y-129164055D01*
X102483945Y-129277018D01*
X102572699Y-129409847D01*
X102633834Y-129557440D01*
X102665000Y-129714123D01*
X102665000Y-129873877D01*
X102633834Y-130030560D01*
X102572699Y-130178153D01*
X102483945Y-130310982D01*
X102370982Y-130423945D01*
X102238153Y-130512699D01*
X102238152Y-130512700D01*
X102238151Y-130512700D01*
X102090560Y-130573834D01*
X101933878Y-130605000D01*
X101774122Y-130605000D01*
X101617440Y-130573834D01*
X101469849Y-130512700D01*
X101469848Y-130512700D01*
X101469847Y-130512699D01*
X101337018Y-130423945D01*
X101224055Y-130310982D01*
X101135301Y-130178153D01*
X101074166Y-130030560D01*
X101043000Y-129873877D01*
X101043000Y-129714123D01*
X101074166Y-129557440D01*
X101135301Y-129409847D01*
X101224055Y-129277018D01*
X101337018Y-129164055D01*
X101469847Y-129075301D01*
X101617440Y-129014166D01*
X101774122Y-128983000D01*
X101933878Y-128983000D01*
X102090560Y-129014166D01*
X102090560Y-129014166D01*
G37*
G36*
X107170560Y-129014166D02*
G01*
X107318153Y-129075301D01*
X107450982Y-129164055D01*
X107563945Y-129277018D01*
X107652699Y-129409847D01*
X107713834Y-129557440D01*
X107745000Y-129714123D01*
X107745000Y-129873877D01*
X107713834Y-130030560D01*
X107652699Y-130178153D01*
X107563945Y-130310982D01*
X107450982Y-130423945D01*
X107318153Y-130512699D01*
X107318152Y-130512700D01*
X107318151Y-130512700D01*
X107170560Y-130573834D01*
X107013878Y-130605000D01*
X106854122Y-130605000D01*
X106697440Y-130573834D01*
X106549849Y-130512700D01*
X106549848Y-130512700D01*
X106549847Y-130512699D01*
X106417018Y-130423945D01*
X106304055Y-130310982D01*
X106215301Y-130178153D01*
X106154166Y-130030560D01*
X106123000Y-129873877D01*
X106123000Y-129714123D01*
X106154166Y-129557440D01*
X106215301Y-129409847D01*
X106304055Y-129277018D01*
X106417018Y-129164055D01*
X106549847Y-129075301D01*
X106697440Y-129014166D01*
X106854122Y-128983000D01*
X107013878Y-128983000D01*
X107170560Y-129014166D01*
X107170560Y-129014166D01*
G37*
G36*
X117330560Y-129014166D02*
G01*
X117478153Y-129075301D01*
X117610982Y-129164055D01*
X117723945Y-129277018D01*
X117812699Y-129409847D01*
X117873834Y-129557440D01*
X117905000Y-129714123D01*
X117905000Y-129873877D01*
X117873834Y-130030560D01*
X117812699Y-130178153D01*
X117723945Y-130310982D01*
X117610982Y-130423945D01*
X117478153Y-130512699D01*
X117478152Y-130512700D01*
X117478151Y-130512700D01*
X117330560Y-130573834D01*
X117173878Y-130605000D01*
X117014122Y-130605000D01*
X116857440Y-130573834D01*
X116709849Y-130512700D01*
X116709848Y-130512700D01*
X116709847Y-130512699D01*
X116577018Y-130423945D01*
X116464055Y-130310982D01*
X116375301Y-130178153D01*
X116314166Y-130030560D01*
X116283000Y-129873877D01*
X116283000Y-129714123D01*
X116314166Y-129557440D01*
X116375301Y-129409847D01*
X116464055Y-129277018D01*
X116577018Y-129164055D01*
X116709847Y-129075301D01*
X116857440Y-129014166D01*
X117014122Y-128983000D01*
X117173878Y-128983000D01*
X117330560Y-129014166D01*
X117330560Y-129014166D01*
G37*
G36*
X122410560Y-129014166D02*
G01*
X122558153Y-129075301D01*
X122690982Y-129164055D01*
X122803945Y-129277018D01*
X122892699Y-129409847D01*
X122953834Y-129557440D01*
X122985000Y-129714123D01*
X122985000Y-129873877D01*
X122953834Y-130030560D01*
X122892699Y-130178153D01*
X122803945Y-130310982D01*
X122690982Y-130423945D01*
X122558153Y-130512699D01*
X122558152Y-130512700D01*
X122558151Y-130512700D01*
X122410560Y-130573834D01*
X122253878Y-130605000D01*
X122094122Y-130605000D01*
X121937440Y-130573834D01*
X121789849Y-130512700D01*
X121789848Y-130512700D01*
X121789847Y-130512699D01*
X121657018Y-130423945D01*
X121544055Y-130310982D01*
X121455301Y-130178153D01*
X121394166Y-130030560D01*
X121363000Y-129873877D01*
X121363000Y-129714123D01*
X121394166Y-129557440D01*
X121455301Y-129409847D01*
X121544055Y-129277018D01*
X121657018Y-129164055D01*
X121789847Y-129075301D01*
X121937440Y-129014166D01*
X122094122Y-128983000D01*
X122253878Y-128983000D01*
X122410560Y-129014166D01*
X122410560Y-129014166D01*
G37*
G36*
X53830560Y-129014166D02*
G01*
X53978153Y-129075301D01*
X54110982Y-129164055D01*
X54223945Y-129277018D01*
X54312699Y-129409847D01*
X54373834Y-129557440D01*
X54405000Y-129714123D01*
X54405000Y-129873877D01*
X54373834Y-130030560D01*
X54312699Y-130178153D01*
X54223945Y-130310982D01*
X54110982Y-130423945D01*
X53978153Y-130512699D01*
X53978152Y-130512700D01*
X53978151Y-130512700D01*
X53830560Y-130573834D01*
X53673878Y-130605000D01*
X53514122Y-130605000D01*
X53357440Y-130573834D01*
X53209849Y-130512700D01*
X53209848Y-130512700D01*
X53209847Y-130512699D01*
X53077018Y-130423945D01*
X52964055Y-130310982D01*
X52875301Y-130178153D01*
X52814166Y-130030560D01*
X52783000Y-129873877D01*
X52783000Y-129714123D01*
X52814166Y-129557440D01*
X52875301Y-129409847D01*
X52964055Y-129277018D01*
X53077018Y-129164055D01*
X53209847Y-129075301D01*
X53357440Y-129014166D01*
X53514122Y-128983000D01*
X53673878Y-128983000D01*
X53830560Y-129014166D01*
X53830560Y-129014166D01*
G37*
G36*
X58910560Y-129014166D02*
G01*
X59058153Y-129075301D01*
X59190982Y-129164055D01*
X59303945Y-129277018D01*
X59392699Y-129409847D01*
X59453834Y-129557440D01*
X59485000Y-129714123D01*
X59485000Y-129873877D01*
X59453834Y-130030560D01*
X59392699Y-130178153D01*
X59303945Y-130310982D01*
X59190982Y-130423945D01*
X59058153Y-130512699D01*
X59058152Y-130512700D01*
X59058151Y-130512700D01*
X58910560Y-130573834D01*
X58753878Y-130605000D01*
X58594122Y-130605000D01*
X58437440Y-130573834D01*
X58289849Y-130512700D01*
X58289848Y-130512700D01*
X58289847Y-130512699D01*
X58157018Y-130423945D01*
X58044055Y-130310982D01*
X57955301Y-130178153D01*
X57894166Y-130030560D01*
X57863000Y-129873877D01*
X57863000Y-129714123D01*
X57894166Y-129557440D01*
X57955301Y-129409847D01*
X58044055Y-129277018D01*
X58157018Y-129164055D01*
X58289847Y-129075301D01*
X58437440Y-129014166D01*
X58594122Y-128983000D01*
X58753878Y-128983000D01*
X58910560Y-129014166D01*
X58910560Y-129014166D01*
G37*
G36*
X43670560Y-129014166D02*
G01*
X43818153Y-129075301D01*
X43950982Y-129164055D01*
X44063945Y-129277018D01*
X44152699Y-129409847D01*
X44213834Y-129557440D01*
X44245000Y-129714123D01*
X44245000Y-129873877D01*
X44213834Y-130030560D01*
X44152699Y-130178153D01*
X44063945Y-130310982D01*
X43950982Y-130423945D01*
X43818153Y-130512699D01*
X43818152Y-130512700D01*
X43818151Y-130512700D01*
X43670560Y-130573834D01*
X43513878Y-130605000D01*
X43354122Y-130605000D01*
X43197440Y-130573834D01*
X43049849Y-130512700D01*
X43049848Y-130512700D01*
X43049847Y-130512699D01*
X42917018Y-130423945D01*
X42804055Y-130310982D01*
X42715301Y-130178153D01*
X42654166Y-130030560D01*
X42623000Y-129873877D01*
X42623000Y-129714123D01*
X42654166Y-129557440D01*
X42715301Y-129409847D01*
X42804055Y-129277018D01*
X42917018Y-129164055D01*
X43049847Y-129075301D01*
X43197440Y-129014166D01*
X43354122Y-128983000D01*
X43513878Y-128983000D01*
X43670560Y-129014166D01*
X43670560Y-129014166D01*
G37*
G36*
X112250560Y-129014166D02*
G01*
X112398153Y-129075301D01*
X112530982Y-129164055D01*
X112643945Y-129277018D01*
X112732699Y-129409847D01*
X112793834Y-129557440D01*
X112825000Y-129714123D01*
X112825000Y-129873877D01*
X112793834Y-130030560D01*
X112732699Y-130178153D01*
X112643945Y-130310982D01*
X112530982Y-130423945D01*
X112398153Y-130512699D01*
X112398152Y-130512700D01*
X112398151Y-130512700D01*
X112250560Y-130573834D01*
X112093878Y-130605000D01*
X111934122Y-130605000D01*
X111777440Y-130573834D01*
X111629849Y-130512700D01*
X111629848Y-130512700D01*
X111629847Y-130512699D01*
X111497018Y-130423945D01*
X111384055Y-130310982D01*
X111295301Y-130178153D01*
X111234166Y-130030560D01*
X111203000Y-129873877D01*
X111203000Y-129714123D01*
X111234166Y-129557440D01*
X111295301Y-129409847D01*
X111384055Y-129277018D01*
X111497018Y-129164055D01*
X111629847Y-129075301D01*
X111777440Y-129014166D01*
X111934122Y-128983000D01*
X112093878Y-128983000D01*
X112250560Y-129014166D01*
X112250560Y-129014166D01*
G37*
G36*
X114790560Y-129014166D02*
G01*
X114938153Y-129075301D01*
X115070982Y-129164055D01*
X115183945Y-129277018D01*
X115272699Y-129409847D01*
X115333834Y-129557440D01*
X115365000Y-129714123D01*
X115365000Y-129873877D01*
X115333834Y-130030560D01*
X115272699Y-130178153D01*
X115183945Y-130310982D01*
X115070982Y-130423945D01*
X114938153Y-130512699D01*
X114938152Y-130512700D01*
X114938151Y-130512700D01*
X114790560Y-130573834D01*
X114633878Y-130605000D01*
X114474122Y-130605000D01*
X114317440Y-130573834D01*
X114169849Y-130512700D01*
X114169848Y-130512700D01*
X114169847Y-130512699D01*
X114037018Y-130423945D01*
X113924055Y-130310982D01*
X113835301Y-130178153D01*
X113774166Y-130030560D01*
X113743000Y-129873877D01*
X113743000Y-129714123D01*
X113774166Y-129557440D01*
X113835301Y-129409847D01*
X113924055Y-129277018D01*
X114037018Y-129164055D01*
X114169847Y-129075301D01*
X114317440Y-129014166D01*
X114474122Y-128983000D01*
X114633878Y-128983000D01*
X114790560Y-129014166D01*
X114790560Y-129014166D01*
G37*
G36*
X119870560Y-129014166D02*
G01*
X120018153Y-129075301D01*
X120150982Y-129164055D01*
X120263945Y-129277018D01*
X120352699Y-129409847D01*
X120413834Y-129557440D01*
X120445000Y-129714123D01*
X120445000Y-129873877D01*
X120413834Y-130030560D01*
X120352699Y-130178153D01*
X120263945Y-130310982D01*
X120150982Y-130423945D01*
X120018153Y-130512699D01*
X120018152Y-130512700D01*
X120018151Y-130512700D01*
X119870560Y-130573834D01*
X119713878Y-130605000D01*
X119554122Y-130605000D01*
X119397440Y-130573834D01*
X119249849Y-130512700D01*
X119249848Y-130512700D01*
X119249847Y-130512699D01*
X119117018Y-130423945D01*
X119004055Y-130310982D01*
X118915301Y-130178153D01*
X118854166Y-130030560D01*
X118823000Y-129873877D01*
X118823000Y-129714123D01*
X118854166Y-129557440D01*
X118915301Y-129409847D01*
X119004055Y-129277018D01*
X119117018Y-129164055D01*
X119249847Y-129075301D01*
X119397440Y-129014166D01*
X119554122Y-128983000D01*
X119713878Y-128983000D01*
X119870560Y-129014166D01*
X119870560Y-129014166D01*
G37*
G36*
X109710560Y-129014166D02*
G01*
X109858153Y-129075301D01*
X109990982Y-129164055D01*
X110103945Y-129277018D01*
X110192699Y-129409847D01*
X110253834Y-129557440D01*
X110285000Y-129714123D01*
X110285000Y-129873877D01*
X110253834Y-130030560D01*
X110192699Y-130178153D01*
X110103945Y-130310982D01*
X109990982Y-130423945D01*
X109858153Y-130512699D01*
X109858152Y-130512700D01*
X109858151Y-130512700D01*
X109710560Y-130573834D01*
X109553878Y-130605000D01*
X109394122Y-130605000D01*
X109237440Y-130573834D01*
X109089849Y-130512700D01*
X109089848Y-130512700D01*
X109089847Y-130512699D01*
X108957018Y-130423945D01*
X108844055Y-130310982D01*
X108755301Y-130178153D01*
X108694166Y-130030560D01*
X108663000Y-129873877D01*
X108663000Y-129714123D01*
X108694166Y-129557440D01*
X108755301Y-129409847D01*
X108844055Y-129277018D01*
X108957018Y-129164055D01*
X109089847Y-129075301D01*
X109237440Y-129014166D01*
X109394122Y-128983000D01*
X109553878Y-128983000D01*
X109710560Y-129014166D01*
X109710560Y-129014166D01*
G37*
G36*
X56370560Y-129014166D02*
G01*
X56518153Y-129075301D01*
X56650982Y-129164055D01*
X56763945Y-129277018D01*
X56852699Y-129409847D01*
X56913834Y-129557440D01*
X56945000Y-129714123D01*
X56945000Y-129873877D01*
X56913834Y-130030560D01*
X56852699Y-130178153D01*
X56763945Y-130310982D01*
X56650982Y-130423945D01*
X56518153Y-130512699D01*
X56518152Y-130512700D01*
X56518151Y-130512700D01*
X56370560Y-130573834D01*
X56213878Y-130605000D01*
X56054122Y-130605000D01*
X55897440Y-130573834D01*
X55749849Y-130512700D01*
X55749848Y-130512700D01*
X55749847Y-130512699D01*
X55617018Y-130423945D01*
X55504055Y-130310982D01*
X55415301Y-130178153D01*
X55354166Y-130030560D01*
X55323000Y-129873877D01*
X55323000Y-129714123D01*
X55354166Y-129557440D01*
X55415301Y-129409847D01*
X55504055Y-129277018D01*
X55617018Y-129164055D01*
X55749847Y-129075301D01*
X55897440Y-129014166D01*
X56054122Y-128983000D01*
X56213878Y-128983000D01*
X56370560Y-129014166D01*
X56370560Y-129014166D01*
G37*
G36*
X48750560Y-129014166D02*
G01*
X48898153Y-129075301D01*
X49030982Y-129164055D01*
X49143945Y-129277018D01*
X49232699Y-129409847D01*
X49293834Y-129557440D01*
X49325000Y-129714123D01*
X49325000Y-129873877D01*
X49293834Y-130030560D01*
X49232699Y-130178153D01*
X49143945Y-130310982D01*
X49030982Y-130423945D01*
X48898153Y-130512699D01*
X48898152Y-130512700D01*
X48898151Y-130512700D01*
X48750560Y-130573834D01*
X48593878Y-130605000D01*
X48434122Y-130605000D01*
X48277440Y-130573834D01*
X48129849Y-130512700D01*
X48129848Y-130512700D01*
X48129847Y-130512699D01*
X47997018Y-130423945D01*
X47884055Y-130310982D01*
X47795301Y-130178153D01*
X47734166Y-130030560D01*
X47703000Y-129873877D01*
X47703000Y-129714123D01*
X47734166Y-129557440D01*
X47795301Y-129409847D01*
X47884055Y-129277018D01*
X47997018Y-129164055D01*
X48129847Y-129075301D01*
X48277440Y-129014166D01*
X48434122Y-128983000D01*
X48593878Y-128983000D01*
X48750560Y-129014166D01*
X48750560Y-129014166D01*
G37*
G36*
X51290560Y-129014166D02*
G01*
X51438153Y-129075301D01*
X51570982Y-129164055D01*
X51683945Y-129277018D01*
X51772699Y-129409847D01*
X51833834Y-129557440D01*
X51865000Y-129714123D01*
X51865000Y-129873877D01*
X51833834Y-130030560D01*
X51772699Y-130178153D01*
X51683945Y-130310982D01*
X51570982Y-130423945D01*
X51438153Y-130512699D01*
X51438152Y-130512700D01*
X51438151Y-130512700D01*
X51290560Y-130573834D01*
X51133878Y-130605000D01*
X50974122Y-130605000D01*
X50817440Y-130573834D01*
X50669849Y-130512700D01*
X50669848Y-130512700D01*
X50669847Y-130512699D01*
X50537018Y-130423945D01*
X50424055Y-130310982D01*
X50335301Y-130178153D01*
X50274166Y-130030560D01*
X50243000Y-129873877D01*
X50243000Y-129714123D01*
X50274166Y-129557440D01*
X50335301Y-129409847D01*
X50424055Y-129277018D01*
X50537018Y-129164055D01*
X50669847Y-129075301D01*
X50817440Y-129014166D01*
X50974122Y-128983000D01*
X51133878Y-128983000D01*
X51290560Y-129014166D01*
X51290560Y-129014166D01*
G37*
G36*
X46210560Y-129014166D02*
G01*
X46358153Y-129075301D01*
X46490982Y-129164055D01*
X46603945Y-129277018D01*
X46692699Y-129409847D01*
X46753834Y-129557440D01*
X46785000Y-129714123D01*
X46785000Y-129873877D01*
X46753834Y-130030560D01*
X46692699Y-130178153D01*
X46603945Y-130310982D01*
X46490982Y-130423945D01*
X46358153Y-130512699D01*
X46358152Y-130512700D01*
X46358151Y-130512700D01*
X46210560Y-130573834D01*
X46053878Y-130605000D01*
X45894122Y-130605000D01*
X45737440Y-130573834D01*
X45589849Y-130512700D01*
X45589848Y-130512700D01*
X45589847Y-130512699D01*
X45457018Y-130423945D01*
X45344055Y-130310982D01*
X45255301Y-130178153D01*
X45194166Y-130030560D01*
X45163000Y-129873877D01*
X45163000Y-129714123D01*
X45194166Y-129557440D01*
X45255301Y-129409847D01*
X45344055Y-129277018D01*
X45457018Y-129164055D01*
X45589847Y-129075301D01*
X45737440Y-129014166D01*
X45894122Y-128983000D01*
X46053878Y-128983000D01*
X46210560Y-129014166D01*
X46210560Y-129014166D01*
G37*
G36*
X41130560Y-129014166D02*
G01*
X41278153Y-129075301D01*
X41410982Y-129164055D01*
X41523945Y-129277018D01*
X41612699Y-129409847D01*
X41673834Y-129557440D01*
X41705000Y-129714123D01*
X41705000Y-129873877D01*
X41673834Y-130030560D01*
X41612699Y-130178153D01*
X41523945Y-130310982D01*
X41410982Y-130423945D01*
X41278153Y-130512699D01*
X41278152Y-130512700D01*
X41278151Y-130512700D01*
X41130560Y-130573834D01*
X40973878Y-130605000D01*
X40814122Y-130605000D01*
X40657440Y-130573834D01*
X40509849Y-130512700D01*
X40509848Y-130512700D01*
X40509847Y-130512699D01*
X40377018Y-130423945D01*
X40264055Y-130310982D01*
X40175301Y-130178153D01*
X40114166Y-130030560D01*
X40083000Y-129873877D01*
X40083000Y-129714123D01*
X40114166Y-129557440D01*
X40175301Y-129409847D01*
X40264055Y-129277018D01*
X40377018Y-129164055D01*
X40509847Y-129075301D01*
X40657440Y-129014166D01*
X40814122Y-128983000D01*
X40973878Y-128983000D01*
X41130560Y-129014166D01*
X41130560Y-129014166D01*
G37*
G36*
X120633142Y-120630242D02*
G01*
X120781101Y-120691529D01*
X120914255Y-120780499D01*
X121027501Y-120893745D01*
X121116471Y-121026899D01*
X121177758Y-121174858D01*
X121209000Y-121331925D01*
X121209000Y-121492075D01*
X121177758Y-121649142D01*
X121116471Y-121797101D01*
X121027501Y-121930255D01*
X120914255Y-122043501D01*
X120781101Y-122132471D01*
X120633142Y-122193758D01*
X120476075Y-122225000D01*
X120315925Y-122225000D01*
X120158858Y-122193758D01*
X120010899Y-122132471D01*
X119877745Y-122043501D01*
X119764499Y-121930255D01*
X119675529Y-121797101D01*
X119614242Y-121649142D01*
X119583000Y-121492075D01*
X119583000Y-121331925D01*
X119614242Y-121174858D01*
X119675529Y-121026899D01*
X119764499Y-120893745D01*
X119877745Y-120780499D01*
X120010899Y-120691529D01*
X120158858Y-120630242D01*
X120315925Y-120599000D01*
X120476075Y-120599000D01*
X120633142Y-120630242D01*
X120633142Y-120630242D01*
G37*
G36*
X109457142Y-120630242D02*
G01*
X109605101Y-120691529D01*
X109738255Y-120780499D01*
X109851501Y-120893745D01*
X109940471Y-121026899D01*
X110001758Y-121174858D01*
X110033000Y-121331925D01*
X110033000Y-121492075D01*
X110001758Y-121649142D01*
X109940471Y-121797101D01*
X109851501Y-121930255D01*
X109738255Y-122043501D01*
X109605101Y-122132471D01*
X109457142Y-122193758D01*
X109300075Y-122225000D01*
X109139925Y-122225000D01*
X108982858Y-122193758D01*
X108834899Y-122132471D01*
X108701745Y-122043501D01*
X108588499Y-121930255D01*
X108499529Y-121797101D01*
X108438242Y-121649142D01*
X108407000Y-121492075D01*
X108407000Y-121331925D01*
X108438242Y-121174858D01*
X108499529Y-121026899D01*
X108588499Y-120893745D01*
X108701745Y-120780499D01*
X108834899Y-120691529D01*
X108982858Y-120630242D01*
X109139925Y-120599000D01*
X109300075Y-120599000D01*
X109457142Y-120630242D01*
X109457142Y-120630242D01*
G37*
G36*
X109457142Y-118090242D02*
G01*
X109605101Y-118151529D01*
X109738255Y-118240499D01*
X109851501Y-118353745D01*
X109940471Y-118486899D01*
X110001758Y-118634858D01*
X110033000Y-118791925D01*
X110033000Y-118952075D01*
X110001758Y-119109142D01*
X109940471Y-119257101D01*
X109851501Y-119390255D01*
X109738255Y-119503501D01*
X109605101Y-119592471D01*
X109457142Y-119653758D01*
X109300075Y-119685000D01*
X109139925Y-119685000D01*
X108982858Y-119653758D01*
X108834899Y-119592471D01*
X108701745Y-119503501D01*
X108588499Y-119390255D01*
X108499529Y-119257101D01*
X108438242Y-119109142D01*
X108407000Y-118952075D01*
X108407000Y-118791925D01*
X108438242Y-118634858D01*
X108499529Y-118486899D01*
X108588499Y-118353745D01*
X108701745Y-118240499D01*
X108834899Y-118151529D01*
X108982858Y-118090242D01*
X109139925Y-118059000D01*
X109300075Y-118059000D01*
X109457142Y-118090242D01*
X109457142Y-118090242D01*
G37*
G36*
X120633142Y-118090242D02*
G01*
X120781101Y-118151529D01*
X120914255Y-118240499D01*
X121027501Y-118353745D01*
X121116471Y-118486899D01*
X121177758Y-118634858D01*
X121209000Y-118791925D01*
X121209000Y-118952075D01*
X121177758Y-119109142D01*
X121116471Y-119257101D01*
X121027501Y-119390255D01*
X120914255Y-119503501D01*
X120781101Y-119592471D01*
X120633142Y-119653758D01*
X120476075Y-119685000D01*
X120315925Y-119685000D01*
X120158858Y-119653758D01*
X120010899Y-119592471D01*
X119877745Y-119503501D01*
X119764499Y-119390255D01*
X119675529Y-119257101D01*
X119614242Y-119109142D01*
X119583000Y-118952075D01*
X119583000Y-118791925D01*
X119614242Y-118634858D01*
X119675529Y-118486899D01*
X119764499Y-118353745D01*
X119877745Y-118240499D01*
X120010899Y-118151529D01*
X120158858Y-118090242D01*
X120315925Y-118059000D01*
X120476075Y-118059000D01*
X120633142Y-118090242D01*
X120633142Y-118090242D01*
G37*
G36*
X120633142Y-110978242D02*
G01*
X120781101Y-111039529D01*
X120914255Y-111128499D01*
X121027501Y-111241745D01*
X121116471Y-111374899D01*
X121177758Y-111522858D01*
X121209000Y-111679925D01*
X121209000Y-111840075D01*
X121177758Y-111997142D01*
X121116471Y-112145101D01*
X121027501Y-112278255D01*
X120914255Y-112391501D01*
X120781101Y-112480471D01*
X120633142Y-112541758D01*
X120476075Y-112573000D01*
X120315925Y-112573000D01*
X120158858Y-112541758D01*
X120010899Y-112480471D01*
X119877745Y-112391501D01*
X119764499Y-112278255D01*
X119675529Y-112145101D01*
X119614242Y-111997142D01*
X119583000Y-111840075D01*
X119583000Y-111679925D01*
X119614242Y-111522858D01*
X119675529Y-111374899D01*
X119764499Y-111241745D01*
X119877745Y-111128499D01*
X120010899Y-111039529D01*
X120158858Y-110978242D01*
X120315925Y-110947000D01*
X120476075Y-110947000D01*
X120633142Y-110978242D01*
X120633142Y-110978242D01*
G37*
G36*
X109457142Y-110978242D02*
G01*
X109605101Y-111039529D01*
X109738255Y-111128499D01*
X109851501Y-111241745D01*
X109940471Y-111374899D01*
X110001758Y-111522858D01*
X110033000Y-111679925D01*
X110033000Y-111840075D01*
X110001758Y-111997142D01*
X109940471Y-112145101D01*
X109851501Y-112278255D01*
X109738255Y-112391501D01*
X109605101Y-112480471D01*
X109457142Y-112541758D01*
X109300075Y-112573000D01*
X109139925Y-112573000D01*
X108982858Y-112541758D01*
X108834899Y-112480471D01*
X108701745Y-112391501D01*
X108588499Y-112278255D01*
X108499529Y-112145101D01*
X108438242Y-111997142D01*
X108407000Y-111840075D01*
X108407000Y-111679925D01*
X108438242Y-111522858D01*
X108499529Y-111374899D01*
X108588499Y-111241745D01*
X108701745Y-111128499D01*
X108834899Y-111039529D01*
X108982858Y-110978242D01*
X109139925Y-110947000D01*
X109300075Y-110947000D01*
X109457142Y-110978242D01*
X109457142Y-110978242D01*
G37*
G36*
X144860908Y-105477380D02*
G01*
X145027767Y-105510570D01*
X145499299Y-105705885D01*
X145742029Y-105868073D01*
X145923666Y-105989438D01*
X146284562Y-106350334D01*
X146405927Y-106531971D01*
X146568115Y-106774701D01*
X146763430Y-107246233D01*
X146763430Y-107246234D01*
X146863000Y-107746807D01*
X146863000Y-108257193D01*
X146826987Y-108438242D01*
X146763430Y-108757767D01*
X146568115Y-109229299D01*
X146415875Y-109457142D01*
X146284562Y-109653666D01*
X145923666Y-110014562D01*
X145742029Y-110135927D01*
X145499299Y-110298115D01*
X145027767Y-110493430D01*
X144860908Y-110526620D01*
X144527193Y-110593000D01*
X144016807Y-110593000D01*
X143683092Y-110526620D01*
X143516233Y-110493430D01*
X143044701Y-110298115D01*
X142801971Y-110135927D01*
X142620334Y-110014562D01*
X142259438Y-109653666D01*
X142128125Y-109457142D01*
X141975885Y-109229299D01*
X141780570Y-108757767D01*
X141717013Y-108438242D01*
X141681000Y-108257193D01*
X141681000Y-107746807D01*
X141780570Y-107246234D01*
X141780570Y-107246233D01*
X141975885Y-106774701D01*
X142138073Y-106531971D01*
X142259438Y-106350334D01*
X142620334Y-105989438D01*
X142801971Y-105868073D01*
X143044701Y-105705885D01*
X143516233Y-105510570D01*
X143683092Y-105477380D01*
X144016807Y-105411000D01*
X144527193Y-105411000D01*
X144860908Y-105477380D01*
X144860908Y-105477380D01*
G37*
G36*
X153750908Y-105477380D02*
G01*
X153917767Y-105510570D01*
X154389299Y-105705885D01*
X154632029Y-105868073D01*
X154813666Y-105989438D01*
X155174562Y-106350334D01*
X155295927Y-106531971D01*
X155458115Y-106774701D01*
X155653430Y-107246233D01*
X155653430Y-107246234D01*
X155753000Y-107746807D01*
X155753000Y-108257193D01*
X155716987Y-108438242D01*
X155653430Y-108757767D01*
X155458115Y-109229299D01*
X155305875Y-109457142D01*
X155174562Y-109653666D01*
X154813666Y-110014562D01*
X154632029Y-110135927D01*
X154389299Y-110298115D01*
X153917767Y-110493430D01*
X153750908Y-110526620D01*
X153417193Y-110593000D01*
X152906807Y-110593000D01*
X152573092Y-110526620D01*
X152406233Y-110493430D01*
X151934701Y-110298115D01*
X151691971Y-110135927D01*
X151510334Y-110014562D01*
X151149438Y-109653666D01*
X151018125Y-109457142D01*
X150865885Y-109229299D01*
X150670570Y-108757767D01*
X150607013Y-108438242D01*
X150571000Y-108257193D01*
X150571000Y-107746807D01*
X150670570Y-107246234D01*
X150670570Y-107246233D01*
X150865885Y-106774701D01*
X151028073Y-106531971D01*
X151149438Y-106350334D01*
X151510334Y-105989438D01*
X151691971Y-105868073D01*
X151934701Y-105705885D01*
X152406233Y-105510570D01*
X152573092Y-105477380D01*
X152906807Y-105411000D01*
X153417193Y-105411000D01*
X153750908Y-105477380D01*
X153750908Y-105477380D01*
G37*
G36*
X120633142Y-108438242D02*
G01*
X120781101Y-108499529D01*
X120914255Y-108588499D01*
X121027501Y-108701745D01*
X121116471Y-108834899D01*
X121177758Y-108982858D01*
X121209000Y-109139925D01*
X121209000Y-109300075D01*
X121177758Y-109457142D01*
X121116471Y-109605101D01*
X121027501Y-109738255D01*
X120914255Y-109851501D01*
X120781101Y-109940471D01*
X120633142Y-110001758D01*
X120476075Y-110033000D01*
X120315925Y-110033000D01*
X120158858Y-110001758D01*
X120010899Y-109940471D01*
X119877745Y-109851501D01*
X119764499Y-109738255D01*
X119675529Y-109605101D01*
X119614242Y-109457142D01*
X119583000Y-109300075D01*
X119583000Y-109139925D01*
X119614242Y-108982858D01*
X119675529Y-108834899D01*
X119764499Y-108701745D01*
X119877745Y-108588499D01*
X120010899Y-108499529D01*
X120158858Y-108438242D01*
X120315925Y-108407000D01*
X120476075Y-108407000D01*
X120633142Y-108438242D01*
X120633142Y-108438242D01*
G37*
G36*
X109457142Y-108438242D02*
G01*
X109605101Y-108499529D01*
X109738255Y-108588499D01*
X109851501Y-108701745D01*
X109940471Y-108834899D01*
X110001758Y-108982858D01*
X110033000Y-109139925D01*
X110033000Y-109300075D01*
X110001758Y-109457142D01*
X109940471Y-109605101D01*
X109851501Y-109738255D01*
X109738255Y-109851501D01*
X109605101Y-109940471D01*
X109457142Y-110001758D01*
X109300075Y-110033000D01*
X109139925Y-110033000D01*
X108982858Y-110001758D01*
X108834899Y-109940471D01*
X108701745Y-109851501D01*
X108588499Y-109738255D01*
X108499529Y-109605101D01*
X108438242Y-109457142D01*
X108407000Y-109300075D01*
X108407000Y-109139925D01*
X108438242Y-108982858D01*
X108499529Y-108834899D01*
X108588499Y-108701745D01*
X108701745Y-108588499D01*
X108834899Y-108499529D01*
X108982858Y-108438242D01*
X109139925Y-108407000D01*
X109300075Y-108407000D01*
X109457142Y-108438242D01*
X109457142Y-108438242D01*
G37*
G36*
X144860908Y-97577380D02*
G01*
X145027767Y-97610570D01*
X145499299Y-97805885D01*
X145742029Y-97968073D01*
X145923666Y-98089438D01*
X146284562Y-98450334D01*
X146341229Y-98535143D01*
X146568115Y-98874701D01*
X146718598Y-99238000D01*
X146763430Y-99346234D01*
X146863000Y-99846807D01*
X146863000Y-100357193D01*
X146818701Y-100579899D01*
X146763430Y-100857767D01*
X146568115Y-101329299D01*
X146465243Y-101483257D01*
X146284562Y-101753666D01*
X145923666Y-102114562D01*
X145742029Y-102235927D01*
X145499299Y-102398115D01*
X145027767Y-102593430D01*
X144860908Y-102626620D01*
X144527193Y-102693000D01*
X144016807Y-102693000D01*
X143683092Y-102626620D01*
X143516233Y-102593430D01*
X143044701Y-102398115D01*
X142801971Y-102235927D01*
X142620334Y-102114562D01*
X142259438Y-101753666D01*
X142078757Y-101483257D01*
X141975885Y-101329299D01*
X141780570Y-100857767D01*
X141725299Y-100579899D01*
X141681000Y-100357193D01*
X141681000Y-99846807D01*
X141780570Y-99346234D01*
X141825402Y-99238000D01*
X141975885Y-98874701D01*
X142202771Y-98535143D01*
X142259438Y-98450334D01*
X142620334Y-98089438D01*
X142801971Y-97968073D01*
X143044701Y-97805885D01*
X143516233Y-97610570D01*
X143683092Y-97577380D01*
X144016807Y-97511000D01*
X144527193Y-97511000D01*
X144860908Y-97577380D01*
X144860908Y-97577380D01*
G37*
G36*
X153750908Y-97577380D02*
G01*
X153917767Y-97610570D01*
X154389299Y-97805885D01*
X154632029Y-97968073D01*
X154813666Y-98089438D01*
X155174562Y-98450334D01*
X155231229Y-98535143D01*
X155458115Y-98874701D01*
X155608598Y-99238000D01*
X155653430Y-99346234D01*
X155753000Y-99846807D01*
X155753000Y-100357193D01*
X155708701Y-100579899D01*
X155653430Y-100857767D01*
X155458115Y-101329299D01*
X155355243Y-101483257D01*
X155174562Y-101753666D01*
X154813666Y-102114562D01*
X154632029Y-102235927D01*
X154389299Y-102398115D01*
X153917767Y-102593430D01*
X153750908Y-102626620D01*
X153417193Y-102693000D01*
X152906807Y-102693000D01*
X152573092Y-102626620D01*
X152406233Y-102593430D01*
X151934701Y-102398115D01*
X151691971Y-102235927D01*
X151510334Y-102114562D01*
X151149438Y-101753666D01*
X150968757Y-101483257D01*
X150865885Y-101329299D01*
X150670570Y-100857767D01*
X150615299Y-100579899D01*
X150571000Y-100357193D01*
X150571000Y-99846807D01*
X150670570Y-99346234D01*
X150715402Y-99238000D01*
X150865885Y-98874701D01*
X151092771Y-98535143D01*
X151149438Y-98450334D01*
X151510334Y-98089438D01*
X151691971Y-97968073D01*
X151934701Y-97805885D01*
X152406233Y-97610570D01*
X152573092Y-97577380D01*
X152906807Y-97511000D01*
X153417193Y-97511000D01*
X153750908Y-97577380D01*
X153750908Y-97577380D01*
G37*
G36*
X109457142Y-100183242D02*
G01*
X109605101Y-100244529D01*
X109738255Y-100333499D01*
X109851501Y-100446745D01*
X109940471Y-100579899D01*
X110001758Y-100727858D01*
X110033000Y-100884925D01*
X110033000Y-101045075D01*
X110001758Y-101202142D01*
X109940471Y-101350101D01*
X109851501Y-101483255D01*
X109738255Y-101596501D01*
X109605101Y-101685471D01*
X109457142Y-101746758D01*
X109300075Y-101778000D01*
X109139925Y-101778000D01*
X108982858Y-101746758D01*
X108834899Y-101685471D01*
X108701745Y-101596501D01*
X108588499Y-101483255D01*
X108499529Y-101350101D01*
X108438242Y-101202142D01*
X108407000Y-101045075D01*
X108407000Y-100884925D01*
X108438242Y-100727858D01*
X108499529Y-100579899D01*
X108588499Y-100446745D01*
X108701745Y-100333499D01*
X108834899Y-100244529D01*
X108982858Y-100183242D01*
X109139925Y-100152000D01*
X109300075Y-100152000D01*
X109457142Y-100183242D01*
X109457142Y-100183242D01*
G37*
G36*
X120633142Y-100056242D02*
G01*
X120781101Y-100117529D01*
X120914255Y-100206499D01*
X121027501Y-100319745D01*
X121116471Y-100452899D01*
X121177758Y-100600858D01*
X121209000Y-100757925D01*
X121209000Y-100918075D01*
X121177758Y-101075142D01*
X121116471Y-101223101D01*
X121027501Y-101356255D01*
X120914255Y-101469501D01*
X120781101Y-101558471D01*
X120633142Y-101619758D01*
X120476075Y-101651000D01*
X120315925Y-101651000D01*
X120158858Y-101619758D01*
X120010899Y-101558471D01*
X119877745Y-101469501D01*
X119764499Y-101356255D01*
X119675529Y-101223101D01*
X119614242Y-101075142D01*
X119583000Y-100918075D01*
X119583000Y-100757925D01*
X119614242Y-100600858D01*
X119675529Y-100452899D01*
X119764499Y-100319745D01*
X119877745Y-100206499D01*
X120010899Y-100117529D01*
X120158858Y-100056242D01*
X120315925Y-100025000D01*
X120476075Y-100025000D01*
X120633142Y-100056242D01*
X120633142Y-100056242D01*
G37*
G36*
X109457142Y-97643242D02*
G01*
X109605101Y-97704529D01*
X109738255Y-97793499D01*
X109851501Y-97906745D01*
X109940471Y-98039899D01*
X110001758Y-98187858D01*
X110033000Y-98344925D01*
X110033000Y-98505075D01*
X110001758Y-98662142D01*
X109940471Y-98810101D01*
X109851501Y-98943255D01*
X109738255Y-99056501D01*
X109605101Y-99145471D01*
X109457142Y-99206758D01*
X109300075Y-99238000D01*
X109139925Y-99238000D01*
X108982858Y-99206758D01*
X108834899Y-99145471D01*
X108701745Y-99056501D01*
X108588499Y-98943255D01*
X108499529Y-98810101D01*
X108438242Y-98662142D01*
X108407000Y-98505075D01*
X108407000Y-98344925D01*
X108438242Y-98187858D01*
X108499529Y-98039899D01*
X108588499Y-97906745D01*
X108701745Y-97793499D01*
X108834899Y-97704529D01*
X108982858Y-97643242D01*
X109139925Y-97612000D01*
X109300075Y-97612000D01*
X109457142Y-97643242D01*
X109457142Y-97643242D01*
G37*
G36*
X120633142Y-97516242D02*
G01*
X120781101Y-97577529D01*
X120914255Y-97666499D01*
X121027501Y-97779745D01*
X121116471Y-97912899D01*
X121177758Y-98060858D01*
X121209000Y-98217925D01*
X121209000Y-98378075D01*
X121177758Y-98535142D01*
X121116471Y-98683101D01*
X121027501Y-98816255D01*
X120914255Y-98929501D01*
X120781101Y-99018471D01*
X120633142Y-99079758D01*
X120476075Y-99111000D01*
X120315925Y-99111000D01*
X120158858Y-99079758D01*
X120010899Y-99018471D01*
X119877745Y-98929501D01*
X119764499Y-98816255D01*
X119675529Y-98683101D01*
X119614242Y-98535142D01*
X119583000Y-98378075D01*
X119583000Y-98217925D01*
X119614242Y-98060858D01*
X119675529Y-97912899D01*
X119764499Y-97779745D01*
X119877745Y-97666499D01*
X120010899Y-97577529D01*
X120158858Y-97516242D01*
X120315925Y-97485000D01*
X120476075Y-97485000D01*
X120633142Y-97516242D01*
X120633142Y-97516242D01*
G37*
G36*
X109457142Y-95103242D02*
G01*
X109605101Y-95164529D01*
X109738255Y-95253499D01*
X109851501Y-95366745D01*
X109940471Y-95499899D01*
X110001758Y-95647858D01*
X110033000Y-95804925D01*
X110033000Y-95965075D01*
X110001758Y-96122142D01*
X109940471Y-96270101D01*
X109851501Y-96403255D01*
X109738255Y-96516501D01*
X109605101Y-96605471D01*
X109457142Y-96666758D01*
X109300075Y-96698000D01*
X109139925Y-96698000D01*
X108982858Y-96666758D01*
X108834899Y-96605471D01*
X108701745Y-96516501D01*
X108588499Y-96403255D01*
X108499529Y-96270101D01*
X108438242Y-96122142D01*
X108407000Y-95965075D01*
X108407000Y-95804925D01*
X108438242Y-95647858D01*
X108499529Y-95499899D01*
X108588499Y-95366745D01*
X108701745Y-95253499D01*
X108834899Y-95164529D01*
X108982858Y-95103242D01*
X109139925Y-95072000D01*
X109300075Y-95072000D01*
X109457142Y-95103242D01*
X109457142Y-95103242D01*
G37*
G36*
X120633142Y-94976242D02*
G01*
X120781101Y-95037529D01*
X120914255Y-95126499D01*
X121027501Y-95239745D01*
X121116471Y-95372899D01*
X121177758Y-95520858D01*
X121209000Y-95677925D01*
X121209000Y-95838075D01*
X121177758Y-95995142D01*
X121116471Y-96143101D01*
X121027501Y-96276255D01*
X120914255Y-96389501D01*
X120781101Y-96478471D01*
X120633142Y-96539758D01*
X120476075Y-96571000D01*
X120315925Y-96571000D01*
X120158858Y-96539758D01*
X120010899Y-96478471D01*
X119877745Y-96389501D01*
X119764499Y-96276255D01*
X119675529Y-96143101D01*
X119614242Y-95995142D01*
X119583000Y-95838075D01*
X119583000Y-95677925D01*
X119614242Y-95520858D01*
X119675529Y-95372899D01*
X119764499Y-95239745D01*
X119877745Y-95126499D01*
X120010899Y-95037529D01*
X120158858Y-94976242D01*
X120315925Y-94945000D01*
X120476075Y-94945000D01*
X120633142Y-94976242D01*
X120633142Y-94976242D01*
G37*
G36*
X134857142Y-93706242D02*
G01*
X135005101Y-93767529D01*
X135138255Y-93856499D01*
X135251501Y-93969745D01*
X135340471Y-94102899D01*
X135401758Y-94250858D01*
X135433000Y-94407925D01*
X135433000Y-94568075D01*
X135401758Y-94725142D01*
X135340471Y-94873101D01*
X135251501Y-95006255D01*
X135138255Y-95119501D01*
X135005101Y-95208471D01*
X134857142Y-95269758D01*
X134700075Y-95301000D01*
X134539925Y-95301000D01*
X134382858Y-95269758D01*
X134234899Y-95208471D01*
X134101745Y-95119501D01*
X133988499Y-95006255D01*
X133899529Y-94873101D01*
X133838242Y-94725142D01*
X133807000Y-94568075D01*
X133807000Y-94407925D01*
X133838242Y-94250858D01*
X133899529Y-94102899D01*
X133988499Y-93969745D01*
X134101745Y-93856499D01*
X134234899Y-93767529D01*
X134382858Y-93706242D01*
X134539925Y-93675000D01*
X134700075Y-93675000D01*
X134857142Y-93706242D01*
X134857142Y-93706242D01*
G37*
G36*
X129777142Y-93706242D02*
G01*
X129925101Y-93767529D01*
X130058255Y-93856499D01*
X130171501Y-93969745D01*
X130260471Y-94102899D01*
X130321758Y-94250858D01*
X130353000Y-94407925D01*
X130353000Y-94568075D01*
X130321758Y-94725142D01*
X130260471Y-94873101D01*
X130171501Y-95006255D01*
X130058255Y-95119501D01*
X129925101Y-95208471D01*
X129777142Y-95269758D01*
X129620075Y-95301000D01*
X129459925Y-95301000D01*
X129302858Y-95269758D01*
X129154899Y-95208471D01*
X129021745Y-95119501D01*
X128908499Y-95006255D01*
X128819529Y-94873101D01*
X128758242Y-94725142D01*
X128727000Y-94568075D01*
X128727000Y-94407925D01*
X128758242Y-94250858D01*
X128819529Y-94102899D01*
X128908499Y-93969745D01*
X129021745Y-93856499D01*
X129154899Y-93767529D01*
X129302858Y-93706242D01*
X129459925Y-93675000D01*
X129620075Y-93675000D01*
X129777142Y-93706242D01*
X129777142Y-93706242D01*
G37*
G36*
X132317142Y-93706242D02*
G01*
X132465101Y-93767529D01*
X132598255Y-93856499D01*
X132711501Y-93969745D01*
X132800471Y-94102899D01*
X132861758Y-94250858D01*
X132893000Y-94407925D01*
X132893000Y-94568075D01*
X132861758Y-94725142D01*
X132800471Y-94873101D01*
X132711501Y-95006255D01*
X132598255Y-95119501D01*
X132465101Y-95208471D01*
X132317142Y-95269758D01*
X132160075Y-95301000D01*
X131999925Y-95301000D01*
X131842858Y-95269758D01*
X131694899Y-95208471D01*
X131561745Y-95119501D01*
X131448499Y-95006255D01*
X131359529Y-94873101D01*
X131298242Y-94725142D01*
X131267000Y-94568075D01*
X131267000Y-94407925D01*
X131298242Y-94250858D01*
X131359529Y-94102899D01*
X131448499Y-93969745D01*
X131561745Y-93856499D01*
X131694899Y-93767529D01*
X131842858Y-93706242D01*
X131999925Y-93675000D01*
X132160075Y-93675000D01*
X132317142Y-93706242D01*
X132317142Y-93706242D01*
G37*
G36*
X144828743Y-89670982D02*
G01*
X145027767Y-89710570D01*
X145499299Y-89905885D01*
X145742029Y-90068073D01*
X145923666Y-90189438D01*
X146284562Y-90550334D01*
X146405927Y-90731971D01*
X146568115Y-90974701D01*
X146763430Y-91446233D01*
X146863000Y-91946809D01*
X146863000Y-92457191D01*
X146763430Y-92957767D01*
X146568115Y-93429299D01*
X146405927Y-93672029D01*
X146284562Y-93853666D01*
X145923666Y-94214562D01*
X145742029Y-94335927D01*
X145499299Y-94498115D01*
X145027767Y-94693430D01*
X144868339Y-94725142D01*
X144527193Y-94793000D01*
X144016807Y-94793000D01*
X143675661Y-94725142D01*
X143516233Y-94693430D01*
X143044701Y-94498115D01*
X142801971Y-94335927D01*
X142620334Y-94214562D01*
X142259438Y-93853666D01*
X142138073Y-93672029D01*
X141975885Y-93429299D01*
X141780570Y-92957767D01*
X141681000Y-92457191D01*
X141681000Y-91946809D01*
X141780570Y-91446233D01*
X141975885Y-90974701D01*
X142138073Y-90731971D01*
X142259438Y-90550334D01*
X142620334Y-90189438D01*
X142801971Y-90068073D01*
X143044701Y-89905885D01*
X143516233Y-89710570D01*
X143715257Y-89670982D01*
X144016807Y-89611000D01*
X144527193Y-89611000D01*
X144828743Y-89670982D01*
X144828743Y-89670982D01*
G37*
G36*
X153718743Y-89670982D02*
G01*
X153917767Y-89710570D01*
X154389299Y-89905885D01*
X154632029Y-90068073D01*
X154813666Y-90189438D01*
X155174562Y-90550334D01*
X155295927Y-90731971D01*
X155458115Y-90974701D01*
X155653430Y-91446233D01*
X155753000Y-91946809D01*
X155753000Y-92457191D01*
X155653430Y-92957767D01*
X155458115Y-93429299D01*
X155295927Y-93672029D01*
X155174562Y-93853666D01*
X154813666Y-94214562D01*
X154632029Y-94335927D01*
X154389299Y-94498115D01*
X153917767Y-94693430D01*
X153758339Y-94725142D01*
X153417193Y-94793000D01*
X152906807Y-94793000D01*
X152565661Y-94725142D01*
X152406233Y-94693430D01*
X151934701Y-94498115D01*
X151691971Y-94335927D01*
X151510334Y-94214562D01*
X151149438Y-93853666D01*
X151028073Y-93672029D01*
X150865885Y-93429299D01*
X150670570Y-92957767D01*
X150571000Y-92457191D01*
X150571000Y-91946809D01*
X150670570Y-91446233D01*
X150865885Y-90974701D01*
X151028073Y-90731971D01*
X151149438Y-90550334D01*
X151510334Y-90189438D01*
X151691971Y-90068073D01*
X151934701Y-89905885D01*
X152406233Y-89710570D01*
X152605257Y-89670982D01*
X152906807Y-89611000D01*
X153417193Y-89611000D01*
X153718743Y-89670982D01*
X153718743Y-89670982D01*
G37*
G36*
X56370560Y-88374166D02*
G01*
X56518153Y-88435301D01*
X56650982Y-88524055D01*
X56763945Y-88637018D01*
X56852699Y-88769847D01*
X56913834Y-88917440D01*
X56945000Y-89074123D01*
X56945000Y-89233877D01*
X56913834Y-89390560D01*
X56852699Y-89538153D01*
X56763945Y-89670982D01*
X56650982Y-89783945D01*
X56518153Y-89872699D01*
X56518152Y-89872700D01*
X56518151Y-89872700D01*
X56370560Y-89933834D01*
X56213878Y-89965000D01*
X56054122Y-89965000D01*
X55897440Y-89933834D01*
X55749849Y-89872700D01*
X55749848Y-89872700D01*
X55749847Y-89872699D01*
X55617018Y-89783945D01*
X55504055Y-89670982D01*
X55415301Y-89538153D01*
X55354166Y-89390560D01*
X55323000Y-89233877D01*
X55323000Y-89074123D01*
X55354166Y-88917440D01*
X55415301Y-88769847D01*
X55504055Y-88637018D01*
X55617018Y-88524055D01*
X55749847Y-88435301D01*
X55897440Y-88374166D01*
X56054122Y-88343000D01*
X56213878Y-88343000D01*
X56370560Y-88374166D01*
X56370560Y-88374166D01*
G37*
G36*
X38590560Y-88374166D02*
G01*
X38738153Y-88435301D01*
X38870982Y-88524055D01*
X38983945Y-88637018D01*
X39072699Y-88769847D01*
X39133834Y-88917440D01*
X39165000Y-89074123D01*
X39165000Y-89233877D01*
X39133834Y-89390560D01*
X39072699Y-89538153D01*
X38983945Y-89670982D01*
X38870982Y-89783945D01*
X38738153Y-89872699D01*
X38738152Y-89872700D01*
X38738151Y-89872700D01*
X38590560Y-89933834D01*
X38433878Y-89965000D01*
X38274122Y-89965000D01*
X38117440Y-89933834D01*
X37969849Y-89872700D01*
X37969848Y-89872700D01*
X37969847Y-89872699D01*
X37837018Y-89783945D01*
X37724055Y-89670982D01*
X37635301Y-89538153D01*
X37574166Y-89390560D01*
X37543000Y-89233877D01*
X37543000Y-89074123D01*
X37574166Y-88917440D01*
X37635301Y-88769847D01*
X37724055Y-88637018D01*
X37837018Y-88524055D01*
X37969847Y-88435301D01*
X38117440Y-88374166D01*
X38274122Y-88343000D01*
X38433878Y-88343000D01*
X38590560Y-88374166D01*
X38590560Y-88374166D01*
G37*
G36*
X41130560Y-88374166D02*
G01*
X41278153Y-88435301D01*
X41410982Y-88524055D01*
X41523945Y-88637018D01*
X41612699Y-88769847D01*
X41673834Y-88917440D01*
X41705000Y-89074123D01*
X41705000Y-89233877D01*
X41673834Y-89390560D01*
X41612699Y-89538153D01*
X41523945Y-89670982D01*
X41410982Y-89783945D01*
X41278153Y-89872699D01*
X41278152Y-89872700D01*
X41278151Y-89872700D01*
X41130560Y-89933834D01*
X40973878Y-89965000D01*
X40814122Y-89965000D01*
X40657440Y-89933834D01*
X40509849Y-89872700D01*
X40509848Y-89872700D01*
X40509847Y-89872699D01*
X40377018Y-89783945D01*
X40264055Y-89670982D01*
X40175301Y-89538153D01*
X40114166Y-89390560D01*
X40083000Y-89233877D01*
X40083000Y-89074123D01*
X40114166Y-88917440D01*
X40175301Y-88769847D01*
X40264055Y-88637018D01*
X40377018Y-88524055D01*
X40509847Y-88435301D01*
X40657440Y-88374166D01*
X40814122Y-88343000D01*
X40973878Y-88343000D01*
X41130560Y-88374166D01*
X41130560Y-88374166D01*
G37*
G36*
X43670560Y-88374166D02*
G01*
X43818153Y-88435301D01*
X43950982Y-88524055D01*
X44063945Y-88637018D01*
X44152699Y-88769847D01*
X44213834Y-88917440D01*
X44245000Y-89074123D01*
X44245000Y-89233877D01*
X44213834Y-89390560D01*
X44152699Y-89538153D01*
X44063945Y-89670982D01*
X43950982Y-89783945D01*
X43818153Y-89872699D01*
X43818152Y-89872700D01*
X43818151Y-89872700D01*
X43670560Y-89933834D01*
X43513878Y-89965000D01*
X43354122Y-89965000D01*
X43197440Y-89933834D01*
X43049849Y-89872700D01*
X43049848Y-89872700D01*
X43049847Y-89872699D01*
X42917018Y-89783945D01*
X42804055Y-89670982D01*
X42715301Y-89538153D01*
X42654166Y-89390560D01*
X42623000Y-89233877D01*
X42623000Y-89074123D01*
X42654166Y-88917440D01*
X42715301Y-88769847D01*
X42804055Y-88637018D01*
X42917018Y-88524055D01*
X43049847Y-88435301D01*
X43197440Y-88374166D01*
X43354122Y-88343000D01*
X43513878Y-88343000D01*
X43670560Y-88374166D01*
X43670560Y-88374166D01*
G37*
G36*
X46210560Y-88374166D02*
G01*
X46358153Y-88435301D01*
X46490982Y-88524055D01*
X46603945Y-88637018D01*
X46692699Y-88769847D01*
X46753834Y-88917440D01*
X46785000Y-89074123D01*
X46785000Y-89233877D01*
X46753834Y-89390560D01*
X46692699Y-89538153D01*
X46603945Y-89670982D01*
X46490982Y-89783945D01*
X46358153Y-89872699D01*
X46358152Y-89872700D01*
X46358151Y-89872700D01*
X46210560Y-89933834D01*
X46053878Y-89965000D01*
X45894122Y-89965000D01*
X45737440Y-89933834D01*
X45589849Y-89872700D01*
X45589848Y-89872700D01*
X45589847Y-89872699D01*
X45457018Y-89783945D01*
X45344055Y-89670982D01*
X45255301Y-89538153D01*
X45194166Y-89390560D01*
X45163000Y-89233877D01*
X45163000Y-89074123D01*
X45194166Y-88917440D01*
X45255301Y-88769847D01*
X45344055Y-88637018D01*
X45457018Y-88524055D01*
X45589847Y-88435301D01*
X45737440Y-88374166D01*
X45894122Y-88343000D01*
X46053878Y-88343000D01*
X46210560Y-88374166D01*
X46210560Y-88374166D01*
G37*
G36*
X48750560Y-88374166D02*
G01*
X48898153Y-88435301D01*
X49030982Y-88524055D01*
X49143945Y-88637018D01*
X49232699Y-88769847D01*
X49293834Y-88917440D01*
X49325000Y-89074123D01*
X49325000Y-89233877D01*
X49293834Y-89390560D01*
X49232699Y-89538153D01*
X49143945Y-89670982D01*
X49030982Y-89783945D01*
X48898153Y-89872699D01*
X48898152Y-89872700D01*
X48898151Y-89872700D01*
X48750560Y-89933834D01*
X48593878Y-89965000D01*
X48434122Y-89965000D01*
X48277440Y-89933834D01*
X48129849Y-89872700D01*
X48129848Y-89872700D01*
X48129847Y-89872699D01*
X47997018Y-89783945D01*
X47884055Y-89670982D01*
X47795301Y-89538153D01*
X47734166Y-89390560D01*
X47703000Y-89233877D01*
X47703000Y-89074123D01*
X47734166Y-88917440D01*
X47795301Y-88769847D01*
X47884055Y-88637018D01*
X47997018Y-88524055D01*
X48129847Y-88435301D01*
X48277440Y-88374166D01*
X48434122Y-88343000D01*
X48593878Y-88343000D01*
X48750560Y-88374166D01*
X48750560Y-88374166D01*
G37*
G36*
X51290560Y-88374166D02*
G01*
X51438153Y-88435301D01*
X51570982Y-88524055D01*
X51683945Y-88637018D01*
X51772699Y-88769847D01*
X51833834Y-88917440D01*
X51865000Y-89074123D01*
X51865000Y-89233877D01*
X51833834Y-89390560D01*
X51772699Y-89538153D01*
X51683945Y-89670982D01*
X51570982Y-89783945D01*
X51438153Y-89872699D01*
X51438152Y-89872700D01*
X51438151Y-89872700D01*
X51290560Y-89933834D01*
X51133878Y-89965000D01*
X50974122Y-89965000D01*
X50817440Y-89933834D01*
X50669849Y-89872700D01*
X50669848Y-89872700D01*
X50669847Y-89872699D01*
X50537018Y-89783945D01*
X50424055Y-89670982D01*
X50335301Y-89538153D01*
X50274166Y-89390560D01*
X50243000Y-89233877D01*
X50243000Y-89074123D01*
X50274166Y-88917440D01*
X50335301Y-88769847D01*
X50424055Y-88637018D01*
X50537018Y-88524055D01*
X50669847Y-88435301D01*
X50817440Y-88374166D01*
X50974122Y-88343000D01*
X51133878Y-88343000D01*
X51290560Y-88374166D01*
X51290560Y-88374166D01*
G37*
G36*
X53830560Y-88374166D02*
G01*
X53978153Y-88435301D01*
X54110982Y-88524055D01*
X54223945Y-88637018D01*
X54312699Y-88769847D01*
X54373834Y-88917440D01*
X54405000Y-89074123D01*
X54405000Y-89233877D01*
X54373834Y-89390560D01*
X54312699Y-89538153D01*
X54223945Y-89670982D01*
X54110982Y-89783945D01*
X53978153Y-89872699D01*
X53978152Y-89872700D01*
X53978151Y-89872700D01*
X53830560Y-89933834D01*
X53673878Y-89965000D01*
X53514122Y-89965000D01*
X53357440Y-89933834D01*
X53209849Y-89872700D01*
X53209848Y-89872700D01*
X53209847Y-89872699D01*
X53077018Y-89783945D01*
X52964055Y-89670982D01*
X52875301Y-89538153D01*
X52814166Y-89390560D01*
X52783000Y-89233877D01*
X52783000Y-89074123D01*
X52814166Y-88917440D01*
X52875301Y-88769847D01*
X52964055Y-88637018D01*
X53077018Y-88524055D01*
X53209847Y-88435301D01*
X53357440Y-88374166D01*
X53514122Y-88343000D01*
X53673878Y-88343000D01*
X53830560Y-88374166D01*
X53830560Y-88374166D01*
G37*
G36*
X107170560Y-88374166D02*
G01*
X107318153Y-88435301D01*
X107450982Y-88524055D01*
X107563945Y-88637018D01*
X107652699Y-88769847D01*
X107713834Y-88917440D01*
X107745000Y-89074123D01*
X107745000Y-89233877D01*
X107713834Y-89390560D01*
X107652699Y-89538153D01*
X107563945Y-89670982D01*
X107450982Y-89783945D01*
X107318153Y-89872699D01*
X107318152Y-89872700D01*
X107318151Y-89872700D01*
X107170560Y-89933834D01*
X107013878Y-89965000D01*
X106854122Y-89965000D01*
X106697440Y-89933834D01*
X106549849Y-89872700D01*
X106549848Y-89872700D01*
X106549847Y-89872699D01*
X106417018Y-89783945D01*
X106304055Y-89670982D01*
X106215301Y-89538153D01*
X106154166Y-89390560D01*
X106123000Y-89233877D01*
X106123000Y-89074123D01*
X106154166Y-88917440D01*
X106215301Y-88769847D01*
X106304055Y-88637018D01*
X106417018Y-88524055D01*
X106549847Y-88435301D01*
X106697440Y-88374166D01*
X106854122Y-88343000D01*
X107013878Y-88343000D01*
X107170560Y-88374166D01*
X107170560Y-88374166D01*
G37*
G36*
X109710560Y-88374166D02*
G01*
X109858153Y-88435301D01*
X109990982Y-88524055D01*
X110103945Y-88637018D01*
X110192699Y-88769847D01*
X110253834Y-88917440D01*
X110285000Y-89074123D01*
X110285000Y-89233877D01*
X110253834Y-89390560D01*
X110192699Y-89538153D01*
X110103945Y-89670982D01*
X109990982Y-89783945D01*
X109858153Y-89872699D01*
X109858152Y-89872700D01*
X109858151Y-89872700D01*
X109710560Y-89933834D01*
X109553878Y-89965000D01*
X109394122Y-89965000D01*
X109237440Y-89933834D01*
X109089849Y-89872700D01*
X109089848Y-89872700D01*
X109089847Y-89872699D01*
X108957018Y-89783945D01*
X108844055Y-89670982D01*
X108755301Y-89538153D01*
X108694166Y-89390560D01*
X108663000Y-89233877D01*
X108663000Y-89074123D01*
X108694166Y-88917440D01*
X108755301Y-88769847D01*
X108844055Y-88637018D01*
X108957018Y-88524055D01*
X109089847Y-88435301D01*
X109237440Y-88374166D01*
X109394122Y-88343000D01*
X109553878Y-88343000D01*
X109710560Y-88374166D01*
X109710560Y-88374166D01*
G37*
G36*
X102090560Y-88374166D02*
G01*
X102238153Y-88435301D01*
X102370982Y-88524055D01*
X102483945Y-88637018D01*
X102572699Y-88769847D01*
X102633834Y-88917440D01*
X102665000Y-89074123D01*
X102665000Y-89233877D01*
X102633834Y-89390560D01*
X102572699Y-89538153D01*
X102483945Y-89670982D01*
X102370982Y-89783945D01*
X102238153Y-89872699D01*
X102238152Y-89872700D01*
X102238151Y-89872700D01*
X102090560Y-89933834D01*
X101933878Y-89965000D01*
X101774122Y-89965000D01*
X101617440Y-89933834D01*
X101469849Y-89872700D01*
X101469848Y-89872700D01*
X101469847Y-89872699D01*
X101337018Y-89783945D01*
X101224055Y-89670982D01*
X101135301Y-89538153D01*
X101074166Y-89390560D01*
X101043000Y-89233877D01*
X101043000Y-89074123D01*
X101074166Y-88917440D01*
X101135301Y-88769847D01*
X101224055Y-88637018D01*
X101337018Y-88524055D01*
X101469847Y-88435301D01*
X101617440Y-88374166D01*
X101774122Y-88343000D01*
X101933878Y-88343000D01*
X102090560Y-88374166D01*
X102090560Y-88374166D01*
G37*
G36*
X99550560Y-88374166D02*
G01*
X99698153Y-88435301D01*
X99830982Y-88524055D01*
X99943945Y-88637018D01*
X100032699Y-88769847D01*
X100093834Y-88917440D01*
X100125000Y-89074123D01*
X100125000Y-89233877D01*
X100093834Y-89390560D01*
X100032699Y-89538153D01*
X99943945Y-89670982D01*
X99830982Y-89783945D01*
X99698153Y-89872699D01*
X99698152Y-89872700D01*
X99698151Y-89872700D01*
X99550560Y-89933834D01*
X99393878Y-89965000D01*
X99234122Y-89965000D01*
X99077440Y-89933834D01*
X98929849Y-89872700D01*
X98929848Y-89872700D01*
X98929847Y-89872699D01*
X98797018Y-89783945D01*
X98684055Y-89670982D01*
X98595301Y-89538153D01*
X98534166Y-89390560D01*
X98503000Y-89233877D01*
X98503000Y-89074123D01*
X98534166Y-88917440D01*
X98595301Y-88769847D01*
X98684055Y-88637018D01*
X98797018Y-88524055D01*
X98929847Y-88435301D01*
X99077440Y-88374166D01*
X99234122Y-88343000D01*
X99393878Y-88343000D01*
X99550560Y-88374166D01*
X99550560Y-88374166D01*
G37*
G36*
X58910560Y-88374166D02*
G01*
X59058153Y-88435301D01*
X59190982Y-88524055D01*
X59303945Y-88637018D01*
X59392699Y-88769847D01*
X59453834Y-88917440D01*
X59485000Y-89074123D01*
X59485000Y-89233877D01*
X59453834Y-89390560D01*
X59392699Y-89538153D01*
X59303945Y-89670982D01*
X59190982Y-89783945D01*
X59058153Y-89872699D01*
X59058152Y-89872700D01*
X59058151Y-89872700D01*
X58910560Y-89933834D01*
X58753878Y-89965000D01*
X58594122Y-89965000D01*
X58437440Y-89933834D01*
X58289849Y-89872700D01*
X58289848Y-89872700D01*
X58289847Y-89872699D01*
X58157018Y-89783945D01*
X58044055Y-89670982D01*
X57955301Y-89538153D01*
X57894166Y-89390560D01*
X57863000Y-89233877D01*
X57863000Y-89074123D01*
X57894166Y-88917440D01*
X57955301Y-88769847D01*
X58044055Y-88637018D01*
X58157018Y-88524055D01*
X58289847Y-88435301D01*
X58437440Y-88374166D01*
X58594122Y-88343000D01*
X58753878Y-88343000D01*
X58910560Y-88374166D01*
X58910560Y-88374166D01*
G37*
G36*
X104630560Y-88374166D02*
G01*
X104778153Y-88435301D01*
X104910982Y-88524055D01*
X105023945Y-88637018D01*
X105112699Y-88769847D01*
X105173834Y-88917440D01*
X105205000Y-89074123D01*
X105205000Y-89233877D01*
X105173834Y-89390560D01*
X105112699Y-89538153D01*
X105023945Y-89670982D01*
X104910982Y-89783945D01*
X104778153Y-89872699D01*
X104778152Y-89872700D01*
X104778151Y-89872700D01*
X104630560Y-89933834D01*
X104473878Y-89965000D01*
X104314122Y-89965000D01*
X104157440Y-89933834D01*
X104009849Y-89872700D01*
X104009848Y-89872700D01*
X104009847Y-89872699D01*
X103877018Y-89783945D01*
X103764055Y-89670982D01*
X103675301Y-89538153D01*
X103614166Y-89390560D01*
X103583000Y-89233877D01*
X103583000Y-89074123D01*
X103614166Y-88917440D01*
X103675301Y-88769847D01*
X103764055Y-88637018D01*
X103877018Y-88524055D01*
X104009847Y-88435301D01*
X104157440Y-88374166D01*
X104314122Y-88343000D01*
X104473878Y-88343000D01*
X104630560Y-88374166D01*
X104630560Y-88374166D01*
G37*
G36*
X119870560Y-88374166D02*
G01*
X120018153Y-88435301D01*
X120150982Y-88524055D01*
X120263945Y-88637018D01*
X120352699Y-88769847D01*
X120413834Y-88917440D01*
X120445000Y-89074123D01*
X120445000Y-89233877D01*
X120413834Y-89390560D01*
X120352699Y-89538153D01*
X120263945Y-89670982D01*
X120150982Y-89783945D01*
X120018153Y-89872699D01*
X120018152Y-89872700D01*
X120018151Y-89872700D01*
X119870560Y-89933834D01*
X119713878Y-89965000D01*
X119554122Y-89965000D01*
X119397440Y-89933834D01*
X119249849Y-89872700D01*
X119249848Y-89872700D01*
X119249847Y-89872699D01*
X119117018Y-89783945D01*
X119004055Y-89670982D01*
X118915301Y-89538153D01*
X118854166Y-89390560D01*
X118823000Y-89233877D01*
X118823000Y-89074123D01*
X118854166Y-88917440D01*
X118915301Y-88769847D01*
X119004055Y-88637018D01*
X119117018Y-88524055D01*
X119249847Y-88435301D01*
X119397440Y-88374166D01*
X119554122Y-88343000D01*
X119713878Y-88343000D01*
X119870560Y-88374166D01*
X119870560Y-88374166D01*
G37*
G36*
X117330560Y-88374166D02*
G01*
X117478153Y-88435301D01*
X117610982Y-88524055D01*
X117723945Y-88637018D01*
X117812699Y-88769847D01*
X117873834Y-88917440D01*
X117905000Y-89074123D01*
X117905000Y-89233877D01*
X117873834Y-89390560D01*
X117812699Y-89538153D01*
X117723945Y-89670982D01*
X117610982Y-89783945D01*
X117478153Y-89872699D01*
X117478152Y-89872700D01*
X117478151Y-89872700D01*
X117330560Y-89933834D01*
X117173878Y-89965000D01*
X117014122Y-89965000D01*
X116857440Y-89933834D01*
X116709849Y-89872700D01*
X116709848Y-89872700D01*
X116709847Y-89872699D01*
X116577018Y-89783945D01*
X116464055Y-89670982D01*
X116375301Y-89538153D01*
X116314166Y-89390560D01*
X116283000Y-89233877D01*
X116283000Y-89074123D01*
X116314166Y-88917440D01*
X116375301Y-88769847D01*
X116464055Y-88637018D01*
X116577018Y-88524055D01*
X116709847Y-88435301D01*
X116857440Y-88374166D01*
X117014122Y-88343000D01*
X117173878Y-88343000D01*
X117330560Y-88374166D01*
X117330560Y-88374166D01*
G37*
G36*
X114790560Y-88374166D02*
G01*
X114938153Y-88435301D01*
X115070982Y-88524055D01*
X115183945Y-88637018D01*
X115272699Y-88769847D01*
X115333834Y-88917440D01*
X115365000Y-89074123D01*
X115365000Y-89233877D01*
X115333834Y-89390560D01*
X115272699Y-89538153D01*
X115183945Y-89670982D01*
X115070982Y-89783945D01*
X114938153Y-89872699D01*
X114938152Y-89872700D01*
X114938151Y-89872700D01*
X114790560Y-89933834D01*
X114633878Y-89965000D01*
X114474122Y-89965000D01*
X114317440Y-89933834D01*
X114169849Y-89872700D01*
X114169848Y-89872700D01*
X114169847Y-89872699D01*
X114037018Y-89783945D01*
X113924055Y-89670982D01*
X113835301Y-89538153D01*
X113774166Y-89390560D01*
X113743000Y-89233877D01*
X113743000Y-89074123D01*
X113774166Y-88917440D01*
X113835301Y-88769847D01*
X113924055Y-88637018D01*
X114037018Y-88524055D01*
X114169847Y-88435301D01*
X114317440Y-88374166D01*
X114474122Y-88343000D01*
X114633878Y-88343000D01*
X114790560Y-88374166D01*
X114790560Y-88374166D01*
G37*
G36*
X112250560Y-88374166D02*
G01*
X112398153Y-88435301D01*
X112530982Y-88524055D01*
X112643945Y-88637018D01*
X112732699Y-88769847D01*
X112793834Y-88917440D01*
X112825000Y-89074123D01*
X112825000Y-89233877D01*
X112793834Y-89390560D01*
X112732699Y-89538153D01*
X112643945Y-89670982D01*
X112530982Y-89783945D01*
X112398153Y-89872699D01*
X112398152Y-89872700D01*
X112398151Y-89872700D01*
X112250560Y-89933834D01*
X112093878Y-89965000D01*
X111934122Y-89965000D01*
X111777440Y-89933834D01*
X111629849Y-89872700D01*
X111629848Y-89872700D01*
X111629847Y-89872699D01*
X111497018Y-89783945D01*
X111384055Y-89670982D01*
X111295301Y-89538153D01*
X111234166Y-89390560D01*
X111203000Y-89233877D01*
X111203000Y-89074123D01*
X111234166Y-88917440D01*
X111295301Y-88769847D01*
X111384055Y-88637018D01*
X111497018Y-88524055D01*
X111629847Y-88435301D01*
X111777440Y-88374166D01*
X111934122Y-88343000D01*
X112093878Y-88343000D01*
X112250560Y-88374166D01*
X112250560Y-88374166D01*
G37*
G36*
X36050560Y-88374166D02*
G01*
X36198153Y-88435301D01*
X36330982Y-88524055D01*
X36443945Y-88637018D01*
X36532699Y-88769847D01*
X36593834Y-88917440D01*
X36625000Y-89074123D01*
X36625000Y-89233877D01*
X36593834Y-89390560D01*
X36532699Y-89538153D01*
X36443945Y-89670982D01*
X36330982Y-89783945D01*
X36198153Y-89872699D01*
X36198152Y-89872700D01*
X36198151Y-89872700D01*
X36050560Y-89933834D01*
X35893878Y-89965000D01*
X35734122Y-89965000D01*
X35577440Y-89933834D01*
X35429849Y-89872700D01*
X35429848Y-89872700D01*
X35429847Y-89872699D01*
X35297018Y-89783945D01*
X35184055Y-89670982D01*
X35095301Y-89538153D01*
X35034166Y-89390560D01*
X35003000Y-89233877D01*
X35003000Y-89074123D01*
X35034166Y-88917440D01*
X35095301Y-88769847D01*
X35184055Y-88637018D01*
X35297018Y-88524055D01*
X35429847Y-88435301D01*
X35577440Y-88374166D01*
X35734122Y-88343000D01*
X35893878Y-88343000D01*
X36050560Y-88374166D01*
X36050560Y-88374166D01*
G37*
G36*
X122410560Y-88374166D02*
G01*
X122558153Y-88435301D01*
X122690982Y-88524055D01*
X122803945Y-88637018D01*
X122892699Y-88769847D01*
X122953834Y-88917440D01*
X122985000Y-89074123D01*
X122985000Y-89233877D01*
X122953834Y-89390560D01*
X122892699Y-89538153D01*
X122803945Y-89670982D01*
X122690982Y-89783945D01*
X122558153Y-89872699D01*
X122558152Y-89872700D01*
X122558151Y-89872700D01*
X122410560Y-89933834D01*
X122253878Y-89965000D01*
X122094122Y-89965000D01*
X121937440Y-89933834D01*
X121789849Y-89872700D01*
X121789848Y-89872700D01*
X121789847Y-89872699D01*
X121657018Y-89783945D01*
X121544055Y-89670982D01*
X121455301Y-89538153D01*
X121394166Y-89390560D01*
X121363000Y-89233877D01*
X121363000Y-89074123D01*
X121394166Y-88917440D01*
X121455301Y-88769847D01*
X121544055Y-88637018D01*
X121657018Y-88524055D01*
X121789847Y-88435301D01*
X121937440Y-88374166D01*
X122094122Y-88343000D01*
X122253878Y-88343000D01*
X122410560Y-88374166D01*
X122410560Y-88374166D01*
G37*
G36*
X104630560Y-85834166D02*
G01*
X104778153Y-85895301D01*
X104910982Y-85984055D01*
X105023945Y-86097018D01*
X105112699Y-86229847D01*
X105173834Y-86377440D01*
X105205000Y-86534123D01*
X105205000Y-86693877D01*
X105173834Y-86850560D01*
X105112699Y-86998153D01*
X105023945Y-87130982D01*
X104910982Y-87243945D01*
X104778153Y-87332699D01*
X104778152Y-87332700D01*
X104778151Y-87332700D01*
X104630560Y-87393834D01*
X104473878Y-87425000D01*
X104314122Y-87425000D01*
X104157440Y-87393834D01*
X104009849Y-87332700D01*
X104009848Y-87332700D01*
X104009847Y-87332699D01*
X103877018Y-87243945D01*
X103764055Y-87130982D01*
X103675301Y-86998153D01*
X103614166Y-86850560D01*
X103583000Y-86693877D01*
X103583000Y-86534123D01*
X103614166Y-86377440D01*
X103675301Y-86229847D01*
X103764055Y-86097018D01*
X103877018Y-85984055D01*
X104009847Y-85895301D01*
X104157440Y-85834166D01*
X104314122Y-85803000D01*
X104473878Y-85803000D01*
X104630560Y-85834166D01*
X104630560Y-85834166D01*
G37*
G36*
X102090560Y-85834166D02*
G01*
X102238153Y-85895301D01*
X102370982Y-85984055D01*
X102483945Y-86097018D01*
X102572699Y-86229847D01*
X102633834Y-86377440D01*
X102665000Y-86534123D01*
X102665000Y-86693877D01*
X102633834Y-86850560D01*
X102572699Y-86998153D01*
X102483945Y-87130982D01*
X102370982Y-87243945D01*
X102238153Y-87332699D01*
X102238152Y-87332700D01*
X102238151Y-87332700D01*
X102090560Y-87393834D01*
X101933878Y-87425000D01*
X101774122Y-87425000D01*
X101617440Y-87393834D01*
X101469849Y-87332700D01*
X101469848Y-87332700D01*
X101469847Y-87332699D01*
X101337018Y-87243945D01*
X101224055Y-87130982D01*
X101135301Y-86998153D01*
X101074166Y-86850560D01*
X101043000Y-86693877D01*
X101043000Y-86534123D01*
X101074166Y-86377440D01*
X101135301Y-86229847D01*
X101224055Y-86097018D01*
X101337018Y-85984055D01*
X101469847Y-85895301D01*
X101617440Y-85834166D01*
X101774122Y-85803000D01*
X101933878Y-85803000D01*
X102090560Y-85834166D01*
X102090560Y-85834166D01*
G37*
G36*
X109710560Y-85834166D02*
G01*
X109858153Y-85895301D01*
X109990982Y-85984055D01*
X110103945Y-86097018D01*
X110192699Y-86229847D01*
X110253834Y-86377440D01*
X110285000Y-86534123D01*
X110285000Y-86693877D01*
X110253834Y-86850560D01*
X110192699Y-86998153D01*
X110103945Y-87130982D01*
X109990982Y-87243945D01*
X109858153Y-87332699D01*
X109858152Y-87332700D01*
X109858151Y-87332700D01*
X109710560Y-87393834D01*
X109553878Y-87425000D01*
X109394122Y-87425000D01*
X109237440Y-87393834D01*
X109089849Y-87332700D01*
X109089848Y-87332700D01*
X109089847Y-87332699D01*
X108957018Y-87243945D01*
X108844055Y-87130982D01*
X108755301Y-86998153D01*
X108694166Y-86850560D01*
X108663000Y-86693877D01*
X108663000Y-86534123D01*
X108694166Y-86377440D01*
X108755301Y-86229847D01*
X108844055Y-86097018D01*
X108957018Y-85984055D01*
X109089847Y-85895301D01*
X109237440Y-85834166D01*
X109394122Y-85803000D01*
X109553878Y-85803000D01*
X109710560Y-85834166D01*
X109710560Y-85834166D01*
G37*
G36*
X107170560Y-85834166D02*
G01*
X107318153Y-85895301D01*
X107450982Y-85984055D01*
X107563945Y-86097018D01*
X107652699Y-86229847D01*
X107713834Y-86377440D01*
X107745000Y-86534123D01*
X107745000Y-86693877D01*
X107713834Y-86850560D01*
X107652699Y-86998153D01*
X107563945Y-87130982D01*
X107450982Y-87243945D01*
X107318153Y-87332699D01*
X107318152Y-87332700D01*
X107318151Y-87332700D01*
X107170560Y-87393834D01*
X107013878Y-87425000D01*
X106854122Y-87425000D01*
X106697440Y-87393834D01*
X106549849Y-87332700D01*
X106549848Y-87332700D01*
X106549847Y-87332699D01*
X106417018Y-87243945D01*
X106304055Y-87130982D01*
X106215301Y-86998153D01*
X106154166Y-86850560D01*
X106123000Y-86693877D01*
X106123000Y-86534123D01*
X106154166Y-86377440D01*
X106215301Y-86229847D01*
X106304055Y-86097018D01*
X106417018Y-85984055D01*
X106549847Y-85895301D01*
X106697440Y-85834166D01*
X106854122Y-85803000D01*
X107013878Y-85803000D01*
X107170560Y-85834166D01*
X107170560Y-85834166D01*
G37*
G36*
X112250560Y-85834166D02*
G01*
X112398153Y-85895301D01*
X112530982Y-85984055D01*
X112643945Y-86097018D01*
X112732699Y-86229847D01*
X112793834Y-86377440D01*
X112825000Y-86534123D01*
X112825000Y-86693877D01*
X112793834Y-86850560D01*
X112732699Y-86998153D01*
X112643945Y-87130982D01*
X112530982Y-87243945D01*
X112398153Y-87332699D01*
X112398152Y-87332700D01*
X112398151Y-87332700D01*
X112250560Y-87393834D01*
X112093878Y-87425000D01*
X111934122Y-87425000D01*
X111777440Y-87393834D01*
X111629849Y-87332700D01*
X111629848Y-87332700D01*
X111629847Y-87332699D01*
X111497018Y-87243945D01*
X111384055Y-87130982D01*
X111295301Y-86998153D01*
X111234166Y-86850560D01*
X111203000Y-86693877D01*
X111203000Y-86534123D01*
X111234166Y-86377440D01*
X111295301Y-86229847D01*
X111384055Y-86097018D01*
X111497018Y-85984055D01*
X111629847Y-85895301D01*
X111777440Y-85834166D01*
X111934122Y-85803000D01*
X112093878Y-85803000D01*
X112250560Y-85834166D01*
X112250560Y-85834166D01*
G37*
G36*
X122410560Y-85834166D02*
G01*
X122558153Y-85895301D01*
X122690982Y-85984055D01*
X122803945Y-86097018D01*
X122892699Y-86229847D01*
X122953834Y-86377440D01*
X122985000Y-86534123D01*
X122985000Y-86693877D01*
X122953834Y-86850560D01*
X122892699Y-86998153D01*
X122803945Y-87130982D01*
X122690982Y-87243945D01*
X122558153Y-87332699D01*
X122558152Y-87332700D01*
X122558151Y-87332700D01*
X122410560Y-87393834D01*
X122253878Y-87425000D01*
X122094122Y-87425000D01*
X121937440Y-87393834D01*
X121789849Y-87332700D01*
X121789848Y-87332700D01*
X121789847Y-87332699D01*
X121657018Y-87243945D01*
X121544055Y-87130982D01*
X121455301Y-86998153D01*
X121394166Y-86850560D01*
X121363000Y-86693877D01*
X121363000Y-86534123D01*
X121394166Y-86377440D01*
X121455301Y-86229847D01*
X121544055Y-86097018D01*
X121657018Y-85984055D01*
X121789847Y-85895301D01*
X121937440Y-85834166D01*
X122094122Y-85803000D01*
X122253878Y-85803000D01*
X122410560Y-85834166D01*
X122410560Y-85834166D01*
G37*
G36*
X117330560Y-85834166D02*
G01*
X117478153Y-85895301D01*
X117610982Y-85984055D01*
X117723945Y-86097018D01*
X117812699Y-86229847D01*
X117873834Y-86377440D01*
X117905000Y-86534123D01*
X117905000Y-86693877D01*
X117873834Y-86850560D01*
X117812699Y-86998153D01*
X117723945Y-87130982D01*
X117610982Y-87243945D01*
X117478153Y-87332699D01*
X117478152Y-87332700D01*
X117478151Y-87332700D01*
X117330560Y-87393834D01*
X117173878Y-87425000D01*
X117014122Y-87425000D01*
X116857440Y-87393834D01*
X116709849Y-87332700D01*
X116709848Y-87332700D01*
X116709847Y-87332699D01*
X116577018Y-87243945D01*
X116464055Y-87130982D01*
X116375301Y-86998153D01*
X116314166Y-86850560D01*
X116283000Y-86693877D01*
X116283000Y-86534123D01*
X116314166Y-86377440D01*
X116375301Y-86229847D01*
X116464055Y-86097018D01*
X116577018Y-85984055D01*
X116709847Y-85895301D01*
X116857440Y-85834166D01*
X117014122Y-85803000D01*
X117173878Y-85803000D01*
X117330560Y-85834166D01*
X117330560Y-85834166D01*
G37*
G36*
X114790560Y-85834166D02*
G01*
X114938153Y-85895301D01*
X115070982Y-85984055D01*
X115183945Y-86097018D01*
X115272699Y-86229847D01*
X115333834Y-86377440D01*
X115365000Y-86534123D01*
X115365000Y-86693877D01*
X115333834Y-86850560D01*
X115272699Y-86998153D01*
X115183945Y-87130982D01*
X115070982Y-87243945D01*
X114938153Y-87332699D01*
X114938152Y-87332700D01*
X114938151Y-87332700D01*
X114790560Y-87393834D01*
X114633878Y-87425000D01*
X114474122Y-87425000D01*
X114317440Y-87393834D01*
X114169849Y-87332700D01*
X114169848Y-87332700D01*
X114169847Y-87332699D01*
X114037018Y-87243945D01*
X113924055Y-87130982D01*
X113835301Y-86998153D01*
X113774166Y-86850560D01*
X113743000Y-86693877D01*
X113743000Y-86534123D01*
X113774166Y-86377440D01*
X113835301Y-86229847D01*
X113924055Y-86097018D01*
X114037018Y-85984055D01*
X114169847Y-85895301D01*
X114317440Y-85834166D01*
X114474122Y-85803000D01*
X114633878Y-85803000D01*
X114790560Y-85834166D01*
X114790560Y-85834166D01*
G37*
G36*
X119870560Y-85834166D02*
G01*
X120018153Y-85895301D01*
X120150982Y-85984055D01*
X120263945Y-86097018D01*
X120352699Y-86229847D01*
X120413834Y-86377440D01*
X120445000Y-86534123D01*
X120445000Y-86693877D01*
X120413834Y-86850560D01*
X120352699Y-86998153D01*
X120263945Y-87130982D01*
X120150982Y-87243945D01*
X120018153Y-87332699D01*
X120018152Y-87332700D01*
X120018151Y-87332700D01*
X119870560Y-87393834D01*
X119713878Y-87425000D01*
X119554122Y-87425000D01*
X119397440Y-87393834D01*
X119249849Y-87332700D01*
X119249848Y-87332700D01*
X119249847Y-87332699D01*
X119117018Y-87243945D01*
X119004055Y-87130982D01*
X118915301Y-86998153D01*
X118854166Y-86850560D01*
X118823000Y-86693877D01*
X118823000Y-86534123D01*
X118854166Y-86377440D01*
X118915301Y-86229847D01*
X119004055Y-86097018D01*
X119117018Y-85984055D01*
X119249847Y-85895301D01*
X119397440Y-85834166D01*
X119554122Y-85803000D01*
X119713878Y-85803000D01*
X119870560Y-85834166D01*
X119870560Y-85834166D01*
G37*
G36*
X58910560Y-85834166D02*
G01*
X59058153Y-85895301D01*
X59190982Y-85984055D01*
X59303945Y-86097018D01*
X59392699Y-86229847D01*
X59453834Y-86377440D01*
X59485000Y-86534123D01*
X59485000Y-86693877D01*
X59453834Y-86850560D01*
X59392699Y-86998153D01*
X59303945Y-87130982D01*
X59190982Y-87243945D01*
X59058153Y-87332699D01*
X59058152Y-87332700D01*
X59058151Y-87332700D01*
X58910560Y-87393834D01*
X58753878Y-87425000D01*
X58594122Y-87425000D01*
X58437440Y-87393834D01*
X58289849Y-87332700D01*
X58289848Y-87332700D01*
X58289847Y-87332699D01*
X58157018Y-87243945D01*
X58044055Y-87130982D01*
X57955301Y-86998153D01*
X57894166Y-86850560D01*
X57863000Y-86693877D01*
X57863000Y-86534123D01*
X57894166Y-86377440D01*
X57955301Y-86229847D01*
X58044055Y-86097018D01*
X58157018Y-85984055D01*
X58289847Y-85895301D01*
X58437440Y-85834166D01*
X58594122Y-85803000D01*
X58753878Y-85803000D01*
X58910560Y-85834166D01*
X58910560Y-85834166D01*
G37*
G36*
X38590560Y-85834166D02*
G01*
X38738153Y-85895301D01*
X38870982Y-85984055D01*
X38983945Y-86097018D01*
X39072699Y-86229847D01*
X39133834Y-86377440D01*
X39165000Y-86534123D01*
X39165000Y-86693877D01*
X39133834Y-86850560D01*
X39072699Y-86998153D01*
X38983945Y-87130982D01*
X38870982Y-87243945D01*
X38738153Y-87332699D01*
X38738152Y-87332700D01*
X38738151Y-87332700D01*
X38590560Y-87393834D01*
X38433878Y-87425000D01*
X38274122Y-87425000D01*
X38117440Y-87393834D01*
X37969849Y-87332700D01*
X37969848Y-87332700D01*
X37969847Y-87332699D01*
X37837018Y-87243945D01*
X37724055Y-87130982D01*
X37635301Y-86998153D01*
X37574166Y-86850560D01*
X37543000Y-86693877D01*
X37543000Y-86534123D01*
X37574166Y-86377440D01*
X37635301Y-86229847D01*
X37724055Y-86097018D01*
X37837018Y-85984055D01*
X37969847Y-85895301D01*
X38117440Y-85834166D01*
X38274122Y-85803000D01*
X38433878Y-85803000D01*
X38590560Y-85834166D01*
X38590560Y-85834166D01*
G37*
G36*
X41130560Y-85834166D02*
G01*
X41278153Y-85895301D01*
X41410982Y-85984055D01*
X41523945Y-86097018D01*
X41612699Y-86229847D01*
X41673834Y-86377440D01*
X41705000Y-86534123D01*
X41705000Y-86693877D01*
X41673834Y-86850560D01*
X41612699Y-86998153D01*
X41523945Y-87130982D01*
X41410982Y-87243945D01*
X41278153Y-87332699D01*
X41278152Y-87332700D01*
X41278151Y-87332700D01*
X41130560Y-87393834D01*
X40973878Y-87425000D01*
X40814122Y-87425000D01*
X40657440Y-87393834D01*
X40509849Y-87332700D01*
X40509848Y-87332700D01*
X40509847Y-87332699D01*
X40377018Y-87243945D01*
X40264055Y-87130982D01*
X40175301Y-86998153D01*
X40114166Y-86850560D01*
X40083000Y-86693877D01*
X40083000Y-86534123D01*
X40114166Y-86377440D01*
X40175301Y-86229847D01*
X40264055Y-86097018D01*
X40377018Y-85984055D01*
X40509847Y-85895301D01*
X40657440Y-85834166D01*
X40814122Y-85803000D01*
X40973878Y-85803000D01*
X41130560Y-85834166D01*
X41130560Y-85834166D01*
G37*
G36*
X43670560Y-85834166D02*
G01*
X43818153Y-85895301D01*
X43950982Y-85984055D01*
X44063945Y-86097018D01*
X44152699Y-86229847D01*
X44213834Y-86377440D01*
X44245000Y-86534123D01*
X44245000Y-86693877D01*
X44213834Y-86850560D01*
X44152699Y-86998153D01*
X44063945Y-87130982D01*
X43950982Y-87243945D01*
X43818153Y-87332699D01*
X43818152Y-87332700D01*
X43818151Y-87332700D01*
X43670560Y-87393834D01*
X43513878Y-87425000D01*
X43354122Y-87425000D01*
X43197440Y-87393834D01*
X43049849Y-87332700D01*
X43049848Y-87332700D01*
X43049847Y-87332699D01*
X42917018Y-87243945D01*
X42804055Y-87130982D01*
X42715301Y-86998153D01*
X42654166Y-86850560D01*
X42623000Y-86693877D01*
X42623000Y-86534123D01*
X42654166Y-86377440D01*
X42715301Y-86229847D01*
X42804055Y-86097018D01*
X42917018Y-85984055D01*
X43049847Y-85895301D01*
X43197440Y-85834166D01*
X43354122Y-85803000D01*
X43513878Y-85803000D01*
X43670560Y-85834166D01*
X43670560Y-85834166D01*
G37*
G36*
X46210560Y-85834166D02*
G01*
X46358153Y-85895301D01*
X46490982Y-85984055D01*
X46603945Y-86097018D01*
X46692699Y-86229847D01*
X46753834Y-86377440D01*
X46785000Y-86534123D01*
X46785000Y-86693877D01*
X46753834Y-86850560D01*
X46692699Y-86998153D01*
X46603945Y-87130982D01*
X46490982Y-87243945D01*
X46358153Y-87332699D01*
X46358152Y-87332700D01*
X46358151Y-87332700D01*
X46210560Y-87393834D01*
X46053878Y-87425000D01*
X45894122Y-87425000D01*
X45737440Y-87393834D01*
X45589849Y-87332700D01*
X45589848Y-87332700D01*
X45589847Y-87332699D01*
X45457018Y-87243945D01*
X45344055Y-87130982D01*
X45255301Y-86998153D01*
X45194166Y-86850560D01*
X45163000Y-86693877D01*
X45163000Y-86534123D01*
X45194166Y-86377440D01*
X45255301Y-86229847D01*
X45344055Y-86097018D01*
X45457018Y-85984055D01*
X45589847Y-85895301D01*
X45737440Y-85834166D01*
X45894122Y-85803000D01*
X46053878Y-85803000D01*
X46210560Y-85834166D01*
X46210560Y-85834166D01*
G37*
G36*
X99550560Y-85834166D02*
G01*
X99698153Y-85895301D01*
X99830982Y-85984055D01*
X99943945Y-86097018D01*
X100032699Y-86229847D01*
X100093834Y-86377440D01*
X100125000Y-86534123D01*
X100125000Y-86693877D01*
X100093834Y-86850560D01*
X100032699Y-86998153D01*
X99943945Y-87130982D01*
X99830982Y-87243945D01*
X99698153Y-87332699D01*
X99698152Y-87332700D01*
X99698151Y-87332700D01*
X99550560Y-87393834D01*
X99393878Y-87425000D01*
X99234122Y-87425000D01*
X99077440Y-87393834D01*
X98929849Y-87332700D01*
X98929848Y-87332700D01*
X98929847Y-87332699D01*
X98797018Y-87243945D01*
X98684055Y-87130982D01*
X98595301Y-86998153D01*
X98534166Y-86850560D01*
X98503000Y-86693877D01*
X98503000Y-86534123D01*
X98534166Y-86377440D01*
X98595301Y-86229847D01*
X98684055Y-86097018D01*
X98797018Y-85984055D01*
X98929847Y-85895301D01*
X99077440Y-85834166D01*
X99234122Y-85803000D01*
X99393878Y-85803000D01*
X99550560Y-85834166D01*
X99550560Y-85834166D01*
G37*
G36*
X56370560Y-85834166D02*
G01*
X56518153Y-85895301D01*
X56650982Y-85984055D01*
X56763945Y-86097018D01*
X56852699Y-86229847D01*
X56913834Y-86377440D01*
X56945000Y-86534123D01*
X56945000Y-86693877D01*
X56913834Y-86850560D01*
X56852699Y-86998153D01*
X56763945Y-87130982D01*
X56650982Y-87243945D01*
X56518153Y-87332699D01*
X56518152Y-87332700D01*
X56518151Y-87332700D01*
X56370560Y-87393834D01*
X56213878Y-87425000D01*
X56054122Y-87425000D01*
X55897440Y-87393834D01*
X55749849Y-87332700D01*
X55749848Y-87332700D01*
X55749847Y-87332699D01*
X55617018Y-87243945D01*
X55504055Y-87130982D01*
X55415301Y-86998153D01*
X55354166Y-86850560D01*
X55323000Y-86693877D01*
X55323000Y-86534123D01*
X55354166Y-86377440D01*
X55415301Y-86229847D01*
X55504055Y-86097018D01*
X55617018Y-85984055D01*
X55749847Y-85895301D01*
X55897440Y-85834166D01*
X56054122Y-85803000D01*
X56213878Y-85803000D01*
X56370560Y-85834166D01*
X56370560Y-85834166D01*
G37*
G36*
X51290560Y-85834166D02*
G01*
X51438153Y-85895301D01*
X51570982Y-85984055D01*
X51683945Y-86097018D01*
X51772699Y-86229847D01*
X51833834Y-86377440D01*
X51865000Y-86534123D01*
X51865000Y-86693877D01*
X51833834Y-86850560D01*
X51772699Y-86998153D01*
X51683945Y-87130982D01*
X51570982Y-87243945D01*
X51438153Y-87332699D01*
X51438152Y-87332700D01*
X51438151Y-87332700D01*
X51290560Y-87393834D01*
X51133878Y-87425000D01*
X50974122Y-87425000D01*
X50817440Y-87393834D01*
X50669849Y-87332700D01*
X50669848Y-87332700D01*
X50669847Y-87332699D01*
X50537018Y-87243945D01*
X50424055Y-87130982D01*
X50335301Y-86998153D01*
X50274166Y-86850560D01*
X50243000Y-86693877D01*
X50243000Y-86534123D01*
X50274166Y-86377440D01*
X50335301Y-86229847D01*
X50424055Y-86097018D01*
X50537018Y-85984055D01*
X50669847Y-85895301D01*
X50817440Y-85834166D01*
X50974122Y-85803000D01*
X51133878Y-85803000D01*
X51290560Y-85834166D01*
X51290560Y-85834166D01*
G37*
G36*
X48750560Y-85834166D02*
G01*
X48898153Y-85895301D01*
X49030982Y-85984055D01*
X49143945Y-86097018D01*
X49232699Y-86229847D01*
X49293834Y-86377440D01*
X49325000Y-86534123D01*
X49325000Y-86693877D01*
X49293834Y-86850560D01*
X49232699Y-86998153D01*
X49143945Y-87130982D01*
X49030982Y-87243945D01*
X48898153Y-87332699D01*
X48898152Y-87332700D01*
X48898151Y-87332700D01*
X48750560Y-87393834D01*
X48593878Y-87425000D01*
X48434122Y-87425000D01*
X48277440Y-87393834D01*
X48129849Y-87332700D01*
X48129848Y-87332700D01*
X48129847Y-87332699D01*
X47997018Y-87243945D01*
X47884055Y-87130982D01*
X47795301Y-86998153D01*
X47734166Y-86850560D01*
X47703000Y-86693877D01*
X47703000Y-86534123D01*
X47734166Y-86377440D01*
X47795301Y-86229847D01*
X47884055Y-86097018D01*
X47997018Y-85984055D01*
X48129847Y-85895301D01*
X48277440Y-85834166D01*
X48434122Y-85803000D01*
X48593878Y-85803000D01*
X48750560Y-85834166D01*
X48750560Y-85834166D01*
G37*
G36*
X53830560Y-85834166D02*
G01*
X53978153Y-85895301D01*
X54110982Y-85984055D01*
X54223945Y-86097018D01*
X54312699Y-86229847D01*
X54373834Y-86377440D01*
X54405000Y-86534123D01*
X54405000Y-86693877D01*
X54373834Y-86850560D01*
X54312699Y-86998153D01*
X54223945Y-87130982D01*
X54110982Y-87243945D01*
X53978153Y-87332699D01*
X53978152Y-87332700D01*
X53978151Y-87332700D01*
X53830560Y-87393834D01*
X53673878Y-87425000D01*
X53514122Y-87425000D01*
X53357440Y-87393834D01*
X53209849Y-87332700D01*
X53209848Y-87332700D01*
X53209847Y-87332699D01*
X53077018Y-87243945D01*
X52964055Y-87130982D01*
X52875301Y-86998153D01*
X52814166Y-86850560D01*
X52783000Y-86693877D01*
X52783000Y-86534123D01*
X52814166Y-86377440D01*
X52875301Y-86229847D01*
X52964055Y-86097018D01*
X53077018Y-85984055D01*
X53209847Y-85895301D01*
X53357440Y-85834166D01*
X53514122Y-85803000D01*
X53673878Y-85803000D01*
X53830560Y-85834166D01*
X53830560Y-85834166D01*
G37*
G36*
X36050560Y-85834166D02*
G01*
X36198153Y-85895301D01*
X36330982Y-85984055D01*
X36443945Y-86097018D01*
X36532699Y-86229847D01*
X36593834Y-86377440D01*
X36625000Y-86534123D01*
X36625000Y-86693877D01*
X36593834Y-86850560D01*
X36532699Y-86998153D01*
X36443945Y-87130982D01*
X36330982Y-87243945D01*
X36198153Y-87332699D01*
X36198152Y-87332700D01*
X36198151Y-87332700D01*
X36050560Y-87393834D01*
X35893878Y-87425000D01*
X35734122Y-87425000D01*
X35577440Y-87393834D01*
X35429849Y-87332700D01*
X35429848Y-87332700D01*
X35429847Y-87332699D01*
X35297018Y-87243945D01*
X35184055Y-87130982D01*
X35095301Y-86998153D01*
X35034166Y-86850560D01*
X35003000Y-86693877D01*
X35003000Y-86534123D01*
X35034166Y-86377440D01*
X35095301Y-86229847D01*
X35184055Y-86097018D01*
X35297018Y-85984055D01*
X35429847Y-85895301D01*
X35577440Y-85834166D01*
X35734122Y-85803000D01*
X35893878Y-85803000D01*
X36050560Y-85834166D01*
X36050560Y-85834166D01*
G37*
G36*
X139653908Y-48554780D02*
G01*
X139820767Y-48587970D01*
X140292299Y-48783285D01*
X140526596Y-48939838D01*
X140716666Y-49066838D01*
X141077562Y-49427734D01*
X141174425Y-49572701D01*
X141361115Y-49852101D01*
X141556430Y-50323633D01*
X141556430Y-50323634D01*
X141651422Y-50801191D01*
X141656000Y-50824209D01*
X141656000Y-51334591D01*
X141556430Y-51835167D01*
X141361115Y-52306699D01*
X141198927Y-52549429D01*
X141077562Y-52731066D01*
X140716666Y-53091962D01*
X140535029Y-53213327D01*
X140292299Y-53375515D01*
X139820767Y-53570830D01*
X139653908Y-53604020D01*
X139320193Y-53670400D01*
X138809807Y-53670400D01*
X138476092Y-53604020D01*
X138309233Y-53570830D01*
X137837701Y-53375515D01*
X137594971Y-53213327D01*
X137413334Y-53091962D01*
X137052438Y-52731066D01*
X136931073Y-52549429D01*
X136768885Y-52306699D01*
X136573570Y-51835167D01*
X136474000Y-51334591D01*
X136474000Y-50824209D01*
X136478579Y-50801191D01*
X136573570Y-50323634D01*
X136573570Y-50323633D01*
X136768885Y-49852101D01*
X136955575Y-49572701D01*
X137052438Y-49427734D01*
X137413334Y-49066838D01*
X137603404Y-48939838D01*
X137837701Y-48783285D01*
X138309233Y-48587970D01*
X138476092Y-48554780D01*
X138809807Y-48488400D01*
X139320193Y-48488400D01*
X139653908Y-48554780D01*
X139653908Y-48554780D01*
G37*
G36*
X147527908Y-48554780D02*
G01*
X147694767Y-48587970D01*
X148166299Y-48783285D01*
X148400596Y-48939838D01*
X148590666Y-49066838D01*
X148951562Y-49427734D01*
X149048425Y-49572701D01*
X149235115Y-49852101D01*
X149430430Y-50323633D01*
X149430430Y-50323634D01*
X149525422Y-50801191D01*
X149530000Y-50824209D01*
X149530000Y-51334591D01*
X149430430Y-51835167D01*
X149235115Y-52306699D01*
X149072927Y-52549429D01*
X148951562Y-52731066D01*
X148590666Y-53091962D01*
X148409029Y-53213327D01*
X148166299Y-53375515D01*
X147694767Y-53570830D01*
X147527908Y-53604020D01*
X147194193Y-53670400D01*
X146683807Y-53670400D01*
X146350092Y-53604020D01*
X146183233Y-53570830D01*
X145711701Y-53375515D01*
X145468971Y-53213327D01*
X145287334Y-53091962D01*
X144926438Y-52731066D01*
X144805073Y-52549429D01*
X144642885Y-52306699D01*
X144447570Y-51835167D01*
X144348000Y-51334591D01*
X144348000Y-50824209D01*
X144352579Y-50801191D01*
X144447570Y-50323634D01*
X144447570Y-50323633D01*
X144642885Y-49852101D01*
X144829575Y-49572701D01*
X144926438Y-49427734D01*
X145287334Y-49066838D01*
X145477404Y-48939838D01*
X145711701Y-48783285D01*
X146183233Y-48587970D01*
X146350092Y-48554780D01*
X146683807Y-48488400D01*
X147194193Y-48488400D01*
X147527908Y-48554780D01*
X147527908Y-48554780D01*
G37*
G36*
X127207908Y-48427780D02*
G01*
X127374767Y-48460970D01*
X127846299Y-48656285D01*
X128042584Y-48787439D01*
X128270666Y-48939838D01*
X128631562Y-49300734D01*
X128716420Y-49427734D01*
X128915115Y-49725101D01*
X129047304Y-50044234D01*
X129110430Y-50196634D01*
X129210000Y-50697207D01*
X129210000Y-51207593D01*
X129184738Y-51334593D01*
X129110430Y-51708167D01*
X128915115Y-52179699D01*
X128752927Y-52422429D01*
X128631562Y-52604066D01*
X128270666Y-52964962D01*
X128089029Y-53086327D01*
X127846299Y-53248515D01*
X127374767Y-53443830D01*
X127207908Y-53477020D01*
X126874193Y-53543400D01*
X126363807Y-53543400D01*
X126030092Y-53477020D01*
X125863233Y-53443830D01*
X125391701Y-53248515D01*
X125148971Y-53086327D01*
X124967334Y-52964962D01*
X124606438Y-52604066D01*
X124485073Y-52422429D01*
X124322885Y-52179699D01*
X124127570Y-51708167D01*
X124053262Y-51334593D01*
X124028000Y-51207593D01*
X124028000Y-50697207D01*
X124127570Y-50196634D01*
X124190696Y-50044234D01*
X124322885Y-49725101D01*
X124521580Y-49427734D01*
X124606438Y-49300734D01*
X124967334Y-48939838D01*
X125195416Y-48787439D01*
X125391701Y-48656285D01*
X125863233Y-48460970D01*
X126030092Y-48427780D01*
X126363807Y-48361400D01*
X126874193Y-48361400D01*
X127207908Y-48427780D01*
X127207908Y-48427780D01*
G37*
G36*
X119333908Y-48427780D02*
G01*
X119500767Y-48460970D01*
X119972299Y-48656285D01*
X120168584Y-48787439D01*
X120396666Y-48939838D01*
X120757562Y-49300734D01*
X120842420Y-49427734D01*
X121041115Y-49725101D01*
X121173304Y-50044234D01*
X121236430Y-50196634D01*
X121336000Y-50697207D01*
X121336000Y-51207593D01*
X121310738Y-51334593D01*
X121236430Y-51708167D01*
X121041115Y-52179699D01*
X120878927Y-52422429D01*
X120757562Y-52604066D01*
X120396666Y-52964962D01*
X120215029Y-53086327D01*
X119972299Y-53248515D01*
X119500767Y-53443830D01*
X119333908Y-53477020D01*
X119000193Y-53543400D01*
X118489807Y-53543400D01*
X118156092Y-53477020D01*
X117989233Y-53443830D01*
X117517701Y-53248515D01*
X117274971Y-53086327D01*
X117093334Y-52964962D01*
X116732438Y-52604066D01*
X116611073Y-52422429D01*
X116448885Y-52179699D01*
X116253570Y-51708167D01*
X116179262Y-51334593D01*
X116154000Y-51207593D01*
X116154000Y-50697207D01*
X116253570Y-50196634D01*
X116316696Y-50044234D01*
X116448885Y-49725101D01*
X116647580Y-49427734D01*
X116732438Y-49300734D01*
X117093334Y-48939838D01*
X117321416Y-48787439D01*
X117517701Y-48656285D01*
X117989233Y-48460970D01*
X118156092Y-48427780D01*
X118489807Y-48361400D01*
X119000193Y-48361400D01*
X119333908Y-48427780D01*
X119333908Y-48427780D01*
G37*
G36*
X107903431Y-48275285D02*
G01*
X108070767Y-48308570D01*
X108542299Y-48503885D01*
X108770381Y-48656285D01*
X108966666Y-48787438D01*
X109327562Y-49148334D01*
X109429392Y-49300734D01*
X109611115Y-49572701D01*
X109806430Y-50044233D01*
X109906000Y-50544809D01*
X109906000Y-51055191D01*
X109806430Y-51555767D01*
X109611115Y-52027299D01*
X109509284Y-52179699D01*
X109327562Y-52451666D01*
X108966666Y-52812562D01*
X108785029Y-52933927D01*
X108542299Y-53096115D01*
X108070767Y-53291430D01*
X107903908Y-53324620D01*
X107570193Y-53391000D01*
X107059807Y-53391000D01*
X106726092Y-53324620D01*
X106559233Y-53291430D01*
X106087701Y-53096115D01*
X105844971Y-52933927D01*
X105663334Y-52812562D01*
X105302438Y-52451666D01*
X105120716Y-52179699D01*
X105018885Y-52027299D01*
X104823570Y-51555767D01*
X104724000Y-51055191D01*
X104724000Y-50544809D01*
X104823570Y-50044233D01*
X105018885Y-49572701D01*
X105200608Y-49300734D01*
X105302438Y-49148334D01*
X105663334Y-48787438D01*
X105859619Y-48656285D01*
X106087701Y-48503885D01*
X106559233Y-48308570D01*
X106726569Y-48275285D01*
X107059807Y-48209000D01*
X107570193Y-48209000D01*
X107903431Y-48275285D01*
X107903431Y-48275285D01*
G37*
G36*
X100029431Y-48275285D02*
G01*
X100196767Y-48308570D01*
X100668299Y-48503885D01*
X100896381Y-48656285D01*
X101092666Y-48787438D01*
X101453562Y-49148334D01*
X101555392Y-49300734D01*
X101737115Y-49572701D01*
X101932430Y-50044233D01*
X102032000Y-50544809D01*
X102032000Y-51055191D01*
X101932430Y-51555767D01*
X101737115Y-52027299D01*
X101635284Y-52179699D01*
X101453562Y-52451666D01*
X101092666Y-52812562D01*
X100911029Y-52933927D01*
X100668299Y-53096115D01*
X100196767Y-53291430D01*
X100029908Y-53324620D01*
X99696193Y-53391000D01*
X99185807Y-53391000D01*
X98852092Y-53324620D01*
X98685233Y-53291430D01*
X98213701Y-53096115D01*
X97970971Y-52933927D01*
X97789334Y-52812562D01*
X97428438Y-52451666D01*
X97246716Y-52179699D01*
X97144885Y-52027299D01*
X96949570Y-51555767D01*
X96850000Y-51055191D01*
X96850000Y-50544809D01*
X96949570Y-50044233D01*
X97144885Y-49572701D01*
X97326608Y-49300734D01*
X97428438Y-49148334D01*
X97789334Y-48787438D01*
X97985619Y-48656285D01*
X98213701Y-48503885D01*
X98685233Y-48308570D01*
X98852569Y-48275285D01*
X99185807Y-48209000D01*
X99696193Y-48209000D01*
X100029431Y-48275285D01*
X100029431Y-48275285D01*
G37*
G36*
X49864908Y-48046780D02*
G01*
X50031767Y-48079970D01*
X50503299Y-48275285D01*
X50746029Y-48437473D01*
X50927666Y-48558838D01*
X51288562Y-48919734D01*
X51386853Y-49066838D01*
X51572115Y-49344101D01*
X51729930Y-49725101D01*
X51767430Y-49815634D01*
X51861948Y-50290807D01*
X51867000Y-50316209D01*
X51867000Y-50826591D01*
X51767430Y-51327167D01*
X51572115Y-51798699D01*
X51419370Y-52027297D01*
X51288562Y-52223066D01*
X50927666Y-52583962D01*
X50746029Y-52705327D01*
X50503299Y-52867515D01*
X50031767Y-53062830D01*
X49885314Y-53091961D01*
X49531193Y-53162400D01*
X49020807Y-53162400D01*
X48666686Y-53091961D01*
X48520233Y-53062830D01*
X48048701Y-52867515D01*
X47805971Y-52705327D01*
X47624334Y-52583962D01*
X47263438Y-52223066D01*
X47132630Y-52027297D01*
X46979885Y-51798699D01*
X46784570Y-51327167D01*
X46685000Y-50826591D01*
X46685000Y-50316209D01*
X46690053Y-50290807D01*
X46784570Y-49815634D01*
X46822070Y-49725101D01*
X46979885Y-49344101D01*
X47165147Y-49066838D01*
X47263438Y-48919734D01*
X47624334Y-48558838D01*
X47805971Y-48437473D01*
X48048701Y-48275285D01*
X48520233Y-48079970D01*
X48687092Y-48046780D01*
X49020807Y-47980400D01*
X49531193Y-47980400D01*
X49864908Y-48046780D01*
X49864908Y-48046780D01*
G37*
G36*
X41990908Y-48046780D02*
G01*
X42157767Y-48079970D01*
X42629299Y-48275285D01*
X42872029Y-48437473D01*
X43053666Y-48558838D01*
X43414562Y-48919734D01*
X43512853Y-49066838D01*
X43698115Y-49344101D01*
X43855930Y-49725101D01*
X43893430Y-49815634D01*
X43987948Y-50290807D01*
X43993000Y-50316209D01*
X43993000Y-50826591D01*
X43893430Y-51327167D01*
X43698115Y-51798699D01*
X43545370Y-52027297D01*
X43414562Y-52223066D01*
X43053666Y-52583962D01*
X42872029Y-52705327D01*
X42629299Y-52867515D01*
X42157767Y-53062830D01*
X42011314Y-53091961D01*
X41657193Y-53162400D01*
X41146807Y-53162400D01*
X40792686Y-53091961D01*
X40646233Y-53062830D01*
X40174701Y-52867515D01*
X39931971Y-52705327D01*
X39750334Y-52583962D01*
X39389438Y-52223066D01*
X39258630Y-52027297D01*
X39105885Y-51798699D01*
X38910570Y-51327167D01*
X38811000Y-50826591D01*
X38811000Y-50316209D01*
X38816053Y-50290807D01*
X38910570Y-49815634D01*
X38948070Y-49725101D01*
X39105885Y-49344101D01*
X39291147Y-49066838D01*
X39389438Y-48919734D01*
X39750334Y-48558838D01*
X39931971Y-48437473D01*
X40174701Y-48275285D01*
X40646233Y-48079970D01*
X40813092Y-48046780D01*
X41146807Y-47980400D01*
X41657193Y-47980400D01*
X41990908Y-48046780D01*
X41990908Y-48046780D01*
G37*
G36*
X80852908Y-48021380D02*
G01*
X81019767Y-48054570D01*
X81491299Y-48249885D01*
X81658192Y-48361400D01*
X81915666Y-48533438D01*
X82276562Y-48894334D01*
X82306967Y-48939839D01*
X82560115Y-49318701D01*
X82755430Y-49790233D01*
X82788620Y-49957092D01*
X82855000Y-50290807D01*
X82855000Y-50801193D01*
X82804477Y-51055191D01*
X82755430Y-51301767D01*
X82560115Y-51773299D01*
X82397927Y-52016029D01*
X82276562Y-52197666D01*
X81915666Y-52558562D01*
X81734029Y-52679927D01*
X81491299Y-52842115D01*
X81019767Y-53037430D01*
X80852908Y-53070620D01*
X80519193Y-53137000D01*
X80008807Y-53137000D01*
X79675092Y-53070620D01*
X79508233Y-53037430D01*
X79036701Y-52842115D01*
X78793971Y-52679927D01*
X78612334Y-52558562D01*
X78251438Y-52197666D01*
X78130073Y-52016029D01*
X77967885Y-51773299D01*
X77772570Y-51301767D01*
X77723523Y-51055191D01*
X77673000Y-50801193D01*
X77673000Y-50290807D01*
X77739380Y-49957092D01*
X77772570Y-49790233D01*
X77967885Y-49318701D01*
X78221033Y-48939839D01*
X78251438Y-48894334D01*
X78612334Y-48533438D01*
X78869808Y-48361400D01*
X79036701Y-48249885D01*
X79508233Y-48054570D01*
X79675092Y-48021380D01*
X80008807Y-47955000D01*
X80519193Y-47955000D01*
X80852908Y-48021380D01*
X80852908Y-48021380D01*
G37*
G36*
X88726908Y-48021380D02*
G01*
X88893767Y-48054570D01*
X89365299Y-48249885D01*
X89532192Y-48361400D01*
X89789666Y-48533438D01*
X90150562Y-48894334D01*
X90180967Y-48939839D01*
X90434115Y-49318701D01*
X90629430Y-49790233D01*
X90662620Y-49957092D01*
X90729000Y-50290807D01*
X90729000Y-50801193D01*
X90678477Y-51055191D01*
X90629430Y-51301767D01*
X90434115Y-51773299D01*
X90271927Y-52016029D01*
X90150562Y-52197666D01*
X89789666Y-52558562D01*
X89608029Y-52679927D01*
X89365299Y-52842115D01*
X88893767Y-53037430D01*
X88726908Y-53070620D01*
X88393193Y-53137000D01*
X87882807Y-53137000D01*
X87549092Y-53070620D01*
X87382233Y-53037430D01*
X86910701Y-52842115D01*
X86667971Y-52679927D01*
X86486334Y-52558562D01*
X86125438Y-52197666D01*
X86004073Y-52016029D01*
X85841885Y-51773299D01*
X85646570Y-51301767D01*
X85597523Y-51055191D01*
X85547000Y-50801193D01*
X85547000Y-50290807D01*
X85613380Y-49957092D01*
X85646570Y-49790233D01*
X85841885Y-49318701D01*
X86095033Y-48939839D01*
X86125438Y-48894334D01*
X86486334Y-48533438D01*
X86743808Y-48361400D01*
X86910701Y-48249885D01*
X87382233Y-48054570D01*
X87549092Y-48021380D01*
X87882807Y-47955000D01*
X88393193Y-47955000D01*
X88726908Y-48021380D01*
X88726908Y-48021380D01*
G37*
G36*
X69041908Y-48021380D02*
G01*
X69208767Y-48054570D01*
X69680299Y-48249885D01*
X69847192Y-48361400D01*
X70104666Y-48533438D01*
X70465562Y-48894334D01*
X70495967Y-48939839D01*
X70749115Y-49318701D01*
X70944430Y-49790233D01*
X70977620Y-49957092D01*
X71044000Y-50290807D01*
X71044000Y-50801193D01*
X70993477Y-51055191D01*
X70944430Y-51301767D01*
X70749115Y-51773299D01*
X70586927Y-52016029D01*
X70465562Y-52197666D01*
X70104666Y-52558562D01*
X69923029Y-52679927D01*
X69680299Y-52842115D01*
X69208767Y-53037430D01*
X69041908Y-53070620D01*
X68708193Y-53137000D01*
X68197807Y-53137000D01*
X67864092Y-53070620D01*
X67697233Y-53037430D01*
X67225701Y-52842115D01*
X66982971Y-52679927D01*
X66801334Y-52558562D01*
X66440438Y-52197666D01*
X66319073Y-52016029D01*
X66156885Y-51773299D01*
X65961570Y-51301767D01*
X65912523Y-51055191D01*
X65862000Y-50801193D01*
X65862000Y-50290807D01*
X65928380Y-49957092D01*
X65961570Y-49790233D01*
X66156885Y-49318701D01*
X66410033Y-48939839D01*
X66440438Y-48894334D01*
X66801334Y-48533438D01*
X67058808Y-48361400D01*
X67225701Y-48249885D01*
X67697233Y-48054570D01*
X67864092Y-48021380D01*
X68197807Y-47955000D01*
X68708193Y-47955000D01*
X69041908Y-48021380D01*
X69041908Y-48021380D01*
G37*
G36*
X61167908Y-48021380D02*
G01*
X61334767Y-48054570D01*
X61806299Y-48249885D01*
X61973192Y-48361400D01*
X62230666Y-48533438D01*
X62591562Y-48894334D01*
X62621967Y-48939839D01*
X62875115Y-49318701D01*
X63070430Y-49790233D01*
X63103620Y-49957092D01*
X63170000Y-50290807D01*
X63170000Y-50801193D01*
X63119477Y-51055191D01*
X63070430Y-51301767D01*
X62875115Y-51773299D01*
X62712927Y-52016029D01*
X62591562Y-52197666D01*
X62230666Y-52558562D01*
X62049029Y-52679927D01*
X61806299Y-52842115D01*
X61334767Y-53037430D01*
X61167908Y-53070620D01*
X60834193Y-53137000D01*
X60323807Y-53137000D01*
X59990092Y-53070620D01*
X59823233Y-53037430D01*
X59351701Y-52842115D01*
X59108971Y-52679927D01*
X58927334Y-52558562D01*
X58566438Y-52197666D01*
X58445073Y-52016029D01*
X58282885Y-51773299D01*
X58087570Y-51301767D01*
X58038523Y-51055191D01*
X57988000Y-50801193D01*
X57988000Y-50290807D01*
X58054380Y-49957092D01*
X58087570Y-49790233D01*
X58282885Y-49318701D01*
X58536033Y-48939839D01*
X58566438Y-48894334D01*
X58927334Y-48533438D01*
X59184808Y-48361400D01*
X59351701Y-48249885D01*
X59823233Y-48054570D01*
X59990092Y-48021380D01*
X60323807Y-47955000D01*
X60834193Y-47955000D01*
X61167908Y-48021380D01*
X61167908Y-48021380D01*
G37*
M02*
