G04 #@! TF.GenerationSoftware,KiCad,Pcbnew,(5.1.4)-1*
G04 #@! TF.CreationDate,2020-11-26T11:17:14-06:00*
G04 #@! TF.ProjectId,ScienceMotorController,53636965-6e63-4654-9d6f-746f72436f6e,rev?*
G04 #@! TF.SameCoordinates,Original*
G04 #@! TF.FileFunction,Profile,NP*
%FSLAX46Y46*%
G04 Gerber Fmt 4.6, Leading zero omitted, Abs format (unit mm)*
G04 Created by KiCad (PCBNEW (5.1.4)-1) date 2020-11-26 11:17:14*
%MOMM*%
%LPD*%
G04 APERTURE LIST*
%ADD10C,0.050000*%
G04 APERTURE END LIST*
D10*
X34544000Y-41402000D02*
X34544000Y-44450000D01*
X159004000Y-41910000D02*
X159004000Y-44958000D01*
X156464000Y-39370000D02*
X156210000Y-39370000D01*
X156464000Y-39370000D02*
G75*
G02X159004000Y-41910000I0J-2540000D01*
G01*
X159004000Y-49022000D02*
X159004000Y-44958000D01*
X141478000Y-39370000D02*
X156210000Y-39370000D01*
X130810000Y-39370000D02*
X141478000Y-39370000D01*
X119888000Y-39370000D02*
X130810000Y-39370000D01*
X109728000Y-39370000D02*
X119888000Y-39370000D01*
X99822000Y-39370000D02*
X109728000Y-39370000D01*
X87630000Y-39370000D02*
X99822000Y-39370000D01*
X75946000Y-39370000D02*
X87630000Y-39370000D01*
X67818000Y-39370000D02*
X75946000Y-39370000D01*
X63246000Y-39370000D02*
X67818000Y-39370000D01*
X48006000Y-39370000D02*
X63246000Y-39370000D01*
X36576000Y-39370000D02*
X48006000Y-39370000D01*
X34544000Y-41402000D02*
G75*
G02X36576000Y-39370000I2032000J0D01*
G01*
X159004000Y-49022000D02*
X159004000Y-49022000D01*
X159004000Y-77724000D02*
X159004000Y-49022000D01*
X34544000Y-77724000D02*
X34544000Y-44450000D01*
X34544000Y-144272000D02*
X34544000Y-77724000D01*
X34544000Y-144272000D02*
G75*
G02X34544000Y-148336000I0J-2032000D01*
G01*
X34544000Y-156972000D02*
X34544000Y-148336000D01*
X36576000Y-159004000D02*
G75*
G02X34544000Y-156972000I0J2032000D01*
G01*
X159004000Y-111252000D02*
X159004000Y-77724000D01*
X159004000Y-111252000D02*
G75*
G02X156972000Y-113284000I-2032000J0D01*
G01*
X141224000Y-113284000D02*
X156972000Y-113284000D01*
X141224000Y-134112000D02*
X141224000Y-113284000D01*
X156972000Y-134112000D02*
X141224000Y-134112000D01*
X156972000Y-134112000D02*
G75*
G02X159004000Y-136144000I0J-2032000D01*
G01*
X159004000Y-144272000D02*
X159004000Y-136144000D01*
X159004000Y-148336000D02*
G75*
G02X159004000Y-144272000I0J2032000D01*
G01*
X159004000Y-156972000D02*
X159004000Y-148336000D01*
X159004000Y-156972000D02*
G75*
G02X156972000Y-159004000I-2032000J0D01*
G01*
X36576000Y-159004000D02*
X156972000Y-159004000D01*
M02*
