G04 #@! TF.GenerationSoftware,KiCad,Pcbnew,(5.0.0)*
G04 #@! TF.CreationDate,2019-12-13T16:43:05-06:00*
G04 #@! TF.ProjectId,ScienceMotorController_Hardware,536369656E63654D6F746F72436F6E74,rev?*
G04 #@! TF.SameCoordinates,Original*
G04 #@! TF.FileFunction,Paste,Bot*
G04 #@! TF.FilePolarity,Positive*
%FSLAX46Y46*%
G04 Gerber Fmt 4.6, Leading zero omitted, Abs format (unit mm)*
G04 Created by KiCad (PCBNEW (5.0.0)) date 12/13/19 16:43:05*
%MOMM*%
%LPD*%
G01*
G04 APERTURE LIST*
%ADD10C,5.080000*%
%ADD11R,0.990600X1.778000*%
G04 APERTURE END LIST*
D10*
G04 #@! TO.C,Conn2*
X56261000Y-62382400D03*
X48387000Y-62382400D03*
G04 #@! TD*
G04 #@! TO.C,Conn3*
X83185000Y-62382400D03*
X75311000Y-62382400D03*
G04 #@! TD*
G04 #@! TO.C,Conn4*
X110363000Y-62382400D03*
X102489000Y-62382400D03*
G04 #@! TD*
G04 #@! TO.C,Conn5*
X129159000Y-62382400D03*
X137033000Y-62382400D03*
G04 #@! TD*
D11*
G04 #@! TO.C,U1*
X103378000Y-139852400D03*
X126238000Y-90779600D03*
X123698000Y-90779600D03*
X116078000Y-90779600D03*
X113538000Y-133959600D03*
X118618000Y-90779600D03*
X121158000Y-90779600D03*
X118618000Y-139852400D03*
X123698000Y-133959600D03*
X113538000Y-90779600D03*
X110998000Y-90779600D03*
X123698000Y-139852400D03*
X118618000Y-133959600D03*
X116078000Y-133959600D03*
X103378000Y-133959600D03*
X105918000Y-133959600D03*
X108458000Y-133959600D03*
X110998000Y-133959600D03*
X121158000Y-133959600D03*
X126238000Y-133959600D03*
X105918000Y-139852400D03*
X108458000Y-139852400D03*
X110998000Y-139852400D03*
X113538000Y-139852400D03*
X116078000Y-139852400D03*
X121158000Y-139852400D03*
X126238000Y-139852400D03*
X103378000Y-96672400D03*
X105918000Y-96672400D03*
X108458000Y-96672400D03*
X110998000Y-96672400D03*
X113538000Y-96672400D03*
X116078000Y-96672400D03*
X118618000Y-96672400D03*
X121158000Y-96672400D03*
X123698000Y-96672400D03*
X126238000Y-96672400D03*
X103378000Y-90779600D03*
X105918000Y-90779600D03*
X108458000Y-90779600D03*
X39878000Y-133959600D03*
X42418000Y-133959600D03*
X44958000Y-133959600D03*
X47498000Y-133959600D03*
X50038000Y-133959600D03*
X52578000Y-133959600D03*
X55118000Y-133959600D03*
X57658000Y-133959600D03*
X60198000Y-133959600D03*
X62738000Y-133959600D03*
X39878000Y-139852400D03*
X42418000Y-139852400D03*
X44958000Y-139852400D03*
X47498000Y-139852400D03*
X50038000Y-139852400D03*
X52578000Y-139852400D03*
X55118000Y-139852400D03*
X57658000Y-139852400D03*
X60198000Y-139852400D03*
X62738000Y-139852400D03*
X39878000Y-96672400D03*
X42418000Y-96672400D03*
X44958000Y-96672400D03*
X47498000Y-96672400D03*
X50038000Y-96672400D03*
X52578000Y-96672400D03*
X55118000Y-96672400D03*
X57658000Y-96672400D03*
X60198000Y-96672400D03*
X62738000Y-96672400D03*
X39878000Y-90779600D03*
X42418000Y-90779600D03*
X44958000Y-90779600D03*
X47498000Y-90779600D03*
X50038000Y-90779600D03*
X52578000Y-90779600D03*
X55118000Y-90779600D03*
X57658000Y-90779600D03*
X60198000Y-90779600D03*
X62738000Y-90779600D03*
G04 #@! TD*
M02*
