M48
;DRILL file {KiCad (5.0.0)} date 12/13/19 16:43:13
;FORMAT={-:-/ absolute / inch / decimal}
FMAT,2
INCH,TZ
T1C0.0157
T2C0.0315
T3C0.0350
T4C0.0354
T5C0.0591
T6C0.1598
%
G90
G05
M72
T1
X1.6Y-5.09
X1.62Y-2.31
X1.62Y-4.25
X1.67Y-1.86
X1.7Y-3.18
X1.72Y-3.87
X1.785Y-2.9
X1.785Y-2.945
X1.785Y-2.99
X1.785Y-3.035
X1.785Y-3.08
X1.79Y-4.11
X1.829Y-2.9
X1.829Y-2.945
X1.829Y-2.99
X1.829Y-3.035
X1.829Y-3.08
X1.85Y-3.91
X1.86Y-4.11
X1.865Y-3.68
X1.8656Y-3.14
X1.8656Y-3.185
X1.8656Y-3.23
X1.8656Y-3.275
X1.8656Y-3.32
X1.873Y-2.9
X1.873Y-2.945
X1.873Y-2.99
X1.873Y-3.035
X1.873Y-3.08
X1.89Y-4.36
X1.9079Y-3.14
X1.9079Y-3.185
X1.9079Y-3.23
X1.9079Y-3.275
X1.9079Y-3.32
X1.917Y-2.9
X1.917Y-2.945
X1.917Y-2.99
X1.917Y-3.035
X1.917Y-3.08
X1.93Y-4.11
X1.9503Y-3.14
X1.9503Y-3.185
X1.9503Y-3.23
X1.9503Y-3.275
X1.9503Y-3.32
X1.96Y-3.91
X1.961Y-2.9
X1.961Y-2.945
X1.961Y-2.99
X1.961Y-3.035
X1.961Y-3.08
X1.965Y-3.995
X1.99Y-3.7436
X1.99Y-4.99
X1.9927Y-3.14
X1.9927Y-3.185
X1.9927Y-3.23
X1.9927Y-3.275
X1.9927Y-3.32
X2.Y-4.11
X2.005Y-2.9
X2.005Y-2.945
X2.005Y-2.99
X2.005Y-3.035
X2.005Y-3.08
X2.0351Y-3.14
X2.0351Y-3.185
X2.0351Y-3.23
X2.0351Y-3.275
X2.0351Y-3.32
X2.0775Y-3.14
X2.0775Y-3.185
X2.0775Y-3.23
X2.0775Y-3.275
X2.0775Y-3.32
X2.08Y-4.11
X2.113Y-2.9
X2.113Y-2.945
X2.113Y-2.99
X2.113Y-3.035
X2.113Y-3.08
X2.1199Y-3.14
X2.1199Y-3.185
X2.1199Y-3.23
X2.1199Y-3.275
X2.1199Y-3.32
X2.12Y-5.44
X2.15Y-5.06
X2.157Y-2.9
X2.157Y-2.945
X2.157Y-2.99
X2.157Y-3.035
X2.157Y-3.08
X2.1622Y-3.14
X2.1622Y-3.185
X2.1622Y-3.23
X2.1622Y-3.275
X2.1622Y-3.32
X2.201Y-2.9
X2.201Y-2.945
X2.201Y-2.99
X2.201Y-3.035
X2.201Y-3.08
X2.2046Y-3.14
X2.2046Y-3.185
X2.2046Y-3.23
X2.2046Y-3.275
X2.2046Y-3.32
X2.23Y-4.36
X2.23Y-4.98
X2.245Y-2.9
X2.245Y-2.945
X2.245Y-2.99
X2.245Y-3.035
X2.245Y-3.08
X2.247Y-3.14
X2.247Y-3.185
X2.247Y-3.23
X2.247Y-3.275
X2.247Y-3.32
X2.289Y-2.9
X2.289Y-2.945
X2.289Y-2.99
X2.289Y-3.035
X2.289Y-3.08
X2.31Y-3.7
X2.333Y-2.9
X2.333Y-2.945
X2.333Y-2.99
X2.333Y-3.035
X2.333Y-3.08
X2.35Y-3.67
X2.45Y-2.9
X2.47Y-3.64
X2.62Y-3.085
X2.62Y-3.51
X2.63Y-3.7886
X2.66Y-4.3591
X2.68Y-2.31
X2.7Y-4.9891
X2.72Y-1.84
X2.73Y-2.95
X2.81Y-3.995
X2.85Y-2.9
X2.85Y-2.945
X2.85Y-2.99
X2.85Y-3.035
X2.85Y-3.08
X2.894Y-2.9
X2.894Y-2.945
X2.894Y-2.99
X2.894Y-3.035
X2.894Y-3.08
X2.9306Y-3.14
X2.9306Y-3.185
X2.9306Y-3.23
X2.9306Y-3.275
X2.9306Y-3.32
X2.938Y-2.9
X2.938Y-2.945
X2.938Y-2.99
X2.938Y-3.035
X2.938Y-3.08
X2.97Y-4.1
X2.97Y-4.17
X2.97Y-5.07
X2.9729Y-3.14
X2.9729Y-3.185
X2.9729Y-3.23
X2.9729Y-3.275
X2.9729Y-3.32
X2.982Y-2.9
X2.982Y-2.945
X2.982Y-2.99
X2.982Y-3.035
X2.982Y-3.08
X3.0153Y-3.14
X3.0153Y-3.185
X3.0153Y-3.23
X3.0153Y-3.275
X3.0153Y-3.32
X3.026Y-2.9
X3.026Y-2.945
X3.026Y-2.99
X3.026Y-3.035
X3.026Y-3.08
X3.0577Y-3.14
X3.0577Y-3.185
X3.0577Y-3.23
X3.0577Y-3.275
X3.0577Y-3.32
X3.06Y-4.1
X3.06Y-4.17
X3.07Y-2.9
X3.07Y-2.945
X3.07Y-2.99
X3.07Y-3.035
X3.07Y-3.08
X3.09Y-3.73
X3.1001Y-3.14
X3.1001Y-3.185
X3.1001Y-3.23
X3.1001Y-3.275
X3.1001Y-3.32
X3.13Y-4.1
X3.13Y-4.17
X3.1425Y-3.14
X3.1425Y-3.185
X3.1425Y-3.23
X3.1425Y-3.275
X3.1425Y-3.32
X3.178Y-2.9
X3.178Y-2.945
X3.178Y-2.99
X3.178Y-3.035
X3.178Y-3.08
X3.1849Y-3.14
X3.1849Y-3.185
X3.1849Y-3.23
X3.1849Y-3.275
X3.1849Y-3.32
X3.222Y-2.9
X3.222Y-2.945
X3.222Y-2.99
X3.222Y-3.035
X3.222Y-3.08
X3.2272Y-3.14
X3.2272Y-3.185
X3.2272Y-3.23
X3.2272Y-3.275
X3.2272Y-3.32
X3.266Y-2.9
X3.266Y-2.945
X3.266Y-2.99
X3.266Y-3.035
X3.266Y-3.08
X3.2696Y-3.14
X3.2696Y-3.185
X3.2696Y-3.23
X3.2696Y-3.275
X3.2696Y-3.32
X3.31Y-2.9
X3.31Y-2.945
X3.31Y-2.99
X3.31Y-3.035
X3.31Y-3.08
X3.312Y-3.14
X3.312Y-3.185
X3.312Y-3.23
X3.312Y-3.275
X3.312Y-3.32
X3.32Y-3.73
X3.354Y-2.9
X3.354Y-2.945
X3.354Y-2.99
X3.354Y-3.035
X3.354Y-3.08
X3.398Y-2.9
X3.398Y-2.945
X3.398Y-2.99
X3.398Y-3.035
X3.398Y-3.08
X3.41Y-5.13
X3.44Y-4.47
X3.44Y-4.55
X3.44Y-5.16
X3.47Y-5.19
X3.5Y-5.22
X3.51Y-2.88
X3.51Y-3.87
X3.51Y-3.94
X3.51Y-4.01
X3.53Y-4.47
X3.53Y-4.55
X3.54Y-5.12
X3.58Y-3.87
X3.58Y-3.94
X3.58Y-4.01
X3.65Y-3.87
X3.65Y-3.94
X3.65Y-4.01
X3.68Y-3.085
X3.68Y-3.51
X3.745Y-2.31
X3.79Y-3.
X3.8Y-1.83
X3.915Y-2.9
X3.915Y-2.945
X3.915Y-2.99
X3.915Y-3.035
X3.915Y-3.08
X3.959Y-2.9
X3.959Y-2.945
X3.959Y-2.99
X3.959Y-3.035
X3.959Y-3.08
X3.98Y-3.68
X3.9956Y-3.14
X3.9956Y-3.185
X3.9956Y-3.23
X3.9956Y-3.275
X3.9956Y-3.32
X4.003Y-2.9
X4.003Y-2.945
X4.003Y-2.99
X4.003Y-3.035
X4.003Y-3.08
X4.0379Y-3.14
X4.0379Y-3.185
X4.0379Y-3.23
X4.0379Y-3.275
X4.0379Y-3.32
X4.047Y-2.9
X4.047Y-2.945
X4.047Y-2.99
X4.047Y-3.035
X4.047Y-3.08
X4.06Y-4.74
X4.06Y-4.87
X4.06Y-4.99
X4.06Y-5.11
X4.0803Y-3.14
X4.0803Y-3.185
X4.0803Y-3.23
X4.0803Y-3.275
X4.0803Y-3.32
X4.091Y-2.9
X4.091Y-2.945
X4.091Y-2.99
X4.091Y-3.035
X4.091Y-3.08
X4.115Y-3.74
X4.1227Y-3.14
X4.1227Y-3.185
X4.1227Y-3.23
X4.1227Y-3.275
X4.1227Y-3.32
X4.135Y-2.9
X4.135Y-2.945
X4.135Y-2.99
X4.135Y-3.035
X4.135Y-3.08
X4.1651Y-3.14
X4.1651Y-3.185
X4.1651Y-3.23
X4.1651Y-3.275
X4.1651Y-3.32
X4.185Y-4.055
X4.2075Y-3.14
X4.2075Y-3.185
X4.2075Y-3.23
X4.2075Y-3.275
X4.2075Y-3.32
X4.243Y-2.9
X4.243Y-2.945
X4.243Y-2.99
X4.243Y-3.035
X4.243Y-3.08
X4.2499Y-3.14
X4.2499Y-3.185
X4.2499Y-3.23
X4.2499Y-3.275
X4.2499Y-3.32
X4.287Y-2.9
X4.287Y-2.945
X4.287Y-2.99
X4.287Y-3.035
X4.287Y-3.08
X4.2922Y-3.14
X4.2922Y-3.185
X4.2922Y-3.23
X4.2922Y-3.275
X4.2922Y-3.32
X4.331Y-2.9
X4.331Y-2.945
X4.331Y-2.99
X4.331Y-3.035
X4.331Y-3.08
X4.3346Y-3.14
X4.3346Y-3.185
X4.3346Y-3.23
X4.3346Y-3.275
X4.3346Y-3.32
X4.375Y-2.9
X4.375Y-2.945
X4.375Y-2.99
X4.375Y-3.035
X4.375Y-3.08
X4.377Y-3.14
X4.377Y-3.185
X4.377Y-3.23
X4.377Y-3.275
X4.377Y-3.32
X4.419Y-2.9
X4.419Y-2.945
X4.419Y-2.99
X4.419Y-3.035
X4.419Y-3.08
X4.463Y-2.9
X4.463Y-2.945
X4.463Y-2.99
X4.463Y-3.035
X4.463Y-3.08
X4.58Y-2.89
X4.58Y-5.13
X4.61Y-5.01
X4.64Y-4.89
X4.67Y-4.77
X4.73Y-3.085
X4.73Y-3.505
X4.74Y-4.81
X4.74Y-4.93
X4.77Y-3.645
X4.795Y-2.31
X4.84Y-1.84
X4.84Y-2.98
X4.8694Y-3.9944
X4.915Y-3.68
X4.965Y-2.9
X4.965Y-2.945
X4.965Y-2.99
X4.965Y-3.035
X4.965Y-3.08
X5.009Y-2.9
X5.009Y-2.945
X5.009Y-2.99
X5.009Y-3.035
X5.009Y-3.08
X5.02Y-4.1
X5.02Y-4.18
X5.0456Y-3.14
X5.0456Y-3.185
X5.0456Y-3.23
X5.0456Y-3.275
X5.0456Y-3.32
X5.053Y-2.9
X5.053Y-2.945
X5.053Y-2.99
X5.053Y-3.035
X5.053Y-3.08
X5.0879Y-3.14
X5.0879Y-3.185
X5.0879Y-3.23
X5.0879Y-3.275
X5.0879Y-3.32
X5.097Y-2.9
X5.097Y-2.945
X5.097Y-2.99
X5.097Y-3.035
X5.097Y-3.08
X5.11Y-4.1
X5.11Y-4.18
X5.1303Y-3.14
X5.1303Y-3.185
X5.1303Y-3.23
X5.1303Y-3.275
X5.1303Y-3.32
X5.141Y-2.9
X5.141Y-2.945
X5.141Y-2.99
X5.141Y-3.035
X5.141Y-3.08
X5.1727Y-3.14
X5.1727Y-3.185
X5.1727Y-3.23
X5.1727Y-3.275
X5.1727Y-3.32
X5.185Y-2.9
X5.185Y-2.945
X5.185Y-2.99
X5.185Y-3.035
X5.185Y-3.08
X5.195Y-3.735
X5.2151Y-3.14
X5.2151Y-3.185
X5.2151Y-3.23
X5.2151Y-3.275
X5.2151Y-3.32
X5.22Y-4.7
X5.2575Y-3.14
X5.2575Y-3.185
X5.2575Y-3.23
X5.2575Y-3.275
X5.2575Y-3.32
X5.293Y-2.9
X5.293Y-2.945
X5.293Y-2.99
X5.293Y-3.035
X5.293Y-3.08
X5.2999Y-3.14
X5.2999Y-3.185
X5.2999Y-3.23
X5.2999Y-3.275
X5.2999Y-3.32
X5.337Y-2.9
X5.337Y-2.945
X5.337Y-2.99
X5.337Y-3.035
X5.337Y-3.08
X5.34Y-4.82
X5.3422Y-3.14
X5.3422Y-3.185
X5.3422Y-3.23
X5.3422Y-3.275
X5.3422Y-3.32
X5.381Y-2.9
X5.381Y-2.945
X5.381Y-2.99
X5.381Y-3.035
X5.381Y-3.08
X5.3846Y-3.14
X5.3846Y-3.185
X5.3846Y-3.23
X5.3846Y-3.275
X5.3846Y-3.32
X5.425Y-2.9
X5.425Y-2.945
X5.425Y-2.99
X5.425Y-3.035
X5.425Y-3.08
X5.427Y-3.14
X5.427Y-3.185
X5.427Y-3.23
X5.427Y-3.275
X5.427Y-3.32
X5.45Y-4.54
X5.45Y-4.62
X5.469Y-2.9
X5.469Y-2.945
X5.469Y-2.99
X5.469Y-3.035
X5.469Y-3.08
X5.485Y-3.68
X5.513Y-2.9
X5.513Y-2.945
X5.513Y-2.99
X5.513Y-3.035
X5.513Y-3.08
X5.54Y-4.54
X5.54Y-4.62
X5.62Y-2.88
X6.02Y-3.06
T2
X4.72Y-2.5522
X4.72Y-2.69
X3.66Y-2.55
X3.66Y-2.6878
X2.6Y-2.55
X2.6Y-2.6878
X5.77Y-2.5522
X5.77Y-2.69
T3
X5.3404Y-4.176
X5.3404Y-4.276
X5.3404Y-4.376
T4
X3.67Y-4.87
X3.77Y-4.87
X3.155Y-4.42
X3.255Y-4.42
X1.61Y-4.57
X1.61Y-4.6487
X1.61Y-4.7275
X3.155Y-4.87
X3.255Y-4.87
X3.67Y-4.42
X3.77Y-4.42
T5
X1.61Y-4.4873
X1.61Y-4.8102
T6
X3.275Y-2.456
X1.905Y-2.456
X2.215Y-2.456
X4.345Y-2.456
X5.705Y-3.915
X5.705Y-4.225
X5.705Y-4.535
X2.965Y-2.456
X5.085Y-2.456
X5.395Y-2.456
X4.035Y-2.456
T0
M30
