%TF.GenerationSoftware,KiCad,Pcbnew,7.0.7*%
%TF.CreationDate,2024-04-08T21:33:58-05:00*%
%TF.ProjectId,Science_Actuation,53636965-6e63-4655-9f41-637475617469,rev?*%
%TF.SameCoordinates,Original*%
%TF.FileFunction,Copper,L2,Bot*%
%TF.FilePolarity,Positive*%
%FSLAX46Y46*%
G04 Gerber Fmt 4.6, Leading zero omitted, Abs format (unit mm)*
G04 Created by KiCad (PCBNEW 7.0.7) date 2024-04-08 21:33:58*
%MOMM*%
%LPD*%
G01*
G04 APERTURE LIST*
%TA.AperFunction,ComponentPad*%
%ADD10C,1.100000*%
%TD*%
%TA.AperFunction,ComponentPad*%
%ADD11C,1.400000*%
%TD*%
%TA.AperFunction,ComponentPad*%
%ADD12C,4.000000*%
%TD*%
%TA.AperFunction,ComponentPad*%
%ADD13C,2.000000*%
%TD*%
%TA.AperFunction,ComponentPad*%
%ADD14C,1.524000*%
%TD*%
%TA.AperFunction,ComponentPad*%
%ADD15R,1.600000X1.600000*%
%TD*%
%TA.AperFunction,ComponentPad*%
%ADD16C,1.600000*%
%TD*%
%TA.AperFunction,ComponentPad*%
%ADD17O,3.500000X2.200000*%
%TD*%
%TA.AperFunction,ComponentPad*%
%ADD18R,2.500000X1.500000*%
%TD*%
%TA.AperFunction,ComponentPad*%
%ADD19O,2.500000X1.500000*%
%TD*%
%TA.AperFunction,ComponentPad*%
%ADD20R,2.000000X2.000000*%
%TD*%
%TA.AperFunction,ComponentPad*%
%ADD21C,1.308000*%
%TD*%
%TA.AperFunction,ComponentPad*%
%ADD22C,1.208000*%
%TD*%
%TA.AperFunction,ComponentPad*%
%ADD23O,3.000000X5.100000*%
%TD*%
%TA.AperFunction,ComponentPad*%
%ADD24O,5.100000X3.000000*%
%TD*%
%TA.AperFunction,ViaPad*%
%ADD25C,0.800000*%
%TD*%
%TA.AperFunction,Conductor*%
%ADD26C,0.254000*%
%TD*%
G04 APERTURE END LIST*
D10*
%TO.P,J1,1*%
%TO.N,T+*%
X102870000Y-161752000D03*
%TO.P,J1,2*%
%TO.N,Net-(C7-Pad2)*%
X104140000Y-159212000D03*
%TO.P,J1,3*%
%TO.N,T-*%
X105410000Y-161752000D03*
%TO.P,J1,4*%
%TO.N,R+*%
X106680000Y-159212000D03*
%TO.P,J1,5*%
%TO.N,Net-(C7-Pad2)*%
X107950000Y-161752000D03*
%TO.P,J1,6*%
%TO.N,R-*%
X109220000Y-159212000D03*
%TO.P,J1,7*%
%TO.N,unconnected-(J1-Pad7)*%
X110490000Y-161752000D03*
%TO.P,J1,8*%
%TO.N,GND*%
X111760000Y-159212000D03*
D11*
%TO.P,J1,9*%
X100990000Y-173182000D03*
%TO.P,J1,10*%
%TO.N,LED*%
X103530000Y-171392000D03*
%TO.P,J1,11*%
%TO.N,unconnected-(J1-Pad11)*%
X111100000Y-173182000D03*
%TO.P,J1,12*%
%TO.N,unconnected-(J1-Pad12)*%
X113640000Y-171392000D03*
D12*
%TO.P,J1,13*%
%TO.N,N/C*%
X101600000Y-168102000D03*
%TO.P,J1,14*%
X113030000Y-168102000D03*
D13*
%TO.P,J1,SH*%
%TO.N,GND*%
X99440000Y-165052000D03*
X115190000Y-165052000D03*
%TD*%
D14*
%TO.P,Conn8,1*%
%TO.N,+5V*%
X126492000Y-121666000D03*
%TO.P,Conn8,2*%
%TO.N,ENC_3A*%
X126492000Y-119126000D03*
%TO.P,Conn8,3*%
%TO.N,ENC_3B*%
X126492000Y-116586000D03*
%TO.P,Conn8,4*%
%TO.N,GND*%
X126492000Y-114046000D03*
X126492000Y-114046000D03*
%TD*%
%TO.P,Conn9,1*%
%TO.N,+5V*%
X132588000Y-114046000D03*
%TO.P,Conn9,2*%
%TO.N,ENC_4A*%
X132588000Y-116586000D03*
%TO.P,Conn9,3*%
%TO.N,ENC_4B*%
X132588000Y-119126000D03*
%TO.P,Conn9,4*%
%TO.N,GND*%
X132588000Y-121666000D03*
X132588000Y-121666000D03*
%TD*%
%TO.P,Conn6,1*%
%TO.N,+5V*%
X126492000Y-135382000D03*
%TO.P,Conn6,2*%
%TO.N,ENC_1A*%
X126492000Y-132842000D03*
%TO.P,Conn6,3*%
%TO.N,ENC_1B*%
X126492000Y-130302000D03*
%TO.P,Conn6,4*%
%TO.N,GND*%
X126492000Y-127762000D03*
X126492000Y-127762000D03*
%TD*%
%TO.P,Conn7,1*%
%TO.N,+5V*%
X132588000Y-127762000D03*
%TO.P,Conn7,2*%
%TO.N,ENC_2A*%
X132588000Y-130302000D03*
%TO.P,Conn7,3*%
%TO.N,ENC_2B*%
X132588000Y-132842000D03*
%TO.P,Conn7,4*%
%TO.N,GND*%
X132588000Y-135382000D03*
X132588000Y-135382000D03*
%TD*%
%TO.P,Conn14,1*%
%TO.N,LIM_5*%
X127000000Y-158115000D03*
%TO.P,Conn14,2*%
%TO.N,GND*%
X127000000Y-155575000D03*
%TD*%
%TO.P,Conn10,1*%
%TO.N,LIM_1*%
X133096000Y-147193000D03*
%TO.P,Conn10,2*%
%TO.N,GND*%
X133096000Y-149733000D03*
%TD*%
D15*
%TO.P,C3,1*%
%TO.N,+12V*%
X52957349Y-138938000D03*
D16*
%TO.P,C3,2*%
%TO.N,GND*%
X56457349Y-138938000D03*
%TD*%
D14*
%TO.P,Conn11,1*%
%TO.N,LIM_2*%
X133096000Y-155702000D03*
%TO.P,Conn11,2*%
%TO.N,GND*%
X133096000Y-158242000D03*
%TD*%
%TO.P,Conn17,1*%
%TO.N,LIM_6*%
X127000000Y-166624000D03*
%TO.P,Conn17,2*%
%TO.N,GND*%
X127000000Y-164084000D03*
%TD*%
%TO.P,Conn16,1*%
%TO.N,+5V*%
X126492000Y-104140000D03*
%TO.P,Conn16,2*%
%TO.N,Servo_2*%
X126492000Y-101600000D03*
%TO.P,Conn16,3*%
%TO.N,GND*%
X126492000Y-99060000D03*
%TD*%
%TO.P,Conn12,1*%
%TO.N,LIM_3*%
X133096000Y-164211000D03*
%TO.P,Conn12,2*%
%TO.N,GND*%
X133096000Y-166751000D03*
%TD*%
D17*
%TO.P,SW7,*%
%TO.N,*%
X136862500Y-83530000D03*
X136862500Y-91730000D03*
D18*
%TO.P,SW7,1,A*%
%TO.N,+3V3*%
X136862500Y-85630000D03*
D19*
%TO.P,SW7,2,B*%
%TO.N,DIR_SW*%
X136862500Y-87630000D03*
%TO.P,SW7,3,C*%
%TO.N,GND*%
X136862500Y-89630000D03*
%TD*%
D14*
%TO.P,Conn15,1*%
%TO.N,+5V*%
X132588000Y-99060000D03*
%TO.P,Conn15,2*%
%TO.N,Servo_1*%
X132588000Y-101600000D03*
%TO.P,Conn15,3*%
%TO.N,GND*%
X132588000Y-104140000D03*
%TD*%
%TO.P,U2,1,Vi*%
%TO.N,+12V*%
X62484000Y-78740000D03*
%TO.P,U2,2,GND*%
%TO.N,GND*%
X62484000Y-76200000D03*
%TO.P,U2,3,Vo*%
%TO.N,+5V*%
X62484000Y-73660000D03*
%TD*%
D20*
%TO.P,C4,1*%
%TO.N,+12V*%
X52242323Y-157988000D03*
D13*
%TO.P,C4,2*%
%TO.N,GND*%
X57242323Y-157988000D03*
%TD*%
D15*
%TO.P,C1,1*%
%TO.N,+12V*%
X53427621Y-100838000D03*
D16*
%TO.P,C1,2*%
%TO.N,GND*%
X55927621Y-100838000D03*
%TD*%
D15*
%TO.P,C2,1*%
%TO.N,+12V*%
X53427621Y-119888000D03*
D16*
%TO.P,C2,2*%
%TO.N,GND*%
X55927621Y-119888000D03*
%TD*%
D14*
%TO.P,Conn13,1*%
%TO.N,LIM_4*%
X127000000Y-149606000D03*
%TO.P,Conn13,2*%
%TO.N,GND*%
X127000000Y-147066000D03*
%TD*%
D21*
%TO.P,U1,0,RX1*%
%TO.N,SW_2*%
X100330000Y-96520000D03*
%TO.P,U1,1,TX1*%
%TO.N,SW_1*%
X100330000Y-99060000D03*
%TO.P,U1,2,OUT2*%
%TO.N,M4_IN_B*%
X100330000Y-101600000D03*
%TO.P,U1,3,LRCLK2*%
%TO.N,M4_IN_A*%
X100330000Y-104140000D03*
%TO.P,U1,3.3V_1,3.3V*%
%TO.N,+3V3*%
X100330000Y-129540000D03*
%TO.P,U1,3.3V_2,3.3V*%
X115570000Y-99060000D03*
%TO.P,U1,4,BCLK2*%
%TO.N,M4_SEL*%
X100330000Y-106680000D03*
%TO.P,U1,5,IN2*%
%TO.N,M4_PWM*%
X100330000Y-109220000D03*
%TO.P,U1,6,OUT1D*%
%TO.N,M3_IN_B*%
X100330000Y-111760000D03*
%TO.P,U1,7,RX2*%
%TO.N,M3_IN_A*%
X100330000Y-114300000D03*
%TO.P,U1,8,TX2*%
%TO.N,M3_SEL*%
X100330000Y-116840000D03*
%TO.P,U1,9,OUT1C*%
%TO.N,M3_PWM*%
X100330000Y-119380000D03*
%TO.P,U1,10,CS1*%
%TO.N,M2_IN_B*%
X100330000Y-121920000D03*
%TO.P,U1,11,MOSI*%
%TO.N,M2_IN_A*%
X100330000Y-124460000D03*
%TO.P,U1,12,MISO*%
%TO.N,M2_SEL*%
X100330000Y-127000000D03*
%TO.P,U1,13,SCK*%
%TO.N,ENC_4B*%
X115570000Y-127000000D03*
%TO.P,U1,14,A0*%
%TO.N,ENC_4A*%
X115570000Y-124460000D03*
%TO.P,U1,15,A1*%
%TO.N,ENC_3A*%
X115570000Y-121920000D03*
%TO.P,U1,16,A2*%
%TO.N,ENC_3B*%
X115570000Y-119380000D03*
%TO.P,U1,17,A3*%
%TO.N,DIR_SW*%
X115570000Y-116840000D03*
%TO.P,U1,18,A4*%
%TO.N,Servo_1*%
X115570000Y-114300000D03*
%TO.P,U1,19,A5*%
%TO.N,Servo_2*%
X115570000Y-111760000D03*
%TO.P,U1,20,A6*%
%TO.N,SW_3*%
X115570000Y-109220000D03*
%TO.P,U1,21,A7*%
%TO.N,SW_4*%
X115570000Y-106680000D03*
%TO.P,U1,22,A8*%
%TO.N,SW_5*%
X115570000Y-104140000D03*
%TO.P,U1,23,A9*%
%TO.N,SW_6*%
X115570000Y-101600000D03*
%TO.P,U1,24,A10*%
%TO.N,CS*%
X100330000Y-132080000D03*
%TO.P,U1,25,A11*%
%TO.N,M2_PWM*%
X100330000Y-134620000D03*
%TO.P,U1,26,A12*%
%TO.N,M1_IN_B*%
X100330000Y-137160000D03*
%TO.P,U1,27,A13*%
%TO.N,M1_IN_A*%
X100330000Y-139700000D03*
%TO.P,U1,28,RX7*%
%TO.N,M1_SEL*%
X100330000Y-142240000D03*
%TO.P,U1,29,TX7*%
%TO.N,M1_PWM*%
X100330000Y-144780000D03*
%TO.P,U1,30,CRX3*%
%TO.N,unconnected-(U1-CRX3-Pad30)*%
X100330000Y-147320000D03*
%TO.P,U1,31,CTX3*%
%TO.N,unconnected-(U1-CTX3-Pad31)*%
X100330000Y-149860000D03*
%TO.P,U1,32,OUT1B*%
%TO.N,LIM_6*%
X100330000Y-152400000D03*
%TO.P,U1,33,MCLK2*%
%TO.N,LIM_5*%
X115570000Y-152400000D03*
%TO.P,U1,34,RX8*%
%TO.N,LIM_3*%
X115570000Y-149860000D03*
%TO.P,U1,35,TX8*%
%TO.N,LIM_4*%
X115570000Y-147320000D03*
%TO.P,U1,36,CS2*%
%TO.N,LIM_2*%
X115570000Y-144780000D03*
%TO.P,U1,37,CS3*%
%TO.N,LIM_1*%
X115570000Y-142240000D03*
%TO.P,U1,38,A14*%
%TO.N,ENC_2B*%
X115570000Y-139700000D03*
%TO.P,U1,39,A15*%
%TO.N,ENC_2A*%
X115570000Y-137160000D03*
%TO.P,U1,40,A16*%
%TO.N,ENC_1A*%
X115570000Y-134620000D03*
%TO.P,U1,41,A17*%
%TO.N,ENC_1B*%
X115570000Y-132080000D03*
%TO.P,U1,GND1,GND*%
%TO.N,GND*%
X100330000Y-93980000D03*
%TO.P,U1,GND2,GND*%
X115570000Y-129540000D03*
%TO.P,U1,GND3,GND*%
X115570000Y-96520000D03*
D22*
%TO.P,U1,GND5,GND*%
X111120000Y-108950000D03*
%TO.P,U1,LED,LED*%
%TO.N,LED*%
X111120000Y-106950000D03*
%TO.P,U1,R+,R+*%
%TO.N,R+*%
X113120000Y-106950000D03*
%TO.P,U1,R-,R-*%
%TO.N,R-*%
X113120000Y-108950000D03*
%TO.P,U1,T+,T+*%
%TO.N,T+*%
X109120000Y-108950000D03*
%TO.P,U1,T-,T-*%
%TO.N,T-*%
X109120000Y-106950000D03*
D21*
%TO.P,U1,VIN,VIN*%
%TO.N,+5V*%
X115570000Y-93980000D03*
%TD*%
D23*
%TO.P,Conn5,1,GND*%
%TO.N,/M4-*%
X64197200Y-95250000D03*
%TO.P,Conn5,2,V+Log*%
%TO.N,/M4+*%
X64197200Y-87376000D03*
%TD*%
%TO.P,Conn4,1,GND*%
%TO.N,/M3-*%
X64197200Y-114300000D03*
%TO.P,Conn4,2,V+Log*%
%TO.N,/M3+*%
X64197200Y-106426000D03*
%TD*%
D24*
%TO.P,Conn1,1,GND*%
%TO.N,GND*%
X73787000Y-161100800D03*
%TO.P,Conn1,2,V+Log*%
%TO.N,+12V*%
X65913000Y-161100800D03*
%TD*%
D23*
%TO.P,Conn2,1,GND*%
%TO.N,/M1-*%
X64197200Y-152400000D03*
%TO.P,Conn2,2,V+Log*%
%TO.N,/M1+*%
X64197200Y-144526000D03*
%TD*%
%TO.P,Conn3,1,GND*%
%TO.N,/M2-*%
X64197200Y-133350000D03*
%TO.P,Conn3,2,V+Log*%
%TO.N,/M2+*%
X64197200Y-125476000D03*
%TD*%
D25*
%TO.N,+12V*%
X73660000Y-149479000D03*
X66548000Y-90297000D03*
X79248000Y-111887000D03*
X80772000Y-91313000D03*
X80772000Y-108839000D03*
X65532000Y-110363000D03*
X68580000Y-92329000D03*
X80772000Y-89789000D03*
X66548000Y-149479000D03*
X73660000Y-90297000D03*
X68580000Y-128397000D03*
X80772000Y-130937000D03*
X65532000Y-91313000D03*
X79248000Y-92837000D03*
X73660000Y-128397000D03*
X79248000Y-130937000D03*
X80772000Y-129413000D03*
X68580000Y-111379000D03*
X73660000Y-147447000D03*
X66548000Y-128397000D03*
X79248000Y-91313000D03*
X65532000Y-148463000D03*
X66548000Y-147447000D03*
X68580000Y-130429000D03*
X66548000Y-111379000D03*
X79248000Y-149987000D03*
X79248000Y-129413000D03*
X69088000Y-176276000D03*
X66548000Y-130429000D03*
X79248000Y-148463000D03*
X67564000Y-148463000D03*
X68580000Y-90297000D03*
X80772000Y-127889000D03*
X65532000Y-129413000D03*
X80772000Y-110363000D03*
X73660000Y-92329000D03*
X67564000Y-129413000D03*
X80772000Y-111887000D03*
X80772000Y-148463000D03*
X68580000Y-149479000D03*
X80772000Y-92837000D03*
X79248000Y-110363000D03*
X67564000Y-110363000D03*
X68580000Y-147447000D03*
X73660000Y-109347000D03*
X66548000Y-92329000D03*
X66548000Y-109347000D03*
X73660000Y-111379000D03*
X80772000Y-146939000D03*
X68580000Y-109347000D03*
X73660000Y-130429000D03*
X67564000Y-91313000D03*
X80772000Y-149987000D03*
%TO.N,GND*%
X72136000Y-123698000D03*
X76708000Y-85598000D03*
X86360000Y-111760000D03*
X72136000Y-103124000D03*
X76708000Y-123698000D03*
X76708000Y-155702000D03*
X81280000Y-172720000D03*
X86360000Y-167640000D03*
X91440000Y-157480000D03*
X72136000Y-97028000D03*
X96520000Y-147320000D03*
X73660000Y-141224000D03*
X73660000Y-103124000D03*
X72136000Y-141224000D03*
X91440000Y-76200000D03*
X96520000Y-137160000D03*
X96520000Y-86360000D03*
X91440000Y-86360000D03*
X127000000Y-86360000D03*
X91440000Y-167640000D03*
X75184000Y-122174000D03*
X70612000Y-141224000D03*
X70612000Y-84074000D03*
X70612000Y-117602000D03*
X70612000Y-104648000D03*
X101600000Y-86360000D03*
X72136000Y-104648000D03*
X72136000Y-136652000D03*
X91440000Y-111760000D03*
X76708000Y-116078000D03*
X76708000Y-136652000D03*
X101600000Y-76200000D03*
X73660000Y-154178000D03*
X75184000Y-117602000D03*
X86360000Y-162560000D03*
X72136000Y-154178000D03*
X70612000Y-142748000D03*
X75184000Y-84074000D03*
X88900000Y-147320000D03*
X75184000Y-142748000D03*
X121920000Y-76200000D03*
X121920000Y-86360000D03*
X73660000Y-98552000D03*
X75184000Y-103124000D03*
X73660000Y-84074000D03*
X70612000Y-135128000D03*
X70612000Y-97028000D03*
X73660000Y-116078000D03*
X76708000Y-135128000D03*
X75184000Y-98552000D03*
X75184000Y-97028000D03*
X75184000Y-85598000D03*
X91440000Y-137160000D03*
X73660000Y-136652000D03*
X72136000Y-85598000D03*
X75184000Y-135128000D03*
X91440000Y-121920000D03*
X72136000Y-98552000D03*
X72136000Y-155702000D03*
X72136000Y-117602000D03*
X116840000Y-86360000D03*
X76708000Y-97028000D03*
X91440000Y-172720000D03*
X81280000Y-157480000D03*
X73660000Y-117602000D03*
X70612000Y-98552000D03*
X73660000Y-123698000D03*
X127000000Y-76200000D03*
X72136000Y-122174000D03*
X72136000Y-135128000D03*
X70612000Y-116078000D03*
X70612000Y-122174000D03*
X73660000Y-85598000D03*
X91440000Y-116840000D03*
X86360000Y-172720000D03*
X75184000Y-155702000D03*
X73660000Y-142748000D03*
X76708000Y-103124000D03*
X86360000Y-137160000D03*
X86360000Y-76200000D03*
X73660000Y-97028000D03*
X75184000Y-116078000D03*
X75184000Y-104648000D03*
X76708000Y-141224000D03*
X70612000Y-85598000D03*
X76708000Y-122174000D03*
X73660000Y-135128000D03*
X70612000Y-136652000D03*
X111760000Y-76200000D03*
X106680000Y-109220000D03*
X96520000Y-76200000D03*
X75184000Y-141224000D03*
X86360000Y-132080000D03*
X70612000Y-155702000D03*
X70612000Y-154178000D03*
X81280000Y-162560000D03*
X96520000Y-121920000D03*
X76708000Y-142748000D03*
X116840000Y-76200000D03*
X76708000Y-117602000D03*
X72136000Y-84074000D03*
X73660000Y-155702000D03*
X91440000Y-132080000D03*
X72136000Y-142748000D03*
X73660000Y-122174000D03*
X96520000Y-152400000D03*
X76708000Y-104648000D03*
X91440000Y-162560000D03*
X75184000Y-136652000D03*
X86360000Y-157480000D03*
X76708000Y-98552000D03*
X106680000Y-86360000D03*
X111760000Y-86360000D03*
X86360000Y-116840000D03*
X76708000Y-84074000D03*
X70612000Y-103124000D03*
X73660000Y-104648000D03*
X72136000Y-116078000D03*
X75184000Y-123698000D03*
X76708000Y-154178000D03*
X81280000Y-167640000D03*
X91440000Y-152400000D03*
X75184000Y-154178000D03*
X86360000Y-93980000D03*
X70612000Y-123698000D03*
%TO.N,+3V3*%
X102108000Y-153924000D03*
%TD*%
D26*
%TO.N,ENC_2B*%
X125730000Y-139700000D02*
X115570000Y-139700000D01*
X132588000Y-132842000D02*
X125730000Y-139700000D01*
%TO.N,ENC_2A*%
X126254079Y-137160000D02*
X115570000Y-137160000D01*
X132588000Y-130826079D02*
X126254079Y-137160000D01*
X132588000Y-130302000D02*
X132588000Y-130826079D01*
%TO.N,ENC_1A*%
X124714000Y-134620000D02*
X115570000Y-134620000D01*
X126492000Y-132842000D02*
X124714000Y-134620000D01*
%TO.N,ENC_1B*%
X124714000Y-132080000D02*
X115570000Y-132080000D01*
X126492000Y-130302000D02*
X124714000Y-132080000D01*
%TO.N,ENC_4B*%
X124714000Y-127000000D02*
X115570000Y-127000000D01*
X132588000Y-119126000D02*
X124714000Y-127000000D01*
%TO.N,ENC_4A*%
X125238079Y-124460000D02*
X115570000Y-124460000D01*
X132588000Y-117110079D02*
X125238079Y-124460000D01*
X132588000Y-116586000D02*
X132588000Y-117110079D01*
%TO.N,ENC_3A*%
X123698000Y-121920000D02*
X115570000Y-121920000D01*
X126492000Y-119126000D02*
X123698000Y-121920000D01*
%TO.N,ENC_3B*%
X123698000Y-119380000D02*
X115570000Y-119380000D01*
X126492000Y-116586000D02*
X123698000Y-119380000D01*
%TO.N,DIR_SW*%
X121920000Y-116840000D02*
X115570000Y-116840000D01*
X139446000Y-99314000D02*
X121920000Y-116840000D01*
%TO.N,Servo_1*%
X119888000Y-114300000D02*
X115570000Y-114300000D01*
X132588000Y-101600000D02*
X119888000Y-114300000D01*
%TO.N,Servo_2*%
X116332000Y-111760000D02*
X115570000Y-111760000D01*
X126492000Y-101600000D02*
X116332000Y-111760000D01*
%TO.N,DIR_SW*%
X137183108Y-87630000D02*
X136862500Y-87630000D01*
X139446000Y-89892892D02*
X137183108Y-87630000D01*
X139446000Y-99314000D02*
X139446000Y-89892892D01*
%TO.N,+12V*%
X62484000Y-78740000D02*
X62484000Y-81788000D01*
%TO.N,+3V3*%
X102108000Y-110744000D02*
X113792000Y-99060000D01*
X102108000Y-153924000D02*
X102108000Y-131318000D01*
X115570000Y-99060000D02*
X117348000Y-99060000D01*
X113792000Y-99060000D02*
X115570000Y-99060000D01*
X130778000Y-85630000D02*
X136862500Y-85630000D01*
X100330000Y-129540000D02*
X102108000Y-127762000D01*
X117348000Y-99060000D02*
X130778000Y-85630000D01*
X102108000Y-131318000D02*
X100330000Y-129540000D01*
X102108000Y-127762000D02*
X102108000Y-110744000D01*
%TO.N,LIM_1*%
X128143000Y-142240000D02*
X115570000Y-142240000D01*
X133096000Y-147193000D02*
X128143000Y-142240000D01*
%TO.N,LIM_2*%
X131064000Y-153670000D02*
X131064000Y-147320000D01*
X133096000Y-155702000D02*
X131064000Y-153670000D01*
X128524000Y-144780000D02*
X115570000Y-144780000D01*
X131064000Y-147320000D02*
X128524000Y-144780000D01*
%TO.N,LIM_3*%
X130302000Y-161417000D02*
X130302000Y-155194000D01*
X130302000Y-155194000D02*
X124968000Y-149860000D01*
X124968000Y-149860000D02*
X115570000Y-149860000D01*
X133096000Y-164211000D02*
X130302000Y-161417000D01*
%TO.N,LIM_4*%
X124714000Y-147320000D02*
X115570000Y-147320000D01*
X127000000Y-149606000D02*
X124714000Y-147320000D01*
%TO.N,LIM_5*%
X127000000Y-158115000D02*
X121285000Y-152400000D01*
X121285000Y-152400000D02*
X115570000Y-152400000D01*
%TO.N,LED*%
X108844000Y-105664000D02*
X104648000Y-109860000D01*
X100341000Y-171392000D02*
X98113000Y-169164000D01*
X103530000Y-171392000D02*
X100341000Y-171392000D01*
X104648000Y-156972000D02*
X98113000Y-163507000D01*
X109966000Y-105664000D02*
X108844000Y-105664000D01*
X111252000Y-106950000D02*
X109966000Y-105664000D01*
X104648000Y-109860000D02*
X104648000Y-156972000D01*
X98113000Y-163507000D02*
X98113000Y-169164000D01*
%TO.N,T+*%
X107473542Y-111107687D02*
X107546771Y-111180916D01*
X106200730Y-111956202D02*
X106200731Y-111956200D01*
X106273974Y-112453710D02*
X106200730Y-112380466D01*
X107122504Y-111605180D02*
X107049276Y-111531952D01*
X109220000Y-109931948D02*
X109220000Y-108934000D01*
X106200731Y-111956200D02*
X106200731Y-111956201D01*
X105256000Y-159366000D02*
X105256000Y-113895948D01*
X105256000Y-113895948D02*
X106273974Y-112877974D01*
X107122504Y-112029446D02*
X107122506Y-112029445D01*
X106624995Y-111956201D02*
X106698240Y-112029446D01*
X102870000Y-161752000D02*
X105256000Y-159366000D01*
X107122506Y-112029445D02*
X107122504Y-112029444D01*
X107049276Y-111107688D02*
X107049278Y-111107687D01*
X107971034Y-111180915D02*
X109220000Y-109931948D01*
X107971035Y-111180916D02*
X107971034Y-111180915D01*
X107546772Y-111180915D02*
G75*
G03*
X107971034Y-111180915I212131J212131D01*
G01*
X107122492Y-112029432D02*
G75*
G03*
X107122504Y-111605180I-212092J212132D01*
G01*
X107473541Y-111107688D02*
G75*
G03*
X107049279Y-111107688I-212131J-212131D01*
G01*
X106698241Y-112029445D02*
G75*
G03*
X107122503Y-112029445I212131J212131D01*
G01*
X107049256Y-111107668D02*
G75*
G03*
X107049276Y-111531952I212144J-212132D01*
G01*
X106273931Y-112877931D02*
G75*
G03*
X106273973Y-112453711I-212131J212131D01*
G01*
X106624994Y-111956202D02*
G75*
G03*
X106200732Y-111956202I-212131J-212131D01*
G01*
X106200697Y-111956169D02*
G75*
G03*
X106200731Y-112380465I212203J-212131D01*
G01*
%TO.N,T-*%
X105410000Y-159854052D02*
X105410000Y-161752000D01*
X105710000Y-114084000D02*
X105710000Y-159554052D01*
X110151000Y-107865000D02*
X110151000Y-109643000D01*
X109220000Y-106934000D02*
X110151000Y-107865000D01*
X110151000Y-109643000D02*
X105710000Y-114084000D01*
X105710000Y-159554052D02*
X105410000Y-159854052D01*
%TO.N,R+*%
X112051000Y-108019000D02*
X112051000Y-113823448D01*
X111252000Y-154640000D02*
X111252000Y-154432000D01*
X113120000Y-106898500D02*
X113120000Y-106950000D01*
X112051000Y-113823448D02*
X111252000Y-114622448D01*
X106680000Y-159212000D02*
X111252000Y-154640000D01*
X113120000Y-106950000D02*
X112051000Y-108019000D01*
X111252000Y-114622448D02*
X111252000Y-154432000D01*
%TO.N,R-*%
X113222000Y-112152000D02*
X112822000Y-112152000D01*
X112522000Y-113652000D02*
X112522000Y-113994500D01*
X113222000Y-113352000D02*
X112822000Y-113352000D01*
X111760000Y-156672000D02*
X109220000Y-159212000D01*
X112822000Y-111552000D02*
X113222000Y-111552000D01*
X112522000Y-109496500D02*
X112522000Y-111252000D01*
X112822000Y-112752000D02*
X113222000Y-112752000D01*
X113120000Y-108898500D02*
X112522000Y-109496500D01*
X112522000Y-113994500D02*
X111760000Y-114756500D01*
X111760000Y-114756500D02*
X111760000Y-156672000D01*
X112522000Y-111252000D02*
G75*
G03*
X112822000Y-111552000I300000J0D01*
G01*
X112522000Y-112452000D02*
G75*
G03*
X112822000Y-112752000I300000J0D01*
G01*
X112822000Y-112152000D02*
G75*
G03*
X112522000Y-112452000I0J-300000D01*
G01*
X113522000Y-113052000D02*
G75*
G03*
X113222000Y-112752000I-300000J0D01*
G01*
X113522000Y-111852000D02*
G75*
G03*
X113222000Y-111552000I-300000J0D01*
G01*
X112822000Y-113352000D02*
G75*
G03*
X112522000Y-113652000I0J-300000D01*
G01*
X113222000Y-112152000D02*
G75*
G03*
X113522000Y-111852000I0J300000D01*
G01*
X113222000Y-113352000D02*
G75*
G03*
X113522000Y-113052000I0J300000D01*
G01*
%TO.N,DIR_SW*%
X115824000Y-116586000D02*
X115570000Y-116840000D01*
%TD*%
%TA.AperFunction,Conductor*%
%TO.N,GND*%
G36*
X108229236Y-106846083D02*
G01*
X108286072Y-106888630D01*
X108310412Y-106950031D01*
X108330707Y-107130151D01*
X108330708Y-107130153D01*
X108390583Y-107301266D01*
X108487037Y-107454774D01*
X108615225Y-107582962D01*
X108615227Y-107582963D01*
X108615228Y-107582964D01*
X108768732Y-107679416D01*
X108939849Y-107739293D01*
X109120000Y-107759591D01*
X109300151Y-107739293D01*
X109419498Y-107697531D01*
X109490403Y-107693911D01*
X109550209Y-107727364D01*
X109786595Y-107963749D01*
X109820620Y-108026062D01*
X109823500Y-108052845D01*
X109823500Y-108213925D01*
X109803498Y-108282046D01*
X109749842Y-108328539D01*
X109679568Y-108338643D01*
X109630465Y-108320613D01*
X109491432Y-108233254D01*
X109471268Y-108220584D01*
X109471267Y-108220583D01*
X109471266Y-108220583D01*
X109385709Y-108190645D01*
X109300151Y-108160707D01*
X109120000Y-108140409D01*
X108939849Y-108160707D01*
X108939846Y-108160707D01*
X108939846Y-108160708D01*
X108768733Y-108220583D01*
X108615225Y-108317037D01*
X108487037Y-108445225D01*
X108390583Y-108598733D01*
X108349910Y-108714971D01*
X108330707Y-108769849D01*
X108310409Y-108950000D01*
X108330707Y-109130151D01*
X108330708Y-109130153D01*
X108390583Y-109301266D01*
X108487037Y-109454774D01*
X108615225Y-109582962D01*
X108615227Y-109582963D01*
X108615228Y-109582964D01*
X108768732Y-109679416D01*
X108768735Y-109679417D01*
X108771160Y-109680585D01*
X108772457Y-109681756D01*
X108774723Y-109683180D01*
X108774473Y-109683576D01*
X108823857Y-109728161D01*
X108842467Y-109796675D01*
X108821081Y-109864374D01*
X108805588Y-109883203D01*
X107847995Y-110840796D01*
X107785683Y-110874822D01*
X107714868Y-110869757D01*
X107669804Y-110840795D01*
X107655125Y-110826116D01*
X107547191Y-110758296D01*
X107535394Y-110750883D01*
X107401922Y-110704180D01*
X107401925Y-110704180D01*
X107275637Y-110689952D01*
X107261410Y-110688349D01*
X107261409Y-110688349D01*
X107120896Y-110704180D01*
X106987425Y-110750883D01*
X106867695Y-110826115D01*
X106857289Y-110836521D01*
X106857255Y-110836551D01*
X106841338Y-110852468D01*
X106827313Y-110864567D01*
X106807793Y-110879046D01*
X106807791Y-110879048D01*
X106801344Y-110888812D01*
X106785302Y-110908469D01*
X106767677Y-110926095D01*
X106767676Y-110926097D01*
X106692446Y-111045831D01*
X106645749Y-111179304D01*
X106645747Y-111179309D01*
X106629921Y-111319830D01*
X106629921Y-111319834D01*
X106639793Y-111407413D01*
X106627547Y-111477345D01*
X106579437Y-111529555D01*
X106510737Y-111547467D01*
X106500480Y-111546734D01*
X106412863Y-111536863D01*
X106272349Y-111552694D01*
X106138878Y-111599397D01*
X106019148Y-111674629D01*
X106009233Y-111684544D01*
X106009135Y-111684628D01*
X106001603Y-111692162D01*
X105981936Y-111708214D01*
X105972091Y-111714714D01*
X105972089Y-111714716D01*
X105969505Y-111718201D01*
X105949303Y-111739651D01*
X105945984Y-111742435D01*
X105941973Y-111747216D01*
X105927030Y-111766692D01*
X105919097Y-111774627D01*
X105919095Y-111774630D01*
X105843882Y-111894370D01*
X105797197Y-112027841D01*
X105781379Y-112168346D01*
X105781379Y-112168348D01*
X105781379Y-112168351D01*
X105792279Y-112265030D01*
X105797220Y-112308861D01*
X105843927Y-112442324D01*
X105843929Y-112442329D01*
X105919154Y-112562044D01*
X105919154Y-112562045D01*
X105919157Y-112562048D01*
X105919158Y-112562049D01*
X105933853Y-112576744D01*
X105967880Y-112639055D01*
X105962817Y-112709870D01*
X105933855Y-112754936D01*
X105536330Y-113152463D01*
X105190596Y-113498197D01*
X105128283Y-113532222D01*
X105057468Y-113527158D01*
X105000632Y-113484611D01*
X104975821Y-113418091D01*
X104975500Y-113409102D01*
X104975500Y-110047844D01*
X104995502Y-109979723D01*
X105012405Y-109958749D01*
X106548643Y-108422511D01*
X108096111Y-106875042D01*
X108158421Y-106841018D01*
X108229236Y-106846083D01*
G37*
%TD.AperFunction*%
%TA.AperFunction,Conductor*%
G36*
X134807364Y-69616502D02*
G01*
X134853857Y-69670158D01*
X134863961Y-69740432D01*
X134834467Y-69805012D01*
X134774741Y-69843396D01*
X134770369Y-69844594D01*
X134731697Y-69854441D01*
X134717273Y-69858114D01*
X134717252Y-69858121D01*
X134344578Y-69993762D01*
X134344551Y-69993773D01*
X133987202Y-70165864D01*
X133987201Y-70165864D01*
X133648747Y-70372689D01*
X133332567Y-70612187D01*
X133041823Y-70881959D01*
X133041821Y-70881961D01*
X132779372Y-71179351D01*
X132779364Y-71179360D01*
X132649099Y-71360549D01*
X132547834Y-71501400D01*
X132547831Y-71501404D01*
X132547831Y-71501405D01*
X132349521Y-71844888D01*
X132349515Y-71844898D01*
X132186384Y-72206435D01*
X132186381Y-72206442D01*
X132060060Y-72582416D01*
X132060057Y-72582425D01*
X131971800Y-72969106D01*
X131971799Y-72969117D01*
X131922478Y-73362675D01*
X131912591Y-73759190D01*
X131942230Y-74154714D01*
X131942230Y-74154719D01*
X131942231Y-74154720D01*
X131996794Y-74464162D01*
X132011108Y-74545335D01*
X132118532Y-74927145D01*
X132263436Y-75296355D01*
X132263439Y-75296361D01*
X132263441Y-75296366D01*
X132444391Y-75649323D01*
X132659586Y-75982509D01*
X132906886Y-76292614D01*
X133183833Y-76576554D01*
X133487676Y-76831508D01*
X133815394Y-77054942D01*
X134163730Y-77244636D01*
X134357311Y-77326237D01*
X134529221Y-77398703D01*
X134529225Y-77398705D01*
X134628828Y-77429428D01*
X134908240Y-77515615D01*
X135297014Y-77594208D01*
X135691681Y-77633700D01*
X135691686Y-77633700D01*
X135989108Y-77633700D01*
X136286135Y-77618876D01*
X136286139Y-77618875D01*
X136286145Y-77618875D01*
X136678353Y-77559759D01*
X137062726Y-77461886D01*
X137276642Y-77384027D01*
X137435421Y-77326237D01*
X137435427Y-77326234D01*
X137435445Y-77326228D01*
X137792803Y-77154133D01*
X138131251Y-76947312D01*
X138447424Y-76707820D01*
X138738181Y-76438037D01*
X139000631Y-76140645D01*
X139232166Y-75818600D01*
X139430485Y-75475101D01*
X139593617Y-75113563D01*
X139708060Y-74772938D01*
X139748717Y-74714735D01*
X139814386Y-74687751D01*
X139884219Y-74700555D01*
X139936044Y-74749080D01*
X139953500Y-74813067D01*
X139953500Y-89646670D01*
X139933498Y-89714791D01*
X139879842Y-89761284D01*
X139809568Y-89771388D01*
X139744988Y-89741894D01*
X139718380Y-89709669D01*
X139700750Y-89679132D01*
X139669569Y-89652968D01*
X139665527Y-89649264D01*
X138229870Y-88213607D01*
X138195844Y-88151295D01*
X138200909Y-88080480D01*
X138205836Y-88069035D01*
X138258430Y-87961816D01*
X138306885Y-87774674D01*
X138306885Y-87774667D01*
X138306886Y-87774665D01*
X138316676Y-87581609D01*
X138301926Y-87485330D01*
X138287403Y-87390526D01*
X138220264Y-87209247D01*
X138118009Y-87045193D01*
X137984823Y-86905081D01*
X137899712Y-86845842D01*
X137848096Y-86809916D01*
X137803612Y-86754584D01*
X137796104Y-86683985D01*
X137827956Y-86620535D01*
X137889056Y-86584378D01*
X137920076Y-86580500D01*
X138132247Y-86580500D01*
X138132248Y-86580500D01*
X138190731Y-86568867D01*
X138257052Y-86524552D01*
X138301367Y-86458231D01*
X138313000Y-86399748D01*
X138313000Y-84860252D01*
X138301367Y-84801769D01*
X138262192Y-84743140D01*
X138240977Y-84675387D01*
X138259760Y-84606920D01*
X138294688Y-84569924D01*
X138351639Y-84530047D01*
X138512547Y-84369139D01*
X138643068Y-84182734D01*
X138739239Y-83976496D01*
X138798135Y-83756692D01*
X138817968Y-83530000D01*
X138798135Y-83303308D01*
X138739239Y-83083504D01*
X138643068Y-82877266D01*
X138643067Y-82877265D01*
X138643066Y-82877262D01*
X138512551Y-82690865D01*
X138512542Y-82690855D01*
X138351644Y-82529957D01*
X138351634Y-82529948D01*
X138165237Y-82399433D01*
X138165238Y-82399433D01*
X137958998Y-82303262D01*
X137958993Y-82303260D01*
X137739195Y-82244365D01*
X137611760Y-82233216D01*
X137569284Y-82229500D01*
X136155716Y-82229500D01*
X136121734Y-82232472D01*
X135985804Y-82244365D01*
X135766006Y-82303260D01*
X135766001Y-82303262D01*
X135559762Y-82399433D01*
X135373365Y-82529948D01*
X135373355Y-82529957D01*
X135212457Y-82690855D01*
X135212448Y-82690865D01*
X135081933Y-82877262D01*
X134985762Y-83083501D01*
X134985760Y-83083506D01*
X134926865Y-83303304D01*
X134907032Y-83530000D01*
X134926865Y-83756695D01*
X134985760Y-83976493D01*
X134985762Y-83976498D01*
X135081933Y-84182737D01*
X135212448Y-84369134D01*
X135212457Y-84369144D01*
X135373355Y-84530042D01*
X135373365Y-84530051D01*
X135430312Y-84569925D01*
X135474641Y-84625382D01*
X135481950Y-84696001D01*
X135462808Y-84743139D01*
X135423633Y-84801768D01*
X135423632Y-84801771D01*
X135412000Y-84860249D01*
X135412000Y-85176500D01*
X135391998Y-85244621D01*
X135338342Y-85291114D01*
X135286000Y-85302500D01*
X130795047Y-85302500D01*
X130789555Y-85302260D01*
X130753420Y-85299099D01*
X130749016Y-85298714D01*
X130749015Y-85298714D01*
X130709714Y-85309244D01*
X130704348Y-85310433D01*
X130664260Y-85317502D01*
X130658810Y-85319485D01*
X130642752Y-85326136D01*
X130637452Y-85328608D01*
X130604126Y-85351943D01*
X130599491Y-85354896D01*
X130564243Y-85375247D01*
X130564239Y-85375250D01*
X130538070Y-85406435D01*
X130534357Y-85410486D01*
X117249251Y-98695595D01*
X117186939Y-98729621D01*
X117160156Y-98732500D01*
X116440356Y-98732500D01*
X116372235Y-98712498D01*
X116331237Y-98669501D01*
X116265113Y-98554971D01*
X116144922Y-98421485D01*
X116082478Y-98376117D01*
X115999604Y-98315905D01*
X115835510Y-98242846D01*
X115659812Y-98205500D01*
X115480188Y-98205500D01*
X115304489Y-98242846D01*
X115140392Y-98315907D01*
X114995078Y-98421484D01*
X114874888Y-98554969D01*
X114874888Y-98554970D01*
X114808763Y-98669501D01*
X114757380Y-98718494D01*
X114699644Y-98732500D01*
X113809047Y-98732500D01*
X113803555Y-98732260D01*
X113767420Y-98729099D01*
X113763016Y-98728714D01*
X113763015Y-98728714D01*
X113723714Y-98739244D01*
X113718348Y-98740433D01*
X113678260Y-98747502D01*
X113672810Y-98749485D01*
X113656752Y-98756136D01*
X113651452Y-98758608D01*
X113618126Y-98781943D01*
X113613491Y-98784896D01*
X113578243Y-98805247D01*
X113578239Y-98805250D01*
X113552070Y-98836435D01*
X113548357Y-98840486D01*
X101888487Y-110500358D01*
X101884435Y-110504071D01*
X101853251Y-110530238D01*
X101853247Y-110530243D01*
X101832896Y-110565491D01*
X101829943Y-110570126D01*
X101806608Y-110603452D01*
X101804142Y-110608741D01*
X101797487Y-110624807D01*
X101795503Y-110630258D01*
X101788434Y-110670345D01*
X101787244Y-110675709D01*
X101776713Y-110715011D01*
X101776713Y-110715016D01*
X101779851Y-110750884D01*
X101780260Y-110755549D01*
X101780500Y-110761043D01*
X101780500Y-127574154D01*
X101760498Y-127642275D01*
X101743595Y-127663249D01*
X100716861Y-128689982D01*
X100654549Y-128724008D01*
X100601569Y-128724134D01*
X100595510Y-128722846D01*
X100419812Y-128685500D01*
X100240188Y-128685500D01*
X100064489Y-128722846D01*
X99900392Y-128795907D01*
X99755078Y-128901484D01*
X99634888Y-129034969D01*
X99634885Y-129034973D01*
X99545075Y-129190527D01*
X99545072Y-129190533D01*
X99489568Y-129361360D01*
X99470793Y-129540000D01*
X99489568Y-129718639D01*
X99545072Y-129889466D01*
X99545075Y-129889472D01*
X99634885Y-130045026D01*
X99634887Y-130045029D01*
X99755078Y-130178515D01*
X99900396Y-130284095D01*
X100064490Y-130357154D01*
X100240188Y-130394500D01*
X100419816Y-130394500D01*
X100601569Y-130355866D01*
X100672360Y-130361267D01*
X100716862Y-130390017D01*
X101743595Y-131416749D01*
X101777620Y-131479061D01*
X101780500Y-131505844D01*
X101780500Y-153356249D01*
X101760498Y-153424370D01*
X101731206Y-153456209D01*
X101697394Y-153482155D01*
X101679718Y-153495718D01*
X101583465Y-153621157D01*
X101583463Y-153621160D01*
X101522955Y-153767239D01*
X101502318Y-153923999D01*
X101502318Y-153924000D01*
X101522955Y-154080760D01*
X101522956Y-154080762D01*
X101583464Y-154226841D01*
X101679718Y-154352282D01*
X101805159Y-154448536D01*
X101951238Y-154509044D01*
X102029618Y-154519362D01*
X102107999Y-154529682D01*
X102107999Y-154529681D01*
X102108000Y-154529682D01*
X102264762Y-154509044D01*
X102410841Y-154448536D01*
X102536282Y-154352282D01*
X102632536Y-154226841D01*
X102693044Y-154080762D01*
X102713682Y-153924000D01*
X102693044Y-153767238D01*
X102632536Y-153621159D01*
X102536282Y-153495718D01*
X102484794Y-153456210D01*
X102442929Y-153398874D01*
X102435500Y-153356249D01*
X102435500Y-131335044D01*
X102435740Y-131329550D01*
X102439287Y-131289016D01*
X102428750Y-131249696D01*
X102427564Y-131244345D01*
X102420497Y-131204261D01*
X102420496Y-131204259D01*
X102418487Y-131198740D01*
X102411873Y-131182771D01*
X102409395Y-131177457D01*
X102407355Y-131174544D01*
X102386043Y-131144109D01*
X102383096Y-131139482D01*
X102362750Y-131104240D01*
X102357811Y-131100096D01*
X102331570Y-131078077D01*
X102327527Y-131074372D01*
X101176315Y-129923160D01*
X101142289Y-129860848D01*
X101145576Y-129795133D01*
X101170431Y-129718639D01*
X101189207Y-129540000D01*
X101170431Y-129361361D01*
X101145576Y-129284867D01*
X101143549Y-129213902D01*
X101176313Y-129156840D01*
X102327543Y-128005610D01*
X102331561Y-128001928D01*
X102362750Y-127975760D01*
X102383098Y-127940513D01*
X102386042Y-127935892D01*
X102409395Y-127902543D01*
X102409396Y-127902538D01*
X102411875Y-127897223D01*
X102418483Y-127881270D01*
X102420496Y-127875741D01*
X102420496Y-127875740D01*
X102420497Y-127875739D01*
X102427565Y-127835645D01*
X102428746Y-127830319D01*
X102439287Y-127790984D01*
X102435739Y-127750442D01*
X102435500Y-127744954D01*
X102435500Y-110931844D01*
X102455502Y-110863723D01*
X102472405Y-110842749D01*
X109175155Y-104140000D01*
X114710793Y-104140000D01*
X114729568Y-104318639D01*
X114785072Y-104489466D01*
X114785075Y-104489472D01*
X114874885Y-104645026D01*
X114874887Y-104645029D01*
X114995078Y-104778515D01*
X115140396Y-104884095D01*
X115304490Y-104957154D01*
X115480188Y-104994500D01*
X115659812Y-104994500D01*
X115835510Y-104957154D01*
X115999604Y-104884095D01*
X116144922Y-104778515D01*
X116265113Y-104645029D01*
X116354925Y-104489471D01*
X116410431Y-104318639D01*
X116429207Y-104140000D01*
X116410431Y-103961361D01*
X116410431Y-103961360D01*
X116354927Y-103790533D01*
X116354924Y-103790527D01*
X116265114Y-103634973D01*
X116265113Y-103634971D01*
X116144922Y-103501485D01*
X116082478Y-103456117D01*
X115999604Y-103395905D01*
X115835510Y-103322846D01*
X115659812Y-103285500D01*
X115480188Y-103285500D01*
X115304489Y-103322846D01*
X115140392Y-103395907D01*
X114995078Y-103501484D01*
X114874888Y-103634969D01*
X114874885Y-103634973D01*
X114785075Y-103790527D01*
X114785072Y-103790533D01*
X114729568Y-103961360D01*
X114710793Y-104140000D01*
X109175155Y-104140000D01*
X111715155Y-101600000D01*
X114710793Y-101600000D01*
X114729568Y-101778639D01*
X114785072Y-101949466D01*
X114785075Y-101949472D01*
X114854522Y-102069756D01*
X114874887Y-102105029D01*
X114995078Y-102238515D01*
X115140396Y-102344095D01*
X115304490Y-102417154D01*
X115480188Y-102454500D01*
X115659812Y-102454500D01*
X115835510Y-102417154D01*
X115999604Y-102344095D01*
X116144922Y-102238515D01*
X116265113Y-102105029D01*
X116354925Y-101949471D01*
X116410431Y-101778639D01*
X116429207Y-101600000D01*
X116410431Y-101421361D01*
X116410431Y-101421360D01*
X116354927Y-101250533D01*
X116354924Y-101250527D01*
X116265114Y-101094973D01*
X116265113Y-101094971D01*
X116144922Y-100961485D01*
X116082478Y-100916117D01*
X115999604Y-100855905D01*
X115835510Y-100782846D01*
X115659812Y-100745500D01*
X115480188Y-100745500D01*
X115304489Y-100782846D01*
X115140392Y-100855907D01*
X114995078Y-100961484D01*
X114874888Y-101094969D01*
X114874885Y-101094973D01*
X114785075Y-101250527D01*
X114785072Y-101250533D01*
X114729568Y-101421360D01*
X114710793Y-101600000D01*
X111715155Y-101600000D01*
X113890750Y-99424405D01*
X113953062Y-99390379D01*
X113979845Y-99387500D01*
X114699644Y-99387500D01*
X114767765Y-99407502D01*
X114808762Y-99450498D01*
X114874887Y-99565029D01*
X114995078Y-99698515D01*
X115140396Y-99804095D01*
X115304490Y-99877154D01*
X115480188Y-99914500D01*
X115659812Y-99914500D01*
X115835510Y-99877154D01*
X115999604Y-99804095D01*
X116144922Y-99698515D01*
X116265113Y-99565029D01*
X116331237Y-99450498D01*
X116382620Y-99401506D01*
X116440356Y-99387500D01*
X117330956Y-99387500D01*
X117336441Y-99387739D01*
X117376984Y-99391287D01*
X117416303Y-99380750D01*
X117421649Y-99379565D01*
X117461739Y-99372497D01*
X117461742Y-99372495D01*
X117467265Y-99370485D01*
X117483218Y-99363877D01*
X117488540Y-99361395D01*
X117488540Y-99361394D01*
X117488543Y-99361394D01*
X117521886Y-99338045D01*
X117526492Y-99335111D01*
X117561760Y-99314750D01*
X117587933Y-99283555D01*
X117591615Y-99279537D01*
X117811150Y-99060002D01*
X131620843Y-99060002D01*
X131639425Y-99248676D01*
X131639426Y-99248682D01*
X131639427Y-99248683D01*
X131694463Y-99430115D01*
X131783838Y-99597324D01*
X131904117Y-99743883D01*
X132050676Y-99864162D01*
X132217885Y-99953537D01*
X132399317Y-100008573D01*
X132399321Y-100008573D01*
X132399323Y-100008574D01*
X132587997Y-100027157D01*
X132588000Y-100027157D01*
X132588003Y-100027157D01*
X132776676Y-100008574D01*
X132776677Y-100008573D01*
X132776683Y-100008573D01*
X132958115Y-99953537D01*
X133125324Y-99864162D01*
X133271883Y-99743883D01*
X133392162Y-99597324D01*
X133481537Y-99430115D01*
X133536573Y-99248683D01*
X133537563Y-99238639D01*
X133555157Y-99060002D01*
X133555157Y-99059997D01*
X133536574Y-98871323D01*
X133536573Y-98871321D01*
X133536573Y-98871317D01*
X133481537Y-98689885D01*
X133392162Y-98522676D01*
X133271883Y-98376117D01*
X133125324Y-98255838D01*
X132958115Y-98166463D01*
X132776683Y-98111427D01*
X132776682Y-98111426D01*
X132776676Y-98111425D01*
X132588003Y-98092843D01*
X132587997Y-98092843D01*
X132399323Y-98111425D01*
X132217884Y-98166463D01*
X132050675Y-98255838D01*
X131904117Y-98376117D01*
X131783838Y-98522675D01*
X131694463Y-98689884D01*
X131639425Y-98871323D01*
X131620843Y-99059997D01*
X131620843Y-99060002D01*
X117811150Y-99060002D01*
X125141153Y-91730000D01*
X134907032Y-91730000D01*
X134926865Y-91956695D01*
X134985760Y-92176493D01*
X134985762Y-92176498D01*
X135081933Y-92382737D01*
X135212448Y-92569134D01*
X135212457Y-92569144D01*
X135373355Y-92730042D01*
X135373365Y-92730051D01*
X135559762Y-92860566D01*
X135559761Y-92860566D01*
X135633080Y-92894755D01*
X135766004Y-92956739D01*
X135985808Y-93015635D01*
X136155716Y-93030500D01*
X136155717Y-93030500D01*
X137569283Y-93030500D01*
X137569284Y-93030500D01*
X137739192Y-93015635D01*
X137958996Y-92956739D01*
X138165234Y-92860568D01*
X138165237Y-92860566D01*
X138351634Y-92730051D01*
X138351636Y-92730048D01*
X138351639Y-92730047D01*
X138512547Y-92569139D01*
X138643068Y-92382734D01*
X138739239Y-92176496D01*
X138798135Y-91956692D01*
X138817968Y-91730000D01*
X138798135Y-91503308D01*
X138739239Y-91283504D01*
X138643068Y-91077266D01*
X138643067Y-91077265D01*
X138643066Y-91077262D01*
X138512551Y-90890865D01*
X138512542Y-90890855D01*
X138351644Y-90729957D01*
X138351634Y-90729948D01*
X138165237Y-90599433D01*
X138165238Y-90599433D01*
X137958998Y-90503262D01*
X137958993Y-90503260D01*
X137739195Y-90444365D01*
X137611760Y-90433216D01*
X137569284Y-90429500D01*
X136155716Y-90429500D01*
X136121734Y-90432472D01*
X135985804Y-90444365D01*
X135766006Y-90503260D01*
X135766001Y-90503262D01*
X135559762Y-90599433D01*
X135373365Y-90729948D01*
X135373355Y-90729957D01*
X135212457Y-90890855D01*
X135212448Y-90890865D01*
X135081933Y-91077262D01*
X134985762Y-91283501D01*
X134985760Y-91283506D01*
X134926865Y-91503304D01*
X134907032Y-91730000D01*
X125141153Y-91730000D01*
X130876749Y-85994405D01*
X130939062Y-85960379D01*
X130965845Y-85957500D01*
X135286000Y-85957500D01*
X135354121Y-85977502D01*
X135400614Y-86031158D01*
X135412000Y-86083500D01*
X135412000Y-86399748D01*
X135423633Y-86458231D01*
X135467948Y-86524552D01*
X135534269Y-86568867D01*
X135592752Y-86580500D01*
X135592753Y-86580500D01*
X135808121Y-86580500D01*
X135876242Y-86600502D01*
X135922735Y-86654158D01*
X135932839Y-86724432D01*
X135903345Y-86789012D01*
X135869269Y-86816668D01*
X135816705Y-86845842D01*
X135670038Y-86971754D01*
X135670036Y-86971756D01*
X135670032Y-86971760D01*
X135613191Y-87045193D01*
X135551701Y-87124631D01*
X135466571Y-87298182D01*
X135466569Y-87298186D01*
X135418114Y-87485330D01*
X135418113Y-87485334D01*
X135408323Y-87678390D01*
X135423073Y-87774669D01*
X135437597Y-87869474D01*
X135471797Y-87961817D01*
X135504737Y-88050755D01*
X135565089Y-88147582D01*
X135606991Y-88214807D01*
X135740177Y-88354919D01*
X135740180Y-88354921D01*
X135898840Y-88465352D01*
X135898841Y-88465352D01*
X135898842Y-88465353D01*
X136076488Y-88541587D01*
X136265844Y-88580500D01*
X136265845Y-88580500D01*
X137410705Y-88580500D01*
X137410706Y-88580500D01*
X137554821Y-88565845D01*
X137558843Y-88564582D01*
X137629825Y-88563272D01*
X137685661Y-88595708D01*
X139081595Y-89991641D01*
X139115620Y-90053953D01*
X139118500Y-90080736D01*
X139118500Y-99126155D01*
X139098498Y-99194276D01*
X139081595Y-99215250D01*
X121821251Y-116475595D01*
X121758939Y-116509621D01*
X121732156Y-116512500D01*
X116440356Y-116512500D01*
X116372235Y-116492498D01*
X116331237Y-116449501D01*
X116265113Y-116334971D01*
X116144922Y-116201485D01*
X115999604Y-116095905D01*
X115835510Y-116022846D01*
X115659812Y-115985500D01*
X115480188Y-115985500D01*
X115304489Y-116022846D01*
X115140392Y-116095907D01*
X114995078Y-116201484D01*
X114874888Y-116334969D01*
X114874885Y-116334973D01*
X114785075Y-116490527D01*
X114785072Y-116490533D01*
X114729568Y-116661360D01*
X114710793Y-116840000D01*
X114729568Y-117018639D01*
X114785072Y-117189466D01*
X114785075Y-117189472D01*
X114831501Y-117269883D01*
X114874887Y-117345029D01*
X114995078Y-117478515D01*
X115140396Y-117584095D01*
X115304490Y-117657154D01*
X115480188Y-117694500D01*
X115659812Y-117694500D01*
X115835510Y-117657154D01*
X115999604Y-117584095D01*
X116144922Y-117478515D01*
X116265113Y-117345029D01*
X116331237Y-117230498D01*
X116382620Y-117181506D01*
X116440356Y-117167500D01*
X121902956Y-117167500D01*
X121908441Y-117167739D01*
X121948984Y-117171287D01*
X121988303Y-117160750D01*
X121993649Y-117159565D01*
X122033739Y-117152497D01*
X122033742Y-117152495D01*
X122039265Y-117150485D01*
X122055218Y-117143877D01*
X122060540Y-117141395D01*
X122060540Y-117141394D01*
X122060543Y-117141394D01*
X122093886Y-117118045D01*
X122098492Y-117115111D01*
X122133760Y-117094750D01*
X122159933Y-117063555D01*
X122163615Y-117059537D01*
X125177150Y-114046002D01*
X131620843Y-114046002D01*
X131639425Y-114234676D01*
X131639426Y-114234682D01*
X131639427Y-114234683D01*
X131694463Y-114416115D01*
X131783838Y-114583324D01*
X131904117Y-114729883D01*
X132050676Y-114850162D01*
X132217885Y-114939537D01*
X132399317Y-114994573D01*
X132399321Y-114994573D01*
X132399323Y-114994574D01*
X132587997Y-115013157D01*
X132588000Y-115013157D01*
X132588003Y-115013157D01*
X132776676Y-114994574D01*
X132776677Y-114994573D01*
X132776683Y-114994573D01*
X132958115Y-114939537D01*
X133125324Y-114850162D01*
X133271883Y-114729883D01*
X133392162Y-114583324D01*
X133481537Y-114416115D01*
X133536573Y-114234683D01*
X133536600Y-114234416D01*
X133555157Y-114046002D01*
X133555157Y-114045997D01*
X133536574Y-113857323D01*
X133536573Y-113857321D01*
X133536573Y-113857317D01*
X133481537Y-113675885D01*
X133392162Y-113508676D01*
X133271883Y-113362117D01*
X133125324Y-113241838D01*
X132958115Y-113152463D01*
X132776683Y-113097427D01*
X132776682Y-113097426D01*
X132776676Y-113097425D01*
X132588003Y-113078843D01*
X132587997Y-113078843D01*
X132399323Y-113097425D01*
X132217884Y-113152463D01*
X132050675Y-113241838D01*
X131904117Y-113362117D01*
X131783838Y-113508675D01*
X131694463Y-113675884D01*
X131639425Y-113857323D01*
X131620843Y-114045997D01*
X131620843Y-114046002D01*
X125177150Y-114046002D01*
X139665543Y-99557610D01*
X139669561Y-99553928D01*
X139700750Y-99527760D01*
X139718380Y-99497222D01*
X139769762Y-99448229D01*
X139839476Y-99434792D01*
X139905387Y-99461179D01*
X139946570Y-99519010D01*
X139953500Y-99560222D01*
X139953500Y-174117750D01*
X139933498Y-174185871D01*
X139879842Y-174232364D01*
X139809568Y-174242468D01*
X139744988Y-174212974D01*
X139706604Y-174153248D01*
X139706209Y-174151876D01*
X139661467Y-173992854D01*
X139516563Y-173623644D01*
X139516562Y-173623643D01*
X139516559Y-173623634D01*
X139335609Y-173270677D01*
X139120414Y-172937491D01*
X138873114Y-172627386D01*
X138596167Y-172343446D01*
X138522342Y-172281500D01*
X138292320Y-172088489D01*
X138051372Y-171924214D01*
X137964606Y-171865058D01*
X137964597Y-171865053D01*
X137616275Y-171675366D01*
X137250778Y-171521296D01*
X137250774Y-171521294D01*
X136971365Y-171435109D01*
X136871760Y-171404385D01*
X136482986Y-171325792D01*
X136482985Y-171325791D01*
X136482981Y-171325791D01*
X136088325Y-171286300D01*
X136088319Y-171286300D01*
X135790899Y-171286300D01*
X135790892Y-171286300D01*
X135493864Y-171301123D01*
X135251321Y-171337681D01*
X135101647Y-171360241D01*
X135101643Y-171360241D01*
X135101643Y-171360242D01*
X134717273Y-171458114D01*
X134717252Y-171458121D01*
X134344578Y-171593762D01*
X134344551Y-171593773D01*
X133987202Y-171765864D01*
X133987201Y-171765864D01*
X133648747Y-171972689D01*
X133415388Y-172149452D01*
X133380144Y-172176149D01*
X133332567Y-172212187D01*
X133041823Y-172481959D01*
X133041821Y-172481961D01*
X132779372Y-172779351D01*
X132779364Y-172779360D01*
X132616684Y-173005634D01*
X132547834Y-173101400D01*
X132547831Y-173101404D01*
X132547831Y-173101405D01*
X132349521Y-173444888D01*
X132349515Y-173444898D01*
X132186384Y-173806435D01*
X132186381Y-173806442D01*
X132060060Y-174182416D01*
X132060057Y-174182425D01*
X131971800Y-174569106D01*
X131971799Y-174569117D01*
X131922478Y-174962675D01*
X131912591Y-175359190D01*
X131942230Y-175754714D01*
X131942230Y-175754719D01*
X131942231Y-175754720D01*
X131986656Y-176006666D01*
X132011108Y-176145335D01*
X132118532Y-176527145D01*
X132263436Y-176896355D01*
X132263439Y-176896361D01*
X132263441Y-176896366D01*
X132444391Y-177249323D01*
X132659586Y-177582509D01*
X132906886Y-177892614D01*
X133183833Y-178176554D01*
X133487676Y-178431508D01*
X133815394Y-178654942D01*
X133925416Y-178714857D01*
X134108631Y-178814631D01*
X134163730Y-178844636D01*
X134489957Y-178982152D01*
X134529221Y-178998703D01*
X134529225Y-178998705D01*
X134783371Y-179077098D01*
X134842570Y-179116290D01*
X134871182Y-179181266D01*
X134860123Y-179251396D01*
X134812905Y-179304414D01*
X134746232Y-179323500D01*
X70308500Y-179323500D01*
X70240379Y-179303498D01*
X70193886Y-179249842D01*
X70182500Y-179197500D01*
X70182500Y-173181999D01*
X110194540Y-173181999D01*
X110214325Y-173370256D01*
X110272818Y-173550278D01*
X110272822Y-173550286D01*
X110367465Y-173714214D01*
X110367466Y-173714216D01*
X110494126Y-173854886D01*
X110647267Y-173966149D01*
X110647267Y-173966150D01*
X110694612Y-173987229D01*
X110820197Y-174043144D01*
X111005354Y-174082500D01*
X111194646Y-174082500D01*
X111379803Y-174043144D01*
X111552730Y-173966151D01*
X111552730Y-173966150D01*
X111552732Y-173966150D01*
X111552732Y-173966149D01*
X111705871Y-173854888D01*
X111749499Y-173806435D01*
X111832533Y-173714216D01*
X111832534Y-173714214D01*
X111927179Y-173550284D01*
X111985674Y-173370256D01*
X112005460Y-173182000D01*
X111985674Y-172993744D01*
X111985674Y-172993743D01*
X111927181Y-172813721D01*
X111927177Y-172813713D01*
X111907343Y-172779360D01*
X111832534Y-172649785D01*
X111832533Y-172649783D01*
X111705873Y-172509113D01*
X111552732Y-172397850D01*
X111552732Y-172397849D01*
X111427145Y-172341934D01*
X111379803Y-172320856D01*
X111379801Y-172320855D01*
X111379800Y-172320855D01*
X111194646Y-172281500D01*
X111005354Y-172281500D01*
X110820199Y-172320855D01*
X110647267Y-172397849D01*
X110647267Y-172397850D01*
X110494126Y-172509113D01*
X110367466Y-172649783D01*
X110367465Y-172649785D01*
X110272822Y-172813713D01*
X110272818Y-172813721D01*
X110214325Y-172993743D01*
X110194540Y-173181999D01*
X70182500Y-173181999D01*
X70182500Y-169192984D01*
X97781713Y-169192984D01*
X97787092Y-169213060D01*
X97792245Y-169232291D01*
X97793435Y-169237658D01*
X97800502Y-169277736D01*
X97802500Y-169283226D01*
X97809143Y-169299263D01*
X97811604Y-169304541D01*
X97834946Y-169337876D01*
X97837899Y-169342512D01*
X97858250Y-169377760D01*
X97889435Y-169403927D01*
X97893477Y-169407631D01*
X100097372Y-171611527D01*
X100101076Y-171615569D01*
X100127240Y-171646750D01*
X100162489Y-171667101D01*
X100167104Y-171670040D01*
X100200457Y-171693394D01*
X100200458Y-171693394D01*
X100200461Y-171693396D01*
X100205775Y-171695874D01*
X100221769Y-171702498D01*
X100227258Y-171704496D01*
X100227259Y-171704496D01*
X100227261Y-171704497D01*
X100267359Y-171711566D01*
X100272686Y-171712747D01*
X100312016Y-171723287D01*
X100352558Y-171719739D01*
X100358044Y-171719500D01*
X102606528Y-171719500D01*
X102674649Y-171739502D01*
X102715647Y-171782500D01*
X102797465Y-171924214D01*
X102797466Y-171924216D01*
X102924126Y-172064886D01*
X103077267Y-172176149D01*
X103077267Y-172176150D01*
X103124612Y-172197229D01*
X103250197Y-172253144D01*
X103435354Y-172292500D01*
X103624646Y-172292500D01*
X103809803Y-172253144D01*
X103982730Y-172176151D01*
X103982730Y-172176150D01*
X103982732Y-172176150D01*
X103982732Y-172176149D01*
X104135871Y-172064888D01*
X104218889Y-171972688D01*
X104262533Y-171924216D01*
X104262534Y-171924214D01*
X104296684Y-171865064D01*
X104357179Y-171760284D01*
X104415674Y-171580256D01*
X104435460Y-171392000D01*
X104415674Y-171203744D01*
X104370431Y-171064500D01*
X104357181Y-171023721D01*
X104357177Y-171023713D01*
X104344352Y-171001500D01*
X104262534Y-170859785D01*
X104262533Y-170859783D01*
X104135873Y-170719113D01*
X103982732Y-170607850D01*
X103982732Y-170607849D01*
X103857145Y-170551934D01*
X103809803Y-170530856D01*
X103809801Y-170530855D01*
X103809800Y-170530855D01*
X103624646Y-170491500D01*
X103435354Y-170491500D01*
X103250199Y-170530855D01*
X103077267Y-170607849D01*
X103077267Y-170607850D01*
X102924126Y-170719113D01*
X102797466Y-170859783D01*
X102797465Y-170859785D01*
X102715647Y-171001500D01*
X102664265Y-171050493D01*
X102606528Y-171064500D01*
X100528845Y-171064500D01*
X100460724Y-171044498D01*
X100439750Y-171027595D01*
X98477405Y-169065250D01*
X98443379Y-169002938D01*
X98440500Y-168976155D01*
X98440500Y-168102003D01*
X99394778Y-168102003D01*
X99413643Y-168389834D01*
X99413645Y-168389849D01*
X99469919Y-168672754D01*
X99469920Y-168672758D01*
X99531195Y-168853266D01*
X99562641Y-168945902D01*
X99562644Y-168945908D01*
X99690220Y-169204608D01*
X99850473Y-169444445D01*
X99850476Y-169444449D01*
X100040672Y-169661327D01*
X100178009Y-169781767D01*
X100257546Y-169851520D01*
X100257548Y-169851521D01*
X100257550Y-169851523D01*
X100257554Y-169851526D01*
X100415981Y-169957383D01*
X100497389Y-170011778D01*
X100756098Y-170139359D01*
X101029247Y-170232081D01*
X101244831Y-170274963D01*
X101312150Y-170288354D01*
X101312152Y-170288354D01*
X101312161Y-170288356D01*
X101476640Y-170299136D01*
X101599997Y-170307222D01*
X101600000Y-170307222D01*
X101600003Y-170307222D01*
X101707939Y-170300147D01*
X101887839Y-170288356D01*
X102170753Y-170232081D01*
X102443902Y-170139359D01*
X102702611Y-170011778D01*
X102942454Y-169851520D01*
X103159327Y-169661327D01*
X103349520Y-169444454D01*
X103509778Y-169204611D01*
X103637359Y-168945902D01*
X103730081Y-168672753D01*
X103786356Y-168389839D01*
X103805222Y-168102003D01*
X110824778Y-168102003D01*
X110843643Y-168389834D01*
X110843645Y-168389849D01*
X110899919Y-168672754D01*
X110899920Y-168672758D01*
X110961195Y-168853266D01*
X110992641Y-168945902D01*
X110992644Y-168945908D01*
X111120220Y-169204608D01*
X111280473Y-169444445D01*
X111280476Y-169444449D01*
X111470672Y-169661327D01*
X111608009Y-169781767D01*
X111687546Y-169851520D01*
X111687548Y-169851521D01*
X111687550Y-169851523D01*
X111687554Y-169851526D01*
X111845981Y-169957383D01*
X111927389Y-170011778D01*
X112186098Y-170139359D01*
X112459247Y-170232081D01*
X112674831Y-170274963D01*
X112742150Y-170288354D01*
X112742152Y-170288354D01*
X112742161Y-170288356D01*
X112906640Y-170299136D01*
X113029997Y-170307222D01*
X113030000Y-170307222D01*
X113030003Y-170307222D01*
X113100850Y-170302578D01*
X113302132Y-170289385D01*
X113371414Y-170304889D01*
X113421317Y-170355388D01*
X113435995Y-170424851D01*
X113410789Y-170491223D01*
X113361621Y-170530222D01*
X113187267Y-170607849D01*
X113187267Y-170607850D01*
X113034126Y-170719113D01*
X112907466Y-170859783D01*
X112907465Y-170859785D01*
X112812822Y-171023713D01*
X112812818Y-171023721D01*
X112754325Y-171203743D01*
X112734540Y-171392000D01*
X112754325Y-171580256D01*
X112812818Y-171760278D01*
X112812822Y-171760286D01*
X112907465Y-171924214D01*
X112907466Y-171924216D01*
X113034126Y-172064886D01*
X113187267Y-172176149D01*
X113187267Y-172176150D01*
X113234612Y-172197229D01*
X113360197Y-172253144D01*
X113545354Y-172292500D01*
X113734646Y-172292500D01*
X113919803Y-172253144D01*
X114092730Y-172176151D01*
X114092730Y-172176150D01*
X114092732Y-172176150D01*
X114092732Y-172176149D01*
X114245871Y-172064888D01*
X114328889Y-171972688D01*
X114372533Y-171924216D01*
X114372534Y-171924214D01*
X114406684Y-171865064D01*
X114467179Y-171760284D01*
X114525674Y-171580256D01*
X114545460Y-171392000D01*
X114525674Y-171203744D01*
X114480431Y-171064500D01*
X114467181Y-171023721D01*
X114467177Y-171023713D01*
X114454352Y-171001500D01*
X114372534Y-170859785D01*
X114372533Y-170859783D01*
X114245873Y-170719113D01*
X114092732Y-170607850D01*
X114092732Y-170607849D01*
X113967145Y-170551934D01*
X113919803Y-170530856D01*
X113919801Y-170530855D01*
X113919800Y-170530855D01*
X113734646Y-170491500D01*
X113575864Y-170491500D01*
X113507743Y-170471498D01*
X113461250Y-170417842D01*
X113451146Y-170347568D01*
X113480640Y-170282988D01*
X113540366Y-170244604D01*
X113551279Y-170241921D01*
X113600753Y-170232081D01*
X113873902Y-170139359D01*
X114132611Y-170011778D01*
X114372454Y-169851520D01*
X114589327Y-169661327D01*
X114779520Y-169444454D01*
X114939778Y-169204611D01*
X115067359Y-168945902D01*
X115160081Y-168672753D01*
X115216356Y-168389839D01*
X115235222Y-168102000D01*
X115216356Y-167814161D01*
X115160081Y-167531247D01*
X115067359Y-167258098D01*
X114939778Y-166999389D01*
X114815025Y-166812683D01*
X114779526Y-166759554D01*
X114779523Y-166759550D01*
X114779521Y-166759548D01*
X114779520Y-166759546D01*
X114660651Y-166624002D01*
X126032843Y-166624002D01*
X126051425Y-166812676D01*
X126051426Y-166812682D01*
X126051427Y-166812683D01*
X126106463Y-166994115D01*
X126195838Y-167161324D01*
X126316117Y-167307883D01*
X126462676Y-167428162D01*
X126629885Y-167517537D01*
X126811317Y-167572573D01*
X126811321Y-167572573D01*
X126811323Y-167572574D01*
X126999997Y-167591157D01*
X127000000Y-167591157D01*
X127000003Y-167591157D01*
X127188676Y-167572574D01*
X127188677Y-167572573D01*
X127188683Y-167572573D01*
X127370115Y-167517537D01*
X127537324Y-167428162D01*
X127683883Y-167307883D01*
X127804162Y-167161324D01*
X127893537Y-166994115D01*
X127948573Y-166812683D01*
X127953807Y-166759550D01*
X127967157Y-166624002D01*
X127967157Y-166623997D01*
X127948574Y-166435323D01*
X127948573Y-166435321D01*
X127948573Y-166435317D01*
X127893537Y-166253885D01*
X127804162Y-166086676D01*
X127683883Y-165940117D01*
X127537324Y-165819838D01*
X127370115Y-165730463D01*
X127188683Y-165675427D01*
X127188682Y-165675426D01*
X127188676Y-165675425D01*
X127000003Y-165656843D01*
X126999997Y-165656843D01*
X126811323Y-165675425D01*
X126629884Y-165730463D01*
X126462675Y-165819838D01*
X126316117Y-165940117D01*
X126195838Y-166086675D01*
X126106463Y-166253884D01*
X126051425Y-166435323D01*
X126032843Y-166623997D01*
X126032843Y-166624002D01*
X114660651Y-166624002D01*
X114660649Y-166624000D01*
X114589327Y-166542672D01*
X114372449Y-166352476D01*
X114372445Y-166352473D01*
X114132608Y-166192220D01*
X113873908Y-166064644D01*
X113873902Y-166064641D01*
X113781266Y-166033195D01*
X113600758Y-165971920D01*
X113600754Y-165971919D01*
X113317849Y-165915645D01*
X113317834Y-165915643D01*
X113030003Y-165896778D01*
X113029997Y-165896778D01*
X112742165Y-165915643D01*
X112742150Y-165915645D01*
X112459245Y-165971919D01*
X112459241Y-165971920D01*
X112190855Y-166063025D01*
X112186098Y-166064641D01*
X112186095Y-166064642D01*
X112186091Y-166064644D01*
X111927391Y-166192220D01*
X111687554Y-166352473D01*
X111687550Y-166352476D01*
X111470672Y-166542672D01*
X111280476Y-166759550D01*
X111280473Y-166759554D01*
X111120220Y-166999391D01*
X110992644Y-167258091D01*
X110992640Y-167258101D01*
X110899920Y-167531241D01*
X110899919Y-167531245D01*
X110843645Y-167814150D01*
X110843643Y-167814165D01*
X110824778Y-168101996D01*
X110824778Y-168102003D01*
X103805222Y-168102003D01*
X103805222Y-168102000D01*
X103786356Y-167814161D01*
X103730081Y-167531247D01*
X103637359Y-167258098D01*
X103509778Y-166999389D01*
X103385025Y-166812683D01*
X103349526Y-166759554D01*
X103349523Y-166759550D01*
X103349521Y-166759548D01*
X103349520Y-166759546D01*
X103230649Y-166624000D01*
X103159327Y-166542672D01*
X102942449Y-166352476D01*
X102942445Y-166352473D01*
X102702608Y-166192220D01*
X102443908Y-166064644D01*
X102443902Y-166064641D01*
X102351266Y-166033195D01*
X102170758Y-165971920D01*
X102170754Y-165971919D01*
X101887849Y-165915645D01*
X101887834Y-165915643D01*
X101600003Y-165896778D01*
X101599997Y-165896778D01*
X101312165Y-165915643D01*
X101312150Y-165915645D01*
X101029245Y-165971919D01*
X101029241Y-165971920D01*
X100760855Y-166063025D01*
X100756098Y-166064641D01*
X100756095Y-166064642D01*
X100756091Y-166064644D01*
X100497391Y-166192220D01*
X100257554Y-166352473D01*
X100257550Y-166352476D01*
X100040672Y-166542672D01*
X99850476Y-166759550D01*
X99850473Y-166759554D01*
X99690220Y-166999391D01*
X99562644Y-167258091D01*
X99562640Y-167258101D01*
X99469920Y-167531241D01*
X99469919Y-167531245D01*
X99413645Y-167814150D01*
X99413643Y-167814165D01*
X99394778Y-168101996D01*
X99394778Y-168102003D01*
X98440500Y-168102003D01*
X98440500Y-163694843D01*
X98460502Y-163626722D01*
X98477400Y-163605753D01*
X103209519Y-158873634D01*
X103271829Y-158839610D01*
X103342644Y-158844675D01*
X103399480Y-158887222D01*
X103424291Y-158953742D01*
X103417542Y-159004344D01*
X103416075Y-159008537D01*
X103403687Y-159043941D01*
X103384751Y-159212000D01*
X103403687Y-159380059D01*
X103403688Y-159380061D01*
X103459543Y-159539689D01*
X103459544Y-159539690D01*
X103549523Y-159682890D01*
X103549526Y-159682893D01*
X103549526Y-159682894D01*
X103669105Y-159802473D01*
X103669107Y-159802474D01*
X103669110Y-159802477D01*
X103812310Y-159892456D01*
X103959415Y-159943930D01*
X104017103Y-159985305D01*
X104043266Y-160051306D01*
X104029594Y-160120973D01*
X104006892Y-160151952D01*
X103171897Y-160986947D01*
X103109585Y-161020973D01*
X103045013Y-161017017D01*
X103044958Y-161017262D01*
X103043476Y-161016923D01*
X103041194Y-161016784D01*
X103038059Y-161015687D01*
X102870000Y-160996751D01*
X102701941Y-161015687D01*
X102701938Y-161015687D01*
X102701938Y-161015688D01*
X102542310Y-161071543D01*
X102445981Y-161132071D01*
X102399110Y-161161523D01*
X102399108Y-161161524D01*
X102399106Y-161161526D01*
X102399105Y-161161526D01*
X102279526Y-161281105D01*
X102279526Y-161281106D01*
X102279524Y-161281108D01*
X102279523Y-161281110D01*
X102256186Y-161318250D01*
X102189543Y-161424310D01*
X102142925Y-161557541D01*
X102133687Y-161583941D01*
X102114751Y-161752000D01*
X102133687Y-161920059D01*
X102133688Y-161920061D01*
X102189543Y-162079689D01*
X102189544Y-162079690D01*
X102279523Y-162222890D01*
X102279526Y-162222892D01*
X102279526Y-162222893D01*
X102279526Y-162222894D01*
X102399105Y-162342473D01*
X102399107Y-162342474D01*
X102399110Y-162342477D01*
X102542310Y-162432456D01*
X102701941Y-162488313D01*
X102870000Y-162507249D01*
X103038059Y-162488313D01*
X103197690Y-162432456D01*
X103340890Y-162342477D01*
X103460477Y-162222890D01*
X103550456Y-162079690D01*
X103606313Y-161920059D01*
X103625249Y-161752000D01*
X103606313Y-161583941D01*
X103605220Y-161580820D01*
X103605111Y-161578679D01*
X103604737Y-161577039D01*
X103605024Y-161576973D01*
X103601595Y-161509918D01*
X103635049Y-161450103D01*
X104867406Y-160217746D01*
X104929717Y-160183722D01*
X105000533Y-160188787D01*
X105057368Y-160231334D01*
X105082179Y-160297854D01*
X105082500Y-160306843D01*
X105082500Y-161001787D01*
X105062498Y-161069908D01*
X105023537Y-161108473D01*
X104939110Y-161161523D01*
X104939108Y-161161524D01*
X104939106Y-161161526D01*
X104939105Y-161161526D01*
X104819526Y-161281105D01*
X104819526Y-161281106D01*
X104819524Y-161281108D01*
X104819523Y-161281110D01*
X104796186Y-161318250D01*
X104729543Y-161424310D01*
X104682925Y-161557541D01*
X104673687Y-161583941D01*
X104654751Y-161752000D01*
X104673687Y-161920059D01*
X104673688Y-161920061D01*
X104729543Y-162079689D01*
X104729544Y-162079690D01*
X104819523Y-162222890D01*
X104819526Y-162222892D01*
X104819526Y-162222893D01*
X104819526Y-162222894D01*
X104939105Y-162342473D01*
X104939107Y-162342474D01*
X104939110Y-162342477D01*
X105082310Y-162432456D01*
X105241941Y-162488313D01*
X105410000Y-162507249D01*
X105578059Y-162488313D01*
X105737690Y-162432456D01*
X105880890Y-162342477D01*
X106000477Y-162222890D01*
X106090456Y-162079690D01*
X106146313Y-161920059D01*
X106165249Y-161752000D01*
X107194751Y-161752000D01*
X107213687Y-161920059D01*
X107213688Y-161920061D01*
X107269543Y-162079689D01*
X107269544Y-162079690D01*
X107359523Y-162222890D01*
X107359525Y-162222892D01*
X107359526Y-162222893D01*
X107359526Y-162222894D01*
X107479105Y-162342473D01*
X107479107Y-162342474D01*
X107479110Y-162342477D01*
X107622310Y-162432456D01*
X107781941Y-162488313D01*
X107950000Y-162507249D01*
X108118059Y-162488313D01*
X108277690Y-162432456D01*
X108420890Y-162342477D01*
X108540477Y-162222890D01*
X108630456Y-162079690D01*
X108686313Y-161920059D01*
X108705249Y-161752000D01*
X109734751Y-161752000D01*
X109753687Y-161920059D01*
X109753688Y-161920061D01*
X109809543Y-162079689D01*
X109809544Y-162079690D01*
X109899523Y-162222890D01*
X109899526Y-162222892D01*
X109899526Y-162222893D01*
X109899526Y-162222894D01*
X110019105Y-162342473D01*
X110019107Y-162342474D01*
X110019110Y-162342477D01*
X110162310Y-162432456D01*
X110321941Y-162488313D01*
X110490000Y-162507249D01*
X110658059Y-162488313D01*
X110817690Y-162432456D01*
X110960890Y-162342477D01*
X111080477Y-162222890D01*
X111170456Y-162079690D01*
X111226313Y-161920059D01*
X111245249Y-161752000D01*
X111226313Y-161583941D01*
X111170456Y-161424310D01*
X111080477Y-161281110D01*
X111080473Y-161281106D01*
X111080473Y-161281105D01*
X110960894Y-161161526D01*
X110960891Y-161161524D01*
X110960890Y-161161523D01*
X110876463Y-161108474D01*
X110817689Y-161071543D01*
X110708485Y-161033331D01*
X110658059Y-161015687D01*
X110490000Y-160996751D01*
X110489999Y-160996751D01*
X110465554Y-160999505D01*
X110321941Y-161015687D01*
X110321938Y-161015687D01*
X110321938Y-161015688D01*
X110162310Y-161071543D01*
X110065981Y-161132071D01*
X110019110Y-161161523D01*
X110019108Y-161161524D01*
X110019106Y-161161526D01*
X110019105Y-161161526D01*
X109899526Y-161281105D01*
X109899526Y-161281106D01*
X109899524Y-161281108D01*
X109899523Y-161281110D01*
X109876186Y-161318250D01*
X109809543Y-161424310D01*
X109762925Y-161557541D01*
X109753687Y-161583941D01*
X109734751Y-161752000D01*
X108705249Y-161752000D01*
X108686313Y-161583941D01*
X108630456Y-161424310D01*
X108540477Y-161281110D01*
X108540473Y-161281106D01*
X108540473Y-161281105D01*
X108420894Y-161161526D01*
X108420891Y-161161524D01*
X108420890Y-161161523D01*
X108336463Y-161108474D01*
X108277689Y-161071543D01*
X108168485Y-161033331D01*
X108118059Y-161015687D01*
X107950000Y-160996751D01*
X107781941Y-161015687D01*
X107781938Y-161015687D01*
X107781938Y-161015688D01*
X107622310Y-161071543D01*
X107525981Y-161132071D01*
X107479110Y-161161523D01*
X107479108Y-161161524D01*
X107479106Y-161161526D01*
X107479105Y-161161526D01*
X107359526Y-161281105D01*
X107359526Y-161281106D01*
X107359524Y-161281108D01*
X107359523Y-161281110D01*
X107336186Y-161318250D01*
X107269543Y-161424310D01*
X107222925Y-161557541D01*
X107213687Y-161583941D01*
X107194751Y-161752000D01*
X106165249Y-161752000D01*
X106146313Y-161583941D01*
X106090456Y-161424310D01*
X106000477Y-161281110D01*
X106000473Y-161281106D01*
X106000473Y-161281105D01*
X105880894Y-161161526D01*
X105880891Y-161161524D01*
X105880890Y-161161523D01*
X105796462Y-161108473D01*
X105749426Y-161055295D01*
X105737500Y-161001787D01*
X105737500Y-160041896D01*
X105757502Y-159973775D01*
X105774400Y-159952805D01*
X105929531Y-159797673D01*
X105933562Y-159793980D01*
X105964750Y-159767812D01*
X105964750Y-159767811D01*
X105964752Y-159767810D01*
X105971836Y-159759368D01*
X105975134Y-159762135D01*
X106010413Y-159728275D01*
X106080082Y-159714609D01*
X106146079Y-159740778D01*
X106157614Y-159750982D01*
X106209105Y-159802473D01*
X106209107Y-159802474D01*
X106209110Y-159802477D01*
X106352310Y-159892456D01*
X106511941Y-159948313D01*
X106680000Y-159967249D01*
X106848059Y-159948313D01*
X107007690Y-159892456D01*
X107150890Y-159802477D01*
X107270477Y-159682890D01*
X107360456Y-159539690D01*
X107416313Y-159380059D01*
X107435249Y-159212000D01*
X107416313Y-159043941D01*
X107415220Y-159040820D01*
X107415111Y-159038679D01*
X107414737Y-159037039D01*
X107415024Y-159036973D01*
X107411595Y-158969918D01*
X107445049Y-158910103D01*
X111217407Y-155137746D01*
X111279717Y-155103722D01*
X111350533Y-155108787D01*
X111407368Y-155151334D01*
X111432179Y-155217854D01*
X111432500Y-155226843D01*
X111432500Y-156484154D01*
X111412498Y-156552275D01*
X111395595Y-156573249D01*
X109521897Y-158446947D01*
X109459585Y-158480973D01*
X109395013Y-158477017D01*
X109394958Y-158477262D01*
X109393476Y-158476923D01*
X109391194Y-158476784D01*
X109388059Y-158475687D01*
X109220000Y-158456751D01*
X109219999Y-158456751D01*
X109195554Y-158459505D01*
X109051941Y-158475687D01*
X109051938Y-158475687D01*
X109051938Y-158475688D01*
X108892310Y-158531543D01*
X108795981Y-158592071D01*
X108749110Y-158621523D01*
X108749108Y-158621524D01*
X108749106Y-158621526D01*
X108749105Y-158621526D01*
X108629526Y-158741105D01*
X108629526Y-158741106D01*
X108539543Y-158884310D01*
X108496075Y-159008537D01*
X108483687Y-159043941D01*
X108464751Y-159212000D01*
X108483687Y-159380059D01*
X108483688Y-159380061D01*
X108539543Y-159539689D01*
X108539544Y-159539690D01*
X108629523Y-159682890D01*
X108629526Y-159682893D01*
X108629526Y-159682894D01*
X108749105Y-159802473D01*
X108749107Y-159802474D01*
X108749110Y-159802477D01*
X108892310Y-159892456D01*
X109051941Y-159948313D01*
X109220000Y-159967249D01*
X109388059Y-159948313D01*
X109547690Y-159892456D01*
X109690890Y-159802477D01*
X109810477Y-159682890D01*
X109900456Y-159539690D01*
X109956313Y-159380059D01*
X109975249Y-159212000D01*
X109956313Y-159043941D01*
X109955220Y-159040820D01*
X109955111Y-159038679D01*
X109954737Y-159037039D01*
X109955024Y-159036973D01*
X109951595Y-158969918D01*
X109985049Y-158910103D01*
X111979543Y-156915610D01*
X111983561Y-156911928D01*
X112014750Y-156885760D01*
X112035100Y-156850509D01*
X112038054Y-156845874D01*
X112061394Y-156812543D01*
X112061394Y-156812540D01*
X112063877Y-156807218D01*
X112070485Y-156791265D01*
X112072496Y-156785741D01*
X112072496Y-156785740D01*
X112072497Y-156785739D01*
X112079567Y-156745634D01*
X112080747Y-156740312D01*
X112091286Y-156700985D01*
X112090856Y-156696080D01*
X112087740Y-156660446D01*
X112087500Y-156654954D01*
X112087500Y-152399999D01*
X114710793Y-152399999D01*
X114729568Y-152578639D01*
X114785072Y-152749466D01*
X114785075Y-152749472D01*
X114874885Y-152905026D01*
X114874887Y-152905029D01*
X114995078Y-153038515D01*
X115140396Y-153144095D01*
X115304490Y-153217154D01*
X115480188Y-153254500D01*
X115659812Y-153254500D01*
X115835510Y-153217154D01*
X115999604Y-153144095D01*
X116144922Y-153038515D01*
X116265113Y-152905029D01*
X116331237Y-152790498D01*
X116382620Y-152741506D01*
X116440356Y-152727500D01*
X121097156Y-152727500D01*
X121165277Y-152747502D01*
X121186251Y-152764405D01*
X126067087Y-157645242D01*
X126101113Y-157707554D01*
X126098567Y-157770911D01*
X126051425Y-157926322D01*
X126032843Y-158114997D01*
X126032843Y-158115002D01*
X126051425Y-158303676D01*
X126051426Y-158303682D01*
X126051427Y-158303683D01*
X126106463Y-158485115D01*
X126195838Y-158652324D01*
X126316117Y-158798883D01*
X126462676Y-158919162D01*
X126629885Y-159008537D01*
X126811317Y-159063573D01*
X126811321Y-159063573D01*
X126811323Y-159063574D01*
X126999997Y-159082157D01*
X127000000Y-159082157D01*
X127000003Y-159082157D01*
X127188676Y-159063574D01*
X127188677Y-159063573D01*
X127188683Y-159063573D01*
X127370115Y-159008537D01*
X127537324Y-158919162D01*
X127683883Y-158798883D01*
X127804162Y-158652324D01*
X127893537Y-158485115D01*
X127948573Y-158303683D01*
X127967157Y-158115000D01*
X127967157Y-158114997D01*
X127948574Y-157926323D01*
X127948573Y-157926321D01*
X127948573Y-157926317D01*
X127893537Y-157744885D01*
X127804162Y-157577676D01*
X127683883Y-157431117D01*
X127537324Y-157310838D01*
X127370115Y-157221463D01*
X127188683Y-157166427D01*
X127188682Y-157166426D01*
X127188676Y-157166425D01*
X127000003Y-157147843D01*
X126999997Y-157147843D01*
X126811322Y-157166425D01*
X126655911Y-157213567D01*
X126584918Y-157214200D01*
X126530242Y-157182087D01*
X121528642Y-152180488D01*
X121524927Y-152176435D01*
X121498760Y-152145250D01*
X121463512Y-152124899D01*
X121458876Y-152121946D01*
X121425541Y-152098604D01*
X121420263Y-152096143D01*
X121404226Y-152089500D01*
X121398736Y-152087502D01*
X121358658Y-152080435D01*
X121353291Y-152079245D01*
X121328117Y-152072500D01*
X121313984Y-152068713D01*
X121313983Y-152068713D01*
X121306003Y-152069411D01*
X121273441Y-152072260D01*
X121267956Y-152072500D01*
X116440356Y-152072500D01*
X116372235Y-152052498D01*
X116331237Y-152009501D01*
X116265113Y-151894971D01*
X116144922Y-151761485D01*
X115999604Y-151655905D01*
X115835510Y-151582846D01*
X115659812Y-151545500D01*
X115480188Y-151545500D01*
X115304489Y-151582846D01*
X115140392Y-151655907D01*
X114995078Y-151761484D01*
X114874888Y-151894969D01*
X114874885Y-151894973D01*
X114785075Y-152050527D01*
X114785072Y-152050533D01*
X114729568Y-152221360D01*
X114710793Y-152399999D01*
X112087500Y-152399999D01*
X112087500Y-149860000D01*
X114710793Y-149860000D01*
X114729568Y-150038639D01*
X114785072Y-150209466D01*
X114785075Y-150209472D01*
X114831501Y-150289883D01*
X114874887Y-150365029D01*
X114995078Y-150498515D01*
X115140396Y-150604095D01*
X115304490Y-150677154D01*
X115480188Y-150714500D01*
X115659812Y-150714500D01*
X115835510Y-150677154D01*
X115999604Y-150604095D01*
X116144922Y-150498515D01*
X116265113Y-150365029D01*
X116331237Y-150250498D01*
X116382620Y-150201506D01*
X116440356Y-150187500D01*
X124780156Y-150187500D01*
X124848277Y-150207502D01*
X124869251Y-150224405D01*
X129937595Y-155292749D01*
X129971621Y-155355061D01*
X129974500Y-155381844D01*
X129974499Y-161399954D01*
X129974259Y-161405447D01*
X129970713Y-161445983D01*
X129981245Y-161485291D01*
X129982435Y-161490658D01*
X129989502Y-161530736D01*
X129991500Y-161536226D01*
X129998143Y-161552263D01*
X130000604Y-161557541D01*
X130023946Y-161590876D01*
X130026899Y-161595512D01*
X130047250Y-161630760D01*
X130078435Y-161656927D01*
X130082477Y-161660631D01*
X130644736Y-162222890D01*
X132163087Y-163741242D01*
X132197113Y-163803554D01*
X132194567Y-163866911D01*
X132147425Y-164022322D01*
X132128843Y-164210997D01*
X132128843Y-164211002D01*
X132147425Y-164399676D01*
X132147426Y-164399682D01*
X132147427Y-164399683D01*
X132202463Y-164581115D01*
X132291838Y-164748324D01*
X132412117Y-164894883D01*
X132558676Y-165015162D01*
X132725885Y-165104537D01*
X132907317Y-165159573D01*
X132907321Y-165159573D01*
X132907323Y-165159574D01*
X133095997Y-165178157D01*
X133096000Y-165178157D01*
X133096003Y-165178157D01*
X133284676Y-165159574D01*
X133284677Y-165159573D01*
X133284683Y-165159573D01*
X133466115Y-165104537D01*
X133633324Y-165015162D01*
X133779883Y-164894883D01*
X133900162Y-164748324D01*
X133989537Y-164581115D01*
X134044573Y-164399683D01*
X134063157Y-164211000D01*
X134044573Y-164022322D01*
X134044573Y-164022321D01*
X134044573Y-164022317D01*
X133989537Y-163840885D01*
X133900162Y-163673676D01*
X133779883Y-163527117D01*
X133633324Y-163406838D01*
X133466115Y-163317463D01*
X133284683Y-163262427D01*
X133284682Y-163262426D01*
X133284676Y-163262425D01*
X133096003Y-163243843D01*
X133095997Y-163243843D01*
X132907322Y-163262425D01*
X132751911Y-163309567D01*
X132680918Y-163310200D01*
X132626242Y-163278087D01*
X130666405Y-161318250D01*
X130632379Y-161255938D01*
X130629500Y-161229155D01*
X130629500Y-158281517D01*
X130629500Y-155211022D01*
X130629738Y-155205563D01*
X130633286Y-155165016D01*
X130622750Y-155125698D01*
X130621567Y-155120361D01*
X130614497Y-155080261D01*
X130614496Y-155080259D01*
X130614496Y-155080258D01*
X130612497Y-155074766D01*
X130605884Y-155058798D01*
X130603394Y-155053458D01*
X130603394Y-155053457D01*
X130580053Y-155020123D01*
X130577098Y-155015485D01*
X130556751Y-154980241D01*
X130556749Y-154980239D01*
X130525570Y-154954077D01*
X130521527Y-154950372D01*
X125211641Y-149640487D01*
X125207927Y-149636435D01*
X125181760Y-149605250D01*
X125146512Y-149584899D01*
X125141876Y-149581946D01*
X125108541Y-149558604D01*
X125103263Y-149556143D01*
X125087226Y-149549500D01*
X125081736Y-149547502D01*
X125041658Y-149540435D01*
X125036291Y-149539245D01*
X125011117Y-149532500D01*
X124996984Y-149528713D01*
X124996983Y-149528713D01*
X124989003Y-149529411D01*
X124956441Y-149532260D01*
X124950956Y-149532500D01*
X116440356Y-149532500D01*
X116372235Y-149512498D01*
X116331237Y-149469501D01*
X116265113Y-149354971D01*
X116144922Y-149221485D01*
X116113360Y-149198554D01*
X115999604Y-149115905D01*
X115835510Y-149042846D01*
X115659812Y-149005500D01*
X115480188Y-149005500D01*
X115304489Y-149042846D01*
X115140392Y-149115907D01*
X114995078Y-149221484D01*
X114874888Y-149354969D01*
X114874885Y-149354973D01*
X114785075Y-149510527D01*
X114785072Y-149510533D01*
X114729568Y-149681360D01*
X114710793Y-149860000D01*
X112087500Y-149860000D01*
X112087500Y-147320000D01*
X114710793Y-147320000D01*
X114729568Y-147498639D01*
X114785072Y-147669466D01*
X114785075Y-147669472D01*
X114874885Y-147825026D01*
X114874887Y-147825029D01*
X114995078Y-147958515D01*
X115140396Y-148064095D01*
X115304490Y-148137154D01*
X115480188Y-148174500D01*
X115659812Y-148174500D01*
X115835510Y-148137154D01*
X115999604Y-148064095D01*
X116144922Y-147958515D01*
X116265113Y-147825029D01*
X116331237Y-147710498D01*
X116382620Y-147661506D01*
X116440356Y-147647500D01*
X124526156Y-147647500D01*
X124594277Y-147667502D01*
X124615251Y-147684405D01*
X126067087Y-149136242D01*
X126101113Y-149198554D01*
X126098567Y-149261911D01*
X126051425Y-149417322D01*
X126032843Y-149605997D01*
X126032843Y-149606002D01*
X126051425Y-149794676D01*
X126051426Y-149794682D01*
X126051427Y-149794683D01*
X126106463Y-149976115D01*
X126195838Y-150143324D01*
X126316117Y-150289883D01*
X126462676Y-150410162D01*
X126629885Y-150499537D01*
X126811317Y-150554573D01*
X126811321Y-150554573D01*
X126811323Y-150554574D01*
X126999997Y-150573157D01*
X127000000Y-150573157D01*
X127000003Y-150573157D01*
X127188676Y-150554574D01*
X127188677Y-150554573D01*
X127188683Y-150554573D01*
X127370115Y-150499537D01*
X127537324Y-150410162D01*
X127683883Y-150289883D01*
X127804162Y-150143324D01*
X127893537Y-149976115D01*
X127948573Y-149794683D01*
X127959735Y-149681361D01*
X127967157Y-149606002D01*
X127967157Y-149605997D01*
X127948574Y-149417323D01*
X127948573Y-149417321D01*
X127948573Y-149417317D01*
X127893537Y-149235885D01*
X127804162Y-149068676D01*
X127683883Y-148922117D01*
X127537324Y-148801838D01*
X127370115Y-148712463D01*
X127188683Y-148657427D01*
X127188682Y-148657426D01*
X127188676Y-148657425D01*
X127000003Y-148638843D01*
X126999997Y-148638843D01*
X126811322Y-148657425D01*
X126655911Y-148704567D01*
X126584918Y-148705200D01*
X126530242Y-148673087D01*
X126474307Y-148617152D01*
X124957631Y-147100477D01*
X124953927Y-147096435D01*
X124940201Y-147080077D01*
X124927760Y-147065250D01*
X124892512Y-147044899D01*
X124887876Y-147041946D01*
X124854541Y-147018604D01*
X124849263Y-147016143D01*
X124833226Y-147009500D01*
X124827736Y-147007502D01*
X124787658Y-147000435D01*
X124782291Y-146999245D01*
X124757117Y-146992500D01*
X124742984Y-146988713D01*
X124742983Y-146988713D01*
X124735003Y-146989411D01*
X124702441Y-146992260D01*
X124696956Y-146992500D01*
X116440356Y-146992500D01*
X116372235Y-146972498D01*
X116331237Y-146929501D01*
X116265113Y-146814971D01*
X116144922Y-146681485D01*
X115999604Y-146575905D01*
X115835510Y-146502846D01*
X115659812Y-146465500D01*
X115480188Y-146465500D01*
X115304489Y-146502846D01*
X115140392Y-146575907D01*
X114995078Y-146681484D01*
X114874888Y-146814969D01*
X114874885Y-146814973D01*
X114785075Y-146970527D01*
X114785072Y-146970533D01*
X114729568Y-147141360D01*
X114710793Y-147320000D01*
X112087500Y-147320000D01*
X112087500Y-144780000D01*
X114710793Y-144780000D01*
X114729568Y-144958639D01*
X114785072Y-145129466D01*
X114785075Y-145129472D01*
X114874885Y-145285026D01*
X114874887Y-145285029D01*
X114995078Y-145418515D01*
X115140396Y-145524095D01*
X115304490Y-145597154D01*
X115480188Y-145634500D01*
X115659812Y-145634500D01*
X115835510Y-145597154D01*
X115999604Y-145524095D01*
X116144922Y-145418515D01*
X116265113Y-145285029D01*
X116331237Y-145170498D01*
X116382620Y-145121506D01*
X116440356Y-145107500D01*
X128336156Y-145107500D01*
X128404277Y-145127502D01*
X128425251Y-145144405D01*
X130699595Y-147418749D01*
X130733621Y-147481061D01*
X130736500Y-147507844D01*
X130736500Y-153652955D01*
X130736260Y-153658449D01*
X130732713Y-153698982D01*
X130732713Y-153698983D01*
X130743245Y-153738291D01*
X130744435Y-153743658D01*
X130751502Y-153783736D01*
X130753500Y-153789226D01*
X130760143Y-153805263D01*
X130762604Y-153810541D01*
X130785946Y-153843876D01*
X130788899Y-153848512D01*
X130809250Y-153883760D01*
X130840435Y-153909927D01*
X130844477Y-153913631D01*
X131853499Y-154922654D01*
X132163087Y-155232242D01*
X132197113Y-155294554D01*
X132194567Y-155357911D01*
X132147425Y-155513322D01*
X132128843Y-155701997D01*
X132128843Y-155702002D01*
X132147425Y-155890676D01*
X132147426Y-155890682D01*
X132147427Y-155890683D01*
X132202463Y-156072115D01*
X132291838Y-156239324D01*
X132412117Y-156385883D01*
X132558676Y-156506162D01*
X132725885Y-156595537D01*
X132907317Y-156650573D01*
X132907321Y-156650573D01*
X132907323Y-156650574D01*
X133095997Y-156669157D01*
X133096000Y-156669157D01*
X133096003Y-156669157D01*
X133284676Y-156650574D01*
X133284677Y-156650573D01*
X133284683Y-156650573D01*
X133466115Y-156595537D01*
X133633324Y-156506162D01*
X133779883Y-156385883D01*
X133900162Y-156239324D01*
X133989537Y-156072115D01*
X134044573Y-155890683D01*
X134063157Y-155702000D01*
X134044573Y-155513322D01*
X134044573Y-155513321D01*
X134044573Y-155513317D01*
X133989537Y-155331885D01*
X133900162Y-155164676D01*
X133779883Y-155018117D01*
X133633324Y-154897838D01*
X133466115Y-154808463D01*
X133284683Y-154753427D01*
X133284682Y-154753426D01*
X133284676Y-154753425D01*
X133096003Y-154734843D01*
X133095997Y-154734843D01*
X132907322Y-154753425D01*
X132751911Y-154800567D01*
X132680918Y-154801200D01*
X132626242Y-154769087D01*
X131428405Y-153571250D01*
X131394379Y-153508938D01*
X131391500Y-153482155D01*
X131391500Y-147337046D01*
X131391740Y-147331554D01*
X131393149Y-147315438D01*
X131395286Y-147291015D01*
X131384749Y-147251694D01*
X131383567Y-147246361D01*
X131376497Y-147206261D01*
X131376496Y-147206259D01*
X131376496Y-147206258D01*
X131374497Y-147200766D01*
X131367884Y-147184798D01*
X131365394Y-147179458D01*
X131365394Y-147179457D01*
X131342053Y-147146123D01*
X131339098Y-147141485D01*
X131339026Y-147141361D01*
X131318750Y-147106240D01*
X131287569Y-147080076D01*
X131283527Y-147076372D01*
X128767631Y-144560477D01*
X128763927Y-144556435D01*
X128737760Y-144525250D01*
X128702512Y-144504899D01*
X128697876Y-144501946D01*
X128664541Y-144478604D01*
X128659263Y-144476143D01*
X128643226Y-144469500D01*
X128637736Y-144467502D01*
X128597658Y-144460435D01*
X128592291Y-144459245D01*
X128567117Y-144452500D01*
X128552984Y-144448713D01*
X128552983Y-144448713D01*
X128545003Y-144449411D01*
X128512441Y-144452260D01*
X128506956Y-144452500D01*
X116440356Y-144452500D01*
X116372235Y-144432498D01*
X116331237Y-144389501D01*
X116265113Y-144274971D01*
X116144922Y-144141485D01*
X115999604Y-144035905D01*
X115835510Y-143962846D01*
X115659812Y-143925500D01*
X115480188Y-143925500D01*
X115304489Y-143962846D01*
X115140392Y-144035907D01*
X114995078Y-144141484D01*
X114874888Y-144274969D01*
X114874885Y-144274973D01*
X114785075Y-144430527D01*
X114785072Y-144430533D01*
X114729568Y-144601360D01*
X114710793Y-144780000D01*
X112087500Y-144780000D01*
X112087500Y-142239999D01*
X114710793Y-142239999D01*
X114729568Y-142418639D01*
X114785072Y-142589466D01*
X114785075Y-142589472D01*
X114874885Y-142745026D01*
X114874887Y-142745029D01*
X114995078Y-142878515D01*
X115140396Y-142984095D01*
X115304490Y-143057154D01*
X115480188Y-143094500D01*
X115659812Y-143094500D01*
X115835510Y-143057154D01*
X115999604Y-142984095D01*
X116144922Y-142878515D01*
X116265113Y-142745029D01*
X116331237Y-142630498D01*
X116382620Y-142581506D01*
X116440356Y-142567500D01*
X127955156Y-142567500D01*
X128023277Y-142587502D01*
X128044251Y-142604405D01*
X132163087Y-146723242D01*
X132197113Y-146785554D01*
X132194567Y-146848911D01*
X132147425Y-147004322D01*
X132128843Y-147192997D01*
X132128843Y-147193002D01*
X132147425Y-147381676D01*
X132147426Y-147381682D01*
X132147427Y-147381683D01*
X132202463Y-147563115D01*
X132291838Y-147730324D01*
X132412117Y-147876883D01*
X132558676Y-147997162D01*
X132725885Y-148086537D01*
X132907317Y-148141573D01*
X132907321Y-148141573D01*
X132907323Y-148141574D01*
X133095997Y-148160157D01*
X133096000Y-148160157D01*
X133096003Y-148160157D01*
X133284676Y-148141574D01*
X133284677Y-148141573D01*
X133284683Y-148141573D01*
X133466115Y-148086537D01*
X133633324Y-147997162D01*
X133779883Y-147876883D01*
X133900162Y-147730324D01*
X133989537Y-147563115D01*
X134044573Y-147381683D01*
X134048970Y-147337046D01*
X134063157Y-147193002D01*
X134063157Y-147192997D01*
X134044574Y-147004323D01*
X134044573Y-147004321D01*
X134044573Y-147004317D01*
X133989537Y-146822885D01*
X133900162Y-146655676D01*
X133779883Y-146509117D01*
X133633324Y-146388838D01*
X133466115Y-146299463D01*
X133284683Y-146244427D01*
X133284682Y-146244426D01*
X133284676Y-146244425D01*
X133096003Y-146225843D01*
X133095997Y-146225843D01*
X132907322Y-146244425D01*
X132751911Y-146291567D01*
X132680918Y-146292200D01*
X132626242Y-146260087D01*
X128386642Y-142020488D01*
X128382927Y-142016435D01*
X128356760Y-141985250D01*
X128321512Y-141964899D01*
X128316876Y-141961946D01*
X128283541Y-141938604D01*
X128278263Y-141936143D01*
X128262226Y-141929500D01*
X128256736Y-141927502D01*
X128216658Y-141920435D01*
X128211291Y-141919245D01*
X128186117Y-141912500D01*
X128171984Y-141908713D01*
X128171983Y-141908713D01*
X128164003Y-141909411D01*
X128131441Y-141912260D01*
X128125956Y-141912500D01*
X116440356Y-141912500D01*
X116372235Y-141892498D01*
X116331237Y-141849501D01*
X116265113Y-141734971D01*
X116144922Y-141601485D01*
X115999604Y-141495905D01*
X115835510Y-141422846D01*
X115659812Y-141385500D01*
X115480188Y-141385500D01*
X115304489Y-141422846D01*
X115140392Y-141495907D01*
X114995078Y-141601484D01*
X114874888Y-141734969D01*
X114874885Y-141734973D01*
X114785075Y-141890527D01*
X114785072Y-141890533D01*
X114729568Y-142061360D01*
X114710793Y-142239999D01*
X112087500Y-142239999D01*
X112087500Y-139700000D01*
X114710793Y-139700000D01*
X114729568Y-139878639D01*
X114785072Y-140049466D01*
X114785075Y-140049472D01*
X114874885Y-140205026D01*
X114874887Y-140205029D01*
X114995078Y-140338515D01*
X115140396Y-140444095D01*
X115304490Y-140517154D01*
X115480188Y-140554500D01*
X115659812Y-140554500D01*
X115835510Y-140517154D01*
X115999604Y-140444095D01*
X116144922Y-140338515D01*
X116265113Y-140205029D01*
X116331237Y-140090498D01*
X116382620Y-140041506D01*
X116440356Y-140027500D01*
X125712956Y-140027500D01*
X125718441Y-140027739D01*
X125758984Y-140031287D01*
X125798303Y-140020750D01*
X125803649Y-140019565D01*
X125843739Y-140012497D01*
X125843742Y-140012495D01*
X125849265Y-140010485D01*
X125865218Y-140003877D01*
X125870540Y-140001395D01*
X125870540Y-140001394D01*
X125870543Y-140001394D01*
X125903886Y-139978045D01*
X125908492Y-139975111D01*
X125943760Y-139954750D01*
X125969933Y-139923555D01*
X125973615Y-139919537D01*
X132118244Y-133774909D01*
X132180554Y-133740885D01*
X132243907Y-133743430D01*
X132399317Y-133790573D01*
X132399323Y-133790573D01*
X132399325Y-133790574D01*
X132587997Y-133809157D01*
X132588000Y-133809157D01*
X132588003Y-133809157D01*
X132776676Y-133790574D01*
X132776677Y-133790573D01*
X132776683Y-133790573D01*
X132958115Y-133735537D01*
X133125324Y-133646162D01*
X133271883Y-133525883D01*
X133392162Y-133379324D01*
X133481537Y-133212115D01*
X133536573Y-133030683D01*
X133546047Y-132934500D01*
X133555157Y-132842002D01*
X133555157Y-132841997D01*
X133536574Y-132653323D01*
X133536573Y-132653321D01*
X133536573Y-132653317D01*
X133481537Y-132471885D01*
X133392162Y-132304676D01*
X133271883Y-132158117D01*
X133125324Y-132037838D01*
X132958115Y-131948463D01*
X132776683Y-131893427D01*
X132776682Y-131893426D01*
X132776676Y-131893425D01*
X132588003Y-131874843D01*
X132587997Y-131874843D01*
X132399322Y-131893425D01*
X132284236Y-131928335D01*
X132213242Y-131928968D01*
X132153177Y-131891118D01*
X132123109Y-131826802D01*
X132132587Y-131756441D01*
X132158564Y-131718667D01*
X132578392Y-131298840D01*
X132640702Y-131264816D01*
X132655133Y-131262544D01*
X132695086Y-131258609D01*
X132776676Y-131250574D01*
X132776677Y-131250573D01*
X132776683Y-131250573D01*
X132958115Y-131195537D01*
X133125324Y-131106162D01*
X133271883Y-130985883D01*
X133392162Y-130839324D01*
X133481537Y-130672115D01*
X133536573Y-130490683D01*
X133546047Y-130394500D01*
X133555157Y-130302002D01*
X133555157Y-130301997D01*
X133536574Y-130113323D01*
X133536573Y-130113321D01*
X133536573Y-130113317D01*
X133481537Y-129931885D01*
X133392162Y-129764676D01*
X133271883Y-129618117D01*
X133125324Y-129497838D01*
X132958115Y-129408463D01*
X132776683Y-129353427D01*
X132776682Y-129353426D01*
X132776676Y-129353425D01*
X132588003Y-129334843D01*
X132587997Y-129334843D01*
X132399323Y-129353425D01*
X132217884Y-129408463D01*
X132050675Y-129497838D01*
X131904117Y-129618117D01*
X131783838Y-129764675D01*
X131694463Y-129931884D01*
X131639425Y-130113323D01*
X131620843Y-130301997D01*
X131620843Y-130302002D01*
X131639425Y-130490676D01*
X131694463Y-130672115D01*
X131783838Y-130839324D01*
X131859130Y-130931067D01*
X131886884Y-130996414D01*
X131874902Y-131066393D01*
X131850826Y-131100096D01*
X127657374Y-135293548D01*
X127595062Y-135327574D01*
X127524247Y-135322509D01*
X127467411Y-135279962D01*
X127442886Y-135216801D01*
X127440573Y-135193317D01*
X127385537Y-135011885D01*
X127296162Y-134844676D01*
X127175883Y-134698117D01*
X127029324Y-134577838D01*
X126862115Y-134488463D01*
X126680683Y-134433427D01*
X126680682Y-134433426D01*
X126680676Y-134433425D01*
X126492003Y-134414843D01*
X126491997Y-134414843D01*
X126303323Y-134433425D01*
X126121884Y-134488463D01*
X125954675Y-134577838D01*
X125808117Y-134698117D01*
X125687838Y-134844675D01*
X125598463Y-135011884D01*
X125543425Y-135193323D01*
X125524843Y-135381997D01*
X125524843Y-135382002D01*
X125543425Y-135570676D01*
X125543426Y-135570682D01*
X125543427Y-135570683D01*
X125598463Y-135752115D01*
X125687838Y-135919324D01*
X125808117Y-136065883D01*
X125954676Y-136186162D01*
X126121885Y-136275537D01*
X126303317Y-136330573D01*
X126326801Y-136332886D01*
X126392632Y-136359466D01*
X126433644Y-136417419D01*
X126436813Y-136488345D01*
X126403549Y-136547374D01*
X126155330Y-136795595D01*
X126093018Y-136829620D01*
X126066234Y-136832500D01*
X116440356Y-136832500D01*
X116372235Y-136812498D01*
X116331237Y-136769501D01*
X116265113Y-136654971D01*
X116144922Y-136521485D01*
X115999604Y-136415905D01*
X115835510Y-136342846D01*
X115659812Y-136305500D01*
X115480188Y-136305500D01*
X115304489Y-136342846D01*
X115140392Y-136415907D01*
X114995078Y-136521484D01*
X114874888Y-136654969D01*
X114874885Y-136654973D01*
X114785075Y-136810527D01*
X114785072Y-136810533D01*
X114729568Y-136981360D01*
X114710793Y-137160000D01*
X114729568Y-137338639D01*
X114785072Y-137509466D01*
X114785075Y-137509472D01*
X114874885Y-137665026D01*
X114874887Y-137665029D01*
X114995078Y-137798515D01*
X115140396Y-137904095D01*
X115304490Y-137977154D01*
X115480188Y-138014500D01*
X115659812Y-138014500D01*
X115835510Y-137977154D01*
X115999604Y-137904095D01*
X116144922Y-137798515D01*
X116265113Y-137665029D01*
X116331237Y-137550498D01*
X116382620Y-137501506D01*
X116440356Y-137487500D01*
X126237035Y-137487500D01*
X126242520Y-137487739D01*
X126283063Y-137491287D01*
X126322382Y-137480750D01*
X126327728Y-137479565D01*
X126367818Y-137472497D01*
X126367821Y-137472495D01*
X126373344Y-137470485D01*
X126389297Y-137463877D01*
X126394619Y-137461395D01*
X126394619Y-137461394D01*
X126394622Y-137461394D01*
X126427965Y-137438045D01*
X126432571Y-137435111D01*
X126467839Y-137414750D01*
X126494012Y-137383555D01*
X126497694Y-137379537D01*
X131464668Y-132412563D01*
X131526977Y-132378540D01*
X131597792Y-132383605D01*
X131654628Y-132426152D01*
X131679439Y-132492672D01*
X131674335Y-132538235D01*
X131639425Y-132653321D01*
X131620843Y-132841997D01*
X131620843Y-132842002D01*
X131639425Y-133030676D01*
X131686567Y-133186086D01*
X131687200Y-133257080D01*
X131655087Y-133311756D01*
X125631251Y-139335595D01*
X125568939Y-139369620D01*
X125542156Y-139372500D01*
X116440356Y-139372500D01*
X116372235Y-139352498D01*
X116331237Y-139309501D01*
X116265113Y-139194971D01*
X116144922Y-139061485D01*
X115999604Y-138955905D01*
X115835510Y-138882846D01*
X115659812Y-138845500D01*
X115480188Y-138845500D01*
X115304489Y-138882846D01*
X115140392Y-138955907D01*
X114995078Y-139061484D01*
X114874888Y-139194969D01*
X114874885Y-139194973D01*
X114785075Y-139350527D01*
X114785072Y-139350533D01*
X114729568Y-139521360D01*
X114710793Y-139700000D01*
X112087500Y-139700000D01*
X112087500Y-134620000D01*
X114710793Y-134620000D01*
X114729568Y-134798639D01*
X114785072Y-134969466D01*
X114785075Y-134969472D01*
X114874885Y-135125026D01*
X114874887Y-135125029D01*
X114995078Y-135258515D01*
X115140396Y-135364095D01*
X115304490Y-135437154D01*
X115480188Y-135474500D01*
X115659812Y-135474500D01*
X115835510Y-135437154D01*
X115999604Y-135364095D01*
X116144922Y-135258515D01*
X116265113Y-135125029D01*
X116331237Y-135010498D01*
X116382620Y-134961506D01*
X116440356Y-134947500D01*
X124696956Y-134947500D01*
X124702441Y-134947739D01*
X124742984Y-134951287D01*
X124782303Y-134940750D01*
X124787649Y-134939565D01*
X124827739Y-134932497D01*
X124827742Y-134932495D01*
X124833265Y-134930485D01*
X124849218Y-134923877D01*
X124854540Y-134921395D01*
X124854540Y-134921394D01*
X124854543Y-134921394D01*
X124887886Y-134898045D01*
X124892492Y-134895111D01*
X124927760Y-134874750D01*
X124953933Y-134843555D01*
X124957615Y-134839537D01*
X126022245Y-133774908D01*
X126084553Y-133740885D01*
X126147908Y-133743430D01*
X126303317Y-133790573D01*
X126303321Y-133790573D01*
X126303323Y-133790574D01*
X126491997Y-133809157D01*
X126492000Y-133809157D01*
X126492003Y-133809157D01*
X126680676Y-133790574D01*
X126680677Y-133790573D01*
X126680683Y-133790573D01*
X126862115Y-133735537D01*
X127029324Y-133646162D01*
X127175883Y-133525883D01*
X127296162Y-133379324D01*
X127385537Y-133212115D01*
X127440573Y-133030683D01*
X127450047Y-132934500D01*
X127459157Y-132842002D01*
X127459157Y-132841997D01*
X127440574Y-132653323D01*
X127440573Y-132653321D01*
X127440573Y-132653317D01*
X127385537Y-132471885D01*
X127296162Y-132304676D01*
X127175883Y-132158117D01*
X127029324Y-132037838D01*
X126862115Y-131948463D01*
X126680683Y-131893427D01*
X126680682Y-131893426D01*
X126680676Y-131893425D01*
X126492003Y-131874843D01*
X126491997Y-131874843D01*
X126303323Y-131893425D01*
X126121884Y-131948463D01*
X125954675Y-132037838D01*
X125808117Y-132158117D01*
X125687838Y-132304675D01*
X125598463Y-132471884D01*
X125543425Y-132653323D01*
X125524843Y-132841997D01*
X125524843Y-132842002D01*
X125543425Y-133030676D01*
X125590567Y-133186085D01*
X125591200Y-133257079D01*
X125559088Y-133311755D01*
X124615251Y-134255595D01*
X124552938Y-134289620D01*
X124526155Y-134292500D01*
X116440356Y-134292500D01*
X116372235Y-134272498D01*
X116331237Y-134229501D01*
X116265113Y-134114971D01*
X116144922Y-133981485D01*
X115999604Y-133875905D01*
X115835510Y-133802846D01*
X115659812Y-133765500D01*
X115480188Y-133765500D01*
X115304489Y-133802846D01*
X115140392Y-133875907D01*
X114995078Y-133981484D01*
X114874888Y-134114969D01*
X114874885Y-134114973D01*
X114785075Y-134270527D01*
X114785072Y-134270533D01*
X114729568Y-134441360D01*
X114710793Y-134620000D01*
X112087500Y-134620000D01*
X112087500Y-132079999D01*
X114710793Y-132079999D01*
X114729568Y-132258639D01*
X114785072Y-132429466D01*
X114785075Y-132429472D01*
X114821564Y-132492672D01*
X114874887Y-132585029D01*
X114995078Y-132718515D01*
X115140396Y-132824095D01*
X115304490Y-132897154D01*
X115480188Y-132934500D01*
X115659812Y-132934500D01*
X115835510Y-132897154D01*
X115999604Y-132824095D01*
X116144922Y-132718515D01*
X116265113Y-132585029D01*
X116331237Y-132470498D01*
X116382620Y-132421506D01*
X116440356Y-132407500D01*
X124696956Y-132407500D01*
X124702441Y-132407739D01*
X124742984Y-132411287D01*
X124782303Y-132400750D01*
X124787649Y-132399565D01*
X124827739Y-132392497D01*
X124827742Y-132392495D01*
X124833265Y-132390485D01*
X124849218Y-132383877D01*
X124854540Y-132381395D01*
X124854540Y-132381394D01*
X124854543Y-132381394D01*
X124887886Y-132358045D01*
X124892492Y-132355111D01*
X124927760Y-132334750D01*
X124953933Y-132303555D01*
X124957615Y-132299537D01*
X126022245Y-131234908D01*
X126084553Y-131200885D01*
X126147908Y-131203430D01*
X126303317Y-131250573D01*
X126303321Y-131250573D01*
X126303323Y-131250574D01*
X126491997Y-131269157D01*
X126492000Y-131269157D01*
X126492003Y-131269157D01*
X126680676Y-131250574D01*
X126680677Y-131250573D01*
X126680683Y-131250573D01*
X126862115Y-131195537D01*
X127029324Y-131106162D01*
X127175883Y-130985883D01*
X127296162Y-130839324D01*
X127385537Y-130672115D01*
X127440573Y-130490683D01*
X127450047Y-130394500D01*
X127459157Y-130302002D01*
X127459157Y-130301997D01*
X127440574Y-130113323D01*
X127440573Y-130113321D01*
X127440573Y-130113317D01*
X127385537Y-129931885D01*
X127296162Y-129764676D01*
X127175883Y-129618117D01*
X127029324Y-129497838D01*
X126862115Y-129408463D01*
X126680683Y-129353427D01*
X126680682Y-129353426D01*
X126680676Y-129353425D01*
X126492003Y-129334843D01*
X126491997Y-129334843D01*
X126303323Y-129353425D01*
X126121884Y-129408463D01*
X125954675Y-129497838D01*
X125808117Y-129618117D01*
X125687838Y-129764675D01*
X125598463Y-129931884D01*
X125543425Y-130113323D01*
X125524843Y-130301997D01*
X125524843Y-130302002D01*
X125543425Y-130490676D01*
X125590567Y-130646085D01*
X125591200Y-130717079D01*
X125559088Y-130771755D01*
X124615251Y-131715595D01*
X124552938Y-131749620D01*
X124526155Y-131752500D01*
X116440356Y-131752500D01*
X116372235Y-131732498D01*
X116331237Y-131689501D01*
X116265113Y-131574971D01*
X116144922Y-131441485D01*
X116098023Y-131407411D01*
X115999604Y-131335905D01*
X115835510Y-131262846D01*
X115659812Y-131225500D01*
X115480188Y-131225500D01*
X115304489Y-131262846D01*
X115140392Y-131335907D01*
X114995078Y-131441484D01*
X114874888Y-131574969D01*
X114874885Y-131574973D01*
X114785075Y-131730527D01*
X114785072Y-131730533D01*
X114729568Y-131901360D01*
X114710793Y-132079999D01*
X112087500Y-132079999D01*
X112087500Y-127000000D01*
X114710793Y-127000000D01*
X114729568Y-127178639D01*
X114785072Y-127349466D01*
X114785075Y-127349472D01*
X114856113Y-127472512D01*
X114874887Y-127505029D01*
X114995078Y-127638515D01*
X115140396Y-127744095D01*
X115304490Y-127817154D01*
X115480188Y-127854500D01*
X115659812Y-127854500D01*
X115835510Y-127817154D01*
X115959384Y-127762002D01*
X131620843Y-127762002D01*
X131639425Y-127950676D01*
X131639426Y-127950682D01*
X131639427Y-127950683D01*
X131694463Y-128132115D01*
X131783838Y-128299324D01*
X131904117Y-128445883D01*
X132050676Y-128566162D01*
X132217885Y-128655537D01*
X132399317Y-128710573D01*
X132399321Y-128710573D01*
X132399323Y-128710574D01*
X132587997Y-128729157D01*
X132588000Y-128729157D01*
X132588003Y-128729157D01*
X132776676Y-128710574D01*
X132776677Y-128710573D01*
X132776683Y-128710573D01*
X132958115Y-128655537D01*
X133125324Y-128566162D01*
X133271883Y-128445883D01*
X133392162Y-128299324D01*
X133481537Y-128132115D01*
X133536573Y-127950683D01*
X133541315Y-127902543D01*
X133555157Y-127762002D01*
X133555157Y-127761997D01*
X133536574Y-127573323D01*
X133536573Y-127573321D01*
X133536573Y-127573317D01*
X133481537Y-127391885D01*
X133392162Y-127224676D01*
X133271883Y-127078117D01*
X133125324Y-126957838D01*
X132958115Y-126868463D01*
X132776683Y-126813427D01*
X132776682Y-126813426D01*
X132776676Y-126813425D01*
X132588003Y-126794843D01*
X132587997Y-126794843D01*
X132399323Y-126813425D01*
X132217884Y-126868463D01*
X132050675Y-126957838D01*
X131904117Y-127078117D01*
X131783838Y-127224675D01*
X131694463Y-127391884D01*
X131639425Y-127573323D01*
X131620843Y-127761997D01*
X131620843Y-127762002D01*
X115959384Y-127762002D01*
X115999604Y-127744095D01*
X116144922Y-127638515D01*
X116265113Y-127505029D01*
X116331237Y-127390498D01*
X116382620Y-127341506D01*
X116440356Y-127327500D01*
X124696956Y-127327500D01*
X124702441Y-127327739D01*
X124742984Y-127331287D01*
X124782303Y-127320750D01*
X124787649Y-127319565D01*
X124827739Y-127312497D01*
X124827742Y-127312495D01*
X124833265Y-127310485D01*
X124849218Y-127303877D01*
X124854540Y-127301395D01*
X124854540Y-127301394D01*
X124854543Y-127301394D01*
X124887886Y-127278045D01*
X124892492Y-127275111D01*
X124927760Y-127254750D01*
X124953933Y-127223555D01*
X124957615Y-127219537D01*
X132118244Y-120058909D01*
X132180554Y-120024885D01*
X132243907Y-120027430D01*
X132399317Y-120074573D01*
X132399323Y-120074573D01*
X132399325Y-120074574D01*
X132587997Y-120093157D01*
X132588000Y-120093157D01*
X132588003Y-120093157D01*
X132776676Y-120074574D01*
X132776677Y-120074573D01*
X132776683Y-120074573D01*
X132958115Y-120019537D01*
X133125324Y-119930162D01*
X133271883Y-119809883D01*
X133392162Y-119663324D01*
X133481537Y-119496115D01*
X133536573Y-119314683D01*
X133544751Y-119231659D01*
X133555157Y-119126002D01*
X133555157Y-119125997D01*
X133536574Y-118937323D01*
X133536573Y-118937321D01*
X133536573Y-118937317D01*
X133481537Y-118755885D01*
X133392162Y-118588676D01*
X133271883Y-118442117D01*
X133125324Y-118321838D01*
X132958115Y-118232463D01*
X132776683Y-118177427D01*
X132776682Y-118177426D01*
X132776676Y-118177425D01*
X132588003Y-118158843D01*
X132587997Y-118158843D01*
X132399322Y-118177425D01*
X132284236Y-118212335D01*
X132213242Y-118212968D01*
X132153177Y-118175118D01*
X132123109Y-118110802D01*
X132132587Y-118040441D01*
X132158564Y-118002667D01*
X132578392Y-117582840D01*
X132640702Y-117548816D01*
X132655133Y-117546544D01*
X132695086Y-117542609D01*
X132776676Y-117534574D01*
X132776677Y-117534573D01*
X132776683Y-117534573D01*
X132958115Y-117479537D01*
X133125324Y-117390162D01*
X133271883Y-117269883D01*
X133392162Y-117123324D01*
X133481537Y-116956115D01*
X133536573Y-116774683D01*
X133547735Y-116661361D01*
X133555157Y-116586002D01*
X133555157Y-116585997D01*
X133536574Y-116397323D01*
X133536573Y-116397321D01*
X133536573Y-116397317D01*
X133481537Y-116215885D01*
X133392162Y-116048676D01*
X133271883Y-115902117D01*
X133125324Y-115781838D01*
X132958115Y-115692463D01*
X132776683Y-115637427D01*
X132776682Y-115637426D01*
X132776676Y-115637425D01*
X132588003Y-115618843D01*
X132587997Y-115618843D01*
X132399323Y-115637425D01*
X132217884Y-115692463D01*
X132050675Y-115781838D01*
X131904117Y-115902117D01*
X131783838Y-116048675D01*
X131694463Y-116215884D01*
X131639425Y-116397323D01*
X131620843Y-116585997D01*
X131620843Y-116586002D01*
X131639425Y-116774676D01*
X131694463Y-116956115D01*
X131783838Y-117123324D01*
X131859130Y-117215067D01*
X131886884Y-117280414D01*
X131874902Y-117350393D01*
X131850826Y-117384096D01*
X127657374Y-121577548D01*
X127595062Y-121611574D01*
X127524247Y-121606509D01*
X127467411Y-121563962D01*
X127442886Y-121500801D01*
X127440573Y-121477317D01*
X127385537Y-121295885D01*
X127296162Y-121128676D01*
X127175883Y-120982117D01*
X127029324Y-120861838D01*
X126862115Y-120772463D01*
X126680683Y-120717427D01*
X126680682Y-120717426D01*
X126680676Y-120717425D01*
X126492003Y-120698843D01*
X126491997Y-120698843D01*
X126303323Y-120717425D01*
X126121884Y-120772463D01*
X125954675Y-120861838D01*
X125808117Y-120982117D01*
X125687838Y-121128675D01*
X125598463Y-121295884D01*
X125543425Y-121477323D01*
X125524843Y-121665997D01*
X125524843Y-121666002D01*
X125543425Y-121854676D01*
X125543426Y-121854682D01*
X125543427Y-121854683D01*
X125598463Y-122036115D01*
X125687838Y-122203324D01*
X125808117Y-122349883D01*
X125954676Y-122470162D01*
X126121885Y-122559537D01*
X126303317Y-122614573D01*
X126326803Y-122616886D01*
X126392633Y-122643466D01*
X126433645Y-122701419D01*
X126436814Y-122772345D01*
X126403549Y-122831374D01*
X125139328Y-124095596D01*
X125077018Y-124129620D01*
X125050235Y-124132500D01*
X116440356Y-124132500D01*
X116372235Y-124112498D01*
X116331237Y-124069501D01*
X116265113Y-123954971D01*
X116144922Y-123821485D01*
X115999604Y-123715905D01*
X115835510Y-123642846D01*
X115659812Y-123605500D01*
X115480188Y-123605500D01*
X115304489Y-123642846D01*
X115140392Y-123715907D01*
X114995078Y-123821484D01*
X114874888Y-123954969D01*
X114874885Y-123954973D01*
X114785075Y-124110527D01*
X114785072Y-124110533D01*
X114729568Y-124281360D01*
X114710793Y-124460000D01*
X114729568Y-124638639D01*
X114785072Y-124809466D01*
X114785075Y-124809472D01*
X114874885Y-124965026D01*
X114874887Y-124965029D01*
X114995078Y-125098515D01*
X115140396Y-125204095D01*
X115304490Y-125277154D01*
X115480188Y-125314500D01*
X115659812Y-125314500D01*
X115835510Y-125277154D01*
X115999604Y-125204095D01*
X116144922Y-125098515D01*
X116265113Y-124965029D01*
X116331237Y-124850498D01*
X116382620Y-124801506D01*
X116440356Y-124787500D01*
X125221035Y-124787500D01*
X125226520Y-124787739D01*
X125267063Y-124791287D01*
X125306382Y-124780750D01*
X125311728Y-124779565D01*
X125351818Y-124772497D01*
X125351821Y-124772495D01*
X125357344Y-124770485D01*
X125373297Y-124763877D01*
X125378619Y-124761395D01*
X125378619Y-124761394D01*
X125378622Y-124761394D01*
X125411965Y-124738045D01*
X125416571Y-124735111D01*
X125451839Y-124714750D01*
X125478012Y-124683555D01*
X125481694Y-124679537D01*
X131464669Y-118696563D01*
X131526977Y-118662540D01*
X131597792Y-118667605D01*
X131654628Y-118710152D01*
X131679439Y-118776672D01*
X131674335Y-118822235D01*
X131639425Y-118937321D01*
X131620843Y-119125997D01*
X131620843Y-119126002D01*
X131639425Y-119314676D01*
X131686567Y-119470086D01*
X131687200Y-119541080D01*
X131655087Y-119595756D01*
X124615251Y-126635595D01*
X124552939Y-126669620D01*
X124526156Y-126672500D01*
X116440356Y-126672500D01*
X116372235Y-126652498D01*
X116331237Y-126609501D01*
X116265113Y-126494971D01*
X116144922Y-126361485D01*
X115999604Y-126255905D01*
X115835510Y-126182846D01*
X115659812Y-126145500D01*
X115480188Y-126145500D01*
X115304489Y-126182846D01*
X115140392Y-126255907D01*
X114995078Y-126361484D01*
X114874888Y-126494969D01*
X114874885Y-126494973D01*
X114785075Y-126650527D01*
X114785072Y-126650533D01*
X114729568Y-126821360D01*
X114710793Y-127000000D01*
X112087500Y-127000000D01*
X112087500Y-121919999D01*
X114710793Y-121919999D01*
X114729568Y-122098639D01*
X114785072Y-122269466D01*
X114785075Y-122269472D01*
X114831501Y-122349883D01*
X114874887Y-122425029D01*
X114995078Y-122558515D01*
X115140396Y-122664095D01*
X115304490Y-122737154D01*
X115480188Y-122774500D01*
X115659812Y-122774500D01*
X115835510Y-122737154D01*
X115999604Y-122664095D01*
X116144922Y-122558515D01*
X116265113Y-122425029D01*
X116331237Y-122310498D01*
X116382620Y-122261506D01*
X116440356Y-122247500D01*
X123680956Y-122247500D01*
X123686441Y-122247739D01*
X123726984Y-122251287D01*
X123766303Y-122240750D01*
X123771649Y-122239565D01*
X123811739Y-122232497D01*
X123811742Y-122232495D01*
X123817265Y-122230485D01*
X123833218Y-122223877D01*
X123838540Y-122221395D01*
X123838540Y-122221394D01*
X123838543Y-122221394D01*
X123871886Y-122198045D01*
X123876492Y-122195111D01*
X123911760Y-122174750D01*
X123937933Y-122143555D01*
X123941615Y-122139537D01*
X126022245Y-120058908D01*
X126084553Y-120024885D01*
X126147908Y-120027430D01*
X126303317Y-120074573D01*
X126303321Y-120074573D01*
X126303323Y-120074574D01*
X126491997Y-120093157D01*
X126492000Y-120093157D01*
X126492003Y-120093157D01*
X126680676Y-120074574D01*
X126680677Y-120074573D01*
X126680683Y-120074573D01*
X126862115Y-120019537D01*
X127029324Y-119930162D01*
X127175883Y-119809883D01*
X127296162Y-119663324D01*
X127385537Y-119496115D01*
X127440573Y-119314683D01*
X127448751Y-119231659D01*
X127459157Y-119126002D01*
X127459157Y-119125997D01*
X127440574Y-118937323D01*
X127440573Y-118937321D01*
X127440573Y-118937317D01*
X127385537Y-118755885D01*
X127296162Y-118588676D01*
X127175883Y-118442117D01*
X127029324Y-118321838D01*
X126862115Y-118232463D01*
X126680683Y-118177427D01*
X126680682Y-118177426D01*
X126680676Y-118177425D01*
X126492003Y-118158843D01*
X126491997Y-118158843D01*
X126303323Y-118177425D01*
X126121884Y-118232463D01*
X125954675Y-118321838D01*
X125808117Y-118442117D01*
X125687838Y-118588675D01*
X125598463Y-118755884D01*
X125543425Y-118937323D01*
X125524843Y-119125997D01*
X125524843Y-119126002D01*
X125543425Y-119314676D01*
X125590567Y-119470086D01*
X125591200Y-119541080D01*
X125559087Y-119595756D01*
X123599249Y-121555596D01*
X123536939Y-121589620D01*
X123510156Y-121592500D01*
X116440356Y-121592500D01*
X116372235Y-121572498D01*
X116331237Y-121529501D01*
X116314666Y-121500799D01*
X116265113Y-121414971D01*
X116144922Y-121281485D01*
X115999604Y-121175905D01*
X115835510Y-121102846D01*
X115659812Y-121065500D01*
X115480188Y-121065500D01*
X115304489Y-121102846D01*
X115140392Y-121175907D01*
X114995078Y-121281484D01*
X114874888Y-121414969D01*
X114874885Y-121414973D01*
X114785075Y-121570527D01*
X114785072Y-121570533D01*
X114729568Y-121741360D01*
X114710793Y-121919999D01*
X112087500Y-121919999D01*
X112087500Y-119380000D01*
X114710793Y-119380000D01*
X114729568Y-119558639D01*
X114785072Y-119729466D01*
X114785075Y-119729472D01*
X114831501Y-119809883D01*
X114874887Y-119885029D01*
X114995078Y-120018515D01*
X115140396Y-120124095D01*
X115304490Y-120197154D01*
X115480188Y-120234500D01*
X115659812Y-120234500D01*
X115835510Y-120197154D01*
X115999604Y-120124095D01*
X116144922Y-120018515D01*
X116265113Y-119885029D01*
X116331237Y-119770498D01*
X116382620Y-119721506D01*
X116440356Y-119707500D01*
X123680956Y-119707500D01*
X123686441Y-119707739D01*
X123726984Y-119711287D01*
X123766303Y-119700750D01*
X123771649Y-119699565D01*
X123811739Y-119692497D01*
X123811742Y-119692495D01*
X123817265Y-119690485D01*
X123833218Y-119683877D01*
X123838540Y-119681395D01*
X123838540Y-119681394D01*
X123838543Y-119681394D01*
X123871886Y-119658045D01*
X123876492Y-119655111D01*
X123911760Y-119634750D01*
X123937933Y-119603555D01*
X123941615Y-119599537D01*
X126022245Y-117518908D01*
X126084553Y-117484885D01*
X126147908Y-117487430D01*
X126303317Y-117534573D01*
X126303321Y-117534573D01*
X126303323Y-117534574D01*
X126491997Y-117553157D01*
X126492000Y-117553157D01*
X126492003Y-117553157D01*
X126680676Y-117534574D01*
X126680677Y-117534573D01*
X126680683Y-117534573D01*
X126862115Y-117479537D01*
X127029324Y-117390162D01*
X127175883Y-117269883D01*
X127296162Y-117123324D01*
X127385537Y-116956115D01*
X127440573Y-116774683D01*
X127451735Y-116661361D01*
X127459157Y-116586002D01*
X127459157Y-116585997D01*
X127440574Y-116397323D01*
X127440573Y-116397321D01*
X127440573Y-116397317D01*
X127385537Y-116215885D01*
X127296162Y-116048676D01*
X127175883Y-115902117D01*
X127029324Y-115781838D01*
X126862115Y-115692463D01*
X126680683Y-115637427D01*
X126680682Y-115637426D01*
X126680676Y-115637425D01*
X126492003Y-115618843D01*
X126491997Y-115618843D01*
X126303323Y-115637425D01*
X126121884Y-115692463D01*
X125954675Y-115781838D01*
X125808117Y-115902117D01*
X125687838Y-116048675D01*
X125598463Y-116215884D01*
X125543425Y-116397323D01*
X125524843Y-116585997D01*
X125524843Y-116586002D01*
X125543425Y-116774676D01*
X125590567Y-116930086D01*
X125591200Y-117001080D01*
X125559087Y-117055756D01*
X123599249Y-119015596D01*
X123536939Y-119049620D01*
X123510156Y-119052500D01*
X116440356Y-119052500D01*
X116372235Y-119032498D01*
X116331237Y-118989501D01*
X116265113Y-118874971D01*
X116144922Y-118741485D01*
X116083096Y-118696566D01*
X115999604Y-118635905D01*
X115835510Y-118562846D01*
X115659812Y-118525500D01*
X115480188Y-118525500D01*
X115304489Y-118562846D01*
X115140392Y-118635907D01*
X114995078Y-118741484D01*
X114874888Y-118874969D01*
X114874885Y-118874973D01*
X114785075Y-119030527D01*
X114785072Y-119030533D01*
X114729568Y-119201360D01*
X114710793Y-119380000D01*
X112087500Y-119380000D01*
X112087500Y-114944344D01*
X112107502Y-114876223D01*
X112124399Y-114855254D01*
X112679653Y-114300000D01*
X114710793Y-114300000D01*
X114729568Y-114478639D01*
X114785072Y-114649466D01*
X114785075Y-114649472D01*
X114831501Y-114729883D01*
X114874887Y-114805029D01*
X114995078Y-114938515D01*
X115140396Y-115044095D01*
X115304490Y-115117154D01*
X115480188Y-115154500D01*
X115659812Y-115154500D01*
X115835510Y-115117154D01*
X115999604Y-115044095D01*
X116144922Y-114938515D01*
X116265113Y-114805029D01*
X116331237Y-114690498D01*
X116382620Y-114641506D01*
X116440356Y-114627500D01*
X119870956Y-114627500D01*
X119876441Y-114627739D01*
X119916984Y-114631287D01*
X119956303Y-114620750D01*
X119961649Y-114619565D01*
X120001739Y-114612497D01*
X120001742Y-114612495D01*
X120007265Y-114610485D01*
X120023218Y-114603877D01*
X120028540Y-114601395D01*
X120028540Y-114601394D01*
X120028543Y-114601394D01*
X120061886Y-114578045D01*
X120066492Y-114575111D01*
X120101760Y-114554750D01*
X120127933Y-114523555D01*
X120131615Y-114519537D01*
X132118244Y-102532909D01*
X132180554Y-102498885D01*
X132243907Y-102501430D01*
X132399317Y-102548573D01*
X132399323Y-102548573D01*
X132399325Y-102548574D01*
X132587997Y-102567157D01*
X132588000Y-102567157D01*
X132588003Y-102567157D01*
X132776676Y-102548574D01*
X132776677Y-102548573D01*
X132776683Y-102548573D01*
X132958115Y-102493537D01*
X133125324Y-102404162D01*
X133271883Y-102283883D01*
X133392162Y-102137324D01*
X133481537Y-101970115D01*
X133536573Y-101788683D01*
X133537563Y-101778639D01*
X133555157Y-101600002D01*
X133555157Y-101599997D01*
X133536574Y-101411323D01*
X133536573Y-101411321D01*
X133536573Y-101411317D01*
X133481537Y-101229885D01*
X133392162Y-101062676D01*
X133271883Y-100916117D01*
X133125324Y-100795838D01*
X132958115Y-100706463D01*
X132776683Y-100651427D01*
X132776682Y-100651426D01*
X132776676Y-100651425D01*
X132588003Y-100632843D01*
X132587997Y-100632843D01*
X132399323Y-100651425D01*
X132217884Y-100706463D01*
X132050675Y-100795838D01*
X131904117Y-100916117D01*
X131783838Y-101062675D01*
X131694463Y-101229884D01*
X131639425Y-101411323D01*
X131620843Y-101599997D01*
X131620843Y-101600002D01*
X131639425Y-101788676D01*
X131686567Y-101944086D01*
X131687200Y-102015080D01*
X131655087Y-102069756D01*
X119789251Y-113935595D01*
X119726939Y-113969621D01*
X119700156Y-113972500D01*
X116440356Y-113972500D01*
X116372235Y-113952498D01*
X116331237Y-113909501D01*
X116265113Y-113794971D01*
X116144922Y-113661485D01*
X116126408Y-113648034D01*
X115999604Y-113555905D01*
X115835510Y-113482846D01*
X115659812Y-113445500D01*
X115480188Y-113445500D01*
X115304489Y-113482846D01*
X115140392Y-113555907D01*
X114995078Y-113661484D01*
X114874888Y-113794969D01*
X114874885Y-113794973D01*
X114785075Y-113950527D01*
X114785072Y-113950533D01*
X114729568Y-114121360D01*
X114710793Y-114300000D01*
X112679653Y-114300000D01*
X112741531Y-114238122D01*
X112745561Y-114234428D01*
X112776750Y-114208260D01*
X112797098Y-114173013D01*
X112800042Y-114168392D01*
X112823395Y-114135043D01*
X112823396Y-114135038D01*
X112825875Y-114129723D01*
X112832483Y-114113770D01*
X112834496Y-114108241D01*
X112834496Y-114108240D01*
X112834497Y-114108239D01*
X112841565Y-114068145D01*
X112842746Y-114062819D01*
X112853287Y-114023484D01*
X112849739Y-113982942D01*
X112849500Y-113977454D01*
X112849500Y-113805500D01*
X112869502Y-113737379D01*
X112923158Y-113690886D01*
X112975500Y-113679500D01*
X113292703Y-113679500D01*
X113314306Y-113674569D01*
X113430562Y-113648035D01*
X113557963Y-113586682D01*
X113668517Y-113498517D01*
X113756682Y-113387963D01*
X113818035Y-113260562D01*
X113849500Y-113122702D01*
X113849500Y-113052000D01*
X113849500Y-113000129D01*
X113849500Y-113000128D01*
X113849500Y-112981298D01*
X113818035Y-112843438D01*
X113756682Y-112716037D01*
X113702998Y-112648720D01*
X113668519Y-112605485D01*
X113668517Y-112605484D01*
X113668517Y-112605483D01*
X113599582Y-112550508D01*
X113558796Y-112492400D01*
X113555901Y-112421462D01*
X113591816Y-112360220D01*
X113599570Y-112353500D01*
X113668517Y-112298517D01*
X113756682Y-112187963D01*
X113818035Y-112060562D01*
X113849500Y-111922702D01*
X113849500Y-111852000D01*
X113849500Y-111800129D01*
X113849500Y-111800128D01*
X113849500Y-111781298D01*
X113847978Y-111774631D01*
X113844638Y-111759999D01*
X114710793Y-111759999D01*
X114729568Y-111938639D01*
X114785072Y-112109466D01*
X114785075Y-112109472D01*
X114830394Y-112187966D01*
X114874887Y-112265029D01*
X114995078Y-112398515D01*
X115140396Y-112504095D01*
X115304490Y-112577154D01*
X115480188Y-112614500D01*
X115659812Y-112614500D01*
X115835510Y-112577154D01*
X115999604Y-112504095D01*
X116144922Y-112398515D01*
X116265113Y-112265029D01*
X116339021Y-112137016D01*
X116390404Y-112088024D01*
X116426264Y-112075931D01*
X116435837Y-112074242D01*
X116445739Y-112072497D01*
X116445742Y-112072495D01*
X116451265Y-112070485D01*
X116467218Y-112063877D01*
X116472540Y-112061395D01*
X116472540Y-112061394D01*
X116472543Y-112061394D01*
X116505886Y-112038045D01*
X116510492Y-112035111D01*
X116545760Y-112014750D01*
X116571933Y-111983555D01*
X116575615Y-111979537D01*
X124415151Y-104140002D01*
X125524843Y-104140002D01*
X125543425Y-104328676D01*
X125543426Y-104328682D01*
X125543427Y-104328683D01*
X125598463Y-104510115D01*
X125687838Y-104677324D01*
X125808117Y-104823883D01*
X125954676Y-104944162D01*
X126121885Y-105033537D01*
X126303317Y-105088573D01*
X126303321Y-105088573D01*
X126303323Y-105088574D01*
X126491997Y-105107157D01*
X126492000Y-105107157D01*
X126492003Y-105107157D01*
X126680676Y-105088574D01*
X126680677Y-105088573D01*
X126680683Y-105088573D01*
X126862115Y-105033537D01*
X127029324Y-104944162D01*
X127175883Y-104823883D01*
X127296162Y-104677324D01*
X127385537Y-104510115D01*
X127440573Y-104328683D01*
X127441563Y-104318639D01*
X127459157Y-104140002D01*
X127459157Y-104139997D01*
X127440574Y-103951323D01*
X127440573Y-103951321D01*
X127440573Y-103951317D01*
X127385537Y-103769885D01*
X127296162Y-103602676D01*
X127175883Y-103456117D01*
X127029324Y-103335838D01*
X126862115Y-103246463D01*
X126680683Y-103191427D01*
X126680682Y-103191426D01*
X126680676Y-103191425D01*
X126492003Y-103172843D01*
X126491997Y-103172843D01*
X126303323Y-103191425D01*
X126121884Y-103246463D01*
X125954675Y-103335838D01*
X125808117Y-103456117D01*
X125687838Y-103602675D01*
X125598463Y-103769884D01*
X125543425Y-103951323D01*
X125524843Y-104139997D01*
X125524843Y-104140002D01*
X124415151Y-104140002D01*
X126022244Y-102532909D01*
X126084554Y-102498885D01*
X126147907Y-102501430D01*
X126303317Y-102548573D01*
X126303323Y-102548573D01*
X126303325Y-102548574D01*
X126491997Y-102567157D01*
X126492000Y-102567157D01*
X126492003Y-102567157D01*
X126680676Y-102548574D01*
X126680677Y-102548573D01*
X126680683Y-102548573D01*
X126862115Y-102493537D01*
X127029324Y-102404162D01*
X127175883Y-102283883D01*
X127296162Y-102137324D01*
X127385537Y-101970115D01*
X127440573Y-101788683D01*
X127441563Y-101778639D01*
X127459157Y-101600002D01*
X127459157Y-101599997D01*
X127440574Y-101411323D01*
X127440573Y-101411321D01*
X127440573Y-101411317D01*
X127385537Y-101229885D01*
X127296162Y-101062676D01*
X127175883Y-100916117D01*
X127029324Y-100795838D01*
X126862115Y-100706463D01*
X126680683Y-100651427D01*
X126680682Y-100651426D01*
X126680676Y-100651425D01*
X126492003Y-100632843D01*
X126491997Y-100632843D01*
X126303323Y-100651425D01*
X126121884Y-100706463D01*
X125954675Y-100795838D01*
X125808117Y-100916117D01*
X125687838Y-101062675D01*
X125598463Y-101229884D01*
X125543425Y-101411323D01*
X125524843Y-101599997D01*
X125524843Y-101600002D01*
X125543425Y-101788676D01*
X125590567Y-101944086D01*
X125591200Y-102015080D01*
X125559087Y-102069756D01*
X116410530Y-111218314D01*
X116348218Y-111252340D01*
X116277403Y-111247275D01*
X116227799Y-111213529D01*
X116144922Y-111121485D01*
X116040793Y-111045831D01*
X115999604Y-111015905D01*
X115835510Y-110942846D01*
X115659812Y-110905500D01*
X115480188Y-110905500D01*
X115304489Y-110942846D01*
X115140392Y-111015907D01*
X114995078Y-111121484D01*
X114874888Y-111254969D01*
X114874885Y-111254973D01*
X114785075Y-111410527D01*
X114785072Y-111410533D01*
X114729568Y-111581360D01*
X114710793Y-111759999D01*
X113844638Y-111759999D01*
X113831155Y-111700923D01*
X113818035Y-111643438D01*
X113756682Y-111516037D01*
X113712273Y-111460350D01*
X113668517Y-111405482D01*
X113557966Y-111317320D01*
X113557958Y-111317315D01*
X113430566Y-111255967D01*
X113430562Y-111255965D01*
X113361632Y-111240232D01*
X113292703Y-111224500D01*
X113292702Y-111224500D01*
X113250652Y-111224500D01*
X112975500Y-111224500D01*
X112907379Y-111204498D01*
X112860886Y-111150842D01*
X112849500Y-111098500D01*
X112849500Y-109870106D01*
X112869502Y-109801985D01*
X112923158Y-109755492D01*
X112989602Y-109744898D01*
X113120000Y-109759591D01*
X113300151Y-109739293D01*
X113471268Y-109679416D01*
X113624772Y-109582964D01*
X113752964Y-109454772D01*
X113849416Y-109301268D01*
X113877853Y-109220000D01*
X114710793Y-109220000D01*
X114729568Y-109398639D01*
X114785072Y-109569466D01*
X114785075Y-109569472D01*
X114874885Y-109725026D01*
X114874887Y-109725029D01*
X114995078Y-109858515D01*
X115140396Y-109964095D01*
X115304490Y-110037154D01*
X115480188Y-110074500D01*
X115659812Y-110074500D01*
X115835510Y-110037154D01*
X115999604Y-109964095D01*
X116144922Y-109858515D01*
X116265113Y-109725029D01*
X116354925Y-109569471D01*
X116410431Y-109398639D01*
X116429207Y-109220000D01*
X116410431Y-109041361D01*
X116410431Y-109041360D01*
X116354927Y-108870533D01*
X116354924Y-108870527D01*
X116265114Y-108714973D01*
X116265113Y-108714971D01*
X116144922Y-108581485D01*
X116111890Y-108557486D01*
X115999604Y-108475905D01*
X115835510Y-108402846D01*
X115659812Y-108365500D01*
X115480188Y-108365500D01*
X115304489Y-108402846D01*
X115140392Y-108475907D01*
X114995078Y-108581484D01*
X114874888Y-108714969D01*
X114874885Y-108714973D01*
X114785075Y-108870527D01*
X114785072Y-108870533D01*
X114729568Y-109041360D01*
X114710793Y-109220000D01*
X113877853Y-109220000D01*
X113909293Y-109130151D01*
X113929591Y-108950000D01*
X113909293Y-108769849D01*
X113849416Y-108598732D01*
X113752964Y-108445228D01*
X113752963Y-108445227D01*
X113752962Y-108445225D01*
X113624774Y-108317037D01*
X113491432Y-108233254D01*
X113471268Y-108220584D01*
X113471267Y-108220583D01*
X113471266Y-108220583D01*
X113385709Y-108190645D01*
X113300151Y-108160707D01*
X113120000Y-108140409D01*
X112939849Y-108160707D01*
X112939846Y-108160707D01*
X112939846Y-108160708D01*
X112768733Y-108220583D01*
X112615225Y-108317037D01*
X112593595Y-108338668D01*
X112531283Y-108372694D01*
X112460468Y-108367629D01*
X112403632Y-108325082D01*
X112378821Y-108258562D01*
X112378500Y-108249573D01*
X112378500Y-108206844D01*
X112398502Y-108138723D01*
X112415400Y-108117753D01*
X112775721Y-107757431D01*
X112838032Y-107723408D01*
X112906430Y-107727598D01*
X112939849Y-107739293D01*
X113120000Y-107759591D01*
X113300151Y-107739293D01*
X113471268Y-107679416D01*
X113624772Y-107582964D01*
X113752964Y-107454772D01*
X113849416Y-107301268D01*
X113909293Y-107130151D01*
X113929591Y-106950000D01*
X113909293Y-106769849D01*
X113877853Y-106680000D01*
X114710793Y-106680000D01*
X114729568Y-106858639D01*
X114785072Y-107029466D01*
X114785075Y-107029472D01*
X114856028Y-107152365D01*
X114874887Y-107185029D01*
X114995078Y-107318515D01*
X115140396Y-107424095D01*
X115304490Y-107497154D01*
X115480188Y-107534500D01*
X115659812Y-107534500D01*
X115835510Y-107497154D01*
X115999604Y-107424095D01*
X116144922Y-107318515D01*
X116265113Y-107185029D01*
X116354925Y-107029471D01*
X116380737Y-106950031D01*
X116410431Y-106858639D01*
X116419763Y-106769849D01*
X116429207Y-106680000D01*
X116410431Y-106501361D01*
X116392192Y-106445225D01*
X116354927Y-106330533D01*
X116354924Y-106330527D01*
X116265114Y-106174973D01*
X116265113Y-106174971D01*
X116144922Y-106041485D01*
X115999604Y-105935905D01*
X115835510Y-105862846D01*
X115659812Y-105825500D01*
X115480188Y-105825500D01*
X115304489Y-105862846D01*
X115140392Y-105935907D01*
X114995078Y-106041484D01*
X114874888Y-106174969D01*
X114874885Y-106174973D01*
X114785075Y-106330527D01*
X114785072Y-106330533D01*
X114729568Y-106501360D01*
X114710793Y-106680000D01*
X113877853Y-106680000D01*
X113849416Y-106598732D01*
X113752964Y-106445228D01*
X113752963Y-106445227D01*
X113752962Y-106445225D01*
X113624774Y-106317037D01*
X113520132Y-106251287D01*
X113471268Y-106220584D01*
X113471267Y-106220583D01*
X113471266Y-106220583D01*
X113340920Y-106174973D01*
X113300151Y-106160707D01*
X113120000Y-106140409D01*
X112939849Y-106160707D01*
X112939846Y-106160707D01*
X112939846Y-106160708D01*
X112768733Y-106220583D01*
X112615225Y-106317037D01*
X112487037Y-106445225D01*
X112390583Y-106598733D01*
X112330708Y-106769845D01*
X112330707Y-106769849D01*
X112317324Y-106888630D01*
X112310409Y-106950000D01*
X112330707Y-107130150D01*
X112330709Y-107130156D01*
X112342400Y-107163567D01*
X112346020Y-107234472D01*
X112312566Y-107294278D01*
X111831487Y-107775358D01*
X111827435Y-107779071D01*
X111796251Y-107805238D01*
X111796247Y-107805243D01*
X111775896Y-107840491D01*
X111772943Y-107845126D01*
X111749608Y-107878452D01*
X111747142Y-107883741D01*
X111740487Y-107899807D01*
X111738503Y-107905258D01*
X111731434Y-107945344D01*
X111730244Y-107950708D01*
X111719713Y-107990011D01*
X111719713Y-107990015D01*
X111723259Y-108030558D01*
X111723499Y-108036050D01*
X111723499Y-113635603D01*
X111703497Y-113703724D01*
X111686594Y-113724698D01*
X111032487Y-114378806D01*
X111028435Y-114382519D01*
X110997251Y-114408686D01*
X110997247Y-114408691D01*
X110976896Y-114443939D01*
X110973943Y-114448574D01*
X110950608Y-114481900D01*
X110948142Y-114487189D01*
X110941487Y-114503255D01*
X110939503Y-114508706D01*
X110932434Y-114548793D01*
X110931244Y-114554157D01*
X110920713Y-114593459D01*
X110920713Y-114593464D01*
X110924022Y-114631286D01*
X110924260Y-114633997D01*
X110924500Y-114639491D01*
X110924500Y-154452154D01*
X110904498Y-154520275D01*
X110887595Y-154541249D01*
X106981897Y-158446947D01*
X106919585Y-158480973D01*
X106855013Y-158477017D01*
X106854958Y-158477262D01*
X106853476Y-158476923D01*
X106851194Y-158476784D01*
X106848059Y-158475687D01*
X106680000Y-158456751D01*
X106511941Y-158475687D01*
X106511938Y-158475687D01*
X106511938Y-158475688D01*
X106352309Y-158531544D01*
X106352306Y-158531545D01*
X106230536Y-158608059D01*
X106162215Y-158627365D01*
X106094302Y-158606670D01*
X106048358Y-158552542D01*
X106037500Y-158501372D01*
X106037500Y-114271844D01*
X106057502Y-114203723D01*
X106074405Y-114182749D01*
X107139836Y-113117318D01*
X110370543Y-109886610D01*
X110374561Y-109882928D01*
X110405750Y-109856760D01*
X110426100Y-109821509D01*
X110429054Y-109816874D01*
X110439480Y-109801985D01*
X110452394Y-109783543D01*
X110452394Y-109783540D01*
X110454877Y-109778218D01*
X110461485Y-109762265D01*
X110463496Y-109756741D01*
X110463496Y-109756740D01*
X110463497Y-109756739D01*
X110470567Y-109716634D01*
X110471747Y-109711312D01*
X110482286Y-109671985D01*
X110480034Y-109646240D01*
X110478740Y-109631446D01*
X110478500Y-109625954D01*
X110478500Y-107882044D01*
X110478740Y-107876550D01*
X110482287Y-107836016D01*
X110471747Y-107796686D01*
X110470566Y-107791359D01*
X110463497Y-107751261D01*
X110461583Y-107740402D01*
X110463820Y-107740007D01*
X110460249Y-107683867D01*
X110494764Y-107621825D01*
X110557343Y-107588292D01*
X110628116Y-107593915D01*
X110650191Y-107604932D01*
X110768732Y-107679416D01*
X110939849Y-107739293D01*
X111120000Y-107759591D01*
X111300151Y-107739293D01*
X111471268Y-107679416D01*
X111624772Y-107582964D01*
X111752964Y-107454772D01*
X111849416Y-107301268D01*
X111909293Y-107130151D01*
X111929591Y-106950000D01*
X111909293Y-106769849D01*
X111849416Y-106598732D01*
X111752964Y-106445228D01*
X111752963Y-106445227D01*
X111752962Y-106445225D01*
X111624774Y-106317037D01*
X111520132Y-106251287D01*
X111471268Y-106220584D01*
X111471267Y-106220583D01*
X111471266Y-106220583D01*
X111340920Y-106174973D01*
X111300151Y-106160707D01*
X111120000Y-106140409D01*
X111119999Y-106140409D01*
X110987574Y-106155329D01*
X110917642Y-106143079D01*
X110884372Y-106119217D01*
X110209636Y-105444481D01*
X110205921Y-105440428D01*
X110179760Y-105409250D01*
X110144512Y-105388899D01*
X110139876Y-105385946D01*
X110106541Y-105362604D01*
X110101263Y-105360143D01*
X110085226Y-105353500D01*
X110079736Y-105351502D01*
X110039658Y-105344435D01*
X110034291Y-105343245D01*
X110009117Y-105336500D01*
X109994984Y-105332713D01*
X109994983Y-105332713D01*
X109987003Y-105333411D01*
X109954441Y-105336260D01*
X109948956Y-105336500D01*
X108861044Y-105336500D01*
X108855558Y-105336260D01*
X108828352Y-105333879D01*
X108815018Y-105332713D01*
X108815011Y-105332713D01*
X108775709Y-105343244D01*
X108770345Y-105344434D01*
X108730258Y-105351503D01*
X108724807Y-105353487D01*
X108708741Y-105360142D01*
X108703452Y-105362608D01*
X108670126Y-105385943D01*
X108665491Y-105388896D01*
X108630243Y-105409247D01*
X108630239Y-105409250D01*
X108604070Y-105440435D01*
X108600357Y-105444486D01*
X104428487Y-109616358D01*
X104424435Y-109620071D01*
X104393251Y-109646238D01*
X104393247Y-109646243D01*
X104372896Y-109681491D01*
X104369943Y-109686126D01*
X104346608Y-109719452D01*
X104344142Y-109724741D01*
X104337487Y-109740807D01*
X104335503Y-109746258D01*
X104328434Y-109786345D01*
X104327244Y-109791709D01*
X104316713Y-109831011D01*
X104316713Y-109831015D01*
X104320259Y-109871551D01*
X104320499Y-109877044D01*
X104320500Y-156784155D01*
X104300498Y-156852276D01*
X104283595Y-156873250D01*
X97893487Y-163263358D01*
X97889435Y-163267071D01*
X97858251Y-163293238D01*
X97858247Y-163293243D01*
X97837896Y-163328491D01*
X97834943Y-163333126D01*
X97811608Y-163366452D01*
X97809142Y-163371741D01*
X97802487Y-163387807D01*
X97800503Y-163393258D01*
X97793434Y-163433345D01*
X97792244Y-163438709D01*
X97781713Y-163478011D01*
X97781713Y-163478017D01*
X97785260Y-163518549D01*
X97785500Y-163524043D01*
X97785500Y-169146955D01*
X97785260Y-169152442D01*
X97781713Y-169192984D01*
X70182500Y-169192984D01*
X70182500Y-153921210D01*
X70202502Y-153853089D01*
X70256158Y-153806596D01*
X70274426Y-153799905D01*
X70312444Y-153789226D01*
X71853842Y-153356249D01*
X75258090Y-152400000D01*
X99470793Y-152400000D01*
X99489568Y-152578639D01*
X99545072Y-152749466D01*
X99545075Y-152749472D01*
X99634885Y-152905026D01*
X99634887Y-152905029D01*
X99755078Y-153038515D01*
X99900396Y-153144095D01*
X100064490Y-153217154D01*
X100240188Y-153254500D01*
X100419812Y-153254500D01*
X100595510Y-153217154D01*
X100759604Y-153144095D01*
X100904922Y-153038515D01*
X101025113Y-152905029D01*
X101114925Y-152749471D01*
X101170431Y-152578639D01*
X101189207Y-152400000D01*
X101170431Y-152221361D01*
X101157151Y-152180488D01*
X101114927Y-152050533D01*
X101114924Y-152050527D01*
X101025114Y-151894973D01*
X101025113Y-151894971D01*
X100904922Y-151761485D01*
X100759604Y-151655905D01*
X100595510Y-151582846D01*
X100419812Y-151545500D01*
X100240188Y-151545500D01*
X100064489Y-151582846D01*
X99900392Y-151655907D01*
X99755078Y-151761484D01*
X99634888Y-151894969D01*
X99634885Y-151894973D01*
X99545075Y-152050527D01*
X99545072Y-152050533D01*
X99489568Y-152221360D01*
X99470793Y-152400000D01*
X75258090Y-152400000D01*
X81247468Y-150717591D01*
X81255022Y-150715151D01*
X81268962Y-150710044D01*
X81277019Y-150707094D01*
X81340916Y-150669437D01*
X81367744Y-150646190D01*
X81394569Y-150622947D01*
X81394568Y-150622948D01*
X81395883Y-150621658D01*
X81412527Y-150605351D01*
X81457174Y-150525533D01*
X81457174Y-150525532D01*
X81457176Y-150525529D01*
X81477172Y-150457424D01*
X81477176Y-150457412D01*
X81485500Y-150399516D01*
X81485500Y-149860000D01*
X99470793Y-149860000D01*
X99489568Y-150038639D01*
X99545072Y-150209466D01*
X99545075Y-150209472D01*
X99591501Y-150289883D01*
X99634887Y-150365029D01*
X99755078Y-150498515D01*
X99900396Y-150604095D01*
X100064490Y-150677154D01*
X100240188Y-150714500D01*
X100419812Y-150714500D01*
X100595510Y-150677154D01*
X100759604Y-150604095D01*
X100904922Y-150498515D01*
X101025113Y-150365029D01*
X101114925Y-150209471D01*
X101170431Y-150038639D01*
X101189207Y-149860000D01*
X101170431Y-149681361D01*
X101157151Y-149640488D01*
X101114927Y-149510533D01*
X101114924Y-149510527D01*
X101025114Y-149354973D01*
X101025113Y-149354971D01*
X100904922Y-149221485D01*
X100873360Y-149198554D01*
X100759604Y-149115905D01*
X100595510Y-149042846D01*
X100419812Y-149005500D01*
X100240188Y-149005500D01*
X100064489Y-149042846D01*
X99900392Y-149115907D01*
X99755078Y-149221484D01*
X99634888Y-149354969D01*
X99634885Y-149354973D01*
X99545075Y-149510527D01*
X99545072Y-149510533D01*
X99489568Y-149681360D01*
X99470793Y-149860000D01*
X81485500Y-149860000D01*
X81485500Y-147320000D01*
X99470793Y-147320000D01*
X99489568Y-147498639D01*
X99545072Y-147669466D01*
X99545075Y-147669472D01*
X99634885Y-147825026D01*
X99634887Y-147825029D01*
X99755078Y-147958515D01*
X99900396Y-148064095D01*
X100064490Y-148137154D01*
X100240188Y-148174500D01*
X100419812Y-148174500D01*
X100595510Y-148137154D01*
X100759604Y-148064095D01*
X100904922Y-147958515D01*
X101025113Y-147825029D01*
X101114925Y-147669471D01*
X101170431Y-147498639D01*
X101189207Y-147320000D01*
X101170431Y-147141361D01*
X101159020Y-147106240D01*
X101114927Y-146970533D01*
X101114924Y-146970527D01*
X101029682Y-146822885D01*
X101025113Y-146814971D01*
X100904922Y-146681485D01*
X100759604Y-146575905D01*
X100595510Y-146502846D01*
X100419812Y-146465500D01*
X100240188Y-146465500D01*
X100064489Y-146502846D01*
X99900392Y-146575907D01*
X99755078Y-146681484D01*
X99634888Y-146814969D01*
X99634885Y-146814973D01*
X99545075Y-146970527D01*
X99545072Y-146970533D01*
X99489568Y-147141360D01*
X99470793Y-147320000D01*
X81485500Y-147320000D01*
X81485500Y-146522512D01*
X81485193Y-146514577D01*
X81483385Y-146491221D01*
X81464411Y-146419526D01*
X81434161Y-146355297D01*
X81422079Y-146333253D01*
X81357309Y-146268685D01*
X81357308Y-146268684D01*
X81357306Y-146268683D01*
X81297136Y-146231006D01*
X81243646Y-146207334D01*
X76162337Y-144780000D01*
X99470793Y-144780000D01*
X99489568Y-144958639D01*
X99545072Y-145129466D01*
X99545075Y-145129472D01*
X99634885Y-145285026D01*
X99634887Y-145285029D01*
X99755078Y-145418515D01*
X99900396Y-145524095D01*
X100064490Y-145597154D01*
X100240188Y-145634500D01*
X100419812Y-145634500D01*
X100595510Y-145597154D01*
X100759604Y-145524095D01*
X100904922Y-145418515D01*
X101025113Y-145285029D01*
X101114925Y-145129471D01*
X101170431Y-144958639D01*
X101189207Y-144780000D01*
X101170431Y-144601361D01*
X101157151Y-144560489D01*
X101114927Y-144430533D01*
X101114924Y-144430527D01*
X101025114Y-144274973D01*
X101025113Y-144274971D01*
X100904922Y-144141485D01*
X100759604Y-144035905D01*
X100595510Y-143962846D01*
X100419812Y-143925500D01*
X100240188Y-143925500D01*
X100064489Y-143962846D01*
X99900392Y-144035907D01*
X99755078Y-144141484D01*
X99634888Y-144274969D01*
X99634885Y-144274973D01*
X99545075Y-144430527D01*
X99545072Y-144430533D01*
X99489568Y-144601360D01*
X99470793Y-144780000D01*
X76162337Y-144780000D01*
X70274425Y-143126092D01*
X70214251Y-143088413D01*
X70184001Y-143024184D01*
X70182499Y-143004787D01*
X70182499Y-142240000D01*
X99470793Y-142240000D01*
X99489568Y-142418639D01*
X99545072Y-142589466D01*
X99545075Y-142589472D01*
X99634885Y-142745026D01*
X99634887Y-142745029D01*
X99755078Y-142878515D01*
X99900396Y-142984095D01*
X100064490Y-143057154D01*
X100240188Y-143094500D01*
X100419812Y-143094500D01*
X100595510Y-143057154D01*
X100759604Y-142984095D01*
X100904922Y-142878515D01*
X101025113Y-142745029D01*
X101114925Y-142589471D01*
X101170431Y-142418639D01*
X101189207Y-142240000D01*
X101170431Y-142061361D01*
X101157151Y-142020488D01*
X101114927Y-141890533D01*
X101114924Y-141890527D01*
X101025114Y-141734973D01*
X101025113Y-141734971D01*
X100904922Y-141601485D01*
X100759604Y-141495905D01*
X100595510Y-141422846D01*
X100419812Y-141385500D01*
X100240188Y-141385500D01*
X100064489Y-141422846D01*
X99900392Y-141495907D01*
X99755078Y-141601484D01*
X99634888Y-141734969D01*
X99634885Y-141734973D01*
X99545075Y-141890527D01*
X99545072Y-141890533D01*
X99489568Y-142061360D01*
X99470793Y-142240000D01*
X70182499Y-142240000D01*
X70182499Y-139700000D01*
X99470793Y-139700000D01*
X99489568Y-139878639D01*
X99545072Y-140049466D01*
X99545075Y-140049472D01*
X99634885Y-140205026D01*
X99634887Y-140205029D01*
X99755078Y-140338515D01*
X99900396Y-140444095D01*
X100064490Y-140517154D01*
X100240188Y-140554500D01*
X100419812Y-140554500D01*
X100595510Y-140517154D01*
X100759604Y-140444095D01*
X100904922Y-140338515D01*
X101025113Y-140205029D01*
X101114925Y-140049471D01*
X101120834Y-140031287D01*
X101170431Y-139878639D01*
X101170431Y-139878638D01*
X101189207Y-139700000D01*
X101170431Y-139521361D01*
X101166981Y-139510742D01*
X101114927Y-139350533D01*
X101114924Y-139350527D01*
X101025114Y-139194973D01*
X101025113Y-139194971D01*
X100904922Y-139061485D01*
X100759604Y-138955905D01*
X100595510Y-138882846D01*
X100419812Y-138845500D01*
X100240188Y-138845500D01*
X100064489Y-138882846D01*
X99900392Y-138955907D01*
X99755078Y-139061484D01*
X99634888Y-139194969D01*
X99634885Y-139194973D01*
X99545075Y-139350527D01*
X99545072Y-139350533D01*
X99489568Y-139521360D01*
X99470793Y-139700000D01*
X70182499Y-139700000D01*
X70182499Y-137160000D01*
X99470793Y-137160000D01*
X99489568Y-137338639D01*
X99545072Y-137509466D01*
X99545075Y-137509472D01*
X99634885Y-137665026D01*
X99634887Y-137665029D01*
X99755078Y-137798515D01*
X99900396Y-137904095D01*
X100064490Y-137977154D01*
X100240188Y-138014500D01*
X100419812Y-138014500D01*
X100595510Y-137977154D01*
X100759604Y-137904095D01*
X100904922Y-137798515D01*
X101025113Y-137665029D01*
X101114925Y-137509471D01*
X101120834Y-137491287D01*
X101170431Y-137338639D01*
X101170431Y-137338638D01*
X101189207Y-137160000D01*
X101170431Y-136981361D01*
X101122064Y-136832500D01*
X101114927Y-136810533D01*
X101114924Y-136810527D01*
X101025114Y-136654973D01*
X101025113Y-136654971D01*
X100904922Y-136521485D01*
X100759604Y-136415905D01*
X100595510Y-136342846D01*
X100419812Y-136305500D01*
X100240188Y-136305500D01*
X100064489Y-136342846D01*
X99900392Y-136415907D01*
X99755078Y-136521484D01*
X99634888Y-136654969D01*
X99634885Y-136654973D01*
X99545075Y-136810527D01*
X99545072Y-136810533D01*
X99489568Y-136981360D01*
X99470793Y-137160000D01*
X70182499Y-137160000D01*
X70182499Y-134871210D01*
X70202501Y-134803089D01*
X70256157Y-134756596D01*
X70274425Y-134749905D01*
X70458791Y-134698117D01*
X70736887Y-134620000D01*
X99470793Y-134620000D01*
X99489568Y-134798639D01*
X99545072Y-134969466D01*
X99545075Y-134969472D01*
X99634885Y-135125026D01*
X99634887Y-135125029D01*
X99755078Y-135258515D01*
X99900396Y-135364095D01*
X100064490Y-135437154D01*
X100240188Y-135474500D01*
X100419812Y-135474500D01*
X100595510Y-135437154D01*
X100759604Y-135364095D01*
X100904922Y-135258515D01*
X101025113Y-135125029D01*
X101114925Y-134969471D01*
X101120834Y-134951287D01*
X101170431Y-134798639D01*
X101180996Y-134698117D01*
X101189207Y-134620000D01*
X101170431Y-134441361D01*
X101167853Y-134433427D01*
X101114927Y-134270533D01*
X101114924Y-134270527D01*
X101025114Y-134114973D01*
X101025113Y-134114971D01*
X100904922Y-133981485D01*
X100759604Y-133875905D01*
X100595510Y-133802846D01*
X100419812Y-133765500D01*
X100240188Y-133765500D01*
X100064489Y-133802846D01*
X99900392Y-133875907D01*
X99755078Y-133981484D01*
X99634888Y-134114969D01*
X99634885Y-134114973D01*
X99545075Y-134270527D01*
X99545072Y-134270533D01*
X99489568Y-134441360D01*
X99470793Y-134620000D01*
X70736887Y-134620000D01*
X71557384Y-134389523D01*
X79779291Y-132080000D01*
X99470793Y-132080000D01*
X99489568Y-132258639D01*
X99545072Y-132429466D01*
X99545075Y-132429472D01*
X99581564Y-132492672D01*
X99634887Y-132585029D01*
X99755078Y-132718515D01*
X99900396Y-132824095D01*
X100064490Y-132897154D01*
X100240188Y-132934500D01*
X100419812Y-132934500D01*
X100595510Y-132897154D01*
X100759604Y-132824095D01*
X100904922Y-132718515D01*
X101025113Y-132585029D01*
X101114925Y-132429471D01*
X101116004Y-132426152D01*
X101170431Y-132258639D01*
X101180996Y-132158117D01*
X101189207Y-132080000D01*
X101170431Y-131901361D01*
X101167853Y-131893427D01*
X101114927Y-131730533D01*
X101114924Y-131730527D01*
X101025114Y-131574973D01*
X101025113Y-131574971D01*
X100904922Y-131441485D01*
X100858023Y-131407411D01*
X100759604Y-131335905D01*
X100595510Y-131262846D01*
X100419812Y-131225500D01*
X100240188Y-131225500D01*
X100064489Y-131262846D01*
X99900392Y-131335907D01*
X99755078Y-131441484D01*
X99634888Y-131574969D01*
X99634885Y-131574973D01*
X99545075Y-131730527D01*
X99545072Y-131730533D01*
X99489568Y-131901360D01*
X99470793Y-132080000D01*
X79779291Y-132080000D01*
X81247468Y-131667591D01*
X81255022Y-131665151D01*
X81268962Y-131660044D01*
X81277019Y-131657094D01*
X81340916Y-131619437D01*
X81367744Y-131596190D01*
X81394569Y-131572947D01*
X81394568Y-131572948D01*
X81395883Y-131571658D01*
X81412527Y-131555351D01*
X81457174Y-131475533D01*
X81457174Y-131475532D01*
X81457176Y-131475529D01*
X81477172Y-131407424D01*
X81477176Y-131407412D01*
X81485500Y-131349516D01*
X81485500Y-127472512D01*
X81485193Y-127464577D01*
X81483385Y-127441221D01*
X81470328Y-127391884D01*
X81464413Y-127369533D01*
X81464412Y-127369532D01*
X81464411Y-127369526D01*
X81437552Y-127312497D01*
X81434166Y-127305307D01*
X81434161Y-127305297D01*
X81422079Y-127283253D01*
X81357309Y-127218685D01*
X81357308Y-127218684D01*
X81357306Y-127218683D01*
X81297136Y-127181006D01*
X81243646Y-127157334D01*
X80683537Y-127000000D01*
X99470793Y-127000000D01*
X99489568Y-127178639D01*
X99545072Y-127349466D01*
X99545075Y-127349472D01*
X99616113Y-127472512D01*
X99634887Y-127505029D01*
X99755078Y-127638515D01*
X99900396Y-127744095D01*
X100064490Y-127817154D01*
X100240188Y-127854500D01*
X100419812Y-127854500D01*
X100595510Y-127817154D01*
X100759604Y-127744095D01*
X100904922Y-127638515D01*
X101025113Y-127505029D01*
X101114925Y-127349471D01*
X101120834Y-127331287D01*
X101170431Y-127178639D01*
X101180996Y-127078117D01*
X101189207Y-127000000D01*
X101170431Y-126821361D01*
X101167853Y-126813427D01*
X101114927Y-126650533D01*
X101114924Y-126650527D01*
X101025114Y-126494973D01*
X101025113Y-126494971D01*
X100904922Y-126361485D01*
X100759604Y-126255905D01*
X100595510Y-126182846D01*
X100419812Y-126145500D01*
X100240188Y-126145500D01*
X100064489Y-126182846D01*
X99900392Y-126255907D01*
X99755078Y-126361484D01*
X99634888Y-126494969D01*
X99634885Y-126494973D01*
X99545075Y-126650527D01*
X99545072Y-126650533D01*
X99489568Y-126821360D01*
X99470793Y-127000000D01*
X80683537Y-127000000D01*
X71641137Y-124460000D01*
X99470793Y-124460000D01*
X99489568Y-124638639D01*
X99545072Y-124809466D01*
X99545075Y-124809472D01*
X99634885Y-124965026D01*
X99634887Y-124965029D01*
X99755078Y-125098515D01*
X99900396Y-125204095D01*
X100064490Y-125277154D01*
X100240188Y-125314500D01*
X100419812Y-125314500D01*
X100595510Y-125277154D01*
X100759604Y-125204095D01*
X100904922Y-125098515D01*
X101025113Y-124965029D01*
X101114925Y-124809471D01*
X101120834Y-124791287D01*
X101170431Y-124638639D01*
X101170431Y-124638638D01*
X101189207Y-124460000D01*
X101170431Y-124281361D01*
X101122064Y-124132500D01*
X101114927Y-124110533D01*
X101114924Y-124110527D01*
X101025114Y-123954973D01*
X101025113Y-123954971D01*
X100904922Y-123821485D01*
X100759604Y-123715905D01*
X100595510Y-123642846D01*
X100419812Y-123605500D01*
X100240188Y-123605500D01*
X100064489Y-123642846D01*
X99900392Y-123715907D01*
X99755078Y-123821484D01*
X99634888Y-123954969D01*
X99634885Y-123954973D01*
X99545075Y-124110527D01*
X99545072Y-124110533D01*
X99489568Y-124281360D01*
X99470793Y-124460000D01*
X71641137Y-124460000D01*
X70274425Y-124076092D01*
X70214251Y-124038413D01*
X70184001Y-123974184D01*
X70182499Y-123954787D01*
X70182499Y-121920000D01*
X99470793Y-121920000D01*
X99489568Y-122098639D01*
X99545072Y-122269466D01*
X99545075Y-122269472D01*
X99591501Y-122349883D01*
X99634887Y-122425029D01*
X99755078Y-122558515D01*
X99900396Y-122664095D01*
X100064490Y-122737154D01*
X100240188Y-122774500D01*
X100419812Y-122774500D01*
X100595510Y-122737154D01*
X100759604Y-122664095D01*
X100904922Y-122558515D01*
X101025113Y-122425029D01*
X101114925Y-122269471D01*
X101120834Y-122251287D01*
X101170431Y-122098639D01*
X101189207Y-121920000D01*
X101170431Y-121741361D01*
X101145946Y-121666002D01*
X101114927Y-121570533D01*
X101114924Y-121570527D01*
X101025114Y-121414973D01*
X101025113Y-121414971D01*
X100904922Y-121281485D01*
X100759604Y-121175905D01*
X100595510Y-121102846D01*
X100419812Y-121065500D01*
X100240188Y-121065500D01*
X100064489Y-121102846D01*
X99900392Y-121175907D01*
X99755078Y-121281484D01*
X99634888Y-121414969D01*
X99634885Y-121414973D01*
X99545075Y-121570527D01*
X99545072Y-121570533D01*
X99489568Y-121741360D01*
X99470793Y-121920000D01*
X70182499Y-121920000D01*
X70182499Y-119380000D01*
X99470793Y-119380000D01*
X99489568Y-119558639D01*
X99545072Y-119729466D01*
X99545075Y-119729472D01*
X99591501Y-119809883D01*
X99634887Y-119885029D01*
X99755078Y-120018515D01*
X99900396Y-120124095D01*
X100064490Y-120197154D01*
X100240188Y-120234500D01*
X100419812Y-120234500D01*
X100595510Y-120197154D01*
X100759604Y-120124095D01*
X100904922Y-120018515D01*
X101025113Y-119885029D01*
X101114925Y-119729471D01*
X101117913Y-119720277D01*
X101170431Y-119558639D01*
X101170431Y-119558638D01*
X101189207Y-119380000D01*
X101170431Y-119201361D01*
X101170431Y-119201360D01*
X101114927Y-119030533D01*
X101114924Y-119030527D01*
X101025114Y-118874973D01*
X101025113Y-118874971D01*
X100904922Y-118741485D01*
X100843096Y-118696566D01*
X100759604Y-118635905D01*
X100595510Y-118562846D01*
X100419812Y-118525500D01*
X100240188Y-118525500D01*
X100064489Y-118562846D01*
X99900392Y-118635907D01*
X99755078Y-118741484D01*
X99634888Y-118874969D01*
X99634885Y-118874973D01*
X99545075Y-119030527D01*
X99545072Y-119030533D01*
X99489568Y-119201360D01*
X99470793Y-119380000D01*
X70182499Y-119380000D01*
X70182499Y-116840000D01*
X99470793Y-116840000D01*
X99489568Y-117018639D01*
X99545072Y-117189466D01*
X99545075Y-117189472D01*
X99591501Y-117269883D01*
X99634887Y-117345029D01*
X99755078Y-117478515D01*
X99900396Y-117584095D01*
X100064490Y-117657154D01*
X100240188Y-117694500D01*
X100419812Y-117694500D01*
X100595510Y-117657154D01*
X100759604Y-117584095D01*
X100904922Y-117478515D01*
X101025113Y-117345029D01*
X101114925Y-117189471D01*
X101120834Y-117171287D01*
X101170431Y-117018639D01*
X101189207Y-116840000D01*
X101170431Y-116661361D01*
X101145946Y-116586002D01*
X101114927Y-116490533D01*
X101114924Y-116490527D01*
X101025114Y-116334973D01*
X101025113Y-116334971D01*
X100904922Y-116201485D01*
X100759604Y-116095905D01*
X100595510Y-116022846D01*
X100419812Y-115985500D01*
X100240188Y-115985500D01*
X100064489Y-116022846D01*
X99900392Y-116095907D01*
X99755078Y-116201484D01*
X99634888Y-116334969D01*
X99634885Y-116334973D01*
X99545075Y-116490527D01*
X99545072Y-116490533D01*
X99489568Y-116661360D01*
X99470793Y-116840000D01*
X70182499Y-116840000D01*
X70182499Y-115821210D01*
X70202501Y-115753089D01*
X70256157Y-115706596D01*
X70274425Y-115699905D01*
X75258089Y-114300000D01*
X99470793Y-114300000D01*
X99489568Y-114478639D01*
X99545072Y-114649466D01*
X99545075Y-114649472D01*
X99591501Y-114729883D01*
X99634887Y-114805029D01*
X99755078Y-114938515D01*
X99900396Y-115044095D01*
X100064490Y-115117154D01*
X100240188Y-115154500D01*
X100419812Y-115154500D01*
X100595510Y-115117154D01*
X100759604Y-115044095D01*
X100904922Y-114938515D01*
X101025113Y-114805029D01*
X101114925Y-114649471D01*
X101119061Y-114636744D01*
X101170431Y-114478639D01*
X101174078Y-114443939D01*
X101189207Y-114300000D01*
X101170431Y-114121361D01*
X101166168Y-114108241D01*
X101114927Y-113950533D01*
X101114924Y-113950527D01*
X101025114Y-113794973D01*
X101025113Y-113794971D01*
X100904922Y-113661485D01*
X100886408Y-113648034D01*
X100759604Y-113555905D01*
X100595510Y-113482846D01*
X100419812Y-113445500D01*
X100240188Y-113445500D01*
X100064489Y-113482846D01*
X99900392Y-113555907D01*
X99755078Y-113661484D01*
X99634888Y-113794969D01*
X99634885Y-113794973D01*
X99545075Y-113950527D01*
X99545072Y-113950533D01*
X99489568Y-114121360D01*
X99470793Y-114300000D01*
X75258089Y-114300000D01*
X81247468Y-112617591D01*
X81255022Y-112615151D01*
X81268962Y-112610044D01*
X81277019Y-112607094D01*
X81340916Y-112569437D01*
X81367744Y-112546190D01*
X81394569Y-112522947D01*
X81394568Y-112522948D01*
X81395883Y-112521658D01*
X81412527Y-112505351D01*
X81457174Y-112425533D01*
X81457174Y-112425532D01*
X81457176Y-112425529D01*
X81471501Y-112376738D01*
X81477176Y-112357412D01*
X81485500Y-112299516D01*
X81485500Y-111760000D01*
X99470793Y-111760000D01*
X99489568Y-111938639D01*
X99545072Y-112109466D01*
X99545075Y-112109472D01*
X99590394Y-112187966D01*
X99634887Y-112265029D01*
X99755078Y-112398515D01*
X99900396Y-112504095D01*
X100064490Y-112577154D01*
X100240188Y-112614500D01*
X100419812Y-112614500D01*
X100595510Y-112577154D01*
X100759604Y-112504095D01*
X100904922Y-112398515D01*
X101025113Y-112265029D01*
X101114925Y-112109471D01*
X101120834Y-112091287D01*
X101170431Y-111938639D01*
X101175084Y-111894368D01*
X101189207Y-111760000D01*
X101170431Y-111581361D01*
X101161117Y-111552694D01*
X101114927Y-111410533D01*
X101114924Y-111410527D01*
X101025114Y-111254973D01*
X101025113Y-111254971D01*
X100904922Y-111121485D01*
X100800793Y-111045831D01*
X100759604Y-111015905D01*
X100595510Y-110942846D01*
X100419812Y-110905500D01*
X100240188Y-110905500D01*
X100064489Y-110942846D01*
X99900392Y-111015907D01*
X99755078Y-111121484D01*
X99634888Y-111254969D01*
X99634885Y-111254973D01*
X99545075Y-111410527D01*
X99545072Y-111410533D01*
X99489568Y-111581360D01*
X99470793Y-111760000D01*
X81485500Y-111760000D01*
X81485500Y-109220000D01*
X99470793Y-109220000D01*
X99489568Y-109398639D01*
X99545072Y-109569466D01*
X99545075Y-109569472D01*
X99634885Y-109725026D01*
X99634887Y-109725029D01*
X99755078Y-109858515D01*
X99900396Y-109964095D01*
X100064490Y-110037154D01*
X100240188Y-110074500D01*
X100419812Y-110074500D01*
X100595510Y-110037154D01*
X100759604Y-109964095D01*
X100904922Y-109858515D01*
X101025113Y-109725029D01*
X101114925Y-109569471D01*
X101170431Y-109398639D01*
X101189207Y-109220000D01*
X101170431Y-109041361D01*
X101170431Y-109041360D01*
X101114927Y-108870533D01*
X101114924Y-108870527D01*
X101025114Y-108714973D01*
X101025113Y-108714971D01*
X100904922Y-108581485D01*
X100871890Y-108557486D01*
X100759604Y-108475905D01*
X100595510Y-108402846D01*
X100419812Y-108365500D01*
X100240188Y-108365500D01*
X100064489Y-108402846D01*
X99900392Y-108475907D01*
X99755078Y-108581484D01*
X99634888Y-108714969D01*
X99634885Y-108714973D01*
X99545075Y-108870527D01*
X99545072Y-108870533D01*
X99489568Y-109041360D01*
X99470793Y-109220000D01*
X81485500Y-109220000D01*
X81485500Y-108422512D01*
X81485193Y-108414577D01*
X81483385Y-108391221D01*
X81466796Y-108328539D01*
X81464413Y-108319533D01*
X81464412Y-108319532D01*
X81464411Y-108319526D01*
X81434161Y-108255297D01*
X81422079Y-108233253D01*
X81357309Y-108168685D01*
X81357308Y-108168684D01*
X81357306Y-108168683D01*
X81297136Y-108131006D01*
X81243646Y-108107334D01*
X76162337Y-106680000D01*
X99470793Y-106680000D01*
X99489568Y-106858639D01*
X99545072Y-107029466D01*
X99545075Y-107029472D01*
X99616028Y-107152365D01*
X99634887Y-107185029D01*
X99755078Y-107318515D01*
X99900396Y-107424095D01*
X100064490Y-107497154D01*
X100240188Y-107534500D01*
X100419812Y-107534500D01*
X100595510Y-107497154D01*
X100759604Y-107424095D01*
X100904922Y-107318515D01*
X101025113Y-107185029D01*
X101114925Y-107029471D01*
X101140737Y-106950031D01*
X101170431Y-106858639D01*
X101179763Y-106769849D01*
X101189207Y-106680000D01*
X101170431Y-106501361D01*
X101152192Y-106445225D01*
X101114927Y-106330533D01*
X101114924Y-106330527D01*
X101025114Y-106174973D01*
X101025113Y-106174971D01*
X100904922Y-106041485D01*
X100759604Y-105935905D01*
X100595510Y-105862846D01*
X100419812Y-105825500D01*
X100240188Y-105825500D01*
X100064489Y-105862846D01*
X99900392Y-105935907D01*
X99755078Y-106041484D01*
X99634888Y-106174969D01*
X99634885Y-106174973D01*
X99545075Y-106330527D01*
X99545072Y-106330533D01*
X99489568Y-106501360D01*
X99470793Y-106680000D01*
X76162337Y-106680000D01*
X70274425Y-105026092D01*
X70214251Y-104988413D01*
X70184001Y-104924184D01*
X70182499Y-104904787D01*
X70182499Y-104140000D01*
X99470793Y-104140000D01*
X99489568Y-104318639D01*
X99545072Y-104489466D01*
X99545075Y-104489472D01*
X99634885Y-104645026D01*
X99634887Y-104645029D01*
X99755078Y-104778515D01*
X99900396Y-104884095D01*
X100064490Y-104957154D01*
X100240188Y-104994500D01*
X100419812Y-104994500D01*
X100595510Y-104957154D01*
X100759604Y-104884095D01*
X100904922Y-104778515D01*
X101025113Y-104645029D01*
X101114925Y-104489471D01*
X101170431Y-104318639D01*
X101189207Y-104140000D01*
X101170431Y-103961361D01*
X101170431Y-103961360D01*
X101114927Y-103790533D01*
X101114924Y-103790527D01*
X101025114Y-103634973D01*
X101025113Y-103634971D01*
X100904922Y-103501485D01*
X100842478Y-103456117D01*
X100759604Y-103395905D01*
X100595510Y-103322846D01*
X100419812Y-103285500D01*
X100240188Y-103285500D01*
X100064489Y-103322846D01*
X99900392Y-103395907D01*
X99755078Y-103501484D01*
X99634888Y-103634969D01*
X99634885Y-103634973D01*
X99545075Y-103790527D01*
X99545072Y-103790533D01*
X99489568Y-103961360D01*
X99470793Y-104140000D01*
X70182499Y-104140000D01*
X70182499Y-101600000D01*
X99470793Y-101600000D01*
X99489568Y-101778639D01*
X99545072Y-101949466D01*
X99545075Y-101949472D01*
X99614522Y-102069756D01*
X99634887Y-102105029D01*
X99755078Y-102238515D01*
X99900396Y-102344095D01*
X100064490Y-102417154D01*
X100240188Y-102454500D01*
X100419812Y-102454500D01*
X100595510Y-102417154D01*
X100759604Y-102344095D01*
X100904922Y-102238515D01*
X101025113Y-102105029D01*
X101114925Y-101949471D01*
X101170431Y-101778639D01*
X101189207Y-101600000D01*
X101170431Y-101421361D01*
X101170431Y-101421360D01*
X101114927Y-101250533D01*
X101114924Y-101250527D01*
X101025114Y-101094973D01*
X101025113Y-101094971D01*
X100904922Y-100961485D01*
X100842478Y-100916117D01*
X100759604Y-100855905D01*
X100595510Y-100782846D01*
X100419812Y-100745500D01*
X100240188Y-100745500D01*
X100064489Y-100782846D01*
X99900392Y-100855907D01*
X99755078Y-100961484D01*
X99634888Y-101094969D01*
X99634885Y-101094973D01*
X99545075Y-101250527D01*
X99545072Y-101250533D01*
X99489568Y-101421360D01*
X99470793Y-101600000D01*
X70182499Y-101600000D01*
X70182499Y-99060000D01*
X99470793Y-99060000D01*
X99489568Y-99238639D01*
X99545072Y-99409466D01*
X99545075Y-99409472D01*
X99634885Y-99565026D01*
X99634887Y-99565029D01*
X99755078Y-99698515D01*
X99900396Y-99804095D01*
X100064490Y-99877154D01*
X100240188Y-99914500D01*
X100419812Y-99914500D01*
X100595510Y-99877154D01*
X100759604Y-99804095D01*
X100904922Y-99698515D01*
X101025113Y-99565029D01*
X101114925Y-99409471D01*
X101120834Y-99391287D01*
X101170431Y-99238639D01*
X101176768Y-99178345D01*
X101189207Y-99060000D01*
X101170431Y-98881361D01*
X101170431Y-98881360D01*
X101114927Y-98710533D01*
X101114924Y-98710527D01*
X101025114Y-98554973D01*
X101025113Y-98554971D01*
X100904922Y-98421485D01*
X100842478Y-98376117D01*
X100759604Y-98315905D01*
X100595510Y-98242846D01*
X100419812Y-98205500D01*
X100240188Y-98205500D01*
X100064489Y-98242846D01*
X99900392Y-98315907D01*
X99755078Y-98421484D01*
X99634888Y-98554969D01*
X99634885Y-98554973D01*
X99545075Y-98710527D01*
X99545072Y-98710533D01*
X99489568Y-98881360D01*
X99470793Y-99060000D01*
X70182499Y-99060000D01*
X70182499Y-96771210D01*
X70202501Y-96703089D01*
X70256157Y-96656596D01*
X70274425Y-96649905D01*
X70736887Y-96520000D01*
X99470793Y-96520000D01*
X99489568Y-96698639D01*
X99545072Y-96869466D01*
X99545075Y-96869472D01*
X99634885Y-97025026D01*
X99634887Y-97025029D01*
X99755078Y-97158515D01*
X99900396Y-97264095D01*
X100064490Y-97337154D01*
X100240188Y-97374500D01*
X100419812Y-97374500D01*
X100595510Y-97337154D01*
X100759604Y-97264095D01*
X100904922Y-97158515D01*
X101025113Y-97025029D01*
X101114925Y-96869471D01*
X101170431Y-96698639D01*
X101189207Y-96520000D01*
X101170431Y-96341361D01*
X101170431Y-96341360D01*
X101114927Y-96170533D01*
X101114924Y-96170527D01*
X101025114Y-96014973D01*
X101025113Y-96014971D01*
X100904922Y-95881485D01*
X100759604Y-95775905D01*
X100595510Y-95702846D01*
X100419812Y-95665500D01*
X100240188Y-95665500D01*
X100064489Y-95702846D01*
X99900392Y-95775907D01*
X99755078Y-95881484D01*
X99634888Y-96014969D01*
X99634885Y-96014973D01*
X99545075Y-96170527D01*
X99545072Y-96170533D01*
X99489568Y-96341360D01*
X99470793Y-96520000D01*
X70736887Y-96520000D01*
X79779291Y-93980000D01*
X114710793Y-93980000D01*
X114729568Y-94158639D01*
X114785072Y-94329466D01*
X114785075Y-94329472D01*
X114874885Y-94485026D01*
X114874887Y-94485029D01*
X114995078Y-94618515D01*
X115140396Y-94724095D01*
X115304490Y-94797154D01*
X115480188Y-94834500D01*
X115659812Y-94834500D01*
X115835510Y-94797154D01*
X115999604Y-94724095D01*
X116144922Y-94618515D01*
X116265113Y-94485029D01*
X116354925Y-94329471D01*
X116410431Y-94158639D01*
X116429207Y-93980000D01*
X116410431Y-93801361D01*
X116410431Y-93801360D01*
X116354927Y-93630533D01*
X116354924Y-93630527D01*
X116265114Y-93474973D01*
X116265113Y-93474971D01*
X116144922Y-93341485D01*
X116098023Y-93307411D01*
X115999604Y-93235905D01*
X115835510Y-93162846D01*
X115659812Y-93125500D01*
X115480188Y-93125500D01*
X115304489Y-93162846D01*
X115140392Y-93235907D01*
X114995078Y-93341484D01*
X114874888Y-93474969D01*
X114874885Y-93474973D01*
X114785075Y-93630527D01*
X114785072Y-93630533D01*
X114729568Y-93801360D01*
X114710793Y-93980000D01*
X79779291Y-93980000D01*
X81247468Y-93567591D01*
X81255022Y-93565151D01*
X81268962Y-93560044D01*
X81277019Y-93557094D01*
X81340916Y-93519437D01*
X81367744Y-93496190D01*
X81394569Y-93472947D01*
X81394568Y-93472948D01*
X81395883Y-93471658D01*
X81412527Y-93455351D01*
X81457174Y-93375533D01*
X81457174Y-93375532D01*
X81457176Y-93375529D01*
X81477172Y-93307424D01*
X81477176Y-93307412D01*
X81485500Y-93249516D01*
X81485500Y-89372512D01*
X81485193Y-89364577D01*
X81483385Y-89341221D01*
X81464411Y-89269526D01*
X81434161Y-89205297D01*
X81422079Y-89183253D01*
X81357309Y-89118685D01*
X81357308Y-89118684D01*
X81357306Y-89118683D01*
X81297136Y-89081006D01*
X81243646Y-89057334D01*
X70274425Y-85976092D01*
X70214251Y-85938413D01*
X70184001Y-85874184D01*
X70182499Y-85854787D01*
X70182499Y-83756692D01*
X70182500Y-81406000D01*
X70177804Y-81362319D01*
X70166418Y-81309977D01*
X70163930Y-81299797D01*
X70120921Y-81219084D01*
X70089283Y-81182572D01*
X70074431Y-81165431D01*
X70074432Y-81165432D01*
X70056833Y-81147471D01*
X69977013Y-81102823D01*
X69908908Y-81082827D01*
X69908899Y-81082825D01*
X69908896Y-81082824D01*
X69851000Y-81074500D01*
X69850997Y-81074500D01*
X62937500Y-81074500D01*
X62869379Y-81054498D01*
X62822886Y-81000842D01*
X62811500Y-80948500D01*
X62811500Y-79731836D01*
X62831502Y-79663715D01*
X62878102Y-79620715D01*
X63021324Y-79544162D01*
X63167883Y-79423883D01*
X63288162Y-79277324D01*
X63377537Y-79110115D01*
X63432573Y-78928683D01*
X63451157Y-78740000D01*
X63432573Y-78551317D01*
X63377537Y-78369885D01*
X63288162Y-78202676D01*
X63167883Y-78056117D01*
X63021324Y-77935838D01*
X62854115Y-77846463D01*
X62672683Y-77791427D01*
X62672682Y-77791426D01*
X62672676Y-77791425D01*
X62484003Y-77772843D01*
X62483997Y-77772843D01*
X62295323Y-77791425D01*
X62113884Y-77846463D01*
X61946675Y-77935838D01*
X61800117Y-78056117D01*
X61679838Y-78202675D01*
X61590463Y-78369884D01*
X61535425Y-78551323D01*
X61516843Y-78739997D01*
X61516843Y-78740002D01*
X61535425Y-78928676D01*
X61535426Y-78928682D01*
X61535427Y-78928683D01*
X61590463Y-79110115D01*
X61679838Y-79277324D01*
X61800117Y-79423883D01*
X61946676Y-79544162D01*
X62089897Y-79620715D01*
X62140544Y-79670466D01*
X62156500Y-79731836D01*
X62156500Y-80948500D01*
X62136498Y-81016621D01*
X62082842Y-81063114D01*
X62030500Y-81074500D01*
X49402500Y-81074500D01*
X49334379Y-81054498D01*
X49287886Y-81000842D01*
X49276500Y-80948500D01*
X49276500Y-74802249D01*
X49296502Y-74734128D01*
X49350158Y-74687635D01*
X49420432Y-74677531D01*
X49485012Y-74707025D01*
X49523396Y-74766751D01*
X49523791Y-74768123D01*
X49568532Y-74927145D01*
X49713436Y-75296355D01*
X49713439Y-75296361D01*
X49713441Y-75296366D01*
X49894391Y-75649323D01*
X50109586Y-75982509D01*
X50356886Y-76292614D01*
X50633833Y-76576554D01*
X50937676Y-76831508D01*
X51265394Y-77054942D01*
X51613730Y-77244636D01*
X51807311Y-77326237D01*
X51979221Y-77398703D01*
X51979225Y-77398705D01*
X52078828Y-77429428D01*
X52358240Y-77515615D01*
X52747014Y-77594208D01*
X53141681Y-77633700D01*
X53141686Y-77633700D01*
X53439108Y-77633700D01*
X53736135Y-77618876D01*
X53736139Y-77618875D01*
X53736145Y-77618875D01*
X54128353Y-77559759D01*
X54512726Y-77461886D01*
X54726642Y-77384027D01*
X54885421Y-77326237D01*
X54885427Y-77326234D01*
X54885445Y-77326228D01*
X55242803Y-77154133D01*
X55581251Y-76947312D01*
X55897424Y-76707820D01*
X56188181Y-76438037D01*
X56450631Y-76140645D01*
X56682166Y-75818600D01*
X56880485Y-75475101D01*
X57043617Y-75113563D01*
X57169941Y-74737578D01*
X57170729Y-74734128D01*
X57232346Y-74464162D01*
X57258201Y-74350885D01*
X57307521Y-73957325D01*
X57314935Y-73660002D01*
X61516843Y-73660002D01*
X61535425Y-73848676D01*
X61535426Y-73848682D01*
X61535427Y-73848683D01*
X61590463Y-74030115D01*
X61679838Y-74197324D01*
X61800117Y-74343883D01*
X61946676Y-74464162D01*
X62113885Y-74553537D01*
X62295317Y-74608573D01*
X62295321Y-74608573D01*
X62295323Y-74608574D01*
X62483997Y-74627157D01*
X62484000Y-74627157D01*
X62484003Y-74627157D01*
X62672676Y-74608574D01*
X62672677Y-74608573D01*
X62672683Y-74608573D01*
X62854115Y-74553537D01*
X63021324Y-74464162D01*
X63167883Y-74343883D01*
X63288162Y-74197324D01*
X63377537Y-74030115D01*
X63432573Y-73848683D01*
X63441388Y-73759190D01*
X63451157Y-73660002D01*
X63451157Y-73659997D01*
X63432574Y-73471323D01*
X63432573Y-73471321D01*
X63432573Y-73471317D01*
X63377537Y-73289885D01*
X63288162Y-73122676D01*
X63167883Y-72976117D01*
X63021324Y-72855838D01*
X62854115Y-72766463D01*
X62672683Y-72711427D01*
X62672682Y-72711426D01*
X62672676Y-72711425D01*
X62484003Y-72692843D01*
X62483997Y-72692843D01*
X62295323Y-72711425D01*
X62113884Y-72766463D01*
X61946675Y-72855838D01*
X61800117Y-72976117D01*
X61679838Y-73122675D01*
X61590463Y-73289884D01*
X61535425Y-73471323D01*
X61516843Y-73659997D01*
X61516843Y-73660002D01*
X57314935Y-73660002D01*
X57317409Y-73560810D01*
X57287769Y-73165280D01*
X57218893Y-72774668D01*
X57111467Y-72392854D01*
X56966559Y-72023634D01*
X56785609Y-71670677D01*
X56570414Y-71337491D01*
X56323114Y-71027386D01*
X56046167Y-70743446D01*
X55742324Y-70488492D01*
X55414606Y-70265058D01*
X55304584Y-70205143D01*
X55066275Y-70075366D01*
X54700778Y-69921296D01*
X54700774Y-69921294D01*
X54446629Y-69842902D01*
X54387430Y-69803710D01*
X54358818Y-69738734D01*
X54369877Y-69668604D01*
X54417095Y-69615586D01*
X54483768Y-69596500D01*
X134739243Y-69596500D01*
X134807364Y-69616502D01*
G37*
%TD.AperFunction*%
%TA.AperFunction,Conductor*%
G36*
X57345998Y-156995145D02*
G01*
X57504313Y-157024739D01*
X57526678Y-157031103D01*
X57676837Y-157089276D01*
X57697650Y-157099639D01*
X57834587Y-157184426D01*
X57853141Y-157198437D01*
X57972160Y-157306936D01*
X57987820Y-157324115D01*
X58084876Y-157452639D01*
X58097116Y-157472407D01*
X58168898Y-157616561D01*
X58177296Y-157638239D01*
X58215046Y-157770911D01*
X58221376Y-157793155D01*
X58225649Y-157816013D01*
X58240508Y-157976374D01*
X58240508Y-157999625D01*
X58225648Y-158159990D01*
X58221375Y-158182845D01*
X58177303Y-158337743D01*
X58168903Y-158359426D01*
X58097119Y-158503586D01*
X58084879Y-158523354D01*
X57987822Y-158651879D01*
X57972158Y-158669061D01*
X57853141Y-158777561D01*
X57834585Y-158791575D01*
X57697657Y-158876356D01*
X57676844Y-158886719D01*
X57526675Y-158944895D01*
X57504312Y-158951258D01*
X57346000Y-158980854D01*
X57322846Y-158983000D01*
X57161802Y-158983000D01*
X57138649Y-158980854D01*
X56980334Y-158951259D01*
X56957970Y-158944896D01*
X56807802Y-158886720D01*
X56786990Y-158876357D01*
X56650061Y-158791576D01*
X56631504Y-158777563D01*
X56611864Y-158759659D01*
X56549781Y-158703062D01*
X56512485Y-158669062D01*
X56496821Y-158651879D01*
X56399767Y-158523358D01*
X56387527Y-158503590D01*
X56387198Y-158502930D01*
X56315745Y-158359436D01*
X56307346Y-158337756D01*
X56263266Y-158182837D01*
X56258996Y-158159990D01*
X56244136Y-157999621D01*
X56244136Y-157976374D01*
X56248774Y-157926322D01*
X56258996Y-157815999D01*
X56263265Y-157793163D01*
X56307348Y-157638233D01*
X56315741Y-157616570D01*
X56387528Y-157472403D01*
X56399758Y-157452650D01*
X56496822Y-157324116D01*
X56512481Y-157306938D01*
X56631505Y-157198433D01*
X56650054Y-157184426D01*
X56786985Y-157099642D01*
X56807780Y-157089287D01*
X56957974Y-157031099D01*
X56980325Y-157024739D01*
X57101701Y-157002051D01*
X57138649Y-156995145D01*
X57161800Y-156993000D01*
X57322846Y-156993000D01*
X57345998Y-156995145D01*
G37*
%TD.AperFunction*%
%TA.AperFunction,Conductor*%
G36*
X56600838Y-138153284D02*
G01*
X56625063Y-138158102D01*
X56751178Y-138196358D01*
X56773996Y-138205809D01*
X56890219Y-138267932D01*
X56910757Y-138281655D01*
X57012625Y-138365257D01*
X57030090Y-138382722D01*
X57113690Y-138484589D01*
X57127411Y-138505123D01*
X57189540Y-138621358D01*
X57198990Y-138644173D01*
X57237244Y-138770278D01*
X57242063Y-138794504D01*
X57254979Y-138925649D01*
X57254979Y-138950349D01*
X57242063Y-139081494D01*
X57237244Y-139105720D01*
X57198990Y-139231825D01*
X57189538Y-139254646D01*
X57127413Y-139370872D01*
X57113690Y-139391409D01*
X57030090Y-139493276D01*
X57012625Y-139510741D01*
X56910758Y-139594341D01*
X56890220Y-139608064D01*
X56773994Y-139670188D01*
X56751175Y-139679640D01*
X56625071Y-139717894D01*
X56600844Y-139722713D01*
X56469703Y-139735629D01*
X56445004Y-139735629D01*
X56313856Y-139722713D01*
X56289629Y-139717895D01*
X56163522Y-139679641D01*
X56140701Y-139670188D01*
X56024473Y-139608062D01*
X56003937Y-139594340D01*
X55937927Y-139540167D01*
X55902070Y-139510740D01*
X55884606Y-139493276D01*
X55801005Y-139391408D01*
X55787285Y-139370875D01*
X55787283Y-139370872D01*
X55725159Y-139254646D01*
X55715706Y-139231825D01*
X55677451Y-139105713D01*
X55672633Y-139081487D01*
X55659718Y-138950348D01*
X55659718Y-138925650D01*
X55672634Y-138794497D01*
X55677449Y-138770288D01*
X55715707Y-138644168D01*
X55725158Y-138621354D01*
X55725159Y-138621352D01*
X55787285Y-138505121D01*
X55801001Y-138484594D01*
X55884611Y-138382716D01*
X55902065Y-138365262D01*
X56003943Y-138281652D01*
X56024470Y-138267936D01*
X56140704Y-138205808D01*
X56163514Y-138196359D01*
X56289633Y-138158101D01*
X56313856Y-138153284D01*
X56444999Y-138140369D01*
X56469694Y-138140369D01*
X56600838Y-138153284D01*
G37*
%TD.AperFunction*%
%TA.AperFunction,Conductor*%
G36*
X56071114Y-119103284D02*
G01*
X56095332Y-119108100D01*
X56221446Y-119146356D01*
X56244265Y-119155809D01*
X56360496Y-119217936D01*
X56381029Y-119231656D01*
X56482897Y-119315257D01*
X56500362Y-119332722D01*
X56583962Y-119434589D01*
X56597683Y-119455123D01*
X56659812Y-119571358D01*
X56669262Y-119594173D01*
X56707516Y-119720278D01*
X56712335Y-119744504D01*
X56725251Y-119875649D01*
X56725251Y-119900349D01*
X56712335Y-120031494D01*
X56707516Y-120055720D01*
X56669262Y-120181825D01*
X56659810Y-120204646D01*
X56597685Y-120320872D01*
X56583962Y-120341409D01*
X56500362Y-120443276D01*
X56482897Y-120460741D01*
X56381030Y-120544341D01*
X56360492Y-120558064D01*
X56244266Y-120620188D01*
X56221447Y-120629640D01*
X56095343Y-120667894D01*
X56071116Y-120672713D01*
X55939975Y-120685629D01*
X55915276Y-120685629D01*
X55784128Y-120672713D01*
X55759901Y-120667895D01*
X55633794Y-120629641D01*
X55610973Y-120620188D01*
X55494745Y-120558062D01*
X55474209Y-120544340D01*
X55372344Y-120460742D01*
X55354878Y-120443276D01*
X55271277Y-120341408D01*
X55257557Y-120320875D01*
X55257555Y-120320872D01*
X55195431Y-120204646D01*
X55185978Y-120181825D01*
X55147723Y-120055713D01*
X55142905Y-120031487D01*
X55141627Y-120018515D01*
X55129990Y-119900349D01*
X55129990Y-119875652D01*
X55142906Y-119744499D01*
X55147721Y-119720288D01*
X55185979Y-119594168D01*
X55195430Y-119571354D01*
X55211612Y-119541080D01*
X55257557Y-119455121D01*
X55271273Y-119434594D01*
X55354883Y-119332716D01*
X55372337Y-119315262D01*
X55474215Y-119231652D01*
X55494742Y-119217936D01*
X55610976Y-119155808D01*
X55633786Y-119146359D01*
X55759905Y-119108101D01*
X55784128Y-119103284D01*
X55915271Y-119090369D01*
X55939966Y-119090369D01*
X56071114Y-119103284D01*
G37*
%TD.AperFunction*%
%TA.AperFunction,Conductor*%
G36*
X56071110Y-100053284D02*
G01*
X56095335Y-100058102D01*
X56221450Y-100096358D01*
X56244268Y-100105809D01*
X56360491Y-100167932D01*
X56381029Y-100181655D01*
X56482897Y-100265257D01*
X56500362Y-100282722D01*
X56583962Y-100384589D01*
X56597683Y-100405123D01*
X56659812Y-100521358D01*
X56669262Y-100544173D01*
X56707516Y-100670278D01*
X56712335Y-100694504D01*
X56725251Y-100825649D01*
X56725251Y-100850349D01*
X56712335Y-100981494D01*
X56707516Y-101005720D01*
X56669262Y-101131825D01*
X56659810Y-101154646D01*
X56597685Y-101270872D01*
X56583962Y-101291409D01*
X56500362Y-101393276D01*
X56482897Y-101410741D01*
X56381030Y-101494341D01*
X56360492Y-101508064D01*
X56244266Y-101570188D01*
X56221447Y-101579640D01*
X56095343Y-101617894D01*
X56071116Y-101622713D01*
X55939975Y-101635629D01*
X55915276Y-101635629D01*
X55784128Y-101622713D01*
X55759901Y-101617895D01*
X55633794Y-101579641D01*
X55610973Y-101570188D01*
X55494745Y-101508062D01*
X55474209Y-101494340D01*
X55408199Y-101440167D01*
X55372342Y-101410740D01*
X55354878Y-101393276D01*
X55271277Y-101291408D01*
X55257557Y-101270875D01*
X55257555Y-101270872D01*
X55195431Y-101154646D01*
X55185978Y-101131825D01*
X55147723Y-101005713D01*
X55142905Y-100981487D01*
X55129990Y-100850348D01*
X55129990Y-100825650D01*
X55142906Y-100694497D01*
X55147721Y-100670288D01*
X55185979Y-100544168D01*
X55195430Y-100521354D01*
X55195431Y-100521352D01*
X55257557Y-100405121D01*
X55271273Y-100384594D01*
X55354883Y-100282716D01*
X55372337Y-100265262D01*
X55474215Y-100181652D01*
X55494742Y-100167936D01*
X55610976Y-100105808D01*
X55633786Y-100096359D01*
X55759905Y-100058101D01*
X55784128Y-100053284D01*
X55915271Y-100040369D01*
X55939966Y-100040369D01*
X56071110Y-100053284D01*
G37*
%TD.AperFunction*%
%TD*%
%TA.AperFunction,Conductor*%
%TO.N,+12V*%
G36*
X69919121Y-81300002D02*
G01*
X69965614Y-81353658D01*
X69977000Y-81406000D01*
X69977000Y-86106000D01*
X69976999Y-86106000D01*
X81188074Y-89255178D01*
X81248248Y-89292857D01*
X81278498Y-89357086D01*
X81280000Y-89376483D01*
X81280000Y-93249516D01*
X81259998Y-93317637D01*
X81206342Y-93364130D01*
X81188074Y-93370821D01*
X69977000Y-96519999D01*
X69977000Y-105156000D01*
X69976999Y-105156000D01*
X81188074Y-108305178D01*
X81248248Y-108342857D01*
X81278498Y-108407086D01*
X81280000Y-108426483D01*
X81280000Y-112299516D01*
X81259998Y-112367637D01*
X81206342Y-112414130D01*
X81188074Y-112420821D01*
X69977000Y-115569999D01*
X69977000Y-124206000D01*
X69976999Y-124206000D01*
X81188074Y-127355178D01*
X81248248Y-127392857D01*
X81278498Y-127457086D01*
X81280000Y-127476483D01*
X81280000Y-131349516D01*
X81259998Y-131417637D01*
X81206342Y-131464130D01*
X81188074Y-131470821D01*
X69977000Y-134619999D01*
X69977000Y-143256000D01*
X69976999Y-143256000D01*
X81188074Y-146405178D01*
X81248248Y-146442857D01*
X81278498Y-146507086D01*
X81280000Y-146526483D01*
X81280000Y-150399516D01*
X81259998Y-150467637D01*
X81206342Y-150514130D01*
X81188074Y-150520821D01*
X69977000Y-153669999D01*
X69977000Y-179197500D01*
X69956998Y-179265621D01*
X69903342Y-179312114D01*
X69851000Y-179323500D01*
X54490757Y-179323500D01*
X54422636Y-179303498D01*
X54376143Y-179249842D01*
X54366039Y-179179568D01*
X54395533Y-179114988D01*
X54455259Y-179076604D01*
X54459630Y-179075405D01*
X54512726Y-179061886D01*
X54731794Y-178982152D01*
X54885421Y-178926237D01*
X54885427Y-178926234D01*
X54885445Y-178926228D01*
X55242803Y-178754133D01*
X55581251Y-178547312D01*
X55897424Y-178307820D01*
X56188181Y-178038037D01*
X56450631Y-177740645D01*
X56682166Y-177418600D01*
X56880485Y-177075101D01*
X57043617Y-176713563D01*
X57169941Y-176337578D01*
X57258201Y-175950885D01*
X57307521Y-175557325D01*
X57317409Y-175160810D01*
X57287769Y-174765280D01*
X57218893Y-174374668D01*
X57111467Y-173992854D01*
X56966559Y-173623634D01*
X56785609Y-173270677D01*
X56570414Y-172937491D01*
X56323114Y-172627386D01*
X56046167Y-172343446D01*
X55742324Y-172088492D01*
X55414606Y-171865058D01*
X55414597Y-171865053D01*
X55066275Y-171675366D01*
X54700778Y-171521296D01*
X54700774Y-171521294D01*
X54421365Y-171435109D01*
X54321760Y-171404385D01*
X53932986Y-171325792D01*
X53932985Y-171325791D01*
X53932981Y-171325791D01*
X53538325Y-171286300D01*
X53538319Y-171286300D01*
X53240899Y-171286300D01*
X53240892Y-171286300D01*
X52943864Y-171301123D01*
X52701321Y-171337681D01*
X52551647Y-171360241D01*
X52551643Y-171360241D01*
X52551643Y-171360242D01*
X52167273Y-171458114D01*
X52167252Y-171458121D01*
X51794578Y-171593762D01*
X51794551Y-171593773D01*
X51437202Y-171765864D01*
X51437201Y-171765864D01*
X51098747Y-171972689D01*
X50782567Y-172212187D01*
X50491823Y-172481959D01*
X50491821Y-172481961D01*
X50229372Y-172779351D01*
X50229364Y-172779360D01*
X50066684Y-173005634D01*
X49997834Y-173101400D01*
X49997831Y-173101404D01*
X49997831Y-173101405D01*
X49799521Y-173444888D01*
X49799515Y-173444898D01*
X49636384Y-173806435D01*
X49636381Y-173806442D01*
X49521939Y-174147061D01*
X49481283Y-174205265D01*
X49415614Y-174232248D01*
X49345781Y-174219444D01*
X49293956Y-174170919D01*
X49276500Y-174106932D01*
X49276500Y-157987999D01*
X56036680Y-157987999D01*
X56057208Y-158209539D01*
X56118091Y-158423520D01*
X56118097Y-158423537D01*
X56217261Y-158622684D01*
X56217265Y-158622689D01*
X56351340Y-158800235D01*
X56515761Y-158950124D01*
X56515762Y-158950125D01*
X56704910Y-159067240D01*
X56704913Y-159067241D01*
X56704922Y-159067247D01*
X56795312Y-159102264D01*
X56912376Y-159147616D01*
X56912379Y-159147616D01*
X56912383Y-159147618D01*
X57131080Y-159188500D01*
X57131083Y-159188500D01*
X57353563Y-159188500D01*
X57353566Y-159188500D01*
X57572263Y-159147618D01*
X57572267Y-159147616D01*
X57572269Y-159147616D01*
X57625621Y-159126946D01*
X57779724Y-159067247D01*
X57968885Y-158950124D01*
X58133304Y-158800236D01*
X58267381Y-158622689D01*
X58267382Y-158622685D01*
X58267384Y-158622684D01*
X58366548Y-158423537D01*
X58366549Y-158423533D01*
X58366552Y-158423528D01*
X58427438Y-158209536D01*
X58447966Y-157988000D01*
X58427438Y-157766464D01*
X58366552Y-157552472D01*
X58366550Y-157552468D01*
X58366548Y-157552462D01*
X58267384Y-157353315D01*
X58267380Y-157353310D01*
X58133305Y-157175764D01*
X57968884Y-157025875D01*
X57968883Y-157025874D01*
X57779735Y-156908759D01*
X57779728Y-156908755D01*
X57779724Y-156908753D01*
X57779719Y-156908751D01*
X57572269Y-156828383D01*
X57533295Y-156821097D01*
X57353566Y-156787500D01*
X57131080Y-156787500D01*
X56989997Y-156813873D01*
X56912376Y-156828383D01*
X56704926Y-156908751D01*
X56704910Y-156908759D01*
X56515762Y-157025874D01*
X56515761Y-157025875D01*
X56351340Y-157175764D01*
X56217265Y-157353310D01*
X56217261Y-157353315D01*
X56118097Y-157552462D01*
X56118091Y-157552479D01*
X56057208Y-157766460D01*
X56036680Y-157987999D01*
X49276500Y-157987999D01*
X49276500Y-153515176D01*
X62496700Y-153515176D01*
X62511682Y-153710335D01*
X62511683Y-153710343D01*
X62511684Y-153710344D01*
X62571179Y-153964586D01*
X62571180Y-153964589D01*
X62571181Y-153964592D01*
X62668783Y-154206760D01*
X62668788Y-154206770D01*
X62802214Y-154431202D01*
X62802219Y-154431209D01*
X62968341Y-154632645D01*
X62968347Y-154632651D01*
X62968348Y-154632652D01*
X63163280Y-154806375D01*
X63163282Y-154806376D01*
X63163285Y-154806378D01*
X63382447Y-154948306D01*
X63382450Y-154948308D01*
X63563536Y-155029486D01*
X63620711Y-155055118D01*
X63872487Y-155124307D01*
X64131875Y-155154252D01*
X64392793Y-155144251D01*
X64649127Y-155094538D01*
X64894868Y-155006279D01*
X65124257Y-154881541D01*
X65331916Y-154723250D01*
X65512978Y-154535114D01*
X65663199Y-154321544D01*
X65779059Y-154087547D01*
X65857841Y-153838605D01*
X65872266Y-153745211D01*
X65897699Y-153580565D01*
X65897700Y-153580553D01*
X65897700Y-151284824D01*
X65882717Y-151089664D01*
X65882716Y-151089661D01*
X65882716Y-151089656D01*
X65823221Y-150835414D01*
X65725614Y-150593234D01*
X65592182Y-150368792D01*
X65550649Y-150318430D01*
X65426058Y-150167354D01*
X65426052Y-150167348D01*
X65324393Y-150076750D01*
X65231120Y-149993625D01*
X65231114Y-149993621D01*
X65011952Y-149851693D01*
X65011949Y-149851691D01*
X64773692Y-149744883D01*
X64773690Y-149744882D01*
X64773689Y-149744882D01*
X64693255Y-149722778D01*
X64521918Y-149675694D01*
X64521911Y-149675692D01*
X64262526Y-149645748D01*
X64262524Y-149645748D01*
X64001603Y-149655749D01*
X63745279Y-149705460D01*
X63745273Y-149705461D01*
X63745273Y-149705462D01*
X63622402Y-149749591D01*
X63499526Y-149793723D01*
X63499523Y-149793725D01*
X63270143Y-149918458D01*
X63062488Y-150076746D01*
X63062478Y-150076755D01*
X62881423Y-150264884D01*
X62881417Y-150264891D01*
X62731205Y-150478449D01*
X62731200Y-150478456D01*
X62615340Y-150712454D01*
X62536558Y-150961396D01*
X62496700Y-151219434D01*
X62496700Y-153515176D01*
X49276500Y-153515176D01*
X49276500Y-145641176D01*
X62496700Y-145641176D01*
X62511682Y-145836335D01*
X62511683Y-145836343D01*
X62511684Y-145836344D01*
X62571179Y-146090586D01*
X62571180Y-146090589D01*
X62571181Y-146090592D01*
X62668783Y-146332760D01*
X62668788Y-146332770D01*
X62802214Y-146557202D01*
X62802219Y-146557209D01*
X62968341Y-146758645D01*
X62968347Y-146758651D01*
X62968348Y-146758652D01*
X63163280Y-146932375D01*
X63163282Y-146932376D01*
X63163285Y-146932378D01*
X63382447Y-147074306D01*
X63382450Y-147074308D01*
X63563536Y-147155486D01*
X63620711Y-147181118D01*
X63872487Y-147250307D01*
X64131875Y-147280252D01*
X64392793Y-147270251D01*
X64649127Y-147220538D01*
X64894868Y-147132279D01*
X65124257Y-147007541D01*
X65331916Y-146849250D01*
X65512978Y-146661114D01*
X65663199Y-146447544D01*
X65779059Y-146213547D01*
X65857841Y-145964605D01*
X65872266Y-145871211D01*
X65897699Y-145706565D01*
X65897700Y-145706553D01*
X65897700Y-143410824D01*
X65882717Y-143215664D01*
X65882716Y-143215661D01*
X65882716Y-143215656D01*
X65823221Y-142961414D01*
X65725614Y-142719234D01*
X65592182Y-142494792D01*
X65550649Y-142444430D01*
X65426058Y-142293354D01*
X65426052Y-142293348D01*
X65324393Y-142202750D01*
X65231120Y-142119625D01*
X65231114Y-142119621D01*
X65011952Y-141977693D01*
X65011949Y-141977691D01*
X64773692Y-141870883D01*
X64773690Y-141870882D01*
X64773689Y-141870882D01*
X64693255Y-141848778D01*
X64521918Y-141801694D01*
X64521911Y-141801692D01*
X64262526Y-141771748D01*
X64262524Y-141771748D01*
X64001603Y-141781749D01*
X63745279Y-141831460D01*
X63745273Y-141831461D01*
X63745273Y-141831462D01*
X63622402Y-141875591D01*
X63499526Y-141919723D01*
X63499523Y-141919725D01*
X63270143Y-142044458D01*
X63062488Y-142202746D01*
X63062478Y-142202755D01*
X62881423Y-142390884D01*
X62881417Y-142390891D01*
X62731205Y-142604449D01*
X62731200Y-142604456D01*
X62615340Y-142838454D01*
X62536558Y-143087396D01*
X62496700Y-143345434D01*
X62496700Y-145641176D01*
X49276500Y-145641176D01*
X49276500Y-138938003D01*
X55452008Y-138938003D01*
X55471323Y-139134124D01*
X55471323Y-139134126D01*
X55528535Y-139322728D01*
X55621438Y-139496538D01*
X55621439Y-139496538D01*
X55746466Y-139648883D01*
X55898811Y-139773910D01*
X56072622Y-139866814D01*
X56261217Y-139924024D01*
X56261221Y-139924024D01*
X56261223Y-139924025D01*
X56457346Y-139943341D01*
X56457349Y-139943341D01*
X56457352Y-139943341D01*
X56653473Y-139924025D01*
X56653475Y-139924025D01*
X56653476Y-139924024D01*
X56653481Y-139924024D01*
X56842076Y-139866814D01*
X57015887Y-139773910D01*
X57168232Y-139648883D01*
X57293259Y-139496538D01*
X57386163Y-139322727D01*
X57443373Y-139134132D01*
X57462690Y-138938000D01*
X57443374Y-138741875D01*
X57443374Y-138741873D01*
X57443373Y-138741870D01*
X57443373Y-138741868D01*
X57386163Y-138553273D01*
X57293259Y-138379462D01*
X57168232Y-138227117D01*
X57015887Y-138102090D01*
X57015886Y-138102089D01*
X56842077Y-138009186D01*
X56653474Y-137951974D01*
X56457352Y-137932659D01*
X56457346Y-137932659D01*
X56261224Y-137951974D01*
X56261222Y-137951974D01*
X56072620Y-138009186D01*
X55898810Y-138102090D01*
X55746466Y-138227117D01*
X55621439Y-138379461D01*
X55528535Y-138553271D01*
X55471323Y-138741873D01*
X55471323Y-138741875D01*
X55452008Y-138937996D01*
X55452008Y-138938003D01*
X49276500Y-138938003D01*
X49276500Y-134465176D01*
X62496700Y-134465176D01*
X62511682Y-134660335D01*
X62511683Y-134660343D01*
X62511684Y-134660344D01*
X62571179Y-134914586D01*
X62571180Y-134914589D01*
X62571181Y-134914592D01*
X62668783Y-135156760D01*
X62668788Y-135156770D01*
X62802214Y-135381202D01*
X62802219Y-135381209D01*
X62968341Y-135582645D01*
X62968347Y-135582651D01*
X62968348Y-135582652D01*
X63163280Y-135756375D01*
X63163282Y-135756376D01*
X63163285Y-135756378D01*
X63382447Y-135898306D01*
X63382450Y-135898308D01*
X63563536Y-135979486D01*
X63620711Y-136005118D01*
X63872487Y-136074307D01*
X64131875Y-136104252D01*
X64392793Y-136094251D01*
X64649127Y-136044538D01*
X64894868Y-135956279D01*
X65124257Y-135831541D01*
X65331916Y-135673250D01*
X65512978Y-135485114D01*
X65663199Y-135271544D01*
X65779059Y-135037547D01*
X65857841Y-134788605D01*
X65872266Y-134695211D01*
X65897699Y-134530565D01*
X65897700Y-134530553D01*
X65897700Y-132234824D01*
X65882717Y-132039664D01*
X65882716Y-132039661D01*
X65882716Y-132039656D01*
X65823221Y-131785414D01*
X65725614Y-131543234D01*
X65592182Y-131318792D01*
X65550649Y-131268430D01*
X65426058Y-131117354D01*
X65426052Y-131117348D01*
X65324393Y-131026750D01*
X65231120Y-130943625D01*
X65231114Y-130943621D01*
X65011952Y-130801693D01*
X65011949Y-130801691D01*
X64773692Y-130694883D01*
X64773690Y-130694882D01*
X64773689Y-130694882D01*
X64693255Y-130672778D01*
X64521918Y-130625694D01*
X64521911Y-130625692D01*
X64262526Y-130595748D01*
X64262524Y-130595748D01*
X64001603Y-130605749D01*
X63745279Y-130655460D01*
X63745273Y-130655461D01*
X63745273Y-130655462D01*
X63622402Y-130699591D01*
X63499526Y-130743723D01*
X63499523Y-130743725D01*
X63270143Y-130868458D01*
X63062488Y-131026746D01*
X63062478Y-131026755D01*
X62881423Y-131214884D01*
X62881417Y-131214891D01*
X62731205Y-131428449D01*
X62731200Y-131428456D01*
X62615340Y-131662454D01*
X62536558Y-131911396D01*
X62496700Y-132169434D01*
X62496700Y-134465176D01*
X49276500Y-134465176D01*
X49276500Y-126591176D01*
X62496700Y-126591176D01*
X62511682Y-126786335D01*
X62511683Y-126786343D01*
X62511684Y-126786344D01*
X62571179Y-127040586D01*
X62571180Y-127040589D01*
X62571181Y-127040592D01*
X62668783Y-127282760D01*
X62668788Y-127282770D01*
X62802214Y-127507202D01*
X62802219Y-127507209D01*
X62968341Y-127708645D01*
X62968347Y-127708651D01*
X62968348Y-127708652D01*
X63163280Y-127882375D01*
X63163282Y-127882376D01*
X63163285Y-127882378D01*
X63382447Y-128024306D01*
X63382450Y-128024308D01*
X63563536Y-128105486D01*
X63620711Y-128131118D01*
X63872487Y-128200307D01*
X64131875Y-128230252D01*
X64392793Y-128220251D01*
X64649127Y-128170538D01*
X64894868Y-128082279D01*
X65124257Y-127957541D01*
X65331916Y-127799250D01*
X65512978Y-127611114D01*
X65663199Y-127397544D01*
X65779059Y-127163547D01*
X65857841Y-126914605D01*
X65872266Y-126821211D01*
X65897699Y-126656565D01*
X65897700Y-126656553D01*
X65897700Y-124360824D01*
X65882717Y-124165664D01*
X65882716Y-124165661D01*
X65882716Y-124165656D01*
X65823221Y-123911414D01*
X65725614Y-123669234D01*
X65592182Y-123444792D01*
X65550649Y-123394431D01*
X65426058Y-123243354D01*
X65426052Y-123243348D01*
X65324393Y-123152750D01*
X65231120Y-123069625D01*
X65231114Y-123069621D01*
X65011952Y-122927693D01*
X65011949Y-122927691D01*
X64773692Y-122820883D01*
X64773690Y-122820882D01*
X64773689Y-122820882D01*
X64693255Y-122798778D01*
X64521918Y-122751694D01*
X64521911Y-122751692D01*
X64262526Y-122721748D01*
X64262524Y-122721748D01*
X64001603Y-122731749D01*
X63745279Y-122781460D01*
X63745273Y-122781461D01*
X63745273Y-122781462D01*
X63622402Y-122825591D01*
X63499526Y-122869723D01*
X63499523Y-122869725D01*
X63270143Y-122994458D01*
X63062488Y-123152746D01*
X63062478Y-123152755D01*
X62881423Y-123340884D01*
X62881417Y-123340891D01*
X62731205Y-123554449D01*
X62731200Y-123554456D01*
X62615340Y-123788454D01*
X62536558Y-124037396D01*
X62496700Y-124295434D01*
X62496700Y-126591176D01*
X49276500Y-126591176D01*
X49276500Y-119888003D01*
X54922280Y-119888003D01*
X54941595Y-120084124D01*
X54941595Y-120084126D01*
X54998807Y-120272728D01*
X55091710Y-120446537D01*
X55091711Y-120446538D01*
X55216738Y-120598883D01*
X55369083Y-120723910D01*
X55542894Y-120816814D01*
X55731489Y-120874024D01*
X55731493Y-120874024D01*
X55731495Y-120874025D01*
X55927618Y-120893341D01*
X55927621Y-120893341D01*
X55927624Y-120893341D01*
X56123745Y-120874025D01*
X56123747Y-120874025D01*
X56123748Y-120874024D01*
X56123753Y-120874024D01*
X56312348Y-120816814D01*
X56486159Y-120723910D01*
X56638504Y-120598883D01*
X56763531Y-120446538D01*
X56856435Y-120272727D01*
X56913645Y-120084132D01*
X56932962Y-119888000D01*
X56913646Y-119691875D01*
X56913646Y-119691873D01*
X56913645Y-119691870D01*
X56913645Y-119691868D01*
X56856435Y-119503273D01*
X56763531Y-119329462D01*
X56638504Y-119177117D01*
X56486159Y-119052090D01*
X56312349Y-118959186D01*
X56123746Y-118901974D01*
X55927624Y-118882659D01*
X55927618Y-118882659D01*
X55731496Y-118901974D01*
X55731494Y-118901974D01*
X55542892Y-118959186D01*
X55369082Y-119052090D01*
X55216738Y-119177117D01*
X55091711Y-119329461D01*
X54998807Y-119503271D01*
X54941595Y-119691873D01*
X54941595Y-119691875D01*
X54922280Y-119887996D01*
X54922280Y-119888003D01*
X49276500Y-119888003D01*
X49276500Y-115415176D01*
X62496700Y-115415176D01*
X62511682Y-115610335D01*
X62511683Y-115610343D01*
X62511684Y-115610344D01*
X62571179Y-115864586D01*
X62571180Y-115864589D01*
X62571181Y-115864592D01*
X62668783Y-116106760D01*
X62668788Y-116106770D01*
X62802214Y-116331202D01*
X62802219Y-116331209D01*
X62968341Y-116532645D01*
X62968347Y-116532651D01*
X62968348Y-116532652D01*
X63163280Y-116706375D01*
X63163282Y-116706376D01*
X63163285Y-116706378D01*
X63382447Y-116848306D01*
X63382450Y-116848308D01*
X63563536Y-116929486D01*
X63620711Y-116955118D01*
X63872487Y-117024307D01*
X64131875Y-117054252D01*
X64392793Y-117044251D01*
X64649127Y-116994538D01*
X64894868Y-116906279D01*
X65124257Y-116781541D01*
X65331916Y-116623250D01*
X65512978Y-116435114D01*
X65663199Y-116221544D01*
X65779059Y-115987547D01*
X65857841Y-115738605D01*
X65872266Y-115645211D01*
X65897699Y-115480565D01*
X65897700Y-115480553D01*
X65897700Y-113184824D01*
X65882717Y-112989664D01*
X65882716Y-112989661D01*
X65882716Y-112989656D01*
X65823221Y-112735414D01*
X65725614Y-112493234D01*
X65592182Y-112268792D01*
X65550649Y-112218431D01*
X65426058Y-112067354D01*
X65426052Y-112067348D01*
X65324393Y-111976750D01*
X65231120Y-111893625D01*
X65231114Y-111893621D01*
X65011952Y-111751693D01*
X65011949Y-111751691D01*
X64773692Y-111644883D01*
X64773690Y-111644882D01*
X64773689Y-111644882D01*
X64693255Y-111622778D01*
X64521918Y-111575694D01*
X64521911Y-111575692D01*
X64262526Y-111545748D01*
X64262524Y-111545748D01*
X64001603Y-111555749D01*
X63745279Y-111605460D01*
X63745273Y-111605461D01*
X63745273Y-111605462D01*
X63622402Y-111649591D01*
X63499526Y-111693723D01*
X63499523Y-111693725D01*
X63270143Y-111818458D01*
X63062488Y-111976746D01*
X63062478Y-111976755D01*
X62881423Y-112164884D01*
X62881417Y-112164891D01*
X62731205Y-112378449D01*
X62731200Y-112378456D01*
X62615340Y-112612454D01*
X62536558Y-112861396D01*
X62496700Y-113119434D01*
X62496700Y-115415176D01*
X49276500Y-115415176D01*
X49276500Y-107541176D01*
X62496700Y-107541176D01*
X62511682Y-107736335D01*
X62511683Y-107736343D01*
X62511684Y-107736344D01*
X62571179Y-107990586D01*
X62571180Y-107990589D01*
X62571181Y-107990592D01*
X62668783Y-108232760D01*
X62668788Y-108232770D01*
X62802214Y-108457202D01*
X62802219Y-108457209D01*
X62968341Y-108658645D01*
X62968347Y-108658651D01*
X62968348Y-108658652D01*
X63163280Y-108832375D01*
X63163282Y-108832376D01*
X63163285Y-108832378D01*
X63382447Y-108974306D01*
X63382450Y-108974308D01*
X63563536Y-109055486D01*
X63620711Y-109081118D01*
X63872487Y-109150307D01*
X64131875Y-109180252D01*
X64392793Y-109170251D01*
X64649127Y-109120538D01*
X64894868Y-109032279D01*
X65124257Y-108907541D01*
X65331916Y-108749250D01*
X65512978Y-108561114D01*
X65663199Y-108347544D01*
X65779059Y-108113547D01*
X65857841Y-107864605D01*
X65872266Y-107771211D01*
X65897699Y-107606565D01*
X65897700Y-107606553D01*
X65897700Y-105310824D01*
X65882717Y-105115664D01*
X65882716Y-105115661D01*
X65882716Y-105115656D01*
X65823221Y-104861414D01*
X65725614Y-104619234D01*
X65592182Y-104394792D01*
X65550649Y-104344431D01*
X65426058Y-104193354D01*
X65426052Y-104193348D01*
X65324393Y-104102750D01*
X65231120Y-104019625D01*
X65231114Y-104019621D01*
X65011952Y-103877693D01*
X65011949Y-103877691D01*
X64773692Y-103770883D01*
X64773690Y-103770882D01*
X64773689Y-103770882D01*
X64693255Y-103748778D01*
X64521918Y-103701694D01*
X64521911Y-103701692D01*
X64262526Y-103671748D01*
X64262524Y-103671748D01*
X64001603Y-103681749D01*
X63745279Y-103731460D01*
X63745273Y-103731461D01*
X63745273Y-103731462D01*
X63622402Y-103775591D01*
X63499526Y-103819723D01*
X63499523Y-103819725D01*
X63270143Y-103944458D01*
X63062488Y-104102746D01*
X63062478Y-104102755D01*
X62881423Y-104290884D01*
X62881417Y-104290891D01*
X62731205Y-104504449D01*
X62731200Y-104504456D01*
X62615340Y-104738454D01*
X62536558Y-104987396D01*
X62496700Y-105245434D01*
X62496700Y-107541176D01*
X49276500Y-107541176D01*
X49276500Y-100838003D01*
X54922280Y-100838003D01*
X54941595Y-101034124D01*
X54941595Y-101034126D01*
X54998807Y-101222728D01*
X55091711Y-101396538D01*
X55216738Y-101548883D01*
X55369083Y-101673910D01*
X55542894Y-101766814D01*
X55731489Y-101824024D01*
X55731493Y-101824024D01*
X55731495Y-101824025D01*
X55927618Y-101843341D01*
X55927621Y-101843341D01*
X55927624Y-101843341D01*
X56123745Y-101824025D01*
X56123747Y-101824025D01*
X56123748Y-101824024D01*
X56123753Y-101824024D01*
X56312348Y-101766814D01*
X56486159Y-101673910D01*
X56638504Y-101548883D01*
X56763531Y-101396538D01*
X56856435Y-101222727D01*
X56913645Y-101034132D01*
X56932962Y-100838000D01*
X56913646Y-100641875D01*
X56913646Y-100641873D01*
X56913645Y-100641870D01*
X56913645Y-100641868D01*
X56856435Y-100453273D01*
X56763531Y-100279462D01*
X56638504Y-100127117D01*
X56486159Y-100002090D01*
X56486158Y-100002089D01*
X56312349Y-99909186D01*
X56123746Y-99851974D01*
X55927624Y-99832659D01*
X55927618Y-99832659D01*
X55731496Y-99851974D01*
X55731494Y-99851974D01*
X55542892Y-99909186D01*
X55369082Y-100002090D01*
X55216738Y-100127117D01*
X55091711Y-100279461D01*
X54998807Y-100453271D01*
X54941595Y-100641873D01*
X54941595Y-100641875D01*
X54922280Y-100837996D01*
X54922280Y-100838003D01*
X49276500Y-100838003D01*
X49276500Y-96365176D01*
X62496700Y-96365176D01*
X62511682Y-96560335D01*
X62511683Y-96560343D01*
X62511684Y-96560344D01*
X62571179Y-96814586D01*
X62571180Y-96814589D01*
X62571181Y-96814592D01*
X62668783Y-97056760D01*
X62668788Y-97056770D01*
X62802214Y-97281202D01*
X62802219Y-97281209D01*
X62968341Y-97482645D01*
X62968347Y-97482651D01*
X62968348Y-97482652D01*
X63163280Y-97656375D01*
X63163282Y-97656376D01*
X63163285Y-97656378D01*
X63382447Y-97798306D01*
X63382450Y-97798308D01*
X63563536Y-97879486D01*
X63620711Y-97905118D01*
X63872487Y-97974307D01*
X64131875Y-98004252D01*
X64392793Y-97994251D01*
X64649127Y-97944538D01*
X64894868Y-97856279D01*
X65124257Y-97731541D01*
X65331916Y-97573250D01*
X65512978Y-97385114D01*
X65663199Y-97171544D01*
X65779059Y-96937547D01*
X65857841Y-96688605D01*
X65872266Y-96595211D01*
X65897699Y-96430565D01*
X65897700Y-96430553D01*
X65897700Y-94134824D01*
X65882717Y-93939664D01*
X65882716Y-93939661D01*
X65882716Y-93939656D01*
X65823221Y-93685414D01*
X65725614Y-93443234D01*
X65592182Y-93218792D01*
X65550649Y-93168430D01*
X65426058Y-93017354D01*
X65426052Y-93017348D01*
X65324393Y-92926750D01*
X65231120Y-92843625D01*
X65231114Y-92843621D01*
X65011952Y-92701693D01*
X65011949Y-92701691D01*
X64773692Y-92594883D01*
X64773690Y-92594882D01*
X64773689Y-92594882D01*
X64693255Y-92572778D01*
X64521918Y-92525694D01*
X64521911Y-92525692D01*
X64262526Y-92495748D01*
X64262524Y-92495748D01*
X64001603Y-92505749D01*
X63745279Y-92555460D01*
X63745273Y-92555461D01*
X63745273Y-92555462D01*
X63622402Y-92599591D01*
X63499526Y-92643723D01*
X63499523Y-92643725D01*
X63270143Y-92768458D01*
X63062488Y-92926746D01*
X63062478Y-92926755D01*
X62881423Y-93114884D01*
X62881417Y-93114891D01*
X62731205Y-93328449D01*
X62731200Y-93328456D01*
X62615340Y-93562454D01*
X62536558Y-93811396D01*
X62496700Y-94069434D01*
X62496700Y-96365176D01*
X49276500Y-96365176D01*
X49276500Y-88491176D01*
X62496700Y-88491176D01*
X62511682Y-88686335D01*
X62511683Y-88686343D01*
X62511684Y-88686344D01*
X62571179Y-88940586D01*
X62571180Y-88940589D01*
X62571181Y-88940592D01*
X62668783Y-89182760D01*
X62668788Y-89182770D01*
X62802214Y-89407202D01*
X62802219Y-89407209D01*
X62968341Y-89608645D01*
X62968347Y-89608651D01*
X62968348Y-89608652D01*
X63163280Y-89782375D01*
X63163282Y-89782376D01*
X63163285Y-89782378D01*
X63382447Y-89924306D01*
X63382450Y-89924308D01*
X63563536Y-90005486D01*
X63620711Y-90031118D01*
X63872487Y-90100307D01*
X64131875Y-90130252D01*
X64392793Y-90120251D01*
X64649127Y-90070538D01*
X64894868Y-89982279D01*
X65124257Y-89857541D01*
X65331916Y-89699250D01*
X65512978Y-89511114D01*
X65663199Y-89297544D01*
X65779059Y-89063547D01*
X65857841Y-88814605D01*
X65872266Y-88721211D01*
X65897699Y-88556565D01*
X65897700Y-88556553D01*
X65897700Y-86260824D01*
X65882717Y-86065664D01*
X65882716Y-86065661D01*
X65882716Y-86065656D01*
X65823221Y-85811414D01*
X65725614Y-85569234D01*
X65592182Y-85344792D01*
X65550649Y-85294430D01*
X65426058Y-85143354D01*
X65426052Y-85143348D01*
X65324393Y-85052750D01*
X65231120Y-84969625D01*
X65231114Y-84969621D01*
X65011952Y-84827693D01*
X65011949Y-84827691D01*
X64773692Y-84720883D01*
X64773690Y-84720882D01*
X64773689Y-84720882D01*
X64693255Y-84698778D01*
X64521918Y-84651694D01*
X64521911Y-84651692D01*
X64262526Y-84621748D01*
X64262524Y-84621748D01*
X64001603Y-84631749D01*
X63745279Y-84681460D01*
X63745273Y-84681461D01*
X63745273Y-84681462D01*
X63622402Y-84725591D01*
X63499526Y-84769723D01*
X63499523Y-84769725D01*
X63270143Y-84894458D01*
X63062488Y-85052746D01*
X63062478Y-85052755D01*
X62881423Y-85240884D01*
X62881417Y-85240891D01*
X62731205Y-85454449D01*
X62731200Y-85454456D01*
X62615340Y-85688454D01*
X62536558Y-85937396D01*
X62496700Y-86195434D01*
X62496700Y-88491176D01*
X49276500Y-88491176D01*
X49276500Y-81406000D01*
X49296502Y-81337879D01*
X49350158Y-81291386D01*
X49402500Y-81280000D01*
X69851000Y-81280000D01*
X69919121Y-81300002D01*
G37*
%TD.AperFunction*%
%TD*%
M02*
