%TF.GenerationSoftware,KiCad,Pcbnew,7.0.7*%
%TF.CreationDate,2023-11-08T18:52:28-06:00*%
%TF.ProjectId,Science_Actuation,53636965-6e63-4655-9f41-637475617469,rev?*%
%TF.SameCoordinates,Original*%
%TF.FileFunction,Soldermask,Top*%
%TF.FilePolarity,Negative*%
%FSLAX46Y46*%
G04 Gerber Fmt 4.6, Leading zero omitted, Abs format (unit mm)*
G04 Created by KiCad (PCBNEW 7.0.7) date 2023-11-08 18:52:28*
%MOMM*%
%LPD*%
G01*
G04 APERTURE LIST*
G04 Aperture macros list*
%AMRoundRect*
0 Rectangle with rounded corners*
0 $1 Rounding radius*
0 $2 $3 $4 $5 $6 $7 $8 $9 X,Y pos of 4 corners*
0 Add a 4 corners polygon primitive as box body*
4,1,4,$2,$3,$4,$5,$6,$7,$8,$9,$2,$3,0*
0 Add four circle primitives for the rounded corners*
1,1,$1+$1,$2,$3*
1,1,$1+$1,$4,$5*
1,1,$1+$1,$6,$7*
1,1,$1+$1,$8,$9*
0 Add four rect primitives between the rounded corners*
20,1,$1+$1,$2,$3,$4,$5,0*
20,1,$1+$1,$4,$5,$6,$7,0*
20,1,$1+$1,$6,$7,$8,$9,0*
20,1,$1+$1,$8,$9,$2,$3,0*%
G04 Aperture macros list end*
%ADD10RoundRect,0.237500X-0.237500X0.250000X-0.237500X-0.250000X0.237500X-0.250000X0.237500X0.250000X0*%
%ADD11RoundRect,0.237500X0.237500X-0.287500X0.237500X0.287500X-0.237500X0.287500X-0.237500X-0.287500X0*%
%ADD12C,1.524000*%
%ADD13RoundRect,0.237500X-0.287500X-0.237500X0.287500X-0.237500X0.287500X0.237500X-0.287500X0.237500X0*%
%ADD14R,1.600000X1.400000*%
%ADD15RoundRect,0.237500X-0.237500X0.300000X-0.237500X-0.300000X0.237500X-0.300000X0.237500X0.300000X0*%
%ADD16RoundRect,0.150000X-0.150000X0.587500X-0.150000X-0.587500X0.150000X-0.587500X0.150000X0.587500X0*%
%ADD17RoundRect,0.237500X-0.250000X-0.237500X0.250000X-0.237500X0.250000X0.237500X-0.250000X0.237500X0*%
%ADD18RoundRect,0.237500X0.250000X0.237500X-0.250000X0.237500X-0.250000X-0.237500X0.250000X-0.237500X0*%
%ADD19O,3.000000X5.100000*%
%ADD20O,3.500000X2.200000*%
%ADD21R,2.500000X1.500000*%
%ADD22O,2.500000X1.500000*%
%ADD23C,1.100000*%
%ADD24C,1.400000*%
%ADD25C,4.000000*%
%ADD26C,2.000000*%
%ADD27RoundRect,0.237500X0.237500X-0.250000X0.237500X0.250000X-0.237500X0.250000X-0.237500X-0.250000X0*%
%ADD28R,1.600000X1.600000*%
%ADD29C,1.600000*%
%ADD30RoundRect,0.237500X0.287500X0.237500X-0.287500X0.237500X-0.287500X-0.237500X0.287500X-0.237500X0*%
%ADD31C,2.946400*%
%ADD32RoundRect,0.237500X-0.237500X0.287500X-0.237500X-0.287500X0.237500X-0.287500X0.237500X0.287500X0*%
%ADD33C,1.308000*%
%ADD34C,1.208000*%
%ADD35RoundRect,0.150000X-0.587500X-0.150000X0.587500X-0.150000X0.587500X0.150000X-0.587500X0.150000X0*%
%ADD36RoundRect,0.237500X-0.300000X-0.237500X0.300000X-0.237500X0.300000X0.237500X-0.300000X0.237500X0*%
%ADD37RoundRect,0.150000X0.587500X0.150000X-0.587500X0.150000X-0.587500X-0.150000X0.587500X-0.150000X0*%
G04 APERTURE END LIST*
D10*
%TO.C,R32*%
X84727422Y-25861000D03*
X84727422Y-27686000D03*
%TD*%
D11*
%TO.C,D23*%
X96157422Y-31976000D03*
X96157422Y-30226000D03*
%TD*%
D12*
%TO.C,QuadEncode1*%
X93617422Y-21844000D03*
X96157422Y-21844000D03*
X98697422Y-21844000D03*
X101237422Y-21844000D03*
X101237422Y-21844000D03*
%TD*%
%TO.C,U2*%
X112921422Y-35941000D03*
X110381422Y-35941000D03*
X107841422Y-35941000D03*
%TD*%
D13*
%TO.C,D21*%
X98825422Y-103420656D03*
X100575422Y-103420656D03*
%TD*%
%TO.C,D4*%
X52107500Y-24638000D03*
X53857500Y-24638000D03*
%TD*%
D14*
%TO.C,SW4*%
X87267422Y-97348656D03*
X94467422Y-97348656D03*
X87267422Y-100348656D03*
X94467422Y-100348656D03*
%TD*%
%TO.C,SW3*%
X106947422Y-87902656D03*
X114147422Y-87902656D03*
X106947422Y-90902656D03*
X114147422Y-90902656D03*
%TD*%
D12*
%TO.C,Conn13*%
X38626422Y-93218000D03*
X41166422Y-93218000D03*
%TD*%
%TO.C,Conn17*%
X42817422Y-65278000D03*
X40277422Y-65278000D03*
X37737422Y-65278000D03*
%TD*%
D15*
%TO.C,C4*%
X107841422Y-39370000D03*
X107841422Y-41095000D03*
%TD*%
D12*
%TO.C,Conn15*%
X23767422Y-59690000D03*
X23767422Y-57150000D03*
X23767422Y-54610000D03*
%TD*%
D16*
%TO.C,Q1*%
X23114000Y-91884500D03*
X22164000Y-90009500D03*
X24064000Y-90009500D03*
%TD*%
D13*
%TO.C,D13*%
X118470766Y-86324000D03*
X120220766Y-86324000D03*
%TD*%
D11*
%TO.C,D12*%
X95395422Y-41702000D03*
X95395422Y-39952000D03*
%TD*%
D10*
%TO.C,R34*%
X70981422Y-25908000D03*
X70981422Y-27733000D03*
%TD*%
D17*
%TO.C,R2*%
X37991422Y-24638000D03*
X39816422Y-24638000D03*
%TD*%
D18*
%TO.C,R23*%
X104620700Y-94300656D03*
X102795700Y-94300656D03*
%TD*%
D19*
%TO.C,Conn1*%
X109157800Y-48641000D03*
X109157800Y-56515000D03*
%TD*%
D13*
%TO.C,D3*%
X43344500Y-24638000D03*
X45094500Y-24638000D03*
%TD*%
D20*
%TO.C,SW10*%
X124351422Y-84292000D03*
X124351422Y-92492000D03*
D21*
X124351422Y-86392000D03*
D22*
X124351422Y-88392000D03*
X124351422Y-90392000D03*
%TD*%
D23*
%TO.C,J4*%
X109982000Y-76175000D03*
X107442000Y-74905000D03*
X109982000Y-73635000D03*
X107442000Y-72365000D03*
X109982000Y-71095000D03*
X107442000Y-69825000D03*
X109982000Y-68555000D03*
X107442000Y-67285000D03*
D24*
X121412000Y-78055000D03*
X119622000Y-75515000D03*
X121412000Y-67945000D03*
X119622000Y-65405000D03*
D25*
X116332000Y-77445000D03*
X116332000Y-66015000D03*
D26*
X113282000Y-79605000D03*
X113282000Y-63855000D03*
%TD*%
D11*
%TO.C,D27*%
X68441422Y-31976000D03*
X68441422Y-30226000D03*
%TD*%
%TO.C,D24*%
X98697422Y-31976000D03*
X98697422Y-30226000D03*
%TD*%
D18*
%TO.C,R17*%
X43134922Y-97155000D03*
X41309922Y-97155000D03*
%TD*%
D12*
%TO.C,Conn8*%
X37991422Y-37846000D03*
X35451422Y-37846000D03*
%TD*%
D18*
%TO.C,R24*%
X115415700Y-94300656D03*
X113590700Y-94300656D03*
%TD*%
D12*
%TO.C,Conn7*%
X47135422Y-37846000D03*
X44595422Y-37846000D03*
%TD*%
D27*
%TO.C,R13*%
X34831422Y-99083500D03*
X34831422Y-97258500D03*
%TD*%
D12*
%TO.C,Conn4*%
X44912922Y-30607000D03*
X47452922Y-30607000D03*
%TD*%
D18*
%TO.C,R20*%
X102588422Y-84878656D03*
X104413422Y-84878656D03*
%TD*%
D27*
%TO.C,R10*%
X98443422Y-45700000D03*
X98443422Y-43875000D03*
%TD*%
%TO.C,R15*%
X98443422Y-49680500D03*
X98443422Y-47855500D03*
%TD*%
D17*
%TO.C,R16*%
X55533922Y-96901000D03*
X57358922Y-96901000D03*
%TD*%
%TO.C,R3*%
X47107500Y-24638000D03*
X48932500Y-24638000D03*
%TD*%
D12*
%TO.C,QuadEncode3*%
X65931422Y-21844000D03*
X68471422Y-21844000D03*
X71011422Y-21844000D03*
X73551422Y-21844000D03*
X73551422Y-21844000D03*
%TD*%
D14*
%TO.C,SW6*%
X107079422Y-97348656D03*
X114279422Y-97348656D03*
X107079422Y-100348656D03*
X114279422Y-100348656D03*
%TD*%
D12*
%TO.C,QuadEncode2*%
X79647422Y-21844000D03*
X82187422Y-21844000D03*
X84727422Y-21844000D03*
X87267422Y-21844000D03*
X87267422Y-21844000D03*
%TD*%
%TO.C,Servo2*%
X48133000Y-109982000D03*
X45593000Y-109982000D03*
X43053000Y-109982000D03*
%TD*%
D15*
%TO.C,C3*%
X112921422Y-39370000D03*
X112921422Y-41095000D03*
%TD*%
D27*
%TO.C,R9*%
X43134922Y-87848250D03*
X43134922Y-86023250D03*
%TD*%
D12*
%TO.C,Conn10*%
X37737422Y-58674000D03*
X40277422Y-58674000D03*
X42817422Y-58674000D03*
%TD*%
D28*
%TO.C,C1*%
X102997000Y-53427621D03*
D29*
X102997000Y-55927621D03*
%TD*%
D13*
%TO.C,D18*%
X99060700Y-94300656D03*
X100810700Y-94300656D03*
%TD*%
D17*
%TO.C,R4*%
X56124500Y-24638000D03*
X57949500Y-24638000D03*
%TD*%
D12*
%TO.C,Conn14*%
X23767422Y-48514000D03*
X23767422Y-45974000D03*
X23767422Y-43434000D03*
%TD*%
%TO.C,Conn3*%
X35578422Y-30607000D03*
X38118422Y-30607000D03*
%TD*%
D27*
%TO.C,R33*%
X68471422Y-27733000D03*
X68471422Y-25908000D03*
%TD*%
D14*
%TO.C,SW1*%
X94379422Y-90950656D03*
X87179422Y-90950656D03*
X94379422Y-87950656D03*
X87179422Y-87950656D03*
%TD*%
D12*
%TO.C,Conn16*%
X23767422Y-70866000D03*
X23767422Y-68326000D03*
X23767422Y-65786000D03*
%TD*%
D27*
%TO.C,R31*%
X82187422Y-27629500D03*
X82187422Y-25804500D03*
%TD*%
D12*
%TO.C,Conn18*%
X23749000Y-81661000D03*
X23749000Y-79121000D03*
X23749000Y-76581000D03*
%TD*%
D18*
%TO.C,R5*%
X53889922Y-42926000D03*
X52064922Y-42926000D03*
%TD*%
D13*
%TO.C,D14*%
X88693422Y-84878656D03*
X90443422Y-84878656D03*
%TD*%
D30*
%TO.C,D7*%
X39722422Y-42926000D03*
X37972422Y-42926000D03*
%TD*%
D14*
%TO.C,SW8*%
X104413422Y-109420656D03*
X97213422Y-109420656D03*
X104413422Y-106420656D03*
X97213422Y-106420656D03*
%TD*%
D30*
%TO.C,D6*%
X48631422Y-42926000D03*
X46881422Y-42926000D03*
%TD*%
D13*
%TO.C,D19*%
X109827700Y-94300656D03*
X111577700Y-94300656D03*
%TD*%
D18*
%TO.C,R22*%
X93849200Y-94234000D03*
X92024200Y-94234000D03*
%TD*%
D14*
%TO.C,SW5*%
X97129422Y-97324656D03*
X104329422Y-97324656D03*
X97129422Y-100324656D03*
X104329422Y-100324656D03*
%TD*%
D31*
%TO.C,H4*%
X21664302Y-110672880D03*
%TD*%
D11*
%TO.C,D9*%
X95395422Y-49629000D03*
X95395422Y-47879000D03*
%TD*%
D12*
%TO.C,Conn12*%
X52532922Y-93091000D03*
X55072922Y-93091000D03*
%TD*%
D30*
%TO.C,D5*%
X57521422Y-42926000D03*
X55771422Y-42926000D03*
%TD*%
D13*
%TO.C,D15*%
X100321422Y-84878656D03*
X98571422Y-84878656D03*
%TD*%
D18*
%TO.C,R6*%
X44614422Y-42926000D03*
X42789422Y-42926000D03*
%TD*%
D12*
%TO.C,Conn5*%
X53802922Y-30607000D03*
X56342922Y-30607000D03*
%TD*%
D11*
%TO.C,D8*%
X95395422Y-45625000D03*
X95395422Y-43875000D03*
%TD*%
D13*
%TO.C,D2*%
X33796000Y-24638000D03*
X35546000Y-24638000D03*
%TD*%
D18*
%TO.C,R21*%
X112494422Y-84878656D03*
X114319422Y-84878656D03*
%TD*%
D14*
%TO.C,SW7*%
X94507422Y-109420656D03*
X87307422Y-109420656D03*
X94507422Y-106420656D03*
X87307422Y-106420656D03*
%TD*%
D32*
%TO.C,D1*%
X27940000Y-100633500D03*
X27940000Y-98883500D03*
%TD*%
D33*
%TO.C,U1*%
X66693422Y-45786656D03*
X66693422Y-48326656D03*
X66693422Y-50866656D03*
X66693422Y-53406656D03*
X66693422Y-78806656D03*
X81933422Y-48326656D03*
X66693422Y-55946656D03*
X66693422Y-58486656D03*
X66693422Y-61026656D03*
X66693422Y-63566656D03*
X66693422Y-66106656D03*
X66693422Y-68646656D03*
X66693422Y-71186656D03*
X66693422Y-73726656D03*
X66693422Y-76266656D03*
X81933422Y-76266656D03*
X81933422Y-73726656D03*
X81933422Y-71186656D03*
X81933422Y-68646656D03*
X81933422Y-66106656D03*
X81933422Y-63566656D03*
X81933422Y-61026656D03*
X81933422Y-58486656D03*
X81933422Y-55946656D03*
X81933422Y-53406656D03*
X81933422Y-50866656D03*
X66693422Y-81346656D03*
X66693422Y-83886656D03*
X66693422Y-86426656D03*
X66693422Y-88966656D03*
X66693422Y-91506656D03*
X66693422Y-94046656D03*
X66693422Y-96586656D03*
X66693422Y-99126656D03*
X66693422Y-101666656D03*
X81933422Y-101666656D03*
X81933422Y-99126656D03*
X81933422Y-96586656D03*
X81933422Y-94046656D03*
X81933422Y-91506656D03*
X81933422Y-88966656D03*
X81933422Y-86426656D03*
X81933422Y-83886656D03*
X81933422Y-81346656D03*
X66693422Y-43246656D03*
X81933422Y-78806656D03*
X81933422Y-45786656D03*
D34*
X77483422Y-58216656D03*
X77483422Y-56216656D03*
X79483422Y-56216656D03*
X79483422Y-58216656D03*
X75483422Y-58216656D03*
X75483422Y-56216656D03*
D33*
X81933422Y-43246656D03*
%TD*%
D35*
%TO.C,Q5*%
X36941922Y-97221000D03*
X36941922Y-99121000D03*
X38816922Y-98171000D03*
%TD*%
D12*
%TO.C,Servo1*%
X36975422Y-109982000D03*
X34435422Y-109982000D03*
X31895422Y-109982000D03*
%TD*%
D11*
%TO.C,D25*%
X82187422Y-31919500D03*
X82187422Y-30169500D03*
%TD*%
%TO.C,D28*%
X71011422Y-31976000D03*
X71011422Y-30226000D03*
%TD*%
D27*
%TO.C,R11*%
X48722922Y-97004500D03*
X48722922Y-98829500D03*
%TD*%
%TO.C,R8*%
X56342922Y-87653500D03*
X56342922Y-85828500D03*
%TD*%
D12*
%TO.C,Conn9*%
X55009422Y-65278000D03*
X52469422Y-65278000D03*
X49929422Y-65278000D03*
%TD*%
D27*
%TO.C,R12*%
X48722922Y-94728000D03*
X48722922Y-92903000D03*
%TD*%
D10*
%TO.C,R30*%
X98697422Y-26011500D03*
X98697422Y-27836500D03*
%TD*%
D12*
%TO.C,Conn11*%
X49929422Y-58674000D03*
X52469422Y-58674000D03*
X55009422Y-58674000D03*
%TD*%
D13*
%TO.C,D10*%
X55571422Y-98933000D03*
X57321422Y-98933000D03*
%TD*%
D18*
%TO.C,R25*%
X93645422Y-103444656D03*
X91820422Y-103444656D03*
%TD*%
D36*
%TO.C,C2*%
X102464000Y-80020344D03*
X104189000Y-80020344D03*
%TD*%
D27*
%TO.C,R18*%
X98443422Y-41777000D03*
X98443422Y-39952000D03*
%TD*%
D18*
%TO.C,R26*%
X104413422Y-103420656D03*
X102588422Y-103420656D03*
%TD*%
D31*
%TO.C,H2*%
X123264302Y-21772880D03*
%TD*%
D17*
%TO.C,R28*%
X118395766Y-90388000D03*
X120220766Y-90388000D03*
%TD*%
D13*
%TO.C,D20*%
X88057422Y-103444656D03*
X89807422Y-103444656D03*
%TD*%
D11*
%TO.C,D26*%
X84727422Y-31976000D03*
X84727422Y-30226000D03*
%TD*%
D18*
%TO.C,R7*%
X35705422Y-42926000D03*
X33880422Y-42926000D03*
%TD*%
D27*
%TO.C,R29*%
X96187422Y-27836500D03*
X96187422Y-26011500D03*
%TD*%
D37*
%TO.C,Q3*%
X40501422Y-87964250D03*
X40501422Y-86064250D03*
X38626422Y-87014250D03*
%TD*%
D31*
%TO.C,H3*%
X123264302Y-110672880D03*
%TD*%
D27*
%TO.C,R1*%
X27940000Y-94819500D03*
X27940000Y-96644500D03*
%TD*%
D13*
%TO.C,D16*%
X110509422Y-84878656D03*
X108759422Y-84878656D03*
%TD*%
%TO.C,D11*%
X41347422Y-99187000D03*
X43097422Y-99187000D03*
%TD*%
D18*
%TO.C,R19*%
X94300422Y-84878656D03*
X92475422Y-84878656D03*
%TD*%
D27*
%TO.C,R14*%
X34752922Y-94765500D03*
X34752922Y-92940500D03*
%TD*%
D35*
%TO.C,Q4*%
X51165922Y-96967000D03*
X51165922Y-98867000D03*
X53040922Y-97917000D03*
%TD*%
D31*
%TO.C,H1*%
X21670522Y-21779100D03*
%TD*%
D13*
%TO.C,D17*%
X88242200Y-94234000D03*
X89992200Y-94234000D03*
%TD*%
D37*
%TO.C,Q2*%
X53978422Y-87691000D03*
X53978422Y-85791000D03*
X52103422Y-86741000D03*
%TD*%
D14*
%TO.C,SW2*%
X97085422Y-87902656D03*
X104285422Y-87902656D03*
X97085422Y-90902656D03*
X104285422Y-90902656D03*
%TD*%
D12*
%TO.C,Conn6*%
X56279422Y-37846000D03*
X53739422Y-37846000D03*
%TD*%
%TO.C,Conn2*%
X23241000Y-96139000D03*
X23241000Y-98679000D03*
%TD*%
M02*
