%TF.GenerationSoftware,KiCad,Pcbnew,7.0.7*%
%TF.CreationDate,2023-11-08T18:52:28-06:00*%
%TF.ProjectId,Science_Actuation,53636965-6e63-4655-9f41-637475617469,rev?*%
%TF.SameCoordinates,Original*%
%TF.FileFunction,Soldermask,Bot*%
%TF.FilePolarity,Negative*%
%FSLAX46Y46*%
G04 Gerber Fmt 4.6, Leading zero omitted, Abs format (unit mm)*
G04 Created by KiCad (PCBNEW 7.0.7) date 2023-11-08 18:52:28*
%MOMM*%
%LPD*%
G01*
G04 APERTURE LIST*
%ADD10C,1.524000*%
%ADD11O,3.000000X5.100000*%
%ADD12O,3.500000X2.200000*%
%ADD13R,2.500000X1.500000*%
%ADD14O,2.500000X1.500000*%
%ADD15C,1.100000*%
%ADD16C,1.400000*%
%ADD17C,4.000000*%
%ADD18C,2.000000*%
%ADD19R,1.600000X1.600000*%
%ADD20C,1.600000*%
%ADD21C,2.946400*%
%ADD22C,1.308000*%
%ADD23C,1.208000*%
G04 APERTURE END LIST*
D10*
%TO.C,QuadEncode1*%
X93617422Y-21844000D03*
X96157422Y-21844000D03*
X98697422Y-21844000D03*
X101237422Y-21844000D03*
X101237422Y-21844000D03*
%TD*%
%TO.C,U2*%
X112921422Y-35941000D03*
X110381422Y-35941000D03*
X107841422Y-35941000D03*
%TD*%
%TO.C,Conn13*%
X38626422Y-93218000D03*
X41166422Y-93218000D03*
%TD*%
%TO.C,Conn17*%
X42817422Y-65278000D03*
X40277422Y-65278000D03*
X37737422Y-65278000D03*
%TD*%
%TO.C,Conn15*%
X23767422Y-59690000D03*
X23767422Y-57150000D03*
X23767422Y-54610000D03*
%TD*%
D11*
%TO.C,Conn1*%
X109157800Y-48641000D03*
X109157800Y-56515000D03*
%TD*%
D12*
%TO.C,SW10*%
X124351422Y-84292000D03*
X124351422Y-92492000D03*
D13*
X124351422Y-86392000D03*
D14*
X124351422Y-88392000D03*
X124351422Y-90392000D03*
%TD*%
D15*
%TO.C,J4*%
X109982000Y-76175000D03*
X107442000Y-74905000D03*
X109982000Y-73635000D03*
X107442000Y-72365000D03*
X109982000Y-71095000D03*
X107442000Y-69825000D03*
X109982000Y-68555000D03*
X107442000Y-67285000D03*
D16*
X121412000Y-78055000D03*
X119622000Y-75515000D03*
X121412000Y-67945000D03*
X119622000Y-65405000D03*
D17*
X116332000Y-77445000D03*
X116332000Y-66015000D03*
D18*
X113282000Y-79605000D03*
X113282000Y-63855000D03*
%TD*%
D10*
%TO.C,Conn8*%
X37991422Y-37846000D03*
X35451422Y-37846000D03*
%TD*%
%TO.C,Conn7*%
X47135422Y-37846000D03*
X44595422Y-37846000D03*
%TD*%
%TO.C,Conn4*%
X44912922Y-30607000D03*
X47452922Y-30607000D03*
%TD*%
%TO.C,QuadEncode3*%
X65931422Y-21844000D03*
X68471422Y-21844000D03*
X71011422Y-21844000D03*
X73551422Y-21844000D03*
X73551422Y-21844000D03*
%TD*%
%TO.C,QuadEncode2*%
X79647422Y-21844000D03*
X82187422Y-21844000D03*
X84727422Y-21844000D03*
X87267422Y-21844000D03*
X87267422Y-21844000D03*
%TD*%
%TO.C,Servo2*%
X48133000Y-109982000D03*
X45593000Y-109982000D03*
X43053000Y-109982000D03*
%TD*%
%TO.C,Conn10*%
X37737422Y-58674000D03*
X40277422Y-58674000D03*
X42817422Y-58674000D03*
%TD*%
D19*
%TO.C,C1*%
X102997000Y-53427621D03*
D20*
X102997000Y-55927621D03*
%TD*%
D10*
%TO.C,Conn14*%
X23767422Y-48514000D03*
X23767422Y-45974000D03*
X23767422Y-43434000D03*
%TD*%
%TO.C,Conn3*%
X35578422Y-30607000D03*
X38118422Y-30607000D03*
%TD*%
%TO.C,Conn16*%
X23767422Y-70866000D03*
X23767422Y-68326000D03*
X23767422Y-65786000D03*
%TD*%
%TO.C,Conn18*%
X23749000Y-81661000D03*
X23749000Y-79121000D03*
X23749000Y-76581000D03*
%TD*%
D21*
%TO.C,H4*%
X21664302Y-110672880D03*
%TD*%
D10*
%TO.C,Conn12*%
X52532922Y-93091000D03*
X55072922Y-93091000D03*
%TD*%
%TO.C,Conn5*%
X53802922Y-30607000D03*
X56342922Y-30607000D03*
%TD*%
D22*
%TO.C,U1*%
X66693422Y-45786656D03*
X66693422Y-48326656D03*
X66693422Y-50866656D03*
X66693422Y-53406656D03*
X66693422Y-78806656D03*
X81933422Y-48326656D03*
X66693422Y-55946656D03*
X66693422Y-58486656D03*
X66693422Y-61026656D03*
X66693422Y-63566656D03*
X66693422Y-66106656D03*
X66693422Y-68646656D03*
X66693422Y-71186656D03*
X66693422Y-73726656D03*
X66693422Y-76266656D03*
X81933422Y-76266656D03*
X81933422Y-73726656D03*
X81933422Y-71186656D03*
X81933422Y-68646656D03*
X81933422Y-66106656D03*
X81933422Y-63566656D03*
X81933422Y-61026656D03*
X81933422Y-58486656D03*
X81933422Y-55946656D03*
X81933422Y-53406656D03*
X81933422Y-50866656D03*
X66693422Y-81346656D03*
X66693422Y-83886656D03*
X66693422Y-86426656D03*
X66693422Y-88966656D03*
X66693422Y-91506656D03*
X66693422Y-94046656D03*
X66693422Y-96586656D03*
X66693422Y-99126656D03*
X66693422Y-101666656D03*
X81933422Y-101666656D03*
X81933422Y-99126656D03*
X81933422Y-96586656D03*
X81933422Y-94046656D03*
X81933422Y-91506656D03*
X81933422Y-88966656D03*
X81933422Y-86426656D03*
X81933422Y-83886656D03*
X81933422Y-81346656D03*
X66693422Y-43246656D03*
X81933422Y-78806656D03*
X81933422Y-45786656D03*
D23*
X77483422Y-58216656D03*
X77483422Y-56216656D03*
X79483422Y-56216656D03*
X79483422Y-58216656D03*
X75483422Y-58216656D03*
X75483422Y-56216656D03*
D22*
X81933422Y-43246656D03*
%TD*%
D10*
%TO.C,Servo1*%
X36975422Y-109982000D03*
X34435422Y-109982000D03*
X31895422Y-109982000D03*
%TD*%
%TO.C,Conn9*%
X55009422Y-65278000D03*
X52469422Y-65278000D03*
X49929422Y-65278000D03*
%TD*%
%TO.C,Conn11*%
X49929422Y-58674000D03*
X52469422Y-58674000D03*
X55009422Y-58674000D03*
%TD*%
D21*
%TO.C,H2*%
X123264302Y-21772880D03*
%TD*%
%TO.C,H3*%
X123264302Y-110672880D03*
%TD*%
%TO.C,H1*%
X21670522Y-21779100D03*
%TD*%
D10*
%TO.C,Conn6*%
X56279422Y-37846000D03*
X53739422Y-37846000D03*
%TD*%
%TO.C,Conn2*%
X23241000Y-96139000D03*
X23241000Y-98679000D03*
%TD*%
M02*
