%TF.GenerationSoftware,KiCad,Pcbnew,7.0.7*%
%TF.CreationDate,2024-04-08T21:33:58-05:00*%
%TF.ProjectId,Science_Actuation,53636965-6e63-4655-9f41-637475617469,rev?*%
%TF.SameCoordinates,Original*%
%TF.FileFunction,Soldermask,Top*%
%TF.FilePolarity,Negative*%
%FSLAX46Y46*%
G04 Gerber Fmt 4.6, Leading zero omitted, Abs format (unit mm)*
G04 Created by KiCad (PCBNEW 7.0.7) date 2024-04-08 21:33:58*
%MOMM*%
%LPD*%
G01*
G04 APERTURE LIST*
G04 Aperture macros list*
%AMRoundRect*
0 Rectangle with rounded corners*
0 $1 Rounding radius*
0 $2 $3 $4 $5 $6 $7 $8 $9 X,Y pos of 4 corners*
0 Add a 4 corners polygon primitive as box body*
4,1,4,$2,$3,$4,$5,$6,$7,$8,$9,$2,$3,0*
0 Add four circle primitives for the rounded corners*
1,1,$1+$1,$2,$3*
1,1,$1+$1,$4,$5*
1,1,$1+$1,$6,$7*
1,1,$1+$1,$8,$9*
0 Add four rect primitives between the rounded corners*
20,1,$1+$1,$2,$3,$4,$5,0*
20,1,$1+$1,$4,$5,$6,$7,0*
20,1,$1+$1,$6,$7,$8,$9,0*
20,1,$1+$1,$8,$9,$2,$3,0*%
G04 Aperture macros list end*
%ADD10C,1.100000*%
%ADD11C,1.400000*%
%ADD12C,4.000000*%
%ADD13C,2.000000*%
%ADD14C,1.524000*%
%ADD15RoundRect,0.150000X-0.825000X-0.150000X0.825000X-0.150000X0.825000X0.150000X-0.825000X0.150000X0*%
%ADD16R,1.600000X1.600000*%
%ADD17C,1.600000*%
%ADD18R,1.400000X1.600000*%
%ADD19RoundRect,0.237500X-0.250000X-0.237500X0.250000X-0.237500X0.250000X0.237500X-0.250000X0.237500X0*%
%ADD20RoundRect,0.237500X0.250000X0.237500X-0.250000X0.237500X-0.250000X-0.237500X0.250000X-0.237500X0*%
%ADD21RoundRect,0.237500X0.237500X-0.250000X0.237500X0.250000X-0.237500X0.250000X-0.237500X-0.250000X0*%
%ADD22RoundRect,0.237500X-0.300000X-0.237500X0.300000X-0.237500X0.300000X0.237500X-0.300000X0.237500X0*%
%ADD23C,2.946400*%
%ADD24RoundRect,0.237500X0.300000X0.237500X-0.300000X0.237500X-0.300000X-0.237500X0.300000X-0.237500X0*%
%ADD25RoundRect,0.237500X-0.237500X0.300000X-0.237500X-0.300000X0.237500X-0.300000X0.237500X0.300000X0*%
%ADD26O,3.500000X2.200000*%
%ADD27R,2.500000X1.500000*%
%ADD28O,2.500000X1.500000*%
%ADD29R,2.000000X2.000000*%
%ADD30RoundRect,0.237500X-0.237500X0.287500X-0.237500X-0.287500X0.237500X-0.287500X0.237500X0.287500X0*%
%ADD31RoundRect,0.237500X0.237500X-0.300000X0.237500X0.300000X-0.237500X0.300000X-0.237500X-0.300000X0*%
%ADD32C,1.308000*%
%ADD33C,1.208000*%
%ADD34RoundRect,0.237500X0.287500X0.237500X-0.287500X0.237500X-0.287500X-0.237500X0.287500X-0.237500X0*%
%ADD35O,3.000000X5.100000*%
%ADD36O,5.100000X3.000000*%
G04 APERTURE END LIST*
D10*
%TO.C,J1*%
X102870000Y-161752000D03*
X104140000Y-159212000D03*
X105410000Y-161752000D03*
X106680000Y-159212000D03*
X107950000Y-161752000D03*
X109220000Y-159212000D03*
X110490000Y-161752000D03*
X111760000Y-159212000D03*
D11*
X100990000Y-173182000D03*
X103530000Y-171392000D03*
X111100000Y-173182000D03*
X113640000Y-171392000D03*
D12*
X101600000Y-168102000D03*
X113030000Y-168102000D03*
D13*
X99440000Y-165052000D03*
X115190000Y-165052000D03*
%TD*%
D14*
%TO.C,Conn8*%
X126492000Y-121666000D03*
X126492000Y-119126000D03*
X126492000Y-116586000D03*
X126492000Y-114046000D03*
X126492000Y-114046000D03*
%TD*%
%TO.C,Conn9*%
X132588000Y-114046000D03*
X132588000Y-116586000D03*
X132588000Y-119126000D03*
X132588000Y-121666000D03*
X132588000Y-121666000D03*
%TD*%
%TO.C,Conn6*%
X126492000Y-135382000D03*
X126492000Y-132842000D03*
X126492000Y-130302000D03*
X126492000Y-127762000D03*
X126492000Y-127762000D03*
%TD*%
%TO.C,Conn7*%
X132588000Y-127762000D03*
X132588000Y-130302000D03*
X132588000Y-132842000D03*
X132588000Y-135382000D03*
X132588000Y-135382000D03*
%TD*%
%TO.C,Conn14*%
X127000000Y-158115000D03*
X127000000Y-155575000D03*
%TD*%
%TO.C,Conn10*%
X133096000Y-147193000D03*
X133096000Y-149733000D03*
%TD*%
D15*
%TO.C,U4*%
X71185000Y-124968000D03*
X71185000Y-126238000D03*
X71185000Y-127508000D03*
X71185000Y-128778000D03*
X71185000Y-130048000D03*
X71185000Y-131318000D03*
X71185000Y-132588000D03*
X71185000Y-133858000D03*
X76135000Y-133858000D03*
X76135000Y-132588000D03*
X76135000Y-131318000D03*
X76135000Y-130048000D03*
X76135000Y-128778000D03*
X76135000Y-127508000D03*
X76135000Y-126238000D03*
X76135000Y-124968000D03*
%TD*%
D16*
%TO.C,C3*%
X52957349Y-138938000D03*
D17*
X56457349Y-138938000D03*
%TD*%
D18*
%TO.C,SW3*%
X101509000Y-78855000D03*
X101509000Y-71655000D03*
X104509000Y-78855000D03*
X104509000Y-71655000D03*
%TD*%
D19*
%TO.C,R8*%
X82907500Y-147320000D03*
X84732500Y-147320000D03*
%TD*%
D20*
%TO.C,R5*%
X84732500Y-139192000D03*
X82907500Y-139192000D03*
%TD*%
D19*
%TO.C,R26*%
X82907500Y-90170000D03*
X84732500Y-90170000D03*
%TD*%
D21*
%TO.C,R2*%
X88194500Y-174545000D03*
X88194500Y-172720000D03*
%TD*%
D22*
%TO.C,C15*%
X82957500Y-113284000D03*
X84682500Y-113284000D03*
%TD*%
D15*
%TO.C,U6*%
X71185000Y-86868000D03*
X71185000Y-88138000D03*
X71185000Y-89408000D03*
X71185000Y-90678000D03*
X71185000Y-91948000D03*
X71185000Y-93218000D03*
X71185000Y-94488000D03*
X71185000Y-95758000D03*
X76135000Y-95758000D03*
X76135000Y-94488000D03*
X76135000Y-93218000D03*
X76135000Y-91948000D03*
X76135000Y-90678000D03*
X76135000Y-89408000D03*
X76135000Y-88138000D03*
X76135000Y-86868000D03*
%TD*%
D22*
%TO.C,C16*%
X82957500Y-94234000D03*
X84682500Y-94234000D03*
%TD*%
D23*
%TO.C,H2*%
X53340000Y-175260000D03*
%TD*%
D18*
%TO.C,SW6*%
X124369000Y-78855000D03*
X124369000Y-71655000D03*
X127369000Y-78855000D03*
X127369000Y-71655000D03*
%TD*%
D14*
%TO.C,Conn11*%
X133096000Y-155702000D03*
X133096000Y-158242000D03*
%TD*%
D15*
%TO.C,U5*%
X71185000Y-105918000D03*
X71185000Y-107188000D03*
X71185000Y-108458000D03*
X71185000Y-109728000D03*
X71185000Y-110998000D03*
X71185000Y-112268000D03*
X71185000Y-113538000D03*
X71185000Y-114808000D03*
X76135000Y-114808000D03*
X76135000Y-113538000D03*
X76135000Y-112268000D03*
X76135000Y-110998000D03*
X76135000Y-109728000D03*
X76135000Y-108458000D03*
X76135000Y-107188000D03*
X76135000Y-105918000D03*
%TD*%
D20*
%TO.C,R19*%
X84732500Y-105156000D03*
X82907500Y-105156000D03*
%TD*%
D24*
%TO.C,C8*%
X84682500Y-149352000D03*
X82957500Y-149352000D03*
%TD*%
D18*
%TO.C,SW2*%
X93889000Y-78855000D03*
X93889000Y-71655000D03*
X96889000Y-78855000D03*
X96889000Y-71655000D03*
%TD*%
D22*
%TO.C,C14*%
X82957500Y-132334000D03*
X84682500Y-132334000D03*
%TD*%
D20*
%TO.C,R4*%
X84732500Y-141224000D03*
X82907500Y-141224000D03*
%TD*%
D24*
%TO.C,C12*%
X95451000Y-132080000D03*
X93726000Y-132080000D03*
%TD*%
D14*
%TO.C,Conn17*%
X127000000Y-166624000D03*
X127000000Y-164084000D03*
%TD*%
%TO.C,Conn16*%
X126492000Y-104140000D03*
X126492000Y-101600000D03*
X126492000Y-99060000D03*
%TD*%
D25*
%TO.C,C6*%
X59436000Y-73305500D03*
X59436000Y-75030500D03*
%TD*%
D20*
%TO.C,R7*%
X84732500Y-143256000D03*
X82907500Y-143256000D03*
%TD*%
%TO.C,R16*%
X84732500Y-103124000D03*
X82907500Y-103124000D03*
%TD*%
D24*
%TO.C,C10*%
X84682500Y-111252000D03*
X82957500Y-111252000D03*
%TD*%
D18*
%TO.C,SW1*%
X86269000Y-78855000D03*
X86269000Y-71655000D03*
X89269000Y-78855000D03*
X89269000Y-71655000D03*
%TD*%
D20*
%TO.C,R10*%
X84732500Y-122174000D03*
X82907500Y-122174000D03*
%TD*%
D18*
%TO.C,SW4*%
X109129000Y-78855000D03*
X109129000Y-71655000D03*
X112129000Y-78855000D03*
X112129000Y-71655000D03*
%TD*%
%TO.C,SW5*%
X116749000Y-78855000D03*
X116749000Y-71655000D03*
X119749000Y-78855000D03*
X119749000Y-71655000D03*
%TD*%
D23*
%TO.C,H1*%
X53340000Y-73660000D03*
%TD*%
D14*
%TO.C,Conn12*%
X133096000Y-164211000D03*
X133096000Y-166751000D03*
%TD*%
D15*
%TO.C,U3*%
X71185000Y-144018000D03*
X71185000Y-145288000D03*
X71185000Y-146558000D03*
X71185000Y-147828000D03*
X71185000Y-149098000D03*
X71185000Y-150368000D03*
X71185000Y-151638000D03*
X71185000Y-152908000D03*
X76135000Y-152908000D03*
X76135000Y-151638000D03*
X76135000Y-150368000D03*
X76135000Y-149098000D03*
X76135000Y-147828000D03*
X76135000Y-146558000D03*
X76135000Y-145288000D03*
X76135000Y-144018000D03*
%TD*%
D26*
%TO.C,SW7*%
X136862500Y-83530000D03*
X136862500Y-91730000D03*
D27*
X136862500Y-85630000D03*
D28*
X136862500Y-87630000D03*
X136862500Y-89630000D03*
%TD*%
D19*
%TO.C,R27*%
X82907500Y-88138000D03*
X84732500Y-88138000D03*
%TD*%
D22*
%TO.C,C13*%
X82957500Y-151384000D03*
X84682500Y-151384000D03*
%TD*%
D14*
%TO.C,Conn15*%
X132588000Y-99060000D03*
X132588000Y-101600000D03*
X132588000Y-104140000D03*
%TD*%
%TO.C,U2*%
X62484000Y-78740000D03*
X62484000Y-76200000D03*
X62484000Y-73660000D03*
%TD*%
D20*
%TO.C,R24*%
X84732500Y-96266000D03*
X82907500Y-96266000D03*
%TD*%
D29*
%TO.C,C4*%
X52242323Y-157988000D03*
D13*
X57242323Y-157988000D03*
%TD*%
D30*
%TO.C,D1*%
X83114500Y-168035000D03*
X83114500Y-169785000D03*
%TD*%
%TO.C,D3*%
X93472000Y-168035000D03*
X93472000Y-169785000D03*
%TD*%
D16*
%TO.C,C1*%
X53427621Y-100838000D03*
D17*
X55927621Y-100838000D03*
%TD*%
D24*
%TO.C,C11*%
X84682500Y-92202000D03*
X82957500Y-92202000D03*
%TD*%
D31*
%TO.C,C5*%
X59436000Y-79094500D03*
X59436000Y-77369500D03*
%TD*%
D24*
%TO.C,C7*%
X110336500Y-155956000D03*
X108611500Y-155956000D03*
%TD*%
D21*
%TO.C,R3*%
X93472000Y-174545000D03*
X93472000Y-172720000D03*
%TD*%
D20*
%TO.C,R17*%
X84732500Y-101092000D03*
X82907500Y-101092000D03*
%TD*%
D19*
%TO.C,R21*%
X82907500Y-107188000D03*
X84732500Y-107188000D03*
%TD*%
D30*
%TO.C,D2*%
X88194500Y-168035000D03*
X88194500Y-169785000D03*
%TD*%
D21*
%TO.C,R1*%
X83114500Y-174545000D03*
X83114500Y-172720000D03*
%TD*%
D24*
%TO.C,C9*%
X84682500Y-130302000D03*
X82957500Y-130302000D03*
%TD*%
D20*
%TO.C,R22*%
X84732500Y-84074000D03*
X82907500Y-84074000D03*
%TD*%
D23*
%TO.C,H3*%
X135890000Y-175260000D03*
%TD*%
D19*
%TO.C,R15*%
X82907500Y-126238000D03*
X84732500Y-126238000D03*
%TD*%
%TO.C,R9*%
X82907500Y-145288000D03*
X84732500Y-145288000D03*
%TD*%
D23*
%TO.C,H4*%
X135890000Y-73660000D03*
%TD*%
D20*
%TO.C,R18*%
X84732500Y-115316000D03*
X82907500Y-115316000D03*
%TD*%
%TO.C,R11*%
X84732500Y-120142000D03*
X82907500Y-120142000D03*
%TD*%
D19*
%TO.C,R14*%
X82907500Y-128270000D03*
X84732500Y-128270000D03*
%TD*%
D16*
%TO.C,C2*%
X53427621Y-119888000D03*
D17*
X55927621Y-119888000D03*
%TD*%
D20*
%TO.C,R13*%
X84732500Y-124206000D03*
X82907500Y-124206000D03*
%TD*%
D14*
%TO.C,Conn13*%
X127000000Y-149606000D03*
X127000000Y-147066000D03*
%TD*%
D20*
%TO.C,R23*%
X84732500Y-82042000D03*
X82907500Y-82042000D03*
%TD*%
%TO.C,R12*%
X84732500Y-134366000D03*
X82907500Y-134366000D03*
%TD*%
D32*
%TO.C,U1*%
X100330000Y-96520000D03*
X100330000Y-99060000D03*
X100330000Y-101600000D03*
X100330000Y-104140000D03*
X100330000Y-129540000D03*
X115570000Y-99060000D03*
X100330000Y-106680000D03*
X100330000Y-109220000D03*
X100330000Y-111760000D03*
X100330000Y-114300000D03*
X100330000Y-116840000D03*
X100330000Y-119380000D03*
X100330000Y-121920000D03*
X100330000Y-124460000D03*
X100330000Y-127000000D03*
X115570000Y-127000000D03*
X115570000Y-124460000D03*
X115570000Y-121920000D03*
X115570000Y-119380000D03*
X115570000Y-116840000D03*
X115570000Y-114300000D03*
X115570000Y-111760000D03*
X115570000Y-109220000D03*
X115570000Y-106680000D03*
X115570000Y-104140000D03*
X115570000Y-101600000D03*
X100330000Y-132080000D03*
X100330000Y-134620000D03*
X100330000Y-137160000D03*
X100330000Y-139700000D03*
X100330000Y-142240000D03*
X100330000Y-144780000D03*
X100330000Y-147320000D03*
X100330000Y-149860000D03*
X100330000Y-152400000D03*
X115570000Y-152400000D03*
X115570000Y-149860000D03*
X115570000Y-147320000D03*
X115570000Y-144780000D03*
X115570000Y-142240000D03*
X115570000Y-139700000D03*
X115570000Y-137160000D03*
X115570000Y-134620000D03*
X115570000Y-132080000D03*
X100330000Y-93980000D03*
X115570000Y-129540000D03*
X115570000Y-96520000D03*
D33*
X111120000Y-108950000D03*
X111120000Y-106950000D03*
X113120000Y-106950000D03*
X113120000Y-108950000D03*
X109120000Y-108950000D03*
X109120000Y-106950000D03*
D32*
X115570000Y-93980000D03*
%TD*%
D34*
%TO.C,D4*%
X132744500Y-87630000D03*
X130994500Y-87630000D03*
%TD*%
D20*
%TO.C,R6*%
X84732500Y-153416000D03*
X82907500Y-153416000D03*
%TD*%
D19*
%TO.C,R20*%
X82907500Y-109220000D03*
X84732500Y-109220000D03*
%TD*%
D20*
%TO.C,R25*%
X84732500Y-86106000D03*
X82907500Y-86106000D03*
%TD*%
%TO.C,R28*%
X132782000Y-85598000D03*
X130957000Y-85598000D03*
%TD*%
D35*
%TO.C,Conn5*%
X64197200Y-95250000D03*
X64197200Y-87376000D03*
%TD*%
%TO.C,Conn4*%
X64197200Y-114300000D03*
X64197200Y-106426000D03*
%TD*%
D36*
%TO.C,Conn1*%
X73787000Y-161100800D03*
X65913000Y-161100800D03*
%TD*%
D35*
%TO.C,Conn2*%
X64197200Y-152400000D03*
X64197200Y-144526000D03*
%TD*%
%TO.C,Conn3*%
X64197200Y-133350000D03*
X64197200Y-125476000D03*
%TD*%
M02*
