M48
; DRILL file {KiCad 7.0.7} date Wed Nov  8 18:52:39 2023
; FORMAT={-:-/ absolute / inch / decimal}
; #@! TF.CreationDate,2023-11-08T18:52:39-06:00
; #@! TF.GenerationSoftware,Kicad,Pcbnew,7.0.7
; #@! TF.FileFunction,Plated,1,2,PTH
FMAT,2
INCH
; #@! TA.AperFunction,Plated,PTH,ViaDrill
T1C0.0157
; #@! TA.AperFunction,Plated,PTH,ComponentDrill
T2C0.0276
; #@! TA.AperFunction,Plated,PTH,ComponentDrill
T3C0.0315
; #@! TA.AperFunction,Plated,PTH,ComponentDrill
T4C0.0350
; #@! TA.AperFunction,Plated,PTH,ComponentDrill
T5C0.0354
; #@! TA.AperFunction,Plated,PTH,ComponentDrill
T6C0.0402
; #@! TA.AperFunction,Plated,PTH,ComponentDrill
T7C0.0591
; #@! TA.AperFunction,Plated,PTH,ComponentDrill
T8C0.0630
; #@! TA.AperFunction,Plated,PTH,ComponentDrill
T9C0.0787
; #@! TA.AperFunction,Plated,PTH,ComponentDrill
T10C0.1280
%
G90
G05
T1
X1.345Y-3.41
X1.4057Y-3.1
X1.825Y-2.595
X1.895Y-3.23
X1.915Y-2.955
X2.052Y-1.138
X2.121Y-3.916
X2.34Y-2.475
X2.3607Y-3.73
X2.375Y-2.09
X2.3971Y-1.13
X2.405Y-3.405
X2.4267Y-1.1559
X2.4564Y-1.1818
X2.6671Y-3.35
X2.795Y-2.905
X2.796Y-1.322
X2.87Y-2.415
X2.9086Y-2.4464
X3.02Y-2.45
X3.188Y-1.298
X3.375Y-4.01
X3.42Y-3.66
X3.465Y-1.965
X3.77Y-1.315
X3.785Y-4.115
X3.799Y-3.763
X4.175Y-1.735
X4.225Y-3.755
X4.545Y-4.21
X4.685Y-1.555
T2
X2.9718Y-2.2133
X2.9718Y-2.292
X3.0505Y-2.2133
X3.0505Y-2.292
X3.1293Y-2.2133
X3.1293Y-2.292
T3
X2.6257Y-1.7026
X2.6257Y-1.8026
X2.6257Y-1.9026
X2.6257Y-2.0026
X2.6257Y-2.1026
X2.6257Y-2.2026
X2.6257Y-2.3026
X2.6257Y-2.4026
X2.6257Y-2.5026
X2.6257Y-2.6026
X2.6257Y-2.7026
X2.6257Y-2.8026
X2.6257Y-2.9026
X2.6257Y-3.0026
X2.6257Y-3.1026
X2.6257Y-3.2026
X2.6257Y-3.3026
X2.6257Y-3.4026
X2.6257Y-3.5026
X2.6257Y-3.6026
X2.6257Y-3.7026
X2.6257Y-3.8026
X2.6257Y-3.9026
X2.6257Y-4.0026
X3.2257Y-1.7026
X3.2257Y-1.8026
X3.2257Y-1.9026
X3.2257Y-2.0026
X3.2257Y-2.1026
X3.2257Y-2.2026
X3.2257Y-2.3026
X3.2257Y-2.4026
X3.2257Y-2.5026
X3.2257Y-2.6026
X3.2257Y-2.7026
X3.2257Y-2.8026
X3.2257Y-2.9026
X3.2257Y-3.0026
X3.2257Y-3.1026
X3.2257Y-3.2026
X3.2257Y-3.3026
X3.2257Y-3.4026
X3.2257Y-3.5026
X3.2257Y-3.6026
X3.2257Y-3.7026
X3.2257Y-3.8026
X3.2257Y-3.9026
X3.2257Y-4.0026
X4.055Y-2.1034
X4.055Y-2.2019
X4.8957Y-3.4013
X4.8957Y-3.48
X4.8957Y-3.5587
T4
X4.2457Y-1.415
X4.3457Y-1.415
X4.4457Y-1.415
T5
X0.915Y-3.785
X0.915Y-3.885
X0.935Y-3.015
X0.935Y-3.115
X0.935Y-3.215
X0.9357Y-1.71
X0.9357Y-1.81
X0.9357Y-1.91
X0.9357Y-2.15
X0.9357Y-2.25
X0.9357Y-2.35
X0.9357Y-2.59
X0.9357Y-2.69
X0.9357Y-2.79
X1.2557Y-4.33
X1.3557Y-4.33
X1.3957Y-1.49
X1.4007Y-1.205
X1.4557Y-4.33
X1.4857Y-2.31
X1.4857Y-2.57
X1.4957Y-1.49
X1.5007Y-1.205
X1.5207Y-3.67
X1.5857Y-2.31
X1.5857Y-2.57
X1.6207Y-3.67
X1.6857Y-2.31
X1.6857Y-2.57
X1.695Y-4.33
X1.7557Y-1.49
X1.7682Y-1.205
X1.795Y-4.33
X1.8557Y-1.49
X1.8682Y-1.205
X1.895Y-4.33
X1.9657Y-2.31
X1.9657Y-2.57
X2.0657Y-2.31
X2.0657Y-2.57
X2.0682Y-3.665
X2.1157Y-1.49
X2.1182Y-1.205
X2.1657Y-2.31
X2.1657Y-2.57
X2.1682Y-3.665
X2.2157Y-1.49
X2.2182Y-1.205
X2.5957Y-0.86
X2.6957Y-0.86
X2.7957Y-0.86
X2.8957Y-0.86
X2.8957Y-0.86
X3.1357Y-0.86
X3.2357Y-0.86
X3.3357Y-0.86
X3.4357Y-0.86
X3.4357Y-0.86
X3.6857Y-0.86
X3.7857Y-0.86
X3.8857Y-0.86
X3.9857Y-0.86
X3.9857Y-0.86
X4.23Y-2.649
X4.23Y-2.749
X4.23Y-2.849
X4.23Y-2.949
X4.33Y-2.699
X4.33Y-2.799
X4.33Y-2.899
X4.33Y-2.999
T6
X4.7095Y-2.575
X4.7095Y-2.973
X4.78Y-2.675
X4.78Y-3.073
T7
X4.8957Y-3.3186
X4.8957Y-3.6414
T8
X4.4599Y-2.514
X4.4599Y-3.1341
T10
X4.58Y-2.599
X4.58Y-3.049
T9
G00X4.2976Y-1.9563
M15
G01X4.2976Y-1.8737
M16
G05
G00X4.2976Y-2.2663
M15
G01X4.2976Y-2.1837
M16
G05
T0
M30
