%TF.GenerationSoftware,KiCad,Pcbnew,7.0.7*%
%TF.CreationDate,2024-04-08T21:33:58-05:00*%
%TF.ProjectId,Science_Actuation,53636965-6e63-4655-9f41-637475617469,rev?*%
%TF.SameCoordinates,Original*%
%TF.FileFunction,Soldermask,Bot*%
%TF.FilePolarity,Negative*%
%FSLAX46Y46*%
G04 Gerber Fmt 4.6, Leading zero omitted, Abs format (unit mm)*
G04 Created by KiCad (PCBNEW 7.0.7) date 2024-04-08 21:33:58*
%MOMM*%
%LPD*%
G01*
G04 APERTURE LIST*
%ADD10C,1.100000*%
%ADD11C,1.400000*%
%ADD12C,4.000000*%
%ADD13C,2.000000*%
%ADD14C,1.524000*%
%ADD15R,1.600000X1.600000*%
%ADD16C,1.600000*%
%ADD17C,2.946400*%
%ADD18O,3.500000X2.200000*%
%ADD19R,2.500000X1.500000*%
%ADD20O,2.500000X1.500000*%
%ADD21R,2.000000X2.000000*%
%ADD22C,1.308000*%
%ADD23C,1.208000*%
%ADD24O,3.000000X5.100000*%
%ADD25O,5.100000X3.000000*%
G04 APERTURE END LIST*
D10*
%TO.C,J1*%
X102870000Y-161752000D03*
X104140000Y-159212000D03*
X105410000Y-161752000D03*
X106680000Y-159212000D03*
X107950000Y-161752000D03*
X109220000Y-159212000D03*
X110490000Y-161752000D03*
X111760000Y-159212000D03*
D11*
X100990000Y-173182000D03*
X103530000Y-171392000D03*
X111100000Y-173182000D03*
X113640000Y-171392000D03*
D12*
X101600000Y-168102000D03*
X113030000Y-168102000D03*
D13*
X99440000Y-165052000D03*
X115190000Y-165052000D03*
%TD*%
D14*
%TO.C,Conn8*%
X126492000Y-121666000D03*
X126492000Y-119126000D03*
X126492000Y-116586000D03*
X126492000Y-114046000D03*
X126492000Y-114046000D03*
%TD*%
%TO.C,Conn9*%
X132588000Y-114046000D03*
X132588000Y-116586000D03*
X132588000Y-119126000D03*
X132588000Y-121666000D03*
X132588000Y-121666000D03*
%TD*%
%TO.C,Conn6*%
X126492000Y-135382000D03*
X126492000Y-132842000D03*
X126492000Y-130302000D03*
X126492000Y-127762000D03*
X126492000Y-127762000D03*
%TD*%
%TO.C,Conn7*%
X132588000Y-127762000D03*
X132588000Y-130302000D03*
X132588000Y-132842000D03*
X132588000Y-135382000D03*
X132588000Y-135382000D03*
%TD*%
%TO.C,Conn14*%
X127000000Y-158115000D03*
X127000000Y-155575000D03*
%TD*%
%TO.C,Conn10*%
X133096000Y-147193000D03*
X133096000Y-149733000D03*
%TD*%
D15*
%TO.C,C3*%
X52957349Y-138938000D03*
D16*
X56457349Y-138938000D03*
%TD*%
D17*
%TO.C,H2*%
X53340000Y-175260000D03*
%TD*%
D14*
%TO.C,Conn11*%
X133096000Y-155702000D03*
X133096000Y-158242000D03*
%TD*%
%TO.C,Conn17*%
X127000000Y-166624000D03*
X127000000Y-164084000D03*
%TD*%
%TO.C,Conn16*%
X126492000Y-104140000D03*
X126492000Y-101600000D03*
X126492000Y-99060000D03*
%TD*%
D17*
%TO.C,H1*%
X53340000Y-73660000D03*
%TD*%
D14*
%TO.C,Conn12*%
X133096000Y-164211000D03*
X133096000Y-166751000D03*
%TD*%
D18*
%TO.C,SW7*%
X136862500Y-83530000D03*
X136862500Y-91730000D03*
D19*
X136862500Y-85630000D03*
D20*
X136862500Y-87630000D03*
X136862500Y-89630000D03*
%TD*%
D14*
%TO.C,Conn15*%
X132588000Y-99060000D03*
X132588000Y-101600000D03*
X132588000Y-104140000D03*
%TD*%
%TO.C,U2*%
X62484000Y-78740000D03*
X62484000Y-76200000D03*
X62484000Y-73660000D03*
%TD*%
D21*
%TO.C,C4*%
X52242323Y-157988000D03*
D13*
X57242323Y-157988000D03*
%TD*%
D15*
%TO.C,C1*%
X53427621Y-100838000D03*
D16*
X55927621Y-100838000D03*
%TD*%
D17*
%TO.C,H3*%
X135890000Y-175260000D03*
%TD*%
%TO.C,H4*%
X135890000Y-73660000D03*
%TD*%
D15*
%TO.C,C2*%
X53427621Y-119888000D03*
D16*
X55927621Y-119888000D03*
%TD*%
D14*
%TO.C,Conn13*%
X127000000Y-149606000D03*
X127000000Y-147066000D03*
%TD*%
D22*
%TO.C,U1*%
X100330000Y-96520000D03*
X100330000Y-99060000D03*
X100330000Y-101600000D03*
X100330000Y-104140000D03*
X100330000Y-129540000D03*
X115570000Y-99060000D03*
X100330000Y-106680000D03*
X100330000Y-109220000D03*
X100330000Y-111760000D03*
X100330000Y-114300000D03*
X100330000Y-116840000D03*
X100330000Y-119380000D03*
X100330000Y-121920000D03*
X100330000Y-124460000D03*
X100330000Y-127000000D03*
X115570000Y-127000000D03*
X115570000Y-124460000D03*
X115570000Y-121920000D03*
X115570000Y-119380000D03*
X115570000Y-116840000D03*
X115570000Y-114300000D03*
X115570000Y-111760000D03*
X115570000Y-109220000D03*
X115570000Y-106680000D03*
X115570000Y-104140000D03*
X115570000Y-101600000D03*
X100330000Y-132080000D03*
X100330000Y-134620000D03*
X100330000Y-137160000D03*
X100330000Y-139700000D03*
X100330000Y-142240000D03*
X100330000Y-144780000D03*
X100330000Y-147320000D03*
X100330000Y-149860000D03*
X100330000Y-152400000D03*
X115570000Y-152400000D03*
X115570000Y-149860000D03*
X115570000Y-147320000D03*
X115570000Y-144780000D03*
X115570000Y-142240000D03*
X115570000Y-139700000D03*
X115570000Y-137160000D03*
X115570000Y-134620000D03*
X115570000Y-132080000D03*
X100330000Y-93980000D03*
X115570000Y-129540000D03*
X115570000Y-96520000D03*
D23*
X111120000Y-108950000D03*
X111120000Y-106950000D03*
X113120000Y-106950000D03*
X113120000Y-108950000D03*
X109120000Y-108950000D03*
X109120000Y-106950000D03*
D22*
X115570000Y-93980000D03*
%TD*%
D24*
%TO.C,Conn5*%
X64197200Y-95250000D03*
X64197200Y-87376000D03*
%TD*%
%TO.C,Conn4*%
X64197200Y-114300000D03*
X64197200Y-106426000D03*
%TD*%
D25*
%TO.C,Conn1*%
X73787000Y-161100800D03*
X65913000Y-161100800D03*
%TD*%
D24*
%TO.C,Conn2*%
X64197200Y-152400000D03*
X64197200Y-144526000D03*
%TD*%
%TO.C,Conn3*%
X64197200Y-133350000D03*
X64197200Y-125476000D03*
%TD*%
M02*
