M48
; DRILL file {KiCad 7.0.7} date Mon Apr  8 21:34:04 2024
; FORMAT={-:-/ absolute / inch / decimal}
; #@! TF.CreationDate,2024-04-08T21:34:04-05:00
; #@! TF.GenerationSoftware,Kicad,Pcbnew,7.0.7
; #@! TF.FileFunction,Plated,1,2,PTH
FMAT,2
INCH
; #@! TA.AperFunction,Plated,PTH,ViaDrill
T1C0.0157
; #@! TA.AperFunction,Plated,PTH,ComponentDrill
T2C0.0276
; #@! TA.AperFunction,Plated,PTH,ComponentDrill
T3C0.0315
; #@! TA.AperFunction,Plated,PTH,ComponentDrill
T4C0.0350
; #@! TA.AperFunction,Plated,PTH,ComponentDrill
T5C0.0354
; #@! TA.AperFunction,Plated,PTH,ComponentDrill
T6C0.0394
; #@! TA.AperFunction,Plated,PTH,ComponentDrill
T7C0.0402
; #@! TA.AperFunction,Plated,PTH,ComponentDrill
T8C0.0591
; #@! TA.AperFunction,Plated,PTH,ComponentDrill
T9C0.0630
; #@! TA.AperFunction,Plated,PTH,ComponentDrill
T10C0.0787
; #@! TA.AperFunction,Plated,PTH,ComponentDrill
T11C0.1280
%
G90
G05
T1
X2.58Y-3.595
X2.58Y-4.345
X2.58Y-5.095
X2.58Y-5.845
X2.62Y-3.555
X2.62Y-3.635
X2.62Y-4.305
X2.62Y-4.385
X2.62Y-5.055
X2.62Y-5.135
X2.62Y-5.805
X2.62Y-5.885
X2.66Y-3.595
X2.66Y-4.345
X2.66Y-5.095
X2.66Y-5.845
X2.7Y-3.555
X2.7Y-3.635
X2.7Y-4.305
X2.7Y-4.385
X2.7Y-5.055
X2.7Y-5.135
X2.7Y-5.805
X2.7Y-5.885
X2.72Y-6.94
X2.78Y-3.31
X2.78Y-3.37
X2.78Y-3.82
X2.78Y-3.88
X2.78Y-4.06
X2.78Y-4.12
X2.78Y-4.57
X2.78Y-4.63
X2.78Y-4.81
X2.78Y-4.87
X2.78Y-5.32
X2.78Y-5.38
X2.78Y-5.56
X2.78Y-5.62
X2.78Y-6.07
X2.78Y-6.13
X2.84Y-3.31
X2.84Y-3.37
X2.84Y-3.82
X2.84Y-3.88
X2.84Y-4.06
X2.84Y-4.12
X2.84Y-4.57
X2.84Y-4.63
X2.84Y-4.81
X2.84Y-4.87
X2.84Y-5.32
X2.84Y-5.38
X2.84Y-5.56
X2.84Y-5.62
X2.84Y-6.07
X2.84Y-6.13
X2.9Y-3.31
X2.9Y-3.37
X2.9Y-3.555
X2.9Y-3.635
X2.9Y-3.82
X2.9Y-3.88
X2.9Y-4.06
X2.9Y-4.12
X2.9Y-4.305
X2.9Y-4.385
X2.9Y-4.57
X2.9Y-4.63
X2.9Y-4.81
X2.9Y-4.87
X2.9Y-5.055
X2.9Y-5.135
X2.9Y-5.32
X2.9Y-5.38
X2.9Y-5.56
X2.9Y-5.62
X2.9Y-5.805
X2.9Y-5.885
X2.9Y-6.07
X2.9Y-6.13
X2.96Y-3.31
X2.96Y-3.37
X2.96Y-3.82
X2.96Y-3.88
X2.96Y-4.06
X2.96Y-4.12
X2.96Y-4.57
X2.96Y-4.63
X2.96Y-4.81
X2.96Y-4.87
X2.96Y-5.32
X2.96Y-5.38
X2.96Y-5.56
X2.96Y-5.62
X2.96Y-6.07
X2.96Y-6.13
X3.02Y-3.31
X3.02Y-3.37
X3.02Y-3.82
X3.02Y-3.88
X3.02Y-4.06
X3.02Y-4.12
X3.02Y-4.57
X3.02Y-4.63
X3.02Y-4.81
X3.02Y-4.87
X3.02Y-5.32
X3.02Y-5.38
X3.02Y-5.56
X3.02Y-5.62
X3.02Y-6.07
X3.02Y-6.13
X3.12Y-3.595
X3.12Y-3.655
X3.12Y-4.345
X3.12Y-4.405
X3.12Y-5.095
X3.12Y-5.155
X3.12Y-5.845
X3.12Y-5.905
X3.18Y-3.535
X3.18Y-3.595
X3.18Y-3.655
X3.18Y-4.285
X3.18Y-4.345
X3.18Y-4.405
X3.18Y-5.035
X3.18Y-5.095
X3.18Y-5.155
X3.18Y-5.785
X3.18Y-5.845
X3.18Y-5.905
X3.2Y-6.2
X3.2Y-6.4
X3.2Y-6.6
X3.2Y-6.8
X3.4Y-3.0
X3.4Y-3.7
X3.4Y-4.4
X3.4Y-4.6
X3.4Y-5.2
X3.4Y-5.4
X3.4Y-6.2
X3.4Y-6.4
X3.4Y-6.6
X3.4Y-6.8
X3.5Y-5.8
X3.6Y-3.0
X3.6Y-3.4
X3.6Y-4.4
X3.6Y-4.6
X3.6Y-4.8
X3.6Y-5.2
X3.6Y-5.4
X3.6Y-6.0
X3.6Y-6.2
X3.6Y-6.4
X3.6Y-6.6
X3.6Y-6.8
X3.8Y-3.0
X3.8Y-3.4
X3.8Y-4.8
X3.8Y-5.4
X3.8Y-5.8
X3.8Y-6.0
X4.0Y-3.0
X4.0Y-3.4
X4.02Y-6.06
X4.2Y-3.4
X4.2Y-4.3
X4.4Y-3.0
X4.4Y-3.4
X4.6Y-3.0
X4.6Y-3.4
X4.8Y-3.0
X4.8Y-3.4
X5.0Y-3.0
X5.0Y-3.4
T2
X4.2961Y-4.2106
X4.2961Y-4.2894
X4.3748Y-4.2106
X4.3748Y-4.2894
X4.4535Y-4.2106
X4.4535Y-4.2894
T3
X2.0849Y-5.47
X2.1034Y-3.97
X2.1034Y-4.72
X2.2019Y-3.97
X2.2019Y-4.72
X2.2227Y-5.47
X3.95Y-3.7
X3.95Y-3.8
X3.95Y-3.9
X3.95Y-4.0
X3.95Y-4.1
X3.95Y-4.2
X3.95Y-4.3
X3.95Y-4.4
X3.95Y-4.5
X3.95Y-4.6
X3.95Y-4.7
X3.95Y-4.8
X3.95Y-4.9
X3.95Y-5.0
X3.95Y-5.1
X3.95Y-5.2
X3.95Y-5.3
X3.95Y-5.4
X3.95Y-5.5
X3.95Y-5.6
X3.95Y-5.7
X3.95Y-5.8
X3.95Y-5.9
X3.95Y-6.0
X4.55Y-3.7
X4.55Y-3.8
X4.55Y-3.9
X4.55Y-4.0
X4.55Y-4.1
X4.55Y-4.2
X4.55Y-4.3
X4.55Y-4.4
X4.55Y-4.5
X4.55Y-4.6
X4.55Y-4.7
X4.55Y-4.8
X4.55Y-4.9
X4.55Y-5.0
X4.55Y-5.1
X4.55Y-5.2
X4.55Y-5.3
X4.55Y-5.4
X4.55Y-5.5
X4.55Y-5.6
X4.55Y-5.7
X4.55Y-5.8
X4.55Y-5.9
X4.55Y-6.0
X5.3883Y-3.3713
X5.3883Y-3.45
X5.3883Y-3.5287
T4
X2.46Y-2.9
X2.46Y-3.0
X2.46Y-3.1
T5
X4.05Y-6.3682
X4.1Y-6.2682
X4.15Y-6.3682
X4.2Y-6.2682
X4.25Y-6.3682
X4.3Y-6.2682
X4.35Y-6.3682
X4.4Y-6.2682
X4.98Y-3.9
X4.98Y-4.0
X4.98Y-4.1
X4.98Y-4.49
X4.98Y-4.49
X4.98Y-4.59
X4.98Y-4.69
X4.98Y-4.79
X4.98Y-5.03
X4.98Y-5.03
X4.98Y-5.13
X4.98Y-5.23
X4.98Y-5.33
X5.0Y-5.79
X5.0Y-5.89
X5.0Y-6.125
X5.0Y-6.225
X5.0Y-6.46
X5.0Y-6.56
X5.22Y-3.9
X5.22Y-4.0
X5.22Y-4.1
X5.22Y-4.49
X5.22Y-4.59
X5.22Y-4.69
X5.22Y-4.79
X5.22Y-4.79
X5.22Y-5.03
X5.22Y-5.13
X5.22Y-5.23
X5.22Y-5.33
X5.22Y-5.33
X5.24Y-5.795
X5.24Y-5.895
X5.24Y-6.13
X5.24Y-6.23
X5.24Y-6.465
X5.24Y-6.565
T6
X2.0568Y-6.22
X2.2536Y-6.22
T7
X3.976Y-6.8182
X4.076Y-6.7477
X4.374Y-6.8182
X4.474Y-6.7477
T8
X5.3883Y-3.2886
X5.3883Y-3.6114
T9
X3.915Y-6.4981
X4.535Y-6.4981
T11
X4.0Y-6.6182
X4.45Y-6.6182
T10
G00X2.5274Y-3.3987
M15
G01X2.5274Y-3.4813
M16
G05
G00X2.5274Y-3.7087
M15
G01X2.5274Y-3.7913
M16
G05
G00X2.5274Y-4.1487
M15
G01X2.5274Y-4.2313
M16
G05
G00X2.5274Y-4.4587
M15
G01X2.5274Y-4.5413
M16
G05
G00X2.5274Y-4.8987
M15
G01X2.5274Y-4.9813
M16
G05
G00X2.5274Y-5.2087
M15
G01X2.5274Y-5.2913
M16
G05
G00X2.5274Y-5.6487
M15
G01X2.5274Y-5.7313
M16
G05
G00X2.5274Y-5.9587
M15
G01X2.5274Y-6.0413
M16
G05
G00X2.5537Y-6.3426
M15
G01X2.6363Y-6.3426
M16
G05
G00X2.8637Y-6.3426
M15
G01X2.9463Y-6.3426
M16
G05
T0
M30
