%TF.GenerationSoftware,KiCad,Pcbnew,7.0.7*%
%TF.CreationDate,2024-04-08T21:33:58-05:00*%
%TF.ProjectId,Science_Actuation,53636965-6e63-4655-9f41-637475617469,rev?*%
%TF.SameCoordinates,Original*%
%TF.FileFunction,Legend,Bot*%
%TF.FilePolarity,Positive*%
%FSLAX46Y46*%
G04 Gerber Fmt 4.6, Leading zero omitted, Abs format (unit mm)*
G04 Created by KiCad (PCBNEW 7.0.7) date 2024-04-08 21:33:58*
%MOMM*%
%LPD*%
G01*
G04 APERTURE LIST*
%ADD10C,0.150000*%
G04 APERTURE END LIST*
D10*
X60195609Y-82759580D02*
X60243228Y-82807200D01*
X60243228Y-82807200D02*
X60386085Y-82854819D01*
X60386085Y-82854819D02*
X60481323Y-82854819D01*
X60481323Y-82854819D02*
X60624180Y-82807200D01*
X60624180Y-82807200D02*
X60719418Y-82711961D01*
X60719418Y-82711961D02*
X60767037Y-82616723D01*
X60767037Y-82616723D02*
X60814656Y-82426247D01*
X60814656Y-82426247D02*
X60814656Y-82283390D01*
X60814656Y-82283390D02*
X60767037Y-82092914D01*
X60767037Y-82092914D02*
X60719418Y-81997676D01*
X60719418Y-81997676D02*
X60624180Y-81902438D01*
X60624180Y-81902438D02*
X60481323Y-81854819D01*
X60481323Y-81854819D02*
X60386085Y-81854819D01*
X60386085Y-81854819D02*
X60243228Y-81902438D01*
X60243228Y-81902438D02*
X60195609Y-81950057D01*
X59624180Y-82854819D02*
X59719418Y-82807200D01*
X59719418Y-82807200D02*
X59767037Y-82759580D01*
X59767037Y-82759580D02*
X59814656Y-82664342D01*
X59814656Y-82664342D02*
X59814656Y-82378628D01*
X59814656Y-82378628D02*
X59767037Y-82283390D01*
X59767037Y-82283390D02*
X59719418Y-82235771D01*
X59719418Y-82235771D02*
X59624180Y-82188152D01*
X59624180Y-82188152D02*
X59481323Y-82188152D01*
X59481323Y-82188152D02*
X59386085Y-82235771D01*
X59386085Y-82235771D02*
X59338466Y-82283390D01*
X59338466Y-82283390D02*
X59290847Y-82378628D01*
X59290847Y-82378628D02*
X59290847Y-82664342D01*
X59290847Y-82664342D02*
X59338466Y-82759580D01*
X59338466Y-82759580D02*
X59386085Y-82807200D01*
X59386085Y-82807200D02*
X59481323Y-82854819D01*
X59481323Y-82854819D02*
X59624180Y-82854819D01*
X58862275Y-82188152D02*
X58862275Y-82854819D01*
X58862275Y-82283390D02*
X58814656Y-82235771D01*
X58814656Y-82235771D02*
X58719418Y-82188152D01*
X58719418Y-82188152D02*
X58576561Y-82188152D01*
X58576561Y-82188152D02*
X58481323Y-82235771D01*
X58481323Y-82235771D02*
X58433704Y-82331009D01*
X58433704Y-82331009D02*
X58433704Y-82854819D01*
X57957513Y-82188152D02*
X57957513Y-82854819D01*
X57957513Y-82283390D02*
X57909894Y-82235771D01*
X57909894Y-82235771D02*
X57814656Y-82188152D01*
X57814656Y-82188152D02*
X57671799Y-82188152D01*
X57671799Y-82188152D02*
X57576561Y-82235771D01*
X57576561Y-82235771D02*
X57528942Y-82331009D01*
X57528942Y-82331009D02*
X57528942Y-82854819D01*
X56576561Y-81854819D02*
X57052751Y-81854819D01*
X57052751Y-81854819D02*
X57100370Y-82331009D01*
X57100370Y-82331009D02*
X57052751Y-82283390D01*
X57052751Y-82283390D02*
X56957513Y-82235771D01*
X56957513Y-82235771D02*
X56719418Y-82235771D01*
X56719418Y-82235771D02*
X56624180Y-82283390D01*
X56624180Y-82283390D02*
X56576561Y-82331009D01*
X56576561Y-82331009D02*
X56528942Y-82426247D01*
X56528942Y-82426247D02*
X56528942Y-82664342D01*
X56528942Y-82664342D02*
X56576561Y-82759580D01*
X56576561Y-82759580D02*
X56624180Y-82807200D01*
X56624180Y-82807200D02*
X56719418Y-82854819D01*
X56719418Y-82854819D02*
X56957513Y-82854819D01*
X56957513Y-82854819D02*
X57052751Y-82807200D01*
X57052751Y-82807200D02*
X57100370Y-82759580D01*
X61827580Y-108712190D02*
X61875200Y-108664571D01*
X61875200Y-108664571D02*
X61922819Y-108521714D01*
X61922819Y-108521714D02*
X61922819Y-108426476D01*
X61922819Y-108426476D02*
X61875200Y-108283619D01*
X61875200Y-108283619D02*
X61779961Y-108188381D01*
X61779961Y-108188381D02*
X61684723Y-108140762D01*
X61684723Y-108140762D02*
X61494247Y-108093143D01*
X61494247Y-108093143D02*
X61351390Y-108093143D01*
X61351390Y-108093143D02*
X61160914Y-108140762D01*
X61160914Y-108140762D02*
X61065676Y-108188381D01*
X61065676Y-108188381D02*
X60970438Y-108283619D01*
X60970438Y-108283619D02*
X60922819Y-108426476D01*
X60922819Y-108426476D02*
X60922819Y-108521714D01*
X60922819Y-108521714D02*
X60970438Y-108664571D01*
X60970438Y-108664571D02*
X61018057Y-108712190D01*
X61922819Y-109283619D02*
X61875200Y-109188381D01*
X61875200Y-109188381D02*
X61827580Y-109140762D01*
X61827580Y-109140762D02*
X61732342Y-109093143D01*
X61732342Y-109093143D02*
X61446628Y-109093143D01*
X61446628Y-109093143D02*
X61351390Y-109140762D01*
X61351390Y-109140762D02*
X61303771Y-109188381D01*
X61303771Y-109188381D02*
X61256152Y-109283619D01*
X61256152Y-109283619D02*
X61256152Y-109426476D01*
X61256152Y-109426476D02*
X61303771Y-109521714D01*
X61303771Y-109521714D02*
X61351390Y-109569333D01*
X61351390Y-109569333D02*
X61446628Y-109616952D01*
X61446628Y-109616952D02*
X61732342Y-109616952D01*
X61732342Y-109616952D02*
X61827580Y-109569333D01*
X61827580Y-109569333D02*
X61875200Y-109521714D01*
X61875200Y-109521714D02*
X61922819Y-109426476D01*
X61922819Y-109426476D02*
X61922819Y-109283619D01*
X61256152Y-110045524D02*
X61922819Y-110045524D01*
X61351390Y-110045524D02*
X61303771Y-110093143D01*
X61303771Y-110093143D02*
X61256152Y-110188381D01*
X61256152Y-110188381D02*
X61256152Y-110331238D01*
X61256152Y-110331238D02*
X61303771Y-110426476D01*
X61303771Y-110426476D02*
X61399009Y-110474095D01*
X61399009Y-110474095D02*
X61922819Y-110474095D01*
X61256152Y-110950286D02*
X61922819Y-110950286D01*
X61351390Y-110950286D02*
X61303771Y-110997905D01*
X61303771Y-110997905D02*
X61256152Y-111093143D01*
X61256152Y-111093143D02*
X61256152Y-111236000D01*
X61256152Y-111236000D02*
X61303771Y-111331238D01*
X61303771Y-111331238D02*
X61399009Y-111378857D01*
X61399009Y-111378857D02*
X61922819Y-111378857D01*
X61256152Y-112283619D02*
X61922819Y-112283619D01*
X60875200Y-112045524D02*
X61589485Y-111807429D01*
X61589485Y-111807429D02*
X61589485Y-112426476D01*
X61296580Y-165102390D02*
X61344200Y-165054771D01*
X61344200Y-165054771D02*
X61391819Y-164911914D01*
X61391819Y-164911914D02*
X61391819Y-164816676D01*
X61391819Y-164816676D02*
X61344200Y-164673819D01*
X61344200Y-164673819D02*
X61248961Y-164578581D01*
X61248961Y-164578581D02*
X61153723Y-164530962D01*
X61153723Y-164530962D02*
X60963247Y-164483343D01*
X60963247Y-164483343D02*
X60820390Y-164483343D01*
X60820390Y-164483343D02*
X60629914Y-164530962D01*
X60629914Y-164530962D02*
X60534676Y-164578581D01*
X60534676Y-164578581D02*
X60439438Y-164673819D01*
X60439438Y-164673819D02*
X60391819Y-164816676D01*
X60391819Y-164816676D02*
X60391819Y-164911914D01*
X60391819Y-164911914D02*
X60439438Y-165054771D01*
X60439438Y-165054771D02*
X60487057Y-165102390D01*
X61391819Y-165673819D02*
X61344200Y-165578581D01*
X61344200Y-165578581D02*
X61296580Y-165530962D01*
X61296580Y-165530962D02*
X61201342Y-165483343D01*
X61201342Y-165483343D02*
X60915628Y-165483343D01*
X60915628Y-165483343D02*
X60820390Y-165530962D01*
X60820390Y-165530962D02*
X60772771Y-165578581D01*
X60772771Y-165578581D02*
X60725152Y-165673819D01*
X60725152Y-165673819D02*
X60725152Y-165816676D01*
X60725152Y-165816676D02*
X60772771Y-165911914D01*
X60772771Y-165911914D02*
X60820390Y-165959533D01*
X60820390Y-165959533D02*
X60915628Y-166007152D01*
X60915628Y-166007152D02*
X61201342Y-166007152D01*
X61201342Y-166007152D02*
X61296580Y-165959533D01*
X61296580Y-165959533D02*
X61344200Y-165911914D01*
X61344200Y-165911914D02*
X61391819Y-165816676D01*
X61391819Y-165816676D02*
X61391819Y-165673819D01*
X60725152Y-166435724D02*
X61391819Y-166435724D01*
X60820390Y-166435724D02*
X60772771Y-166483343D01*
X60772771Y-166483343D02*
X60725152Y-166578581D01*
X60725152Y-166578581D02*
X60725152Y-166721438D01*
X60725152Y-166721438D02*
X60772771Y-166816676D01*
X60772771Y-166816676D02*
X60868009Y-166864295D01*
X60868009Y-166864295D02*
X61391819Y-166864295D01*
X60725152Y-167340486D02*
X61391819Y-167340486D01*
X60820390Y-167340486D02*
X60772771Y-167388105D01*
X60772771Y-167388105D02*
X60725152Y-167483343D01*
X60725152Y-167483343D02*
X60725152Y-167626200D01*
X60725152Y-167626200D02*
X60772771Y-167721438D01*
X60772771Y-167721438D02*
X60868009Y-167769057D01*
X60868009Y-167769057D02*
X61391819Y-167769057D01*
X61391819Y-168769057D02*
X61391819Y-168197629D01*
X61391819Y-168483343D02*
X60391819Y-168483343D01*
X60391819Y-168483343D02*
X60534676Y-168388105D01*
X60534676Y-168388105D02*
X60629914Y-168292867D01*
X60629914Y-168292867D02*
X60677533Y-168197629D01*
X61827580Y-146939190D02*
X61875200Y-146891571D01*
X61875200Y-146891571D02*
X61922819Y-146748714D01*
X61922819Y-146748714D02*
X61922819Y-146653476D01*
X61922819Y-146653476D02*
X61875200Y-146510619D01*
X61875200Y-146510619D02*
X61779961Y-146415381D01*
X61779961Y-146415381D02*
X61684723Y-146367762D01*
X61684723Y-146367762D02*
X61494247Y-146320143D01*
X61494247Y-146320143D02*
X61351390Y-146320143D01*
X61351390Y-146320143D02*
X61160914Y-146367762D01*
X61160914Y-146367762D02*
X61065676Y-146415381D01*
X61065676Y-146415381D02*
X60970438Y-146510619D01*
X60970438Y-146510619D02*
X60922819Y-146653476D01*
X60922819Y-146653476D02*
X60922819Y-146748714D01*
X60922819Y-146748714D02*
X60970438Y-146891571D01*
X60970438Y-146891571D02*
X61018057Y-146939190D01*
X61922819Y-147510619D02*
X61875200Y-147415381D01*
X61875200Y-147415381D02*
X61827580Y-147367762D01*
X61827580Y-147367762D02*
X61732342Y-147320143D01*
X61732342Y-147320143D02*
X61446628Y-147320143D01*
X61446628Y-147320143D02*
X61351390Y-147367762D01*
X61351390Y-147367762D02*
X61303771Y-147415381D01*
X61303771Y-147415381D02*
X61256152Y-147510619D01*
X61256152Y-147510619D02*
X61256152Y-147653476D01*
X61256152Y-147653476D02*
X61303771Y-147748714D01*
X61303771Y-147748714D02*
X61351390Y-147796333D01*
X61351390Y-147796333D02*
X61446628Y-147843952D01*
X61446628Y-147843952D02*
X61732342Y-147843952D01*
X61732342Y-147843952D02*
X61827580Y-147796333D01*
X61827580Y-147796333D02*
X61875200Y-147748714D01*
X61875200Y-147748714D02*
X61922819Y-147653476D01*
X61922819Y-147653476D02*
X61922819Y-147510619D01*
X61256152Y-148272524D02*
X61922819Y-148272524D01*
X61351390Y-148272524D02*
X61303771Y-148320143D01*
X61303771Y-148320143D02*
X61256152Y-148415381D01*
X61256152Y-148415381D02*
X61256152Y-148558238D01*
X61256152Y-148558238D02*
X61303771Y-148653476D01*
X61303771Y-148653476D02*
X61399009Y-148701095D01*
X61399009Y-148701095D02*
X61922819Y-148701095D01*
X61256152Y-149177286D02*
X61922819Y-149177286D01*
X61351390Y-149177286D02*
X61303771Y-149224905D01*
X61303771Y-149224905D02*
X61256152Y-149320143D01*
X61256152Y-149320143D02*
X61256152Y-149463000D01*
X61256152Y-149463000D02*
X61303771Y-149558238D01*
X61303771Y-149558238D02*
X61399009Y-149605857D01*
X61399009Y-149605857D02*
X61922819Y-149605857D01*
X61018057Y-150034429D02*
X60970438Y-150082048D01*
X60970438Y-150082048D02*
X60922819Y-150177286D01*
X60922819Y-150177286D02*
X60922819Y-150415381D01*
X60922819Y-150415381D02*
X60970438Y-150510619D01*
X60970438Y-150510619D02*
X61018057Y-150558238D01*
X61018057Y-150558238D02*
X61113295Y-150605857D01*
X61113295Y-150605857D02*
X61208533Y-150605857D01*
X61208533Y-150605857D02*
X61351390Y-150558238D01*
X61351390Y-150558238D02*
X61922819Y-149986810D01*
X61922819Y-149986810D02*
X61922819Y-150605857D01*
X61827580Y-128016190D02*
X61875200Y-127968571D01*
X61875200Y-127968571D02*
X61922819Y-127825714D01*
X61922819Y-127825714D02*
X61922819Y-127730476D01*
X61922819Y-127730476D02*
X61875200Y-127587619D01*
X61875200Y-127587619D02*
X61779961Y-127492381D01*
X61779961Y-127492381D02*
X61684723Y-127444762D01*
X61684723Y-127444762D02*
X61494247Y-127397143D01*
X61494247Y-127397143D02*
X61351390Y-127397143D01*
X61351390Y-127397143D02*
X61160914Y-127444762D01*
X61160914Y-127444762D02*
X61065676Y-127492381D01*
X61065676Y-127492381D02*
X60970438Y-127587619D01*
X60970438Y-127587619D02*
X60922819Y-127730476D01*
X60922819Y-127730476D02*
X60922819Y-127825714D01*
X60922819Y-127825714D02*
X60970438Y-127968571D01*
X60970438Y-127968571D02*
X61018057Y-128016190D01*
X61922819Y-128587619D02*
X61875200Y-128492381D01*
X61875200Y-128492381D02*
X61827580Y-128444762D01*
X61827580Y-128444762D02*
X61732342Y-128397143D01*
X61732342Y-128397143D02*
X61446628Y-128397143D01*
X61446628Y-128397143D02*
X61351390Y-128444762D01*
X61351390Y-128444762D02*
X61303771Y-128492381D01*
X61303771Y-128492381D02*
X61256152Y-128587619D01*
X61256152Y-128587619D02*
X61256152Y-128730476D01*
X61256152Y-128730476D02*
X61303771Y-128825714D01*
X61303771Y-128825714D02*
X61351390Y-128873333D01*
X61351390Y-128873333D02*
X61446628Y-128920952D01*
X61446628Y-128920952D02*
X61732342Y-128920952D01*
X61732342Y-128920952D02*
X61827580Y-128873333D01*
X61827580Y-128873333D02*
X61875200Y-128825714D01*
X61875200Y-128825714D02*
X61922819Y-128730476D01*
X61922819Y-128730476D02*
X61922819Y-128587619D01*
X61256152Y-129349524D02*
X61922819Y-129349524D01*
X61351390Y-129349524D02*
X61303771Y-129397143D01*
X61303771Y-129397143D02*
X61256152Y-129492381D01*
X61256152Y-129492381D02*
X61256152Y-129635238D01*
X61256152Y-129635238D02*
X61303771Y-129730476D01*
X61303771Y-129730476D02*
X61399009Y-129778095D01*
X61399009Y-129778095D02*
X61922819Y-129778095D01*
X61256152Y-130254286D02*
X61922819Y-130254286D01*
X61351390Y-130254286D02*
X61303771Y-130301905D01*
X61303771Y-130301905D02*
X61256152Y-130397143D01*
X61256152Y-130397143D02*
X61256152Y-130540000D01*
X61256152Y-130540000D02*
X61303771Y-130635238D01*
X61303771Y-130635238D02*
X61399009Y-130682857D01*
X61399009Y-130682857D02*
X61922819Y-130682857D01*
X60922819Y-131063810D02*
X60922819Y-131682857D01*
X60922819Y-131682857D02*
X61303771Y-131349524D01*
X61303771Y-131349524D02*
X61303771Y-131492381D01*
X61303771Y-131492381D02*
X61351390Y-131587619D01*
X61351390Y-131587619D02*
X61399009Y-131635238D01*
X61399009Y-131635238D02*
X61494247Y-131682857D01*
X61494247Y-131682857D02*
X61732342Y-131682857D01*
X61732342Y-131682857D02*
X61827580Y-131635238D01*
X61827580Y-131635238D02*
X61875200Y-131587619D01*
X61875200Y-131587619D02*
X61922819Y-131492381D01*
X61922819Y-131492381D02*
X61922819Y-131206667D01*
X61922819Y-131206667D02*
X61875200Y-131111429D01*
X61875200Y-131111429D02*
X61827580Y-131063810D01*
%TO.C,Conn5*%
X35977800Y-99187000D02*
X35977800Y-83439000D01*
X36003200Y-91338400D02*
X44893200Y-91338400D01*
X36003200Y-99187000D02*
X43750200Y-99187000D01*
X43724800Y-83439000D02*
X44893200Y-83439000D01*
X43750200Y-83439000D02*
X36003200Y-83439000D01*
X44893200Y-99187000D02*
X43674000Y-99187000D01*
X46036200Y-85750400D02*
X46036200Y-84582000D01*
X46036200Y-89027000D02*
X46036200Y-85725000D01*
X46036200Y-89027000D02*
X46036200Y-90170000D01*
X46036200Y-93599000D02*
X46036200Y-92456000D01*
X46036200Y-93599000D02*
X46036200Y-96875600D01*
X46036200Y-98044000D02*
X46036200Y-96875600D01*
X48296800Y-99187000D02*
X47204600Y-99187000D01*
X48322200Y-83439000D02*
X60615800Y-83439000D01*
X48322200Y-91313000D02*
X47179200Y-91313000D01*
X48322200Y-91313000D02*
X60615800Y-91313000D01*
X48322200Y-99187000D02*
X60615800Y-99187000D01*
X48347600Y-83439000D02*
X47153800Y-83439000D01*
X60615800Y-99187000D02*
X60615800Y-83439000D01*
X46036200Y-98044000D02*
G75*
G03*
X44893200Y-99187000I0J-1143000D01*
G01*
X44918600Y-83439000D02*
G75*
G03*
X46036200Y-84556600I1117598J-2D01*
G01*
X47179200Y-99187000D02*
G75*
G03*
X46036200Y-98044000I-1143000J0D01*
G01*
X46036200Y-84556600D02*
G75*
G03*
X47153800Y-83439000I2J1117598D01*
G01*
X47179200Y-91313000D02*
G75*
G03*
X47179200Y-91313000I-1143000J0D01*
G01*
%TO.C,Conn4*%
X35977800Y-118237000D02*
X35977800Y-102489000D01*
X36003200Y-110388400D02*
X44893200Y-110388400D01*
X36003200Y-118237000D02*
X43750200Y-118237000D01*
X43724800Y-102489000D02*
X44893200Y-102489000D01*
X43750200Y-102489000D02*
X36003200Y-102489000D01*
X44893200Y-118237000D02*
X43674000Y-118237000D01*
X46036200Y-104800400D02*
X46036200Y-103632000D01*
X46036200Y-108077000D02*
X46036200Y-104775000D01*
X46036200Y-108077000D02*
X46036200Y-109220000D01*
X46036200Y-112649000D02*
X46036200Y-111506000D01*
X46036200Y-112649000D02*
X46036200Y-115925600D01*
X46036200Y-117094000D02*
X46036200Y-115925600D01*
X48296800Y-118237000D02*
X47204600Y-118237000D01*
X48322200Y-102489000D02*
X60615800Y-102489000D01*
X48322200Y-110363000D02*
X47179200Y-110363000D01*
X48322200Y-110363000D02*
X60615800Y-110363000D01*
X48322200Y-118237000D02*
X60615800Y-118237000D01*
X48347600Y-102489000D02*
X47153800Y-102489000D01*
X60615800Y-118237000D02*
X60615800Y-102489000D01*
X46036200Y-117094000D02*
G75*
G03*
X44893200Y-118237000I0J-1143000D01*
G01*
X44918600Y-102489000D02*
G75*
G03*
X46036200Y-103606600I1117598J-2D01*
G01*
X47179200Y-118237000D02*
G75*
G03*
X46036200Y-117094000I-1143000J0D01*
G01*
X46036200Y-103606600D02*
G75*
G03*
X47153800Y-102489000I2J1117598D01*
G01*
X47179200Y-110363000D02*
G75*
G03*
X47179200Y-110363000I-1143000J0D01*
G01*
%TO.C,Conn1*%
X77724000Y-189320200D02*
X61976000Y-189320200D01*
X69875400Y-189294800D02*
X69875400Y-180404800D01*
X77724000Y-189294800D02*
X77724000Y-181547800D01*
X61976000Y-181573200D02*
X61976000Y-180404800D01*
X61976000Y-181547800D02*
X61976000Y-189294800D01*
X77724000Y-180404800D02*
X77724000Y-181624000D01*
X64287400Y-179261800D02*
X63119000Y-179261800D01*
X67564000Y-179261800D02*
X64262000Y-179261800D01*
X67564000Y-179261800D02*
X68707000Y-179261800D01*
X72136000Y-179261800D02*
X70993000Y-179261800D01*
X72136000Y-179261800D02*
X75412600Y-179261800D01*
X76581000Y-179261800D02*
X75412600Y-179261800D01*
X77724000Y-177001200D02*
X77724000Y-178093400D01*
X61976000Y-176975800D02*
X61976000Y-164682200D01*
X69850000Y-176975800D02*
X69850000Y-178118800D01*
X69850000Y-176975800D02*
X69850000Y-164682200D01*
X77724000Y-176975800D02*
X77724000Y-164682200D01*
X61976000Y-176950400D02*
X61976000Y-178144200D01*
X77724000Y-164682200D02*
X61976000Y-164682200D01*
X76581000Y-179261800D02*
G75*
G03*
X77724000Y-180404800I1143000J0D01*
G01*
X61976000Y-180379400D02*
G75*
G03*
X63093600Y-179261800I2J1117598D01*
G01*
X77724000Y-178118800D02*
G75*
G03*
X76581000Y-179261800I0J-1143000D01*
G01*
X63093600Y-179261800D02*
G75*
G03*
X61976000Y-178144200I-1117598J2D01*
G01*
X70993000Y-179261800D02*
G75*
G03*
X70993000Y-179261800I-1143000J0D01*
G01*
%TO.C,Conn2*%
X35977800Y-156337000D02*
X35977800Y-140589000D01*
X36003200Y-148488400D02*
X44893200Y-148488400D01*
X36003200Y-156337000D02*
X43750200Y-156337000D01*
X43724800Y-140589000D02*
X44893200Y-140589000D01*
X43750200Y-140589000D02*
X36003200Y-140589000D01*
X44893200Y-156337000D02*
X43674000Y-156337000D01*
X46036200Y-142900400D02*
X46036200Y-141732000D01*
X46036200Y-146177000D02*
X46036200Y-142875000D01*
X46036200Y-146177000D02*
X46036200Y-147320000D01*
X46036200Y-150749000D02*
X46036200Y-149606000D01*
X46036200Y-150749000D02*
X46036200Y-154025600D01*
X46036200Y-155194000D02*
X46036200Y-154025600D01*
X48296800Y-156337000D02*
X47204600Y-156337000D01*
X48322200Y-140589000D02*
X60615800Y-140589000D01*
X48322200Y-148463000D02*
X47179200Y-148463000D01*
X48322200Y-148463000D02*
X60615800Y-148463000D01*
X48322200Y-156337000D02*
X60615800Y-156337000D01*
X48347600Y-140589000D02*
X47153800Y-140589000D01*
X60615800Y-156337000D02*
X60615800Y-140589000D01*
X46036200Y-155194000D02*
G75*
G03*
X44893200Y-156337000I0J-1143000D01*
G01*
X44918600Y-140589000D02*
G75*
G03*
X46036200Y-141706600I1117598J-2D01*
G01*
X47179200Y-156337000D02*
G75*
G03*
X46036200Y-155194000I-1143000J0D01*
G01*
X46036200Y-141706600D02*
G75*
G03*
X47153800Y-140589000I2J1117598D01*
G01*
X47179200Y-148463000D02*
G75*
G03*
X47179200Y-148463000I-1143000J0D01*
G01*
%TO.C,Conn3*%
X35977800Y-137287000D02*
X35977800Y-121539000D01*
X36003200Y-129438400D02*
X44893200Y-129438400D01*
X36003200Y-137287000D02*
X43750200Y-137287000D01*
X43724800Y-121539000D02*
X44893200Y-121539000D01*
X43750200Y-121539000D02*
X36003200Y-121539000D01*
X44893200Y-137287000D02*
X43674000Y-137287000D01*
X46036200Y-123850400D02*
X46036200Y-122682000D01*
X46036200Y-127127000D02*
X46036200Y-123825000D01*
X46036200Y-127127000D02*
X46036200Y-128270000D01*
X46036200Y-131699000D02*
X46036200Y-130556000D01*
X46036200Y-131699000D02*
X46036200Y-134975600D01*
X46036200Y-136144000D02*
X46036200Y-134975600D01*
X48296800Y-137287000D02*
X47204600Y-137287000D01*
X48322200Y-121539000D02*
X60615800Y-121539000D01*
X48322200Y-129413000D02*
X47179200Y-129413000D01*
X48322200Y-129413000D02*
X60615800Y-129413000D01*
X48322200Y-137287000D02*
X60615800Y-137287000D01*
X48347600Y-121539000D02*
X47153800Y-121539000D01*
X60615800Y-137287000D02*
X60615800Y-121539000D01*
X46036200Y-136144000D02*
G75*
G03*
X44893200Y-137287000I0J-1143000D01*
G01*
X44918600Y-121539000D02*
G75*
G03*
X46036200Y-122656600I1117598J-2D01*
G01*
X47179200Y-137287000D02*
G75*
G03*
X46036200Y-136144000I-1143000J0D01*
G01*
X46036200Y-122656600D02*
G75*
G03*
X47153800Y-121539000I2J1117598D01*
G01*
X47179200Y-129413000D02*
G75*
G03*
X47179200Y-129413000I-1143000J0D01*
G01*
%TD*%
M02*
