M48
; DRILL file {KiCad (6.0.7)} date Mon Mar 20 22:10:41 2023
; FORMAT={-:-/ absolute / metric / decimal}
; #@! TF.CreationDate,2023-03-20T22:10:41-05:00
; #@! TF.GenerationSoftware,Kicad,Pcbnew,(6.0.7)
; #@! TF.FileFunction,Plated,1,2,PTH
FMAT,2
METRIC
; #@! TA.AperFunction,Plated,PTH,ViaDrill
T1C0.400
; #@! TA.AperFunction,Plated,PTH,ComponentDrill
T2C0.700
; #@! TA.AperFunction,Plated,PTH,ComponentDrill
T3C0.800
; #@! TA.AperFunction,Plated,PTH,ComponentDrill
T4C0.900
; #@! TA.AperFunction,Plated,PTH,ComponentDrill
T5C1.000
; #@! TA.AperFunction,Plated,PTH,ComponentDrill
T6C1.020
; #@! TA.AperFunction,Plated,PTH,ComponentDrill
T7C1.500
; #@! TA.AperFunction,Plated,PTH,ComponentDrill
T8C1.600
; #@! TA.AperFunction,Plated,PTH,ComponentDrill
T9C2.000
; #@! TA.AperFunction,Plated,PTH,ComponentDrill
T10C3.250
%
G90
G05
T1
X78.994Y-93.828
X83.566Y-50.927
X83.82Y-61.087
X85.598Y-95.225
X87.122Y-105.537
X91.186Y-95.225
X92.456Y-42.037
X101.727Y-41.148
X107.805Y-77.833
X108.839Y-70.612
X109.728Y-69.723
X110.617Y-75.184
X110.871Y-41.148
X117.475Y-82.169
X118.23Y-94.197
X120.015Y-41.021
X121.482Y-96.255
X122.625Y-87.619
X123.049Y-47.438
X124.111Y-47.403
X125.133Y-47.409
X125.603Y-90.424
X126.282Y-47.288
X126.746Y-98.298
X128.143Y-89.662
X128.397Y-94.361
X128.397Y-110.363
X128.905Y-82.169
X129.159Y-41.275
X129.667Y-110.363
X130.835Y-110.363
X130.912Y-94.437
X131.47Y-87.579
X132.08Y-110.363
X134.493Y-89.027
X134.493Y-95.123
X134.493Y-117.424
X134.518Y-111.658
X136.525Y-98.298
X136.652Y-110.363
X136.906Y-94.488
X137.516Y-87.173
X137.922Y-110.363
X138.303Y-41.021
X139.065Y-94.31
X139.09Y-110.363
X140.335Y-82.042
X140.335Y-110.363
X140.97Y-89.662
X145.034Y-77.978
X146.05Y-98.298
X147.193Y-89.662
X147.447Y-94.361
X147.574Y-41.275
X147.574Y-78.232
X147.574Y-110.236
X148.844Y-110.236
X150.012Y-94.386
X150.012Y-110.236
X150.52Y-87.376
X151.257Y-110.236
X151.765Y-82.042
X152.654Y-77.343
X153.518Y-111.506
X153.518Y-117.196
X153.543Y-89.154
X153.543Y-95.25
X155.575Y-98.298
X155.702Y-110.236
X155.956Y-94.488
X156.566Y-87.224
X156.591Y-41.148
X156.972Y-110.236
X158.14Y-94.437
X158.14Y-110.236
X159.004Y-78.105
X159.385Y-110.236
X160.02Y-89.662
X163.322Y-82.042
X165.354Y-98.298
X166.37Y-89.662
X166.878Y-110.236
X168.148Y-110.236
X169.291Y-94.361
X169.316Y-110.236
X169.774Y-87.274
X170.561Y-110.236
X172.822Y-111.658
X172.847Y-89.027
X172.847Y-95.123
X172.872Y-117.399
X174.879Y-98.298
X175.006Y-110.236
X175.26Y-94.488
X175.895Y-87.249
X176.276Y-110.236
X177.419Y-94.234
X177.444Y-110.236
X178.689Y-110.236
X179.197Y-89.662
X183.515Y-98.298
X184.404Y-89.535
X184.912Y-94.234
X185.039Y-110.236
X186.309Y-110.236
X187.452Y-94.151
X187.477Y-110.236
X187.96Y-86.741
X188.722Y-110.236
X190.627Y-95.631
X191.008Y-89.027
X191.008Y-116.992
X191.059Y-111.557
X191.528Y-52.781
X192.913Y-98.298
X193.167Y-110.236
X193.294Y-94.488
X194.056Y-86.741
X194.437Y-110.236
X195.58Y-93.98
X195.605Y-110.236
X195.718Y-54.432
X196.85Y-110.236
X197.612Y-89.535
X203.454Y-82.804
X203.454Y-103.251
X203.454Y-113.411
X203.489Y-93.091
X203.911Y-123.495
X205.994Y-109.728
X205.994Y-119.888
X206.121Y-99.568
X206.375Y-79.121
X206.629Y-89.408
T2
X142.764Y-53.377
X142.764Y-55.377
X142.764Y-57.377
X144.764Y-53.377
X144.764Y-55.377
X144.764Y-57.377
T3
X87.775Y-53.982
X87.775Y-55.982
X87.775Y-57.982
X95.758Y-101.806
X95.758Y-104.306
X103.124Y-95.274
X103.124Y-103.124
X105.624Y-95.274
X105.624Y-103.124
X129.794Y-50.927
X129.794Y-66.167
X132.334Y-50.927
X132.334Y-66.167
X134.874Y-50.927
X134.874Y-66.167
X137.414Y-50.927
X137.414Y-66.167
X139.954Y-50.927
X139.954Y-66.167
X142.494Y-50.927
X142.494Y-66.167
X145.034Y-50.927
X145.034Y-66.167
X147.574Y-50.927
X147.574Y-66.167
X150.114Y-50.927
X150.114Y-66.167
X152.654Y-50.927
X152.654Y-66.167
X155.194Y-50.927
X155.194Y-66.167
X157.734Y-50.927
X157.734Y-66.167
X160.274Y-50.927
X160.274Y-66.167
X162.814Y-50.927
X162.814Y-66.167
X165.354Y-50.927
X165.354Y-66.167
X167.894Y-50.927
X167.894Y-66.167
X170.434Y-50.927
X170.434Y-66.167
X172.974Y-50.927
X172.974Y-66.167
X175.514Y-50.927
X175.514Y-66.167
X178.054Y-50.927
X178.054Y-66.167
X180.594Y-50.927
X180.594Y-66.167
X183.134Y-50.927
X183.134Y-66.167
X185.674Y-50.927
X185.674Y-66.167
X188.214Y-50.927
X188.214Y-66.167
T4
X86.335Y-74.676
X86.335Y-81.026
X88.875Y-74.676
X88.875Y-81.026
X91.415Y-74.676
X91.415Y-81.026
X95.758Y-38.481
X97.765Y-74.676
X97.765Y-81.026
X98.298Y-38.481
X100.305Y-74.676
X100.305Y-81.026
X102.845Y-74.676
X102.845Y-81.026
X104.902Y-38.481
X107.442Y-38.481
X113.284Y-74.93
X114.046Y-38.481
X115.824Y-74.93
X116.586Y-38.481
X116.656Y-89.066
X118.364Y-74.93
X119.196Y-89.066
X123.19Y-38.481
X124.714Y-74.93
X125.73Y-38.481
X127.254Y-74.93
X129.794Y-74.93
X132.334Y-38.481
X134.874Y-38.481
X136.144Y-74.93
X138.684Y-74.93
X141.224Y-74.93
X141.478Y-38.481
X144.018Y-38.481
X147.574Y-74.93
X150.114Y-74.93
X150.599Y-38.481
X152.654Y-74.93
X153.138Y-38.481
X159.004Y-74.93
X159.766Y-38.481
X161.544Y-74.93
X162.306Y-38.481
X164.084Y-74.93
X197.929Y-54.227
X197.929Y-56.767
X197.929Y-59.307
X197.929Y-61.847
X200.469Y-55.497
X200.469Y-58.037
X200.469Y-60.577
X200.469Y-63.117
T5
X83.82Y-104.013
X83.82Y-106.553
X83.82Y-109.093
T6
X210.109Y-52.347
X210.109Y-62.457
X211.899Y-54.887
X211.899Y-64.997
T7
X87.775Y-51.882
X87.775Y-60.082
T8
X203.769Y-50.797
X203.769Y-66.547
T10
X206.819Y-52.957
X206.819Y-64.387
T9
X97.404Y-109.87G85X99.504Y-109.87
G05
X97.404Y-117.744G85X99.504Y-117.744
G05
X108.326Y-109.743G85X110.426Y-109.743
G05
X108.326Y-117.617G85X110.426Y-117.617
G05
X119.079Y-109.551G85X121.179Y-109.551
G05
X119.079Y-117.425G85X121.179Y-117.425
G05
X129.591Y-117.469G85X131.691Y-117.469
G05
X137.465Y-117.469G85X139.565Y-117.469
G05
X148.641Y-117.469G85X150.741Y-117.469
G05
X156.515Y-117.469G85X158.615Y-117.469
G05
X167.945Y-117.469G85X170.045Y-117.469
G05
X175.819Y-117.469G85X177.919Y-117.469
G05
X186.106Y-117.342G85X188.206Y-117.342
G05
X193.98Y-117.342G85X196.08Y-117.342
G05
T0
M30
