G04 #@! TF.GenerationSoftware,KiCad,Pcbnew,(6.0.7)*
G04 #@! TF.CreationDate,2023-03-20T22:10:27-05:00*
G04 #@! TF.ProjectId,ScienceMotorController,53636965-6e63-4654-9d6f-746f72436f6e,rev?*
G04 #@! TF.SameCoordinates,Original*
G04 #@! TF.FileFunction,Soldermask,Top*
G04 #@! TF.FilePolarity,Negative*
%FSLAX46Y46*%
G04 Gerber Fmt 4.6, Leading zero omitted, Abs format (unit mm)*
G04 Created by KiCad (PCBNEW (6.0.7)) date 2023-03-20 22:10:27*
%MOMM*%
%LPD*%
G01*
G04 APERTURE LIST*
G04 Aperture macros list*
%AMRoundRect*
0 Rectangle with rounded corners*
0 $1 Rounding radius*
0 $2 $3 $4 $5 $6 $7 $8 $9 X,Y pos of 4 corners*
0 Add a 4 corners polygon primitive as box body*
4,1,4,$2,$3,$4,$5,$6,$7,$8,$9,$2,$3,0*
0 Add four circle primitives for the rounded corners*
1,1,$1+$1,$2,$3*
1,1,$1+$1,$4,$5*
1,1,$1+$1,$6,$7*
1,1,$1+$1,$8,$9*
0 Add four rect primitives between the rounded corners*
20,1,$1+$1,$2,$3,$4,$5,0*
20,1,$1+$1,$4,$5,$6,$7,0*
20,1,$1+$1,$6,$7,$8,$9,0*
20,1,$1+$1,$8,$9,$2,$3,0*%
G04 Aperture macros list end*
%ADD10C,1.624000*%
%ADD11RoundRect,0.287500X0.237500X-0.250000X0.237500X0.250000X-0.237500X0.250000X-0.237500X-0.250000X0*%
%ADD12RoundRect,0.287500X-0.237500X0.250000X-0.237500X-0.250000X0.237500X-0.250000X0.237500X0.250000X0*%
%ADD13C,3.046400*%
%ADD14RoundRect,0.287500X-0.250000X-0.237500X0.250000X-0.237500X0.250000X0.237500X-0.250000X0.237500X0*%
%ADD15RoundRect,0.275000X0.225000X0.250000X-0.225000X0.250000X-0.225000X-0.250000X0.225000X-0.250000X0*%
%ADD16RoundRect,0.275000X0.250000X-0.225000X0.250000X0.225000X-0.250000X0.225000X-0.250000X-0.225000X0*%
%ADD17RoundRect,0.287500X0.250000X0.237500X-0.250000X0.237500X-0.250000X-0.237500X0.250000X-0.237500X0*%
%ADD18RoundRect,0.200000X-0.150000X0.825000X-0.150000X-0.825000X0.150000X-0.825000X0.150000X0.825000X0*%
%ADD19RoundRect,0.287500X-0.287500X-0.237500X0.287500X-0.237500X0.287500X0.237500X-0.287500X0.237500X0*%
%ADD20RoundRect,0.287500X0.287500X0.237500X-0.287500X0.237500X-0.287500X-0.237500X0.287500X-0.237500X0*%
%ADD21RoundRect,0.050000X1.250000X-0.750000X1.250000X0.750000X-1.250000X0.750000X-1.250000X-0.750000X0*%
%ADD22O,2.600000X1.600000*%
%ADD23RoundRect,0.275000X-0.225000X-0.250000X0.225000X-0.250000X0.225000X0.250000X-0.225000X0.250000X0*%
%ADD24RoundRect,0.287500X0.237500X-0.287500X0.237500X0.287500X-0.237500X0.287500X-0.237500X-0.287500X0*%
%ADD25RoundRect,0.050000X-0.325000X0.780000X-0.325000X-0.780000X0.325000X-0.780000X0.325000X0.780000X0*%
%ADD26RoundRect,0.200000X-0.587500X-0.150000X0.587500X-0.150000X0.587500X0.150000X-0.587500X0.150000X0*%
%ADD27RoundRect,0.287500X0.300000X0.237500X-0.300000X0.237500X-0.300000X-0.237500X0.300000X-0.237500X0*%
%ADD28RoundRect,0.050000X-0.700000X0.800000X-0.700000X-0.800000X0.700000X-0.800000X0.700000X0.800000X0*%
%ADD29RoundRect,0.050000X-0.800000X-0.800000X0.800000X-0.800000X0.800000X0.800000X-0.800000X0.800000X0*%
%ADD30C,1.700000*%
%ADD31C,1.408000*%
%ADD32C,1.308000*%
%ADD33RoundRect,0.050000X0.800000X0.700000X-0.800000X0.700000X-0.800000X-0.700000X0.800000X-0.700000X0*%
%ADD34O,3.600000X2.300000*%
%ADD35RoundRect,0.050000X0.700000X-0.800000X0.700000X0.800000X-0.700000X0.800000X-0.700000X-0.800000X0*%
%ADD36RoundRect,0.287500X-0.237500X0.287500X-0.237500X-0.287500X0.237500X-0.287500X0.237500X0.287500X0*%
%ADD37RoundRect,0.050000X-0.800000X-0.700000X0.800000X-0.700000X0.800000X0.700000X-0.800000X0.700000X0*%
%ADD38C,1.200000*%
%ADD39C,1.500000*%
%ADD40C,4.100000*%
%ADD41C,2.100000*%
%ADD42RoundRect,0.050000X0.800000X-0.800000X0.800000X0.800000X-0.800000X0.800000X-0.800000X-0.800000X0*%
%ADD43O,5.200000X3.100000*%
G04 APERTURE END LIST*
D10*
X123190000Y-38481000D03*
X125730000Y-38481000D03*
D11*
X177927000Y-92606500D03*
X177927000Y-90781500D03*
D12*
X136525000Y-103735500D03*
X136525000Y-105560500D03*
D13*
X213823420Y-134067420D03*
D14*
X125579500Y-42164000D03*
X127404500Y-42164000D03*
D11*
X118230350Y-98919700D03*
X118230350Y-97094700D03*
D14*
X202033500Y-81534000D03*
X203858500Y-81534000D03*
D10*
X150598500Y-38481000D03*
X153138500Y-38481000D03*
D14*
X137517500Y-88900000D03*
X139342500Y-88900000D03*
D15*
X132220000Y-103759000D03*
X130670000Y-103759000D03*
D16*
X153543000Y-114948000D03*
X153543000Y-113398000D03*
D10*
X97764600Y-74676000D03*
X100304600Y-74676000D03*
X102844600Y-74676000D03*
X91414600Y-81026000D03*
X88874600Y-81026000D03*
X86334600Y-81026000D03*
D17*
X187983500Y-88773000D03*
X186158500Y-88773000D03*
D18*
X196850000Y-96204000D03*
X195580000Y-96204000D03*
X194310000Y-96204000D03*
X193040000Y-96204000D03*
X193040000Y-101154000D03*
X194310000Y-101154000D03*
X195580000Y-101154000D03*
X196850000Y-101154000D03*
X132207000Y-122239000D03*
X130937000Y-122239000D03*
X129667000Y-122239000D03*
X128397000Y-122239000D03*
X128397000Y-127189000D03*
X129667000Y-127189000D03*
X130937000Y-127189000D03*
X132207000Y-127189000D03*
X178943000Y-122239000D03*
X177673000Y-122239000D03*
X176403000Y-122239000D03*
X175133000Y-122239000D03*
X175133000Y-127189000D03*
X176403000Y-127189000D03*
X177673000Y-127189000D03*
X178943000Y-127189000D03*
D19*
X140349000Y-80518000D03*
X142099000Y-80518000D03*
D14*
X151741500Y-78740000D03*
X153566500Y-78740000D03*
D11*
X158623000Y-92606500D03*
X158623000Y-90781500D03*
D20*
X100379500Y-53924200D03*
X98629500Y-53924200D03*
D12*
X145415000Y-120372500D03*
X145415000Y-122197500D03*
D14*
X202033500Y-101854000D03*
X203858500Y-101854000D03*
D20*
X203821000Y-84328000D03*
X202071000Y-84328000D03*
D18*
X178689000Y-96331000D03*
X177419000Y-96331000D03*
X176149000Y-96331000D03*
X174879000Y-96331000D03*
X174879000Y-101281000D03*
X176149000Y-101281000D03*
X177419000Y-101281000D03*
X178689000Y-101281000D03*
D14*
X143844000Y-42164000D03*
X145669000Y-42164000D03*
X152988000Y-42164000D03*
X154813000Y-42164000D03*
D21*
X83820000Y-109093000D03*
D22*
X83820000Y-106553000D03*
X83820000Y-104013000D03*
D12*
X112997950Y-89119100D03*
X112997950Y-90944100D03*
D10*
X102844600Y-81026000D03*
X100304600Y-81026000D03*
X97764600Y-81026000D03*
D14*
X80240500Y-93853000D03*
X82065500Y-93853000D03*
D12*
X182880000Y-120245500D03*
X182880000Y-122070500D03*
D23*
X87236000Y-104013000D03*
X88786000Y-104013000D03*
D10*
X86334600Y-74676000D03*
X88874600Y-74676000D03*
X91414600Y-74676000D03*
X132334000Y-38481000D03*
X134874000Y-38481000D03*
D15*
X178702000Y-103759000D03*
X177152000Y-103759000D03*
D24*
X169799000Y-92569000D03*
X169799000Y-90819000D03*
D18*
X140335000Y-108015000D03*
X139065000Y-108015000D03*
X137795000Y-108015000D03*
X136525000Y-108015000D03*
X136525000Y-112965000D03*
X137795000Y-112965000D03*
X139065000Y-112965000D03*
X140335000Y-112965000D03*
D25*
X191958000Y-90725000D03*
X191008000Y-90725000D03*
X190058000Y-90725000D03*
X190058000Y-93425000D03*
X191008000Y-93425000D03*
X191958000Y-93425000D03*
D12*
X193040000Y-103608500D03*
X193040000Y-105433500D03*
D18*
X151257000Y-108015000D03*
X149987000Y-108015000D03*
X148717000Y-108015000D03*
X147447000Y-108015000D03*
X147447000Y-112965000D03*
X148717000Y-112965000D03*
X149987000Y-112965000D03*
X151257000Y-112965000D03*
D15*
X159398000Y-103759000D03*
X157848000Y-103759000D03*
D10*
X159004000Y-74930000D03*
X161544000Y-74930000D03*
X164084000Y-74930000D03*
X116655550Y-89066400D03*
X119195550Y-89066400D03*
D19*
X92914500Y-58216800D03*
X94664500Y-58216800D03*
D26*
X120493250Y-92942400D03*
X120493250Y-94842400D03*
X122368250Y-93892400D03*
D14*
X140311500Y-78740000D03*
X142136500Y-78740000D03*
D27*
X194676000Y-52578000D03*
X192951000Y-52578000D03*
D28*
X210669000Y-90888000D03*
X210669000Y-98088000D03*
X207669000Y-90888000D03*
X207669000Y-98088000D03*
D24*
X156591000Y-92569000D03*
X156591000Y-90819000D03*
D11*
X122649950Y-90844400D03*
X122649950Y-89019400D03*
D18*
X159385000Y-122239000D03*
X158115000Y-122239000D03*
X156845000Y-122239000D03*
X155575000Y-122239000D03*
X155575000Y-127189000D03*
X156845000Y-127189000D03*
X158115000Y-127189000D03*
X159385000Y-127189000D03*
D17*
X169822500Y-88900000D03*
X167997500Y-88900000D03*
D24*
X190754000Y-99554000D03*
X190754000Y-97804000D03*
D19*
X83834000Y-62534800D03*
X85584000Y-62534800D03*
D14*
X128881500Y-78740000D03*
X130706500Y-78740000D03*
X134747000Y-42164000D03*
X136572000Y-42164000D03*
D15*
X140348000Y-103759000D03*
X138798000Y-103759000D03*
D10*
X159766000Y-38481000D03*
X162306000Y-38481000D03*
D18*
X132207000Y-108015000D03*
X130937000Y-108015000D03*
X129667000Y-108015000D03*
X128397000Y-108015000D03*
X128397000Y-112965000D03*
X129667000Y-112965000D03*
X130937000Y-112965000D03*
X132207000Y-112965000D03*
X196850000Y-107888000D03*
X195580000Y-107888000D03*
X194310000Y-107888000D03*
X193040000Y-107888000D03*
X193040000Y-112838000D03*
X194310000Y-112838000D03*
X195580000Y-112838000D03*
X196850000Y-112838000D03*
D10*
X95758000Y-38481000D03*
X98298000Y-38481000D03*
D14*
X163171500Y-78740000D03*
X164996500Y-78740000D03*
D18*
X159385000Y-108015000D03*
X158115000Y-108015000D03*
X156845000Y-108015000D03*
X155575000Y-108015000D03*
X155575000Y-112965000D03*
X156845000Y-112965000D03*
X158115000Y-112965000D03*
X159385000Y-112965000D03*
D19*
X117489000Y-80518000D03*
X119239000Y-80518000D03*
D12*
X148463000Y-90781500D03*
X148463000Y-92606500D03*
D19*
X103029750Y-42164000D03*
X104779750Y-42164000D03*
D16*
X134493000Y-114948000D03*
X134493000Y-113398000D03*
X172847000Y-114948000D03*
X172847000Y-113398000D03*
D18*
X178689000Y-108015000D03*
X177419000Y-108015000D03*
X176149000Y-108015000D03*
X174879000Y-108015000D03*
X174879000Y-112965000D03*
X176149000Y-112965000D03*
X177419000Y-112965000D03*
X178689000Y-112965000D03*
X151257000Y-96331000D03*
X149987000Y-96331000D03*
X148717000Y-96331000D03*
X147447000Y-96331000D03*
X147447000Y-101281000D03*
X148717000Y-101281000D03*
X149987000Y-101281000D03*
X151257000Y-101281000D03*
D25*
X135443000Y-90852000D03*
X134493000Y-90852000D03*
X133543000Y-90852000D03*
X133543000Y-93552000D03*
X134493000Y-93552000D03*
X135443000Y-93552000D03*
D15*
X196863000Y-103632000D03*
X195313000Y-103632000D03*
D24*
X172593000Y-99681000D03*
X172593000Y-97931000D03*
D11*
X196088000Y-92479500D03*
X196088000Y-90654500D03*
D14*
X202033500Y-122174000D03*
X203858500Y-122174000D03*
D24*
X187960000Y-92442000D03*
X187960000Y-90692000D03*
D19*
X157851500Y-42164000D03*
X159601500Y-42164000D03*
D12*
X153543000Y-120372500D03*
X153543000Y-122197500D03*
D16*
X87757000Y-108471000D03*
X87757000Y-106921000D03*
D28*
X210669000Y-121368000D03*
X210669000Y-128568000D03*
X207669000Y-121368000D03*
X207669000Y-128568000D03*
D14*
X202033500Y-112014000D03*
X203858500Y-112014000D03*
D12*
X172847000Y-120372500D03*
X172847000Y-122197500D03*
D18*
X188722000Y-96204000D03*
X187452000Y-96204000D03*
X186182000Y-96204000D03*
X184912000Y-96204000D03*
X184912000Y-101154000D03*
X186182000Y-101154000D03*
X187452000Y-101154000D03*
X188722000Y-101154000D03*
X170561000Y-122239000D03*
X169291000Y-122239000D03*
X168021000Y-122239000D03*
X166751000Y-122239000D03*
X166751000Y-127189000D03*
X168021000Y-127189000D03*
X169291000Y-127189000D03*
X170561000Y-127189000D03*
D10*
X147574000Y-74930000D03*
X150114000Y-74930000D03*
X152654000Y-74930000D03*
D12*
X129413000Y-90781500D03*
X129413000Y-92606500D03*
D19*
X139563500Y-42164000D03*
X141313500Y-42164000D03*
D15*
X151270000Y-103759000D03*
X149720000Y-103759000D03*
D19*
X93867000Y-42164000D03*
X95617000Y-42164000D03*
X128919000Y-80518000D03*
X130669000Y-80518000D03*
D14*
X117451500Y-78740000D03*
X119276500Y-78740000D03*
D12*
X166751000Y-103735500D03*
X166751000Y-105560500D03*
D15*
X170574000Y-103759000D03*
X169024000Y-103759000D03*
D18*
X188722000Y-122112000D03*
X187452000Y-122112000D03*
X186182000Y-122112000D03*
X184912000Y-122112000D03*
X184912000Y-127062000D03*
X186182000Y-127062000D03*
X187452000Y-127062000D03*
X188722000Y-127062000D03*
D10*
X136144000Y-74930000D03*
X138684000Y-74930000D03*
X141224000Y-74930000D03*
D14*
X116459000Y-42164000D03*
X118284000Y-42164000D03*
D18*
X159385000Y-96331000D03*
X158115000Y-96331000D03*
X156845000Y-96331000D03*
X155575000Y-96331000D03*
X155575000Y-101281000D03*
X156845000Y-101281000D03*
X158115000Y-101281000D03*
X159385000Y-101281000D03*
X170561000Y-108015000D03*
X169291000Y-108015000D03*
X168021000Y-108015000D03*
X166751000Y-108015000D03*
X166751000Y-112965000D03*
X168021000Y-112965000D03*
X169291000Y-112965000D03*
X170561000Y-112965000D03*
X151257000Y-122239000D03*
X149987000Y-122239000D03*
X148717000Y-122239000D03*
X147447000Y-122239000D03*
X147447000Y-127189000D03*
X148717000Y-127189000D03*
X149987000Y-127189000D03*
X151257000Y-127189000D03*
D14*
X202033500Y-91694000D03*
X203858500Y-91694000D03*
D18*
X140335000Y-122239000D03*
X139065000Y-122239000D03*
X137795000Y-122239000D03*
X136525000Y-122239000D03*
X136525000Y-127189000D03*
X137795000Y-127189000D03*
X139065000Y-127189000D03*
X140335000Y-127189000D03*
D24*
X142494000Y-99681000D03*
X142494000Y-97931000D03*
D29*
X103124000Y-103124000D03*
D30*
X105624000Y-103124000D03*
D31*
X132334000Y-66167000D03*
X134874000Y-66167000D03*
X137414000Y-66167000D03*
X139954000Y-66167000D03*
X165354000Y-66167000D03*
X134874000Y-50927000D03*
X142494000Y-66167000D03*
X145034000Y-66167000D03*
X147574000Y-66167000D03*
X150114000Y-66167000D03*
X152654000Y-66167000D03*
X155194000Y-66167000D03*
X157734000Y-66167000D03*
X160274000Y-66167000D03*
X162814000Y-66167000D03*
X162814000Y-50927000D03*
X160274000Y-50927000D03*
X157734000Y-50927000D03*
X155194000Y-50927000D03*
X152654000Y-50927000D03*
X150114000Y-50927000D03*
X147574000Y-50927000D03*
X145034000Y-50927000D03*
X142494000Y-50927000D03*
X139954000Y-50927000D03*
X137414000Y-50927000D03*
X167894000Y-66167000D03*
X170434000Y-66167000D03*
X172974000Y-66167000D03*
X175514000Y-66167000D03*
X178054000Y-66167000D03*
X180594000Y-66167000D03*
X183134000Y-66167000D03*
X185674000Y-66167000D03*
X188214000Y-66167000D03*
X188214000Y-50927000D03*
X185674000Y-50927000D03*
X183134000Y-50927000D03*
X180594000Y-50927000D03*
X178054000Y-50927000D03*
X175514000Y-50927000D03*
X172974000Y-50927000D03*
X170434000Y-50927000D03*
X167894000Y-50927000D03*
X129794000Y-66167000D03*
X165354000Y-50927000D03*
X132334000Y-50927000D03*
D32*
X144764000Y-55377000D03*
X142764000Y-55377000D03*
X142764000Y-53377000D03*
X144764000Y-53377000D03*
X144764000Y-57377000D03*
X142764000Y-57377000D03*
D31*
X129794000Y-50927000D03*
D11*
X112540750Y-95109700D03*
X112540750Y-93284700D03*
D12*
X184912000Y-103608500D03*
X184912000Y-105433500D03*
D20*
X203821000Y-124968000D03*
X202071000Y-124968000D03*
D19*
X148961500Y-42164000D03*
X150711500Y-42164000D03*
D18*
X196850000Y-122112000D03*
X195580000Y-122112000D03*
X194310000Y-122112000D03*
X193040000Y-122112000D03*
X193040000Y-127062000D03*
X194310000Y-127062000D03*
X195580000Y-127062000D03*
X196850000Y-127062000D03*
D14*
X87479500Y-49479200D03*
X89304500Y-49479200D03*
D18*
X140335000Y-96331000D03*
X139065000Y-96331000D03*
X137795000Y-96331000D03*
X136525000Y-96331000D03*
X136525000Y-101281000D03*
X137795000Y-101281000D03*
X139065000Y-101281000D03*
X140335000Y-101281000D03*
D24*
X137541000Y-92569000D03*
X137541000Y-90819000D03*
D33*
X110892500Y-63730000D03*
X103692500Y-63730000D03*
X103692500Y-60730000D03*
X110892500Y-60730000D03*
D20*
X203821000Y-114808000D03*
X202071000Y-114808000D03*
D28*
X210669000Y-101048000D03*
X210669000Y-108248000D03*
X207669000Y-101048000D03*
X207669000Y-108248000D03*
D14*
X97830000Y-58216800D03*
X99655000Y-58216800D03*
X92178500Y-93853000D03*
X94003500Y-93853000D03*
D17*
X106259000Y-54051200D03*
X104434000Y-54051200D03*
D34*
X87775100Y-51881600D03*
X87775100Y-60081600D03*
D21*
X87775100Y-57981600D03*
D22*
X87775100Y-55981600D03*
X87775100Y-53981600D03*
D14*
X98147500Y-42164000D03*
X99972500Y-42164000D03*
X156567500Y-88900000D03*
X158392500Y-88900000D03*
D35*
X207669000Y-80728000D03*
X207669000Y-87928000D03*
X210669000Y-87928000D03*
X210669000Y-80728000D03*
D11*
X139573000Y-92606500D03*
X139573000Y-90781500D03*
D14*
X194032500Y-88773000D03*
X195857500Y-88773000D03*
D17*
X131468500Y-88900000D03*
X129643500Y-88900000D03*
D18*
X188722000Y-107888000D03*
X187452000Y-107888000D03*
X186182000Y-107888000D03*
X184912000Y-107888000D03*
X184912000Y-112838000D03*
X186182000Y-112838000D03*
X187452000Y-112838000D03*
X188722000Y-112838000D03*
D10*
X114046000Y-38481000D03*
X116586000Y-38481000D03*
D20*
X93966000Y-92075000D03*
X92216000Y-92075000D03*
D24*
X194056000Y-92442000D03*
X194056000Y-90692000D03*
D12*
X174879000Y-103735500D03*
X174879000Y-105560500D03*
D14*
X175871500Y-88900000D03*
X177696500Y-88900000D03*
D18*
X170561000Y-96331000D03*
X169291000Y-96331000D03*
X168021000Y-96331000D03*
X166751000Y-96331000D03*
X166751000Y-101281000D03*
X168021000Y-101281000D03*
X169291000Y-101281000D03*
X170561000Y-101281000D03*
D20*
X82028000Y-92075000D03*
X80278000Y-92075000D03*
D15*
X188735000Y-103632000D03*
X187185000Y-103632000D03*
D36*
X120008350Y-97183000D03*
X120008350Y-98933000D03*
D12*
X147447000Y-103735500D03*
X147447000Y-105560500D03*
D14*
X108498000Y-58071000D03*
X110323000Y-58071000D03*
D24*
X150495000Y-92569000D03*
X150495000Y-90819000D03*
D20*
X87997000Y-92075000D03*
X86247000Y-92075000D03*
D12*
X164719000Y-120372500D03*
X164719000Y-122197500D03*
D25*
X173797000Y-90852000D03*
X172847000Y-90852000D03*
X171897000Y-90852000D03*
X171897000Y-93552000D03*
X172847000Y-93552000D03*
X173797000Y-93552000D03*
D24*
X180848000Y-99681000D03*
X180848000Y-97931000D03*
D19*
X103582500Y-58071000D03*
X105332500Y-58071000D03*
D37*
X100224500Y-60875800D03*
X93024500Y-60875800D03*
X100224500Y-63875800D03*
X93024500Y-63875800D03*
D13*
X81615280Y-133979920D03*
D19*
X121299000Y-42164000D03*
X123049000Y-42164000D03*
X163209000Y-80518000D03*
X164959000Y-80518000D03*
D20*
X203821000Y-94488000D03*
X202071000Y-94488000D03*
D12*
X128397000Y-103735500D03*
X128397000Y-105560500D03*
D38*
X200469000Y-63117000D03*
X197929000Y-61847000D03*
X200469000Y-60577000D03*
X197929000Y-59307000D03*
X200469000Y-58037000D03*
X197929000Y-56767000D03*
X200469000Y-55497000D03*
X197929000Y-54227000D03*
D39*
X211899000Y-64997000D03*
X210109000Y-62457000D03*
X211899000Y-54887000D03*
X210109000Y-52347000D03*
D40*
X206819000Y-64387000D03*
X206819000Y-52957000D03*
D41*
X203769000Y-50797000D03*
X203769000Y-66547000D03*
D10*
X104902000Y-38481000D03*
X107442000Y-38481000D03*
D24*
X199009000Y-99554000D03*
X199009000Y-97804000D03*
D18*
X132207000Y-96331000D03*
X130937000Y-96331000D03*
X129667000Y-96331000D03*
X128397000Y-96331000D03*
X128397000Y-101281000D03*
X129667000Y-101281000D03*
X130937000Y-101281000D03*
X132207000Y-101281000D03*
D12*
X155575000Y-103735500D03*
X155575000Y-105560500D03*
X167767000Y-90781500D03*
X167767000Y-92606500D03*
D16*
X191008000Y-114821000D03*
X191008000Y-113271000D03*
D17*
X95591000Y-53924200D03*
X93766000Y-53924200D03*
D13*
X213696420Y-35731580D03*
D26*
X114803650Y-93247200D03*
X114803650Y-95147200D03*
X116678650Y-94197200D03*
D25*
X154493000Y-90852000D03*
X153543000Y-90852000D03*
X152593000Y-90852000D03*
X152593000Y-93552000D03*
X153543000Y-93552000D03*
X154493000Y-93552000D03*
D14*
X162132000Y-42164000D03*
X163957000Y-42164000D03*
D24*
X134239000Y-99681000D03*
X134239000Y-97931000D03*
D19*
X130720500Y-42164000D03*
X132470500Y-42164000D03*
D12*
X134493000Y-120372500D03*
X134493000Y-122197500D03*
D13*
X81513680Y-35692080D03*
D24*
X153289000Y-99681000D03*
X153289000Y-97931000D03*
D17*
X150518500Y-88900000D03*
X148693500Y-88900000D03*
D28*
X210669000Y-118408000D03*
X210669000Y-111208000D03*
X207669000Y-111208000D03*
X207669000Y-118408000D03*
D20*
X203680000Y-104648000D03*
X201930000Y-104648000D03*
D37*
X110978500Y-48247200D03*
X103778500Y-48247200D03*
X103778500Y-51247200D03*
X110978500Y-51247200D03*
D12*
X126365000Y-120372500D03*
X126365000Y-122197500D03*
X185928000Y-90654500D03*
X185928000Y-92479500D03*
D37*
X93110500Y-48247200D03*
X100310500Y-48247200D03*
X93110500Y-51247200D03*
X100310500Y-51247200D03*
D14*
X87733500Y-62534800D03*
X89558500Y-62534800D03*
D42*
X95758000Y-104306379D03*
D30*
X95758000Y-101806379D03*
D10*
X141478000Y-38481000D03*
X144018000Y-38481000D03*
D20*
X111047500Y-53924200D03*
X109297500Y-53924200D03*
D17*
X88034500Y-93853000D03*
X86209500Y-93853000D03*
D24*
X131445000Y-92569000D03*
X131445000Y-90819000D03*
D14*
X107310250Y-42164000D03*
X109135250Y-42164000D03*
D19*
X112178500Y-42164000D03*
X113928500Y-42164000D03*
D24*
X175895000Y-92569000D03*
X175895000Y-90819000D03*
D12*
X191008000Y-120245500D03*
X191008000Y-122070500D03*
D10*
X113284000Y-74930000D03*
X115824000Y-74930000D03*
X118364000Y-74930000D03*
D29*
X103124000Y-95274000D03*
D30*
X105624000Y-95274000D03*
D19*
X151779000Y-80518000D03*
X153529000Y-80518000D03*
D24*
X161544000Y-99681000D03*
X161544000Y-97931000D03*
D10*
X124714000Y-74930000D03*
X127254000Y-74930000D03*
X129794000Y-74930000D03*
D19*
X83580000Y-49479200D03*
X85330000Y-49479200D03*
D43*
X120129300Y-109551500D03*
X120129300Y-117425500D03*
X176869000Y-117468600D03*
X168995000Y-117468600D03*
X157565000Y-117468600D03*
X149691000Y-117468600D03*
X109375600Y-109742800D03*
X109375600Y-117616800D03*
X98453600Y-109869800D03*
X98453600Y-117743800D03*
X138515000Y-117468600D03*
X130641000Y-117468600D03*
X195030000Y-117341600D03*
X187156000Y-117341600D03*
G36*
X134866488Y-92756415D02*
G01*
X134918944Y-92800254D01*
X134987660Y-92808887D01*
X135050290Y-92778922D01*
X135069190Y-92757111D01*
X135071080Y-92756457D01*
X135072591Y-92757767D01*
X135072663Y-92758811D01*
X135070000Y-92772199D01*
X135070000Y-94331801D01*
X135072757Y-94345660D01*
X135072114Y-94347554D01*
X135070152Y-94347944D01*
X135069512Y-94347585D01*
X135017056Y-94303746D01*
X134948340Y-94295113D01*
X134885710Y-94325078D01*
X134866810Y-94346889D01*
X134864920Y-94347543D01*
X134863409Y-94346233D01*
X134863337Y-94345189D01*
X134866000Y-94331801D01*
X134866000Y-92772199D01*
X134863243Y-92758340D01*
X134863886Y-92756446D01*
X134865848Y-92756056D01*
X134866488Y-92756415D01*
G37*
G36*
X152966488Y-92756415D02*
G01*
X153018944Y-92800254D01*
X153087660Y-92808887D01*
X153150290Y-92778922D01*
X153169190Y-92757111D01*
X153171080Y-92756457D01*
X153172591Y-92757767D01*
X153172663Y-92758811D01*
X153170000Y-92772199D01*
X153170000Y-94331801D01*
X153172757Y-94345660D01*
X153172114Y-94347554D01*
X153170152Y-94347944D01*
X153169512Y-94347585D01*
X153117056Y-94303746D01*
X153048340Y-94295113D01*
X152985710Y-94325078D01*
X152966810Y-94346889D01*
X152964920Y-94347543D01*
X152963409Y-94346233D01*
X152963337Y-94345189D01*
X152966000Y-94331801D01*
X152966000Y-92772199D01*
X152963243Y-92758340D01*
X152963886Y-92756446D01*
X152965848Y-92756056D01*
X152966488Y-92756415D01*
G37*
G36*
X172270488Y-92756415D02*
G01*
X172322944Y-92800254D01*
X172391660Y-92808887D01*
X172454290Y-92778922D01*
X172473190Y-92757111D01*
X172475080Y-92756457D01*
X172476591Y-92757767D01*
X172476663Y-92758811D01*
X172474000Y-92772199D01*
X172474000Y-94331801D01*
X172476757Y-94345660D01*
X172476114Y-94347554D01*
X172474152Y-94347944D01*
X172473512Y-94347585D01*
X172421056Y-94303746D01*
X172352340Y-94295113D01*
X172289710Y-94325078D01*
X172270810Y-94346889D01*
X172268920Y-94347543D01*
X172267409Y-94346233D01*
X172267337Y-94345189D01*
X172270000Y-94331801D01*
X172270000Y-92772199D01*
X172267243Y-92758340D01*
X172267886Y-92756446D01*
X172269848Y-92756056D01*
X172270488Y-92756415D01*
G37*
G36*
X153916488Y-92756415D02*
G01*
X153968944Y-92800254D01*
X154037660Y-92808887D01*
X154100290Y-92778922D01*
X154119190Y-92757111D01*
X154121080Y-92756457D01*
X154122591Y-92757767D01*
X154122663Y-92758811D01*
X154120000Y-92772199D01*
X154120000Y-94331801D01*
X154122757Y-94345660D01*
X154122114Y-94347554D01*
X154120152Y-94347944D01*
X154119512Y-94347585D01*
X154067056Y-94303746D01*
X153998340Y-94295113D01*
X153935710Y-94325078D01*
X153916810Y-94346889D01*
X153914920Y-94347543D01*
X153913409Y-94346233D01*
X153913337Y-94345189D01*
X153916000Y-94331801D01*
X153916000Y-92772199D01*
X153913243Y-92758340D01*
X153913886Y-92756446D01*
X153915848Y-92756056D01*
X153916488Y-92756415D01*
G37*
G36*
X173220488Y-92756415D02*
G01*
X173272944Y-92800254D01*
X173341660Y-92808887D01*
X173404290Y-92778922D01*
X173423190Y-92757111D01*
X173425080Y-92756457D01*
X173426591Y-92757767D01*
X173426663Y-92758811D01*
X173424000Y-92772199D01*
X173424000Y-94331801D01*
X173426757Y-94345660D01*
X173426114Y-94347554D01*
X173424152Y-94347944D01*
X173423512Y-94347585D01*
X173371056Y-94303746D01*
X173302340Y-94295113D01*
X173239710Y-94325078D01*
X173220810Y-94346889D01*
X173218920Y-94347543D01*
X173217409Y-94346233D01*
X173217337Y-94345189D01*
X173220000Y-94331801D01*
X173220000Y-92772199D01*
X173217243Y-92758340D01*
X173217886Y-92756446D01*
X173219848Y-92756056D01*
X173220488Y-92756415D01*
G37*
G36*
X133916488Y-92756415D02*
G01*
X133968944Y-92800254D01*
X134037660Y-92808887D01*
X134100290Y-92778922D01*
X134119190Y-92757111D01*
X134121080Y-92756457D01*
X134122591Y-92757767D01*
X134122663Y-92758811D01*
X134120000Y-92772199D01*
X134120000Y-94331801D01*
X134122757Y-94345660D01*
X134122114Y-94347554D01*
X134120152Y-94347944D01*
X134119512Y-94347585D01*
X134067056Y-94303746D01*
X133998340Y-94295113D01*
X133935710Y-94325078D01*
X133916810Y-94346889D01*
X133914920Y-94347543D01*
X133913409Y-94346233D01*
X133913337Y-94345189D01*
X133916000Y-94331801D01*
X133916000Y-92772199D01*
X133913243Y-92758340D01*
X133913886Y-92756446D01*
X133915848Y-92756056D01*
X133916488Y-92756415D01*
G37*
G36*
X190431488Y-92629415D02*
G01*
X190483944Y-92673254D01*
X190552660Y-92681887D01*
X190615290Y-92651922D01*
X190634190Y-92630111D01*
X190636080Y-92629457D01*
X190637591Y-92630767D01*
X190637663Y-92631811D01*
X190635000Y-92645199D01*
X190635000Y-94204801D01*
X190637757Y-94218660D01*
X190637114Y-94220554D01*
X190635152Y-94220944D01*
X190634512Y-94220585D01*
X190582056Y-94176746D01*
X190513340Y-94168113D01*
X190450710Y-94198078D01*
X190431810Y-94219889D01*
X190429920Y-94220543D01*
X190428409Y-94219233D01*
X190428337Y-94218189D01*
X190431000Y-94204801D01*
X190431000Y-92645199D01*
X190428243Y-92631340D01*
X190428886Y-92629446D01*
X190430848Y-92629056D01*
X190431488Y-92629415D01*
G37*
G36*
X191381488Y-92629415D02*
G01*
X191433944Y-92673254D01*
X191502660Y-92681887D01*
X191565290Y-92651922D01*
X191584190Y-92630111D01*
X191586080Y-92629457D01*
X191587591Y-92630767D01*
X191587663Y-92631811D01*
X191585000Y-92645199D01*
X191585000Y-94204801D01*
X191587757Y-94218660D01*
X191587114Y-94220554D01*
X191585152Y-94220944D01*
X191584512Y-94220585D01*
X191532056Y-94176746D01*
X191463340Y-94168113D01*
X191400710Y-94198078D01*
X191381810Y-94219889D01*
X191379920Y-94220543D01*
X191378409Y-94219233D01*
X191378337Y-94218189D01*
X191381000Y-94204801D01*
X191381000Y-92645199D01*
X191378243Y-92631340D01*
X191378886Y-92629446D01*
X191380848Y-92629056D01*
X191381488Y-92629415D01*
G37*
G36*
X173220488Y-90056415D02*
G01*
X173272944Y-90100254D01*
X173341660Y-90108887D01*
X173404290Y-90078922D01*
X173423190Y-90057111D01*
X173425080Y-90056457D01*
X173426591Y-90057767D01*
X173426663Y-90058811D01*
X173424000Y-90072199D01*
X173424000Y-91631801D01*
X173426757Y-91645660D01*
X173426114Y-91647554D01*
X173424152Y-91647944D01*
X173423512Y-91647585D01*
X173371056Y-91603746D01*
X173302340Y-91595113D01*
X173239710Y-91625078D01*
X173220810Y-91646889D01*
X173218920Y-91647543D01*
X173217409Y-91646233D01*
X173217337Y-91645189D01*
X173220000Y-91631801D01*
X173220000Y-90072199D01*
X173217243Y-90058340D01*
X173217886Y-90056446D01*
X173219848Y-90056056D01*
X173220488Y-90056415D01*
G37*
G36*
X134866488Y-90056415D02*
G01*
X134918944Y-90100254D01*
X134987660Y-90108887D01*
X135050290Y-90078922D01*
X135069190Y-90057111D01*
X135071080Y-90056457D01*
X135072591Y-90057767D01*
X135072663Y-90058811D01*
X135070000Y-90072199D01*
X135070000Y-91631801D01*
X135072757Y-91645660D01*
X135072114Y-91647554D01*
X135070152Y-91647944D01*
X135069512Y-91647585D01*
X135017056Y-91603746D01*
X134948340Y-91595113D01*
X134885710Y-91625078D01*
X134866810Y-91646889D01*
X134864920Y-91647543D01*
X134863409Y-91646233D01*
X134863337Y-91645189D01*
X134866000Y-91631801D01*
X134866000Y-90072199D01*
X134863243Y-90058340D01*
X134863886Y-90056446D01*
X134865848Y-90056056D01*
X134866488Y-90056415D01*
G37*
G36*
X172270488Y-90056415D02*
G01*
X172322944Y-90100254D01*
X172391660Y-90108887D01*
X172454290Y-90078922D01*
X172473190Y-90057111D01*
X172475080Y-90056457D01*
X172476591Y-90057767D01*
X172476663Y-90058811D01*
X172474000Y-90072199D01*
X172474000Y-91631801D01*
X172476757Y-91645660D01*
X172476114Y-91647554D01*
X172474152Y-91647944D01*
X172473512Y-91647585D01*
X172421056Y-91603746D01*
X172352340Y-91595113D01*
X172289710Y-91625078D01*
X172270810Y-91646889D01*
X172268920Y-91647543D01*
X172267409Y-91646233D01*
X172267337Y-91645189D01*
X172270000Y-91631801D01*
X172270000Y-90072199D01*
X172267243Y-90058340D01*
X172267886Y-90056446D01*
X172269848Y-90056056D01*
X172270488Y-90056415D01*
G37*
G36*
X133916488Y-90056415D02*
G01*
X133968944Y-90100254D01*
X134037660Y-90108887D01*
X134100290Y-90078922D01*
X134119190Y-90057111D01*
X134121080Y-90056457D01*
X134122591Y-90057767D01*
X134122663Y-90058811D01*
X134120000Y-90072199D01*
X134120000Y-91631801D01*
X134122757Y-91645660D01*
X134122114Y-91647554D01*
X134120152Y-91647944D01*
X134119512Y-91647585D01*
X134067056Y-91603746D01*
X133998340Y-91595113D01*
X133935710Y-91625078D01*
X133916810Y-91646889D01*
X133914920Y-91647543D01*
X133913409Y-91646233D01*
X133913337Y-91645189D01*
X133916000Y-91631801D01*
X133916000Y-90072199D01*
X133913243Y-90058340D01*
X133913886Y-90056446D01*
X133915848Y-90056056D01*
X133916488Y-90056415D01*
G37*
G36*
X152966488Y-90056415D02*
G01*
X153018944Y-90100254D01*
X153087660Y-90108887D01*
X153150290Y-90078922D01*
X153169190Y-90057111D01*
X153171080Y-90056457D01*
X153172591Y-90057767D01*
X153172663Y-90058811D01*
X153170000Y-90072199D01*
X153170000Y-91631801D01*
X153172757Y-91645660D01*
X153172114Y-91647554D01*
X153170152Y-91647944D01*
X153169512Y-91647585D01*
X153117056Y-91603746D01*
X153048340Y-91595113D01*
X152985710Y-91625078D01*
X152966810Y-91646889D01*
X152964920Y-91647543D01*
X152963409Y-91646233D01*
X152963337Y-91645189D01*
X152966000Y-91631801D01*
X152966000Y-90072199D01*
X152963243Y-90058340D01*
X152963886Y-90056446D01*
X152965848Y-90056056D01*
X152966488Y-90056415D01*
G37*
G36*
X153916488Y-90056415D02*
G01*
X153968944Y-90100254D01*
X154037660Y-90108887D01*
X154100290Y-90078922D01*
X154119190Y-90057111D01*
X154121080Y-90056457D01*
X154122591Y-90057767D01*
X154122663Y-90058811D01*
X154120000Y-90072199D01*
X154120000Y-91631801D01*
X154122757Y-91645660D01*
X154122114Y-91647554D01*
X154120152Y-91647944D01*
X154119512Y-91647585D01*
X154067056Y-91603746D01*
X153998340Y-91595113D01*
X153935710Y-91625078D01*
X153916810Y-91646889D01*
X153914920Y-91647543D01*
X153913409Y-91646233D01*
X153913337Y-91645189D01*
X153916000Y-91631801D01*
X153916000Y-90072199D01*
X153913243Y-90058340D01*
X153913886Y-90056446D01*
X153915848Y-90056056D01*
X153916488Y-90056415D01*
G37*
G36*
X190431488Y-89929415D02*
G01*
X190483944Y-89973254D01*
X190552660Y-89981887D01*
X190615290Y-89951922D01*
X190634190Y-89930111D01*
X190636080Y-89929457D01*
X190637591Y-89930767D01*
X190637663Y-89931811D01*
X190635000Y-89945199D01*
X190635000Y-91504801D01*
X190637757Y-91518660D01*
X190637114Y-91520554D01*
X190635152Y-91520944D01*
X190634512Y-91520585D01*
X190582056Y-91476746D01*
X190513340Y-91468113D01*
X190450710Y-91498078D01*
X190431810Y-91519889D01*
X190429920Y-91520543D01*
X190428409Y-91519233D01*
X190428337Y-91518189D01*
X190431000Y-91504801D01*
X190431000Y-89945199D01*
X190428243Y-89931340D01*
X190428886Y-89929446D01*
X190430848Y-89929056D01*
X190431488Y-89929415D01*
G37*
G36*
X191381488Y-89929415D02*
G01*
X191433944Y-89973254D01*
X191502660Y-89981887D01*
X191565290Y-89951922D01*
X191584190Y-89930111D01*
X191586080Y-89929457D01*
X191587591Y-89930767D01*
X191587663Y-89931811D01*
X191585000Y-89945199D01*
X191585000Y-91504801D01*
X191587757Y-91518660D01*
X191587114Y-91520554D01*
X191585152Y-91520944D01*
X191584512Y-91520585D01*
X191532056Y-91476746D01*
X191463340Y-91468113D01*
X191400710Y-91498078D01*
X191381810Y-91519889D01*
X191379920Y-91520543D01*
X191378409Y-91519233D01*
X191378337Y-91518189D01*
X191381000Y-91504801D01*
X191381000Y-89945199D01*
X191378243Y-89931340D01*
X191378886Y-89929446D01*
X191380848Y-89929056D01*
X191381488Y-89929415D01*
G37*
G36*
X88908725Y-58780600D02*
G01*
X88908725Y-58782600D01*
X88907556Y-58783519D01*
X88840544Y-58803195D01*
X88795189Y-58855538D01*
X88785332Y-58924091D01*
X88814125Y-58987138D01*
X88849284Y-59012213D01*
X88850114Y-59014033D01*
X88848953Y-59015661D01*
X88847530Y-59015751D01*
X88663780Y-58958694D01*
X88455075Y-58933993D01*
X88425074Y-58933600D01*
X87125196Y-58933600D01*
X86915894Y-58952832D01*
X86713698Y-59009858D01*
X86696677Y-59018252D01*
X86694681Y-59018121D01*
X86693796Y-59016327D01*
X86694457Y-59014969D01*
X86743166Y-58971319D01*
X86761569Y-58904550D01*
X86740952Y-58838433D01*
X86687797Y-58793902D01*
X86638262Y-58783558D01*
X86636771Y-58782225D01*
X86637180Y-58780267D01*
X86638671Y-58779600D01*
X88906993Y-58779600D01*
X88908725Y-58780600D01*
G37*
G36*
X87095125Y-53029207D02*
G01*
X87125126Y-53029600D01*
X88425004Y-53029600D01*
X88628698Y-53010883D01*
X88630514Y-53011721D01*
X88630697Y-53013712D01*
X88629409Y-53014804D01*
X88618742Y-53017722D01*
X88559539Y-53054235D01*
X88529604Y-53116690D01*
X88538186Y-53185415D01*
X88582662Y-53238710D01*
X88590109Y-53242323D01*
X88591143Y-53243849D01*
X88612933Y-53256429D01*
X88613933Y-53258161D01*
X88612933Y-53259893D01*
X88611249Y-53260040D01*
X88462742Y-53205987D01*
X88286139Y-53183677D01*
X88275086Y-53183600D01*
X87275216Y-53183600D01*
X87098306Y-53203444D01*
X86943743Y-53257268D01*
X86941778Y-53256893D01*
X86941120Y-53255004D01*
X86942085Y-53253647D01*
X86958654Y-53244081D01*
X86958654Y-53242121D01*
X86959257Y-53241470D01*
X87003275Y-53211374D01*
X87030238Y-53147581D01*
X87018430Y-53079336D01*
X86971518Y-53028217D01*
X86936132Y-53014352D01*
X86934885Y-53012789D01*
X86935614Y-53010927D01*
X86937097Y-53010504D01*
X87095125Y-53029207D01*
G37*
M02*
