G04 #@! TF.GenerationSoftware,KiCad,Pcbnew,(6.0.7)*
G04 #@! TF.CreationDate,2023-03-20T22:10:27-05:00*
G04 #@! TF.ProjectId,ScienceMotorController,53636965-6e63-4654-9d6f-746f72436f6e,rev?*
G04 #@! TF.SameCoordinates,Original*
G04 #@! TF.FileFunction,Legend,Bot*
G04 #@! TF.FilePolarity,Positive*
%FSLAX46Y46*%
G04 Gerber Fmt 4.6, Leading zero omitted, Abs format (unit mm)*
G04 Created by KiCad (PCBNEW (6.0.7)) date 2023-03-20 22:10:27*
%MOMM*%
%LPD*%
G01*
G04 APERTURE LIST*
G04 Aperture macros list*
%AMRoundRect*
0 Rectangle with rounded corners*
0 $1 Rounding radius*
0 $2 $3 $4 $5 $6 $7 $8 $9 X,Y pos of 4 corners*
0 Add a 4 corners polygon primitive as box body*
4,1,4,$2,$3,$4,$5,$6,$7,$8,$9,$2,$3,0*
0 Add four circle primitives for the rounded corners*
1,1,$1+$1,$2,$3*
1,1,$1+$1,$4,$5*
1,1,$1+$1,$6,$7*
1,1,$1+$1,$8,$9*
0 Add four rect primitives between the rounded corners*
20,1,$1+$1,$2,$3,$4,$5,0*
20,1,$1+$1,$4,$5,$6,$7,0*
20,1,$1+$1,$6,$7,$8,$9,0*
20,1,$1+$1,$8,$9,$2,$3,0*%
G04 Aperture macros list end*
%ADD10C,0.150000*%
%ADD11C,1.624000*%
%ADD12C,3.046400*%
%ADD13RoundRect,0.050000X1.250000X-0.750000X1.250000X0.750000X-1.250000X0.750000X-1.250000X-0.750000X0*%
%ADD14O,2.600000X1.600000*%
%ADD15RoundRect,0.050000X-0.800000X-0.800000X0.800000X-0.800000X0.800000X0.800000X-0.800000X0.800000X0*%
%ADD16C,1.700000*%
%ADD17C,1.408000*%
%ADD18C,1.308000*%
%ADD19O,3.600000X2.300000*%
%ADD20C,1.200000*%
%ADD21C,1.500000*%
%ADD22C,4.100000*%
%ADD23C,2.100000*%
%ADD24RoundRect,0.050000X0.800000X-0.800000X0.800000X0.800000X-0.800000X0.800000X-0.800000X-0.800000X0*%
%ADD25O,5.200000X3.100000*%
G04 APERTURE END LIST*
D10*
X115586442Y-121751690D02*
X115634061Y-121704071D01*
X115681680Y-121561214D01*
X115681680Y-121465976D01*
X115634061Y-121323119D01*
X115538823Y-121227880D01*
X115443585Y-121180261D01*
X115253109Y-121132642D01*
X115110252Y-121132642D01*
X114919776Y-121180261D01*
X114824538Y-121227880D01*
X114729300Y-121323119D01*
X114681680Y-121465976D01*
X114681680Y-121561214D01*
X114729300Y-121704071D01*
X114776919Y-121751690D01*
X115681680Y-122323119D02*
X115634061Y-122227880D01*
X115586442Y-122180261D01*
X115491204Y-122132642D01*
X115205490Y-122132642D01*
X115110252Y-122180261D01*
X115062633Y-122227880D01*
X115015014Y-122323119D01*
X115015014Y-122465976D01*
X115062633Y-122561214D01*
X115110252Y-122608833D01*
X115205490Y-122656452D01*
X115491204Y-122656452D01*
X115586442Y-122608833D01*
X115634061Y-122561214D01*
X115681680Y-122465976D01*
X115681680Y-122323119D01*
X115015014Y-123085023D02*
X115681680Y-123085023D01*
X115110252Y-123085023D02*
X115062633Y-123132642D01*
X115015014Y-123227880D01*
X115015014Y-123370738D01*
X115062633Y-123465976D01*
X115157871Y-123513595D01*
X115681680Y-123513595D01*
X115015014Y-123989785D02*
X115681680Y-123989785D01*
X115110252Y-123989785D02*
X115062633Y-124037404D01*
X115015014Y-124132642D01*
X115015014Y-124275500D01*
X115062633Y-124370738D01*
X115157871Y-124418357D01*
X115681680Y-124418357D01*
X114776919Y-124846928D02*
X114729300Y-124894547D01*
X114681680Y-124989785D01*
X114681680Y-125227880D01*
X114729300Y-125323119D01*
X114776919Y-125370738D01*
X114872157Y-125418357D01*
X114967395Y-125418357D01*
X115110252Y-125370738D01*
X115681680Y-124799309D01*
X115681680Y-125418357D01*
X164376142Y-121470190D02*
X164423761Y-121422571D01*
X164471380Y-121279714D01*
X164471380Y-121184476D01*
X164423761Y-121041619D01*
X164328523Y-120946380D01*
X164233285Y-120898761D01*
X164042809Y-120851142D01*
X163899952Y-120851142D01*
X163709476Y-120898761D01*
X163614238Y-120946380D01*
X163519000Y-121041619D01*
X163471380Y-121184476D01*
X163471380Y-121279714D01*
X163519000Y-121422571D01*
X163566619Y-121470190D01*
X164471380Y-122041619D02*
X164423761Y-121946380D01*
X164376142Y-121898761D01*
X164280904Y-121851142D01*
X163995190Y-121851142D01*
X163899952Y-121898761D01*
X163852333Y-121946380D01*
X163804714Y-122041619D01*
X163804714Y-122184476D01*
X163852333Y-122279714D01*
X163899952Y-122327333D01*
X163995190Y-122374952D01*
X164280904Y-122374952D01*
X164376142Y-122327333D01*
X164423761Y-122279714D01*
X164471380Y-122184476D01*
X164471380Y-122041619D01*
X163804714Y-122803523D02*
X164471380Y-122803523D01*
X163899952Y-122803523D02*
X163852333Y-122851142D01*
X163804714Y-122946380D01*
X163804714Y-123089238D01*
X163852333Y-123184476D01*
X163947571Y-123232095D01*
X164471380Y-123232095D01*
X163804714Y-123708285D02*
X164471380Y-123708285D01*
X163899952Y-123708285D02*
X163852333Y-123755904D01*
X163804714Y-123851142D01*
X163804714Y-123994000D01*
X163852333Y-124089238D01*
X163947571Y-124136857D01*
X164471380Y-124136857D01*
X163899952Y-124755904D02*
X163852333Y-124660666D01*
X163804714Y-124613047D01*
X163709476Y-124565428D01*
X163661857Y-124565428D01*
X163566619Y-124613047D01*
X163519000Y-124660666D01*
X163471380Y-124755904D01*
X163471380Y-124946380D01*
X163519000Y-125041619D01*
X163566619Y-125089238D01*
X163661857Y-125136857D01*
X163709476Y-125136857D01*
X163804714Y-125089238D01*
X163852333Y-125041619D01*
X163899952Y-124946380D01*
X163899952Y-124755904D01*
X163947571Y-124660666D01*
X163995190Y-124613047D01*
X164090428Y-124565428D01*
X164280904Y-124565428D01*
X164376142Y-124613047D01*
X164423761Y-124660666D01*
X164471380Y-124755904D01*
X164471380Y-124946380D01*
X164423761Y-125041619D01*
X164376142Y-125089238D01*
X164280904Y-125136857D01*
X164090428Y-125136857D01*
X163995190Y-125089238D01*
X163947571Y-125041619D01*
X163899952Y-124946380D01*
X145072142Y-121470190D02*
X145119761Y-121422571D01*
X145167380Y-121279714D01*
X145167380Y-121184476D01*
X145119761Y-121041619D01*
X145024523Y-120946380D01*
X144929285Y-120898761D01*
X144738809Y-120851142D01*
X144595952Y-120851142D01*
X144405476Y-120898761D01*
X144310238Y-120946380D01*
X144215000Y-121041619D01*
X144167380Y-121184476D01*
X144167380Y-121279714D01*
X144215000Y-121422571D01*
X144262619Y-121470190D01*
X145167380Y-122041619D02*
X145119761Y-121946380D01*
X145072142Y-121898761D01*
X144976904Y-121851142D01*
X144691190Y-121851142D01*
X144595952Y-121898761D01*
X144548333Y-121946380D01*
X144500714Y-122041619D01*
X144500714Y-122184476D01*
X144548333Y-122279714D01*
X144595952Y-122327333D01*
X144691190Y-122374952D01*
X144976904Y-122374952D01*
X145072142Y-122327333D01*
X145119761Y-122279714D01*
X145167380Y-122184476D01*
X145167380Y-122041619D01*
X144500714Y-122803523D02*
X145167380Y-122803523D01*
X144595952Y-122803523D02*
X144548333Y-122851142D01*
X144500714Y-122946380D01*
X144500714Y-123089238D01*
X144548333Y-123184476D01*
X144643571Y-123232095D01*
X145167380Y-123232095D01*
X144500714Y-123708285D02*
X145167380Y-123708285D01*
X144595952Y-123708285D02*
X144548333Y-123755904D01*
X144500714Y-123851142D01*
X144500714Y-123994000D01*
X144548333Y-124089238D01*
X144643571Y-124136857D01*
X145167380Y-124136857D01*
X144500714Y-125041619D02*
X145167380Y-125041619D01*
X144119761Y-124803523D02*
X144834047Y-124565428D01*
X144834047Y-125184476D01*
X104832742Y-121942990D02*
X104880361Y-121895371D01*
X104927980Y-121752514D01*
X104927980Y-121657276D01*
X104880361Y-121514419D01*
X104785123Y-121419180D01*
X104689885Y-121371561D01*
X104499409Y-121323942D01*
X104356552Y-121323942D01*
X104166076Y-121371561D01*
X104070838Y-121419180D01*
X103975600Y-121514419D01*
X103927980Y-121657276D01*
X103927980Y-121752514D01*
X103975600Y-121895371D01*
X104023219Y-121942990D01*
X104927980Y-122514419D02*
X104880361Y-122419180D01*
X104832742Y-122371561D01*
X104737504Y-122323942D01*
X104451790Y-122323942D01*
X104356552Y-122371561D01*
X104308933Y-122419180D01*
X104261314Y-122514419D01*
X104261314Y-122657276D01*
X104308933Y-122752514D01*
X104356552Y-122800133D01*
X104451790Y-122847752D01*
X104737504Y-122847752D01*
X104832742Y-122800133D01*
X104880361Y-122752514D01*
X104927980Y-122657276D01*
X104927980Y-122514419D01*
X104261314Y-123276323D02*
X104927980Y-123276323D01*
X104356552Y-123276323D02*
X104308933Y-123323942D01*
X104261314Y-123419180D01*
X104261314Y-123562038D01*
X104308933Y-123657276D01*
X104404171Y-123704895D01*
X104927980Y-123704895D01*
X104261314Y-124181085D02*
X104927980Y-124181085D01*
X104356552Y-124181085D02*
X104308933Y-124228704D01*
X104261314Y-124323942D01*
X104261314Y-124466800D01*
X104308933Y-124562038D01*
X104404171Y-124609657D01*
X104927980Y-124609657D01*
X103927980Y-124990609D02*
X103927980Y-125609657D01*
X104308933Y-125276323D01*
X104308933Y-125419180D01*
X104356552Y-125514419D01*
X104404171Y-125562038D01*
X104499409Y-125609657D01*
X104737504Y-125609657D01*
X104832742Y-125562038D01*
X104880361Y-125514419D01*
X104927980Y-125419180D01*
X104927980Y-125133466D01*
X104880361Y-125038228D01*
X104832742Y-124990609D01*
X93910742Y-122069990D02*
X93958361Y-122022371D01*
X94005980Y-121879514D01*
X94005980Y-121784276D01*
X93958361Y-121641419D01*
X93863123Y-121546180D01*
X93767885Y-121498561D01*
X93577409Y-121450942D01*
X93434552Y-121450942D01*
X93244076Y-121498561D01*
X93148838Y-121546180D01*
X93053600Y-121641419D01*
X93005980Y-121784276D01*
X93005980Y-121879514D01*
X93053600Y-122022371D01*
X93101219Y-122069990D01*
X94005980Y-122641419D02*
X93958361Y-122546180D01*
X93910742Y-122498561D01*
X93815504Y-122450942D01*
X93529790Y-122450942D01*
X93434552Y-122498561D01*
X93386933Y-122546180D01*
X93339314Y-122641419D01*
X93339314Y-122784276D01*
X93386933Y-122879514D01*
X93434552Y-122927133D01*
X93529790Y-122974752D01*
X93815504Y-122974752D01*
X93910742Y-122927133D01*
X93958361Y-122879514D01*
X94005980Y-122784276D01*
X94005980Y-122641419D01*
X93339314Y-123403323D02*
X94005980Y-123403323D01*
X93434552Y-123403323D02*
X93386933Y-123450942D01*
X93339314Y-123546180D01*
X93339314Y-123689038D01*
X93386933Y-123784276D01*
X93482171Y-123831895D01*
X94005980Y-123831895D01*
X93339314Y-124308085D02*
X94005980Y-124308085D01*
X93434552Y-124308085D02*
X93386933Y-124355704D01*
X93339314Y-124450942D01*
X93339314Y-124593800D01*
X93386933Y-124689038D01*
X93482171Y-124736657D01*
X94005980Y-124736657D01*
X94005980Y-125736657D02*
X94005980Y-125165228D01*
X94005980Y-125450942D02*
X93005980Y-125450942D01*
X93148838Y-125355704D01*
X93244076Y-125260466D01*
X93291695Y-125165228D01*
X126022142Y-121470190D02*
X126069761Y-121422571D01*
X126117380Y-121279714D01*
X126117380Y-121184476D01*
X126069761Y-121041619D01*
X125974523Y-120946380D01*
X125879285Y-120898761D01*
X125688809Y-120851142D01*
X125545952Y-120851142D01*
X125355476Y-120898761D01*
X125260238Y-120946380D01*
X125165000Y-121041619D01*
X125117380Y-121184476D01*
X125117380Y-121279714D01*
X125165000Y-121422571D01*
X125212619Y-121470190D01*
X126117380Y-122041619D02*
X126069761Y-121946380D01*
X126022142Y-121898761D01*
X125926904Y-121851142D01*
X125641190Y-121851142D01*
X125545952Y-121898761D01*
X125498333Y-121946380D01*
X125450714Y-122041619D01*
X125450714Y-122184476D01*
X125498333Y-122279714D01*
X125545952Y-122327333D01*
X125641190Y-122374952D01*
X125926904Y-122374952D01*
X126022142Y-122327333D01*
X126069761Y-122279714D01*
X126117380Y-122184476D01*
X126117380Y-122041619D01*
X125450714Y-122803523D02*
X126117380Y-122803523D01*
X125545952Y-122803523D02*
X125498333Y-122851142D01*
X125450714Y-122946380D01*
X125450714Y-123089238D01*
X125498333Y-123184476D01*
X125593571Y-123232095D01*
X126117380Y-123232095D01*
X125450714Y-123708285D02*
X126117380Y-123708285D01*
X125545952Y-123708285D02*
X125498333Y-123755904D01*
X125450714Y-123851142D01*
X125450714Y-123994000D01*
X125498333Y-124089238D01*
X125593571Y-124136857D01*
X126117380Y-124136857D01*
X125117380Y-124517809D02*
X125117380Y-125184476D01*
X126117380Y-124755904D01*
X182537142Y-121343190D02*
X182584761Y-121295571D01*
X182632380Y-121152714D01*
X182632380Y-121057476D01*
X182584761Y-120914619D01*
X182489523Y-120819380D01*
X182394285Y-120771761D01*
X182203809Y-120724142D01*
X182060952Y-120724142D01*
X181870476Y-120771761D01*
X181775238Y-120819380D01*
X181680000Y-120914619D01*
X181632380Y-121057476D01*
X181632380Y-121152714D01*
X181680000Y-121295571D01*
X181727619Y-121343190D01*
X182632380Y-121914619D02*
X182584761Y-121819380D01*
X182537142Y-121771761D01*
X182441904Y-121724142D01*
X182156190Y-121724142D01*
X182060952Y-121771761D01*
X182013333Y-121819380D01*
X181965714Y-121914619D01*
X181965714Y-122057476D01*
X182013333Y-122152714D01*
X182060952Y-122200333D01*
X182156190Y-122247952D01*
X182441904Y-122247952D01*
X182537142Y-122200333D01*
X182584761Y-122152714D01*
X182632380Y-122057476D01*
X182632380Y-121914619D01*
X181965714Y-122676523D02*
X182632380Y-122676523D01*
X182060952Y-122676523D02*
X182013333Y-122724142D01*
X181965714Y-122819380D01*
X181965714Y-122962238D01*
X182013333Y-123057476D01*
X182108571Y-123105095D01*
X182632380Y-123105095D01*
X181965714Y-123581285D02*
X182632380Y-123581285D01*
X182060952Y-123581285D02*
X182013333Y-123628904D01*
X181965714Y-123724142D01*
X181965714Y-123867000D01*
X182013333Y-123962238D01*
X182108571Y-124009857D01*
X182632380Y-124009857D01*
X181632380Y-124962238D02*
X181632380Y-124486047D01*
X182108571Y-124438428D01*
X182060952Y-124486047D01*
X182013333Y-124581285D01*
X182013333Y-124819380D01*
X182060952Y-124914619D01*
X182108571Y-124962238D01*
X182203809Y-125009857D01*
X182441904Y-125009857D01*
X182537142Y-124962238D01*
X182584761Y-124914619D01*
X182632380Y-124819380D01*
X182632380Y-124581285D01*
X182584761Y-124486047D01*
X182537142Y-124438428D01*
X116065300Y-137897900D02*
X116065300Y-136729500D01*
X123939300Y-145619500D02*
X116065300Y-145619500D01*
X116065300Y-120981500D02*
X123939300Y-120981500D01*
X123939300Y-133300500D02*
X123939300Y-134443500D01*
X116065300Y-133275100D02*
X116065300Y-134468900D01*
X116065300Y-133300500D02*
X116065300Y-121006900D01*
X118376700Y-135586500D02*
X117208300Y-135586500D01*
X123964700Y-145619500D02*
X123964700Y-136729500D01*
X123939300Y-133300500D02*
X123939300Y-121006900D01*
X116065300Y-137872500D02*
X116065300Y-145619500D01*
X121653300Y-135586500D02*
X118351300Y-135586500D01*
X121653300Y-135586500D02*
X122796300Y-135586500D01*
X123939300Y-134443500D02*
G75*
G03*
X122796300Y-135586500I0J-1143000D01*
G01*
X117182900Y-135586500D02*
G75*
G03*
X116065300Y-134468900I-1117598J2D01*
G01*
X116065300Y-136704100D02*
G75*
G03*
X117182900Y-135586500I2J1117598D01*
G01*
X122796300Y-135586500D02*
G75*
G03*
X123939300Y-136729500I1143000J0D01*
G01*
X165058000Y-137941000D02*
X165058000Y-136772600D01*
X180806000Y-136772600D02*
X180806000Y-137991800D01*
X180806000Y-145688000D02*
X165058000Y-145688000D01*
X170646000Y-135629600D02*
X171789000Y-135629600D01*
X172957400Y-145662600D02*
X172957400Y-136772600D01*
X165058000Y-133318200D02*
X165058000Y-134512000D01*
X180806000Y-133343600D02*
X180806000Y-121050000D01*
X165058000Y-137915600D02*
X165058000Y-145662600D01*
X172932000Y-133343600D02*
X172932000Y-121050000D01*
X179663000Y-135629600D02*
X178494600Y-135629600D01*
X172932000Y-133343600D02*
X172932000Y-134486600D01*
X180806000Y-145662600D02*
X180806000Y-137915600D01*
X175218000Y-135629600D02*
X178494600Y-135629600D01*
X175218000Y-135629600D02*
X174075000Y-135629600D01*
X167369400Y-135629600D02*
X166201000Y-135629600D01*
X170646000Y-135629600D02*
X167344000Y-135629600D01*
X180806000Y-133369000D02*
X180806000Y-134461200D01*
X165058000Y-133343600D02*
X165058000Y-121050000D01*
X180806000Y-121050000D02*
X165058000Y-121050000D01*
X179663000Y-135629600D02*
G75*
G03*
X180806000Y-136772600I1143000J0D01*
G01*
X180806000Y-134486600D02*
G75*
G03*
X179663000Y-135629600I0J-1143000D01*
G01*
X165058000Y-136747200D02*
G75*
G03*
X166175600Y-135629600I2J1117598D01*
G01*
X166175600Y-135629600D02*
G75*
G03*
X165058000Y-134512000I-1117598J2D01*
G01*
X174075000Y-135629600D02*
G75*
G03*
X174075000Y-135629600I-1143000J0D01*
G01*
X161502000Y-133369000D02*
X161502000Y-134461200D01*
X161502000Y-145688000D02*
X145754000Y-145688000D01*
X155914000Y-135629600D02*
X159190600Y-135629600D01*
X145754000Y-133343600D02*
X145754000Y-121050000D01*
X153628000Y-133343600D02*
X153628000Y-134486600D01*
X148065400Y-135629600D02*
X146897000Y-135629600D01*
X153628000Y-133343600D02*
X153628000Y-121050000D01*
X161502000Y-145662600D02*
X161502000Y-137915600D01*
X145754000Y-137941000D02*
X145754000Y-136772600D01*
X145754000Y-133318200D02*
X145754000Y-134512000D01*
X151342000Y-135629600D02*
X148040000Y-135629600D01*
X151342000Y-135629600D02*
X152485000Y-135629600D01*
X160359000Y-135629600D02*
X159190600Y-135629600D01*
X161502000Y-133343600D02*
X161502000Y-121050000D01*
X155914000Y-135629600D02*
X154771000Y-135629600D01*
X153653400Y-145662600D02*
X153653400Y-136772600D01*
X161502000Y-136772600D02*
X161502000Y-137991800D01*
X145754000Y-137915600D02*
X145754000Y-145662600D01*
X161502000Y-121050000D02*
X145754000Y-121050000D01*
X160359000Y-135629600D02*
G75*
G03*
X161502000Y-136772600I1143000J0D01*
G01*
X146871600Y-135629600D02*
G75*
G03*
X145754000Y-134512000I-1117598J2D01*
G01*
X145754000Y-136747200D02*
G75*
G03*
X146871600Y-135629600I2J1117598D01*
G01*
X161502000Y-134486600D02*
G75*
G03*
X160359000Y-135629600I0J-1143000D01*
G01*
X154771000Y-135629600D02*
G75*
G03*
X154771000Y-135629600I-1143000J0D01*
G01*
X110899600Y-135777800D02*
X107597600Y-135777800D01*
X113185600Y-133491800D02*
X113185600Y-121198200D01*
X113185600Y-145810800D02*
X105311600Y-145810800D01*
X107623000Y-135777800D02*
X106454600Y-135777800D01*
X105311600Y-138063800D02*
X105311600Y-145810800D01*
X113185600Y-133491800D02*
X113185600Y-134634800D01*
X105311600Y-133491800D02*
X105311600Y-121198200D01*
X105311600Y-138089200D02*
X105311600Y-136920800D01*
X110899600Y-135777800D02*
X112042600Y-135777800D01*
X113211000Y-145810800D02*
X113211000Y-136920800D01*
X105311600Y-133466400D02*
X105311600Y-134660200D01*
X105311600Y-121172800D02*
X113185600Y-121172800D01*
X105311600Y-136895400D02*
G75*
G03*
X106429200Y-135777800I2J1117598D01*
G01*
X106429200Y-135777800D02*
G75*
G03*
X105311600Y-134660200I-1117598J2D01*
G01*
X113185600Y-134634800D02*
G75*
G03*
X112042600Y-135777800I0J-1143000D01*
G01*
X112042600Y-135777800D02*
G75*
G03*
X113185600Y-136920800I1143000J0D01*
G01*
G36*
X183775149Y-97718861D02*
G01*
X184447557Y-97778318D01*
X184505153Y-97783380D01*
X184913833Y-97816219D01*
X185238533Y-97833425D01*
X185494212Y-97832391D01*
X185695830Y-97810513D01*
X185858343Y-97765183D01*
X185996711Y-97693796D01*
X186125891Y-97593747D01*
X186260842Y-97462429D01*
X186317035Y-97405515D01*
X186443946Y-97295154D01*
X186551451Y-97241870D01*
X186670364Y-97228028D01*
X186853291Y-97265682D01*
X187013000Y-97381222D01*
X187104977Y-97555328D01*
X187112328Y-97624011D01*
X187068915Y-97803011D01*
X186953336Y-98002533D01*
X186778842Y-98205944D01*
X186558685Y-98396617D01*
X186306116Y-98557919D01*
X186233982Y-98594343D01*
X186150547Y-98626781D01*
X186052910Y-98649214D01*
X185923592Y-98663443D01*
X185745114Y-98671270D01*
X185499998Y-98674496D01*
X185170765Y-98674923D01*
X184915014Y-98673308D01*
X184627111Y-98668136D01*
X184380437Y-98660085D01*
X184195114Y-98649842D01*
X184091265Y-98638093D01*
X184088554Y-98637503D01*
X183977823Y-98620798D01*
X183933951Y-98651842D01*
X183926165Y-98751834D01*
X183940011Y-98824160D01*
X184017228Y-98997805D01*
X184160985Y-99242856D01*
X184369866Y-99557291D01*
X184642457Y-99939091D01*
X184977344Y-100386234D01*
X185373110Y-100896699D01*
X185828341Y-101468466D01*
X186263631Y-101992932D01*
X186805825Y-102601385D01*
X187338099Y-103150195D01*
X187856669Y-103637230D01*
X188357755Y-104060358D01*
X188837573Y-104417447D01*
X189292342Y-104706365D01*
X189718278Y-104924979D01*
X190111600Y-105071159D01*
X190468526Y-105142772D01*
X190785273Y-105137686D01*
X191058058Y-105053770D01*
X191283100Y-104888891D01*
X191456617Y-104640917D01*
X191529071Y-104465961D01*
X191603080Y-104223224D01*
X191653572Y-103984428D01*
X191663826Y-103907401D01*
X191686036Y-103562941D01*
X191683578Y-103151639D01*
X191658225Y-102698102D01*
X191611746Y-102226935D01*
X191545915Y-101762741D01*
X191462501Y-101330128D01*
X191438619Y-101224977D01*
X191401456Y-101088285D01*
X191362129Y-101017619D01*
X191304836Y-100991195D01*
X191213774Y-100987228D01*
X191045869Y-100971397D01*
X190734632Y-100875246D01*
X190400868Y-100699942D01*
X190054784Y-100454804D01*
X189706591Y-100149147D01*
X189366498Y-99792289D01*
X189044712Y-99393548D01*
X188751443Y-98962240D01*
X188496899Y-98507682D01*
X188403441Y-98309087D01*
X188270419Y-97941087D01*
X188207021Y-97594905D01*
X188206922Y-97409211D01*
X189070836Y-97409211D01*
X189093167Y-97579431D01*
X189142255Y-97776812D01*
X189214057Y-97975572D01*
X189333887Y-98216470D01*
X189530255Y-98539156D01*
X189765693Y-98873981D01*
X190019457Y-99191741D01*
X190270799Y-99463228D01*
X190273964Y-99466330D01*
X190462305Y-99640739D01*
X190649063Y-99796395D01*
X190819673Y-99923213D01*
X190959570Y-100011107D01*
X191054189Y-100049991D01*
X191088965Y-100029780D01*
X191073841Y-99969019D01*
X191022812Y-99831854D01*
X190945305Y-99645169D01*
X190851273Y-99431494D01*
X190750667Y-99213360D01*
X190653438Y-99013294D01*
X190569538Y-98853828D01*
X190545017Y-98810580D01*
X190348850Y-98490350D01*
X190138265Y-98185580D01*
X189922715Y-97906552D01*
X189711656Y-97663546D01*
X189514541Y-97466843D01*
X189340825Y-97326723D01*
X189199962Y-97253468D01*
X189101406Y-97257358D01*
X189079306Y-97291934D01*
X189070836Y-97409211D01*
X188206922Y-97409211D01*
X188206833Y-97242563D01*
X188249685Y-96985899D01*
X188366539Y-96716118D01*
X188550874Y-96521642D01*
X188801054Y-96404051D01*
X189115443Y-96364924D01*
X189196753Y-96367607D01*
X189486284Y-96421895D01*
X189771262Y-96550409D01*
X190060114Y-96758924D01*
X190361271Y-97053216D01*
X190683159Y-97439057D01*
X190962082Y-97824221D01*
X191409434Y-98564275D01*
X191778540Y-99348320D01*
X191994840Y-99879064D01*
X192088003Y-99736345D01*
X192124158Y-99658454D01*
X192166710Y-99459716D01*
X192185303Y-99197819D01*
X192180620Y-98895062D01*
X192153344Y-98573744D01*
X192104158Y-98256167D01*
X192033745Y-97964628D01*
X192024104Y-97932921D01*
X191899003Y-97583299D01*
X191721506Y-97165896D01*
X191498745Y-96693417D01*
X191237848Y-96178570D01*
X190945945Y-95634062D01*
X190630166Y-95072599D01*
X190297642Y-94506889D01*
X189955502Y-93949638D01*
X189610875Y-93413553D01*
X189270892Y-92911341D01*
X188942683Y-92455710D01*
X188796949Y-92267204D01*
X188568673Y-91990197D01*
X188315781Y-91699940D01*
X188047383Y-91405440D01*
X187772591Y-91115704D01*
X187500517Y-90839738D01*
X187240273Y-90586547D01*
X187000970Y-90365139D01*
X186791720Y-90184519D01*
X186621636Y-90053694D01*
X186499827Y-89981669D01*
X186435407Y-89977452D01*
X186428800Y-90017476D01*
X186438489Y-90133645D01*
X186466076Y-90293396D01*
X186480733Y-90356733D01*
X186529624Y-90502386D01*
X186607809Y-90656445D01*
X186727852Y-90841572D01*
X186902314Y-91080431D01*
X187013632Y-91230288D01*
X187144533Y-91418158D01*
X187225803Y-91557578D01*
X187267321Y-91666439D01*
X187278965Y-91762634D01*
X187269959Y-91853481D01*
X187192246Y-92025058D01*
X187053892Y-92139859D01*
X186878093Y-92183075D01*
X186688046Y-92139895D01*
X186684459Y-92138067D01*
X186597139Y-92067839D01*
X186468263Y-91934672D01*
X186314614Y-91756969D01*
X186152972Y-91553134D01*
X186150284Y-91549591D01*
X185901555Y-91196001D01*
X185726309Y-90880365D01*
X185616384Y-90580475D01*
X185563620Y-90274122D01*
X185559856Y-89939098D01*
X185581711Y-89712423D01*
X185639976Y-89503073D01*
X185746326Y-89338348D01*
X185914902Y-89188346D01*
X186080872Y-89102051D01*
X186334351Y-89062242D01*
X186618635Y-89099003D01*
X186916819Y-89209684D01*
X187211999Y-89391637D01*
X187563406Y-89672952D01*
X188095514Y-90157306D01*
X188639705Y-90718099D01*
X189184544Y-91343338D01*
X189718596Y-92021028D01*
X189822612Y-92160631D01*
X190034372Y-92451967D01*
X190233801Y-92738352D01*
X190430970Y-93035526D01*
X190635948Y-93359232D01*
X190858806Y-93725210D01*
X191109614Y-94149203D01*
X191398442Y-94646952D01*
X191578330Y-94961350D01*
X191912572Y-95562028D01*
X192194606Y-96096047D01*
X192429063Y-96574233D01*
X192620577Y-97007414D01*
X192773781Y-97406416D01*
X192893306Y-97782068D01*
X192983786Y-98145196D01*
X193049852Y-98506627D01*
X193069929Y-98650608D01*
X193104037Y-99136987D01*
X193072507Y-99557828D01*
X192972485Y-99924895D01*
X192917190Y-100029780D01*
X192801117Y-100249953D01*
X192555552Y-100544769D01*
X192260661Y-100839660D01*
X192356625Y-101307144D01*
X192407554Y-101578387D01*
X192481046Y-102085274D01*
X192531674Y-102603844D01*
X192558501Y-103112201D01*
X192560594Y-103588449D01*
X192537017Y-104010692D01*
X192486835Y-104357035D01*
X192363395Y-104786924D01*
X192166417Y-105194724D01*
X191909143Y-105525731D01*
X191594370Y-105776429D01*
X191224897Y-105943301D01*
X191213893Y-105946644D01*
X190986837Y-105989684D01*
X190700867Y-106009759D01*
X190393704Y-106007109D01*
X190103065Y-105981976D01*
X189866669Y-105934602D01*
X189730953Y-105889133D01*
X189424289Y-105761421D01*
X189082193Y-105593199D01*
X188733807Y-105399258D01*
X188408274Y-105194388D01*
X187977764Y-104887592D01*
X187451392Y-104466302D01*
X186921603Y-103989567D01*
X186380926Y-103449862D01*
X185821892Y-102839665D01*
X185237032Y-102151452D01*
X184618875Y-101377700D01*
X184600238Y-101353796D01*
X184456146Y-101172401D01*
X184338810Y-101030572D01*
X184259871Y-100942031D01*
X184230973Y-100920500D01*
X184232071Y-100933057D01*
X184244106Y-101028772D01*
X184267739Y-101203908D01*
X184300876Y-101443282D01*
X184341426Y-101731715D01*
X184387293Y-102054028D01*
X184452772Y-102535371D01*
X184507372Y-103008514D01*
X184539467Y-103400632D01*
X184549310Y-103721351D01*
X184537154Y-103980297D01*
X184503254Y-104187095D01*
X184447863Y-104351373D01*
X184373480Y-104483723D01*
X184185948Y-104674470D01*
X183943308Y-104792257D01*
X183655452Y-104837335D01*
X183332277Y-104809955D01*
X182983674Y-104710368D01*
X182619539Y-104538825D01*
X182249765Y-104295577D01*
X182180529Y-104241139D01*
X181971617Y-104061551D01*
X181717791Y-103827339D01*
X181434760Y-103553857D01*
X181138236Y-103256462D01*
X180843930Y-102950511D01*
X180567553Y-102651360D01*
X180565056Y-102648594D01*
X180410385Y-102481313D01*
X180283816Y-102352154D01*
X180198344Y-102273845D01*
X180166965Y-102259109D01*
X180184261Y-102317910D01*
X180237076Y-102442839D01*
X180313020Y-102601576D01*
X180427424Y-102846293D01*
X180545288Y-103138073D01*
X180639926Y-103415928D01*
X180702899Y-103654749D01*
X180725765Y-103829427D01*
X180725520Y-103848266D01*
X180679552Y-104055922D01*
X180556516Y-104198420D01*
X180359822Y-104271637D01*
X180339172Y-104274581D01*
X180212247Y-104271355D01*
X180098872Y-104220997D01*
X179990919Y-104113349D01*
X179880259Y-103938254D01*
X179758761Y-103685553D01*
X179618297Y-103345090D01*
X179615213Y-103337269D01*
X179495933Y-103048021D01*
X179364569Y-102750339D01*
X179236852Y-102478816D01*
X179128513Y-102268042D01*
X179055292Y-102135000D01*
X178783856Y-101625866D01*
X178559937Y-101173770D01*
X178374641Y-100757746D01*
X178219077Y-100356826D01*
X178084353Y-99950044D01*
X177961577Y-99516433D01*
X177863139Y-99175563D01*
X177738259Y-98839669D01*
X177595247Y-98564468D01*
X177422157Y-98327645D01*
X177207043Y-98106882D01*
X177174604Y-98078327D01*
X176954060Y-97927755D01*
X176707198Y-97816744D01*
X176465803Y-97756953D01*
X176261659Y-97760045D01*
X176238780Y-97765919D01*
X176063376Y-97862713D01*
X175898722Y-98037345D01*
X175764711Y-98269428D01*
X175738540Y-98350563D01*
X175702647Y-98554953D01*
X175675684Y-98833346D01*
X175657935Y-99168823D01*
X175649681Y-99544468D01*
X175651205Y-99943361D01*
X175662791Y-100348585D01*
X175684719Y-100743221D01*
X175717274Y-101110350D01*
X175749082Y-101418638D01*
X175784812Y-101861896D01*
X175796598Y-102218991D01*
X175782400Y-102498263D01*
X175740177Y-102708053D01*
X175667888Y-102856704D01*
X175563492Y-102952556D01*
X175424949Y-103003950D01*
X175250218Y-103019228D01*
X175217751Y-103018591D01*
X175061516Y-102994293D01*
X174912201Y-102929160D01*
X174763551Y-102815501D01*
X174609311Y-102645623D01*
X174443224Y-102411837D01*
X174259035Y-102106449D01*
X174050489Y-101721770D01*
X173811329Y-101250108D01*
X173730506Y-101087829D01*
X173590329Y-100810501D01*
X173468383Y-100574505D01*
X173371261Y-100392332D01*
X173305555Y-100276468D01*
X173277856Y-100239404D01*
X173276939Y-100240611D01*
X173253140Y-100303017D01*
X173208363Y-100442028D01*
X173148673Y-100638236D01*
X173080132Y-100872235D01*
X173072279Y-100899399D01*
X172870473Y-101525157D01*
X172656916Y-102052912D01*
X172432013Y-102481893D01*
X172196167Y-102811325D01*
X171949778Y-103040438D01*
X171801780Y-103138936D01*
X171616784Y-103236178D01*
X171420254Y-103302905D01*
X171189782Y-103344389D01*
X170902963Y-103365902D01*
X170537389Y-103372715D01*
X170521392Y-103372764D01*
X170235855Y-103375059D01*
X170024402Y-103382370D01*
X169860781Y-103398478D01*
X169718740Y-103427168D01*
X169572027Y-103472221D01*
X169394389Y-103537420D01*
X169230729Y-103597745D01*
X169079575Y-103645200D01*
X168936258Y-103675158D01*
X168773421Y-103691609D01*
X168563709Y-103698541D01*
X168279765Y-103699943D01*
X167944891Y-103692343D01*
X167454184Y-103644984D01*
X167012259Y-103550013D01*
X166591325Y-103402536D01*
X166495960Y-103365300D01*
X166415708Y-103356699D01*
X166340279Y-103399001D01*
X166231509Y-103502844D01*
X166116412Y-103605142D01*
X165994653Y-103664591D01*
X165841588Y-103679628D01*
X165678112Y-103660427D01*
X165481103Y-103574708D01*
X165380713Y-103483302D01*
X165236868Y-103295831D01*
X165110365Y-103072414D01*
X165024423Y-102849903D01*
X165019518Y-102832600D01*
X164989917Y-102756371D01*
X164940306Y-102696651D01*
X164851721Y-102640903D01*
X164705196Y-102576592D01*
X164481766Y-102491180D01*
X164374085Y-102451871D01*
X164154519Y-102375429D01*
X163918867Y-102296956D01*
X163689529Y-102223556D01*
X163488909Y-102162332D01*
X163339408Y-102120388D01*
X163263427Y-102104828D01*
X163261634Y-102108783D01*
X163255994Y-102179886D01*
X163252050Y-102321716D01*
X163250565Y-102510199D01*
X163250559Y-102516906D01*
X163225068Y-102883185D01*
X163150232Y-103160800D01*
X163026089Y-103349694D01*
X162852676Y-103449808D01*
X162630032Y-103461084D01*
X162602578Y-103456734D01*
X162446813Y-103410889D01*
X162332015Y-103345671D01*
X162289659Y-103300696D01*
X162174931Y-103125243D01*
X162054161Y-102874041D01*
X161935161Y-102564545D01*
X161825741Y-102214211D01*
X161689964Y-101728560D01*
X161466965Y-101658352D01*
X161365913Y-101624957D01*
X161173167Y-101558113D01*
X160938915Y-101474630D01*
X160693471Y-101385212D01*
X160487229Y-101310740D01*
X160305331Y-101248262D01*
X160179943Y-101208910D01*
X160130339Y-101199055D01*
X160126783Y-101208839D01*
X160106481Y-101293994D01*
X160074577Y-101445864D01*
X160036224Y-101640296D01*
X159960850Y-101945510D01*
X159784593Y-102413264D01*
X159545657Y-102866664D01*
X159256531Y-103288261D01*
X158929704Y-103660605D01*
X158577665Y-103966248D01*
X158212903Y-104187741D01*
X157949898Y-104283838D01*
X157616647Y-104340618D01*
X157293699Y-104332189D01*
X157013234Y-104256702D01*
X156784486Y-104196834D01*
X156468765Y-104183651D01*
X156461883Y-104183837D01*
X156019523Y-104146776D01*
X155586117Y-104019353D01*
X155191716Y-103810353D01*
X154930667Y-103633739D01*
X154836116Y-103738374D01*
X154665412Y-103881288D01*
X154388729Y-104023568D01*
X154050939Y-104132404D01*
X153672082Y-104204185D01*
X153272200Y-104235302D01*
X152871332Y-104222143D01*
X152489518Y-104161099D01*
X152431046Y-104145896D01*
X152196585Y-104068414D01*
X151917216Y-103957923D01*
X151625815Y-103828008D01*
X151355253Y-103692259D01*
X151350524Y-103693345D01*
X151329713Y-103754216D01*
X151307237Y-103887580D01*
X151287198Y-104070623D01*
X151231224Y-104536852D01*
X151148978Y-104920207D01*
X151036157Y-105229517D01*
X150888123Y-105477476D01*
X150700238Y-105676777D01*
X150674322Y-105698461D01*
X150392004Y-105873672D01*
X150097298Y-105948958D01*
X149791489Y-105924990D01*
X149475862Y-105802438D01*
X149151701Y-105581973D01*
X148820290Y-105264267D01*
X148482913Y-104849990D01*
X148140855Y-104339814D01*
X147921474Y-103983988D01*
X147858160Y-104136841D01*
X147795968Y-104254510D01*
X147611937Y-104453224D01*
X147364092Y-104595767D01*
X147071480Y-104672856D01*
X146753151Y-104675212D01*
X146492201Y-104627253D01*
X146197351Y-104526202D01*
X145896905Y-104368915D01*
X145578827Y-104147895D01*
X145231079Y-103855646D01*
X144841625Y-103484670D01*
X144266130Y-102911233D01*
X144097906Y-103384330D01*
X144084031Y-103423121D01*
X143872380Y-103958229D01*
X143656838Y-104395867D01*
X143434935Y-104739900D01*
X143204203Y-104994195D01*
X142962171Y-105162620D01*
X142759957Y-105232472D01*
X142469957Y-105249405D01*
X142127795Y-105191324D01*
X141730360Y-105057376D01*
X141274547Y-104846711D01*
X140757245Y-104558477D01*
X140700278Y-104524968D01*
X140199839Y-104272629D01*
X139689278Y-104096512D01*
X139128928Y-103982586D01*
X138997687Y-103965657D01*
X138819664Y-103950516D01*
X138620772Y-103943429D01*
X138387640Y-103944737D01*
X138106896Y-103954779D01*
X137765168Y-103973896D01*
X137349087Y-104002429D01*
X136845279Y-104040718D01*
X136341473Y-104069898D01*
X135875353Y-104070018D01*
X135443606Y-104036173D01*
X135013898Y-103965759D01*
X134553898Y-103856171D01*
X134416301Y-103818190D01*
X134068669Y-103712568D01*
X133735627Y-103598731D01*
X133433952Y-103483331D01*
X133180416Y-103373021D01*
X132991796Y-103274452D01*
X132884865Y-103194278D01*
X132853368Y-103154641D01*
X132777963Y-102974934D01*
X132792179Y-102793346D01*
X132889978Y-102632592D01*
X133065321Y-102515388D01*
X133099878Y-102502154D01*
X133199465Y-102483669D01*
X133316029Y-102502571D01*
X133486445Y-102563031D01*
X133681385Y-102638881D01*
X134192579Y-102825012D01*
X134654702Y-102968867D01*
X135088906Y-103073216D01*
X135516342Y-103140830D01*
X135958162Y-103174477D01*
X136435517Y-103176929D01*
X136969558Y-103150955D01*
X137581437Y-103099325D01*
X137849451Y-103076313D01*
X138402720Y-103052264D01*
X138905175Y-103068621D01*
X139386952Y-103127091D01*
X139878188Y-103229382D01*
X140094093Y-103285696D01*
X140366549Y-103371448D01*
X140617033Y-103474031D01*
X140879985Y-103608124D01*
X141189847Y-103788404D01*
X141256653Y-103828048D01*
X141494360Y-103960299D01*
X141746782Y-104089876D01*
X141993326Y-104207247D01*
X142213395Y-104302883D01*
X142386395Y-104367253D01*
X142491729Y-104390828D01*
X142560658Y-104373874D01*
X142679973Y-104276220D01*
X142812813Y-104089444D01*
X142960695Y-103810905D01*
X143125134Y-103437957D01*
X143307645Y-102967960D01*
X143379358Y-102777801D01*
X143500539Y-102481697D01*
X143607781Y-102262490D01*
X143709382Y-102106280D01*
X143813638Y-101999169D01*
X143928843Y-101927260D01*
X144045352Y-101879706D01*
X144170895Y-101855620D01*
X144298224Y-101870081D01*
X144438253Y-101929358D01*
X144601890Y-102039718D01*
X144800047Y-102207429D01*
X145043635Y-102438760D01*
X145343565Y-102739979D01*
X145431475Y-102828953D01*
X145766593Y-103152830D01*
X146054406Y-103402304D01*
X146304122Y-103584255D01*
X146524947Y-103705563D01*
X146726087Y-103773107D01*
X146841916Y-103796444D01*
X146941400Y-103803048D01*
X147012359Y-103777711D01*
X147058904Y-103708834D01*
X147085147Y-103584821D01*
X147095201Y-103394074D01*
X147093179Y-103124995D01*
X147083192Y-102765986D01*
X147078923Y-102627121D01*
X147070710Y-102334425D01*
X147067542Y-102121765D01*
X147070769Y-101973655D01*
X147081740Y-101874605D01*
X147101807Y-101809130D01*
X147132317Y-101761742D01*
X147174622Y-101716952D01*
X147198006Y-101695584D01*
X147368059Y-101611728D01*
X147562774Y-101603324D01*
X147741777Y-101673467D01*
X147793727Y-101726719D01*
X147878902Y-101860606D01*
X147954835Y-102027110D01*
X148055688Y-102279004D01*
X148234774Y-102672099D01*
X148441940Y-103078188D01*
X148667739Y-103481956D01*
X148902724Y-103868090D01*
X149137448Y-104221275D01*
X149362463Y-104526197D01*
X149568323Y-104767541D01*
X149745581Y-104929993D01*
X149908387Y-105028391D01*
X150047072Y-105049445D01*
X150159244Y-104977709D01*
X150258825Y-104809928D01*
X150299940Y-104707310D01*
X150330402Y-104595963D01*
X150352353Y-104457342D01*
X150367953Y-104272866D01*
X150379362Y-104023954D01*
X150388738Y-103692023D01*
X150409703Y-102815419D01*
X150203321Y-102498223D01*
X150081940Y-102299607D01*
X149797131Y-101707793D01*
X149578375Y-101040972D01*
X149426480Y-100301428D01*
X149418613Y-100245710D01*
X149389891Y-99945578D01*
X149371483Y-99581281D01*
X149363329Y-99180364D01*
X149365369Y-98770375D01*
X149377543Y-98378858D01*
X149399789Y-98033360D01*
X149432049Y-97761428D01*
X149450077Y-97627814D01*
X149473535Y-97358115D01*
X149488070Y-97057893D01*
X149491079Y-96770828D01*
X149489947Y-96629667D01*
X149496868Y-96310351D01*
X149521258Y-96068696D01*
X149566779Y-95887785D01*
X149637095Y-95750701D01*
X149735870Y-95640528D01*
X149920662Y-95526589D01*
X150115526Y-95511787D01*
X150326014Y-95596609D01*
X150437472Y-95676742D01*
X150521356Y-95778434D01*
X150567889Y-95910904D01*
X150580036Y-96091046D01*
X150560762Y-96335751D01*
X150513034Y-96661915D01*
X150493908Y-96778567D01*
X150469439Y-96935718D01*
X150452055Y-97076303D01*
X150443017Y-97211947D01*
X150443589Y-97354272D01*
X150455030Y-97514902D01*
X150478603Y-97705462D01*
X150515570Y-97937574D01*
X150567192Y-98222863D01*
X150634731Y-98572953D01*
X150719448Y-98999466D01*
X150822605Y-99514028D01*
X150888015Y-99845214D01*
X151011148Y-100506409D01*
X151109110Y-101094531D01*
X151184575Y-101626243D01*
X151240214Y-102118206D01*
X151246024Y-102176202D01*
X151269603Y-102343427D01*
X151309940Y-102457594D01*
X151385792Y-102556894D01*
X151515916Y-102679516D01*
X151665437Y-102803859D01*
X152068866Y-103060678D01*
X152508057Y-103243813D01*
X152961191Y-103345437D01*
X153406452Y-103357723D01*
X153575541Y-103336056D01*
X153805722Y-103283450D01*
X154009273Y-103212805D01*
X154161345Y-103133213D01*
X154237087Y-103053769D01*
X154238490Y-103039738D01*
X154205825Y-102948927D01*
X154124891Y-102809003D01*
X154008302Y-102642636D01*
X153894059Y-102480264D01*
X153709638Y-102177627D01*
X153534880Y-101847503D01*
X153388035Y-101525245D01*
X153287356Y-101246204D01*
X153282511Y-101229878D01*
X153236869Y-101112317D01*
X153168044Y-101016794D01*
X153054141Y-100919549D01*
X152873265Y-100796820D01*
X152634878Y-100651170D01*
X152259866Y-100454708D01*
X151907280Y-100308474D01*
X151601598Y-100223504D01*
X151383747Y-100151245D01*
X151219310Y-100026385D01*
X151128580Y-99870696D01*
X151112979Y-99702656D01*
X151173932Y-99540745D01*
X151312861Y-99403442D01*
X151531189Y-99309226D01*
X151628809Y-99280544D01*
X151817045Y-99218208D01*
X152047268Y-99137009D01*
X152289747Y-99047216D01*
X152371712Y-99016582D01*
X152669058Y-98918540D01*
X152902566Y-98870684D01*
X153091813Y-98872613D01*
X153256378Y-98923927D01*
X153415840Y-99024227D01*
X153546779Y-99152181D01*
X153677684Y-99362410D01*
X153788226Y-99648475D01*
X153884364Y-100023082D01*
X153922005Y-100192015D01*
X153962225Y-100332642D01*
X154014793Y-100448845D01*
X154093950Y-100565302D01*
X154213934Y-100706693D01*
X154388985Y-100897698D01*
X154532646Y-101059882D01*
X154704599Y-101271562D01*
X154847300Y-101466295D01*
X154939608Y-101616482D01*
X155044743Y-101854332D01*
X155136410Y-102120729D01*
X155199616Y-102371185D01*
X155223563Y-102569465D01*
X155231724Y-102616085D01*
X155307734Y-102748020D01*
X155446037Y-102895038D01*
X155625070Y-103038862D01*
X155823272Y-103161213D01*
X156019078Y-103243812D01*
X156128191Y-103276781D01*
X156007115Y-102977027D01*
X155882397Y-102609152D01*
X155777244Y-102152773D01*
X155714130Y-101684567D01*
X155697263Y-101237025D01*
X155730848Y-100842637D01*
X155731220Y-100840510D01*
X156582268Y-100840510D01*
X156607441Y-101459969D01*
X156608660Y-101489220D01*
X156627312Y-101799369D01*
X156656709Y-102045662D01*
X156702352Y-102262885D01*
X156769747Y-102485828D01*
X156810542Y-102604482D01*
X156890565Y-102813501D01*
X156956692Y-102935998D01*
X157017233Y-102980187D01*
X157080497Y-102954285D01*
X157154795Y-102866506D01*
X157258636Y-102686322D01*
X157369512Y-102374945D01*
X157435996Y-102022591D01*
X157457084Y-101655208D01*
X157431770Y-101298746D01*
X157359046Y-100979155D01*
X157237909Y-100722384D01*
X157165638Y-100630865D01*
X157035685Y-100547996D01*
X156896569Y-100565135D01*
X156741085Y-100681692D01*
X156582268Y-100840510D01*
X155731220Y-100840510D01*
X155734950Y-100819210D01*
X155844644Y-100450262D01*
X156024046Y-100143380D01*
X156265017Y-99906687D01*
X156559420Y-99748309D01*
X156899116Y-99676368D01*
X157007901Y-99671334D01*
X157292926Y-99697649D01*
X157533350Y-99794473D01*
X157758933Y-99972038D01*
X157854171Y-100072284D01*
X158064905Y-100376996D01*
X158212710Y-100740852D01*
X158300598Y-101172849D01*
X158329951Y-101655208D01*
X158331580Y-101681979D01*
X158321524Y-102064113D01*
X158278082Y-102412296D01*
X158194650Y-102724254D01*
X158064920Y-103031928D01*
X158001469Y-103175994D01*
X157968678Y-103283097D01*
X157976468Y-103324028D01*
X157997025Y-103315459D01*
X158081385Y-103250685D01*
X158207043Y-103136202D01*
X158355266Y-102988599D01*
X158364599Y-102978887D01*
X158656948Y-102617726D01*
X158902853Y-102204142D01*
X159086654Y-101768915D01*
X159192688Y-101342828D01*
X159212349Y-101178589D01*
X159226777Y-100713735D01*
X159193339Y-100192116D01*
X159114812Y-99635675D01*
X158993974Y-99066355D01*
X158833603Y-98506098D01*
X158831949Y-98501062D01*
X158760718Y-98306696D01*
X158654747Y-98045323D01*
X158524009Y-97740232D01*
X158378475Y-97414710D01*
X158228118Y-97092048D01*
X158202820Y-97038836D01*
X158062213Y-96737662D01*
X157934751Y-96455955D01*
X157828291Y-96211675D01*
X157750690Y-96022780D01*
X157709803Y-95907228D01*
X157698321Y-95856648D01*
X157680847Y-95729428D01*
X158551565Y-95729428D01*
X159027644Y-96719727D01*
X159204275Y-97096456D01*
X159478175Y-97733812D01*
X159695983Y-98325817D01*
X159864192Y-98892971D01*
X159989297Y-99455774D01*
X160077791Y-100034728D01*
X160094120Y-100138942D01*
X160132160Y-100244597D01*
X160190131Y-100276028D01*
X160242843Y-100286257D01*
X160378098Y-100327266D01*
X160566306Y-100392367D01*
X160783918Y-100473720D01*
X160946593Y-100536214D01*
X161151229Y-100613466D01*
X161311342Y-100672320D01*
X161401885Y-100703464D01*
X161509004Y-100735516D01*
X161414870Y-100188272D01*
X161398837Y-100094392D01*
X161356345Y-99842261D01*
X161303187Y-99523765D01*
X161243121Y-99161538D01*
X161186345Y-98817247D01*
X162089595Y-98817247D01*
X162099644Y-98918094D01*
X162101668Y-98922623D01*
X162117571Y-98914985D01*
X162123062Y-98828228D01*
X162122727Y-98812452D01*
X162113932Y-98744978D01*
X162097762Y-98765694D01*
X162089595Y-98817247D01*
X161186345Y-98817247D01*
X161179908Y-98778214D01*
X161117305Y-98396428D01*
X160984416Y-97619639D01*
X160852166Y-96923736D01*
X160720365Y-96311290D01*
X160586914Y-95773219D01*
X160449720Y-95300440D01*
X160306684Y-94883871D01*
X160221452Y-94685759D01*
X160048996Y-94396965D01*
X159848993Y-94168497D01*
X159632585Y-94007812D01*
X159410919Y-93922368D01*
X159195139Y-93919624D01*
X158996389Y-94007037D01*
X158915805Y-94086575D01*
X158805509Y-94236050D01*
X158703965Y-94410897D01*
X158643712Y-94536138D01*
X158594342Y-94667526D01*
X158566553Y-94804132D01*
X158554306Y-94978063D01*
X158551565Y-95221428D01*
X158551565Y-95729428D01*
X157680847Y-95729428D01*
X157672941Y-95671869D01*
X157656066Y-95438871D01*
X157650875Y-95196028D01*
X157679176Y-94796926D01*
X157773791Y-94362928D01*
X157927288Y-93977406D01*
X158131894Y-93646995D01*
X158379836Y-93378328D01*
X158663340Y-93178038D01*
X158974635Y-93052759D01*
X159305946Y-93009126D01*
X159649501Y-93053772D01*
X159997527Y-93193330D01*
X160170561Y-93298481D01*
X160509455Y-93582851D01*
X160802221Y-93948554D01*
X161052126Y-94400107D01*
X161262436Y-94942028D01*
X161375670Y-95318533D01*
X161499696Y-95785024D01*
X161624079Y-96301003D01*
X161743037Y-96840212D01*
X161850787Y-97376391D01*
X161941545Y-97883281D01*
X162009531Y-98334624D01*
X162025638Y-98440854D01*
X162048794Y-98548390D01*
X162066758Y-98581168D01*
X162068662Y-98546171D01*
X162060345Y-98424471D01*
X162041483Y-98232134D01*
X162013769Y-97986065D01*
X161978895Y-97703171D01*
X161942927Y-97382264D01*
X161905355Y-96897088D01*
X161884840Y-96404827D01*
X161882914Y-96156277D01*
X162753806Y-96156277D01*
X162784756Y-96785466D01*
X162848237Y-97506984D01*
X162944286Y-98320228D01*
X162951080Y-98372505D01*
X163001208Y-98777462D01*
X163007048Y-98828228D01*
X163050467Y-99205693D01*
X163095521Y-99626228D01*
X163133037Y-100008099D01*
X163159677Y-100320337D01*
X163168531Y-100436851D01*
X163191318Y-100715832D01*
X163193341Y-100735516D01*
X163211638Y-100913567D01*
X163232342Y-101045084D01*
X163256285Y-101125413D01*
X163286321Y-101169581D01*
X163325303Y-101192619D01*
X163326770Y-101193191D01*
X163416680Y-101223950D01*
X163580387Y-101276305D01*
X163795084Y-101343074D01*
X164037965Y-101417074D01*
X164048856Y-101420359D01*
X164289426Y-101493122D01*
X164499499Y-101556994D01*
X164656810Y-101605185D01*
X164739092Y-101630904D01*
X164767446Y-101638539D01*
X164805932Y-101627328D01*
X164815999Y-101559417D01*
X164804177Y-101412939D01*
X164791142Y-101287394D01*
X164768596Y-101061365D01*
X164747245Y-100838848D01*
X164743575Y-100783151D01*
X164737447Y-100611569D01*
X164731948Y-100357736D01*
X164727218Y-100034038D01*
X164723396Y-99652859D01*
X164720618Y-99226587D01*
X164719025Y-98767605D01*
X164718753Y-98288300D01*
X164720750Y-96063931D01*
X164492639Y-95608258D01*
X164314326Y-95276595D01*
X164076765Y-94909766D01*
X163842468Y-94632412D01*
X163614329Y-94447290D01*
X163395242Y-94357161D01*
X163188103Y-94364782D01*
X163085721Y-94416347D01*
X162954573Y-94574856D01*
X162855771Y-94828706D01*
X162789351Y-95177295D01*
X162755350Y-95620019D01*
X162753806Y-96156277D01*
X161882914Y-96156277D01*
X161881109Y-95923398D01*
X161893886Y-95470721D01*
X161922897Y-95064714D01*
X161967867Y-94723294D01*
X162028523Y-94464380D01*
X162039208Y-94432543D01*
X162188066Y-94120491D01*
X162394695Y-93851907D01*
X162641001Y-93646147D01*
X162908889Y-93522571D01*
X163155269Y-93475611D01*
X163525337Y-93487631D01*
X163886969Y-93599042D01*
X164236476Y-93808528D01*
X164570164Y-94114774D01*
X164862201Y-94433482D01*
X164895567Y-94065280D01*
X164906265Y-93962305D01*
X164959939Y-93604326D01*
X165037576Y-93224756D01*
X165131614Y-92854343D01*
X165234488Y-92523836D01*
X165338635Y-92263985D01*
X165461970Y-92040076D01*
X165711475Y-91715597D01*
X166004912Y-91459035D01*
X166325540Y-91286963D01*
X166449531Y-91243398D01*
X166618895Y-91202581D01*
X166800491Y-91188885D01*
X167038372Y-91196736D01*
X167236711Y-91216736D01*
X167592523Y-91307440D01*
X167872574Y-91465071D01*
X168077959Y-91690366D01*
X168209772Y-91984059D01*
X168217864Y-92012634D01*
X168252307Y-92173131D01*
X168261801Y-92334343D01*
X168244376Y-92520128D01*
X168198063Y-92754347D01*
X168120892Y-93060857D01*
X168095888Y-93152486D01*
X168002372Y-93444883D01*
X167906211Y-93651277D01*
X167798366Y-93783746D01*
X167669798Y-93854370D01*
X167511468Y-93875228D01*
X167492053Y-93873553D01*
X167374041Y-93819511D01*
X167249683Y-93713162D01*
X167151338Y-93586995D01*
X167111365Y-93473503D01*
X167113626Y-93446035D01*
X167137249Y-93320997D01*
X167181099Y-93139452D01*
X167238365Y-92930512D01*
X167259326Y-92855850D01*
X167313471Y-92638191D01*
X167351200Y-92448887D01*
X167365365Y-92322184D01*
X167365295Y-92307076D01*
X167351763Y-92200746D01*
X167295113Y-92140194D01*
X167167066Y-92092694D01*
X166897906Y-92055599D01*
X166645690Y-92113318D01*
X166420061Y-92265820D01*
X166223377Y-92510868D01*
X166058001Y-92846221D01*
X165926293Y-93269640D01*
X165880440Y-93489799D01*
X165828215Y-93807537D01*
X165777035Y-94181214D01*
X165729888Y-94586965D01*
X165689763Y-95000925D01*
X165659648Y-95399228D01*
X165650983Y-95540709D01*
X165643841Y-95716245D01*
X165647856Y-95861266D01*
X165667026Y-96001219D01*
X165705349Y-96161547D01*
X165766824Y-96367693D01*
X165855451Y-96645103D01*
X165866817Y-96680589D01*
X165961503Y-96989240D01*
X166053364Y-97309020D01*
X166132417Y-97604163D01*
X166188679Y-97838903D01*
X166228140Y-98031229D01*
X166337941Y-98683538D01*
X166427469Y-99403863D01*
X166494460Y-100167944D01*
X166536652Y-100951521D01*
X166548460Y-101559417D01*
X166551780Y-101730334D01*
X166552565Y-102448040D01*
X166844665Y-102555393D01*
X167195713Y-102672430D01*
X167743093Y-102799080D01*
X168251201Y-102840525D01*
X168729372Y-102797221D01*
X169186941Y-102669623D01*
X169263696Y-102640993D01*
X169416843Y-102587962D01*
X169554194Y-102550975D01*
X169699228Y-102526749D01*
X169875424Y-102511999D01*
X170106261Y-102503440D01*
X170415218Y-102497787D01*
X170443362Y-102497362D01*
X170744438Y-102491495D01*
X170962901Y-102483090D01*
X171116331Y-102469971D01*
X171222311Y-102449963D01*
X171298421Y-102420888D01*
X171362243Y-102380571D01*
X171460699Y-102298128D01*
X171606156Y-102131894D01*
X171744735Y-101912111D01*
X171880766Y-101629385D01*
X172018580Y-101274320D01*
X172162506Y-100837523D01*
X172316875Y-100309601D01*
X172377531Y-100095504D01*
X172480530Y-99755339D01*
X172572407Y-99496745D01*
X172660347Y-99308158D01*
X172751534Y-99178017D01*
X172853150Y-99094758D01*
X172972379Y-99046818D01*
X173116404Y-99022636D01*
X173243962Y-99019869D01*
X173394928Y-99051560D01*
X173540108Y-99130068D01*
X173686568Y-99263387D01*
X173841373Y-99459510D01*
X174011591Y-99726429D01*
X174204285Y-100072137D01*
X174426524Y-100504628D01*
X174833081Y-101317428D01*
X174794923Y-100784028D01*
X174783246Y-100595926D01*
X174768282Y-100211285D01*
X174762543Y-99809752D01*
X174765558Y-99411041D01*
X174776855Y-99034868D01*
X174795965Y-98700948D01*
X174822415Y-98428997D01*
X174855735Y-98238728D01*
X174942603Y-97964035D01*
X175129566Y-97587273D01*
X175372110Y-97283650D01*
X175663515Y-97059247D01*
X175997057Y-96920146D01*
X176366015Y-96872428D01*
X176449107Y-96870777D01*
X176565341Y-96860781D01*
X176610965Y-96844733D01*
X176587886Y-96797855D01*
X176509831Y-96673050D01*
X176380896Y-96478226D01*
X176205521Y-96219985D01*
X175988146Y-95904928D01*
X175733211Y-95539658D01*
X175506221Y-95205544D01*
X175224063Y-94762901D01*
X174947262Y-94300733D01*
X174681551Y-93830557D01*
X174432665Y-93363890D01*
X174206337Y-92912249D01*
X174008302Y-92487152D01*
X173844293Y-92100116D01*
X173720045Y-91762658D01*
X173681742Y-91628245D01*
X174635576Y-91628245D01*
X174652272Y-91726419D01*
X174689771Y-91835630D01*
X174769894Y-92024826D01*
X174882597Y-92270261D01*
X175019353Y-92554797D01*
X175171635Y-92861293D01*
X175330917Y-93172610D01*
X175488671Y-93471606D01*
X175636370Y-93741143D01*
X175765487Y-93964080D01*
X175856006Y-94110856D01*
X176028308Y-94380620D01*
X176229331Y-94687094D01*
X176440953Y-95002755D01*
X176645057Y-95300082D01*
X176818475Y-95549114D01*
X176983182Y-95785705D01*
X177122503Y-95985902D01*
X177225541Y-96134047D01*
X177281401Y-96214482D01*
X177367636Y-96339028D01*
X177370301Y-96208847D01*
X177369058Y-96162112D01*
X177359889Y-96016556D01*
X177343282Y-95802883D01*
X177320864Y-95541544D01*
X177294262Y-95252990D01*
X177268338Y-95002827D01*
X177184701Y-94405439D01*
X177075505Y-93892973D01*
X176936075Y-93454645D01*
X176761734Y-93079669D01*
X176547808Y-92757259D01*
X176289620Y-92476629D01*
X175982496Y-92226995D01*
X175979562Y-92224905D01*
X175752028Y-92077728D01*
X175486301Y-91928393D01*
X175212718Y-91792033D01*
X174961615Y-91683782D01*
X174763329Y-91618776D01*
X174671140Y-91601821D01*
X174635576Y-91628245D01*
X173681742Y-91628245D01*
X173641291Y-91486295D01*
X173613765Y-91282546D01*
X173630594Y-91184508D01*
X173722299Y-91017524D01*
X173871706Y-90870885D01*
X174053583Y-90773782D01*
X174177904Y-90748077D01*
X174394403Y-90732418D01*
X174648820Y-90736367D01*
X174919108Y-90769405D01*
X175366166Y-90892245D01*
X175820907Y-91091132D01*
X176266442Y-91354259D01*
X176685883Y-91669817D01*
X177062343Y-92025997D01*
X177378933Y-92410991D01*
X177618764Y-92812991D01*
X177697923Y-92984876D01*
X177816034Y-93280983D01*
X177915785Y-93594035D01*
X178000000Y-93938139D01*
X178071501Y-94327402D01*
X178133111Y-94775933D01*
X178187654Y-95297839D01*
X178237953Y-95907228D01*
X178264281Y-96208847D01*
X178289899Y-96502334D01*
X178366440Y-97145953D01*
X178457611Y-97708539D01*
X178562444Y-98185093D01*
X178679971Y-98570617D01*
X178809227Y-98860111D01*
X178845684Y-98924158D01*
X179095464Y-99331262D01*
X179393924Y-99773617D01*
X179731643Y-100240248D01*
X180099199Y-100720184D01*
X180487172Y-101202450D01*
X180886140Y-101676073D01*
X181286682Y-102130080D01*
X181679377Y-102553497D01*
X182054803Y-102935352D01*
X182403540Y-103264671D01*
X182716166Y-103530480D01*
X182983260Y-103721807D01*
X183112181Y-103793269D01*
X183303748Y-103875615D01*
X183463339Y-103918996D01*
X183672165Y-103947005D01*
X183672165Y-103633930D01*
X183670798Y-103589716D01*
X183657888Y-103422713D01*
X183632813Y-103176944D01*
X183597350Y-102867577D01*
X183553279Y-102509776D01*
X183502379Y-102118709D01*
X183446430Y-101709542D01*
X183424085Y-101549956D01*
X183366364Y-101136905D01*
X183311395Y-100742467D01*
X183261454Y-100383043D01*
X183218819Y-100075032D01*
X183185765Y-99834833D01*
X183164569Y-99678847D01*
X183153327Y-99598463D01*
X183116597Y-99399770D01*
X183064051Y-99235930D01*
X182980909Y-99068034D01*
X182852386Y-98857175D01*
X182596328Y-98454883D01*
X182257947Y-98397951D01*
X182251117Y-98396807D01*
X182023499Y-98362597D01*
X181753686Y-98327423D01*
X181498617Y-98298724D01*
X181332036Y-98278324D01*
X181106643Y-98230449D01*
X180980796Y-98168761D01*
X180889609Y-98047761D01*
X180847135Y-97869492D01*
X180879647Y-97689359D01*
X180980734Y-97536068D01*
X181143982Y-97438323D01*
X181216792Y-97422412D01*
X181414678Y-97410232D01*
X181653776Y-97424123D01*
X181662748Y-97425104D01*
X181829800Y-97439505D01*
X181945035Y-97442248D01*
X181983976Y-97432698D01*
X181981427Y-97427499D01*
X181944583Y-97354011D01*
X181868286Y-97202441D01*
X181757524Y-96982680D01*
X181617288Y-96704622D01*
X181452564Y-96378159D01*
X181268344Y-96013184D01*
X181069614Y-95619589D01*
X181051450Y-95583587D01*
X180844429Y-95168864D01*
X180646521Y-94764731D01*
X180463967Y-94384474D01*
X180303007Y-94041379D01*
X180169880Y-93748732D01*
X180070827Y-93519820D01*
X180012088Y-93367929D01*
X179981934Y-93274449D01*
X179876956Y-92844282D01*
X179853043Y-92574476D01*
X180725765Y-92574476D01*
X180736134Y-92685449D01*
X180774702Y-92848177D01*
X180844653Y-93057059D01*
X180948993Y-93319198D01*
X181090728Y-93641697D01*
X181272864Y-94031658D01*
X181498408Y-94496184D01*
X181770367Y-95042378D01*
X181799873Y-95101094D01*
X182026100Y-95550813D01*
X182211451Y-95918019D01*
X182359956Y-96210214D01*
X182475643Y-96434904D01*
X182562540Y-96599594D01*
X182624677Y-96711788D01*
X182666081Y-96778993D01*
X182690782Y-96808712D01*
X182702808Y-96808450D01*
X182706188Y-96785713D01*
X182702513Y-96748617D01*
X182675614Y-96613953D01*
X182627029Y-96411332D01*
X182561999Y-96159895D01*
X182485764Y-95878785D01*
X182403565Y-95587142D01*
X182320642Y-95304108D01*
X182242237Y-95048822D01*
X182173589Y-94840428D01*
X182140353Y-94746458D01*
X181977394Y-94325277D01*
X181797461Y-93915080D01*
X181608368Y-93530219D01*
X181417927Y-93185047D01*
X181233950Y-92893916D01*
X181064251Y-92671181D01*
X180916640Y-92531192D01*
X180901040Y-92520396D01*
X180793296Y-92461395D01*
X180740056Y-92478246D01*
X180725765Y-92574476D01*
X179853043Y-92574476D01*
X179843703Y-92469100D01*
X179880561Y-92153150D01*
X179985917Y-91900675D01*
X180158157Y-91715922D01*
X180395667Y-91603134D01*
X180696834Y-91566558D01*
X180698120Y-91566570D01*
X180963283Y-91593046D01*
X181197569Y-91675130D01*
X181425398Y-91825065D01*
X181671189Y-92055096D01*
X181760264Y-92150257D01*
X181948200Y-92372684D01*
X182116421Y-92610671D01*
X182282834Y-92890943D01*
X182465351Y-93240228D01*
X182533445Y-93379610D01*
X182829571Y-94068303D01*
X183102578Y-94841228D01*
X183348643Y-95685539D01*
X183563942Y-96588393D01*
X183601533Y-96785713D01*
X183744650Y-97536944D01*
X183775149Y-97718861D01*
G37*
X102263600Y-133618800D02*
X102263600Y-121325200D01*
X94389600Y-138190800D02*
X94389600Y-145937800D01*
X102263600Y-145937800D02*
X94389600Y-145937800D01*
X99977600Y-135904800D02*
X96675600Y-135904800D01*
X99977600Y-135904800D02*
X101120600Y-135904800D01*
X94389600Y-121299800D02*
X102263600Y-121299800D01*
X94389600Y-133593400D02*
X94389600Y-134787200D01*
X96701000Y-135904800D02*
X95532600Y-135904800D01*
X102263600Y-133618800D02*
X102263600Y-134761800D01*
X102289000Y-145937800D02*
X102289000Y-137047800D01*
X94389600Y-138216200D02*
X94389600Y-137047800D01*
X94389600Y-133618800D02*
X94389600Y-121325200D01*
X102263600Y-134761800D02*
G75*
G03*
X101120600Y-135904800I0J-1143000D01*
G01*
X94389600Y-137022400D02*
G75*
G03*
X95507200Y-135904800I2J1117598D01*
G01*
X95507200Y-135904800D02*
G75*
G03*
X94389600Y-134787200I-1117598J2D01*
G01*
X101120600Y-135904800D02*
G75*
G03*
X102263600Y-137047800I1143000J0D01*
G01*
X142452000Y-133369000D02*
X142452000Y-134461200D01*
X126704000Y-137915600D02*
X126704000Y-145662600D01*
X132292000Y-135629600D02*
X133435000Y-135629600D01*
X141309000Y-135629600D02*
X140140600Y-135629600D01*
X134578000Y-133343600D02*
X134578000Y-134486600D01*
X142452000Y-133343600D02*
X142452000Y-121050000D01*
X142452000Y-145688000D02*
X126704000Y-145688000D01*
X126704000Y-133318200D02*
X126704000Y-134512000D01*
X134603400Y-145662600D02*
X134603400Y-136772600D01*
X142452000Y-145662600D02*
X142452000Y-137915600D01*
X142452000Y-121050000D02*
X126704000Y-121050000D01*
X136864000Y-135629600D02*
X140140600Y-135629600D01*
X129015400Y-135629600D02*
X127847000Y-135629600D01*
X132292000Y-135629600D02*
X128990000Y-135629600D01*
X136864000Y-135629600D02*
X135721000Y-135629600D01*
X142452000Y-136772600D02*
X142452000Y-137991800D01*
X126704000Y-133343600D02*
X126704000Y-121050000D01*
X134578000Y-133343600D02*
X134578000Y-121050000D01*
X126704000Y-137941000D02*
X126704000Y-136772600D01*
X142452000Y-134486600D02*
G75*
G03*
X141309000Y-135629600I0J-1143000D01*
G01*
X141309000Y-135629600D02*
G75*
G03*
X142452000Y-136772600I1143000J0D01*
G01*
X127821600Y-135629600D02*
G75*
G03*
X126704000Y-134512000I-1117598J2D01*
G01*
X126704000Y-136747200D02*
G75*
G03*
X127821600Y-135629600I2J1117598D01*
G01*
X135721000Y-135629600D02*
G75*
G03*
X135721000Y-135629600I-1143000J0D01*
G01*
X193379000Y-135502600D02*
X192236000Y-135502600D01*
X198967000Y-133216600D02*
X198967000Y-120923000D01*
X198967000Y-145535600D02*
X198967000Y-137788600D01*
X198967000Y-145561000D02*
X183219000Y-145561000D01*
X183219000Y-137788600D02*
X183219000Y-145535600D01*
X191093000Y-133216600D02*
X191093000Y-120923000D01*
X185530400Y-135502600D02*
X184362000Y-135502600D01*
X188807000Y-135502600D02*
X185505000Y-135502600D01*
X193379000Y-135502600D02*
X196655600Y-135502600D01*
X188807000Y-135502600D02*
X189950000Y-135502600D01*
X191093000Y-133216600D02*
X191093000Y-134359600D01*
X198967000Y-133242000D02*
X198967000Y-134334200D01*
X183219000Y-137814000D02*
X183219000Y-136645600D01*
X198967000Y-136645600D02*
X198967000Y-137864800D01*
X183219000Y-133191200D02*
X183219000Y-134385000D01*
X183219000Y-133216600D02*
X183219000Y-120923000D01*
X198967000Y-120923000D02*
X183219000Y-120923000D01*
X191118400Y-145535600D02*
X191118400Y-136645600D01*
X197824000Y-135502600D02*
X196655600Y-135502600D01*
X184336600Y-135502600D02*
G75*
G03*
X183219000Y-134385000I-1117598J2D01*
G01*
X183219000Y-136620200D02*
G75*
G03*
X184336600Y-135502600I2J1117598D01*
G01*
X198967000Y-134359600D02*
G75*
G03*
X197824000Y-135502600I0J-1143000D01*
G01*
X197824000Y-135502600D02*
G75*
G03*
X198967000Y-136645600I1143000J0D01*
G01*
X192236000Y-135502600D02*
G75*
G03*
X192236000Y-135502600I-1143000J0D01*
G01*
%LPC*%
D11*
X123190000Y-38481000D03*
X125730000Y-38481000D03*
D12*
X213823420Y-134067420D03*
D11*
X150598500Y-38481000D03*
X153138500Y-38481000D03*
X97764600Y-74676000D03*
X100304600Y-74676000D03*
X102844600Y-74676000D03*
X91414600Y-81026000D03*
X88874600Y-81026000D03*
X86334600Y-81026000D03*
D13*
X83820000Y-109093000D03*
D14*
X83820000Y-106553000D03*
X83820000Y-104013000D03*
D11*
X102844600Y-81026000D03*
X100304600Y-81026000D03*
X97764600Y-81026000D03*
X86334600Y-74676000D03*
X88874600Y-74676000D03*
X91414600Y-74676000D03*
X132334000Y-38481000D03*
X134874000Y-38481000D03*
X159004000Y-74930000D03*
X161544000Y-74930000D03*
X164084000Y-74930000D03*
X116655550Y-89066400D03*
X119195550Y-89066400D03*
X159766000Y-38481000D03*
X162306000Y-38481000D03*
X95758000Y-38481000D03*
X98298000Y-38481000D03*
X147574000Y-74930000D03*
X150114000Y-74930000D03*
X152654000Y-74930000D03*
X136144000Y-74930000D03*
X138684000Y-74930000D03*
X141224000Y-74930000D03*
D15*
X103124000Y-103124000D03*
D16*
X105624000Y-103124000D03*
D17*
X132334000Y-66167000D03*
X134874000Y-66167000D03*
X137414000Y-66167000D03*
X139954000Y-66167000D03*
X165354000Y-66167000D03*
X134874000Y-50927000D03*
X142494000Y-66167000D03*
X145034000Y-66167000D03*
X147574000Y-66167000D03*
X150114000Y-66167000D03*
X152654000Y-66167000D03*
X155194000Y-66167000D03*
X157734000Y-66167000D03*
X160274000Y-66167000D03*
X162814000Y-66167000D03*
X162814000Y-50927000D03*
X160274000Y-50927000D03*
X157734000Y-50927000D03*
X155194000Y-50927000D03*
X152654000Y-50927000D03*
X150114000Y-50927000D03*
X147574000Y-50927000D03*
X145034000Y-50927000D03*
X142494000Y-50927000D03*
X139954000Y-50927000D03*
X137414000Y-50927000D03*
X167894000Y-66167000D03*
X170434000Y-66167000D03*
X172974000Y-66167000D03*
X175514000Y-66167000D03*
X178054000Y-66167000D03*
X180594000Y-66167000D03*
X183134000Y-66167000D03*
X185674000Y-66167000D03*
X188214000Y-66167000D03*
X188214000Y-50927000D03*
X185674000Y-50927000D03*
X183134000Y-50927000D03*
X180594000Y-50927000D03*
X178054000Y-50927000D03*
X175514000Y-50927000D03*
X172974000Y-50927000D03*
X170434000Y-50927000D03*
X167894000Y-50927000D03*
X129794000Y-66167000D03*
X165354000Y-50927000D03*
X132334000Y-50927000D03*
D18*
X144764000Y-55377000D03*
X142764000Y-55377000D03*
X142764000Y-53377000D03*
X144764000Y-53377000D03*
X144764000Y-57377000D03*
X142764000Y-57377000D03*
D17*
X129794000Y-50927000D03*
D19*
X87775100Y-51881600D03*
X87775100Y-60081600D03*
D13*
X87775100Y-57981600D03*
D14*
X87775100Y-55981600D03*
X87775100Y-53981600D03*
D11*
X114046000Y-38481000D03*
X116586000Y-38481000D03*
D12*
X81615280Y-133979920D03*
D20*
X200469000Y-63117000D03*
X197929000Y-61847000D03*
X200469000Y-60577000D03*
X197929000Y-59307000D03*
X200469000Y-58037000D03*
X197929000Y-56767000D03*
X200469000Y-55497000D03*
X197929000Y-54227000D03*
D21*
X211899000Y-64997000D03*
X210109000Y-62457000D03*
X211899000Y-54887000D03*
X210109000Y-52347000D03*
D22*
X206819000Y-64387000D03*
X206819000Y-52957000D03*
D23*
X203769000Y-50797000D03*
X203769000Y-66547000D03*
D11*
X104902000Y-38481000D03*
X107442000Y-38481000D03*
D12*
X213696420Y-35731580D03*
X81513680Y-35692080D03*
D24*
X95758000Y-104306379D03*
D16*
X95758000Y-101806379D03*
D11*
X141478000Y-38481000D03*
X144018000Y-38481000D03*
X113284000Y-74930000D03*
X115824000Y-74930000D03*
X118364000Y-74930000D03*
D15*
X103124000Y-95274000D03*
D16*
X105624000Y-95274000D03*
D11*
X124714000Y-74930000D03*
X127254000Y-74930000D03*
X129794000Y-74930000D03*
D25*
X120129300Y-109551500D03*
X120129300Y-117425500D03*
X176869000Y-117468600D03*
X168995000Y-117468600D03*
X157565000Y-117468600D03*
X149691000Y-117468600D03*
X109375600Y-109742800D03*
X109375600Y-117616800D03*
X98453600Y-109869800D03*
X98453600Y-117743800D03*
X138515000Y-117468600D03*
X130641000Y-117468600D03*
X195030000Y-117341600D03*
X187156000Y-117341600D03*
M02*
