G04 #@! TF.GenerationSoftware,KiCad,Pcbnew,(6.0.7)*
G04 #@! TF.CreationDate,2023-03-20T22:10:27-05:00*
G04 #@! TF.ProjectId,ScienceMotorController,53636965-6e63-4654-9d6f-746f72436f6e,rev?*
G04 #@! TF.SameCoordinates,Original*
G04 #@! TF.FileFunction,Soldermask,Bot*
G04 #@! TF.FilePolarity,Negative*
%FSLAX46Y46*%
G04 Gerber Fmt 4.6, Leading zero omitted, Abs format (unit mm)*
G04 Created by KiCad (PCBNEW (6.0.7)) date 2023-03-20 22:10:27*
%MOMM*%
%LPD*%
G01*
G04 APERTURE LIST*
G04 Aperture macros list*
%AMRoundRect*
0 Rectangle with rounded corners*
0 $1 Rounding radius*
0 $2 $3 $4 $5 $6 $7 $8 $9 X,Y pos of 4 corners*
0 Add a 4 corners polygon primitive as box body*
4,1,4,$2,$3,$4,$5,$6,$7,$8,$9,$2,$3,0*
0 Add four circle primitives for the rounded corners*
1,1,$1+$1,$2,$3*
1,1,$1+$1,$4,$5*
1,1,$1+$1,$6,$7*
1,1,$1+$1,$8,$9*
0 Add four rect primitives between the rounded corners*
20,1,$1+$1,$2,$3,$4,$5,0*
20,1,$1+$1,$4,$5,$6,$7,0*
20,1,$1+$1,$6,$7,$8,$9,0*
20,1,$1+$1,$8,$9,$2,$3,0*%
G04 Aperture macros list end*
%ADD10C,1.624000*%
%ADD11C,3.046400*%
%ADD12RoundRect,0.050000X1.250000X-0.750000X1.250000X0.750000X-1.250000X0.750000X-1.250000X-0.750000X0*%
%ADD13O,2.600000X1.600000*%
%ADD14RoundRect,0.050000X-0.800000X-0.800000X0.800000X-0.800000X0.800000X0.800000X-0.800000X0.800000X0*%
%ADD15C,1.700000*%
%ADD16C,1.408000*%
%ADD17C,1.308000*%
%ADD18O,3.600000X2.300000*%
%ADD19C,1.200000*%
%ADD20C,1.500000*%
%ADD21C,4.100000*%
%ADD22C,2.100000*%
%ADD23RoundRect,0.050000X0.800000X-0.800000X0.800000X0.800000X-0.800000X0.800000X-0.800000X-0.800000X0*%
%ADD24O,5.200000X3.100000*%
G04 APERTURE END LIST*
D10*
X123190000Y-38481000D03*
X125730000Y-38481000D03*
D11*
X213823420Y-134067420D03*
D10*
X150598500Y-38481000D03*
X153138500Y-38481000D03*
X97764600Y-74676000D03*
X100304600Y-74676000D03*
X102844600Y-74676000D03*
X91414600Y-81026000D03*
X88874600Y-81026000D03*
X86334600Y-81026000D03*
D12*
X83820000Y-109093000D03*
D13*
X83820000Y-106553000D03*
X83820000Y-104013000D03*
D10*
X102844600Y-81026000D03*
X100304600Y-81026000D03*
X97764600Y-81026000D03*
X86334600Y-74676000D03*
X88874600Y-74676000D03*
X91414600Y-74676000D03*
X132334000Y-38481000D03*
X134874000Y-38481000D03*
X159004000Y-74930000D03*
X161544000Y-74930000D03*
X164084000Y-74930000D03*
X116655550Y-89066400D03*
X119195550Y-89066400D03*
X159766000Y-38481000D03*
X162306000Y-38481000D03*
X95758000Y-38481000D03*
X98298000Y-38481000D03*
X147574000Y-74930000D03*
X150114000Y-74930000D03*
X152654000Y-74930000D03*
X136144000Y-74930000D03*
X138684000Y-74930000D03*
X141224000Y-74930000D03*
D14*
X103124000Y-103124000D03*
D15*
X105624000Y-103124000D03*
D16*
X132334000Y-66167000D03*
X134874000Y-66167000D03*
X137414000Y-66167000D03*
X139954000Y-66167000D03*
X165354000Y-66167000D03*
X134874000Y-50927000D03*
X142494000Y-66167000D03*
X145034000Y-66167000D03*
X147574000Y-66167000D03*
X150114000Y-66167000D03*
X152654000Y-66167000D03*
X155194000Y-66167000D03*
X157734000Y-66167000D03*
X160274000Y-66167000D03*
X162814000Y-66167000D03*
X162814000Y-50927000D03*
X160274000Y-50927000D03*
X157734000Y-50927000D03*
X155194000Y-50927000D03*
X152654000Y-50927000D03*
X150114000Y-50927000D03*
X147574000Y-50927000D03*
X145034000Y-50927000D03*
X142494000Y-50927000D03*
X139954000Y-50927000D03*
X137414000Y-50927000D03*
X167894000Y-66167000D03*
X170434000Y-66167000D03*
X172974000Y-66167000D03*
X175514000Y-66167000D03*
X178054000Y-66167000D03*
X180594000Y-66167000D03*
X183134000Y-66167000D03*
X185674000Y-66167000D03*
X188214000Y-66167000D03*
X188214000Y-50927000D03*
X185674000Y-50927000D03*
X183134000Y-50927000D03*
X180594000Y-50927000D03*
X178054000Y-50927000D03*
X175514000Y-50927000D03*
X172974000Y-50927000D03*
X170434000Y-50927000D03*
X167894000Y-50927000D03*
X129794000Y-66167000D03*
X165354000Y-50927000D03*
X132334000Y-50927000D03*
D17*
X144764000Y-55377000D03*
X142764000Y-55377000D03*
X142764000Y-53377000D03*
X144764000Y-53377000D03*
X144764000Y-57377000D03*
X142764000Y-57377000D03*
D16*
X129794000Y-50927000D03*
D18*
X87775100Y-51881600D03*
X87775100Y-60081600D03*
D12*
X87775100Y-57981600D03*
D13*
X87775100Y-55981600D03*
X87775100Y-53981600D03*
D10*
X114046000Y-38481000D03*
X116586000Y-38481000D03*
D11*
X81615280Y-133979920D03*
D19*
X200469000Y-63117000D03*
X197929000Y-61847000D03*
X200469000Y-60577000D03*
X197929000Y-59307000D03*
X200469000Y-58037000D03*
X197929000Y-56767000D03*
X200469000Y-55497000D03*
X197929000Y-54227000D03*
D20*
X211899000Y-64997000D03*
X210109000Y-62457000D03*
X211899000Y-54887000D03*
X210109000Y-52347000D03*
D21*
X206819000Y-64387000D03*
X206819000Y-52957000D03*
D22*
X203769000Y-50797000D03*
X203769000Y-66547000D03*
D10*
X104902000Y-38481000D03*
X107442000Y-38481000D03*
D11*
X213696420Y-35731580D03*
X81513680Y-35692080D03*
D23*
X95758000Y-104306379D03*
D15*
X95758000Y-101806379D03*
D10*
X141478000Y-38481000D03*
X144018000Y-38481000D03*
X113284000Y-74930000D03*
X115824000Y-74930000D03*
X118364000Y-74930000D03*
D14*
X103124000Y-95274000D03*
D15*
X105624000Y-95274000D03*
D10*
X124714000Y-74930000D03*
X127254000Y-74930000D03*
X129794000Y-74930000D03*
D24*
X120129300Y-109551500D03*
X120129300Y-117425500D03*
X176869000Y-117468600D03*
X168995000Y-117468600D03*
X157565000Y-117468600D03*
X149691000Y-117468600D03*
X109375600Y-109742800D03*
X109375600Y-117616800D03*
X98453600Y-109869800D03*
X98453600Y-117743800D03*
X138515000Y-117468600D03*
X130641000Y-117468600D03*
X195030000Y-117341600D03*
X187156000Y-117341600D03*
G36*
X88908725Y-58780600D02*
G01*
X88908725Y-58782600D01*
X88907556Y-58783519D01*
X88840544Y-58803195D01*
X88795189Y-58855538D01*
X88785332Y-58924091D01*
X88814125Y-58987138D01*
X88849284Y-59012213D01*
X88850114Y-59014033D01*
X88848953Y-59015661D01*
X88847530Y-59015751D01*
X88663780Y-58958694D01*
X88455075Y-58933993D01*
X88425074Y-58933600D01*
X87125196Y-58933600D01*
X86915894Y-58952832D01*
X86713698Y-59009858D01*
X86696677Y-59018252D01*
X86694681Y-59018121D01*
X86693796Y-59016327D01*
X86694457Y-59014969D01*
X86743166Y-58971319D01*
X86761569Y-58904550D01*
X86740952Y-58838433D01*
X86687797Y-58793902D01*
X86638262Y-58783558D01*
X86636771Y-58782225D01*
X86637180Y-58780267D01*
X86638671Y-58779600D01*
X88906993Y-58779600D01*
X88908725Y-58780600D01*
G37*
G36*
X87095125Y-53029207D02*
G01*
X87125126Y-53029600D01*
X88425004Y-53029600D01*
X88628698Y-53010883D01*
X88630514Y-53011721D01*
X88630697Y-53013712D01*
X88629409Y-53014804D01*
X88618742Y-53017722D01*
X88559539Y-53054235D01*
X88529604Y-53116690D01*
X88538186Y-53185415D01*
X88582662Y-53238710D01*
X88590109Y-53242323D01*
X88591143Y-53243849D01*
X88612933Y-53256429D01*
X88613933Y-53258161D01*
X88612933Y-53259893D01*
X88611249Y-53260040D01*
X88462742Y-53205987D01*
X88286139Y-53183677D01*
X88275086Y-53183600D01*
X87275216Y-53183600D01*
X87098306Y-53203444D01*
X86943743Y-53257268D01*
X86941778Y-53256893D01*
X86941120Y-53255004D01*
X86942085Y-53253647D01*
X86958654Y-53244081D01*
X86958654Y-53242121D01*
X86959257Y-53241470D01*
X87003275Y-53211374D01*
X87030238Y-53147581D01*
X87018430Y-53079336D01*
X86971518Y-53028217D01*
X86936132Y-53014352D01*
X86934885Y-53012789D01*
X86935614Y-53010927D01*
X86937097Y-53010504D01*
X87095125Y-53029207D01*
G37*
M02*
