G04 #@! TF.GenerationSoftware,KiCad,Pcbnew,(6.0.7)*
G04 #@! TF.CreationDate,2023-03-20T22:10:27-05:00*
G04 #@! TF.ProjectId,ScienceMotorController,53636965-6e63-4654-9d6f-746f72436f6e,rev?*
G04 #@! TF.SameCoordinates,Original*
G04 #@! TF.FileFunction,Paste,Top*
G04 #@! TF.FilePolarity,Positive*
%FSLAX46Y46*%
G04 Gerber Fmt 4.6, Leading zero omitted, Abs format (unit mm)*
G04 Created by KiCad (PCBNEW (6.0.7)) date 2023-03-20 22:10:27*
%MOMM*%
%LPD*%
G01*
G04 APERTURE LIST*
G04 Aperture macros list*
%AMRoundRect*
0 Rectangle with rounded corners*
0 $1 Rounding radius*
0 $2 $3 $4 $5 $6 $7 $8 $9 X,Y pos of 4 corners*
0 Add a 4 corners polygon primitive as box body*
4,1,4,$2,$3,$4,$5,$6,$7,$8,$9,$2,$3,0*
0 Add four circle primitives for the rounded corners*
1,1,$1+$1,$2,$3*
1,1,$1+$1,$4,$5*
1,1,$1+$1,$6,$7*
1,1,$1+$1,$8,$9*
0 Add four rect primitives between the rounded corners*
20,1,$1+$1,$2,$3,$4,$5,0*
20,1,$1+$1,$4,$5,$6,$7,0*
20,1,$1+$1,$6,$7,$8,$9,0*
20,1,$1+$1,$8,$9,$2,$3,0*%
G04 Aperture macros list end*
%ADD10RoundRect,0.237500X0.237500X-0.250000X0.237500X0.250000X-0.237500X0.250000X-0.237500X-0.250000X0*%
%ADD11RoundRect,0.237500X-0.237500X0.250000X-0.237500X-0.250000X0.237500X-0.250000X0.237500X0.250000X0*%
%ADD12RoundRect,0.237500X-0.250000X-0.237500X0.250000X-0.237500X0.250000X0.237500X-0.250000X0.237500X0*%
%ADD13RoundRect,0.225000X0.225000X0.250000X-0.225000X0.250000X-0.225000X-0.250000X0.225000X-0.250000X0*%
%ADD14RoundRect,0.225000X0.250000X-0.225000X0.250000X0.225000X-0.250000X0.225000X-0.250000X-0.225000X0*%
%ADD15RoundRect,0.237500X0.250000X0.237500X-0.250000X0.237500X-0.250000X-0.237500X0.250000X-0.237500X0*%
%ADD16RoundRect,0.150000X-0.150000X0.825000X-0.150000X-0.825000X0.150000X-0.825000X0.150000X0.825000X0*%
%ADD17RoundRect,0.237500X-0.287500X-0.237500X0.287500X-0.237500X0.287500X0.237500X-0.287500X0.237500X0*%
%ADD18RoundRect,0.237500X0.287500X0.237500X-0.287500X0.237500X-0.287500X-0.237500X0.287500X-0.237500X0*%
%ADD19RoundRect,0.225000X-0.225000X-0.250000X0.225000X-0.250000X0.225000X0.250000X-0.225000X0.250000X0*%
%ADD20RoundRect,0.237500X0.237500X-0.287500X0.237500X0.287500X-0.237500X0.287500X-0.237500X-0.287500X0*%
%ADD21R,0.650000X1.560000*%
%ADD22RoundRect,0.150000X-0.587500X-0.150000X0.587500X-0.150000X0.587500X0.150000X-0.587500X0.150000X0*%
%ADD23RoundRect,0.237500X0.300000X0.237500X-0.300000X0.237500X-0.300000X-0.237500X0.300000X-0.237500X0*%
%ADD24R,1.400000X1.600000*%
%ADD25R,1.600000X1.400000*%
%ADD26RoundRect,0.237500X-0.237500X0.287500X-0.237500X-0.287500X0.237500X-0.287500X0.237500X0.287500X0*%
G04 APERTURE END LIST*
D10*
X177927000Y-92606500D03*
X177927000Y-90781500D03*
D11*
X136525000Y-103735500D03*
X136525000Y-105560500D03*
D12*
X125579500Y-42164000D03*
X127404500Y-42164000D03*
D10*
X118230350Y-98919700D03*
X118230350Y-97094700D03*
D12*
X202033500Y-81534000D03*
X203858500Y-81534000D03*
X137517500Y-88900000D03*
X139342500Y-88900000D03*
D13*
X132220000Y-103759000D03*
X130670000Y-103759000D03*
D14*
X153543000Y-114948000D03*
X153543000Y-113398000D03*
D15*
X187983500Y-88773000D03*
X186158500Y-88773000D03*
D16*
X196850000Y-96204000D03*
X195580000Y-96204000D03*
X194310000Y-96204000D03*
X193040000Y-96204000D03*
X193040000Y-101154000D03*
X194310000Y-101154000D03*
X195580000Y-101154000D03*
X196850000Y-101154000D03*
X132207000Y-122239000D03*
X130937000Y-122239000D03*
X129667000Y-122239000D03*
X128397000Y-122239000D03*
X128397000Y-127189000D03*
X129667000Y-127189000D03*
X130937000Y-127189000D03*
X132207000Y-127189000D03*
X178943000Y-122239000D03*
X177673000Y-122239000D03*
X176403000Y-122239000D03*
X175133000Y-122239000D03*
X175133000Y-127189000D03*
X176403000Y-127189000D03*
X177673000Y-127189000D03*
X178943000Y-127189000D03*
D17*
X140349000Y-80518000D03*
X142099000Y-80518000D03*
D12*
X151741500Y-78740000D03*
X153566500Y-78740000D03*
D10*
X158623000Y-92606500D03*
X158623000Y-90781500D03*
D18*
X100379500Y-53924200D03*
X98629500Y-53924200D03*
D11*
X145415000Y-120372500D03*
X145415000Y-122197500D03*
D12*
X202033500Y-101854000D03*
X203858500Y-101854000D03*
D18*
X203821000Y-84328000D03*
X202071000Y-84328000D03*
D16*
X178689000Y-96331000D03*
X177419000Y-96331000D03*
X176149000Y-96331000D03*
X174879000Y-96331000D03*
X174879000Y-101281000D03*
X176149000Y-101281000D03*
X177419000Y-101281000D03*
X178689000Y-101281000D03*
D12*
X143844000Y-42164000D03*
X145669000Y-42164000D03*
X152988000Y-42164000D03*
X154813000Y-42164000D03*
D11*
X112997950Y-89119100D03*
X112997950Y-90944100D03*
D12*
X80240500Y-93853000D03*
X82065500Y-93853000D03*
D11*
X182880000Y-120245500D03*
X182880000Y-122070500D03*
D19*
X87236000Y-104013000D03*
X88786000Y-104013000D03*
D13*
X178702000Y-103759000D03*
X177152000Y-103759000D03*
D20*
X169799000Y-92569000D03*
X169799000Y-90819000D03*
D16*
X140335000Y-108015000D03*
X139065000Y-108015000D03*
X137795000Y-108015000D03*
X136525000Y-108015000D03*
X136525000Y-112965000D03*
X137795000Y-112965000D03*
X139065000Y-112965000D03*
X140335000Y-112965000D03*
D21*
X191958000Y-90725000D03*
X191008000Y-90725000D03*
X190058000Y-90725000D03*
X190058000Y-93425000D03*
X191008000Y-93425000D03*
X191958000Y-93425000D03*
D11*
X193040000Y-103608500D03*
X193040000Y-105433500D03*
D16*
X151257000Y-108015000D03*
X149987000Y-108015000D03*
X148717000Y-108015000D03*
X147447000Y-108015000D03*
X147447000Y-112965000D03*
X148717000Y-112965000D03*
X149987000Y-112965000D03*
X151257000Y-112965000D03*
D13*
X159398000Y-103759000D03*
X157848000Y-103759000D03*
D17*
X92914500Y-58216800D03*
X94664500Y-58216800D03*
D22*
X120493250Y-92942400D03*
X120493250Y-94842400D03*
X122368250Y-93892400D03*
D12*
X140311500Y-78740000D03*
X142136500Y-78740000D03*
D23*
X194676000Y-52578000D03*
X192951000Y-52578000D03*
D24*
X210669000Y-90888000D03*
X210669000Y-98088000D03*
X207669000Y-90888000D03*
X207669000Y-98088000D03*
D20*
X156591000Y-92569000D03*
X156591000Y-90819000D03*
D10*
X122649950Y-90844400D03*
X122649950Y-89019400D03*
D16*
X159385000Y-122239000D03*
X158115000Y-122239000D03*
X156845000Y-122239000D03*
X155575000Y-122239000D03*
X155575000Y-127189000D03*
X156845000Y-127189000D03*
X158115000Y-127189000D03*
X159385000Y-127189000D03*
D15*
X169822500Y-88900000D03*
X167997500Y-88900000D03*
D20*
X190754000Y-99554000D03*
X190754000Y-97804000D03*
D17*
X83834000Y-62534800D03*
X85584000Y-62534800D03*
D12*
X128881500Y-78740000D03*
X130706500Y-78740000D03*
X134747000Y-42164000D03*
X136572000Y-42164000D03*
D13*
X140348000Y-103759000D03*
X138798000Y-103759000D03*
D16*
X132207000Y-108015000D03*
X130937000Y-108015000D03*
X129667000Y-108015000D03*
X128397000Y-108015000D03*
X128397000Y-112965000D03*
X129667000Y-112965000D03*
X130937000Y-112965000D03*
X132207000Y-112965000D03*
X196850000Y-107888000D03*
X195580000Y-107888000D03*
X194310000Y-107888000D03*
X193040000Y-107888000D03*
X193040000Y-112838000D03*
X194310000Y-112838000D03*
X195580000Y-112838000D03*
X196850000Y-112838000D03*
D12*
X163171500Y-78740000D03*
X164996500Y-78740000D03*
D16*
X159385000Y-108015000D03*
X158115000Y-108015000D03*
X156845000Y-108015000D03*
X155575000Y-108015000D03*
X155575000Y-112965000D03*
X156845000Y-112965000D03*
X158115000Y-112965000D03*
X159385000Y-112965000D03*
D17*
X117489000Y-80518000D03*
X119239000Y-80518000D03*
D11*
X148463000Y-90781500D03*
X148463000Y-92606500D03*
D17*
X103029750Y-42164000D03*
X104779750Y-42164000D03*
D14*
X134493000Y-114948000D03*
X134493000Y-113398000D03*
X172847000Y-114948000D03*
X172847000Y-113398000D03*
D16*
X178689000Y-108015000D03*
X177419000Y-108015000D03*
X176149000Y-108015000D03*
X174879000Y-108015000D03*
X174879000Y-112965000D03*
X176149000Y-112965000D03*
X177419000Y-112965000D03*
X178689000Y-112965000D03*
X151257000Y-96331000D03*
X149987000Y-96331000D03*
X148717000Y-96331000D03*
X147447000Y-96331000D03*
X147447000Y-101281000D03*
X148717000Y-101281000D03*
X149987000Y-101281000D03*
X151257000Y-101281000D03*
D21*
X135443000Y-90852000D03*
X134493000Y-90852000D03*
X133543000Y-90852000D03*
X133543000Y-93552000D03*
X134493000Y-93552000D03*
X135443000Y-93552000D03*
D13*
X196863000Y-103632000D03*
X195313000Y-103632000D03*
D20*
X172593000Y-99681000D03*
X172593000Y-97931000D03*
D10*
X196088000Y-92479500D03*
X196088000Y-90654500D03*
D12*
X202033500Y-122174000D03*
X203858500Y-122174000D03*
D20*
X187960000Y-92442000D03*
X187960000Y-90692000D03*
D17*
X157851500Y-42164000D03*
X159601500Y-42164000D03*
D11*
X153543000Y-120372500D03*
X153543000Y-122197500D03*
D14*
X87757000Y-108471000D03*
X87757000Y-106921000D03*
D24*
X210669000Y-121368000D03*
X210669000Y-128568000D03*
X207669000Y-121368000D03*
X207669000Y-128568000D03*
D12*
X202033500Y-112014000D03*
X203858500Y-112014000D03*
D11*
X172847000Y-120372500D03*
X172847000Y-122197500D03*
D16*
X188722000Y-96204000D03*
X187452000Y-96204000D03*
X186182000Y-96204000D03*
X184912000Y-96204000D03*
X184912000Y-101154000D03*
X186182000Y-101154000D03*
X187452000Y-101154000D03*
X188722000Y-101154000D03*
X170561000Y-122239000D03*
X169291000Y-122239000D03*
X168021000Y-122239000D03*
X166751000Y-122239000D03*
X166751000Y-127189000D03*
X168021000Y-127189000D03*
X169291000Y-127189000D03*
X170561000Y-127189000D03*
D11*
X129413000Y-90781500D03*
X129413000Y-92606500D03*
D17*
X139563500Y-42164000D03*
X141313500Y-42164000D03*
D13*
X151270000Y-103759000D03*
X149720000Y-103759000D03*
D17*
X93867000Y-42164000D03*
X95617000Y-42164000D03*
X128919000Y-80518000D03*
X130669000Y-80518000D03*
D12*
X117451500Y-78740000D03*
X119276500Y-78740000D03*
D11*
X166751000Y-103735500D03*
X166751000Y-105560500D03*
D13*
X170574000Y-103759000D03*
X169024000Y-103759000D03*
D16*
X188722000Y-122112000D03*
X187452000Y-122112000D03*
X186182000Y-122112000D03*
X184912000Y-122112000D03*
X184912000Y-127062000D03*
X186182000Y-127062000D03*
X187452000Y-127062000D03*
X188722000Y-127062000D03*
D12*
X116459000Y-42164000D03*
X118284000Y-42164000D03*
D16*
X159385000Y-96331000D03*
X158115000Y-96331000D03*
X156845000Y-96331000D03*
X155575000Y-96331000D03*
X155575000Y-101281000D03*
X156845000Y-101281000D03*
X158115000Y-101281000D03*
X159385000Y-101281000D03*
X170561000Y-108015000D03*
X169291000Y-108015000D03*
X168021000Y-108015000D03*
X166751000Y-108015000D03*
X166751000Y-112965000D03*
X168021000Y-112965000D03*
X169291000Y-112965000D03*
X170561000Y-112965000D03*
X151257000Y-122239000D03*
X149987000Y-122239000D03*
X148717000Y-122239000D03*
X147447000Y-122239000D03*
X147447000Y-127189000D03*
X148717000Y-127189000D03*
X149987000Y-127189000D03*
X151257000Y-127189000D03*
D12*
X202033500Y-91694000D03*
X203858500Y-91694000D03*
D16*
X140335000Y-122239000D03*
X139065000Y-122239000D03*
X137795000Y-122239000D03*
X136525000Y-122239000D03*
X136525000Y-127189000D03*
X137795000Y-127189000D03*
X139065000Y-127189000D03*
X140335000Y-127189000D03*
D20*
X142494000Y-99681000D03*
X142494000Y-97931000D03*
D10*
X112540750Y-95109700D03*
X112540750Y-93284700D03*
D11*
X184912000Y-103608500D03*
X184912000Y-105433500D03*
D18*
X203821000Y-124968000D03*
X202071000Y-124968000D03*
D17*
X148961500Y-42164000D03*
X150711500Y-42164000D03*
D16*
X196850000Y-122112000D03*
X195580000Y-122112000D03*
X194310000Y-122112000D03*
X193040000Y-122112000D03*
X193040000Y-127062000D03*
X194310000Y-127062000D03*
X195580000Y-127062000D03*
X196850000Y-127062000D03*
D12*
X87479500Y-49479200D03*
X89304500Y-49479200D03*
D16*
X140335000Y-96331000D03*
X139065000Y-96331000D03*
X137795000Y-96331000D03*
X136525000Y-96331000D03*
X136525000Y-101281000D03*
X137795000Y-101281000D03*
X139065000Y-101281000D03*
X140335000Y-101281000D03*
D20*
X137541000Y-92569000D03*
X137541000Y-90819000D03*
D25*
X110892500Y-63730000D03*
X103692500Y-63730000D03*
X103692500Y-60730000D03*
X110892500Y-60730000D03*
D18*
X203821000Y-114808000D03*
X202071000Y-114808000D03*
D24*
X210669000Y-101048000D03*
X210669000Y-108248000D03*
X207669000Y-101048000D03*
X207669000Y-108248000D03*
D12*
X97830000Y-58216800D03*
X99655000Y-58216800D03*
X92178500Y-93853000D03*
X94003500Y-93853000D03*
D15*
X106259000Y-54051200D03*
X104434000Y-54051200D03*
D12*
X98147500Y-42164000D03*
X99972500Y-42164000D03*
X156567500Y-88900000D03*
X158392500Y-88900000D03*
D24*
X207669000Y-80728000D03*
X207669000Y-87928000D03*
X210669000Y-87928000D03*
X210669000Y-80728000D03*
D10*
X139573000Y-92606500D03*
X139573000Y-90781500D03*
D12*
X194032500Y-88773000D03*
X195857500Y-88773000D03*
D15*
X131468500Y-88900000D03*
X129643500Y-88900000D03*
D16*
X188722000Y-107888000D03*
X187452000Y-107888000D03*
X186182000Y-107888000D03*
X184912000Y-107888000D03*
X184912000Y-112838000D03*
X186182000Y-112838000D03*
X187452000Y-112838000D03*
X188722000Y-112838000D03*
D18*
X93966000Y-92075000D03*
X92216000Y-92075000D03*
D20*
X194056000Y-92442000D03*
X194056000Y-90692000D03*
D11*
X174879000Y-103735500D03*
X174879000Y-105560500D03*
D12*
X175871500Y-88900000D03*
X177696500Y-88900000D03*
D16*
X170561000Y-96331000D03*
X169291000Y-96331000D03*
X168021000Y-96331000D03*
X166751000Y-96331000D03*
X166751000Y-101281000D03*
X168021000Y-101281000D03*
X169291000Y-101281000D03*
X170561000Y-101281000D03*
D18*
X82028000Y-92075000D03*
X80278000Y-92075000D03*
D13*
X188735000Y-103632000D03*
X187185000Y-103632000D03*
D26*
X120008350Y-97183000D03*
X120008350Y-98933000D03*
D11*
X147447000Y-103735500D03*
X147447000Y-105560500D03*
D12*
X108498000Y-58071000D03*
X110323000Y-58071000D03*
D20*
X150495000Y-92569000D03*
X150495000Y-90819000D03*
D18*
X87997000Y-92075000D03*
X86247000Y-92075000D03*
D11*
X164719000Y-120372500D03*
X164719000Y-122197500D03*
D21*
X173797000Y-90852000D03*
X172847000Y-90852000D03*
X171897000Y-90852000D03*
X171897000Y-93552000D03*
X172847000Y-93552000D03*
X173797000Y-93552000D03*
D20*
X180848000Y-99681000D03*
X180848000Y-97931000D03*
D17*
X103582500Y-58071000D03*
X105332500Y-58071000D03*
D25*
X100224500Y-60875800D03*
X93024500Y-60875800D03*
X100224500Y-63875800D03*
X93024500Y-63875800D03*
D17*
X121299000Y-42164000D03*
X123049000Y-42164000D03*
X163209000Y-80518000D03*
X164959000Y-80518000D03*
D18*
X203821000Y-94488000D03*
X202071000Y-94488000D03*
D11*
X128397000Y-103735500D03*
X128397000Y-105560500D03*
D20*
X199009000Y-99554000D03*
X199009000Y-97804000D03*
D16*
X132207000Y-96331000D03*
X130937000Y-96331000D03*
X129667000Y-96331000D03*
X128397000Y-96331000D03*
X128397000Y-101281000D03*
X129667000Y-101281000D03*
X130937000Y-101281000D03*
X132207000Y-101281000D03*
D11*
X155575000Y-103735500D03*
X155575000Y-105560500D03*
X167767000Y-90781500D03*
X167767000Y-92606500D03*
D14*
X191008000Y-114821000D03*
X191008000Y-113271000D03*
D15*
X95591000Y-53924200D03*
X93766000Y-53924200D03*
D22*
X114803650Y-93247200D03*
X114803650Y-95147200D03*
X116678650Y-94197200D03*
D21*
X154493000Y-90852000D03*
X153543000Y-90852000D03*
X152593000Y-90852000D03*
X152593000Y-93552000D03*
X153543000Y-93552000D03*
X154493000Y-93552000D03*
D12*
X162132000Y-42164000D03*
X163957000Y-42164000D03*
D20*
X134239000Y-99681000D03*
X134239000Y-97931000D03*
D17*
X130720500Y-42164000D03*
X132470500Y-42164000D03*
D11*
X134493000Y-120372500D03*
X134493000Y-122197500D03*
D20*
X153289000Y-99681000D03*
X153289000Y-97931000D03*
D15*
X150518500Y-88900000D03*
X148693500Y-88900000D03*
D24*
X210669000Y-118408000D03*
X210669000Y-111208000D03*
X207669000Y-111208000D03*
X207669000Y-118408000D03*
D18*
X203680000Y-104648000D03*
X201930000Y-104648000D03*
D25*
X110978500Y-48247200D03*
X103778500Y-48247200D03*
X103778500Y-51247200D03*
X110978500Y-51247200D03*
D11*
X126365000Y-120372500D03*
X126365000Y-122197500D03*
X185928000Y-90654500D03*
X185928000Y-92479500D03*
D25*
X93110500Y-48247200D03*
X100310500Y-48247200D03*
X93110500Y-51247200D03*
X100310500Y-51247200D03*
D12*
X87733500Y-62534800D03*
X89558500Y-62534800D03*
D18*
X111047500Y-53924200D03*
X109297500Y-53924200D03*
D15*
X88034500Y-93853000D03*
X86209500Y-93853000D03*
D20*
X131445000Y-92569000D03*
X131445000Y-90819000D03*
D12*
X107310250Y-42164000D03*
X109135250Y-42164000D03*
D17*
X112178500Y-42164000D03*
X113928500Y-42164000D03*
D20*
X175895000Y-92569000D03*
X175895000Y-90819000D03*
D11*
X191008000Y-120245500D03*
X191008000Y-122070500D03*
D17*
X151779000Y-80518000D03*
X153529000Y-80518000D03*
D20*
X161544000Y-99681000D03*
X161544000Y-97931000D03*
D17*
X83580000Y-49479200D03*
X85330000Y-49479200D03*
M02*
