G04 #@! TF.GenerationSoftware,KiCad,Pcbnew,7.0.7*
G04 #@! TF.CreationDate,2024-04-12T20:50:38-05:00*
G04 #@! TF.ProjectId,Science_Actuation,53636965-6e63-4655-9f41-637475617469,rev?*
G04 #@! TF.SameCoordinates,Original*
G04 #@! TF.FileFunction,Paste,Top*
G04 #@! TF.FilePolarity,Positive*
%FSLAX46Y46*%
G04 Gerber Fmt 4.6, Leading zero omitted, Abs format (unit mm)*
G04 Created by KiCad (PCBNEW 7.0.7) date 2024-04-12 20:50:38*
%MOMM*%
%LPD*%
G01*
G04 APERTURE LIST*
G04 Aperture macros list*
%AMRoundRect*
0 Rectangle with rounded corners*
0 $1 Rounding radius*
0 $2 $3 $4 $5 $6 $7 $8 $9 X,Y pos of 4 corners*
0 Add a 4 corners polygon primitive as box body*
4,1,4,$2,$3,$4,$5,$6,$7,$8,$9,$2,$3,0*
0 Add four circle primitives for the rounded corners*
1,1,$1+$1,$2,$3*
1,1,$1+$1,$4,$5*
1,1,$1+$1,$6,$7*
1,1,$1+$1,$8,$9*
0 Add four rect primitives between the rounded corners*
20,1,$1+$1,$2,$3,$4,$5,0*
20,1,$1+$1,$4,$5,$6,$7,0*
20,1,$1+$1,$6,$7,$8,$9,0*
20,1,$1+$1,$8,$9,$2,$3,0*%
G04 Aperture macros list end*
%ADD10R,0.650000X1.560000*%
%ADD11RoundRect,0.237500X-0.287500X-0.237500X0.287500X-0.237500X0.287500X0.237500X-0.287500X0.237500X0*%
%ADD12R,1.400000X1.600000*%
%ADD13RoundRect,0.237500X0.237500X-0.300000X0.237500X0.300000X-0.237500X0.300000X-0.237500X-0.300000X0*%
%ADD14RoundRect,0.237500X-0.250000X-0.237500X0.250000X-0.237500X0.250000X0.237500X-0.250000X0.237500X0*%
%ADD15RoundRect,0.150000X0.825000X0.150000X-0.825000X0.150000X-0.825000X-0.150000X0.825000X-0.150000X0*%
%ADD16RoundRect,0.237500X0.287500X0.237500X-0.287500X0.237500X-0.287500X-0.237500X0.287500X-0.237500X0*%
%ADD17RoundRect,0.237500X-0.237500X0.287500X-0.237500X-0.287500X0.237500X-0.287500X0.237500X0.287500X0*%
%ADD18RoundRect,0.237500X-0.237500X0.250000X-0.237500X-0.250000X0.237500X-0.250000X0.237500X0.250000X0*%
%ADD19RoundRect,0.237500X0.250000X0.237500X-0.250000X0.237500X-0.250000X-0.237500X0.250000X-0.237500X0*%
%ADD20RoundRect,0.237500X-0.237500X0.300000X-0.237500X-0.300000X0.237500X-0.300000X0.237500X0.300000X0*%
%ADD21RoundRect,0.237500X0.300000X0.237500X-0.300000X0.237500X-0.300000X-0.237500X0.300000X-0.237500X0*%
G04 APERTURE END LIST*
D10*
X127230297Y-82296000D03*
X126280297Y-82296000D03*
X125330297Y-82296000D03*
X125330297Y-84996000D03*
X126280297Y-84996000D03*
X127230297Y-84996000D03*
D11*
X119563297Y-65278000D03*
X121313297Y-65278000D03*
D12*
X124780297Y-50844000D03*
X124780297Y-43644000D03*
X127780297Y-50844000D03*
X127780297Y-43644000D03*
D13*
X112310297Y-107796500D03*
X112310297Y-106071500D03*
D14*
X153307797Y-110363000D03*
X155132797Y-110363000D03*
D15*
X119992297Y-99695000D03*
X119992297Y-98425000D03*
X119992297Y-97155000D03*
X119992297Y-95885000D03*
X115042297Y-95885000D03*
X115042297Y-97155000D03*
X115042297Y-98425000D03*
X115042297Y-99695000D03*
D13*
X112310297Y-71220500D03*
X112310297Y-69495500D03*
D16*
X160387000Y-53848000D03*
X158637000Y-53848000D03*
D14*
X153411297Y-130683000D03*
X155236297Y-130683000D03*
D15*
X107673297Y-107823000D03*
X107673297Y-106553000D03*
X107673297Y-105283000D03*
X107673297Y-104013000D03*
X102723297Y-104013000D03*
X102723297Y-105283000D03*
X102723297Y-106553000D03*
X102723297Y-107823000D03*
X119992297Y-71501000D03*
X119992297Y-70231000D03*
X119992297Y-68961000D03*
X119992297Y-67691000D03*
X115042297Y-67691000D03*
X115042297Y-68961000D03*
X115042297Y-70231000D03*
X115042297Y-71501000D03*
X94719297Y-98425000D03*
X94719297Y-97155000D03*
X94719297Y-95885000D03*
X94719297Y-94615000D03*
X89769297Y-94615000D03*
X89769297Y-95885000D03*
X89769297Y-97155000D03*
X89769297Y-98425000D03*
X94719297Y-124714000D03*
X94719297Y-123444000D03*
X94719297Y-122174000D03*
X94719297Y-120904000D03*
X89769297Y-120904000D03*
X89769297Y-122174000D03*
X89769297Y-123444000D03*
X89769297Y-124714000D03*
D17*
X114402000Y-133378000D03*
X114402000Y-135128000D03*
D18*
X110338000Y-133340500D03*
X110338000Y-135165500D03*
D10*
X127230297Y-100584000D03*
X126280297Y-100584000D03*
X125330297Y-100584000D03*
X125330297Y-103284000D03*
X126280297Y-103284000D03*
X127230297Y-103284000D03*
D15*
X119992297Y-108077000D03*
X119992297Y-106807000D03*
X119992297Y-105537000D03*
X119992297Y-104267000D03*
X115042297Y-104267000D03*
X115042297Y-105537000D03*
X115042297Y-106807000D03*
X115042297Y-108077000D03*
D13*
X112310297Y-89508500D03*
X112310297Y-87783500D03*
D19*
X117032797Y-75438000D03*
X115207797Y-75438000D03*
D20*
X86910297Y-48413500D03*
X86910297Y-50138500D03*
D19*
X112206797Y-121793000D03*
X110381797Y-121793000D03*
D10*
X127230297Y-64008000D03*
X126280297Y-64008000D03*
X125330297Y-64008000D03*
X125330297Y-66708000D03*
X126280297Y-66708000D03*
X127230297Y-66708000D03*
D12*
X107508297Y-50800000D03*
X107508297Y-43600000D03*
X110508297Y-50800000D03*
X110508297Y-43600000D03*
D13*
X86910297Y-54456500D03*
X86910297Y-52731500D03*
D10*
X127230297Y-118872000D03*
X126280297Y-118872000D03*
X125330297Y-118872000D03*
X125330297Y-121572000D03*
X126280297Y-121572000D03*
X127230297Y-121572000D03*
D13*
X122470297Y-88746500D03*
X122470297Y-87021500D03*
D19*
X117032797Y-112014000D03*
X115207797Y-112014000D03*
D15*
X94719297Y-116713000D03*
X94719297Y-115443000D03*
X94719297Y-114173000D03*
X94719297Y-112903000D03*
X89769297Y-112903000D03*
X89769297Y-114173000D03*
X89769297Y-115443000D03*
X89769297Y-116713000D03*
X107673297Y-81661000D03*
X107673297Y-80391000D03*
X107673297Y-79121000D03*
X107673297Y-77851000D03*
X102723297Y-77851000D03*
X102723297Y-79121000D03*
X102723297Y-80391000D03*
X102723297Y-81661000D03*
X107673297Y-99949000D03*
X107673297Y-98679000D03*
X107673297Y-97409000D03*
X107673297Y-96139000D03*
X102723297Y-96139000D03*
X102723297Y-97409000D03*
X102723297Y-98679000D03*
X102723297Y-99949000D03*
D19*
X165800797Y-110363000D03*
X163975797Y-110363000D03*
D11*
X119563297Y-120142000D03*
X121313297Y-120142000D03*
D15*
X94719297Y-69850000D03*
X94719297Y-68580000D03*
X94719297Y-67310000D03*
X94719297Y-66040000D03*
X89769297Y-66040000D03*
X89769297Y-67310000D03*
X89769297Y-68580000D03*
X89769297Y-69850000D03*
X119992297Y-126365000D03*
X119992297Y-125095000D03*
X119992297Y-123825000D03*
X119992297Y-122555000D03*
X115042297Y-122555000D03*
X115042297Y-123825000D03*
X115042297Y-125095000D03*
X115042297Y-126365000D03*
D14*
X157433000Y-58674000D03*
X159258000Y-58674000D03*
D18*
X110338000Y-138674500D03*
X110338000Y-140499500D03*
D15*
X107673297Y-89535000D03*
X107673297Y-88265000D03*
X107673297Y-86995000D03*
X107673297Y-85725000D03*
X102723297Y-85725000D03*
X102723297Y-86995000D03*
X102723297Y-88265000D03*
X102723297Y-89535000D03*
D13*
X122470297Y-80364500D03*
X122470297Y-78639500D03*
D15*
X107673297Y-118237000D03*
X107673297Y-116967000D03*
X107673297Y-115697000D03*
X107673297Y-114427000D03*
X102723297Y-114427000D03*
X102723297Y-115697000D03*
X102723297Y-116967000D03*
X102723297Y-118237000D03*
X94719297Y-88138000D03*
X94719297Y-86868000D03*
X94719297Y-85598000D03*
X94719297Y-84328000D03*
X89769297Y-84328000D03*
X89769297Y-85598000D03*
X89769297Y-86868000D03*
X89769297Y-88138000D03*
D19*
X154582500Y-58674000D03*
X152757500Y-58674000D03*
D12*
X150688297Y-50844000D03*
X150688297Y-43644000D03*
X153688297Y-50844000D03*
X153688297Y-43644000D03*
D15*
X119992297Y-81407000D03*
X119992297Y-80137000D03*
X119992297Y-78867000D03*
X119992297Y-77597000D03*
X115042297Y-77597000D03*
X115042297Y-78867000D03*
X115042297Y-80137000D03*
X115042297Y-81407000D03*
X94719297Y-61849000D03*
X94719297Y-60579000D03*
X94719297Y-59309000D03*
X94719297Y-58039000D03*
X89769297Y-58039000D03*
X89769297Y-59309000D03*
X89769297Y-60579000D03*
X89769297Y-61849000D03*
D13*
X122470297Y-107161500D03*
X122470297Y-105436500D03*
D17*
X114402000Y-144046000D03*
X114402000Y-145796000D03*
D19*
X112206797Y-85217000D03*
X110381797Y-85217000D03*
D15*
X107673297Y-71247000D03*
X107673297Y-69977000D03*
X107673297Y-68707000D03*
X107673297Y-67437000D03*
X102723297Y-67437000D03*
X102723297Y-68707000D03*
X102723297Y-69977000D03*
X102723297Y-71247000D03*
D19*
X117032797Y-57150000D03*
X115207797Y-57150000D03*
D11*
X119577297Y-101854000D03*
X121327297Y-101854000D03*
D13*
X112310297Y-99668500D03*
X112310297Y-97943500D03*
D12*
X116120297Y-50800000D03*
X116120297Y-43600000D03*
X119120297Y-50800000D03*
X119120297Y-43600000D03*
D11*
X119563297Y-110236000D03*
X121313297Y-110236000D03*
D15*
X119992297Y-89789000D03*
X119992297Y-88519000D03*
X119992297Y-87249000D03*
X119992297Y-85979000D03*
X115042297Y-85979000D03*
X115042297Y-87249000D03*
X115042297Y-88519000D03*
X115042297Y-89789000D03*
X119992297Y-117983000D03*
X119992297Y-116713000D03*
X119992297Y-115443000D03*
X119992297Y-114173000D03*
X115042297Y-114173000D03*
X115042297Y-115443000D03*
X115042297Y-116713000D03*
X115042297Y-117983000D03*
D19*
X165800797Y-130683000D03*
X163975797Y-130683000D03*
D15*
X107673297Y-63373000D03*
X107673297Y-62103000D03*
X107673297Y-60833000D03*
X107673297Y-59563000D03*
X102723297Y-59563000D03*
X102723297Y-60833000D03*
X102723297Y-62103000D03*
X102723297Y-63373000D03*
D13*
X122470297Y-98626000D03*
X122470297Y-96901000D03*
D19*
X112230297Y-95758000D03*
X110405297Y-95758000D03*
D12*
X133416297Y-50844000D03*
X133416297Y-43644000D03*
X136416297Y-50844000D03*
X136416297Y-43644000D03*
D11*
X119563297Y-128524000D03*
X121313297Y-128524000D03*
X119577297Y-83566000D03*
X121327297Y-83566000D03*
D15*
X119992297Y-63119000D03*
X119992297Y-61849000D03*
X119992297Y-60579000D03*
X119992297Y-59309000D03*
X115042297Y-59309000D03*
X115042297Y-60579000D03*
X115042297Y-61849000D03*
X115042297Y-63119000D03*
D19*
X117032797Y-83566000D03*
X115207797Y-83566000D03*
X117032797Y-65278000D03*
X115207797Y-65278000D03*
X112206797Y-59182000D03*
X110381797Y-59182000D03*
X117032797Y-101854000D03*
X115207797Y-101854000D03*
D15*
X94719297Y-106426000D03*
X94719297Y-105156000D03*
X94719297Y-103886000D03*
X94719297Y-102616000D03*
X89769297Y-102616000D03*
X89769297Y-103886000D03*
X89769297Y-105156000D03*
X89769297Y-106426000D03*
D19*
X112206797Y-66929000D03*
X110381797Y-66929000D03*
D13*
X122470297Y-62076500D03*
X122470297Y-60351500D03*
D19*
X112206797Y-103886000D03*
X110381797Y-103886000D03*
D15*
X107673297Y-126111000D03*
X107673297Y-124841000D03*
X107673297Y-123571000D03*
X107673297Y-122301000D03*
X102723297Y-122301000D03*
X102723297Y-123571000D03*
X102723297Y-124841000D03*
X102723297Y-126111000D03*
D13*
X112310297Y-81380500D03*
X112310297Y-79655500D03*
D18*
X110338000Y-144008500D03*
X110338000Y-145833500D03*
D19*
X112206797Y-114046000D03*
X110381797Y-114046000D03*
D13*
X122470297Y-70458500D03*
X122470297Y-68733500D03*
X112310297Y-126084500D03*
X112310297Y-124359500D03*
D19*
X117032797Y-93726000D03*
X115207797Y-93726000D03*
D12*
X142052297Y-50844000D03*
X142052297Y-43644000D03*
X145052297Y-50844000D03*
X145052297Y-43644000D03*
D13*
X112310297Y-117956500D03*
X112310297Y-116231500D03*
D19*
X117032797Y-120142000D03*
X115207797Y-120142000D03*
X165800797Y-120586500D03*
X163975797Y-120586500D03*
X112206797Y-77470000D03*
X110381797Y-77470000D03*
D11*
X119577297Y-91948000D03*
X121327297Y-91948000D03*
D17*
X114289000Y-138712000D03*
X114289000Y-140462000D03*
D14*
X153307797Y-120586500D03*
X155132797Y-120586500D03*
D21*
X145515500Y-124206000D03*
X143790500Y-124206000D03*
D13*
X122470297Y-116940500D03*
X122470297Y-115215500D03*
X112310297Y-63092500D03*
X112310297Y-61367500D03*
D15*
X94719297Y-80137000D03*
X94719297Y-78867000D03*
X94719297Y-77597000D03*
X94719297Y-76327000D03*
X89769297Y-76327000D03*
X89769297Y-77597000D03*
X89769297Y-78867000D03*
X89769297Y-80137000D03*
D11*
X119563297Y-73660000D03*
X121313297Y-73660000D03*
D19*
X160424500Y-51816000D03*
X158599500Y-51816000D03*
D13*
X122470297Y-125322500D03*
X122470297Y-123597500D03*
M02*
