M48
; DRILL file {KiCad 7.0.7} date Fri Apr 12 20:50:54 2024
; FORMAT={-:-/ absolute / metric / decimal}
; #@! TF.CreationDate,2024-04-12T20:50:54-05:00
; #@! TF.GenerationSoftware,Kicad,Pcbnew,7.0.7
; #@! TF.FileFunction,Plated,1,2,PTH
FMAT,2
METRIC
; #@! TA.AperFunction,Plated,PTH,ViaDrill
T1C0.400
; #@! TA.AperFunction,Plated,PTH,ComponentDrill
T2C0.700
; #@! TA.AperFunction,Plated,PTH,ComponentDrill
T3C0.800
; #@! TA.AperFunction,Plated,PTH,ComponentDrill
T4C0.900
; #@! TA.AperFunction,Plated,PTH,ComponentDrill
T5C1.000
; #@! TA.AperFunction,Plated,PTH,ComponentDrill
T6C1.020
; #@! TA.AperFunction,Plated,PTH,ComponentDrill
T7C1.500
; #@! TA.AperFunction,Plated,PTH,ComponentDrill
T8C1.600
; #@! TA.AperFunction,Plated,PTH,ComponentDrill
T9C2.000
; #@! TA.AperFunction,Plated,PTH,ComponentDrill
T10C3.250
%
G90
G05
T1
X97.79Y-73.66
X97.79Y-92.075
X97.79Y-110.49
X100.965Y-73.66
X100.965Y-92.075
X100.965Y-110.49
X105.791Y-59.563
X105.791Y-60.833
X105.791Y-62.103
X105.791Y-63.373
X105.791Y-67.437
X105.791Y-68.707
X105.791Y-69.977
X105.791Y-71.247
X105.791Y-73.787
X105.791Y-77.851
X105.791Y-79.121
X105.791Y-80.391
X105.791Y-81.661
X105.791Y-85.725
X105.791Y-86.995
X105.791Y-88.265
X105.791Y-89.535
X105.791Y-92.075
X105.791Y-97.409
X105.791Y-98.679
X105.791Y-99.949
X105.791Y-104.013
X105.791Y-105.283
X105.791Y-106.553
X105.791Y-107.823
X105.791Y-110.363
X105.791Y-114.427
X105.791Y-115.697
X105.791Y-116.967
X105.791Y-118.237
X105.791Y-122.301
X105.791Y-123.571
X105.791Y-124.841
X105.791Y-126.111
X107.696Y-127.0
X108.077Y-53.34
X108.966Y-142.875
X109.474Y-79.121
X109.474Y-80.391
X109.474Y-81.661
X109.601Y-60.833
X109.601Y-62.103
X109.601Y-63.373
X109.601Y-68.707
X109.601Y-69.977
X109.601Y-71.247
X109.601Y-73.787
X109.601Y-86.995
X109.601Y-88.265
X109.601Y-89.535
X109.601Y-92.075
X109.601Y-97.409
X109.601Y-98.679
X109.601Y-99.949
X109.601Y-105.283
X109.601Y-106.553
X109.601Y-107.823
X109.601Y-110.363
X109.601Y-115.697
X109.601Y-116.967
X109.601Y-118.237
X109.601Y-123.571
X109.601Y-124.841
X109.601Y-126.111
X110.363Y-131.826
X113.03Y-43.688
X113.03Y-50.8
X114.3Y-64.262
X114.362Y-82.74
X114.427Y-142.24
X114.517Y-100.905
X114.517Y-119.193
X114.579Y-92.507
X114.808Y-110.871
X115.062Y-74.168
X116.586Y-52.578
X116.84Y-127.762
X118.11Y-105.537
X118.11Y-106.807
X118.11Y-108.077
X118.237Y-60.579
X118.237Y-61.849
X118.237Y-63.119
X118.237Y-87.249
X118.237Y-88.519
X118.237Y-89.789
X118.237Y-97.155
X118.237Y-98.425
X118.237Y-99.695
X118.237Y-126.365
X118.279Y-123.825
X118.279Y-125.095
X118.364Y-68.961
X118.364Y-70.231
X118.364Y-71.501
X118.364Y-78.867
X118.364Y-80.137
X118.364Y-81.407
X118.364Y-117.983
X118.406Y-115.443
X118.406Y-116.713
X121.666Y-43.688
X121.666Y-50.8
X122.555Y-58.42
X122.555Y-66.675
X122.555Y-76.2
X122.555Y-85.09
X122.555Y-93.98
X122.555Y-103.505
X122.555Y-113.03
X122.555Y-121.92
X123.317Y-63.373
X123.867Y-115.697
X124.206Y-60.833
X124.206Y-79.248
X124.333Y-97.536
X125.095Y-52.451
X125.095Y-62.23
X125.222Y-68.961
X125.222Y-70.231
X125.222Y-71.628
X125.349Y-80.645
X125.349Y-98.806
X125.349Y-116.332
X125.376Y-78.078
X125.554Y-89.281
X126.619Y-97.028
X126.746Y-126.492
X126.873Y-108.204
X127.0Y-94.234
X127.0Y-128.905
X127.23Y-104.926
X127.254Y-80.772
X127.254Y-86.614
X127.254Y-88.265
X127.254Y-106.045
X127.254Y-117.348
X127.254Y-123.825
X127.254Y-125.095
X128.016Y-90.805
X128.143Y-75.946
X128.27Y-132.461
X128.651Y-54.737
X129.413Y-66.167
X129.413Y-70.866
X129.413Y-94.996
X129.413Y-107.823
X129.413Y-125.73
X129.54Y-53.721
X130.302Y-43.688
X130.302Y-50.8
X130.429Y-52.832
X133.731Y-125.095
X134.239Y-52.832
X135.255Y-53.848
X138.43Y-56.515
X138.43Y-61.595
X138.43Y-69.85
X138.43Y-74.93
X138.43Y-80.01
X138.43Y-85.09
X138.43Y-90.17
X138.43Y-95.25
X138.43Y-100.33
X138.43Y-105.41
X138.43Y-111.76
X138.43Y-116.84
X138.938Y-43.688
X138.938Y-43.688
X138.938Y-50.8
X141.605Y-52.578
X144.78Y-56.515
X144.78Y-61.595
X144.78Y-69.85
X145.034Y-52.324
X146.822Y-48.778
X147.574Y-43.688
X148.844Y-112.141
X148.844Y-116.586
X148.844Y-122.301
X148.844Y-126.238
X148.844Y-132.334
X148.844Y-138.43
X149.57Y-110.236
X149.606Y-84.836
X149.606Y-87.376
X149.733Y-107.696
X149.857Y-116.572
X150.368Y-52.832
X150.495Y-133.985
X150.622Y-123.825
X151.384Y-114.3
X151.384Y-128.27
X152.654Y-118.491
X155.956Y-108.839
X156.21Y-43.688
X156.21Y-50.8
X158.242Y-82.677
X159.512Y-81.407
X160.02Y-97.536
X160.147Y-94.869
X160.274Y-147.955
X160.401Y-80.645
X165.608Y-108.331
X166.37Y-68.072
X166.37Y-78.867
X166.37Y-93.218
T2
X140.912Y-72.406
X140.912Y-74.406
X142.912Y-72.406
X142.912Y-74.406
X144.912Y-72.406
X144.912Y-74.406
T3
X80.969Y-111.252
X81.359Y-74.676
X81.486Y-92.964
X83.859Y-74.676
X83.986Y-92.964
X85.969Y-111.252
X132.122Y-59.436
X132.122Y-61.976
X132.122Y-64.516
X132.122Y-67.056
X132.122Y-69.596
X132.122Y-72.136
X132.122Y-74.676
X132.122Y-77.216
X132.122Y-79.756
X132.122Y-82.296
X132.122Y-84.836
X132.122Y-87.376
X132.122Y-89.916
X132.122Y-92.456
X132.122Y-94.996
X132.122Y-97.536
X132.122Y-100.076
X132.122Y-102.616
X132.122Y-105.156
X132.122Y-107.696
X132.122Y-110.236
X132.122Y-112.776
X132.122Y-115.316
X132.122Y-117.856
X147.362Y-59.436
X147.362Y-61.976
X147.362Y-64.516
X147.362Y-67.056
X147.362Y-69.596
X147.362Y-72.136
X147.362Y-74.676
X147.362Y-77.216
X147.362Y-79.756
X147.362Y-82.296
X147.362Y-84.836
X147.362Y-87.376
X147.362Y-89.916
X147.362Y-92.456
X147.362Y-94.996
X147.362Y-97.536
X147.362Y-100.076
X147.362Y-102.616
X147.362Y-105.156
X147.362Y-107.696
X147.362Y-110.236
X147.362Y-112.776
X147.362Y-115.316
X147.362Y-117.856
X164.294Y-51.848
X164.294Y-53.848
X164.294Y-55.848
T4
X133.756Y-130.048
X135.026Y-127.508
X136.296Y-130.048
X137.566Y-127.508
X138.836Y-130.048
X140.106Y-127.508
X141.376Y-130.048
X142.646Y-127.508
X156.252Y-72.39
X156.252Y-74.93
X156.252Y-77.47
X156.252Y-84.328
X156.252Y-84.328
X156.252Y-86.868
X156.252Y-89.408
X156.252Y-91.948
X156.252Y-98.806
X156.252Y-98.806
X156.252Y-101.346
X156.252Y-103.886
X156.252Y-106.426
X156.506Y-62.611
X156.506Y-65.151
X156.506Y-114.173
X156.506Y-116.713
X156.506Y-124.333
X156.506Y-126.873
X156.506Y-134.493
X156.506Y-137.033
X162.348Y-72.39
X162.348Y-74.93
X162.348Y-77.47
X162.348Y-84.328
X162.348Y-86.868
X162.348Y-89.408
X162.348Y-91.948
X162.348Y-91.948
X162.348Y-98.806
X162.348Y-101.346
X162.348Y-103.886
X162.348Y-106.426
X162.348Y-106.426
X162.602Y-62.738
X162.602Y-65.278
X162.602Y-114.3
X162.602Y-116.84
X162.602Y-124.46
X162.602Y-127.0
X162.602Y-134.62
X162.602Y-137.16
T5
X81.91Y-129.794
X86.91Y-129.794
X89.836Y-48.778
X89.836Y-51.318
X89.836Y-53.858
T6
X131.876Y-141.478
X134.416Y-139.688
X141.986Y-141.478
X144.526Y-139.688
T7
X164.294Y-49.748
X164.294Y-57.948
T8
X130.326Y-133.348
X146.076Y-133.348
T10
X132.486Y-136.398
X143.916Y-136.398
T9
X91.702Y-130.367G85X93.802Y-130.367
G05
X98.783Y-60.545G85X98.783Y-62.645
G05
X98.783Y-68.419G85X98.783Y-70.519
G05
X98.783Y-78.833G85X98.783Y-80.933
G05
X98.783Y-86.707G85X98.783Y-88.807
G05
X98.783Y-97.121G85X98.783Y-99.221
G05
X98.783Y-104.995G85X98.783Y-107.095
G05
X98.783Y-115.409G85X98.783Y-117.509
G05
X98.783Y-123.283G85X98.783Y-125.383
G05
X99.576Y-130.367G85X101.676Y-130.367
G05
T0
M30
