G04 #@! TF.GenerationSoftware,KiCad,Pcbnew,(5.0.0)*
G04 #@! TF.CreationDate,2019-12-13T16:41:55-06:00*
G04 #@! TF.ProjectId,ScienceMotorController_Hardware,536369656E63654D6F746F72436F6E74,rev?*
G04 #@! TF.SameCoordinates,Original*
G04 #@! TF.FileFunction,Copper,L2,Bot,Signal*
G04 #@! TF.FilePolarity,Positive*
%FSLAX46Y46*%
G04 Gerber Fmt 4.6, Leading zero omitted, Abs format (unit mm)*
G04 Created by KiCad (PCBNEW (5.0.0)) date 12/13/19 16:41:55*
%MOMM*%
%LPD*%
G01*
G04 APERTURE LIST*
G04 #@! TA.AperFunction,ComponentPad*
%ADD10C,1.600000*%
G04 #@! TD*
G04 #@! TA.AperFunction,ComponentPad*
%ADD11R,1.600000X1.600000*%
G04 #@! TD*
G04 #@! TA.AperFunction,ComponentPad*
%ADD12C,5.080000*%
G04 #@! TD*
G04 #@! TA.AperFunction,ComponentPad*
%ADD13C,1.524000*%
G04 #@! TD*
G04 #@! TA.AperFunction,SMDPad,CuDef*
%ADD14R,0.990600X1.778000*%
G04 #@! TD*
G04 #@! TA.AperFunction,ComponentPad*
%ADD15R,2.500000X1.500000*%
G04 #@! TD*
G04 #@! TA.AperFunction,ComponentPad*
%ADD16O,2.500000X1.500000*%
G04 #@! TD*
G04 #@! TA.AperFunction,ComponentPad*
%ADD17O,3.500000X2.200000*%
G04 #@! TD*
G04 #@! TA.AperFunction,ViaPad*
%ADD18C,0.800000*%
G04 #@! TD*
G04 #@! TA.AperFunction,Conductor*
%ADD19C,0.762000*%
G04 #@! TD*
G04 #@! TA.AperFunction,Conductor*
%ADD20C,0.254000*%
G04 #@! TD*
G04 #@! TA.AperFunction,Conductor*
%ADD21C,0.250000*%
G04 #@! TD*
G04 APERTURE END LIST*
D10*
G04 #@! TO.P,C3,2*
G04 #@! TO.N,GND*
X119888000Y-64826000D03*
D11*
G04 #@! TO.P,C3,1*
G04 #@! TO.N,+12VA*
X119888000Y-68326000D03*
G04 #@! TD*
D12*
G04 #@! TO.P,Conn1,1*
G04 #@! TO.N,GND*
X144907000Y-115189000D03*
G04 #@! TO.P,Conn1,2*
G04 #@! TO.N,+12L*
X144907000Y-107315000D03*
G04 #@! TO.P,Conn1,3*
G04 #@! TO.N,+12VA*
X144907000Y-99441000D03*
G04 #@! TD*
G04 #@! TO.P,Conn2,2*
G04 #@! TO.N,M1_OUT_B*
X56261000Y-62382400D03*
G04 #@! TO.P,Conn2,1*
G04 #@! TO.N,M1_OUT_A*
X48387000Y-62382400D03*
G04 #@! TD*
G04 #@! TO.P,Conn3,2*
G04 #@! TO.N,M2_OUT_B*
X83185000Y-62382400D03*
G04 #@! TO.P,Conn3,1*
G04 #@! TO.N,M2_OUT_A*
X75311000Y-62382400D03*
G04 #@! TD*
G04 #@! TO.P,Conn4,2*
G04 #@! TO.N,M3_OUT_B*
X110363000Y-62382400D03*
G04 #@! TO.P,Conn4,1*
G04 #@! TO.N,M3_OUT_A*
X102489000Y-62382400D03*
G04 #@! TD*
G04 #@! TO.P,Conn5,1*
G04 #@! TO.N,M4_OUT_A*
X129159000Y-62382400D03*
G04 #@! TO.P,Conn5,2*
G04 #@! TO.N,M4_OUT_B*
X137033000Y-62382400D03*
G04 #@! TD*
D13*
G04 #@! TO.P,U2,3*
G04 #@! TO.N,+3V3*
X135645019Y-111151584D03*
G04 #@! TO.P,U2,2*
G04 #@! TO.N,GND*
X135645019Y-108611584D03*
G04 #@! TO.P,U2,1*
G04 #@! TO.N,+12L*
X135645019Y-106071584D03*
G04 #@! TD*
G04 #@! TO.P,Conn8,2*
G04 #@! TO.N,LS_3*
X82677000Y-123698000D03*
G04 #@! TO.P,Conn8,1*
G04 #@! TO.N,+3V3*
X80137000Y-123698000D03*
G04 #@! TD*
G04 #@! TO.P,Conn9,1*
G04 #@! TO.N,+3V3*
X93218000Y-123698000D03*
G04 #@! TO.P,Conn9,2*
G04 #@! TO.N,LS_4*
X95758000Y-123698000D03*
G04 #@! TD*
G04 #@! TO.P,Conn6,1*
G04 #@! TO.N,+3V3*
X80137000Y-112268000D03*
G04 #@! TO.P,Conn6,2*
G04 #@! TO.N,LS_1*
X82677000Y-112268000D03*
G04 #@! TD*
G04 #@! TO.P,Conn7,2*
G04 #@! TO.N,LS_2*
X95758000Y-112268000D03*
G04 #@! TO.P,Conn7,1*
G04 #@! TO.N,+3V3*
X93218000Y-112268000D03*
G04 #@! TD*
D14*
G04 #@! TO.P,U1,+3V3'*
G04 #@! TO.N,+3V3*
X103378000Y-139852400D03*
G04 #@! TO.P,U1,PM6*
G04 #@! TO.N,M4_IN_B*
X126238000Y-90779600D03*
G04 #@! TO.P,U1,PQ1*
G04 #@! TO.N,M4_IN_A*
X123698000Y-90779600D03*
G04 #@! TO.P,U1,PQ2*
G04 #@! TO.N,Net-(U1-PadPQ2)*
X116078000Y-90779600D03*
G04 #@! TO.P,U1,PK0*
G04 #@! TO.N,M4_CS*
X113538000Y-133959600D03*
G04 #@! TO.P,U1,PQ3*
G04 #@! TO.N,M3_IN_A*
X118618000Y-90779600D03*
G04 #@! TO.P,U1,PP3*
G04 #@! TO.N,M3_IN_B*
X121158000Y-90779600D03*
G04 #@! TO.P,U1,PQ0*
G04 #@! TO.N,Net-(U1-PadPQ0)*
X118618000Y-139852400D03*
G04 #@! TO.P,U1,PA4*
G04 #@! TO.N,SW_IND_2*
X123698000Y-133959600D03*
G04 #@! TO.P,U1,Rese'*
G04 #@! TO.N,N/C*
X113538000Y-90779600D03*
G04 #@! TO.P,U1,PA7*
G04 #@! TO.N,Net-(U1-PadPA7)*
X110998000Y-90779600D03*
G04 #@! TO.P,U1,PN5*
G04 #@! TO.N,Net-(U1-PadPN5)*
X123698000Y-139852400D03*
G04 #@! TO.P,U1,PK2*
G04 #@! TO.N,SW_ERR*
X118618000Y-133959600D03*
G04 #@! TO.P,U1,PK1*
G04 #@! TO.N,Net-(U1-PadPK1)*
X116078000Y-133959600D03*
G04 #@! TO.P,U1,+5V'*
G04 #@! TO.N,N/C*
X103378000Y-133959600D03*
G04 #@! TO.P,U1,GND*
G04 #@! TO.N,GND*
X105918000Y-133959600D03*
G04 #@! TO.P,U1,PB4*
G04 #@! TO.N,Net-(U1-PadPB4)*
X108458000Y-133959600D03*
G04 #@! TO.P,U1,PB5*
G04 #@! TO.N,M3_CS*
X110998000Y-133959600D03*
G04 #@! TO.P,U1,PK3*
G04 #@! TO.N,SW_IND_3*
X121158000Y-133959600D03*
G04 #@! TO.P,U1,PA5*
G04 #@! TO.N,SW_IND_1*
X126238000Y-133959600D03*
G04 #@! TO.P,U1,PD2*
G04 #@! TO.N,Net-(U1-PadPD2)*
X105918000Y-139852400D03*
G04 #@! TO.P,U1,PP0*
G04 #@! TO.N,Net-(U1-PadPP0)*
X108458000Y-139852400D03*
G04 #@! TO.P,U1,PP1*
G04 #@! TO.N,Net-(U1-PadPP1)*
X110998000Y-139852400D03*
G04 #@! TO.P,U1,PD4*
G04 #@! TO.N,Net-(U1-PadPD4)*
X113538000Y-139852400D03*
G04 #@! TO.P,U1,PD5*
G04 #@! TO.N,Net-(U1-PadPD5)*
X116078000Y-139852400D03*
G04 #@! TO.P,U1,PP4*
G04 #@! TO.N,Net-(U1-PadPP4)*
X121158000Y-139852400D03*
G04 #@! TO.P,U1,PN4*
G04 #@! TO.N,Net-(U1-PadPN4)*
X126238000Y-139852400D03*
G04 #@! TO.P,U1,PG1*
G04 #@! TO.N,M3_PWM*
X103378000Y-96672400D03*
G04 #@! TO.P,U1,PK4*
G04 #@! TO.N,M4_PWM*
X105918000Y-96672400D03*
G04 #@! TO.P,U1,PK5*
G04 #@! TO.N,Net-(U1-PadPK5)*
X108458000Y-96672400D03*
G04 #@! TO.P,U1,PM0*
G04 #@! TO.N,Net-(U1-PadPM0)*
X110998000Y-96672400D03*
G04 #@! TO.P,U1,PM1*
G04 #@! TO.N,Net-(U1-PadPM1)*
X113538000Y-96672400D03*
G04 #@! TO.P,U1,PM2*
G04 #@! TO.N,Net-(U1-PadPM2)*
X116078000Y-96672400D03*
G04 #@! TO.P,U1,PH0*
G04 #@! TO.N,Net-(U1-PadPH0)*
X118618000Y-96672400D03*
G04 #@! TO.P,U1,PH1*
G04 #@! TO.N,Net-(U1-PadPH1)*
X121158000Y-96672400D03*
G04 #@! TO.P,U1,PK6*
G04 #@! TO.N,Net-(U1-PadPK6)*
X123698000Y-96672400D03*
G04 #@! TO.P,U1,PK7*
G04 #@! TO.N,Net-(U1-PadPK7)*
X126238000Y-96672400D03*
G04 #@! TO.P,U1,GND*
G04 #@! TO.N,GND*
X103378000Y-90779600D03*
G04 #@! TO.P,U1,PM7*
G04 #@! TO.N,Net-(U1-PadPM7)*
X105918000Y-90779600D03*
G04 #@! TO.P,U1,PP5*
G04 #@! TO.N,Net-(U1-PadPP5)*
X108458000Y-90779600D03*
G04 #@! TO.P,U1,+5V*
G04 #@! TO.N,Net-(U1-Pad+5V)*
X39878000Y-133959600D03*
G04 #@! TO.P,U1,GND*
G04 #@! TO.N,GND*
X42418000Y-133959600D03*
G04 #@! TO.P,U1,PE0*
G04 #@! TO.N,MSW_5*
X44958000Y-133959600D03*
G04 #@! TO.P,U1,PE1*
G04 #@! TO.N,MSW_1*
X47498000Y-133959600D03*
G04 #@! TO.P,U1,PE2*
G04 #@! TO.N,MSW_3*
X50038000Y-133959600D03*
G04 #@! TO.P,U1,PE3*
G04 #@! TO.N,MSW_2*
X52578000Y-133959600D03*
G04 #@! TO.P,U1,PD7*
G04 #@! TO.N,LS_3*
X55118000Y-133959600D03*
G04 #@! TO.P,U1,PA6*
G04 #@! TO.N,LS_1*
X57658000Y-133959600D03*
G04 #@! TO.P,U1,PM4*
G04 #@! TO.N,LS_2*
X60198000Y-133959600D03*
G04 #@! TO.P,U1,PM5*
G04 #@! TO.N,LS_4*
X62738000Y-133959600D03*
G04 #@! TO.P,U1,+3V3*
G04 #@! TO.N,+3V3*
X39878000Y-139852400D03*
G04 #@! TO.P,U1,PE4*
G04 #@! TO.N,Net-(U1-PadPE4)*
X42418000Y-139852400D03*
G04 #@! TO.P,U1,PC4*
G04 #@! TO.N,Net-(U1-PadPC4)*
X44958000Y-139852400D03*
G04 #@! TO.P,U1,PC5*
G04 #@! TO.N,Net-(U1-PadPC5)*
X47498000Y-139852400D03*
G04 #@! TO.P,U1,PC6*
G04 #@! TO.N,Net-(U1-PadPC6)*
X50038000Y-139852400D03*
G04 #@! TO.P,U1,PE5*
G04 #@! TO.N,Net-(U1-PadPE5)*
X52578000Y-139852400D03*
G04 #@! TO.P,U1,PD3*
G04 #@! TO.N,MSW_4*
X55118000Y-139852400D03*
G04 #@! TO.P,U1,PC7*
G04 #@! TO.N,Net-(U1-PadPC7)*
X57658000Y-139852400D03*
G04 #@! TO.P,U1,PB2*
G04 #@! TO.N,Net-(U1-PadPB2)*
X60198000Y-139852400D03*
G04 #@! TO.P,U1,PB3*
G04 #@! TO.N,Net-(U1-PadPB3)*
X62738000Y-139852400D03*
G04 #@! TO.P,U1,PF1*
G04 #@! TO.N,Net-(U1-PadPF1)*
X39878000Y-96672400D03*
G04 #@! TO.P,U1,PF2*
G04 #@! TO.N,Net-(U1-PadPF2)*
X42418000Y-96672400D03*
G04 #@! TO.P,U1,PF3*
G04 #@! TO.N,M1_PWM*
X44958000Y-96672400D03*
G04 #@! TO.P,U1,PG0*
G04 #@! TO.N,M2_PWM*
X47498000Y-96672400D03*
G04 #@! TO.P,U1,PL4*
G04 #@! TO.N,Net-(U1-PadPL4)*
X50038000Y-96672400D03*
G04 #@! TO.P,U1,PL5*
G04 #@! TO.N,Net-(U1-PadPL5)*
X52578000Y-96672400D03*
G04 #@! TO.P,U1,PL0*
G04 #@! TO.N,M1_IN_A*
X55118000Y-96672400D03*
G04 #@! TO.P,U1,PL1*
G04 #@! TO.N,M1_IN_B*
X57658000Y-96672400D03*
G04 #@! TO.P,U1,PL2*
G04 #@! TO.N,Net-(U1-PadPL2)*
X60198000Y-96672400D03*
G04 #@! TO.P,U1,PL3*
G04 #@! TO.N,M2_IN_B*
X62738000Y-96672400D03*
G04 #@! TO.P,U1,GND*
G04 #@! TO.N,GND*
X39878000Y-90779600D03*
G04 #@! TO.P,U1,PM3*
G04 #@! TO.N,Net-(U1-PadPM3)*
X42418000Y-90779600D03*
G04 #@! TO.P,U1,PH2*
G04 #@! TO.N,Net-(U1-PadPH2)*
X44958000Y-90779600D03*
G04 #@! TO.P,U1,PH3*
G04 #@! TO.N,Net-(U1-PadPH3)*
X47498000Y-90779600D03*
G04 #@! TO.P,U1,Rese*
G04 #@! TO.N,Net-(U1-PadRese)*
X50038000Y-90779600D03*
G04 #@! TO.P,U1,PD1*
G04 #@! TO.N,M1_CS*
X52578000Y-90779600D03*
G04 #@! TO.P,U1,PD0*
G04 #@! TO.N,M2_CS*
X55118000Y-90779600D03*
G04 #@! TO.P,U1,PN2*
G04 #@! TO.N,Net-(U1-PadPN2)*
X57658000Y-90779600D03*
G04 #@! TO.P,U1,PN3*
G04 #@! TO.N,Net-(U1-PadPN3)*
X60198000Y-90779600D03*
G04 #@! TO.P,U1,PP2*
G04 #@! TO.N,M2_IN_A*
X62738000Y-90779600D03*
G04 #@! TD*
D11*
G04 #@! TO.P,C4,1*
G04 #@! TO.N,+12VA*
X146558000Y-68326000D03*
D10*
G04 #@! TO.P,C4,2*
G04 #@! TO.N,GND*
X146558000Y-64826000D03*
G04 #@! TD*
G04 #@! TO.P,C9,2*
G04 #@! TO.N,GND*
X92964000Y-64770000D03*
D11*
G04 #@! TO.P,C9,1*
G04 #@! TO.N,+12VA*
X92964000Y-68270000D03*
G04 #@! TD*
G04 #@! TO.P,C10,1*
G04 #@! TO.N,+12VA*
X66040000Y-68270000D03*
D10*
G04 #@! TO.P,C10,2*
G04 #@! TO.N,GND*
X66040000Y-64770000D03*
G04 #@! TD*
D15*
G04 #@! TO.P,SW5,1*
G04 #@! TO.N,MSW_5*
X40894000Y-116078000D03*
D16*
G04 #@! TO.P,SW5,2*
G04 #@! TO.N,+3V3*
X40894000Y-118078000D03*
G04 #@! TO.P,SW5,3*
G04 #@! TO.N,Net-(SW5-Pad3)*
X40894000Y-120078000D03*
D17*
G04 #@! TO.P,SW5,*
G04 #@! TO.N,*
X40894000Y-113978000D03*
X40894000Y-122178000D03*
G04 #@! TD*
D18*
G04 #@! TO.N,GND*
X87376000Y-113538000D03*
X89662000Y-113538000D03*
X87376000Y-115570000D03*
X89662000Y-115570000D03*
X46990000Y-99314000D03*
X49784000Y-99314000D03*
X45466000Y-104394000D03*
X47244000Y-104394000D03*
X49022000Y-104394000D03*
X89154000Y-98298000D03*
X90932000Y-98298000D03*
X89154000Y-100076000D03*
X90932000Y-100076000D03*
X92710000Y-100076000D03*
X92710000Y-98298000D03*
X89154000Y-101854000D03*
X90932000Y-101854000D03*
X92710000Y-101854000D03*
X77724000Y-104140000D03*
X79502000Y-104140000D03*
X77724000Y-105918000D03*
X79502000Y-105918000D03*
X127508000Y-104140000D03*
X129794000Y-104140000D03*
X127508000Y-106172000D03*
X129794000Y-106172000D03*
X138430000Y-115316000D03*
X140716000Y-115316000D03*
X138430000Y-117348000D03*
X140716000Y-117348000D03*
X103124000Y-120396000D03*
X103124000Y-123698000D03*
X103124000Y-126746000D03*
X103124000Y-129794000D03*
X120396000Y-122174000D03*
X120396000Y-125222000D03*
X89916000Y-130048000D03*
X75438000Y-128778000D03*
X56642000Y-126492000D03*
X40640000Y-129286000D03*
X41148000Y-107950000D03*
X56642000Y-110744000D03*
X50800000Y-104394000D03*
X52832000Y-104394000D03*
X75438000Y-104140000D03*
X75438000Y-105918000D03*
X43180000Y-80772000D03*
X42418000Y-47244000D03*
X69088000Y-46736000D03*
X96520000Y-46482000D03*
X122936000Y-46736000D03*
X62230000Y-73660000D03*
X69342000Y-74930000D03*
X96266000Y-76200000D03*
X116332000Y-73406000D03*
X122936000Y-75692000D03*
X142748000Y-73152000D03*
X152908000Y-77724000D03*
X89154000Y-73152000D03*
G04 #@! TO.N,+3V3*
X135636000Y-122428000D03*
G04 #@! TO.N,M1_CS*
X49911000Y-101473000D03*
X43688000Y-98298000D03*
G04 #@! TO.N,M2_CS*
X71374000Y-101473000D03*
X66802000Y-96231000D03*
X59690000Y-93218000D03*
G04 #@! TO.N,M3_CS*
X106299000Y-102997000D03*
G04 #@! TO.N,M4_CS*
X123684000Y-101459000D03*
G04 #@! TO.N,+12VA*
X55997277Y-79756000D03*
X49538145Y-79756000D03*
X47385101Y-83185000D03*
X47385101Y-79756000D03*
X49538145Y-83185000D03*
X49538145Y-82042000D03*
X49538145Y-80899000D03*
X48461623Y-83185000D03*
X48461623Y-80899000D03*
X51691189Y-84328000D03*
X52767711Y-80899000D03*
X52767711Y-82042000D03*
X52767711Y-83185000D03*
X52767711Y-84328000D03*
X50614667Y-84328000D03*
X49538145Y-84328000D03*
X48461623Y-82042000D03*
X48461623Y-84328000D03*
X47385101Y-84328000D03*
X47385101Y-82042000D03*
X50614667Y-79756000D03*
X47385101Y-80899000D03*
X48461623Y-79756000D03*
X52767711Y-79756000D03*
X50614667Y-82042000D03*
X50614667Y-80899000D03*
X50614667Y-83185000D03*
X51691189Y-80899000D03*
X51691189Y-82042000D03*
X51691189Y-83185000D03*
X51691189Y-79756000D03*
X53844233Y-83185000D03*
X53844233Y-79756000D03*
X55997277Y-83185000D03*
X55997277Y-82042000D03*
X55997277Y-80899000D03*
X54920755Y-83185000D03*
X54920755Y-80899000D03*
X57073800Y-84328000D03*
X55997277Y-84328000D03*
X54920755Y-82042000D03*
X54920755Y-84328000D03*
X53844233Y-84328000D03*
X53844233Y-82042000D03*
X57073800Y-79756000D03*
X53844233Y-80899000D03*
X54920755Y-79756000D03*
X57073800Y-82042000D03*
X57073800Y-80899000D03*
X57073800Y-83185000D03*
X83048277Y-79756000D03*
X76589145Y-79756000D03*
X74436101Y-83185000D03*
X74436101Y-79756000D03*
X76589145Y-83185000D03*
X76589145Y-82042000D03*
X76589145Y-80899000D03*
X75512623Y-83185000D03*
X75512623Y-80899000D03*
X78742189Y-84328000D03*
X79818711Y-80899000D03*
X79818711Y-82042000D03*
X79818711Y-83185000D03*
X79818711Y-84328000D03*
X77665667Y-84328000D03*
X76589145Y-84328000D03*
X75512623Y-82042000D03*
X75512623Y-84328000D03*
X74436101Y-84328000D03*
X74436101Y-82042000D03*
X77665667Y-79756000D03*
X74436101Y-80899000D03*
X75512623Y-79756000D03*
X79818711Y-79756000D03*
X77665667Y-82042000D03*
X77665667Y-80899000D03*
X77665667Y-83185000D03*
X78742189Y-80899000D03*
X78742189Y-82042000D03*
X78742189Y-83185000D03*
X78742189Y-79756000D03*
X80895233Y-83185000D03*
X80895233Y-79756000D03*
X83048277Y-83185000D03*
X83048277Y-82042000D03*
X83048277Y-80899000D03*
X81971755Y-83185000D03*
X81971755Y-80899000D03*
X84124800Y-84328000D03*
X83048277Y-84328000D03*
X81971755Y-82042000D03*
X81971755Y-84328000D03*
X80895233Y-84328000D03*
X80895233Y-82042000D03*
X84124800Y-79756000D03*
X80895233Y-80899000D03*
X81971755Y-79756000D03*
X84124800Y-82042000D03*
X84124800Y-80899000D03*
X84124800Y-83185000D03*
X136769277Y-79756000D03*
X130310145Y-79756000D03*
X128157101Y-83185000D03*
X128157101Y-79756000D03*
X130310145Y-83185000D03*
X130310145Y-82042000D03*
X130310145Y-80899000D03*
X129233623Y-83185000D03*
X129233623Y-80899000D03*
X132463189Y-84328000D03*
X133539711Y-80899000D03*
X133539711Y-82042000D03*
X133539711Y-83185000D03*
X133539711Y-84328000D03*
X131386667Y-84328000D03*
X130310145Y-84328000D03*
X129233623Y-82042000D03*
X129233623Y-84328000D03*
X128157101Y-84328000D03*
X128157101Y-82042000D03*
X131386667Y-79756000D03*
X128157101Y-80899000D03*
X129233623Y-79756000D03*
X133539711Y-79756000D03*
X131386667Y-82042000D03*
X131386667Y-80899000D03*
X131386667Y-83185000D03*
X132463189Y-80899000D03*
X132463189Y-82042000D03*
X132463189Y-83185000D03*
X132463189Y-79756000D03*
X134616233Y-83185000D03*
X134616233Y-79756000D03*
X136769277Y-83185000D03*
X136769277Y-82042000D03*
X136769277Y-80899000D03*
X135692755Y-83185000D03*
X135692755Y-80899000D03*
X137845800Y-84328000D03*
X136769277Y-84328000D03*
X135692755Y-82042000D03*
X135692755Y-84328000D03*
X134616233Y-84328000D03*
X134616233Y-82042000D03*
X137845800Y-79756000D03*
X134616233Y-80899000D03*
X135692755Y-79756000D03*
X137845800Y-82042000D03*
X137845800Y-80899000D03*
X137845800Y-83185000D03*
X110099277Y-79756000D03*
X107946233Y-83185000D03*
X107946233Y-79756000D03*
X110099277Y-83185000D03*
X110099277Y-82042000D03*
X110099277Y-80899000D03*
X109022755Y-83185000D03*
X109022755Y-80899000D03*
X111175800Y-84328000D03*
X110099277Y-84328000D03*
X109022755Y-82042000D03*
X109022755Y-84328000D03*
X107946233Y-84328000D03*
X107946233Y-82042000D03*
X111175800Y-79756000D03*
X107946233Y-80899000D03*
X109022755Y-79756000D03*
X111175800Y-82042000D03*
X111175800Y-80899000D03*
X111175800Y-83185000D03*
X101487101Y-83185000D03*
X103640145Y-79756000D03*
X101487101Y-79756000D03*
X103640145Y-83185000D03*
X103640145Y-82042000D03*
X103640145Y-80899000D03*
X102563623Y-83185000D03*
X102563623Y-80899000D03*
X105793189Y-84328000D03*
X106869711Y-80899000D03*
X106869711Y-82042000D03*
X106869711Y-83185000D03*
X106869711Y-84328000D03*
X104716667Y-84328000D03*
X103640145Y-84328000D03*
X102563623Y-82042000D03*
X102563623Y-84328000D03*
X101487101Y-84328000D03*
X101487101Y-82042000D03*
X104716667Y-79756000D03*
X101487101Y-80899000D03*
X102563623Y-79756000D03*
X106869711Y-79756000D03*
X104716667Y-82042000D03*
X104716667Y-80899000D03*
X104716667Y-83185000D03*
X105793189Y-80899000D03*
X105793189Y-82042000D03*
X105793189Y-83185000D03*
X105793189Y-79756000D03*
X132588000Y-119380000D03*
G04 #@! TO.N,M1_OUT_B*
X55905400Y-74803000D03*
X55905400Y-75946000D03*
X55905400Y-77089000D03*
X53670200Y-73660000D03*
X53670200Y-77089000D03*
X55905400Y-73660000D03*
X54787800Y-74803000D03*
X54787800Y-77089000D03*
X58140600Y-73660000D03*
X58140600Y-77089000D03*
X58140600Y-75946000D03*
X58140600Y-74803000D03*
X57023000Y-77089000D03*
X57023000Y-74803000D03*
X57023000Y-75946000D03*
X59258200Y-73660000D03*
X54787800Y-73660000D03*
X53670200Y-74803000D03*
X57023000Y-73660000D03*
X53670200Y-75946000D03*
X53670200Y-78232000D03*
X54787800Y-78232000D03*
X54787800Y-75946000D03*
X55905400Y-78232000D03*
X57023000Y-78232000D03*
X59258200Y-78232000D03*
X59258200Y-77089000D03*
X59258200Y-75946000D03*
X59258200Y-74803000D03*
X58140600Y-78232000D03*
G04 #@! TO.N,M1_OUT_A*
X45339000Y-77089000D03*
X47574200Y-73660000D03*
X45339000Y-73660000D03*
X47574200Y-77089000D03*
X47574200Y-75946000D03*
X47574200Y-74803000D03*
X46456600Y-77089000D03*
X46456600Y-74803000D03*
X49809400Y-78232000D03*
X50927000Y-74803000D03*
X50927000Y-75946000D03*
X50927000Y-77089000D03*
X50927000Y-78232000D03*
X48691800Y-78232000D03*
X47574200Y-78232000D03*
X46456600Y-75946000D03*
X46456600Y-78232000D03*
X45339000Y-78232000D03*
X45339000Y-75946000D03*
X48691800Y-73660000D03*
X45339000Y-74803000D03*
X46456600Y-73660000D03*
X50927000Y-73660000D03*
X48691800Y-75946000D03*
X48691800Y-74803000D03*
X48691800Y-77089000D03*
X49809400Y-74803000D03*
X49809400Y-75946000D03*
X49809400Y-77089000D03*
X49809400Y-73660000D03*
G04 #@! TO.N,M2_OUT_A*
X72390000Y-77089000D03*
X74625200Y-73660000D03*
X72390000Y-73660000D03*
X74625200Y-77089000D03*
X74625200Y-75946000D03*
X74625200Y-74803000D03*
X73507600Y-77089000D03*
X73507600Y-74803000D03*
X76860400Y-78232000D03*
X77978000Y-74803000D03*
X77978000Y-75946000D03*
X77978000Y-77089000D03*
X77978000Y-78232000D03*
X75742800Y-78232000D03*
X74625200Y-78232000D03*
X73507600Y-75946000D03*
X73507600Y-78232000D03*
X72390000Y-78232000D03*
X72390000Y-75946000D03*
X75742800Y-73660000D03*
X72390000Y-74803000D03*
X73507600Y-73660000D03*
X77978000Y-73660000D03*
X75742800Y-75946000D03*
X75742800Y-74803000D03*
X75742800Y-77089000D03*
X76860400Y-74803000D03*
X76860400Y-75946000D03*
X76860400Y-77089000D03*
X76860400Y-73660000D03*
G04 #@! TO.N,M2_OUT_B*
X82956400Y-74803000D03*
X82956400Y-75946000D03*
X82956400Y-77089000D03*
X80721200Y-73660000D03*
X80721200Y-77089000D03*
X82956400Y-73660000D03*
X81838800Y-74803000D03*
X81838800Y-77089000D03*
X85191600Y-73660000D03*
X85191600Y-77089000D03*
X85191600Y-75946000D03*
X85191600Y-74803000D03*
X84074000Y-77089000D03*
X84074000Y-74803000D03*
X84074000Y-75946000D03*
X86309200Y-73660000D03*
X81838800Y-73660000D03*
X80721200Y-74803000D03*
X84074000Y-73660000D03*
X80721200Y-75946000D03*
X80721200Y-78232000D03*
X81838800Y-78232000D03*
X81838800Y-75946000D03*
X82956400Y-78232000D03*
X84074000Y-78232000D03*
X86309200Y-78232000D03*
X86309200Y-77089000D03*
X86309200Y-75946000D03*
X86309200Y-74803000D03*
X85191600Y-78232000D03*
G04 #@! TO.N,M3_OUT_A*
X103911400Y-73660000D03*
X102793800Y-74803000D03*
X102793800Y-75946000D03*
X102793800Y-77089000D03*
X103911400Y-74803000D03*
X103911400Y-75946000D03*
X103911400Y-77089000D03*
X100558600Y-74803000D03*
X100558600Y-75946000D03*
X100558600Y-77089000D03*
X101676200Y-74803000D03*
X101676200Y-75946000D03*
X101676200Y-77089000D03*
X103911400Y-78232000D03*
X105029000Y-74803000D03*
X105029000Y-75946000D03*
X105029000Y-77089000D03*
X105029000Y-78232000D03*
X102793800Y-78232000D03*
X101676200Y-78232000D03*
X100558600Y-78232000D03*
X99441000Y-78232000D03*
X99441000Y-77089000D03*
X99441000Y-75946000D03*
X99441000Y-74803000D03*
X105029000Y-73660000D03*
X102793800Y-73660000D03*
X101676200Y-73660000D03*
X99441000Y-73660000D03*
X100558600Y-73660000D03*
G04 #@! TO.N,M3_OUT_B*
X107772200Y-77089000D03*
X110007400Y-73660000D03*
X107772200Y-73660000D03*
X110007400Y-77089000D03*
X110007400Y-75946000D03*
X110007400Y-74803000D03*
X108889800Y-77089000D03*
X108889800Y-74803000D03*
X112242600Y-78232000D03*
X113360200Y-74803000D03*
X113360200Y-75946000D03*
X113360200Y-77089000D03*
X113360200Y-78232000D03*
X111125000Y-78232000D03*
X110007400Y-78232000D03*
X108889800Y-75946000D03*
X108889800Y-78232000D03*
X107772200Y-78232000D03*
X107772200Y-75946000D03*
X111125000Y-73660000D03*
X107772200Y-74803000D03*
X108889800Y-73660000D03*
X113360200Y-73660000D03*
X111125000Y-75946000D03*
X111125000Y-74803000D03*
X111125000Y-77089000D03*
X112242600Y-74803000D03*
X112242600Y-75946000D03*
X112242600Y-77089000D03*
X112242600Y-73660000D03*
G04 #@! TO.N,M4_OUT_B*
X136677400Y-74803000D03*
X136677400Y-75946000D03*
X136677400Y-77089000D03*
X134442200Y-73660000D03*
X134442200Y-77089000D03*
X136677400Y-73660000D03*
X135559800Y-74803000D03*
X135559800Y-77089000D03*
X138912600Y-73660000D03*
X138912600Y-77089000D03*
X138912600Y-75946000D03*
X138912600Y-74803000D03*
X137795000Y-77089000D03*
X137795000Y-74803000D03*
X137795000Y-75946000D03*
X140030200Y-73660000D03*
X135559800Y-73660000D03*
X134442200Y-74803000D03*
X137795000Y-73660000D03*
X134442200Y-75946000D03*
X134442200Y-78232000D03*
X135559800Y-78232000D03*
X135559800Y-75946000D03*
X136677400Y-78232000D03*
X137795000Y-78232000D03*
X140030200Y-78232000D03*
X140030200Y-77089000D03*
X140030200Y-75946000D03*
X140030200Y-74803000D03*
X138912600Y-78232000D03*
G04 #@! TO.N,M4_OUT_A*
X126111000Y-77089000D03*
X128346200Y-73660000D03*
X126111000Y-73660000D03*
X128346200Y-77089000D03*
X128346200Y-75946000D03*
X128346200Y-74803000D03*
X127228600Y-77089000D03*
X127228600Y-74803000D03*
X130581400Y-78232000D03*
X131699000Y-74803000D03*
X131699000Y-75946000D03*
X131699000Y-77089000D03*
X131699000Y-78232000D03*
X129463800Y-78232000D03*
X128346200Y-78232000D03*
X127228600Y-75946000D03*
X127228600Y-78232000D03*
X126111000Y-78232000D03*
X126111000Y-75946000D03*
X129463800Y-73660000D03*
X126111000Y-74803000D03*
X127228600Y-73660000D03*
X131699000Y-73660000D03*
X129463800Y-75946000D03*
X129463800Y-74803000D03*
X129463800Y-77089000D03*
X130581400Y-74803000D03*
X130581400Y-75946000D03*
X130581400Y-77089000D03*
X130581400Y-73660000D03*
G04 #@! TO.N,LS_1*
X87376000Y-131064000D03*
G04 #@! TO.N,LS_2*
X88138000Y-131826000D03*
G04 #@! TO.N,M1_IN_A*
X47371000Y-93472000D03*
G04 #@! TO.N,M1_PWM*
X50546000Y-95088000D03*
X41148000Y-58674000D03*
G04 #@! TO.N,M1_IN_B*
X58674000Y-93980000D03*
G04 #@! TO.N,M2_IN_A*
X62738000Y-92456000D03*
G04 #@! TO.N,M2_PWM*
X78486000Y-94742000D03*
X68072000Y-58674000D03*
X66548000Y-89154000D03*
X66548000Y-78359000D03*
G04 #@! TO.N,M2_IN_B*
X84328000Y-94742000D03*
G04 #@! TO.N,M3_IN_A*
X101092000Y-93472000D03*
G04 #@! TO.N,M3_PWM*
X104521000Y-94996000D03*
X95123000Y-58674000D03*
X93472000Y-89154000D03*
X93472000Y-78359000D03*
G04 #@! TO.N,M3_IN_B*
X121158000Y-92583000D03*
G04 #@! TO.N,M4_IN_A*
X124841000Y-93472000D03*
G04 #@! TO.N,M4_PWM*
X131953000Y-94869000D03*
X121793000Y-58674000D03*
X120142000Y-89027000D03*
X120142000Y-78359000D03*
G04 #@! TO.N,M4_IN_B*
X139319000Y-93472000D03*
G04 #@! TO.N,MSW_1*
X48006000Y-110744000D03*
G04 #@! TO.N,MSW_2*
X67564000Y-110720000D03*
G04 #@! TO.N,MSW_3*
X50546000Y-126746000D03*
G04 #@! TO.N,MSW_4*
X68580000Y-126722000D03*
X53848000Y-138176000D03*
X54610000Y-128524000D03*
G04 #@! TO.N,SW_IND_1*
X118618000Y-121158000D03*
G04 #@! TO.N,SW_IND_2*
X117856000Y-124206000D03*
G04 #@! TO.N,SW_IND_3*
X117094000Y-127254000D03*
G04 #@! TO.N,LS_3*
X86614000Y-130302000D03*
G04 #@! TO.N,LS_4*
X88900000Y-132588000D03*
G04 #@! TO.N,SW_ERR*
X116332000Y-130302000D03*
G04 #@! TD*
D19*
G04 #@! TO.N,+3V3*
X39878000Y-139852400D02*
X39878000Y-139458700D01*
X93218000Y-135636000D02*
X93218000Y-123698000D01*
X94488000Y-136906000D02*
X93218000Y-135636000D01*
X101854000Y-136906000D02*
X94488000Y-136906000D01*
X39878000Y-138201400D02*
X39878000Y-139852400D01*
X94488000Y-136906000D02*
X41173400Y-136906000D01*
X41173400Y-136906000D02*
X39878000Y-138201400D01*
X103378000Y-138176000D02*
X104648000Y-136906000D01*
X103378000Y-139852400D02*
X103378000Y-138176000D01*
X101854000Y-136906000D02*
X104648000Y-136906000D01*
X92456001Y-122936001D02*
X93218000Y-123698000D01*
X91874999Y-122354999D02*
X92456001Y-122936001D01*
X81480001Y-122354999D02*
X91874999Y-122354999D01*
X80137000Y-123698000D02*
X81480001Y-122354999D01*
X133613019Y-136906000D02*
X135645019Y-134874000D01*
X133604000Y-136906000D02*
X133613019Y-136906000D01*
X135645019Y-134874000D02*
X135645019Y-111151584D01*
X104648000Y-136906000D02*
X133604000Y-136906000D01*
D20*
G04 #@! TO.N,M1_CS*
X52578000Y-90779600D02*
X52578000Y-91922600D01*
X52578000Y-91922600D02*
X52578000Y-92202000D01*
X52578000Y-92202000D02*
X52324000Y-92456000D01*
X43688000Y-92964000D02*
X44196000Y-92456000D01*
X43688000Y-98298000D02*
X43688000Y-92964000D01*
X52324000Y-92456000D02*
X44196000Y-92456000D01*
G04 #@! TO.N,M2_CS*
X55118000Y-90779600D02*
X55118000Y-89636600D01*
X71374000Y-101473000D02*
X67691000Y-101473000D01*
X67691000Y-101473000D02*
X67437000Y-101473000D01*
X67437000Y-101473000D02*
X66802000Y-100838000D01*
X66802000Y-100838000D02*
X66802000Y-96231000D01*
X58394600Y-88874600D02*
X55880000Y-88874600D01*
X58928000Y-89408000D02*
X58394600Y-88874600D01*
X58928000Y-92456000D02*
X58928000Y-89408000D01*
X59690000Y-93218000D02*
X58928000Y-92456000D01*
X55118000Y-89636600D02*
X55880000Y-88874600D01*
G04 #@! TO.N,M3_CS*
X110998000Y-133959600D02*
X110998000Y-132816600D01*
X110998000Y-132816600D02*
X110998000Y-126238000D01*
X110998000Y-126238000D02*
X110998000Y-125222000D01*
X110998000Y-125222000D02*
X110998000Y-103759000D01*
X110998000Y-103759000D02*
X110236000Y-102997000D01*
X110236000Y-102997000D02*
X106299000Y-102997000D01*
G04 #@! TO.N,M4_CS*
X114060000Y-101459000D02*
X117362000Y-101459000D01*
X113538000Y-133959600D02*
X113538000Y-101981000D01*
X113538000Y-101981000D02*
X114060000Y-101459000D01*
X117362000Y-101459000D02*
X123684000Y-101459000D01*
D19*
G04 #@! TO.N,+12VA*
X144907000Y-101473000D02*
X144907000Y-99441000D01*
X142748000Y-103632000D02*
X144907000Y-101473000D01*
X134112000Y-103632000D02*
X142748000Y-103632000D01*
X132588000Y-119380000D02*
X132588000Y-105156000D01*
X132588000Y-105156000D02*
X134112000Y-103632000D01*
X146558000Y-68326000D02*
X146558000Y-80010000D01*
X119888000Y-69888000D02*
X118872000Y-70904000D01*
X119888000Y-68326000D02*
X119888000Y-69888000D01*
X118872000Y-70904000D02*
X118872000Y-80010000D01*
X92964000Y-69832000D02*
X91948000Y-70848000D01*
X92964000Y-68270000D02*
X92964000Y-69832000D01*
X91948000Y-70848000D02*
X91948000Y-80010000D01*
X66040000Y-69832000D02*
X65278000Y-70594000D01*
X66040000Y-68270000D02*
X66040000Y-69832000D01*
X65278000Y-70594000D02*
X65278000Y-80264000D01*
D20*
G04 #@! TO.N,LS_1*
X57658000Y-132816600D02*
X58648600Y-131826000D01*
X57658000Y-133959600D02*
X57658000Y-132816600D01*
X58648600Y-131826000D02*
X66802000Y-131826000D01*
X66802000Y-131826000D02*
X86614000Y-131826000D01*
X86614000Y-131826000D02*
X87376000Y-131064000D01*
G04 #@! TO.N,LS_2*
X95631000Y-112268000D02*
X95758000Y-112268000D01*
X60198000Y-132816600D02*
X60680600Y-132334000D01*
X60198000Y-133959600D02*
X60198000Y-132816600D01*
X60680600Y-132334000D02*
X66802000Y-132334000D01*
X66802000Y-132334000D02*
X84836000Y-132334000D01*
X84836000Y-132334000D02*
X87630000Y-132334000D01*
X87630000Y-132334000D02*
X88138000Y-131826000D01*
G04 #@! TO.N,M1_IN_A*
X47371000Y-94037685D02*
X47371000Y-93472000D01*
X47694315Y-94361000D02*
X47371000Y-94037685D01*
X54610000Y-94361000D02*
X47694315Y-94361000D01*
X55118000Y-94869000D02*
X54610000Y-94361000D01*
X55118000Y-94869000D02*
X55118000Y-96672400D01*
G04 #@! TO.N,M1_PWM*
X50546000Y-95088000D02*
X45374000Y-95088000D01*
X44958000Y-95504000D02*
X44958000Y-96672400D01*
X45374000Y-95088000D02*
X44958000Y-95504000D01*
X41148000Y-58674000D02*
X41148000Y-58674000D01*
X41148000Y-68326000D02*
X41148000Y-58674000D01*
X41148000Y-99314000D02*
X41148000Y-68326000D01*
X41656000Y-99822000D02*
X41148000Y-99314000D01*
X44450000Y-99822000D02*
X41656000Y-99822000D01*
X44958000Y-96672400D02*
X44958000Y-99314000D01*
X44958000Y-99314000D02*
X44450000Y-99822000D01*
G04 #@! TO.N,M1_IN_B*
X57658000Y-95529400D02*
X58674000Y-94513400D01*
X57658000Y-95529400D02*
X57658000Y-96672400D01*
X58674000Y-94513400D02*
X58674000Y-93980000D01*
G04 #@! TO.N,M2_IN_A*
X62738000Y-90779600D02*
X62738000Y-91922600D01*
X62738000Y-91922600D02*
X62738000Y-92456000D01*
G04 #@! TO.N,M2_PWM*
X47498000Y-97790000D02*
X48006000Y-98298000D01*
X47498000Y-96672400D02*
X47498000Y-97790000D01*
X48006000Y-98298000D02*
X60960000Y-98298000D01*
X60960000Y-98298000D02*
X61468000Y-97790000D01*
X61468000Y-97790000D02*
X61468000Y-95504000D01*
X61468000Y-95504000D02*
X61976000Y-94996000D01*
X78232000Y-94996000D02*
X78486000Y-94742000D01*
X67818000Y-94996000D02*
X68072000Y-94996000D01*
X67818000Y-94996000D02*
X78232000Y-94996000D01*
X68072000Y-69088000D02*
X68072000Y-58928000D01*
X68072000Y-58928000D02*
X68072000Y-58674000D01*
D21*
X67437000Y-94996000D02*
X67310000Y-94996000D01*
D20*
X67437000Y-94996000D02*
X67818000Y-94996000D01*
X61976000Y-94996000D02*
X67437000Y-94996000D01*
D21*
X67310000Y-94996000D02*
X66548000Y-94234000D01*
X66548000Y-94234000D02*
X66548000Y-89154000D01*
X66548000Y-74041000D02*
X68072000Y-72517000D01*
X66548000Y-78359000D02*
X66548000Y-74041000D01*
D20*
X68072000Y-72517000D02*
X68072000Y-69088000D01*
G04 #@! TO.N,M2_IN_B*
X62738000Y-96278700D02*
X62738000Y-96672400D01*
X63512700Y-95504000D02*
X62738000Y-96278700D01*
X83566000Y-95504000D02*
X63512700Y-95504000D01*
X84328000Y-94742000D02*
X83566000Y-95504000D01*
G04 #@! TO.N,M3_IN_A*
X118618000Y-89636600D02*
X118008400Y-89027000D01*
X118618000Y-90779600D02*
X118618000Y-89636600D01*
X118008400Y-89027000D02*
X101600000Y-89027000D01*
X101600000Y-89027000D02*
X101092000Y-89535000D01*
X101092000Y-89535000D02*
X101092000Y-93472000D01*
G04 #@! TO.N,M3_PWM*
X103378000Y-95529400D02*
X103911400Y-94996000D01*
X103378000Y-96672400D02*
X103378000Y-95529400D01*
X103911400Y-94996000D02*
X104521000Y-94996000D01*
X103378000Y-97066100D02*
X103378000Y-96672400D01*
X103378000Y-96672400D02*
X102628700Y-96672400D01*
X102628700Y-96672400D02*
X95910400Y-96672400D01*
X95123000Y-59817000D02*
X95123000Y-58674000D01*
D21*
X95910400Y-96672400D02*
X94259400Y-96672400D01*
X94259400Y-96672400D02*
X93472000Y-95885000D01*
X93472000Y-95885000D02*
X93472000Y-89154000D01*
X93472000Y-73914000D02*
X95123000Y-72263000D01*
X93472000Y-78359000D02*
X93472000Y-73914000D01*
D20*
X95123000Y-72263000D02*
X95123000Y-59817000D01*
G04 #@! TO.N,M3_IN_B*
X121158000Y-92583000D02*
X121158000Y-90779600D01*
G04 #@! TO.N,M4_IN_A*
X123698000Y-90779600D02*
X123698000Y-92964000D01*
X123698000Y-92964000D02*
X124206000Y-93472000D01*
X124206000Y-93472000D02*
X124841000Y-93472000D01*
G04 #@! TO.N,M4_PWM*
X105918000Y-95529400D02*
X106578400Y-94869000D01*
X105918000Y-96672400D02*
X105918000Y-95529400D01*
X131064000Y-94869000D02*
X131953000Y-94869000D01*
X123190000Y-94869000D02*
X131064000Y-94869000D01*
X121793000Y-71120000D02*
X121793000Y-59563000D01*
X121793000Y-59563000D02*
X121793000Y-58674000D01*
D21*
X120904000Y-94869000D02*
X120269000Y-94234000D01*
D20*
X120904000Y-94869000D02*
X123190000Y-94869000D01*
X106578400Y-94869000D02*
X120904000Y-94869000D01*
D21*
X120269000Y-94234000D02*
X120142000Y-94107000D01*
X120142000Y-94107000D02*
X120142000Y-89027000D01*
X120142000Y-73660000D02*
X121793000Y-72009000D01*
X120142000Y-78359000D02*
X120142000Y-73660000D01*
D20*
X121793000Y-72009000D02*
X121793000Y-71120000D01*
G04 #@! TO.N,M4_IN_B*
X126987300Y-90779600D02*
X127000000Y-90766900D01*
X126238000Y-90779600D02*
X126987300Y-90779600D01*
X127000000Y-90766900D02*
X138645900Y-90766900D01*
X138645900Y-90766900D02*
X139319000Y-91440000D01*
X139319000Y-91440000D02*
X139319000Y-93472000D01*
G04 #@! TO.N,MSW_1*
X47498000Y-111252000D02*
X48006000Y-110744000D01*
X47498000Y-133959600D02*
X47498000Y-111252000D01*
G04 #@! TO.N,MSW_2*
X52578000Y-114046000D02*
X53086000Y-113538000D01*
X52578000Y-133959600D02*
X52578000Y-114046000D01*
X53086000Y-113538000D02*
X66548000Y-113538000D01*
X66548000Y-113538000D02*
X67056000Y-113030000D01*
X67056000Y-111228000D02*
X67564000Y-110720000D01*
X67056000Y-113030000D02*
X67056000Y-111228000D01*
G04 #@! TO.N,MSW_3*
X50038000Y-127254000D02*
X50546000Y-126746000D01*
X50038000Y-133959600D02*
X50038000Y-127254000D01*
G04 #@! TO.N,MSW_4*
X55118000Y-139852400D02*
X55118000Y-139446000D01*
X55118000Y-139446000D02*
X53848000Y-138176000D01*
X68580000Y-126722000D02*
X68072000Y-127230000D01*
X68072000Y-128016000D02*
X67564000Y-128524000D01*
X68072000Y-127230000D02*
X68072000Y-128016000D01*
X67564000Y-128524000D02*
X54610000Y-128524000D01*
G04 #@! TO.N,SW_IND_1*
X126238000Y-133959600D02*
X126238000Y-130937000D01*
X126238000Y-130937000D02*
X125603000Y-130302000D01*
X118618000Y-129921000D02*
X118999000Y-130302000D01*
X118618000Y-121158000D02*
X118618000Y-129921000D01*
X125603000Y-130302000D02*
X118999000Y-130302000D01*
G04 #@! TO.N,SW_IND_2*
X117856000Y-130683000D02*
X117856000Y-124206000D01*
X118110000Y-130937000D02*
X117856000Y-130683000D01*
X123063000Y-130937000D02*
X118110000Y-130937000D01*
X123698000Y-133959600D02*
X123698000Y-131572000D01*
X123698000Y-131572000D02*
X123063000Y-130937000D01*
G04 #@! TO.N,SW_IND_3*
X117094000Y-129159000D02*
X117094000Y-127254000D01*
X121158000Y-133959600D02*
X121158000Y-132207000D01*
X121158000Y-132207000D02*
X120523000Y-131572000D01*
X120523000Y-131572000D02*
X117729000Y-131572000D01*
X117729000Y-131572000D02*
X117094000Y-130937000D01*
X117094000Y-130937000D02*
X117094000Y-129159000D01*
G04 #@! TO.N,Net-(U1-PadPN2)*
X57658000Y-90779600D02*
X57658000Y-91173300D01*
G04 #@! TO.N,MSW_5*
X44577000Y-133578600D02*
X44958000Y-133959600D01*
X42398000Y-116078000D02*
X40894000Y-116078000D01*
X44450000Y-116078000D02*
X42398000Y-116078000D01*
X44958000Y-133959600D02*
X44958000Y-116586000D01*
X44958000Y-116586000D02*
X44450000Y-116078000D01*
G04 #@! TO.N,LS_3*
X82550000Y-123698000D02*
X82677000Y-123698000D01*
X55118000Y-133565900D02*
X57365900Y-131318000D01*
X55118000Y-133959600D02*
X55118000Y-133565900D01*
X57365900Y-131318000D02*
X66802000Y-131318000D01*
X66802000Y-131318000D02*
X85598000Y-131318000D01*
X85598000Y-131318000D02*
X86614000Y-130302000D01*
G04 #@! TO.N,LS_4*
X95631000Y-123698000D02*
X95758000Y-123698000D01*
X62738000Y-133959600D02*
X62738000Y-133350000D01*
X62738000Y-133350000D02*
X63246000Y-132842000D01*
X63246000Y-132842000D02*
X66802000Y-132842000D01*
X66802000Y-132842000D02*
X86360000Y-132842000D01*
X86360000Y-132842000D02*
X88646000Y-132842000D01*
X88646000Y-132842000D02*
X88900000Y-132588000D01*
G04 #@! TO.N,SW_ERR*
X118618000Y-133959600D02*
X118618000Y-133565900D01*
X116332000Y-131445000D02*
X116332000Y-130302000D01*
X116967000Y-132080000D02*
X116332000Y-131445000D01*
X117881400Y-132080000D02*
X116967000Y-132080000D01*
X118618000Y-133959600D02*
X118618000Y-132816600D01*
X118618000Y-132816600D02*
X117881400Y-132080000D01*
G04 #@! TD*
G04 #@! TO.N,M4_OUT_B*
G36*
X140589000Y-78613000D02*
X133985000Y-78613000D01*
X133985000Y-59563000D01*
X140589000Y-59563000D01*
X140589000Y-78613000D01*
X140589000Y-78613000D01*
G37*
X140589000Y-78613000D02*
X133985000Y-78613000D01*
X133985000Y-59563000D01*
X140589000Y-59563000D01*
X140589000Y-78613000D01*
G04 #@! TO.N,M3_OUT_A*
G36*
X105537000Y-78613000D02*
X98933000Y-78613000D01*
X98933000Y-59563000D01*
X105537000Y-59563000D01*
X105537000Y-78613000D01*
X105537000Y-78613000D01*
G37*
X105537000Y-78613000D02*
X98933000Y-78613000D01*
X98933000Y-59563000D01*
X105537000Y-59563000D01*
X105537000Y-78613000D01*
G04 #@! TO.N,M3_OUT_B*
G36*
X113792000Y-78613000D02*
X107188000Y-78613000D01*
X107188000Y-59563000D01*
X113792000Y-59563000D01*
X113792000Y-78613000D01*
X113792000Y-78613000D01*
G37*
X113792000Y-78613000D02*
X107188000Y-78613000D01*
X107188000Y-59563000D01*
X113792000Y-59563000D01*
X113792000Y-78613000D01*
G04 #@! TO.N,M2_OUT_A*
G36*
X78486000Y-78613000D02*
X71882000Y-78613000D01*
X71882000Y-59563000D01*
X78486000Y-59563000D01*
X78486000Y-78613000D01*
X78486000Y-78613000D01*
G37*
X78486000Y-78613000D02*
X71882000Y-78613000D01*
X71882000Y-59563000D01*
X78486000Y-59563000D01*
X78486000Y-78613000D01*
G04 #@! TO.N,M2_OUT_B*
G36*
X86741000Y-78613000D02*
X80137000Y-78613000D01*
X80137000Y-59563000D01*
X86741000Y-59563000D01*
X86741000Y-78613000D01*
X86741000Y-78613000D01*
G37*
X86741000Y-78613000D02*
X80137000Y-78613000D01*
X80137000Y-59563000D01*
X86741000Y-59563000D01*
X86741000Y-78613000D01*
G04 #@! TO.N,M1_OUT_B*
G36*
X59817000Y-78613000D02*
X53213000Y-78613000D01*
X53213000Y-59563000D01*
X59817000Y-59563000D01*
X59817000Y-78613000D01*
X59817000Y-78613000D01*
G37*
X59817000Y-78613000D02*
X53213000Y-78613000D01*
X53213000Y-59563000D01*
X59817000Y-59563000D01*
X59817000Y-78613000D01*
G04 #@! TO.N,M1_OUT_A*
G36*
X51435000Y-78613000D02*
X44831000Y-78613000D01*
X44831000Y-59563000D01*
X51435000Y-59563000D01*
X51435000Y-78613000D01*
X51435000Y-78613000D01*
G37*
X51435000Y-78613000D02*
X44831000Y-78613000D01*
X44831000Y-59563000D01*
X51435000Y-59563000D01*
X51435000Y-78613000D01*
G04 #@! TO.N,M4_OUT_A*
G36*
X132207000Y-78613000D02*
X125603000Y-78613000D01*
X125603000Y-59563000D01*
X132207000Y-59563000D01*
X132207000Y-78613000D01*
X132207000Y-78613000D01*
G37*
X132207000Y-78613000D02*
X125603000Y-78613000D01*
X125603000Y-59563000D01*
X132207000Y-59563000D01*
X132207000Y-78613000D01*
G04 #@! TO.N,+12VA*
G36*
X66342126Y-79394000D02*
X66753874Y-79394000D01*
X66799744Y-79375000D01*
X93220256Y-79375000D01*
X93266126Y-79394000D01*
X93677874Y-79394000D01*
X93723744Y-79375000D01*
X119890256Y-79375000D01*
X119936126Y-79394000D01*
X120347874Y-79394000D01*
X120393744Y-79375000D01*
X147701000Y-79375000D01*
X147701000Y-102235000D01*
X142113000Y-102235000D01*
X142113000Y-84836000D01*
X142103333Y-84787399D01*
X142075803Y-84746197D01*
X142034601Y-84718667D01*
X141986000Y-84709000D01*
X46863000Y-84709000D01*
X46863000Y-79375000D01*
X66296256Y-79375000D01*
X66342126Y-79394000D01*
X66342126Y-79394000D01*
G37*
X66342126Y-79394000D02*
X66753874Y-79394000D01*
X66799744Y-79375000D01*
X93220256Y-79375000D01*
X93266126Y-79394000D01*
X93677874Y-79394000D01*
X93723744Y-79375000D01*
X119890256Y-79375000D01*
X119936126Y-79394000D01*
X120347874Y-79394000D01*
X120393744Y-79375000D01*
X147701000Y-79375000D01*
X147701000Y-102235000D01*
X142113000Y-102235000D01*
X142113000Y-84836000D01*
X142103333Y-84787399D01*
X142075803Y-84746197D01*
X142034601Y-84718667D01*
X141986000Y-84709000D01*
X46863000Y-84709000D01*
X46863000Y-79375000D01*
X66296256Y-79375000D01*
X66342126Y-79394000D01*
G04 #@! TO.N,GND*
G36*
X161405009Y-44991490D02*
X161744352Y-45145781D01*
X162026752Y-45389112D01*
X162229506Y-45701923D01*
X162343348Y-46082584D01*
X162358001Y-46279763D01*
X162358000Y-62045925D01*
X162358001Y-62045930D01*
X162358000Y-83635925D01*
X162358001Y-83635930D01*
X162358000Y-117043419D01*
X162297910Y-117463009D01*
X162143619Y-117802352D01*
X161900288Y-118084752D01*
X161587479Y-118287506D01*
X161206815Y-118401348D01*
X161009649Y-118416000D01*
X145357926Y-118416000D01*
X145288000Y-118402091D01*
X145218075Y-118416000D01*
X145218074Y-118416000D01*
X145010972Y-118457195D01*
X144776119Y-118614119D01*
X144619195Y-118848972D01*
X144564091Y-119126000D01*
X144578001Y-119195931D01*
X144578000Y-139884074D01*
X144564091Y-139954000D01*
X144619195Y-140231028D01*
X144776119Y-140465881D01*
X145010972Y-140622805D01*
X145170571Y-140654551D01*
X145288000Y-140677909D01*
X145357925Y-140664000D01*
X160985419Y-140664000D01*
X161405009Y-140724090D01*
X161744352Y-140878381D01*
X162026752Y-141121712D01*
X162229506Y-141434523D01*
X162343348Y-141815184D01*
X162358001Y-142012363D01*
X162358000Y-149503281D01*
X162272491Y-149529423D01*
X162180033Y-149556460D01*
X162172159Y-149560098D01*
X161650644Y-149804948D01*
X161570075Y-149857872D01*
X161488927Y-149909768D01*
X161482390Y-149915470D01*
X161050558Y-150296851D01*
X160988096Y-150370244D01*
X160924760Y-150442847D01*
X160920087Y-150450154D01*
X160612654Y-150937407D01*
X160573298Y-151025387D01*
X160532889Y-151112840D01*
X160530457Y-151121160D01*
X160530454Y-151121166D01*
X160530453Y-151121173D01*
X160372134Y-151675118D01*
X160359056Y-151770586D01*
X160344813Y-151865890D01*
X160344813Y-151874564D01*
X160348333Y-152450687D01*
X160362588Y-152546068D01*
X160375654Y-152641455D01*
X160378088Y-152649781D01*
X160543164Y-153201758D01*
X160583591Y-153289250D01*
X160622930Y-153377194D01*
X160627603Y-153384501D01*
X160940966Y-153867961D01*
X161004328Y-153940594D01*
X161066763Y-154013955D01*
X161073296Y-154019654D01*
X161073300Y-154019658D01*
X161073305Y-154019661D01*
X161509759Y-154395734D01*
X161590942Y-154447653D01*
X161671475Y-154500554D01*
X161679346Y-154504190D01*
X161679349Y-154504192D01*
X161679352Y-154504193D01*
X162203817Y-154742653D01*
X162296309Y-154769700D01*
X162358001Y-154788561D01*
X162358000Y-162763418D01*
X162297910Y-163183009D01*
X162143619Y-163522352D01*
X161900288Y-163804752D01*
X161587479Y-164007506D01*
X161206815Y-164121348D01*
X161009649Y-164136000D01*
X40690581Y-164136000D01*
X40270991Y-164075910D01*
X39931648Y-163921619D01*
X39649248Y-163678288D01*
X39446494Y-163365479D01*
X39332652Y-162984815D01*
X39318000Y-162787649D01*
X39318000Y-154788719D01*
X39403509Y-154762577D01*
X39495967Y-154735540D01*
X39503841Y-154731902D01*
X40025356Y-154487052D01*
X40105925Y-154434128D01*
X40187073Y-154382232D01*
X40193610Y-154376530D01*
X40625442Y-153995149D01*
X40687887Y-153921776D01*
X40751240Y-153849153D01*
X40755913Y-153841846D01*
X41063346Y-153354593D01*
X41102687Y-153266645D01*
X41143111Y-153179160D01*
X41145545Y-153170835D01*
X41303866Y-152616882D01*
X41316943Y-152521421D01*
X41331187Y-152426111D01*
X41331187Y-152417436D01*
X41327667Y-151841313D01*
X41313414Y-151745943D01*
X41300346Y-151650544D01*
X41297912Y-151642219D01*
X41132836Y-151090241D01*
X41092418Y-151002769D01*
X41053071Y-150914806D01*
X41048397Y-150907499D01*
X40735034Y-150424040D01*
X40671707Y-150351447D01*
X40609237Y-150278045D01*
X40602700Y-150272343D01*
X40166241Y-149896266D01*
X40085058Y-149844347D01*
X40004525Y-149791446D01*
X39996654Y-149787810D01*
X39996651Y-149787808D01*
X39996648Y-149787807D01*
X39472183Y-149549347D01*
X39379691Y-149522300D01*
X39318000Y-149503439D01*
X39318000Y-141375971D01*
X39382700Y-141388840D01*
X40373300Y-141388840D01*
X40621065Y-141339557D01*
X40831109Y-141199209D01*
X40971457Y-140989165D01*
X41020740Y-140741400D01*
X41020740Y-138963400D01*
X41275260Y-138963400D01*
X41275260Y-140741400D01*
X41324543Y-140989165D01*
X41464891Y-141199209D01*
X41674935Y-141339557D01*
X41922700Y-141388840D01*
X42913300Y-141388840D01*
X43161065Y-141339557D01*
X43371109Y-141199209D01*
X43511457Y-140989165D01*
X43560740Y-140741400D01*
X43560740Y-138963400D01*
X43815260Y-138963400D01*
X43815260Y-140741400D01*
X43864543Y-140989165D01*
X44004891Y-141199209D01*
X44214935Y-141339557D01*
X44462700Y-141388840D01*
X45453300Y-141388840D01*
X45701065Y-141339557D01*
X45911109Y-141199209D01*
X46051457Y-140989165D01*
X46100740Y-140741400D01*
X46100740Y-138963400D01*
X46355260Y-138963400D01*
X46355260Y-140741400D01*
X46404543Y-140989165D01*
X46544891Y-141199209D01*
X46754935Y-141339557D01*
X47002700Y-141388840D01*
X47993300Y-141388840D01*
X48241065Y-141339557D01*
X48451109Y-141199209D01*
X48591457Y-140989165D01*
X48640740Y-140741400D01*
X48640740Y-138963400D01*
X48895260Y-138963400D01*
X48895260Y-140741400D01*
X48944543Y-140989165D01*
X49084891Y-141199209D01*
X49294935Y-141339557D01*
X49542700Y-141388840D01*
X50533300Y-141388840D01*
X50781065Y-141339557D01*
X50991109Y-141199209D01*
X51131457Y-140989165D01*
X51180740Y-140741400D01*
X51180740Y-138963400D01*
X51131457Y-138715635D01*
X50991109Y-138505591D01*
X50781065Y-138365243D01*
X50533300Y-138315960D01*
X49542700Y-138315960D01*
X49294935Y-138365243D01*
X49084891Y-138505591D01*
X48944543Y-138715635D01*
X48895260Y-138963400D01*
X48640740Y-138963400D01*
X48591457Y-138715635D01*
X48451109Y-138505591D01*
X48241065Y-138365243D01*
X47993300Y-138315960D01*
X47002700Y-138315960D01*
X46754935Y-138365243D01*
X46544891Y-138505591D01*
X46404543Y-138715635D01*
X46355260Y-138963400D01*
X46100740Y-138963400D01*
X46051457Y-138715635D01*
X45911109Y-138505591D01*
X45701065Y-138365243D01*
X45453300Y-138315960D01*
X44462700Y-138315960D01*
X44214935Y-138365243D01*
X44004891Y-138505591D01*
X43864543Y-138715635D01*
X43815260Y-138963400D01*
X43560740Y-138963400D01*
X43511457Y-138715635D01*
X43371109Y-138505591D01*
X43161065Y-138365243D01*
X42913300Y-138315960D01*
X41922700Y-138315960D01*
X41674935Y-138365243D01*
X41464891Y-138505591D01*
X41324543Y-138715635D01*
X41275260Y-138963400D01*
X41020740Y-138963400D01*
X40971457Y-138715635D01*
X40903023Y-138613217D01*
X41594241Y-137922000D01*
X52832934Y-137922000D01*
X52813000Y-137970126D01*
X52813000Y-138315960D01*
X52082700Y-138315960D01*
X51834935Y-138365243D01*
X51624891Y-138505591D01*
X51484543Y-138715635D01*
X51435260Y-138963400D01*
X51435260Y-140741400D01*
X51484543Y-140989165D01*
X51624891Y-141199209D01*
X51834935Y-141339557D01*
X52082700Y-141388840D01*
X53073300Y-141388840D01*
X53321065Y-141339557D01*
X53531109Y-141199209D01*
X53671457Y-140989165D01*
X53720740Y-140741400D01*
X53720740Y-139211000D01*
X53805370Y-139211000D01*
X53975260Y-139380891D01*
X53975260Y-140741400D01*
X54024543Y-140989165D01*
X54164891Y-141199209D01*
X54374935Y-141339557D01*
X54622700Y-141388840D01*
X55613300Y-141388840D01*
X55861065Y-141339557D01*
X56071109Y-141199209D01*
X56211457Y-140989165D01*
X56260740Y-140741400D01*
X56260740Y-138963400D01*
X56515260Y-138963400D01*
X56515260Y-140741400D01*
X56564543Y-140989165D01*
X56704891Y-141199209D01*
X56914935Y-141339557D01*
X57162700Y-141388840D01*
X58153300Y-141388840D01*
X58401065Y-141339557D01*
X58611109Y-141199209D01*
X58751457Y-140989165D01*
X58800740Y-140741400D01*
X58800740Y-138963400D01*
X59055260Y-138963400D01*
X59055260Y-140741400D01*
X59104543Y-140989165D01*
X59244891Y-141199209D01*
X59454935Y-141339557D01*
X59702700Y-141388840D01*
X60693300Y-141388840D01*
X60941065Y-141339557D01*
X61151109Y-141199209D01*
X61291457Y-140989165D01*
X61340740Y-140741400D01*
X61340740Y-138963400D01*
X61595260Y-138963400D01*
X61595260Y-140741400D01*
X61644543Y-140989165D01*
X61784891Y-141199209D01*
X61994935Y-141339557D01*
X62242700Y-141388840D01*
X63233300Y-141388840D01*
X63481065Y-141339557D01*
X63691109Y-141199209D01*
X63831457Y-140989165D01*
X63880740Y-140741400D01*
X63880740Y-138963400D01*
X63831457Y-138715635D01*
X63691109Y-138505591D01*
X63481065Y-138365243D01*
X63233300Y-138315960D01*
X62242700Y-138315960D01*
X61994935Y-138365243D01*
X61784891Y-138505591D01*
X61644543Y-138715635D01*
X61595260Y-138963400D01*
X61340740Y-138963400D01*
X61291457Y-138715635D01*
X61151109Y-138505591D01*
X60941065Y-138365243D01*
X60693300Y-138315960D01*
X59702700Y-138315960D01*
X59454935Y-138365243D01*
X59244891Y-138505591D01*
X59104543Y-138715635D01*
X59055260Y-138963400D01*
X58800740Y-138963400D01*
X58751457Y-138715635D01*
X58611109Y-138505591D01*
X58401065Y-138365243D01*
X58153300Y-138315960D01*
X57162700Y-138315960D01*
X56914935Y-138365243D01*
X56704891Y-138505591D01*
X56564543Y-138715635D01*
X56515260Y-138963400D01*
X56260740Y-138963400D01*
X56211457Y-138715635D01*
X56071109Y-138505591D01*
X55861065Y-138365243D01*
X55613300Y-138315960D01*
X55065591Y-138315960D01*
X54883000Y-138133370D01*
X54883000Y-137970126D01*
X54863066Y-137922000D01*
X94387935Y-137922000D01*
X94487999Y-137941904D01*
X94588063Y-137922000D01*
X102392620Y-137922000D01*
X102342096Y-138176000D01*
X102362001Y-138276068D01*
X102362001Y-138599712D01*
X102284543Y-138715635D01*
X102235260Y-138963400D01*
X102235260Y-140741400D01*
X102284543Y-140989165D01*
X102424891Y-141199209D01*
X102634935Y-141339557D01*
X102882700Y-141388840D01*
X103873300Y-141388840D01*
X104121065Y-141339557D01*
X104331109Y-141199209D01*
X104471457Y-140989165D01*
X104520740Y-140741400D01*
X104520740Y-138963400D01*
X104775260Y-138963400D01*
X104775260Y-140741400D01*
X104824543Y-140989165D01*
X104964891Y-141199209D01*
X105174935Y-141339557D01*
X105422700Y-141388840D01*
X106413300Y-141388840D01*
X106661065Y-141339557D01*
X106871109Y-141199209D01*
X107011457Y-140989165D01*
X107060740Y-140741400D01*
X107060740Y-138963400D01*
X107315260Y-138963400D01*
X107315260Y-140741400D01*
X107364543Y-140989165D01*
X107504891Y-141199209D01*
X107714935Y-141339557D01*
X107962700Y-141388840D01*
X108953300Y-141388840D01*
X109201065Y-141339557D01*
X109411109Y-141199209D01*
X109551457Y-140989165D01*
X109600740Y-140741400D01*
X109600740Y-138963400D01*
X109855260Y-138963400D01*
X109855260Y-140741400D01*
X109904543Y-140989165D01*
X110044891Y-141199209D01*
X110254935Y-141339557D01*
X110502700Y-141388840D01*
X111493300Y-141388840D01*
X111741065Y-141339557D01*
X111951109Y-141199209D01*
X112091457Y-140989165D01*
X112140740Y-140741400D01*
X112140740Y-138963400D01*
X112395260Y-138963400D01*
X112395260Y-140741400D01*
X112444543Y-140989165D01*
X112584891Y-141199209D01*
X112794935Y-141339557D01*
X113042700Y-141388840D01*
X114033300Y-141388840D01*
X114281065Y-141339557D01*
X114491109Y-141199209D01*
X114631457Y-140989165D01*
X114680740Y-140741400D01*
X114680740Y-138963400D01*
X114935260Y-138963400D01*
X114935260Y-140741400D01*
X114984543Y-140989165D01*
X115124891Y-141199209D01*
X115334935Y-141339557D01*
X115582700Y-141388840D01*
X116573300Y-141388840D01*
X116821065Y-141339557D01*
X117031109Y-141199209D01*
X117171457Y-140989165D01*
X117220740Y-140741400D01*
X117220740Y-138963400D01*
X117475260Y-138963400D01*
X117475260Y-140741400D01*
X117524543Y-140989165D01*
X117664891Y-141199209D01*
X117874935Y-141339557D01*
X118122700Y-141388840D01*
X119113300Y-141388840D01*
X119361065Y-141339557D01*
X119571109Y-141199209D01*
X119711457Y-140989165D01*
X119760740Y-140741400D01*
X119760740Y-138963400D01*
X120015260Y-138963400D01*
X120015260Y-140741400D01*
X120064543Y-140989165D01*
X120204891Y-141199209D01*
X120414935Y-141339557D01*
X120662700Y-141388840D01*
X121653300Y-141388840D01*
X121901065Y-141339557D01*
X122111109Y-141199209D01*
X122251457Y-140989165D01*
X122300740Y-140741400D01*
X122300740Y-138963400D01*
X122555260Y-138963400D01*
X122555260Y-140741400D01*
X122604543Y-140989165D01*
X122744891Y-141199209D01*
X122954935Y-141339557D01*
X123202700Y-141388840D01*
X124193300Y-141388840D01*
X124441065Y-141339557D01*
X124651109Y-141199209D01*
X124791457Y-140989165D01*
X124840740Y-140741400D01*
X124840740Y-138963400D01*
X125095260Y-138963400D01*
X125095260Y-140741400D01*
X125144543Y-140989165D01*
X125284891Y-141199209D01*
X125494935Y-141339557D01*
X125742700Y-141388840D01*
X126733300Y-141388840D01*
X126981065Y-141339557D01*
X127191109Y-141199209D01*
X127331457Y-140989165D01*
X127380740Y-140741400D01*
X127380740Y-138963400D01*
X127331457Y-138715635D01*
X127191109Y-138505591D01*
X126981065Y-138365243D01*
X126733300Y-138315960D01*
X125742700Y-138315960D01*
X125494935Y-138365243D01*
X125284891Y-138505591D01*
X125144543Y-138715635D01*
X125095260Y-138963400D01*
X124840740Y-138963400D01*
X124791457Y-138715635D01*
X124651109Y-138505591D01*
X124441065Y-138365243D01*
X124193300Y-138315960D01*
X123202700Y-138315960D01*
X122954935Y-138365243D01*
X122744891Y-138505591D01*
X122604543Y-138715635D01*
X122555260Y-138963400D01*
X122300740Y-138963400D01*
X122251457Y-138715635D01*
X122111109Y-138505591D01*
X121901065Y-138365243D01*
X121653300Y-138315960D01*
X120662700Y-138315960D01*
X120414935Y-138365243D01*
X120204891Y-138505591D01*
X120064543Y-138715635D01*
X120015260Y-138963400D01*
X119760740Y-138963400D01*
X119711457Y-138715635D01*
X119571109Y-138505591D01*
X119361065Y-138365243D01*
X119113300Y-138315960D01*
X118122700Y-138315960D01*
X117874935Y-138365243D01*
X117664891Y-138505591D01*
X117524543Y-138715635D01*
X117475260Y-138963400D01*
X117220740Y-138963400D01*
X117171457Y-138715635D01*
X117031109Y-138505591D01*
X116821065Y-138365243D01*
X116573300Y-138315960D01*
X115582700Y-138315960D01*
X115334935Y-138365243D01*
X115124891Y-138505591D01*
X114984543Y-138715635D01*
X114935260Y-138963400D01*
X114680740Y-138963400D01*
X114631457Y-138715635D01*
X114491109Y-138505591D01*
X114281065Y-138365243D01*
X114033300Y-138315960D01*
X113042700Y-138315960D01*
X112794935Y-138365243D01*
X112584891Y-138505591D01*
X112444543Y-138715635D01*
X112395260Y-138963400D01*
X112140740Y-138963400D01*
X112091457Y-138715635D01*
X111951109Y-138505591D01*
X111741065Y-138365243D01*
X111493300Y-138315960D01*
X110502700Y-138315960D01*
X110254935Y-138365243D01*
X110044891Y-138505591D01*
X109904543Y-138715635D01*
X109855260Y-138963400D01*
X109600740Y-138963400D01*
X109551457Y-138715635D01*
X109411109Y-138505591D01*
X109201065Y-138365243D01*
X108953300Y-138315960D01*
X107962700Y-138315960D01*
X107714935Y-138365243D01*
X107504891Y-138505591D01*
X107364543Y-138715635D01*
X107315260Y-138963400D01*
X107060740Y-138963400D01*
X107011457Y-138715635D01*
X106871109Y-138505591D01*
X106661065Y-138365243D01*
X106413300Y-138315960D01*
X105422700Y-138315960D01*
X105174935Y-138365243D01*
X104964891Y-138505591D01*
X104824543Y-138715635D01*
X104775260Y-138963400D01*
X104520740Y-138963400D01*
X104471457Y-138715635D01*
X104394000Y-138599713D01*
X104394000Y-138596840D01*
X105068841Y-137922000D01*
X133512956Y-137922000D01*
X133613019Y-137941904D01*
X133713082Y-137922000D01*
X133713084Y-137922000D01*
X134009442Y-137863051D01*
X134345514Y-137638495D01*
X134402199Y-137553660D01*
X136292683Y-135663177D01*
X136377514Y-135606495D01*
X136602070Y-135270423D01*
X136661019Y-134974065D01*
X136661019Y-134974064D01*
X136680923Y-134874000D01*
X136661019Y-134773937D01*
X136661019Y-122657970D01*
X136671000Y-122633874D01*
X136671000Y-122222126D01*
X136661019Y-122198030D01*
X136661019Y-112111241D01*
X136829339Y-111942921D01*
X137042019Y-111429465D01*
X137042019Y-110873703D01*
X136829339Y-110360247D01*
X136436356Y-109967264D01*
X135922900Y-109754584D01*
X135367138Y-109754584D01*
X134853682Y-109967264D01*
X134460699Y-110360247D01*
X134248019Y-110873703D01*
X134248019Y-111429465D01*
X134460699Y-111942921D01*
X134629020Y-112111242D01*
X134629020Y-122154481D01*
X134601000Y-122222126D01*
X134601000Y-122633874D01*
X134629020Y-122701519D01*
X134629019Y-134453159D01*
X133192179Y-135890000D01*
X104748063Y-135890000D01*
X104647999Y-135870096D01*
X104547935Y-135890000D01*
X94908841Y-135890000D01*
X94234000Y-135215160D01*
X94234000Y-133070600D01*
X102235260Y-133070600D01*
X102235260Y-134848600D01*
X102284543Y-135096365D01*
X102424891Y-135306409D01*
X102634935Y-135446757D01*
X102882700Y-135496040D01*
X103873300Y-135496040D01*
X104121065Y-135446757D01*
X104331109Y-135306409D01*
X104471457Y-135096365D01*
X104520740Y-134848600D01*
X104520740Y-133070600D01*
X107315260Y-133070600D01*
X107315260Y-134848600D01*
X107364543Y-135096365D01*
X107504891Y-135306409D01*
X107714935Y-135446757D01*
X107962700Y-135496040D01*
X108953300Y-135496040D01*
X109201065Y-135446757D01*
X109411109Y-135306409D01*
X109551457Y-135096365D01*
X109600740Y-134848600D01*
X109600740Y-133070600D01*
X109551457Y-132822835D01*
X109411109Y-132612791D01*
X109201065Y-132472443D01*
X108953300Y-132423160D01*
X107962700Y-132423160D01*
X107714935Y-132472443D01*
X107504891Y-132612791D01*
X107364543Y-132822835D01*
X107315260Y-133070600D01*
X104520740Y-133070600D01*
X104471457Y-132822835D01*
X104331109Y-132612791D01*
X104121065Y-132472443D01*
X103873300Y-132423160D01*
X102882700Y-132423160D01*
X102634935Y-132472443D01*
X102424891Y-132612791D01*
X102284543Y-132822835D01*
X102235260Y-133070600D01*
X94234000Y-133070600D01*
X94234000Y-124657657D01*
X94402320Y-124489337D01*
X94488000Y-124282487D01*
X94573680Y-124489337D01*
X94966663Y-124882320D01*
X95480119Y-125095000D01*
X96035881Y-125095000D01*
X96549337Y-124882320D01*
X96942320Y-124489337D01*
X97155000Y-123975881D01*
X97155000Y-123420119D01*
X96942320Y-122906663D01*
X96549337Y-122513680D01*
X96035881Y-122301000D01*
X95480119Y-122301000D01*
X94966663Y-122513680D01*
X94573680Y-122906663D01*
X94488000Y-123113513D01*
X94402320Y-122906663D01*
X94009337Y-122513680D01*
X93495881Y-122301000D01*
X93257840Y-122301000D01*
X92664179Y-121707339D01*
X92607494Y-121622504D01*
X92271422Y-121397948D01*
X91975064Y-121338999D01*
X91975062Y-121338999D01*
X91874999Y-121319095D01*
X91774936Y-121338999D01*
X81580064Y-121338999D01*
X81480000Y-121319095D01*
X81379936Y-121338999D01*
X81083578Y-121397948D01*
X81083577Y-121397949D01*
X81083576Y-121397949D01*
X80989376Y-121460892D01*
X80747506Y-121622504D01*
X80690823Y-121707336D01*
X80097159Y-122301000D01*
X79859119Y-122301000D01*
X79345663Y-122513680D01*
X78952680Y-122906663D01*
X78740000Y-123420119D01*
X78740000Y-123975881D01*
X78952680Y-124489337D01*
X79345663Y-124882320D01*
X79859119Y-125095000D01*
X80414881Y-125095000D01*
X80928337Y-124882320D01*
X81321320Y-124489337D01*
X81407000Y-124282487D01*
X81492680Y-124489337D01*
X81885663Y-124882320D01*
X82399119Y-125095000D01*
X82954881Y-125095000D01*
X83468337Y-124882320D01*
X83861320Y-124489337D01*
X84074000Y-123975881D01*
X84074000Y-123420119D01*
X84053654Y-123370999D01*
X91454159Y-123370999D01*
X91821000Y-123737840D01*
X91821000Y-123975881D01*
X92033680Y-124489337D01*
X92202001Y-124657658D01*
X92202000Y-135535936D01*
X92182096Y-135636000D01*
X92202000Y-135736063D01*
X92202000Y-135736064D01*
X92232620Y-135890000D01*
X41273463Y-135890000D01*
X41173399Y-135870096D01*
X41073335Y-135890000D01*
X40776977Y-135948949D01*
X40776976Y-135948950D01*
X40776975Y-135948950D01*
X40682775Y-136011893D01*
X40440905Y-136173505D01*
X40384222Y-136258337D01*
X39318000Y-137324560D01*
X39318000Y-135483171D01*
X39382700Y-135496040D01*
X40373300Y-135496040D01*
X40621065Y-135446757D01*
X40831109Y-135306409D01*
X40971457Y-135096365D01*
X41020740Y-134848600D01*
X41020740Y-133070600D01*
X40971457Y-132822835D01*
X40831109Y-132612791D01*
X40621065Y-132472443D01*
X40373300Y-132423160D01*
X39382700Y-132423160D01*
X39318000Y-132436029D01*
X39318000Y-123645933D01*
X39567037Y-123812334D01*
X40073120Y-123913000D01*
X41714880Y-123913000D01*
X42220963Y-123812334D01*
X42794865Y-123428865D01*
X43178334Y-122854963D01*
X43312990Y-122178000D01*
X43178334Y-121501037D01*
X42794865Y-120927135D01*
X42585724Y-120787392D01*
X42698641Y-120618400D01*
X42806133Y-120078000D01*
X42698641Y-119537600D01*
X42392529Y-119079471D01*
X42390327Y-119078000D01*
X42392529Y-119076529D01*
X42698641Y-118618400D01*
X42806133Y-118078000D01*
X42698641Y-117537600D01*
X42552441Y-117318796D01*
X42601809Y-117285809D01*
X42742157Y-117075765D01*
X42789053Y-116840000D01*
X44134370Y-116840000D01*
X44196001Y-116901631D01*
X44196000Y-132485095D01*
X44004891Y-132612791D01*
X43864543Y-132822835D01*
X43815260Y-133070600D01*
X43815260Y-133502250D01*
X43800073Y-133578600D01*
X43815260Y-133654950D01*
X43815260Y-134848600D01*
X43864543Y-135096365D01*
X44004891Y-135306409D01*
X44214935Y-135446757D01*
X44462700Y-135496040D01*
X45453300Y-135496040D01*
X45701065Y-135446757D01*
X45911109Y-135306409D01*
X46051457Y-135096365D01*
X46100740Y-134848600D01*
X46100740Y-133070600D01*
X46355260Y-133070600D01*
X46355260Y-134848600D01*
X46404543Y-135096365D01*
X46544891Y-135306409D01*
X46754935Y-135446757D01*
X47002700Y-135496040D01*
X47993300Y-135496040D01*
X48241065Y-135446757D01*
X48451109Y-135306409D01*
X48591457Y-135096365D01*
X48640740Y-134848600D01*
X48640740Y-133070600D01*
X48895260Y-133070600D01*
X48895260Y-134848600D01*
X48944543Y-135096365D01*
X49084891Y-135306409D01*
X49294935Y-135446757D01*
X49542700Y-135496040D01*
X50533300Y-135496040D01*
X50781065Y-135446757D01*
X50991109Y-135306409D01*
X51131457Y-135096365D01*
X51180740Y-134848600D01*
X51180740Y-133070600D01*
X51435260Y-133070600D01*
X51435260Y-134848600D01*
X51484543Y-135096365D01*
X51624891Y-135306409D01*
X51834935Y-135446757D01*
X52082700Y-135496040D01*
X53073300Y-135496040D01*
X53321065Y-135446757D01*
X53531109Y-135306409D01*
X53671457Y-135096365D01*
X53720740Y-134848600D01*
X53720740Y-133070600D01*
X53975260Y-133070600D01*
X53975260Y-134848600D01*
X54024543Y-135096365D01*
X54164891Y-135306409D01*
X54374935Y-135446757D01*
X54622700Y-135496040D01*
X55613300Y-135496040D01*
X55861065Y-135446757D01*
X56071109Y-135306409D01*
X56211457Y-135096365D01*
X56260740Y-134848600D01*
X56260740Y-133500790D01*
X56515260Y-133246270D01*
X56515260Y-134848600D01*
X56564543Y-135096365D01*
X56704891Y-135306409D01*
X56914935Y-135446757D01*
X57162700Y-135496040D01*
X58153300Y-135496040D01*
X58401065Y-135446757D01*
X58611109Y-135306409D01*
X58751457Y-135096365D01*
X58800740Y-134848600D01*
X58800740Y-133070600D01*
X58751457Y-132822835D01*
X58742620Y-132809610D01*
X58964231Y-132588000D01*
X59281993Y-132588000D01*
X59244891Y-132612791D01*
X59104543Y-132822835D01*
X59055260Y-133070600D01*
X59055260Y-134848600D01*
X59104543Y-135096365D01*
X59244891Y-135306409D01*
X59454935Y-135446757D01*
X59702700Y-135496040D01*
X60693300Y-135496040D01*
X60941065Y-135446757D01*
X61151109Y-135306409D01*
X61291457Y-135096365D01*
X61340740Y-134848600D01*
X61340740Y-133096000D01*
X61595260Y-133096000D01*
X61595260Y-134848600D01*
X61644543Y-135096365D01*
X61784891Y-135306409D01*
X61994935Y-135446757D01*
X62242700Y-135496040D01*
X63233300Y-135496040D01*
X63481065Y-135446757D01*
X63691109Y-135306409D01*
X63831457Y-135096365D01*
X63880740Y-134848600D01*
X63880740Y-133604000D01*
X88570957Y-133604000D01*
X88646000Y-133618927D01*
X88671870Y-133613781D01*
X88694126Y-133623000D01*
X89105874Y-133623000D01*
X89486280Y-133465431D01*
X89777431Y-133174280D01*
X89935000Y-132793874D01*
X89935000Y-132382126D01*
X89777431Y-132001720D01*
X89486280Y-131710569D01*
X89153339Y-131572661D01*
X89015431Y-131239720D01*
X88724280Y-130948569D01*
X88391339Y-130810661D01*
X88253431Y-130477720D01*
X87962280Y-130186569D01*
X87629339Y-130048661D01*
X87491431Y-129715720D01*
X87200280Y-129424569D01*
X86819874Y-129267000D01*
X86408126Y-129267000D01*
X86027720Y-129424569D01*
X85736569Y-129715720D01*
X85579000Y-130096126D01*
X85579000Y-130259369D01*
X85282370Y-130556000D01*
X57440947Y-130556000D01*
X57365900Y-130541072D01*
X57290853Y-130556000D01*
X57290852Y-130556000D01*
X57068583Y-130600212D01*
X56816529Y-130768629D01*
X56774018Y-130832251D01*
X55183110Y-132423160D01*
X54622700Y-132423160D01*
X54374935Y-132472443D01*
X54164891Y-132612791D01*
X54024543Y-132822835D01*
X53975260Y-133070600D01*
X53720740Y-133070600D01*
X53671457Y-132822835D01*
X53531109Y-132612791D01*
X53340000Y-132485095D01*
X53340000Y-128318126D01*
X53575000Y-128318126D01*
X53575000Y-128729874D01*
X53732569Y-129110280D01*
X54023720Y-129401431D01*
X54404126Y-129559000D01*
X54815874Y-129559000D01*
X55196280Y-129401431D01*
X55311711Y-129286000D01*
X67488957Y-129286000D01*
X67564000Y-129300927D01*
X67639043Y-129286000D01*
X67639048Y-129286000D01*
X67861317Y-129241788D01*
X68113371Y-129073371D01*
X68155884Y-129009746D01*
X68557746Y-128607884D01*
X68621371Y-128565371D01*
X68789788Y-128313317D01*
X68834000Y-128091048D01*
X68834000Y-128091044D01*
X68848927Y-128016001D01*
X68834000Y-127940958D01*
X68834000Y-127737066D01*
X69166280Y-127599431D01*
X69457431Y-127308280D01*
X69615000Y-126927874D01*
X69615000Y-126516126D01*
X69457431Y-126135720D01*
X69166280Y-125844569D01*
X68785874Y-125687000D01*
X68374126Y-125687000D01*
X67993720Y-125844569D01*
X67702569Y-126135720D01*
X67545000Y-126516126D01*
X67545000Y-126665681D01*
X67522629Y-126680629D01*
X67354212Y-126932684D01*
X67310000Y-127154953D01*
X67310000Y-127154957D01*
X67295073Y-127230000D01*
X67310000Y-127305043D01*
X67310000Y-127700370D01*
X67248370Y-127762000D01*
X55311711Y-127762000D01*
X55196280Y-127646569D01*
X54815874Y-127489000D01*
X54404126Y-127489000D01*
X54023720Y-127646569D01*
X53732569Y-127937720D01*
X53575000Y-128318126D01*
X53340000Y-128318126D01*
X53340000Y-114361630D01*
X53401630Y-114300000D01*
X66472957Y-114300000D01*
X66548000Y-114314927D01*
X66623043Y-114300000D01*
X66623048Y-114300000D01*
X66845317Y-114255788D01*
X67097371Y-114087371D01*
X67139884Y-114023746D01*
X67541747Y-113621883D01*
X67605371Y-113579371D01*
X67773788Y-113327317D01*
X67818000Y-113105048D01*
X67818000Y-113105044D01*
X67832927Y-113030001D01*
X67818000Y-112954958D01*
X67818000Y-111990119D01*
X78740000Y-111990119D01*
X78740000Y-112545881D01*
X78952680Y-113059337D01*
X79345663Y-113452320D01*
X79859119Y-113665000D01*
X80414881Y-113665000D01*
X80928337Y-113452320D01*
X81321320Y-113059337D01*
X81407000Y-112852487D01*
X81492680Y-113059337D01*
X81885663Y-113452320D01*
X82399119Y-113665000D01*
X82954881Y-113665000D01*
X83468337Y-113452320D01*
X83861320Y-113059337D01*
X84074000Y-112545881D01*
X84074000Y-111990119D01*
X91821000Y-111990119D01*
X91821000Y-112545881D01*
X92033680Y-113059337D01*
X92426663Y-113452320D01*
X92940119Y-113665000D01*
X93495881Y-113665000D01*
X94009337Y-113452320D01*
X94402320Y-113059337D01*
X94488000Y-112852487D01*
X94573680Y-113059337D01*
X94966663Y-113452320D01*
X95480119Y-113665000D01*
X96035881Y-113665000D01*
X96549337Y-113452320D01*
X96942320Y-113059337D01*
X97155000Y-112545881D01*
X97155000Y-111990119D01*
X96942320Y-111476663D01*
X96549337Y-111083680D01*
X96035881Y-110871000D01*
X95480119Y-110871000D01*
X94966663Y-111083680D01*
X94573680Y-111476663D01*
X94488000Y-111683513D01*
X94402320Y-111476663D01*
X94009337Y-111083680D01*
X93495881Y-110871000D01*
X92940119Y-110871000D01*
X92426663Y-111083680D01*
X92033680Y-111476663D01*
X91821000Y-111990119D01*
X84074000Y-111990119D01*
X83861320Y-111476663D01*
X83468337Y-111083680D01*
X82954881Y-110871000D01*
X82399119Y-110871000D01*
X81885663Y-111083680D01*
X81492680Y-111476663D01*
X81407000Y-111683513D01*
X81321320Y-111476663D01*
X80928337Y-111083680D01*
X80414881Y-110871000D01*
X79859119Y-110871000D01*
X79345663Y-111083680D01*
X78952680Y-111476663D01*
X78740000Y-111990119D01*
X67818000Y-111990119D01*
X67818000Y-111735066D01*
X68150280Y-111597431D01*
X68441431Y-111306280D01*
X68599000Y-110925874D01*
X68599000Y-110514126D01*
X68441431Y-110133720D01*
X68150280Y-109842569D01*
X67769874Y-109685000D01*
X67358126Y-109685000D01*
X66977720Y-109842569D01*
X66686569Y-110133720D01*
X66529000Y-110514126D01*
X66529000Y-110663682D01*
X66506630Y-110678629D01*
X66464119Y-110742251D01*
X66464118Y-110742252D01*
X66338213Y-110930683D01*
X66279073Y-111228000D01*
X66294001Y-111303048D01*
X66294000Y-112714370D01*
X66232370Y-112776000D01*
X53161042Y-112776000D01*
X53085999Y-112761073D01*
X53010956Y-112776000D01*
X53010952Y-112776000D01*
X52788683Y-112820212D01*
X52788682Y-112820213D01*
X52788681Y-112820213D01*
X52734641Y-112856322D01*
X52536629Y-112988629D01*
X52494116Y-113052254D01*
X52092252Y-113454118D01*
X52028630Y-113496629D01*
X51986119Y-113560251D01*
X51986118Y-113560252D01*
X51860213Y-113748683D01*
X51801073Y-114046000D01*
X51816001Y-114121048D01*
X51816000Y-132485095D01*
X51624891Y-132612791D01*
X51484543Y-132822835D01*
X51435260Y-133070600D01*
X51180740Y-133070600D01*
X51131457Y-132822835D01*
X50991109Y-132612791D01*
X50800000Y-132485095D01*
X50800000Y-127761066D01*
X51132280Y-127623431D01*
X51423431Y-127332280D01*
X51581000Y-126951874D01*
X51581000Y-126540126D01*
X51423431Y-126159720D01*
X51132280Y-125868569D01*
X50751874Y-125711000D01*
X50340126Y-125711000D01*
X49959720Y-125868569D01*
X49668569Y-126159720D01*
X49511000Y-126540126D01*
X49511000Y-126689682D01*
X49488630Y-126704629D01*
X49446119Y-126768251D01*
X49446118Y-126768252D01*
X49320213Y-126956683D01*
X49261073Y-127254000D01*
X49276001Y-127329048D01*
X49276000Y-132485095D01*
X49084891Y-132612791D01*
X48944543Y-132822835D01*
X48895260Y-133070600D01*
X48640740Y-133070600D01*
X48591457Y-132822835D01*
X48451109Y-132612791D01*
X48260000Y-132485095D01*
X48260000Y-111759066D01*
X48592280Y-111621431D01*
X48883431Y-111330280D01*
X49041000Y-110949874D01*
X49041000Y-110538126D01*
X48883431Y-110157720D01*
X48592280Y-109866569D01*
X48211874Y-109709000D01*
X47800126Y-109709000D01*
X47419720Y-109866569D01*
X47128569Y-110157720D01*
X46971000Y-110538126D01*
X46971000Y-110687682D01*
X46948630Y-110702629D01*
X46906119Y-110766251D01*
X46906118Y-110766252D01*
X46780213Y-110954683D01*
X46721073Y-111252000D01*
X46736001Y-111327048D01*
X46736000Y-132485095D01*
X46544891Y-132612791D01*
X46404543Y-132822835D01*
X46355260Y-133070600D01*
X46100740Y-133070600D01*
X46051457Y-132822835D01*
X45911109Y-132612791D01*
X45720000Y-132485095D01*
X45720000Y-116661042D01*
X45734927Y-116585999D01*
X45720000Y-116510956D01*
X45720000Y-116510952D01*
X45675788Y-116288683D01*
X45507371Y-116036629D01*
X45443746Y-115994116D01*
X45041884Y-115592254D01*
X44999371Y-115528629D01*
X44747317Y-115360212D01*
X44525048Y-115316000D01*
X44525043Y-115316000D01*
X44450000Y-115301073D01*
X44374957Y-115316000D01*
X42789053Y-115316000D01*
X42774436Y-115242515D01*
X42794865Y-115228865D01*
X43178334Y-114654963D01*
X43312990Y-113978000D01*
X43178334Y-113301037D01*
X42794865Y-112727135D01*
X42220963Y-112343666D01*
X41714880Y-112243000D01*
X40073120Y-112243000D01*
X39567037Y-112343666D01*
X39318000Y-112510067D01*
X39318000Y-102791126D01*
X105264000Y-102791126D01*
X105264000Y-103202874D01*
X105421569Y-103583280D01*
X105712720Y-103874431D01*
X106093126Y-104032000D01*
X106504874Y-104032000D01*
X106885280Y-103874431D01*
X107000711Y-103759000D01*
X109920370Y-103759000D01*
X110236001Y-104074632D01*
X110236000Y-125297047D01*
X110236001Y-125297051D01*
X110236000Y-126313047D01*
X110236001Y-126313052D01*
X110236000Y-132485095D01*
X110044891Y-132612791D01*
X109904543Y-132822835D01*
X109855260Y-133070600D01*
X109855260Y-134848600D01*
X109904543Y-135096365D01*
X110044891Y-135306409D01*
X110254935Y-135446757D01*
X110502700Y-135496040D01*
X111493300Y-135496040D01*
X111741065Y-135446757D01*
X111951109Y-135306409D01*
X112091457Y-135096365D01*
X112140740Y-134848600D01*
X112140740Y-133070600D01*
X112395260Y-133070600D01*
X112395260Y-134848600D01*
X112444543Y-135096365D01*
X112584891Y-135306409D01*
X112794935Y-135446757D01*
X113042700Y-135496040D01*
X114033300Y-135496040D01*
X114281065Y-135446757D01*
X114491109Y-135306409D01*
X114631457Y-135096365D01*
X114680740Y-134848600D01*
X114680740Y-133070600D01*
X114935260Y-133070600D01*
X114935260Y-134848600D01*
X114984543Y-135096365D01*
X115124891Y-135306409D01*
X115334935Y-135446757D01*
X115582700Y-135496040D01*
X116573300Y-135496040D01*
X116821065Y-135446757D01*
X117031109Y-135306409D01*
X117171457Y-135096365D01*
X117220740Y-134848600D01*
X117220740Y-133070600D01*
X117175269Y-132842000D01*
X117520731Y-132842000D01*
X117475260Y-133070600D01*
X117475260Y-134848600D01*
X117524543Y-135096365D01*
X117664891Y-135306409D01*
X117874935Y-135446757D01*
X118122700Y-135496040D01*
X119113300Y-135496040D01*
X119361065Y-135446757D01*
X119571109Y-135306409D01*
X119711457Y-135096365D01*
X119760740Y-134848600D01*
X119760740Y-133070600D01*
X119711457Y-132822835D01*
X119571109Y-132612791D01*
X119361065Y-132472443D01*
X119295819Y-132459465D01*
X119226854Y-132356252D01*
X119211986Y-132334000D01*
X120207370Y-132334000D01*
X120373499Y-132500130D01*
X120204891Y-132612791D01*
X120064543Y-132822835D01*
X120015260Y-133070600D01*
X120015260Y-134848600D01*
X120064543Y-135096365D01*
X120204891Y-135306409D01*
X120414935Y-135446757D01*
X120662700Y-135496040D01*
X121653300Y-135496040D01*
X121901065Y-135446757D01*
X122111109Y-135306409D01*
X122251457Y-135096365D01*
X122300740Y-134848600D01*
X122300740Y-133070600D01*
X122251457Y-132822835D01*
X122111109Y-132612791D01*
X121920000Y-132485095D01*
X121920000Y-132282047D01*
X121934928Y-132207000D01*
X121920000Y-132131952D01*
X121875788Y-131909683D01*
X121735014Y-131699000D01*
X122747370Y-131699000D01*
X122936001Y-131887631D01*
X122936001Y-132485095D01*
X122744891Y-132612791D01*
X122604543Y-132822835D01*
X122555260Y-133070600D01*
X122555260Y-134848600D01*
X122604543Y-135096365D01*
X122744891Y-135306409D01*
X122954935Y-135446757D01*
X123202700Y-135496040D01*
X124193300Y-135496040D01*
X124441065Y-135446757D01*
X124651109Y-135306409D01*
X124791457Y-135096365D01*
X124840740Y-134848600D01*
X124840740Y-133070600D01*
X124791457Y-132822835D01*
X124651109Y-132612791D01*
X124460000Y-132485095D01*
X124460000Y-131647047D01*
X124474928Y-131572000D01*
X124449666Y-131445000D01*
X124415788Y-131274683D01*
X124275014Y-131064000D01*
X125287370Y-131064000D01*
X125476001Y-131252632D01*
X125476000Y-132485095D01*
X125284891Y-132612791D01*
X125144543Y-132822835D01*
X125095260Y-133070600D01*
X125095260Y-134848600D01*
X125144543Y-135096365D01*
X125284891Y-135306409D01*
X125494935Y-135446757D01*
X125742700Y-135496040D01*
X126733300Y-135496040D01*
X126981065Y-135446757D01*
X127191109Y-135306409D01*
X127331457Y-135096365D01*
X127380740Y-134848600D01*
X127380740Y-133070600D01*
X127331457Y-132822835D01*
X127191109Y-132612791D01*
X127000000Y-132485095D01*
X127000000Y-131012047D01*
X127014928Y-130937000D01*
X126999239Y-130858126D01*
X126955788Y-130639683D01*
X126843825Y-130472118D01*
X126829882Y-130451251D01*
X126787371Y-130387629D01*
X126723749Y-130345118D01*
X126194883Y-129816253D01*
X126152371Y-129752629D01*
X125900317Y-129584212D01*
X125678048Y-129540000D01*
X125678043Y-129540000D01*
X125603000Y-129525073D01*
X125527957Y-129540000D01*
X119380000Y-129540000D01*
X119380000Y-121859711D01*
X119495431Y-121744280D01*
X119653000Y-121363874D01*
X119653000Y-120952126D01*
X119495431Y-120571720D01*
X119204280Y-120280569D01*
X118823874Y-120123000D01*
X118412126Y-120123000D01*
X118031720Y-120280569D01*
X117740569Y-120571720D01*
X117583000Y-120952126D01*
X117583000Y-121363874D01*
X117740569Y-121744280D01*
X117856000Y-121859711D01*
X117856000Y-123171000D01*
X117650126Y-123171000D01*
X117269720Y-123328569D01*
X116978569Y-123619720D01*
X116821000Y-124000126D01*
X116821000Y-124411874D01*
X116978569Y-124792280D01*
X117094001Y-124907712D01*
X117094001Y-126219000D01*
X116888126Y-126219000D01*
X116507720Y-126376569D01*
X116216569Y-126667720D01*
X116059000Y-127048126D01*
X116059000Y-127459874D01*
X116216569Y-127840280D01*
X116332001Y-127955712D01*
X116332000Y-129234047D01*
X116332001Y-129234052D01*
X116332001Y-129267000D01*
X116126126Y-129267000D01*
X115745720Y-129424569D01*
X115454569Y-129715720D01*
X115297000Y-130096126D01*
X115297000Y-130507874D01*
X115454569Y-130888280D01*
X115570000Y-131003711D01*
X115570000Y-131369956D01*
X115555073Y-131445000D01*
X115570000Y-131520043D01*
X115570000Y-131520047D01*
X115614212Y-131742316D01*
X115782629Y-131994371D01*
X115846253Y-132036883D01*
X116232529Y-132423160D01*
X115582700Y-132423160D01*
X115334935Y-132472443D01*
X115124891Y-132612791D01*
X114984543Y-132822835D01*
X114935260Y-133070600D01*
X114680740Y-133070600D01*
X114631457Y-132822835D01*
X114491109Y-132612791D01*
X114300000Y-132485095D01*
X114300000Y-102296630D01*
X114375630Y-102221000D01*
X122982289Y-102221000D01*
X123097720Y-102336431D01*
X123478126Y-102494000D01*
X123889874Y-102494000D01*
X124270280Y-102336431D01*
X124561431Y-102045280D01*
X124719000Y-101664874D01*
X124719000Y-101253126D01*
X124561431Y-100872720D01*
X124270280Y-100581569D01*
X123889874Y-100424000D01*
X123478126Y-100424000D01*
X123097720Y-100581569D01*
X122982289Y-100697000D01*
X114135042Y-100697000D01*
X114059999Y-100682073D01*
X113984956Y-100697000D01*
X113984952Y-100697000D01*
X113762683Y-100741212D01*
X113762682Y-100741213D01*
X113762681Y-100741213D01*
X113708641Y-100777322D01*
X113510629Y-100909629D01*
X113468116Y-100973254D01*
X113052252Y-101389118D01*
X112988630Y-101431629D01*
X112946119Y-101495251D01*
X112946118Y-101495252D01*
X112820213Y-101683683D01*
X112761073Y-101981000D01*
X112776001Y-102056048D01*
X112776000Y-132485095D01*
X112584891Y-132612791D01*
X112444543Y-132822835D01*
X112395260Y-133070600D01*
X112140740Y-133070600D01*
X112091457Y-132822835D01*
X111951109Y-132612791D01*
X111760000Y-132485095D01*
X111760000Y-103834047D01*
X111774928Y-103759000D01*
X111732633Y-103546371D01*
X111715788Y-103461683D01*
X111547371Y-103209629D01*
X111483749Y-103167118D01*
X110827883Y-102511253D01*
X110785371Y-102447629D01*
X110533317Y-102279212D01*
X110311048Y-102235000D01*
X110311043Y-102235000D01*
X110236000Y-102220073D01*
X110160957Y-102235000D01*
X107000711Y-102235000D01*
X106885280Y-102119569D01*
X106504874Y-101962000D01*
X106093126Y-101962000D01*
X105712720Y-102119569D01*
X105421569Y-102410720D01*
X105264000Y-102791126D01*
X39318000Y-102791126D01*
X39318000Y-101267126D01*
X48876000Y-101267126D01*
X48876000Y-101678874D01*
X49033569Y-102059280D01*
X49324720Y-102350431D01*
X49705126Y-102508000D01*
X50116874Y-102508000D01*
X50497280Y-102350431D01*
X50788431Y-102059280D01*
X50946000Y-101678874D01*
X50946000Y-101267126D01*
X50788431Y-100886720D01*
X50497280Y-100595569D01*
X50116874Y-100438000D01*
X49705126Y-100438000D01*
X49324720Y-100595569D01*
X49033569Y-100886720D01*
X48876000Y-101267126D01*
X39318000Y-101267126D01*
X39318000Y-98195971D01*
X39382700Y-98208840D01*
X40373300Y-98208840D01*
X40386000Y-98206314D01*
X40386000Y-99238957D01*
X40371073Y-99314000D01*
X40386000Y-99389043D01*
X40386000Y-99389047D01*
X40430212Y-99611316D01*
X40598629Y-99863371D01*
X40662254Y-99905884D01*
X41064116Y-100307746D01*
X41106629Y-100371371D01*
X41304641Y-100503678D01*
X41358681Y-100539787D01*
X41358682Y-100539787D01*
X41358683Y-100539788D01*
X41580952Y-100584000D01*
X41580956Y-100584000D01*
X41655999Y-100598927D01*
X41731042Y-100584000D01*
X44374957Y-100584000D01*
X44450000Y-100598927D01*
X44525043Y-100584000D01*
X44525048Y-100584000D01*
X44747317Y-100539788D01*
X44999371Y-100371371D01*
X45041884Y-100307746D01*
X45443746Y-99905884D01*
X45507371Y-99863371D01*
X45675788Y-99611317D01*
X45720000Y-99389048D01*
X45720000Y-99389044D01*
X45734927Y-99314001D01*
X45720000Y-99238958D01*
X45720000Y-98146905D01*
X45911109Y-98019209D01*
X46051457Y-97809165D01*
X46100740Y-97561400D01*
X46100740Y-95850000D01*
X46355260Y-95850000D01*
X46355260Y-97561400D01*
X46404543Y-97809165D01*
X46544891Y-98019209D01*
X46754935Y-98159557D01*
X46839755Y-98176429D01*
X46948630Y-98339371D01*
X47012252Y-98381882D01*
X47414116Y-98783746D01*
X47456629Y-98847371D01*
X47654641Y-98979678D01*
X47708681Y-99015787D01*
X47708682Y-99015787D01*
X47708683Y-99015788D01*
X47930952Y-99060000D01*
X47930956Y-99060000D01*
X48005999Y-99074927D01*
X48081042Y-99060000D01*
X60884957Y-99060000D01*
X60960000Y-99074927D01*
X61035043Y-99060000D01*
X61035048Y-99060000D01*
X61257317Y-99015788D01*
X61509371Y-98847371D01*
X61551884Y-98783746D01*
X61953747Y-98381883D01*
X62017371Y-98339371D01*
X62120792Y-98184591D01*
X62242700Y-98208840D01*
X63233300Y-98208840D01*
X63481065Y-98159557D01*
X63691109Y-98019209D01*
X63831457Y-97809165D01*
X63880740Y-97561400D01*
X63880740Y-96266000D01*
X65767000Y-96266000D01*
X65767000Y-96436874D01*
X65924569Y-96817280D01*
X66040001Y-96932712D01*
X66040000Y-100762957D01*
X66025073Y-100838000D01*
X66040000Y-100913043D01*
X66040000Y-100913047D01*
X66084212Y-101135316D01*
X66252629Y-101387371D01*
X66316253Y-101429883D01*
X66845118Y-101958749D01*
X66887629Y-102022371D01*
X67139683Y-102190788D01*
X67361952Y-102235000D01*
X67361953Y-102235000D01*
X67437000Y-102249928D01*
X67512047Y-102235000D01*
X70672289Y-102235000D01*
X70787720Y-102350431D01*
X71168126Y-102508000D01*
X71579874Y-102508000D01*
X71960280Y-102350431D01*
X72251431Y-102059280D01*
X72409000Y-101678874D01*
X72409000Y-101267126D01*
X72251431Y-100886720D01*
X71960280Y-100595569D01*
X71579874Y-100438000D01*
X71168126Y-100438000D01*
X70787720Y-100595569D01*
X70672289Y-100711000D01*
X67752631Y-100711000D01*
X67564000Y-100522370D01*
X67564000Y-96932711D01*
X67679431Y-96817280D01*
X67837000Y-96436874D01*
X67837000Y-96266000D01*
X83490957Y-96266000D01*
X83566000Y-96280927D01*
X83641043Y-96266000D01*
X83641048Y-96266000D01*
X83863317Y-96221788D01*
X84115371Y-96053371D01*
X84157883Y-95989747D01*
X84370630Y-95777000D01*
X84533874Y-95777000D01*
X84914280Y-95619431D01*
X85205431Y-95328280D01*
X85363000Y-94947874D01*
X85363000Y-94536126D01*
X85205431Y-94155720D01*
X84914280Y-93864569D01*
X84533874Y-93707000D01*
X84122126Y-93707000D01*
X83741720Y-93864569D01*
X83450569Y-94155720D01*
X83293000Y-94536126D01*
X83293000Y-94699370D01*
X83250370Y-94742000D01*
X79521000Y-94742000D01*
X79521000Y-94536126D01*
X79363431Y-94155720D01*
X79072280Y-93864569D01*
X78691874Y-93707000D01*
X78280126Y-93707000D01*
X77899720Y-93864569D01*
X77608569Y-94155720D01*
X77576144Y-94234000D01*
X67622802Y-94234000D01*
X67308000Y-93919199D01*
X67308000Y-89857711D01*
X67425431Y-89740280D01*
X67583000Y-89359874D01*
X67583000Y-88948126D01*
X92437000Y-88948126D01*
X92437000Y-89359874D01*
X92594569Y-89740280D01*
X92712001Y-89857712D01*
X92712000Y-95810153D01*
X92697112Y-95885000D01*
X92712000Y-95959847D01*
X92712000Y-95959851D01*
X92756096Y-96181536D01*
X92924071Y-96432929D01*
X92987530Y-96475331D01*
X93669071Y-97156873D01*
X93711471Y-97220329D01*
X93774927Y-97262729D01*
X93962862Y-97388304D01*
X93972334Y-97390188D01*
X94184548Y-97432400D01*
X94184552Y-97432400D01*
X94259400Y-97447288D01*
X94334248Y-97432400D01*
X95825297Y-97432400D01*
X95835352Y-97434400D01*
X102235260Y-97434400D01*
X102235260Y-97561400D01*
X102284543Y-97809165D01*
X102424891Y-98019209D01*
X102634935Y-98159557D01*
X102882700Y-98208840D01*
X103873300Y-98208840D01*
X104121065Y-98159557D01*
X104331109Y-98019209D01*
X104471457Y-97809165D01*
X104520740Y-97561400D01*
X104520740Y-96031000D01*
X104726874Y-96031000D01*
X104775260Y-96010958D01*
X104775260Y-97561400D01*
X104824543Y-97809165D01*
X104964891Y-98019209D01*
X105174935Y-98159557D01*
X105422700Y-98208840D01*
X106413300Y-98208840D01*
X106661065Y-98159557D01*
X106871109Y-98019209D01*
X107011457Y-97809165D01*
X107060740Y-97561400D01*
X107060740Y-95783400D01*
X107030426Y-95631000D01*
X107345574Y-95631000D01*
X107315260Y-95783400D01*
X107315260Y-97561400D01*
X107364543Y-97809165D01*
X107504891Y-98019209D01*
X107714935Y-98159557D01*
X107962700Y-98208840D01*
X108953300Y-98208840D01*
X109201065Y-98159557D01*
X109411109Y-98019209D01*
X109551457Y-97809165D01*
X109600740Y-97561400D01*
X109600740Y-95783400D01*
X109570426Y-95631000D01*
X109885574Y-95631000D01*
X109855260Y-95783400D01*
X109855260Y-97561400D01*
X109904543Y-97809165D01*
X110044891Y-98019209D01*
X110254935Y-98159557D01*
X110502700Y-98208840D01*
X111493300Y-98208840D01*
X111741065Y-98159557D01*
X111951109Y-98019209D01*
X112091457Y-97809165D01*
X112140740Y-97561400D01*
X112140740Y-95783400D01*
X112110426Y-95631000D01*
X112425574Y-95631000D01*
X112395260Y-95783400D01*
X112395260Y-97561400D01*
X112444543Y-97809165D01*
X112584891Y-98019209D01*
X112794935Y-98159557D01*
X113042700Y-98208840D01*
X114033300Y-98208840D01*
X114281065Y-98159557D01*
X114491109Y-98019209D01*
X114631457Y-97809165D01*
X114680740Y-97561400D01*
X114680740Y-95783400D01*
X114650426Y-95631000D01*
X114965574Y-95631000D01*
X114935260Y-95783400D01*
X114935260Y-97561400D01*
X114984543Y-97809165D01*
X115124891Y-98019209D01*
X115334935Y-98159557D01*
X115582700Y-98208840D01*
X116573300Y-98208840D01*
X116821065Y-98159557D01*
X117031109Y-98019209D01*
X117171457Y-97809165D01*
X117220740Y-97561400D01*
X117220740Y-95783400D01*
X117190426Y-95631000D01*
X117505574Y-95631000D01*
X117475260Y-95783400D01*
X117475260Y-97561400D01*
X117524543Y-97809165D01*
X117664891Y-98019209D01*
X117874935Y-98159557D01*
X118122700Y-98208840D01*
X119113300Y-98208840D01*
X119361065Y-98159557D01*
X119571109Y-98019209D01*
X119711457Y-97809165D01*
X119760740Y-97561400D01*
X119760740Y-95783400D01*
X119730426Y-95631000D01*
X120045574Y-95631000D01*
X120015260Y-95783400D01*
X120015260Y-97561400D01*
X120064543Y-97809165D01*
X120204891Y-98019209D01*
X120414935Y-98159557D01*
X120662700Y-98208840D01*
X121653300Y-98208840D01*
X121901065Y-98159557D01*
X122111109Y-98019209D01*
X122251457Y-97809165D01*
X122300740Y-97561400D01*
X122300740Y-95783400D01*
X122270426Y-95631000D01*
X122585574Y-95631000D01*
X122555260Y-95783400D01*
X122555260Y-97561400D01*
X122604543Y-97809165D01*
X122744891Y-98019209D01*
X122954935Y-98159557D01*
X123202700Y-98208840D01*
X124193300Y-98208840D01*
X124441065Y-98159557D01*
X124651109Y-98019209D01*
X124791457Y-97809165D01*
X124840740Y-97561400D01*
X124840740Y-95783400D01*
X124810426Y-95631000D01*
X125125574Y-95631000D01*
X125095260Y-95783400D01*
X125095260Y-97561400D01*
X125144543Y-97809165D01*
X125284891Y-98019209D01*
X125494935Y-98159557D01*
X125742700Y-98208840D01*
X126733300Y-98208840D01*
X126981065Y-98159557D01*
X127191109Y-98019209D01*
X127331457Y-97809165D01*
X127380740Y-97561400D01*
X127380740Y-95783400D01*
X127350426Y-95631000D01*
X131251289Y-95631000D01*
X131366720Y-95746431D01*
X131747126Y-95904000D01*
X132158874Y-95904000D01*
X132539280Y-95746431D01*
X132830431Y-95455280D01*
X132988000Y-95074874D01*
X132988000Y-94663126D01*
X132830431Y-94282720D01*
X132539280Y-93991569D01*
X132158874Y-93834000D01*
X131747126Y-93834000D01*
X131366720Y-93991569D01*
X131251289Y-94107000D01*
X125669711Y-94107000D01*
X125718431Y-94058280D01*
X125876000Y-93677874D01*
X125876000Y-93266126D01*
X125718431Y-92885720D01*
X125427280Y-92594569D01*
X125046874Y-92437000D01*
X124635126Y-92437000D01*
X124460000Y-92509539D01*
X124460000Y-92254105D01*
X124651109Y-92126409D01*
X124791457Y-91916365D01*
X124840740Y-91668600D01*
X124840740Y-89890600D01*
X125095260Y-89890600D01*
X125095260Y-91668600D01*
X125144543Y-91916365D01*
X125284891Y-92126409D01*
X125494935Y-92266757D01*
X125742700Y-92316040D01*
X126733300Y-92316040D01*
X126981065Y-92266757D01*
X127191109Y-92126409D01*
X127331457Y-91916365D01*
X127380740Y-91668600D01*
X127380740Y-91528900D01*
X138330270Y-91528900D01*
X138557000Y-91755631D01*
X138557001Y-92770288D01*
X138441569Y-92885720D01*
X138284000Y-93266126D01*
X138284000Y-93677874D01*
X138441569Y-94058280D01*
X138732720Y-94349431D01*
X139113126Y-94507000D01*
X139524874Y-94507000D01*
X139905280Y-94349431D01*
X140196431Y-94058280D01*
X140354000Y-93677874D01*
X140354000Y-93266126D01*
X140196431Y-92885720D01*
X140081000Y-92770289D01*
X140081000Y-91515042D01*
X140095927Y-91439999D01*
X140081000Y-91364956D01*
X140081000Y-91364952D01*
X140036788Y-91142683D01*
X139868371Y-90890629D01*
X139804750Y-90848119D01*
X139237783Y-90281153D01*
X139195271Y-90217529D01*
X138943217Y-90049112D01*
X138720948Y-90004900D01*
X138720943Y-90004900D01*
X138645900Y-89989973D01*
X138570857Y-90004900D01*
X127380740Y-90004900D01*
X127380740Y-89890600D01*
X127331457Y-89642835D01*
X127191109Y-89432791D01*
X126981065Y-89292443D01*
X126733300Y-89243160D01*
X125742700Y-89243160D01*
X125494935Y-89292443D01*
X125284891Y-89432791D01*
X125144543Y-89642835D01*
X125095260Y-89890600D01*
X124840740Y-89890600D01*
X124791457Y-89642835D01*
X124651109Y-89432791D01*
X124441065Y-89292443D01*
X124193300Y-89243160D01*
X123202700Y-89243160D01*
X122954935Y-89292443D01*
X122744891Y-89432791D01*
X122604543Y-89642835D01*
X122555260Y-89890600D01*
X122555260Y-91668600D01*
X122604543Y-91916365D01*
X122744891Y-92126409D01*
X122936001Y-92254105D01*
X122936001Y-92888952D01*
X122921073Y-92964000D01*
X122980213Y-93261317D01*
X123103483Y-93445803D01*
X123148630Y-93513371D01*
X123212252Y-93555882D01*
X123614116Y-93957746D01*
X123656629Y-94021371D01*
X123784782Y-94107000D01*
X121216802Y-94107000D01*
X120902000Y-93792199D01*
X120902000Y-93597237D01*
X120952126Y-93618000D01*
X121363874Y-93618000D01*
X121744280Y-93460431D01*
X122035431Y-93169280D01*
X122193000Y-92788874D01*
X122193000Y-92377126D01*
X122093910Y-92137901D01*
X122111109Y-92126409D01*
X122251457Y-91916365D01*
X122300740Y-91668600D01*
X122300740Y-89890600D01*
X122251457Y-89642835D01*
X122111109Y-89432791D01*
X121901065Y-89292443D01*
X121653300Y-89243160D01*
X121172739Y-89243160D01*
X121177000Y-89232874D01*
X121177000Y-88821126D01*
X121019431Y-88440720D01*
X120728280Y-88149569D01*
X120347874Y-87992000D01*
X119936126Y-87992000D01*
X119555720Y-88149569D01*
X119264569Y-88440720D01*
X119107000Y-88821126D01*
X119107000Y-89046890D01*
X119103749Y-89044718D01*
X118600283Y-88541253D01*
X118557771Y-88477629D01*
X118305717Y-88309212D01*
X118083448Y-88265000D01*
X118083443Y-88265000D01*
X118008400Y-88250073D01*
X117933357Y-88265000D01*
X101675042Y-88265000D01*
X101599999Y-88250073D01*
X101524956Y-88265000D01*
X101524952Y-88265000D01*
X101302683Y-88309212D01*
X101302682Y-88309213D01*
X101302681Y-88309213D01*
X101299863Y-88311096D01*
X101050629Y-88477629D01*
X101008116Y-88541254D01*
X100606254Y-88943116D01*
X100542629Y-88985629D01*
X100374212Y-89237684D01*
X100330000Y-89459953D01*
X100330000Y-89459957D01*
X100315073Y-89535000D01*
X100330000Y-89610043D01*
X100330001Y-92770288D01*
X100214569Y-92885720D01*
X100057000Y-93266126D01*
X100057000Y-93677874D01*
X100214569Y-94058280D01*
X100505720Y-94349431D01*
X100886126Y-94507000D01*
X101297874Y-94507000D01*
X101678280Y-94349431D01*
X101969431Y-94058280D01*
X102127000Y-93677874D01*
X102127000Y-93266126D01*
X101969431Y-92885720D01*
X101854000Y-92770289D01*
X101854000Y-89850630D01*
X101915630Y-89789000D01*
X104795469Y-89789000D01*
X104775260Y-89890600D01*
X104775260Y-91668600D01*
X104824543Y-91916365D01*
X104964891Y-92126409D01*
X105174935Y-92266757D01*
X105422700Y-92316040D01*
X106413300Y-92316040D01*
X106661065Y-92266757D01*
X106871109Y-92126409D01*
X107011457Y-91916365D01*
X107060740Y-91668600D01*
X107060740Y-89890600D01*
X107040531Y-89789000D01*
X107335469Y-89789000D01*
X107315260Y-89890600D01*
X107315260Y-91668600D01*
X107364543Y-91916365D01*
X107504891Y-92126409D01*
X107714935Y-92266757D01*
X107962700Y-92316040D01*
X108953300Y-92316040D01*
X109201065Y-92266757D01*
X109411109Y-92126409D01*
X109551457Y-91916365D01*
X109600740Y-91668600D01*
X109600740Y-89890600D01*
X109580531Y-89789000D01*
X109875469Y-89789000D01*
X109855260Y-89890600D01*
X109855260Y-91668600D01*
X109904543Y-91916365D01*
X110044891Y-92126409D01*
X110254935Y-92266757D01*
X110502700Y-92316040D01*
X111493300Y-92316040D01*
X111741065Y-92266757D01*
X111951109Y-92126409D01*
X112091457Y-91916365D01*
X112140740Y-91668600D01*
X112140740Y-89890600D01*
X112120531Y-89789000D01*
X112415469Y-89789000D01*
X112395260Y-89890600D01*
X112395260Y-91668600D01*
X112444543Y-91916365D01*
X112584891Y-92126409D01*
X112794935Y-92266757D01*
X113042700Y-92316040D01*
X114033300Y-92316040D01*
X114281065Y-92266757D01*
X114491109Y-92126409D01*
X114631457Y-91916365D01*
X114680740Y-91668600D01*
X114680740Y-89890600D01*
X114660531Y-89789000D01*
X114955469Y-89789000D01*
X114935260Y-89890600D01*
X114935260Y-91668600D01*
X114984543Y-91916365D01*
X115124891Y-92126409D01*
X115334935Y-92266757D01*
X115582700Y-92316040D01*
X116573300Y-92316040D01*
X116821065Y-92266757D01*
X117031109Y-92126409D01*
X117171457Y-91916365D01*
X117220740Y-91668600D01*
X117220740Y-89890600D01*
X117200531Y-89789000D01*
X117495469Y-89789000D01*
X117475260Y-89890600D01*
X117475260Y-91668600D01*
X117524543Y-91916365D01*
X117664891Y-92126409D01*
X117874935Y-92266757D01*
X118122700Y-92316040D01*
X119113300Y-92316040D01*
X119361065Y-92266757D01*
X119382000Y-92252768D01*
X119382000Y-94032153D01*
X119367112Y-94107000D01*
X106653447Y-94107000D01*
X106578400Y-94092072D01*
X106503353Y-94107000D01*
X106503352Y-94107000D01*
X106281083Y-94151212D01*
X106029029Y-94319629D01*
X105986518Y-94383251D01*
X105556000Y-94813770D01*
X105556000Y-94790126D01*
X105398431Y-94409720D01*
X105107280Y-94118569D01*
X104726874Y-93961000D01*
X104315126Y-93961000D01*
X103934720Y-94118569D01*
X103815052Y-94238237D01*
X103614083Y-94278212D01*
X103362029Y-94446629D01*
X103319518Y-94510251D01*
X102892251Y-94937519D01*
X102828630Y-94980029D01*
X102786119Y-95043651D01*
X102786118Y-95043652D01*
X102700182Y-95172265D01*
X102634935Y-95185243D01*
X102424891Y-95325591D01*
X102284543Y-95535635D01*
X102235260Y-95783400D01*
X102235260Y-95910400D01*
X95835352Y-95910400D01*
X95825297Y-95912400D01*
X94574202Y-95912400D01*
X94232000Y-95570199D01*
X94232000Y-89857711D01*
X94349431Y-89740280D01*
X94507000Y-89359874D01*
X94507000Y-88948126D01*
X94349431Y-88567720D01*
X94058280Y-88276569D01*
X93677874Y-88119000D01*
X93266126Y-88119000D01*
X92885720Y-88276569D01*
X92594569Y-88567720D01*
X92437000Y-88948126D01*
X67583000Y-88948126D01*
X67425431Y-88567720D01*
X67134280Y-88276569D01*
X66753874Y-88119000D01*
X66342126Y-88119000D01*
X65961720Y-88276569D01*
X65670569Y-88567720D01*
X65513000Y-88948126D01*
X65513000Y-89359874D01*
X65670569Y-89740280D01*
X65788001Y-89857712D01*
X65788000Y-94159153D01*
X65773112Y-94234000D01*
X62051042Y-94234000D01*
X61975999Y-94219073D01*
X61900956Y-94234000D01*
X61900952Y-94234000D01*
X61678683Y-94278212D01*
X61678682Y-94278213D01*
X61678681Y-94278213D01*
X61624641Y-94314322D01*
X61426629Y-94446629D01*
X61384116Y-94510254D01*
X60982252Y-94912118D01*
X60918630Y-94954629D01*
X60876119Y-95018251D01*
X60876118Y-95018252D01*
X60785248Y-95154249D01*
X60693300Y-95135960D01*
X59702700Y-95135960D01*
X59454935Y-95185243D01*
X59244891Y-95325591D01*
X59104543Y-95535635D01*
X59055260Y-95783400D01*
X59055260Y-97536000D01*
X58800740Y-97536000D01*
X58800740Y-95783400D01*
X58751457Y-95535635D01*
X58742620Y-95522410D01*
X59159750Y-95105281D01*
X59223371Y-95062771D01*
X59278658Y-94980029D01*
X59344232Y-94881889D01*
X59391788Y-94810717D01*
X59412843Y-94704868D01*
X59551431Y-94566280D01*
X59681196Y-94253000D01*
X59895874Y-94253000D01*
X60276280Y-94095431D01*
X60567431Y-93804280D01*
X60725000Y-93423874D01*
X60725000Y-93012126D01*
X60567431Y-92631720D01*
X60276280Y-92340569D01*
X60217062Y-92316040D01*
X60693300Y-92316040D01*
X60941065Y-92266757D01*
X61151109Y-92126409D01*
X61291457Y-91916365D01*
X61340740Y-91668600D01*
X61340740Y-89890600D01*
X61595260Y-89890600D01*
X61595260Y-91668600D01*
X61644543Y-91916365D01*
X61765973Y-92098096D01*
X61703000Y-92250126D01*
X61703000Y-92661874D01*
X61860569Y-93042280D01*
X62151720Y-93333431D01*
X62532126Y-93491000D01*
X62943874Y-93491000D01*
X63324280Y-93333431D01*
X63615431Y-93042280D01*
X63773000Y-92661874D01*
X63773000Y-92250126D01*
X63710027Y-92098096D01*
X63831457Y-91916365D01*
X63880740Y-91668600D01*
X63880740Y-89890600D01*
X63831457Y-89642835D01*
X63691109Y-89432791D01*
X63481065Y-89292443D01*
X63233300Y-89243160D01*
X62242700Y-89243160D01*
X61994935Y-89292443D01*
X61784891Y-89432791D01*
X61644543Y-89642835D01*
X61595260Y-89890600D01*
X61340740Y-89890600D01*
X61291457Y-89642835D01*
X61151109Y-89432791D01*
X60941065Y-89292443D01*
X60693300Y-89243160D01*
X59702700Y-89243160D01*
X59673302Y-89249008D01*
X59671050Y-89237684D01*
X59645788Y-89110683D01*
X59477371Y-88858629D01*
X59413749Y-88816118D01*
X58986483Y-88388853D01*
X58943971Y-88325229D01*
X58691917Y-88156812D01*
X58469648Y-88112600D01*
X58469643Y-88112600D01*
X58394600Y-88097673D01*
X58319557Y-88112600D01*
X55955047Y-88112600D01*
X55880000Y-88097672D01*
X55804953Y-88112600D01*
X55804952Y-88112600D01*
X55582683Y-88156812D01*
X55330629Y-88325229D01*
X55288118Y-88388851D01*
X54632251Y-89044719D01*
X54568630Y-89087229D01*
X54526119Y-89150851D01*
X54526118Y-89150852D01*
X54440182Y-89279465D01*
X54374935Y-89292443D01*
X54164891Y-89432791D01*
X54024543Y-89642835D01*
X53975260Y-89890600D01*
X53975260Y-91668600D01*
X54024543Y-91916365D01*
X54164891Y-92126409D01*
X54374935Y-92266757D01*
X54622700Y-92316040D01*
X55613300Y-92316040D01*
X55861065Y-92266757D01*
X56071109Y-92126409D01*
X56211457Y-91916365D01*
X56260740Y-91668600D01*
X56260740Y-89890600D01*
X56211457Y-89642835D01*
X56207291Y-89636600D01*
X56568709Y-89636600D01*
X56564543Y-89642835D01*
X56515260Y-89890600D01*
X56515260Y-91668600D01*
X56564543Y-91916365D01*
X56704891Y-92126409D01*
X56914935Y-92266757D01*
X57162700Y-92316040D01*
X58153300Y-92316040D01*
X58166000Y-92313514D01*
X58166000Y-92380957D01*
X58151073Y-92456000D01*
X58166000Y-92531043D01*
X58166000Y-92531047D01*
X58210212Y-92753316D01*
X58366435Y-92987122D01*
X58087720Y-93102569D01*
X57796569Y-93393720D01*
X57639000Y-93774126D01*
X57639000Y-94185874D01*
X57722444Y-94387326D01*
X57172253Y-94937517D01*
X57108629Y-94980029D01*
X56980182Y-95172265D01*
X56914935Y-95185243D01*
X56704891Y-95325591D01*
X56564543Y-95535635D01*
X56515260Y-95783400D01*
X56515260Y-97536000D01*
X56260740Y-97536000D01*
X56260740Y-95783400D01*
X56211457Y-95535635D01*
X56071109Y-95325591D01*
X55880000Y-95197895D01*
X55880000Y-94944042D01*
X55894927Y-94868999D01*
X55880000Y-94793956D01*
X55880000Y-94793952D01*
X55835788Y-94571683D01*
X55808295Y-94530536D01*
X55752230Y-94446630D01*
X55667371Y-94319629D01*
X55603747Y-94277117D01*
X55201884Y-93875254D01*
X55159371Y-93811629D01*
X54907317Y-93643212D01*
X54685048Y-93599000D01*
X54685043Y-93599000D01*
X54610000Y-93584073D01*
X54534957Y-93599000D01*
X48406000Y-93599000D01*
X48406000Y-93266126D01*
X48386066Y-93218000D01*
X52248957Y-93218000D01*
X52324000Y-93232927D01*
X52399043Y-93218000D01*
X52399048Y-93218000D01*
X52621317Y-93173788D01*
X52873371Y-93005371D01*
X52915884Y-92941746D01*
X53063746Y-92793884D01*
X53127371Y-92751371D01*
X53295788Y-92499317D01*
X53340000Y-92277047D01*
X53340000Y-92277044D01*
X53345262Y-92250589D01*
X53531109Y-92126409D01*
X53671457Y-91916365D01*
X53720740Y-91668600D01*
X53720740Y-89890600D01*
X53671457Y-89642835D01*
X53531109Y-89432791D01*
X53321065Y-89292443D01*
X53073300Y-89243160D01*
X52082700Y-89243160D01*
X51834935Y-89292443D01*
X51624891Y-89432791D01*
X51484543Y-89642835D01*
X51435260Y-89890600D01*
X51435260Y-91668600D01*
X51440312Y-91694000D01*
X51175688Y-91694000D01*
X51180740Y-91668600D01*
X51180740Y-89890600D01*
X51131457Y-89642835D01*
X50991109Y-89432791D01*
X50781065Y-89292443D01*
X50533300Y-89243160D01*
X49542700Y-89243160D01*
X49294935Y-89292443D01*
X49084891Y-89432791D01*
X48944543Y-89642835D01*
X48895260Y-89890600D01*
X48895260Y-91668600D01*
X48900312Y-91694000D01*
X48635688Y-91694000D01*
X48640740Y-91668600D01*
X48640740Y-89890600D01*
X48591457Y-89642835D01*
X48451109Y-89432791D01*
X48241065Y-89292443D01*
X47993300Y-89243160D01*
X47002700Y-89243160D01*
X46754935Y-89292443D01*
X46544891Y-89432791D01*
X46404543Y-89642835D01*
X46355260Y-89890600D01*
X46355260Y-91668600D01*
X46360312Y-91694000D01*
X46095688Y-91694000D01*
X46100740Y-91668600D01*
X46100740Y-89890600D01*
X46051457Y-89642835D01*
X45911109Y-89432791D01*
X45701065Y-89292443D01*
X45453300Y-89243160D01*
X44462700Y-89243160D01*
X44214935Y-89292443D01*
X44004891Y-89432791D01*
X43864543Y-89642835D01*
X43815260Y-89890600D01*
X43815260Y-91668600D01*
X43837269Y-91779248D01*
X43646629Y-91906629D01*
X43604116Y-91970254D01*
X43202252Y-92372118D01*
X43138630Y-92414629D01*
X43096119Y-92478251D01*
X43096118Y-92478252D01*
X42970213Y-92666683D01*
X42911073Y-92964000D01*
X42926001Y-93039048D01*
X42926001Y-95138486D01*
X42913300Y-95135960D01*
X41922700Y-95135960D01*
X41910000Y-95138486D01*
X41910000Y-92313514D01*
X41922700Y-92316040D01*
X42913300Y-92316040D01*
X43161065Y-92266757D01*
X43371109Y-92126409D01*
X43511457Y-91916365D01*
X43560740Y-91668600D01*
X43560740Y-89890600D01*
X43511457Y-89642835D01*
X43371109Y-89432791D01*
X43161065Y-89292443D01*
X42913300Y-89243160D01*
X41922700Y-89243160D01*
X41910000Y-89245686D01*
X41910000Y-59436000D01*
X44069000Y-59436000D01*
X44069000Y-78740000D01*
X44117336Y-78983004D01*
X44254987Y-79189013D01*
X44460996Y-79326664D01*
X44704000Y-79375000D01*
X46101000Y-79375000D01*
X46101000Y-84836000D01*
X46149336Y-85079004D01*
X46286987Y-85285013D01*
X46492996Y-85422664D01*
X46736000Y-85471000D01*
X141351000Y-85471000D01*
X141351000Y-102362000D01*
X141399336Y-102605004D01*
X141406683Y-102616000D01*
X134212063Y-102616000D01*
X134111999Y-102596096D01*
X134011935Y-102616000D01*
X133715577Y-102674949D01*
X133715576Y-102674950D01*
X133715575Y-102674950D01*
X133679901Y-102698787D01*
X133379505Y-102899505D01*
X133322822Y-102984337D01*
X131940337Y-104366822D01*
X131855506Y-104423505D01*
X131798823Y-104508337D01*
X131630950Y-104759577D01*
X131552096Y-105156000D01*
X131572001Y-105256068D01*
X131572000Y-119128256D01*
X131553000Y-119174126D01*
X131553000Y-119585874D01*
X131630045Y-119771878D01*
X131630949Y-119776422D01*
X131633523Y-119780275D01*
X131710569Y-119966280D01*
X131852930Y-120108641D01*
X131855505Y-120112495D01*
X131859359Y-120115070D01*
X132001720Y-120257431D01*
X132187723Y-120334476D01*
X132191577Y-120337051D01*
X132196123Y-120337955D01*
X132382126Y-120415000D01*
X132583455Y-120415000D01*
X132588000Y-120415904D01*
X132592545Y-120415000D01*
X132793874Y-120415000D01*
X132979878Y-120337955D01*
X132984422Y-120337051D01*
X132988275Y-120334477D01*
X133174280Y-120257431D01*
X133316641Y-120115070D01*
X133320495Y-120112495D01*
X133323070Y-120108641D01*
X133465431Y-119966280D01*
X133542476Y-119780277D01*
X133545051Y-119776423D01*
X133545955Y-119771877D01*
X133623000Y-119585874D01*
X133623000Y-119174126D01*
X133604000Y-119128256D01*
X133604000Y-105793703D01*
X134248019Y-105793703D01*
X134248019Y-106349465D01*
X134460699Y-106862921D01*
X134853682Y-107255904D01*
X135367138Y-107468584D01*
X135922900Y-107468584D01*
X136436356Y-107255904D01*
X136829339Y-106862921D01*
X136903676Y-106683453D01*
X141732000Y-106683453D01*
X141732000Y-107946547D01*
X142215365Y-109113493D01*
X143108507Y-110006635D01*
X144275453Y-110490000D01*
X145538547Y-110490000D01*
X146705493Y-110006635D01*
X147598635Y-109113493D01*
X148082000Y-107946547D01*
X148082000Y-106683453D01*
X147598635Y-105516507D01*
X146705493Y-104623365D01*
X145538547Y-104140000D01*
X144275453Y-104140000D01*
X143108507Y-104623365D01*
X142215365Y-105516507D01*
X141732000Y-106683453D01*
X136903676Y-106683453D01*
X137042019Y-106349465D01*
X137042019Y-105793703D01*
X136829339Y-105280247D01*
X136436356Y-104887264D01*
X135922900Y-104674584D01*
X135367138Y-104674584D01*
X134853682Y-104887264D01*
X134460699Y-105280247D01*
X134248019Y-105793703D01*
X133604000Y-105793703D01*
X133604000Y-105576840D01*
X134532841Y-104648000D01*
X142647937Y-104648000D01*
X142748000Y-104667904D01*
X142848063Y-104648000D01*
X142848065Y-104648000D01*
X143144423Y-104589051D01*
X143480495Y-104364495D01*
X143537180Y-104279660D01*
X144819841Y-102997000D01*
X147828000Y-102997000D01*
X148071004Y-102948664D01*
X148277013Y-102811013D01*
X148414664Y-102605004D01*
X148463000Y-102362000D01*
X148463000Y-79248000D01*
X148414664Y-79004996D01*
X148277013Y-78798987D01*
X148071004Y-78661336D01*
X147828000Y-78613000D01*
X147574000Y-78613000D01*
X147574000Y-69730475D01*
X147605765Y-69724157D01*
X147815809Y-69583809D01*
X147956157Y-69373765D01*
X148005440Y-69126000D01*
X148005440Y-67526000D01*
X147956157Y-67278235D01*
X147815809Y-67068191D01*
X147605765Y-66927843D01*
X147358000Y-66878560D01*
X145758000Y-66878560D01*
X145510235Y-66927843D01*
X145300191Y-67068191D01*
X145159843Y-67278235D01*
X145110560Y-67526000D01*
X145110560Y-69126000D01*
X145159843Y-69373765D01*
X145300191Y-69583809D01*
X145510235Y-69724157D01*
X145542000Y-69730475D01*
X145542001Y-78613000D01*
X141351000Y-78613000D01*
X141351000Y-59436000D01*
X141302664Y-59192996D01*
X141165013Y-58986987D01*
X140959004Y-58849336D01*
X140716000Y-58801000D01*
X133858000Y-58801000D01*
X133614996Y-58849336D01*
X133408987Y-58986987D01*
X133271336Y-59192996D01*
X133223000Y-59436000D01*
X133223000Y-78613000D01*
X132969000Y-78613000D01*
X132969000Y-59436000D01*
X132920664Y-59192996D01*
X132783013Y-58986987D01*
X132577004Y-58849336D01*
X132334000Y-58801000D01*
X125476000Y-58801000D01*
X125232996Y-58849336D01*
X125026987Y-58986987D01*
X124889336Y-59192996D01*
X124841000Y-59436000D01*
X124841000Y-78613000D01*
X121157066Y-78613000D01*
X121177000Y-78564874D01*
X121177000Y-78153126D01*
X121019431Y-77772720D01*
X120902000Y-77655289D01*
X120902000Y-73974801D01*
X122270224Y-72606578D01*
X122342371Y-72558371D01*
X122510788Y-72306317D01*
X122555000Y-72084048D01*
X122555000Y-72073793D01*
X122567888Y-72009000D01*
X122555000Y-71944207D01*
X122555000Y-59375711D01*
X122670431Y-59260280D01*
X122828000Y-58879874D01*
X122828000Y-58468126D01*
X122670431Y-58087720D01*
X122379280Y-57796569D01*
X121998874Y-57639000D01*
X121587126Y-57639000D01*
X121206720Y-57796569D01*
X120915569Y-58087720D01*
X120758000Y-58468126D01*
X120758000Y-58879874D01*
X120915569Y-59260280D01*
X121031000Y-59375711D01*
X121031000Y-59638047D01*
X121031001Y-59638052D01*
X121031000Y-66991478D01*
X120935765Y-66927843D01*
X120688000Y-66878560D01*
X119088000Y-66878560D01*
X118840235Y-66927843D01*
X118630191Y-67068191D01*
X118489843Y-67278235D01*
X118440560Y-67526000D01*
X118440560Y-69126000D01*
X118489843Y-69373765D01*
X118630191Y-69583809D01*
X118705218Y-69633941D01*
X118224339Y-70114821D01*
X118139505Y-70171505D01*
X117914949Y-70507578D01*
X117897759Y-70594000D01*
X117836096Y-70904000D01*
X117856000Y-71004064D01*
X117856001Y-78613000D01*
X114554000Y-78613000D01*
X114554000Y-59436000D01*
X114505664Y-59192996D01*
X114368013Y-58986987D01*
X114162004Y-58849336D01*
X113919000Y-58801000D01*
X107061000Y-58801000D01*
X106817996Y-58849336D01*
X106611987Y-58986987D01*
X106474336Y-59192996D01*
X106426000Y-59436000D01*
X106426000Y-78613000D01*
X106299000Y-78613000D01*
X106299000Y-59436000D01*
X106250664Y-59192996D01*
X106113013Y-58986987D01*
X105907004Y-58849336D01*
X105664000Y-58801000D01*
X98806000Y-58801000D01*
X98562996Y-58849336D01*
X98356987Y-58986987D01*
X98219336Y-59192996D01*
X98171000Y-59436000D01*
X98171000Y-78613000D01*
X94487066Y-78613000D01*
X94507000Y-78564874D01*
X94507000Y-78153126D01*
X94349431Y-77772720D01*
X94232000Y-77655289D01*
X94232000Y-74228801D01*
X95600224Y-72860578D01*
X95672371Y-72812371D01*
X95840788Y-72560317D01*
X95885000Y-72338048D01*
X95885000Y-72327793D01*
X95897888Y-72263000D01*
X95885000Y-72198207D01*
X95885000Y-59375711D01*
X96000431Y-59260280D01*
X96158000Y-58879874D01*
X96158000Y-58468126D01*
X96000431Y-58087720D01*
X95709280Y-57796569D01*
X95328874Y-57639000D01*
X94917126Y-57639000D01*
X94536720Y-57796569D01*
X94245569Y-58087720D01*
X94088000Y-58468126D01*
X94088000Y-58879874D01*
X94245569Y-59260280D01*
X94361000Y-59375711D01*
X94361000Y-59892047D01*
X94361001Y-59892052D01*
X94361000Y-67220504D01*
X94221809Y-67012191D01*
X94011765Y-66871843D01*
X93764000Y-66822560D01*
X92164000Y-66822560D01*
X91916235Y-66871843D01*
X91706191Y-67012191D01*
X91565843Y-67222235D01*
X91516560Y-67470000D01*
X91516560Y-69070000D01*
X91565843Y-69317765D01*
X91706191Y-69527809D01*
X91781218Y-69577941D01*
X91300339Y-70058821D01*
X91215505Y-70115505D01*
X90990949Y-70451578D01*
X90932000Y-70747935D01*
X90912096Y-70848000D01*
X90932000Y-70948064D01*
X90932001Y-78613000D01*
X87503000Y-78613000D01*
X87503000Y-59436000D01*
X87454664Y-59192996D01*
X87317013Y-58986987D01*
X87111004Y-58849336D01*
X86868000Y-58801000D01*
X80010000Y-58801000D01*
X79766996Y-58849336D01*
X79560987Y-58986987D01*
X79423336Y-59192996D01*
X79375000Y-59436000D01*
X79375000Y-78613000D01*
X79248000Y-78613000D01*
X79248000Y-59436000D01*
X79199664Y-59192996D01*
X79062013Y-58986987D01*
X78856004Y-58849336D01*
X78613000Y-58801000D01*
X71755000Y-58801000D01*
X71511996Y-58849336D01*
X71305987Y-58986987D01*
X71168336Y-59192996D01*
X71120000Y-59436000D01*
X71120000Y-78613000D01*
X67563066Y-78613000D01*
X67583000Y-78564874D01*
X67583000Y-78153126D01*
X67425431Y-77772720D01*
X67308000Y-77655289D01*
X67308000Y-74355801D01*
X68549227Y-73114576D01*
X68621371Y-73066371D01*
X68789788Y-72814317D01*
X68834000Y-72592048D01*
X68834000Y-72581793D01*
X68846888Y-72517001D01*
X68834000Y-72452209D01*
X68834000Y-59375711D01*
X68949431Y-59260280D01*
X69107000Y-58879874D01*
X69107000Y-58468126D01*
X68949431Y-58087720D01*
X68658280Y-57796569D01*
X68277874Y-57639000D01*
X67866126Y-57639000D01*
X67485720Y-57796569D01*
X67194569Y-58087720D01*
X67037000Y-58468126D01*
X67037000Y-58879874D01*
X67194569Y-59260280D01*
X67310001Y-59375712D01*
X67310000Y-67030436D01*
X67297809Y-67012191D01*
X67087765Y-66871843D01*
X66840000Y-66822560D01*
X65240000Y-66822560D01*
X64992235Y-66871843D01*
X64782191Y-67012191D01*
X64641843Y-67222235D01*
X64592560Y-67470000D01*
X64592560Y-69070000D01*
X64641843Y-69317765D01*
X64782191Y-69527809D01*
X64857218Y-69577941D01*
X64630339Y-69804821D01*
X64545505Y-69861505D01*
X64320949Y-70197578D01*
X64264839Y-70479664D01*
X64242096Y-70594000D01*
X64262000Y-70694064D01*
X64262001Y-78613000D01*
X60579000Y-78613000D01*
X60579000Y-59436000D01*
X60530664Y-59192996D01*
X60393013Y-58986987D01*
X60187004Y-58849336D01*
X59944000Y-58801000D01*
X53086000Y-58801000D01*
X52842996Y-58849336D01*
X52636987Y-58986987D01*
X52499336Y-59192996D01*
X52451000Y-59436000D01*
X52451000Y-78613000D01*
X52197000Y-78613000D01*
X52197000Y-59436000D01*
X52148664Y-59192996D01*
X52011013Y-58986987D01*
X51805004Y-58849336D01*
X51562000Y-58801000D01*
X44704000Y-58801000D01*
X44460996Y-58849336D01*
X44254987Y-58986987D01*
X44117336Y-59192996D01*
X44069000Y-59436000D01*
X41910000Y-59436000D01*
X41910000Y-59375711D01*
X42025431Y-59260280D01*
X42183000Y-58879874D01*
X42183000Y-58468126D01*
X42025431Y-58087720D01*
X41734280Y-57796569D01*
X41353874Y-57639000D01*
X40942126Y-57639000D01*
X40561720Y-57796569D01*
X40270569Y-58087720D01*
X40113000Y-58468126D01*
X40113000Y-58879874D01*
X40270569Y-59260280D01*
X40386001Y-59375712D01*
X40386000Y-68401047D01*
X40386001Y-68401052D01*
X40386000Y-95138486D01*
X40373300Y-95135960D01*
X39382700Y-95135960D01*
X39318000Y-95148829D01*
X39318000Y-46303981D01*
X39378090Y-45884391D01*
X39532381Y-45545048D01*
X39775712Y-45262648D01*
X40088523Y-45059894D01*
X40469184Y-44946052D01*
X40666350Y-44931400D01*
X160985419Y-44931400D01*
X161405009Y-44991490D01*
X161405009Y-44991490D01*
G37*
X161405009Y-44991490D02*
X161744352Y-45145781D01*
X162026752Y-45389112D01*
X162229506Y-45701923D01*
X162343348Y-46082584D01*
X162358001Y-46279763D01*
X162358000Y-62045925D01*
X162358001Y-62045930D01*
X162358000Y-83635925D01*
X162358001Y-83635930D01*
X162358000Y-117043419D01*
X162297910Y-117463009D01*
X162143619Y-117802352D01*
X161900288Y-118084752D01*
X161587479Y-118287506D01*
X161206815Y-118401348D01*
X161009649Y-118416000D01*
X145357926Y-118416000D01*
X145288000Y-118402091D01*
X145218075Y-118416000D01*
X145218074Y-118416000D01*
X145010972Y-118457195D01*
X144776119Y-118614119D01*
X144619195Y-118848972D01*
X144564091Y-119126000D01*
X144578001Y-119195931D01*
X144578000Y-139884074D01*
X144564091Y-139954000D01*
X144619195Y-140231028D01*
X144776119Y-140465881D01*
X145010972Y-140622805D01*
X145170571Y-140654551D01*
X145288000Y-140677909D01*
X145357925Y-140664000D01*
X160985419Y-140664000D01*
X161405009Y-140724090D01*
X161744352Y-140878381D01*
X162026752Y-141121712D01*
X162229506Y-141434523D01*
X162343348Y-141815184D01*
X162358001Y-142012363D01*
X162358000Y-149503281D01*
X162272491Y-149529423D01*
X162180033Y-149556460D01*
X162172159Y-149560098D01*
X161650644Y-149804948D01*
X161570075Y-149857872D01*
X161488927Y-149909768D01*
X161482390Y-149915470D01*
X161050558Y-150296851D01*
X160988096Y-150370244D01*
X160924760Y-150442847D01*
X160920087Y-150450154D01*
X160612654Y-150937407D01*
X160573298Y-151025387D01*
X160532889Y-151112840D01*
X160530457Y-151121160D01*
X160530454Y-151121166D01*
X160530453Y-151121173D01*
X160372134Y-151675118D01*
X160359056Y-151770586D01*
X160344813Y-151865890D01*
X160344813Y-151874564D01*
X160348333Y-152450687D01*
X160362588Y-152546068D01*
X160375654Y-152641455D01*
X160378088Y-152649781D01*
X160543164Y-153201758D01*
X160583591Y-153289250D01*
X160622930Y-153377194D01*
X160627603Y-153384501D01*
X160940966Y-153867961D01*
X161004328Y-153940594D01*
X161066763Y-154013955D01*
X161073296Y-154019654D01*
X161073300Y-154019658D01*
X161073305Y-154019661D01*
X161509759Y-154395734D01*
X161590942Y-154447653D01*
X161671475Y-154500554D01*
X161679346Y-154504190D01*
X161679349Y-154504192D01*
X161679352Y-154504193D01*
X162203817Y-154742653D01*
X162296309Y-154769700D01*
X162358001Y-154788561D01*
X162358000Y-162763418D01*
X162297910Y-163183009D01*
X162143619Y-163522352D01*
X161900288Y-163804752D01*
X161587479Y-164007506D01*
X161206815Y-164121348D01*
X161009649Y-164136000D01*
X40690581Y-164136000D01*
X40270991Y-164075910D01*
X39931648Y-163921619D01*
X39649248Y-163678288D01*
X39446494Y-163365479D01*
X39332652Y-162984815D01*
X39318000Y-162787649D01*
X39318000Y-154788719D01*
X39403509Y-154762577D01*
X39495967Y-154735540D01*
X39503841Y-154731902D01*
X40025356Y-154487052D01*
X40105925Y-154434128D01*
X40187073Y-154382232D01*
X40193610Y-154376530D01*
X40625442Y-153995149D01*
X40687887Y-153921776D01*
X40751240Y-153849153D01*
X40755913Y-153841846D01*
X41063346Y-153354593D01*
X41102687Y-153266645D01*
X41143111Y-153179160D01*
X41145545Y-153170835D01*
X41303866Y-152616882D01*
X41316943Y-152521421D01*
X41331187Y-152426111D01*
X41331187Y-152417436D01*
X41327667Y-151841313D01*
X41313414Y-151745943D01*
X41300346Y-151650544D01*
X41297912Y-151642219D01*
X41132836Y-151090241D01*
X41092418Y-151002769D01*
X41053071Y-150914806D01*
X41048397Y-150907499D01*
X40735034Y-150424040D01*
X40671707Y-150351447D01*
X40609237Y-150278045D01*
X40602700Y-150272343D01*
X40166241Y-149896266D01*
X40085058Y-149844347D01*
X40004525Y-149791446D01*
X39996654Y-149787810D01*
X39996651Y-149787808D01*
X39996648Y-149787807D01*
X39472183Y-149549347D01*
X39379691Y-149522300D01*
X39318000Y-149503439D01*
X39318000Y-141375971D01*
X39382700Y-141388840D01*
X40373300Y-141388840D01*
X40621065Y-141339557D01*
X40831109Y-141199209D01*
X40971457Y-140989165D01*
X41020740Y-140741400D01*
X41020740Y-138963400D01*
X41275260Y-138963400D01*
X41275260Y-140741400D01*
X41324543Y-140989165D01*
X41464891Y-141199209D01*
X41674935Y-141339557D01*
X41922700Y-141388840D01*
X42913300Y-141388840D01*
X43161065Y-141339557D01*
X43371109Y-141199209D01*
X43511457Y-140989165D01*
X43560740Y-140741400D01*
X43560740Y-138963400D01*
X43815260Y-138963400D01*
X43815260Y-140741400D01*
X43864543Y-140989165D01*
X44004891Y-141199209D01*
X44214935Y-141339557D01*
X44462700Y-141388840D01*
X45453300Y-141388840D01*
X45701065Y-141339557D01*
X45911109Y-141199209D01*
X46051457Y-140989165D01*
X46100740Y-140741400D01*
X46100740Y-138963400D01*
X46355260Y-138963400D01*
X46355260Y-140741400D01*
X46404543Y-140989165D01*
X46544891Y-141199209D01*
X46754935Y-141339557D01*
X47002700Y-141388840D01*
X47993300Y-141388840D01*
X48241065Y-141339557D01*
X48451109Y-141199209D01*
X48591457Y-140989165D01*
X48640740Y-140741400D01*
X48640740Y-138963400D01*
X48895260Y-138963400D01*
X48895260Y-140741400D01*
X48944543Y-140989165D01*
X49084891Y-141199209D01*
X49294935Y-141339557D01*
X49542700Y-141388840D01*
X50533300Y-141388840D01*
X50781065Y-141339557D01*
X50991109Y-141199209D01*
X51131457Y-140989165D01*
X51180740Y-140741400D01*
X51180740Y-138963400D01*
X51131457Y-138715635D01*
X50991109Y-138505591D01*
X50781065Y-138365243D01*
X50533300Y-138315960D01*
X49542700Y-138315960D01*
X49294935Y-138365243D01*
X49084891Y-138505591D01*
X48944543Y-138715635D01*
X48895260Y-138963400D01*
X48640740Y-138963400D01*
X48591457Y-138715635D01*
X48451109Y-138505591D01*
X48241065Y-138365243D01*
X47993300Y-138315960D01*
X47002700Y-138315960D01*
X46754935Y-138365243D01*
X46544891Y-138505591D01*
X46404543Y-138715635D01*
X46355260Y-138963400D01*
X46100740Y-138963400D01*
X46051457Y-138715635D01*
X45911109Y-138505591D01*
X45701065Y-138365243D01*
X45453300Y-138315960D01*
X44462700Y-138315960D01*
X44214935Y-138365243D01*
X44004891Y-138505591D01*
X43864543Y-138715635D01*
X43815260Y-138963400D01*
X43560740Y-138963400D01*
X43511457Y-138715635D01*
X43371109Y-138505591D01*
X43161065Y-138365243D01*
X42913300Y-138315960D01*
X41922700Y-138315960D01*
X41674935Y-138365243D01*
X41464891Y-138505591D01*
X41324543Y-138715635D01*
X41275260Y-138963400D01*
X41020740Y-138963400D01*
X40971457Y-138715635D01*
X40903023Y-138613217D01*
X41594241Y-137922000D01*
X52832934Y-137922000D01*
X52813000Y-137970126D01*
X52813000Y-138315960D01*
X52082700Y-138315960D01*
X51834935Y-138365243D01*
X51624891Y-138505591D01*
X51484543Y-138715635D01*
X51435260Y-138963400D01*
X51435260Y-140741400D01*
X51484543Y-140989165D01*
X51624891Y-141199209D01*
X51834935Y-141339557D01*
X52082700Y-141388840D01*
X53073300Y-141388840D01*
X53321065Y-141339557D01*
X53531109Y-141199209D01*
X53671457Y-140989165D01*
X53720740Y-140741400D01*
X53720740Y-139211000D01*
X53805370Y-139211000D01*
X53975260Y-139380891D01*
X53975260Y-140741400D01*
X54024543Y-140989165D01*
X54164891Y-141199209D01*
X54374935Y-141339557D01*
X54622700Y-141388840D01*
X55613300Y-141388840D01*
X55861065Y-141339557D01*
X56071109Y-141199209D01*
X56211457Y-140989165D01*
X56260740Y-140741400D01*
X56260740Y-138963400D01*
X56515260Y-138963400D01*
X56515260Y-140741400D01*
X56564543Y-140989165D01*
X56704891Y-141199209D01*
X56914935Y-141339557D01*
X57162700Y-141388840D01*
X58153300Y-141388840D01*
X58401065Y-141339557D01*
X58611109Y-141199209D01*
X58751457Y-140989165D01*
X58800740Y-140741400D01*
X58800740Y-138963400D01*
X59055260Y-138963400D01*
X59055260Y-140741400D01*
X59104543Y-140989165D01*
X59244891Y-141199209D01*
X59454935Y-141339557D01*
X59702700Y-141388840D01*
X60693300Y-141388840D01*
X60941065Y-141339557D01*
X61151109Y-141199209D01*
X61291457Y-140989165D01*
X61340740Y-140741400D01*
X61340740Y-138963400D01*
X61595260Y-138963400D01*
X61595260Y-140741400D01*
X61644543Y-140989165D01*
X61784891Y-141199209D01*
X61994935Y-141339557D01*
X62242700Y-141388840D01*
X63233300Y-141388840D01*
X63481065Y-141339557D01*
X63691109Y-141199209D01*
X63831457Y-140989165D01*
X63880740Y-140741400D01*
X63880740Y-138963400D01*
X63831457Y-138715635D01*
X63691109Y-138505591D01*
X63481065Y-138365243D01*
X63233300Y-138315960D01*
X62242700Y-138315960D01*
X61994935Y-138365243D01*
X61784891Y-138505591D01*
X61644543Y-138715635D01*
X61595260Y-138963400D01*
X61340740Y-138963400D01*
X61291457Y-138715635D01*
X61151109Y-138505591D01*
X60941065Y-138365243D01*
X60693300Y-138315960D01*
X59702700Y-138315960D01*
X59454935Y-138365243D01*
X59244891Y-138505591D01*
X59104543Y-138715635D01*
X59055260Y-138963400D01*
X58800740Y-138963400D01*
X58751457Y-138715635D01*
X58611109Y-138505591D01*
X58401065Y-138365243D01*
X58153300Y-138315960D01*
X57162700Y-138315960D01*
X56914935Y-138365243D01*
X56704891Y-138505591D01*
X56564543Y-138715635D01*
X56515260Y-138963400D01*
X56260740Y-138963400D01*
X56211457Y-138715635D01*
X56071109Y-138505591D01*
X55861065Y-138365243D01*
X55613300Y-138315960D01*
X55065591Y-138315960D01*
X54883000Y-138133370D01*
X54883000Y-137970126D01*
X54863066Y-137922000D01*
X94387935Y-137922000D01*
X94487999Y-137941904D01*
X94588063Y-137922000D01*
X102392620Y-137922000D01*
X102342096Y-138176000D01*
X102362001Y-138276068D01*
X102362001Y-138599712D01*
X102284543Y-138715635D01*
X102235260Y-138963400D01*
X102235260Y-140741400D01*
X102284543Y-140989165D01*
X102424891Y-141199209D01*
X102634935Y-141339557D01*
X102882700Y-141388840D01*
X103873300Y-141388840D01*
X104121065Y-141339557D01*
X104331109Y-141199209D01*
X104471457Y-140989165D01*
X104520740Y-140741400D01*
X104520740Y-138963400D01*
X104775260Y-138963400D01*
X104775260Y-140741400D01*
X104824543Y-140989165D01*
X104964891Y-141199209D01*
X105174935Y-141339557D01*
X105422700Y-141388840D01*
X106413300Y-141388840D01*
X106661065Y-141339557D01*
X106871109Y-141199209D01*
X107011457Y-140989165D01*
X107060740Y-140741400D01*
X107060740Y-138963400D01*
X107315260Y-138963400D01*
X107315260Y-140741400D01*
X107364543Y-140989165D01*
X107504891Y-141199209D01*
X107714935Y-141339557D01*
X107962700Y-141388840D01*
X108953300Y-141388840D01*
X109201065Y-141339557D01*
X109411109Y-141199209D01*
X109551457Y-140989165D01*
X109600740Y-140741400D01*
X109600740Y-138963400D01*
X109855260Y-138963400D01*
X109855260Y-140741400D01*
X109904543Y-140989165D01*
X110044891Y-141199209D01*
X110254935Y-141339557D01*
X110502700Y-141388840D01*
X111493300Y-141388840D01*
X111741065Y-141339557D01*
X111951109Y-141199209D01*
X112091457Y-140989165D01*
X112140740Y-140741400D01*
X112140740Y-138963400D01*
X112395260Y-138963400D01*
X112395260Y-140741400D01*
X112444543Y-140989165D01*
X112584891Y-141199209D01*
X112794935Y-141339557D01*
X113042700Y-141388840D01*
X114033300Y-141388840D01*
X114281065Y-141339557D01*
X114491109Y-141199209D01*
X114631457Y-140989165D01*
X114680740Y-140741400D01*
X114680740Y-138963400D01*
X114935260Y-138963400D01*
X114935260Y-140741400D01*
X114984543Y-140989165D01*
X115124891Y-141199209D01*
X115334935Y-141339557D01*
X115582700Y-141388840D01*
X116573300Y-141388840D01*
X116821065Y-141339557D01*
X117031109Y-141199209D01*
X117171457Y-140989165D01*
X117220740Y-140741400D01*
X117220740Y-138963400D01*
X117475260Y-138963400D01*
X117475260Y-140741400D01*
X117524543Y-140989165D01*
X117664891Y-141199209D01*
X117874935Y-141339557D01*
X118122700Y-141388840D01*
X119113300Y-141388840D01*
X119361065Y-141339557D01*
X119571109Y-141199209D01*
X119711457Y-140989165D01*
X119760740Y-140741400D01*
X119760740Y-138963400D01*
X120015260Y-138963400D01*
X120015260Y-140741400D01*
X120064543Y-140989165D01*
X120204891Y-141199209D01*
X120414935Y-141339557D01*
X120662700Y-141388840D01*
X121653300Y-141388840D01*
X121901065Y-141339557D01*
X122111109Y-141199209D01*
X122251457Y-140989165D01*
X122300740Y-140741400D01*
X122300740Y-138963400D01*
X122555260Y-138963400D01*
X122555260Y-140741400D01*
X122604543Y-140989165D01*
X122744891Y-141199209D01*
X122954935Y-141339557D01*
X123202700Y-141388840D01*
X124193300Y-141388840D01*
X124441065Y-141339557D01*
X124651109Y-141199209D01*
X124791457Y-140989165D01*
X124840740Y-140741400D01*
X124840740Y-138963400D01*
X125095260Y-138963400D01*
X125095260Y-140741400D01*
X125144543Y-140989165D01*
X125284891Y-141199209D01*
X125494935Y-141339557D01*
X125742700Y-141388840D01*
X126733300Y-141388840D01*
X126981065Y-141339557D01*
X127191109Y-141199209D01*
X127331457Y-140989165D01*
X127380740Y-140741400D01*
X127380740Y-138963400D01*
X127331457Y-138715635D01*
X127191109Y-138505591D01*
X126981065Y-138365243D01*
X126733300Y-138315960D01*
X125742700Y-138315960D01*
X125494935Y-138365243D01*
X125284891Y-138505591D01*
X125144543Y-138715635D01*
X125095260Y-138963400D01*
X124840740Y-138963400D01*
X124791457Y-138715635D01*
X124651109Y-138505591D01*
X124441065Y-138365243D01*
X124193300Y-138315960D01*
X123202700Y-138315960D01*
X122954935Y-138365243D01*
X122744891Y-138505591D01*
X122604543Y-138715635D01*
X122555260Y-138963400D01*
X122300740Y-138963400D01*
X122251457Y-138715635D01*
X122111109Y-138505591D01*
X121901065Y-138365243D01*
X121653300Y-138315960D01*
X120662700Y-138315960D01*
X120414935Y-138365243D01*
X120204891Y-138505591D01*
X120064543Y-138715635D01*
X120015260Y-138963400D01*
X119760740Y-138963400D01*
X119711457Y-138715635D01*
X119571109Y-138505591D01*
X119361065Y-138365243D01*
X119113300Y-138315960D01*
X118122700Y-138315960D01*
X117874935Y-138365243D01*
X117664891Y-138505591D01*
X117524543Y-138715635D01*
X117475260Y-138963400D01*
X117220740Y-138963400D01*
X117171457Y-138715635D01*
X117031109Y-138505591D01*
X116821065Y-138365243D01*
X116573300Y-138315960D01*
X115582700Y-138315960D01*
X115334935Y-138365243D01*
X115124891Y-138505591D01*
X114984543Y-138715635D01*
X114935260Y-138963400D01*
X114680740Y-138963400D01*
X114631457Y-138715635D01*
X114491109Y-138505591D01*
X114281065Y-138365243D01*
X114033300Y-138315960D01*
X113042700Y-138315960D01*
X112794935Y-138365243D01*
X112584891Y-138505591D01*
X112444543Y-138715635D01*
X112395260Y-138963400D01*
X112140740Y-138963400D01*
X112091457Y-138715635D01*
X111951109Y-138505591D01*
X111741065Y-138365243D01*
X111493300Y-138315960D01*
X110502700Y-138315960D01*
X110254935Y-138365243D01*
X110044891Y-138505591D01*
X109904543Y-138715635D01*
X109855260Y-138963400D01*
X109600740Y-138963400D01*
X109551457Y-138715635D01*
X109411109Y-138505591D01*
X109201065Y-138365243D01*
X108953300Y-138315960D01*
X107962700Y-138315960D01*
X107714935Y-138365243D01*
X107504891Y-138505591D01*
X107364543Y-138715635D01*
X107315260Y-138963400D01*
X107060740Y-138963400D01*
X107011457Y-138715635D01*
X106871109Y-138505591D01*
X106661065Y-138365243D01*
X106413300Y-138315960D01*
X105422700Y-138315960D01*
X105174935Y-138365243D01*
X104964891Y-138505591D01*
X104824543Y-138715635D01*
X104775260Y-138963400D01*
X104520740Y-138963400D01*
X104471457Y-138715635D01*
X104394000Y-138599713D01*
X104394000Y-138596840D01*
X105068841Y-137922000D01*
X133512956Y-137922000D01*
X133613019Y-137941904D01*
X133713082Y-137922000D01*
X133713084Y-137922000D01*
X134009442Y-137863051D01*
X134345514Y-137638495D01*
X134402199Y-137553660D01*
X136292683Y-135663177D01*
X136377514Y-135606495D01*
X136602070Y-135270423D01*
X136661019Y-134974065D01*
X136661019Y-134974064D01*
X136680923Y-134874000D01*
X136661019Y-134773937D01*
X136661019Y-122657970D01*
X136671000Y-122633874D01*
X136671000Y-122222126D01*
X136661019Y-122198030D01*
X136661019Y-112111241D01*
X136829339Y-111942921D01*
X137042019Y-111429465D01*
X137042019Y-110873703D01*
X136829339Y-110360247D01*
X136436356Y-109967264D01*
X135922900Y-109754584D01*
X135367138Y-109754584D01*
X134853682Y-109967264D01*
X134460699Y-110360247D01*
X134248019Y-110873703D01*
X134248019Y-111429465D01*
X134460699Y-111942921D01*
X134629020Y-112111242D01*
X134629020Y-122154481D01*
X134601000Y-122222126D01*
X134601000Y-122633874D01*
X134629020Y-122701519D01*
X134629019Y-134453159D01*
X133192179Y-135890000D01*
X104748063Y-135890000D01*
X104647999Y-135870096D01*
X104547935Y-135890000D01*
X94908841Y-135890000D01*
X94234000Y-135215160D01*
X94234000Y-133070600D01*
X102235260Y-133070600D01*
X102235260Y-134848600D01*
X102284543Y-135096365D01*
X102424891Y-135306409D01*
X102634935Y-135446757D01*
X102882700Y-135496040D01*
X103873300Y-135496040D01*
X104121065Y-135446757D01*
X104331109Y-135306409D01*
X104471457Y-135096365D01*
X104520740Y-134848600D01*
X104520740Y-133070600D01*
X107315260Y-133070600D01*
X107315260Y-134848600D01*
X107364543Y-135096365D01*
X107504891Y-135306409D01*
X107714935Y-135446757D01*
X107962700Y-135496040D01*
X108953300Y-135496040D01*
X109201065Y-135446757D01*
X109411109Y-135306409D01*
X109551457Y-135096365D01*
X109600740Y-134848600D01*
X109600740Y-133070600D01*
X109551457Y-132822835D01*
X109411109Y-132612791D01*
X109201065Y-132472443D01*
X108953300Y-132423160D01*
X107962700Y-132423160D01*
X107714935Y-132472443D01*
X107504891Y-132612791D01*
X107364543Y-132822835D01*
X107315260Y-133070600D01*
X104520740Y-133070600D01*
X104471457Y-132822835D01*
X104331109Y-132612791D01*
X104121065Y-132472443D01*
X103873300Y-132423160D01*
X102882700Y-132423160D01*
X102634935Y-132472443D01*
X102424891Y-132612791D01*
X102284543Y-132822835D01*
X102235260Y-133070600D01*
X94234000Y-133070600D01*
X94234000Y-124657657D01*
X94402320Y-124489337D01*
X94488000Y-124282487D01*
X94573680Y-124489337D01*
X94966663Y-124882320D01*
X95480119Y-125095000D01*
X96035881Y-125095000D01*
X96549337Y-124882320D01*
X96942320Y-124489337D01*
X97155000Y-123975881D01*
X97155000Y-123420119D01*
X96942320Y-122906663D01*
X96549337Y-122513680D01*
X96035881Y-122301000D01*
X95480119Y-122301000D01*
X94966663Y-122513680D01*
X94573680Y-122906663D01*
X94488000Y-123113513D01*
X94402320Y-122906663D01*
X94009337Y-122513680D01*
X93495881Y-122301000D01*
X93257840Y-122301000D01*
X92664179Y-121707339D01*
X92607494Y-121622504D01*
X92271422Y-121397948D01*
X91975064Y-121338999D01*
X91975062Y-121338999D01*
X91874999Y-121319095D01*
X91774936Y-121338999D01*
X81580064Y-121338999D01*
X81480000Y-121319095D01*
X81379936Y-121338999D01*
X81083578Y-121397948D01*
X81083577Y-121397949D01*
X81083576Y-121397949D01*
X80989376Y-121460892D01*
X80747506Y-121622504D01*
X80690823Y-121707336D01*
X80097159Y-122301000D01*
X79859119Y-122301000D01*
X79345663Y-122513680D01*
X78952680Y-122906663D01*
X78740000Y-123420119D01*
X78740000Y-123975881D01*
X78952680Y-124489337D01*
X79345663Y-124882320D01*
X79859119Y-125095000D01*
X80414881Y-125095000D01*
X80928337Y-124882320D01*
X81321320Y-124489337D01*
X81407000Y-124282487D01*
X81492680Y-124489337D01*
X81885663Y-124882320D01*
X82399119Y-125095000D01*
X82954881Y-125095000D01*
X83468337Y-124882320D01*
X83861320Y-124489337D01*
X84074000Y-123975881D01*
X84074000Y-123420119D01*
X84053654Y-123370999D01*
X91454159Y-123370999D01*
X91821000Y-123737840D01*
X91821000Y-123975881D01*
X92033680Y-124489337D01*
X92202001Y-124657658D01*
X92202000Y-135535936D01*
X92182096Y-135636000D01*
X92202000Y-135736063D01*
X92202000Y-135736064D01*
X92232620Y-135890000D01*
X41273463Y-135890000D01*
X41173399Y-135870096D01*
X41073335Y-135890000D01*
X40776977Y-135948949D01*
X40776976Y-135948950D01*
X40776975Y-135948950D01*
X40682775Y-136011893D01*
X40440905Y-136173505D01*
X40384222Y-136258337D01*
X39318000Y-137324560D01*
X39318000Y-135483171D01*
X39382700Y-135496040D01*
X40373300Y-135496040D01*
X40621065Y-135446757D01*
X40831109Y-135306409D01*
X40971457Y-135096365D01*
X41020740Y-134848600D01*
X41020740Y-133070600D01*
X40971457Y-132822835D01*
X40831109Y-132612791D01*
X40621065Y-132472443D01*
X40373300Y-132423160D01*
X39382700Y-132423160D01*
X39318000Y-132436029D01*
X39318000Y-123645933D01*
X39567037Y-123812334D01*
X40073120Y-123913000D01*
X41714880Y-123913000D01*
X42220963Y-123812334D01*
X42794865Y-123428865D01*
X43178334Y-122854963D01*
X43312990Y-122178000D01*
X43178334Y-121501037D01*
X42794865Y-120927135D01*
X42585724Y-120787392D01*
X42698641Y-120618400D01*
X42806133Y-120078000D01*
X42698641Y-119537600D01*
X42392529Y-119079471D01*
X42390327Y-119078000D01*
X42392529Y-119076529D01*
X42698641Y-118618400D01*
X42806133Y-118078000D01*
X42698641Y-117537600D01*
X42552441Y-117318796D01*
X42601809Y-117285809D01*
X42742157Y-117075765D01*
X42789053Y-116840000D01*
X44134370Y-116840000D01*
X44196001Y-116901631D01*
X44196000Y-132485095D01*
X44004891Y-132612791D01*
X43864543Y-132822835D01*
X43815260Y-133070600D01*
X43815260Y-133502250D01*
X43800073Y-133578600D01*
X43815260Y-133654950D01*
X43815260Y-134848600D01*
X43864543Y-135096365D01*
X44004891Y-135306409D01*
X44214935Y-135446757D01*
X44462700Y-135496040D01*
X45453300Y-135496040D01*
X45701065Y-135446757D01*
X45911109Y-135306409D01*
X46051457Y-135096365D01*
X46100740Y-134848600D01*
X46100740Y-133070600D01*
X46355260Y-133070600D01*
X46355260Y-134848600D01*
X46404543Y-135096365D01*
X46544891Y-135306409D01*
X46754935Y-135446757D01*
X47002700Y-135496040D01*
X47993300Y-135496040D01*
X48241065Y-135446757D01*
X48451109Y-135306409D01*
X48591457Y-135096365D01*
X48640740Y-134848600D01*
X48640740Y-133070600D01*
X48895260Y-133070600D01*
X48895260Y-134848600D01*
X48944543Y-135096365D01*
X49084891Y-135306409D01*
X49294935Y-135446757D01*
X49542700Y-135496040D01*
X50533300Y-135496040D01*
X50781065Y-135446757D01*
X50991109Y-135306409D01*
X51131457Y-135096365D01*
X51180740Y-134848600D01*
X51180740Y-133070600D01*
X51435260Y-133070600D01*
X51435260Y-134848600D01*
X51484543Y-135096365D01*
X51624891Y-135306409D01*
X51834935Y-135446757D01*
X52082700Y-135496040D01*
X53073300Y-135496040D01*
X53321065Y-135446757D01*
X53531109Y-135306409D01*
X53671457Y-135096365D01*
X53720740Y-134848600D01*
X53720740Y-133070600D01*
X53975260Y-133070600D01*
X53975260Y-134848600D01*
X54024543Y-135096365D01*
X54164891Y-135306409D01*
X54374935Y-135446757D01*
X54622700Y-135496040D01*
X55613300Y-135496040D01*
X55861065Y-135446757D01*
X56071109Y-135306409D01*
X56211457Y-135096365D01*
X56260740Y-134848600D01*
X56260740Y-133500790D01*
X56515260Y-133246270D01*
X56515260Y-134848600D01*
X56564543Y-135096365D01*
X56704891Y-135306409D01*
X56914935Y-135446757D01*
X57162700Y-135496040D01*
X58153300Y-135496040D01*
X58401065Y-135446757D01*
X58611109Y-135306409D01*
X58751457Y-135096365D01*
X58800740Y-134848600D01*
X58800740Y-133070600D01*
X58751457Y-132822835D01*
X58742620Y-132809610D01*
X58964231Y-132588000D01*
X59281993Y-132588000D01*
X59244891Y-132612791D01*
X59104543Y-132822835D01*
X59055260Y-133070600D01*
X59055260Y-134848600D01*
X59104543Y-135096365D01*
X59244891Y-135306409D01*
X59454935Y-135446757D01*
X59702700Y-135496040D01*
X60693300Y-135496040D01*
X60941065Y-135446757D01*
X61151109Y-135306409D01*
X61291457Y-135096365D01*
X61340740Y-134848600D01*
X61340740Y-133096000D01*
X61595260Y-133096000D01*
X61595260Y-134848600D01*
X61644543Y-135096365D01*
X61784891Y-135306409D01*
X61994935Y-135446757D01*
X62242700Y-135496040D01*
X63233300Y-135496040D01*
X63481065Y-135446757D01*
X63691109Y-135306409D01*
X63831457Y-135096365D01*
X63880740Y-134848600D01*
X63880740Y-133604000D01*
X88570957Y-133604000D01*
X88646000Y-133618927D01*
X88671870Y-133613781D01*
X88694126Y-133623000D01*
X89105874Y-133623000D01*
X89486280Y-133465431D01*
X89777431Y-133174280D01*
X89935000Y-132793874D01*
X89935000Y-132382126D01*
X89777431Y-132001720D01*
X89486280Y-131710569D01*
X89153339Y-131572661D01*
X89015431Y-131239720D01*
X88724280Y-130948569D01*
X88391339Y-130810661D01*
X88253431Y-130477720D01*
X87962280Y-130186569D01*
X87629339Y-130048661D01*
X87491431Y-129715720D01*
X87200280Y-129424569D01*
X86819874Y-129267000D01*
X86408126Y-129267000D01*
X86027720Y-129424569D01*
X85736569Y-129715720D01*
X85579000Y-130096126D01*
X85579000Y-130259369D01*
X85282370Y-130556000D01*
X57440947Y-130556000D01*
X57365900Y-130541072D01*
X57290853Y-130556000D01*
X57290852Y-130556000D01*
X57068583Y-130600212D01*
X56816529Y-130768629D01*
X56774018Y-130832251D01*
X55183110Y-132423160D01*
X54622700Y-132423160D01*
X54374935Y-132472443D01*
X54164891Y-132612791D01*
X54024543Y-132822835D01*
X53975260Y-133070600D01*
X53720740Y-133070600D01*
X53671457Y-132822835D01*
X53531109Y-132612791D01*
X53340000Y-132485095D01*
X53340000Y-128318126D01*
X53575000Y-128318126D01*
X53575000Y-128729874D01*
X53732569Y-129110280D01*
X54023720Y-129401431D01*
X54404126Y-129559000D01*
X54815874Y-129559000D01*
X55196280Y-129401431D01*
X55311711Y-129286000D01*
X67488957Y-129286000D01*
X67564000Y-129300927D01*
X67639043Y-129286000D01*
X67639048Y-129286000D01*
X67861317Y-129241788D01*
X68113371Y-129073371D01*
X68155884Y-129009746D01*
X68557746Y-128607884D01*
X68621371Y-128565371D01*
X68789788Y-128313317D01*
X68834000Y-128091048D01*
X68834000Y-128091044D01*
X68848927Y-128016001D01*
X68834000Y-127940958D01*
X68834000Y-127737066D01*
X69166280Y-127599431D01*
X69457431Y-127308280D01*
X69615000Y-126927874D01*
X69615000Y-126516126D01*
X69457431Y-126135720D01*
X69166280Y-125844569D01*
X68785874Y-125687000D01*
X68374126Y-125687000D01*
X67993720Y-125844569D01*
X67702569Y-126135720D01*
X67545000Y-126516126D01*
X67545000Y-126665681D01*
X67522629Y-126680629D01*
X67354212Y-126932684D01*
X67310000Y-127154953D01*
X67310000Y-127154957D01*
X67295073Y-127230000D01*
X67310000Y-127305043D01*
X67310000Y-127700370D01*
X67248370Y-127762000D01*
X55311711Y-127762000D01*
X55196280Y-127646569D01*
X54815874Y-127489000D01*
X54404126Y-127489000D01*
X54023720Y-127646569D01*
X53732569Y-127937720D01*
X53575000Y-128318126D01*
X53340000Y-128318126D01*
X53340000Y-114361630D01*
X53401630Y-114300000D01*
X66472957Y-114300000D01*
X66548000Y-114314927D01*
X66623043Y-114300000D01*
X66623048Y-114300000D01*
X66845317Y-114255788D01*
X67097371Y-114087371D01*
X67139884Y-114023746D01*
X67541747Y-113621883D01*
X67605371Y-113579371D01*
X67773788Y-113327317D01*
X67818000Y-113105048D01*
X67818000Y-113105044D01*
X67832927Y-113030001D01*
X67818000Y-112954958D01*
X67818000Y-111990119D01*
X78740000Y-111990119D01*
X78740000Y-112545881D01*
X78952680Y-113059337D01*
X79345663Y-113452320D01*
X79859119Y-113665000D01*
X80414881Y-113665000D01*
X80928337Y-113452320D01*
X81321320Y-113059337D01*
X81407000Y-112852487D01*
X81492680Y-113059337D01*
X81885663Y-113452320D01*
X82399119Y-113665000D01*
X82954881Y-113665000D01*
X83468337Y-113452320D01*
X83861320Y-113059337D01*
X84074000Y-112545881D01*
X84074000Y-111990119D01*
X91821000Y-111990119D01*
X91821000Y-112545881D01*
X92033680Y-113059337D01*
X92426663Y-113452320D01*
X92940119Y-113665000D01*
X93495881Y-113665000D01*
X94009337Y-113452320D01*
X94402320Y-113059337D01*
X94488000Y-112852487D01*
X94573680Y-113059337D01*
X94966663Y-113452320D01*
X95480119Y-113665000D01*
X96035881Y-113665000D01*
X96549337Y-113452320D01*
X96942320Y-113059337D01*
X97155000Y-112545881D01*
X97155000Y-111990119D01*
X96942320Y-111476663D01*
X96549337Y-111083680D01*
X96035881Y-110871000D01*
X95480119Y-110871000D01*
X94966663Y-111083680D01*
X94573680Y-111476663D01*
X94488000Y-111683513D01*
X94402320Y-111476663D01*
X94009337Y-111083680D01*
X93495881Y-110871000D01*
X92940119Y-110871000D01*
X92426663Y-111083680D01*
X92033680Y-111476663D01*
X91821000Y-111990119D01*
X84074000Y-111990119D01*
X83861320Y-111476663D01*
X83468337Y-111083680D01*
X82954881Y-110871000D01*
X82399119Y-110871000D01*
X81885663Y-111083680D01*
X81492680Y-111476663D01*
X81407000Y-111683513D01*
X81321320Y-111476663D01*
X80928337Y-111083680D01*
X80414881Y-110871000D01*
X79859119Y-110871000D01*
X79345663Y-111083680D01*
X78952680Y-111476663D01*
X78740000Y-111990119D01*
X67818000Y-111990119D01*
X67818000Y-111735066D01*
X68150280Y-111597431D01*
X68441431Y-111306280D01*
X68599000Y-110925874D01*
X68599000Y-110514126D01*
X68441431Y-110133720D01*
X68150280Y-109842569D01*
X67769874Y-109685000D01*
X67358126Y-109685000D01*
X66977720Y-109842569D01*
X66686569Y-110133720D01*
X66529000Y-110514126D01*
X66529000Y-110663682D01*
X66506630Y-110678629D01*
X66464119Y-110742251D01*
X66464118Y-110742252D01*
X66338213Y-110930683D01*
X66279073Y-111228000D01*
X66294001Y-111303048D01*
X66294000Y-112714370D01*
X66232370Y-112776000D01*
X53161042Y-112776000D01*
X53085999Y-112761073D01*
X53010956Y-112776000D01*
X53010952Y-112776000D01*
X52788683Y-112820212D01*
X52788682Y-112820213D01*
X52788681Y-112820213D01*
X52734641Y-112856322D01*
X52536629Y-112988629D01*
X52494116Y-113052254D01*
X52092252Y-113454118D01*
X52028630Y-113496629D01*
X51986119Y-113560251D01*
X51986118Y-113560252D01*
X51860213Y-113748683D01*
X51801073Y-114046000D01*
X51816001Y-114121048D01*
X51816000Y-132485095D01*
X51624891Y-132612791D01*
X51484543Y-132822835D01*
X51435260Y-133070600D01*
X51180740Y-133070600D01*
X51131457Y-132822835D01*
X50991109Y-132612791D01*
X50800000Y-132485095D01*
X50800000Y-127761066D01*
X51132280Y-127623431D01*
X51423431Y-127332280D01*
X51581000Y-126951874D01*
X51581000Y-126540126D01*
X51423431Y-126159720D01*
X51132280Y-125868569D01*
X50751874Y-125711000D01*
X50340126Y-125711000D01*
X49959720Y-125868569D01*
X49668569Y-126159720D01*
X49511000Y-126540126D01*
X49511000Y-126689682D01*
X49488630Y-126704629D01*
X49446119Y-126768251D01*
X49446118Y-126768252D01*
X49320213Y-126956683D01*
X49261073Y-127254000D01*
X49276001Y-127329048D01*
X49276000Y-132485095D01*
X49084891Y-132612791D01*
X48944543Y-132822835D01*
X48895260Y-133070600D01*
X48640740Y-133070600D01*
X48591457Y-132822835D01*
X48451109Y-132612791D01*
X48260000Y-132485095D01*
X48260000Y-111759066D01*
X48592280Y-111621431D01*
X48883431Y-111330280D01*
X49041000Y-110949874D01*
X49041000Y-110538126D01*
X48883431Y-110157720D01*
X48592280Y-109866569D01*
X48211874Y-109709000D01*
X47800126Y-109709000D01*
X47419720Y-109866569D01*
X47128569Y-110157720D01*
X46971000Y-110538126D01*
X46971000Y-110687682D01*
X46948630Y-110702629D01*
X46906119Y-110766251D01*
X46906118Y-110766252D01*
X46780213Y-110954683D01*
X46721073Y-111252000D01*
X46736001Y-111327048D01*
X46736000Y-132485095D01*
X46544891Y-132612791D01*
X46404543Y-132822835D01*
X46355260Y-133070600D01*
X46100740Y-133070600D01*
X46051457Y-132822835D01*
X45911109Y-132612791D01*
X45720000Y-132485095D01*
X45720000Y-116661042D01*
X45734927Y-116585999D01*
X45720000Y-116510956D01*
X45720000Y-116510952D01*
X45675788Y-116288683D01*
X45507371Y-116036629D01*
X45443746Y-115994116D01*
X45041884Y-115592254D01*
X44999371Y-115528629D01*
X44747317Y-115360212D01*
X44525048Y-115316000D01*
X44525043Y-115316000D01*
X44450000Y-115301073D01*
X44374957Y-115316000D01*
X42789053Y-115316000D01*
X42774436Y-115242515D01*
X42794865Y-115228865D01*
X43178334Y-114654963D01*
X43312990Y-113978000D01*
X43178334Y-113301037D01*
X42794865Y-112727135D01*
X42220963Y-112343666D01*
X41714880Y-112243000D01*
X40073120Y-112243000D01*
X39567037Y-112343666D01*
X39318000Y-112510067D01*
X39318000Y-102791126D01*
X105264000Y-102791126D01*
X105264000Y-103202874D01*
X105421569Y-103583280D01*
X105712720Y-103874431D01*
X106093126Y-104032000D01*
X106504874Y-104032000D01*
X106885280Y-103874431D01*
X107000711Y-103759000D01*
X109920370Y-103759000D01*
X110236001Y-104074632D01*
X110236000Y-125297047D01*
X110236001Y-125297051D01*
X110236000Y-126313047D01*
X110236001Y-126313052D01*
X110236000Y-132485095D01*
X110044891Y-132612791D01*
X109904543Y-132822835D01*
X109855260Y-133070600D01*
X109855260Y-134848600D01*
X109904543Y-135096365D01*
X110044891Y-135306409D01*
X110254935Y-135446757D01*
X110502700Y-135496040D01*
X111493300Y-135496040D01*
X111741065Y-135446757D01*
X111951109Y-135306409D01*
X112091457Y-135096365D01*
X112140740Y-134848600D01*
X112140740Y-133070600D01*
X112395260Y-133070600D01*
X112395260Y-134848600D01*
X112444543Y-135096365D01*
X112584891Y-135306409D01*
X112794935Y-135446757D01*
X113042700Y-135496040D01*
X114033300Y-135496040D01*
X114281065Y-135446757D01*
X114491109Y-135306409D01*
X114631457Y-135096365D01*
X114680740Y-134848600D01*
X114680740Y-133070600D01*
X114935260Y-133070600D01*
X114935260Y-134848600D01*
X114984543Y-135096365D01*
X115124891Y-135306409D01*
X115334935Y-135446757D01*
X115582700Y-135496040D01*
X116573300Y-135496040D01*
X116821065Y-135446757D01*
X117031109Y-135306409D01*
X117171457Y-135096365D01*
X117220740Y-134848600D01*
X117220740Y-133070600D01*
X117175269Y-132842000D01*
X117520731Y-132842000D01*
X117475260Y-133070600D01*
X117475260Y-134848600D01*
X117524543Y-135096365D01*
X117664891Y-135306409D01*
X117874935Y-135446757D01*
X118122700Y-135496040D01*
X119113300Y-135496040D01*
X119361065Y-135446757D01*
X119571109Y-135306409D01*
X119711457Y-135096365D01*
X119760740Y-134848600D01*
X119760740Y-133070600D01*
X119711457Y-132822835D01*
X119571109Y-132612791D01*
X119361065Y-132472443D01*
X119295819Y-132459465D01*
X119226854Y-132356252D01*
X119211986Y-132334000D01*
X120207370Y-132334000D01*
X120373499Y-132500130D01*
X120204891Y-132612791D01*
X120064543Y-132822835D01*
X120015260Y-133070600D01*
X120015260Y-134848600D01*
X120064543Y-135096365D01*
X120204891Y-135306409D01*
X120414935Y-135446757D01*
X120662700Y-135496040D01*
X121653300Y-135496040D01*
X121901065Y-135446757D01*
X122111109Y-135306409D01*
X122251457Y-135096365D01*
X122300740Y-134848600D01*
X122300740Y-133070600D01*
X122251457Y-132822835D01*
X122111109Y-132612791D01*
X121920000Y-132485095D01*
X121920000Y-132282047D01*
X121934928Y-132207000D01*
X121920000Y-132131952D01*
X121875788Y-131909683D01*
X121735014Y-131699000D01*
X122747370Y-131699000D01*
X122936001Y-131887631D01*
X122936001Y-132485095D01*
X122744891Y-132612791D01*
X122604543Y-132822835D01*
X122555260Y-133070600D01*
X122555260Y-134848600D01*
X122604543Y-135096365D01*
X122744891Y-135306409D01*
X122954935Y-135446757D01*
X123202700Y-135496040D01*
X124193300Y-135496040D01*
X124441065Y-135446757D01*
X124651109Y-135306409D01*
X124791457Y-135096365D01*
X124840740Y-134848600D01*
X124840740Y-133070600D01*
X124791457Y-132822835D01*
X124651109Y-132612791D01*
X124460000Y-132485095D01*
X124460000Y-131647047D01*
X124474928Y-131572000D01*
X124449666Y-131445000D01*
X124415788Y-131274683D01*
X124275014Y-131064000D01*
X125287370Y-131064000D01*
X125476001Y-131252632D01*
X125476000Y-132485095D01*
X125284891Y-132612791D01*
X125144543Y-132822835D01*
X125095260Y-133070600D01*
X125095260Y-134848600D01*
X125144543Y-135096365D01*
X125284891Y-135306409D01*
X125494935Y-135446757D01*
X125742700Y-135496040D01*
X126733300Y-135496040D01*
X126981065Y-135446757D01*
X127191109Y-135306409D01*
X127331457Y-135096365D01*
X127380740Y-134848600D01*
X127380740Y-133070600D01*
X127331457Y-132822835D01*
X127191109Y-132612791D01*
X127000000Y-132485095D01*
X127000000Y-131012047D01*
X127014928Y-130937000D01*
X126999239Y-130858126D01*
X126955788Y-130639683D01*
X126843825Y-130472118D01*
X126829882Y-130451251D01*
X126787371Y-130387629D01*
X126723749Y-130345118D01*
X126194883Y-129816253D01*
X126152371Y-129752629D01*
X125900317Y-129584212D01*
X125678048Y-129540000D01*
X125678043Y-129540000D01*
X125603000Y-129525073D01*
X125527957Y-129540000D01*
X119380000Y-129540000D01*
X119380000Y-121859711D01*
X119495431Y-121744280D01*
X119653000Y-121363874D01*
X119653000Y-120952126D01*
X119495431Y-120571720D01*
X119204280Y-120280569D01*
X118823874Y-120123000D01*
X118412126Y-120123000D01*
X118031720Y-120280569D01*
X117740569Y-120571720D01*
X117583000Y-120952126D01*
X117583000Y-121363874D01*
X117740569Y-121744280D01*
X117856000Y-121859711D01*
X117856000Y-123171000D01*
X117650126Y-123171000D01*
X117269720Y-123328569D01*
X116978569Y-123619720D01*
X116821000Y-124000126D01*
X116821000Y-124411874D01*
X116978569Y-124792280D01*
X117094001Y-124907712D01*
X117094001Y-126219000D01*
X116888126Y-126219000D01*
X116507720Y-126376569D01*
X116216569Y-126667720D01*
X116059000Y-127048126D01*
X116059000Y-127459874D01*
X116216569Y-127840280D01*
X116332001Y-127955712D01*
X116332000Y-129234047D01*
X116332001Y-129234052D01*
X116332001Y-129267000D01*
X116126126Y-129267000D01*
X115745720Y-129424569D01*
X115454569Y-129715720D01*
X115297000Y-130096126D01*
X115297000Y-130507874D01*
X115454569Y-130888280D01*
X115570000Y-131003711D01*
X115570000Y-131369956D01*
X115555073Y-131445000D01*
X115570000Y-131520043D01*
X115570000Y-131520047D01*
X115614212Y-131742316D01*
X115782629Y-131994371D01*
X115846253Y-132036883D01*
X116232529Y-132423160D01*
X115582700Y-132423160D01*
X115334935Y-132472443D01*
X115124891Y-132612791D01*
X114984543Y-132822835D01*
X114935260Y-133070600D01*
X114680740Y-133070600D01*
X114631457Y-132822835D01*
X114491109Y-132612791D01*
X114300000Y-132485095D01*
X114300000Y-102296630D01*
X114375630Y-102221000D01*
X122982289Y-102221000D01*
X123097720Y-102336431D01*
X123478126Y-102494000D01*
X123889874Y-102494000D01*
X124270280Y-102336431D01*
X124561431Y-102045280D01*
X124719000Y-101664874D01*
X124719000Y-101253126D01*
X124561431Y-100872720D01*
X124270280Y-100581569D01*
X123889874Y-100424000D01*
X123478126Y-100424000D01*
X123097720Y-100581569D01*
X122982289Y-100697000D01*
X114135042Y-100697000D01*
X114059999Y-100682073D01*
X113984956Y-100697000D01*
X113984952Y-100697000D01*
X113762683Y-100741212D01*
X113762682Y-100741213D01*
X113762681Y-100741213D01*
X113708641Y-100777322D01*
X113510629Y-100909629D01*
X113468116Y-100973254D01*
X113052252Y-101389118D01*
X112988630Y-101431629D01*
X112946119Y-101495251D01*
X112946118Y-101495252D01*
X112820213Y-101683683D01*
X112761073Y-101981000D01*
X112776001Y-102056048D01*
X112776000Y-132485095D01*
X112584891Y-132612791D01*
X112444543Y-132822835D01*
X112395260Y-133070600D01*
X112140740Y-133070600D01*
X112091457Y-132822835D01*
X111951109Y-132612791D01*
X111760000Y-132485095D01*
X111760000Y-103834047D01*
X111774928Y-103759000D01*
X111732633Y-103546371D01*
X111715788Y-103461683D01*
X111547371Y-103209629D01*
X111483749Y-103167118D01*
X110827883Y-102511253D01*
X110785371Y-102447629D01*
X110533317Y-102279212D01*
X110311048Y-102235000D01*
X110311043Y-102235000D01*
X110236000Y-102220073D01*
X110160957Y-102235000D01*
X107000711Y-102235000D01*
X106885280Y-102119569D01*
X106504874Y-101962000D01*
X106093126Y-101962000D01*
X105712720Y-102119569D01*
X105421569Y-102410720D01*
X105264000Y-102791126D01*
X39318000Y-102791126D01*
X39318000Y-101267126D01*
X48876000Y-101267126D01*
X48876000Y-101678874D01*
X49033569Y-102059280D01*
X49324720Y-102350431D01*
X49705126Y-102508000D01*
X50116874Y-102508000D01*
X50497280Y-102350431D01*
X50788431Y-102059280D01*
X50946000Y-101678874D01*
X50946000Y-101267126D01*
X50788431Y-100886720D01*
X50497280Y-100595569D01*
X50116874Y-100438000D01*
X49705126Y-100438000D01*
X49324720Y-100595569D01*
X49033569Y-100886720D01*
X48876000Y-101267126D01*
X39318000Y-101267126D01*
X39318000Y-98195971D01*
X39382700Y-98208840D01*
X40373300Y-98208840D01*
X40386000Y-98206314D01*
X40386000Y-99238957D01*
X40371073Y-99314000D01*
X40386000Y-99389043D01*
X40386000Y-99389047D01*
X40430212Y-99611316D01*
X40598629Y-99863371D01*
X40662254Y-99905884D01*
X41064116Y-100307746D01*
X41106629Y-100371371D01*
X41304641Y-100503678D01*
X41358681Y-100539787D01*
X41358682Y-100539787D01*
X41358683Y-100539788D01*
X41580952Y-100584000D01*
X41580956Y-100584000D01*
X41655999Y-100598927D01*
X41731042Y-100584000D01*
X44374957Y-100584000D01*
X44450000Y-100598927D01*
X44525043Y-100584000D01*
X44525048Y-100584000D01*
X44747317Y-100539788D01*
X44999371Y-100371371D01*
X45041884Y-100307746D01*
X45443746Y-99905884D01*
X45507371Y-99863371D01*
X45675788Y-99611317D01*
X45720000Y-99389048D01*
X45720000Y-99389044D01*
X45734927Y-99314001D01*
X45720000Y-99238958D01*
X45720000Y-98146905D01*
X45911109Y-98019209D01*
X46051457Y-97809165D01*
X46100740Y-97561400D01*
X46100740Y-95850000D01*
X46355260Y-95850000D01*
X46355260Y-97561400D01*
X46404543Y-97809165D01*
X46544891Y-98019209D01*
X46754935Y-98159557D01*
X46839755Y-98176429D01*
X46948630Y-98339371D01*
X47012252Y-98381882D01*
X47414116Y-98783746D01*
X47456629Y-98847371D01*
X47654641Y-98979678D01*
X47708681Y-99015787D01*
X47708682Y-99015787D01*
X47708683Y-99015788D01*
X47930952Y-99060000D01*
X47930956Y-99060000D01*
X48005999Y-99074927D01*
X48081042Y-99060000D01*
X60884957Y-99060000D01*
X60960000Y-99074927D01*
X61035043Y-99060000D01*
X61035048Y-99060000D01*
X61257317Y-99015788D01*
X61509371Y-98847371D01*
X61551884Y-98783746D01*
X61953747Y-98381883D01*
X62017371Y-98339371D01*
X62120792Y-98184591D01*
X62242700Y-98208840D01*
X63233300Y-98208840D01*
X63481065Y-98159557D01*
X63691109Y-98019209D01*
X63831457Y-97809165D01*
X63880740Y-97561400D01*
X63880740Y-96266000D01*
X65767000Y-96266000D01*
X65767000Y-96436874D01*
X65924569Y-96817280D01*
X66040001Y-96932712D01*
X66040000Y-100762957D01*
X66025073Y-100838000D01*
X66040000Y-100913043D01*
X66040000Y-100913047D01*
X66084212Y-101135316D01*
X66252629Y-101387371D01*
X66316253Y-101429883D01*
X66845118Y-101958749D01*
X66887629Y-102022371D01*
X67139683Y-102190788D01*
X67361952Y-102235000D01*
X67361953Y-102235000D01*
X67437000Y-102249928D01*
X67512047Y-102235000D01*
X70672289Y-102235000D01*
X70787720Y-102350431D01*
X71168126Y-102508000D01*
X71579874Y-102508000D01*
X71960280Y-102350431D01*
X72251431Y-102059280D01*
X72409000Y-101678874D01*
X72409000Y-101267126D01*
X72251431Y-100886720D01*
X71960280Y-100595569D01*
X71579874Y-100438000D01*
X71168126Y-100438000D01*
X70787720Y-100595569D01*
X70672289Y-100711000D01*
X67752631Y-100711000D01*
X67564000Y-100522370D01*
X67564000Y-96932711D01*
X67679431Y-96817280D01*
X67837000Y-96436874D01*
X67837000Y-96266000D01*
X83490957Y-96266000D01*
X83566000Y-96280927D01*
X83641043Y-96266000D01*
X83641048Y-96266000D01*
X83863317Y-96221788D01*
X84115371Y-96053371D01*
X84157883Y-95989747D01*
X84370630Y-95777000D01*
X84533874Y-95777000D01*
X84914280Y-95619431D01*
X85205431Y-95328280D01*
X85363000Y-94947874D01*
X85363000Y-94536126D01*
X85205431Y-94155720D01*
X84914280Y-93864569D01*
X84533874Y-93707000D01*
X84122126Y-93707000D01*
X83741720Y-93864569D01*
X83450569Y-94155720D01*
X83293000Y-94536126D01*
X83293000Y-94699370D01*
X83250370Y-94742000D01*
X79521000Y-94742000D01*
X79521000Y-94536126D01*
X79363431Y-94155720D01*
X79072280Y-93864569D01*
X78691874Y-93707000D01*
X78280126Y-93707000D01*
X77899720Y-93864569D01*
X77608569Y-94155720D01*
X77576144Y-94234000D01*
X67622802Y-94234000D01*
X67308000Y-93919199D01*
X67308000Y-89857711D01*
X67425431Y-89740280D01*
X67583000Y-89359874D01*
X67583000Y-88948126D01*
X92437000Y-88948126D01*
X92437000Y-89359874D01*
X92594569Y-89740280D01*
X92712001Y-89857712D01*
X92712000Y-95810153D01*
X92697112Y-95885000D01*
X92712000Y-95959847D01*
X92712000Y-95959851D01*
X92756096Y-96181536D01*
X92924071Y-96432929D01*
X92987530Y-96475331D01*
X93669071Y-97156873D01*
X93711471Y-97220329D01*
X93774927Y-97262729D01*
X93962862Y-97388304D01*
X93972334Y-97390188D01*
X94184548Y-97432400D01*
X94184552Y-97432400D01*
X94259400Y-97447288D01*
X94334248Y-97432400D01*
X95825297Y-97432400D01*
X95835352Y-97434400D01*
X102235260Y-97434400D01*
X102235260Y-97561400D01*
X102284543Y-97809165D01*
X102424891Y-98019209D01*
X102634935Y-98159557D01*
X102882700Y-98208840D01*
X103873300Y-98208840D01*
X104121065Y-98159557D01*
X104331109Y-98019209D01*
X104471457Y-97809165D01*
X104520740Y-97561400D01*
X104520740Y-96031000D01*
X104726874Y-96031000D01*
X104775260Y-96010958D01*
X104775260Y-97561400D01*
X104824543Y-97809165D01*
X104964891Y-98019209D01*
X105174935Y-98159557D01*
X105422700Y-98208840D01*
X106413300Y-98208840D01*
X106661065Y-98159557D01*
X106871109Y-98019209D01*
X107011457Y-97809165D01*
X107060740Y-97561400D01*
X107060740Y-95783400D01*
X107030426Y-95631000D01*
X107345574Y-95631000D01*
X107315260Y-95783400D01*
X107315260Y-97561400D01*
X107364543Y-97809165D01*
X107504891Y-98019209D01*
X107714935Y-98159557D01*
X107962700Y-98208840D01*
X108953300Y-98208840D01*
X109201065Y-98159557D01*
X109411109Y-98019209D01*
X109551457Y-97809165D01*
X109600740Y-97561400D01*
X109600740Y-95783400D01*
X109570426Y-95631000D01*
X109885574Y-95631000D01*
X109855260Y-95783400D01*
X109855260Y-97561400D01*
X109904543Y-97809165D01*
X110044891Y-98019209D01*
X110254935Y-98159557D01*
X110502700Y-98208840D01*
X111493300Y-98208840D01*
X111741065Y-98159557D01*
X111951109Y-98019209D01*
X112091457Y-97809165D01*
X112140740Y-97561400D01*
X112140740Y-95783400D01*
X112110426Y-95631000D01*
X112425574Y-95631000D01*
X112395260Y-95783400D01*
X112395260Y-97561400D01*
X112444543Y-97809165D01*
X112584891Y-98019209D01*
X112794935Y-98159557D01*
X113042700Y-98208840D01*
X114033300Y-98208840D01*
X114281065Y-98159557D01*
X114491109Y-98019209D01*
X114631457Y-97809165D01*
X114680740Y-97561400D01*
X114680740Y-95783400D01*
X114650426Y-95631000D01*
X114965574Y-95631000D01*
X114935260Y-95783400D01*
X114935260Y-97561400D01*
X114984543Y-97809165D01*
X115124891Y-98019209D01*
X115334935Y-98159557D01*
X115582700Y-98208840D01*
X116573300Y-98208840D01*
X116821065Y-98159557D01*
X117031109Y-98019209D01*
X117171457Y-97809165D01*
X117220740Y-97561400D01*
X117220740Y-95783400D01*
X117190426Y-95631000D01*
X117505574Y-95631000D01*
X117475260Y-95783400D01*
X117475260Y-97561400D01*
X117524543Y-97809165D01*
X117664891Y-98019209D01*
X117874935Y-98159557D01*
X118122700Y-98208840D01*
X119113300Y-98208840D01*
X119361065Y-98159557D01*
X119571109Y-98019209D01*
X119711457Y-97809165D01*
X119760740Y-97561400D01*
X119760740Y-95783400D01*
X119730426Y-95631000D01*
X120045574Y-95631000D01*
X120015260Y-95783400D01*
X120015260Y-97561400D01*
X120064543Y-97809165D01*
X120204891Y-98019209D01*
X120414935Y-98159557D01*
X120662700Y-98208840D01*
X121653300Y-98208840D01*
X121901065Y-98159557D01*
X122111109Y-98019209D01*
X122251457Y-97809165D01*
X122300740Y-97561400D01*
X122300740Y-95783400D01*
X122270426Y-95631000D01*
X122585574Y-95631000D01*
X122555260Y-95783400D01*
X122555260Y-97561400D01*
X122604543Y-97809165D01*
X122744891Y-98019209D01*
X122954935Y-98159557D01*
X123202700Y-98208840D01*
X124193300Y-98208840D01*
X124441065Y-98159557D01*
X124651109Y-98019209D01*
X124791457Y-97809165D01*
X124840740Y-97561400D01*
X124840740Y-95783400D01*
X124810426Y-95631000D01*
X125125574Y-95631000D01*
X125095260Y-95783400D01*
X125095260Y-97561400D01*
X125144543Y-97809165D01*
X125284891Y-98019209D01*
X125494935Y-98159557D01*
X125742700Y-98208840D01*
X126733300Y-98208840D01*
X126981065Y-98159557D01*
X127191109Y-98019209D01*
X127331457Y-97809165D01*
X127380740Y-97561400D01*
X127380740Y-95783400D01*
X127350426Y-95631000D01*
X131251289Y-95631000D01*
X131366720Y-95746431D01*
X131747126Y-95904000D01*
X132158874Y-95904000D01*
X132539280Y-95746431D01*
X132830431Y-95455280D01*
X132988000Y-95074874D01*
X132988000Y-94663126D01*
X132830431Y-94282720D01*
X132539280Y-93991569D01*
X132158874Y-93834000D01*
X131747126Y-93834000D01*
X131366720Y-93991569D01*
X131251289Y-94107000D01*
X125669711Y-94107000D01*
X125718431Y-94058280D01*
X125876000Y-93677874D01*
X125876000Y-93266126D01*
X125718431Y-92885720D01*
X125427280Y-92594569D01*
X125046874Y-92437000D01*
X124635126Y-92437000D01*
X124460000Y-92509539D01*
X124460000Y-92254105D01*
X124651109Y-92126409D01*
X124791457Y-91916365D01*
X124840740Y-91668600D01*
X124840740Y-89890600D01*
X125095260Y-89890600D01*
X125095260Y-91668600D01*
X125144543Y-91916365D01*
X125284891Y-92126409D01*
X125494935Y-92266757D01*
X125742700Y-92316040D01*
X126733300Y-92316040D01*
X126981065Y-92266757D01*
X127191109Y-92126409D01*
X127331457Y-91916365D01*
X127380740Y-91668600D01*
X127380740Y-91528900D01*
X138330270Y-91528900D01*
X138557000Y-91755631D01*
X138557001Y-92770288D01*
X138441569Y-92885720D01*
X138284000Y-93266126D01*
X138284000Y-93677874D01*
X138441569Y-94058280D01*
X138732720Y-94349431D01*
X139113126Y-94507000D01*
X139524874Y-94507000D01*
X139905280Y-94349431D01*
X140196431Y-94058280D01*
X140354000Y-93677874D01*
X140354000Y-93266126D01*
X140196431Y-92885720D01*
X140081000Y-92770289D01*
X140081000Y-91515042D01*
X140095927Y-91439999D01*
X140081000Y-91364956D01*
X140081000Y-91364952D01*
X140036788Y-91142683D01*
X139868371Y-90890629D01*
X139804750Y-90848119D01*
X139237783Y-90281153D01*
X139195271Y-90217529D01*
X138943217Y-90049112D01*
X138720948Y-90004900D01*
X138720943Y-90004900D01*
X138645900Y-89989973D01*
X138570857Y-90004900D01*
X127380740Y-90004900D01*
X127380740Y-89890600D01*
X127331457Y-89642835D01*
X127191109Y-89432791D01*
X126981065Y-89292443D01*
X126733300Y-89243160D01*
X125742700Y-89243160D01*
X125494935Y-89292443D01*
X125284891Y-89432791D01*
X125144543Y-89642835D01*
X125095260Y-89890600D01*
X124840740Y-89890600D01*
X124791457Y-89642835D01*
X124651109Y-89432791D01*
X124441065Y-89292443D01*
X124193300Y-89243160D01*
X123202700Y-89243160D01*
X122954935Y-89292443D01*
X122744891Y-89432791D01*
X122604543Y-89642835D01*
X122555260Y-89890600D01*
X122555260Y-91668600D01*
X122604543Y-91916365D01*
X122744891Y-92126409D01*
X122936001Y-92254105D01*
X122936001Y-92888952D01*
X122921073Y-92964000D01*
X122980213Y-93261317D01*
X123103483Y-93445803D01*
X123148630Y-93513371D01*
X123212252Y-93555882D01*
X123614116Y-93957746D01*
X123656629Y-94021371D01*
X123784782Y-94107000D01*
X121216802Y-94107000D01*
X120902000Y-93792199D01*
X120902000Y-93597237D01*
X120952126Y-93618000D01*
X121363874Y-93618000D01*
X121744280Y-93460431D01*
X122035431Y-93169280D01*
X122193000Y-92788874D01*
X122193000Y-92377126D01*
X122093910Y-92137901D01*
X122111109Y-92126409D01*
X122251457Y-91916365D01*
X122300740Y-91668600D01*
X122300740Y-89890600D01*
X122251457Y-89642835D01*
X122111109Y-89432791D01*
X121901065Y-89292443D01*
X121653300Y-89243160D01*
X121172739Y-89243160D01*
X121177000Y-89232874D01*
X121177000Y-88821126D01*
X121019431Y-88440720D01*
X120728280Y-88149569D01*
X120347874Y-87992000D01*
X119936126Y-87992000D01*
X119555720Y-88149569D01*
X119264569Y-88440720D01*
X119107000Y-88821126D01*
X119107000Y-89046890D01*
X119103749Y-89044718D01*
X118600283Y-88541253D01*
X118557771Y-88477629D01*
X118305717Y-88309212D01*
X118083448Y-88265000D01*
X118083443Y-88265000D01*
X118008400Y-88250073D01*
X117933357Y-88265000D01*
X101675042Y-88265000D01*
X101599999Y-88250073D01*
X101524956Y-88265000D01*
X101524952Y-88265000D01*
X101302683Y-88309212D01*
X101302682Y-88309213D01*
X101302681Y-88309213D01*
X101299863Y-88311096D01*
X101050629Y-88477629D01*
X101008116Y-88541254D01*
X100606254Y-88943116D01*
X100542629Y-88985629D01*
X100374212Y-89237684D01*
X100330000Y-89459953D01*
X100330000Y-89459957D01*
X100315073Y-89535000D01*
X100330000Y-89610043D01*
X100330001Y-92770288D01*
X100214569Y-92885720D01*
X100057000Y-93266126D01*
X100057000Y-93677874D01*
X100214569Y-94058280D01*
X100505720Y-94349431D01*
X100886126Y-94507000D01*
X101297874Y-94507000D01*
X101678280Y-94349431D01*
X101969431Y-94058280D01*
X102127000Y-93677874D01*
X102127000Y-93266126D01*
X101969431Y-92885720D01*
X101854000Y-92770289D01*
X101854000Y-89850630D01*
X101915630Y-89789000D01*
X104795469Y-89789000D01*
X104775260Y-89890600D01*
X104775260Y-91668600D01*
X104824543Y-91916365D01*
X104964891Y-92126409D01*
X105174935Y-92266757D01*
X105422700Y-92316040D01*
X106413300Y-92316040D01*
X106661065Y-92266757D01*
X106871109Y-92126409D01*
X107011457Y-91916365D01*
X107060740Y-91668600D01*
X107060740Y-89890600D01*
X107040531Y-89789000D01*
X107335469Y-89789000D01*
X107315260Y-89890600D01*
X107315260Y-91668600D01*
X107364543Y-91916365D01*
X107504891Y-92126409D01*
X107714935Y-92266757D01*
X107962700Y-92316040D01*
X108953300Y-92316040D01*
X109201065Y-92266757D01*
X109411109Y-92126409D01*
X109551457Y-91916365D01*
X109600740Y-91668600D01*
X109600740Y-89890600D01*
X109580531Y-89789000D01*
X109875469Y-89789000D01*
X109855260Y-89890600D01*
X109855260Y-91668600D01*
X109904543Y-91916365D01*
X110044891Y-92126409D01*
X110254935Y-92266757D01*
X110502700Y-92316040D01*
X111493300Y-92316040D01*
X111741065Y-92266757D01*
X111951109Y-92126409D01*
X112091457Y-91916365D01*
X112140740Y-91668600D01*
X112140740Y-89890600D01*
X112120531Y-89789000D01*
X112415469Y-89789000D01*
X112395260Y-89890600D01*
X112395260Y-91668600D01*
X112444543Y-91916365D01*
X112584891Y-92126409D01*
X112794935Y-92266757D01*
X113042700Y-92316040D01*
X114033300Y-92316040D01*
X114281065Y-92266757D01*
X114491109Y-92126409D01*
X114631457Y-91916365D01*
X114680740Y-91668600D01*
X114680740Y-89890600D01*
X114660531Y-89789000D01*
X114955469Y-89789000D01*
X114935260Y-89890600D01*
X114935260Y-91668600D01*
X114984543Y-91916365D01*
X115124891Y-92126409D01*
X115334935Y-92266757D01*
X115582700Y-92316040D01*
X116573300Y-92316040D01*
X116821065Y-92266757D01*
X117031109Y-92126409D01*
X117171457Y-91916365D01*
X117220740Y-91668600D01*
X117220740Y-89890600D01*
X117200531Y-89789000D01*
X117495469Y-89789000D01*
X117475260Y-89890600D01*
X117475260Y-91668600D01*
X117524543Y-91916365D01*
X117664891Y-92126409D01*
X117874935Y-92266757D01*
X118122700Y-92316040D01*
X119113300Y-92316040D01*
X119361065Y-92266757D01*
X119382000Y-92252768D01*
X119382000Y-94032153D01*
X119367112Y-94107000D01*
X106653447Y-94107000D01*
X106578400Y-94092072D01*
X106503353Y-94107000D01*
X106503352Y-94107000D01*
X106281083Y-94151212D01*
X106029029Y-94319629D01*
X105986518Y-94383251D01*
X105556000Y-94813770D01*
X105556000Y-94790126D01*
X105398431Y-94409720D01*
X105107280Y-94118569D01*
X104726874Y-93961000D01*
X104315126Y-93961000D01*
X103934720Y-94118569D01*
X103815052Y-94238237D01*
X103614083Y-94278212D01*
X103362029Y-94446629D01*
X103319518Y-94510251D01*
X102892251Y-94937519D01*
X102828630Y-94980029D01*
X102786119Y-95043651D01*
X102786118Y-95043652D01*
X102700182Y-95172265D01*
X102634935Y-95185243D01*
X102424891Y-95325591D01*
X102284543Y-95535635D01*
X102235260Y-95783400D01*
X102235260Y-95910400D01*
X95835352Y-95910400D01*
X95825297Y-95912400D01*
X94574202Y-95912400D01*
X94232000Y-95570199D01*
X94232000Y-89857711D01*
X94349431Y-89740280D01*
X94507000Y-89359874D01*
X94507000Y-88948126D01*
X94349431Y-88567720D01*
X94058280Y-88276569D01*
X93677874Y-88119000D01*
X93266126Y-88119000D01*
X92885720Y-88276569D01*
X92594569Y-88567720D01*
X92437000Y-88948126D01*
X67583000Y-88948126D01*
X67425431Y-88567720D01*
X67134280Y-88276569D01*
X66753874Y-88119000D01*
X66342126Y-88119000D01*
X65961720Y-88276569D01*
X65670569Y-88567720D01*
X65513000Y-88948126D01*
X65513000Y-89359874D01*
X65670569Y-89740280D01*
X65788001Y-89857712D01*
X65788000Y-94159153D01*
X65773112Y-94234000D01*
X62051042Y-94234000D01*
X61975999Y-94219073D01*
X61900956Y-94234000D01*
X61900952Y-94234000D01*
X61678683Y-94278212D01*
X61678682Y-94278213D01*
X61678681Y-94278213D01*
X61624641Y-94314322D01*
X61426629Y-94446629D01*
X61384116Y-94510254D01*
X60982252Y-94912118D01*
X60918630Y-94954629D01*
X60876119Y-95018251D01*
X60876118Y-95018252D01*
X60785248Y-95154249D01*
X60693300Y-95135960D01*
X59702700Y-95135960D01*
X59454935Y-95185243D01*
X59244891Y-95325591D01*
X59104543Y-95535635D01*
X59055260Y-95783400D01*
X59055260Y-97536000D01*
X58800740Y-97536000D01*
X58800740Y-95783400D01*
X58751457Y-95535635D01*
X58742620Y-95522410D01*
X59159750Y-95105281D01*
X59223371Y-95062771D01*
X59278658Y-94980029D01*
X59344232Y-94881889D01*
X59391788Y-94810717D01*
X59412843Y-94704868D01*
X59551431Y-94566280D01*
X59681196Y-94253000D01*
X59895874Y-94253000D01*
X60276280Y-94095431D01*
X60567431Y-93804280D01*
X60725000Y-93423874D01*
X60725000Y-93012126D01*
X60567431Y-92631720D01*
X60276280Y-92340569D01*
X60217062Y-92316040D01*
X60693300Y-92316040D01*
X60941065Y-92266757D01*
X61151109Y-92126409D01*
X61291457Y-91916365D01*
X61340740Y-91668600D01*
X61340740Y-89890600D01*
X61595260Y-89890600D01*
X61595260Y-91668600D01*
X61644543Y-91916365D01*
X61765973Y-92098096D01*
X61703000Y-92250126D01*
X61703000Y-92661874D01*
X61860569Y-93042280D01*
X62151720Y-93333431D01*
X62532126Y-93491000D01*
X62943874Y-93491000D01*
X63324280Y-93333431D01*
X63615431Y-93042280D01*
X63773000Y-92661874D01*
X63773000Y-92250126D01*
X63710027Y-92098096D01*
X63831457Y-91916365D01*
X63880740Y-91668600D01*
X63880740Y-89890600D01*
X63831457Y-89642835D01*
X63691109Y-89432791D01*
X63481065Y-89292443D01*
X63233300Y-89243160D01*
X62242700Y-89243160D01*
X61994935Y-89292443D01*
X61784891Y-89432791D01*
X61644543Y-89642835D01*
X61595260Y-89890600D01*
X61340740Y-89890600D01*
X61291457Y-89642835D01*
X61151109Y-89432791D01*
X60941065Y-89292443D01*
X60693300Y-89243160D01*
X59702700Y-89243160D01*
X59673302Y-89249008D01*
X59671050Y-89237684D01*
X59645788Y-89110683D01*
X59477371Y-88858629D01*
X59413749Y-88816118D01*
X58986483Y-88388853D01*
X58943971Y-88325229D01*
X58691917Y-88156812D01*
X58469648Y-88112600D01*
X58469643Y-88112600D01*
X58394600Y-88097673D01*
X58319557Y-88112600D01*
X55955047Y-88112600D01*
X55880000Y-88097672D01*
X55804953Y-88112600D01*
X55804952Y-88112600D01*
X55582683Y-88156812D01*
X55330629Y-88325229D01*
X55288118Y-88388851D01*
X54632251Y-89044719D01*
X54568630Y-89087229D01*
X54526119Y-89150851D01*
X54526118Y-89150852D01*
X54440182Y-89279465D01*
X54374935Y-89292443D01*
X54164891Y-89432791D01*
X54024543Y-89642835D01*
X53975260Y-89890600D01*
X53975260Y-91668600D01*
X54024543Y-91916365D01*
X54164891Y-92126409D01*
X54374935Y-92266757D01*
X54622700Y-92316040D01*
X55613300Y-92316040D01*
X55861065Y-92266757D01*
X56071109Y-92126409D01*
X56211457Y-91916365D01*
X56260740Y-91668600D01*
X56260740Y-89890600D01*
X56211457Y-89642835D01*
X56207291Y-89636600D01*
X56568709Y-89636600D01*
X56564543Y-89642835D01*
X56515260Y-89890600D01*
X56515260Y-91668600D01*
X56564543Y-91916365D01*
X56704891Y-92126409D01*
X56914935Y-92266757D01*
X57162700Y-92316040D01*
X58153300Y-92316040D01*
X58166000Y-92313514D01*
X58166000Y-92380957D01*
X58151073Y-92456000D01*
X58166000Y-92531043D01*
X58166000Y-92531047D01*
X58210212Y-92753316D01*
X58366435Y-92987122D01*
X58087720Y-93102569D01*
X57796569Y-93393720D01*
X57639000Y-93774126D01*
X57639000Y-94185874D01*
X57722444Y-94387326D01*
X57172253Y-94937517D01*
X57108629Y-94980029D01*
X56980182Y-95172265D01*
X56914935Y-95185243D01*
X56704891Y-95325591D01*
X56564543Y-95535635D01*
X56515260Y-95783400D01*
X56515260Y-97536000D01*
X56260740Y-97536000D01*
X56260740Y-95783400D01*
X56211457Y-95535635D01*
X56071109Y-95325591D01*
X55880000Y-95197895D01*
X55880000Y-94944042D01*
X55894927Y-94868999D01*
X55880000Y-94793956D01*
X55880000Y-94793952D01*
X55835788Y-94571683D01*
X55808295Y-94530536D01*
X55752230Y-94446630D01*
X55667371Y-94319629D01*
X55603747Y-94277117D01*
X55201884Y-93875254D01*
X55159371Y-93811629D01*
X54907317Y-93643212D01*
X54685048Y-93599000D01*
X54685043Y-93599000D01*
X54610000Y-93584073D01*
X54534957Y-93599000D01*
X48406000Y-93599000D01*
X48406000Y-93266126D01*
X48386066Y-93218000D01*
X52248957Y-93218000D01*
X52324000Y-93232927D01*
X52399043Y-93218000D01*
X52399048Y-93218000D01*
X52621317Y-93173788D01*
X52873371Y-93005371D01*
X52915884Y-92941746D01*
X53063746Y-92793884D01*
X53127371Y-92751371D01*
X53295788Y-92499317D01*
X53340000Y-92277047D01*
X53340000Y-92277044D01*
X53345262Y-92250589D01*
X53531109Y-92126409D01*
X53671457Y-91916365D01*
X53720740Y-91668600D01*
X53720740Y-89890600D01*
X53671457Y-89642835D01*
X53531109Y-89432791D01*
X53321065Y-89292443D01*
X53073300Y-89243160D01*
X52082700Y-89243160D01*
X51834935Y-89292443D01*
X51624891Y-89432791D01*
X51484543Y-89642835D01*
X51435260Y-89890600D01*
X51435260Y-91668600D01*
X51440312Y-91694000D01*
X51175688Y-91694000D01*
X51180740Y-91668600D01*
X51180740Y-89890600D01*
X51131457Y-89642835D01*
X50991109Y-89432791D01*
X50781065Y-89292443D01*
X50533300Y-89243160D01*
X49542700Y-89243160D01*
X49294935Y-89292443D01*
X49084891Y-89432791D01*
X48944543Y-89642835D01*
X48895260Y-89890600D01*
X48895260Y-91668600D01*
X48900312Y-91694000D01*
X48635688Y-91694000D01*
X48640740Y-91668600D01*
X48640740Y-89890600D01*
X48591457Y-89642835D01*
X48451109Y-89432791D01*
X48241065Y-89292443D01*
X47993300Y-89243160D01*
X47002700Y-89243160D01*
X46754935Y-89292443D01*
X46544891Y-89432791D01*
X46404543Y-89642835D01*
X46355260Y-89890600D01*
X46355260Y-91668600D01*
X46360312Y-91694000D01*
X46095688Y-91694000D01*
X46100740Y-91668600D01*
X46100740Y-89890600D01*
X46051457Y-89642835D01*
X45911109Y-89432791D01*
X45701065Y-89292443D01*
X45453300Y-89243160D01*
X44462700Y-89243160D01*
X44214935Y-89292443D01*
X44004891Y-89432791D01*
X43864543Y-89642835D01*
X43815260Y-89890600D01*
X43815260Y-91668600D01*
X43837269Y-91779248D01*
X43646629Y-91906629D01*
X43604116Y-91970254D01*
X43202252Y-92372118D01*
X43138630Y-92414629D01*
X43096119Y-92478251D01*
X43096118Y-92478252D01*
X42970213Y-92666683D01*
X42911073Y-92964000D01*
X42926001Y-93039048D01*
X42926001Y-95138486D01*
X42913300Y-95135960D01*
X41922700Y-95135960D01*
X41910000Y-95138486D01*
X41910000Y-92313514D01*
X41922700Y-92316040D01*
X42913300Y-92316040D01*
X43161065Y-92266757D01*
X43371109Y-92126409D01*
X43511457Y-91916365D01*
X43560740Y-91668600D01*
X43560740Y-89890600D01*
X43511457Y-89642835D01*
X43371109Y-89432791D01*
X43161065Y-89292443D01*
X42913300Y-89243160D01*
X41922700Y-89243160D01*
X41910000Y-89245686D01*
X41910000Y-59436000D01*
X44069000Y-59436000D01*
X44069000Y-78740000D01*
X44117336Y-78983004D01*
X44254987Y-79189013D01*
X44460996Y-79326664D01*
X44704000Y-79375000D01*
X46101000Y-79375000D01*
X46101000Y-84836000D01*
X46149336Y-85079004D01*
X46286987Y-85285013D01*
X46492996Y-85422664D01*
X46736000Y-85471000D01*
X141351000Y-85471000D01*
X141351000Y-102362000D01*
X141399336Y-102605004D01*
X141406683Y-102616000D01*
X134212063Y-102616000D01*
X134111999Y-102596096D01*
X134011935Y-102616000D01*
X133715577Y-102674949D01*
X133715576Y-102674950D01*
X133715575Y-102674950D01*
X133679901Y-102698787D01*
X133379505Y-102899505D01*
X133322822Y-102984337D01*
X131940337Y-104366822D01*
X131855506Y-104423505D01*
X131798823Y-104508337D01*
X131630950Y-104759577D01*
X131552096Y-105156000D01*
X131572001Y-105256068D01*
X131572000Y-119128256D01*
X131553000Y-119174126D01*
X131553000Y-119585874D01*
X131630045Y-119771878D01*
X131630949Y-119776422D01*
X131633523Y-119780275D01*
X131710569Y-119966280D01*
X131852930Y-120108641D01*
X131855505Y-120112495D01*
X131859359Y-120115070D01*
X132001720Y-120257431D01*
X132187723Y-120334476D01*
X132191577Y-120337051D01*
X132196123Y-120337955D01*
X132382126Y-120415000D01*
X132583455Y-120415000D01*
X132588000Y-120415904D01*
X132592545Y-120415000D01*
X132793874Y-120415000D01*
X132979878Y-120337955D01*
X132984422Y-120337051D01*
X132988275Y-120334477D01*
X133174280Y-120257431D01*
X133316641Y-120115070D01*
X133320495Y-120112495D01*
X133323070Y-120108641D01*
X133465431Y-119966280D01*
X133542476Y-119780277D01*
X133545051Y-119776423D01*
X133545955Y-119771877D01*
X133623000Y-119585874D01*
X133623000Y-119174126D01*
X133604000Y-119128256D01*
X133604000Y-105793703D01*
X134248019Y-105793703D01*
X134248019Y-106349465D01*
X134460699Y-106862921D01*
X134853682Y-107255904D01*
X135367138Y-107468584D01*
X135922900Y-107468584D01*
X136436356Y-107255904D01*
X136829339Y-106862921D01*
X136903676Y-106683453D01*
X141732000Y-106683453D01*
X141732000Y-107946547D01*
X142215365Y-109113493D01*
X143108507Y-110006635D01*
X144275453Y-110490000D01*
X145538547Y-110490000D01*
X146705493Y-110006635D01*
X147598635Y-109113493D01*
X148082000Y-107946547D01*
X148082000Y-106683453D01*
X147598635Y-105516507D01*
X146705493Y-104623365D01*
X145538547Y-104140000D01*
X144275453Y-104140000D01*
X143108507Y-104623365D01*
X142215365Y-105516507D01*
X141732000Y-106683453D01*
X136903676Y-106683453D01*
X137042019Y-106349465D01*
X137042019Y-105793703D01*
X136829339Y-105280247D01*
X136436356Y-104887264D01*
X135922900Y-104674584D01*
X135367138Y-104674584D01*
X134853682Y-104887264D01*
X134460699Y-105280247D01*
X134248019Y-105793703D01*
X133604000Y-105793703D01*
X133604000Y-105576840D01*
X134532841Y-104648000D01*
X142647937Y-104648000D01*
X142748000Y-104667904D01*
X142848063Y-104648000D01*
X142848065Y-104648000D01*
X143144423Y-104589051D01*
X143480495Y-104364495D01*
X143537180Y-104279660D01*
X144819841Y-102997000D01*
X147828000Y-102997000D01*
X148071004Y-102948664D01*
X148277013Y-102811013D01*
X148414664Y-102605004D01*
X148463000Y-102362000D01*
X148463000Y-79248000D01*
X148414664Y-79004996D01*
X148277013Y-78798987D01*
X148071004Y-78661336D01*
X147828000Y-78613000D01*
X147574000Y-78613000D01*
X147574000Y-69730475D01*
X147605765Y-69724157D01*
X147815809Y-69583809D01*
X147956157Y-69373765D01*
X148005440Y-69126000D01*
X148005440Y-67526000D01*
X147956157Y-67278235D01*
X147815809Y-67068191D01*
X147605765Y-66927843D01*
X147358000Y-66878560D01*
X145758000Y-66878560D01*
X145510235Y-66927843D01*
X145300191Y-67068191D01*
X145159843Y-67278235D01*
X145110560Y-67526000D01*
X145110560Y-69126000D01*
X145159843Y-69373765D01*
X145300191Y-69583809D01*
X145510235Y-69724157D01*
X145542000Y-69730475D01*
X145542001Y-78613000D01*
X141351000Y-78613000D01*
X141351000Y-59436000D01*
X141302664Y-59192996D01*
X141165013Y-58986987D01*
X140959004Y-58849336D01*
X140716000Y-58801000D01*
X133858000Y-58801000D01*
X133614996Y-58849336D01*
X133408987Y-58986987D01*
X133271336Y-59192996D01*
X133223000Y-59436000D01*
X133223000Y-78613000D01*
X132969000Y-78613000D01*
X132969000Y-59436000D01*
X132920664Y-59192996D01*
X132783013Y-58986987D01*
X132577004Y-58849336D01*
X132334000Y-58801000D01*
X125476000Y-58801000D01*
X125232996Y-58849336D01*
X125026987Y-58986987D01*
X124889336Y-59192996D01*
X124841000Y-59436000D01*
X124841000Y-78613000D01*
X121157066Y-78613000D01*
X121177000Y-78564874D01*
X121177000Y-78153126D01*
X121019431Y-77772720D01*
X120902000Y-77655289D01*
X120902000Y-73974801D01*
X122270224Y-72606578D01*
X122342371Y-72558371D01*
X122510788Y-72306317D01*
X122555000Y-72084048D01*
X122555000Y-72073793D01*
X122567888Y-72009000D01*
X122555000Y-71944207D01*
X122555000Y-59375711D01*
X122670431Y-59260280D01*
X122828000Y-58879874D01*
X122828000Y-58468126D01*
X122670431Y-58087720D01*
X122379280Y-57796569D01*
X121998874Y-57639000D01*
X121587126Y-57639000D01*
X121206720Y-57796569D01*
X120915569Y-58087720D01*
X120758000Y-58468126D01*
X120758000Y-58879874D01*
X120915569Y-59260280D01*
X121031000Y-59375711D01*
X121031000Y-59638047D01*
X121031001Y-59638052D01*
X121031000Y-66991478D01*
X120935765Y-66927843D01*
X120688000Y-66878560D01*
X119088000Y-66878560D01*
X118840235Y-66927843D01*
X118630191Y-67068191D01*
X118489843Y-67278235D01*
X118440560Y-67526000D01*
X118440560Y-69126000D01*
X118489843Y-69373765D01*
X118630191Y-69583809D01*
X118705218Y-69633941D01*
X118224339Y-70114821D01*
X118139505Y-70171505D01*
X117914949Y-70507578D01*
X117897759Y-70594000D01*
X117836096Y-70904000D01*
X117856000Y-71004064D01*
X117856001Y-78613000D01*
X114554000Y-78613000D01*
X114554000Y-59436000D01*
X114505664Y-59192996D01*
X114368013Y-58986987D01*
X114162004Y-58849336D01*
X113919000Y-58801000D01*
X107061000Y-58801000D01*
X106817996Y-58849336D01*
X106611987Y-58986987D01*
X106474336Y-59192996D01*
X106426000Y-59436000D01*
X106426000Y-78613000D01*
X106299000Y-78613000D01*
X106299000Y-59436000D01*
X106250664Y-59192996D01*
X106113013Y-58986987D01*
X105907004Y-58849336D01*
X105664000Y-58801000D01*
X98806000Y-58801000D01*
X98562996Y-58849336D01*
X98356987Y-58986987D01*
X98219336Y-59192996D01*
X98171000Y-59436000D01*
X98171000Y-78613000D01*
X94487066Y-78613000D01*
X94507000Y-78564874D01*
X94507000Y-78153126D01*
X94349431Y-77772720D01*
X94232000Y-77655289D01*
X94232000Y-74228801D01*
X95600224Y-72860578D01*
X95672371Y-72812371D01*
X95840788Y-72560317D01*
X95885000Y-72338048D01*
X95885000Y-72327793D01*
X95897888Y-72263000D01*
X95885000Y-72198207D01*
X95885000Y-59375711D01*
X96000431Y-59260280D01*
X96158000Y-58879874D01*
X96158000Y-58468126D01*
X96000431Y-58087720D01*
X95709280Y-57796569D01*
X95328874Y-57639000D01*
X94917126Y-57639000D01*
X94536720Y-57796569D01*
X94245569Y-58087720D01*
X94088000Y-58468126D01*
X94088000Y-58879874D01*
X94245569Y-59260280D01*
X94361000Y-59375711D01*
X94361000Y-59892047D01*
X94361001Y-59892052D01*
X94361000Y-67220504D01*
X94221809Y-67012191D01*
X94011765Y-66871843D01*
X93764000Y-66822560D01*
X92164000Y-66822560D01*
X91916235Y-66871843D01*
X91706191Y-67012191D01*
X91565843Y-67222235D01*
X91516560Y-67470000D01*
X91516560Y-69070000D01*
X91565843Y-69317765D01*
X91706191Y-69527809D01*
X91781218Y-69577941D01*
X91300339Y-70058821D01*
X91215505Y-70115505D01*
X90990949Y-70451578D01*
X90932000Y-70747935D01*
X90912096Y-70848000D01*
X90932000Y-70948064D01*
X90932001Y-78613000D01*
X87503000Y-78613000D01*
X87503000Y-59436000D01*
X87454664Y-59192996D01*
X87317013Y-58986987D01*
X87111004Y-58849336D01*
X86868000Y-58801000D01*
X80010000Y-58801000D01*
X79766996Y-58849336D01*
X79560987Y-58986987D01*
X79423336Y-59192996D01*
X79375000Y-59436000D01*
X79375000Y-78613000D01*
X79248000Y-78613000D01*
X79248000Y-59436000D01*
X79199664Y-59192996D01*
X79062013Y-58986987D01*
X78856004Y-58849336D01*
X78613000Y-58801000D01*
X71755000Y-58801000D01*
X71511996Y-58849336D01*
X71305987Y-58986987D01*
X71168336Y-59192996D01*
X71120000Y-59436000D01*
X71120000Y-78613000D01*
X67563066Y-78613000D01*
X67583000Y-78564874D01*
X67583000Y-78153126D01*
X67425431Y-77772720D01*
X67308000Y-77655289D01*
X67308000Y-74355801D01*
X68549227Y-73114576D01*
X68621371Y-73066371D01*
X68789788Y-72814317D01*
X68834000Y-72592048D01*
X68834000Y-72581793D01*
X68846888Y-72517001D01*
X68834000Y-72452209D01*
X68834000Y-59375711D01*
X68949431Y-59260280D01*
X69107000Y-58879874D01*
X69107000Y-58468126D01*
X68949431Y-58087720D01*
X68658280Y-57796569D01*
X68277874Y-57639000D01*
X67866126Y-57639000D01*
X67485720Y-57796569D01*
X67194569Y-58087720D01*
X67037000Y-58468126D01*
X67037000Y-58879874D01*
X67194569Y-59260280D01*
X67310001Y-59375712D01*
X67310000Y-67030436D01*
X67297809Y-67012191D01*
X67087765Y-66871843D01*
X66840000Y-66822560D01*
X65240000Y-66822560D01*
X64992235Y-66871843D01*
X64782191Y-67012191D01*
X64641843Y-67222235D01*
X64592560Y-67470000D01*
X64592560Y-69070000D01*
X64641843Y-69317765D01*
X64782191Y-69527809D01*
X64857218Y-69577941D01*
X64630339Y-69804821D01*
X64545505Y-69861505D01*
X64320949Y-70197578D01*
X64264839Y-70479664D01*
X64242096Y-70594000D01*
X64262000Y-70694064D01*
X64262001Y-78613000D01*
X60579000Y-78613000D01*
X60579000Y-59436000D01*
X60530664Y-59192996D01*
X60393013Y-58986987D01*
X60187004Y-58849336D01*
X59944000Y-58801000D01*
X53086000Y-58801000D01*
X52842996Y-58849336D01*
X52636987Y-58986987D01*
X52499336Y-59192996D01*
X52451000Y-59436000D01*
X52451000Y-78613000D01*
X52197000Y-78613000D01*
X52197000Y-59436000D01*
X52148664Y-59192996D01*
X52011013Y-58986987D01*
X51805004Y-58849336D01*
X51562000Y-58801000D01*
X44704000Y-58801000D01*
X44460996Y-58849336D01*
X44254987Y-58986987D01*
X44117336Y-59192996D01*
X44069000Y-59436000D01*
X41910000Y-59436000D01*
X41910000Y-59375711D01*
X42025431Y-59260280D01*
X42183000Y-58879874D01*
X42183000Y-58468126D01*
X42025431Y-58087720D01*
X41734280Y-57796569D01*
X41353874Y-57639000D01*
X40942126Y-57639000D01*
X40561720Y-57796569D01*
X40270569Y-58087720D01*
X40113000Y-58468126D01*
X40113000Y-58879874D01*
X40270569Y-59260280D01*
X40386001Y-59375712D01*
X40386000Y-68401047D01*
X40386001Y-68401052D01*
X40386000Y-95138486D01*
X40373300Y-95135960D01*
X39382700Y-95135960D01*
X39318000Y-95148829D01*
X39318000Y-46303981D01*
X39378090Y-45884391D01*
X39532381Y-45545048D01*
X39775712Y-45262648D01*
X40088523Y-45059894D01*
X40469184Y-44946052D01*
X40666350Y-44931400D01*
X160985419Y-44931400D01*
X161405009Y-44991490D01*
G04 #@! TD*
M02*
