G04 #@! TF.GenerationSoftware,KiCad,Pcbnew,(5.0.0)*
G04 #@! TF.CreationDate,2019-12-13T16:41:55-06:00*
G04 #@! TF.ProjectId,ScienceMotorController_Hardware,536369656E63654D6F746F72436F6E74,rev?*
G04 #@! TF.SameCoordinates,Original*
G04 #@! TF.FileFunction,Profile,NP*
%FSLAX46Y46*%
G04 Gerber Fmt 4.6, Leading zero omitted, Abs format (unit mm)*
G04 Created by KiCad (PCBNEW (5.0.0)) date 12/13/19 16:41:55*
%MOMM*%
%LPD*%
G01*
G04 APERTURE LIST*
%ADD10C,0.150000*%
G04 APERTURE END LIST*
D10*
X163068000Y-61976000D02*
X163068000Y-46228000D01*
X38608000Y-61976000D02*
X38608000Y-46228000D01*
X163068000Y-83566000D02*
X163068000Y-61976000D01*
X38608000Y-61976000D02*
X38608000Y-83566000D01*
X38608000Y-46253400D02*
G75*
G02X40640000Y-44221400I2032000J0D01*
G01*
X161036000Y-44221400D02*
G75*
G02X163068000Y-46253400I0J-2032000D01*
G01*
X161036000Y-44221400D02*
X40640000Y-44221400D01*
X38608000Y-150114000D02*
X38608000Y-83566000D01*
X163068000Y-117094000D02*
X163068000Y-83566000D01*
X145288000Y-119126000D02*
X161036000Y-119126000D01*
X145288000Y-139954000D02*
X145288000Y-119126000D01*
X161036000Y-139954000D02*
X145288000Y-139954000D01*
X163068000Y-150114000D02*
X163068000Y-141986000D01*
X163068000Y-162814000D02*
X163068000Y-154178000D01*
X40640000Y-164846000D02*
X161036000Y-164846000D01*
X38608000Y-162814000D02*
X38608000Y-154178000D01*
X40640000Y-164846000D02*
G75*
G02X38608000Y-162814000I0J2032000D01*
G01*
X38608000Y-150114000D02*
G75*
G02X38608000Y-154178000I0J-2032000D01*
G01*
X163068000Y-162814000D02*
G75*
G02X161036000Y-164846000I-2032000J0D01*
G01*
X163068000Y-117094000D02*
G75*
G02X161036000Y-119126000I-2032000J0D01*
G01*
X163068000Y-154178000D02*
G75*
G02X163068000Y-150114000I0J2032000D01*
G01*
X161036000Y-139954000D02*
G75*
G02X163068000Y-141986000I0J-2032000D01*
G01*
M02*
